<?xml version="1.0" encoding="utf-8" standalone="no"?>
<!DOCTYPE svg PUBLIC "-//W3C//DTD SVG 1.1//EN"
  "http://www.w3.org/Graphics/SVG/1.1/DTD/svg11.dtd">
<svg xmlns:xlink="http://www.w3.org/1999/xlink" width="864pt" height="432pt" viewBox="0 0 864 432" xmlns="http://www.w3.org/2000/svg" version="1.1">
 <metadata>
  <rdf:RDF xmlns:dc="http://purl.org/dc/elements/1.1/" xmlns:cc="http://creativecommons.org/ns#" xmlns:rdf="http://www.w3.org/1999/02/22-rdf-syntax-ns#">
   <cc:Work>
    <dc:type rdf:resource="http://purl.org/dc/dcmitype/StillImage"/>
    <dc:date>2025-04-29T12:45:26.667136</dc:date>
    <dc:format>image/svg+xml</dc:format>
    <dc:creator>
     <cc:Agent>
      <dc:title>Matplotlib v3.10.1, https://matplotlib.org/</dc:title>
     </cc:Agent>
    </dc:creator>
   </cc:Work>
  </rdf:RDF>
 </metadata>
 <defs>
  <style type="text/css">*{stroke-linejoin: round; stroke-linecap: butt}</style>
 </defs>
 <g id="figure_1">
  <g id="patch_1">
   <path d="M 0 432 
L 864 432 
L 864 0 
L 0 0 
z
" style="fill: #ffffff"/>
  </g>
  <g id="axes_1">
   <g id="patch_2">
    <path d="M 56.09 187.48 
L 853.2 187.48 
L 853.2 26.88 
L 56.09 26.88 
z
" style="fill: #ffffff"/>
   </g>
   <g id="matplotlib.axis_1">
    <g id="xtick_1">
     <g id="line2d_1">
      <defs>
       <path id="mc44c02750d" d="M 0 0 
L 0 3.5 
" style="stroke: #000000; stroke-width: 0.8"/>
      </defs>
      <g>
       <use xlink:href="#mc44c02750d" x="92.322273" y="187.48" style="stroke: #000000; stroke-width: 0.8"/>
      </g>
     </g>
     <g id="text_1">
      <!-- 0 -->
      <g transform="translate(89.141023 202.078437) scale(0.1 -0.1)">
       <defs>
        <path id="DejaVuSans-30" d="M 2034 4250 
Q 1547 4250 1301 3770 
Q 1056 3291 1056 2328 
Q 1056 1369 1301 889 
Q 1547 409 2034 409 
Q 2525 409 2770 889 
Q 3016 1369 3016 2328 
Q 3016 3291 2770 3770 
Q 2525 4250 2034 4250 
z
M 2034 4750 
Q 2819 4750 3233 4129 
Q 3647 3509 3647 2328 
Q 3647 1150 3233 529 
Q 2819 -91 2034 -91 
Q 1250 -91 836 529 
Q 422 1150 422 2328 
Q 422 3509 836 4129 
Q 1250 4750 2034 4750 
z
" transform="scale(0.015625)"/>
       </defs>
       <use xlink:href="#DejaVuSans-30"/>
      </g>
     </g>
    </g>
    <g id="xtick_2">
     <g id="line2d_2">
      <g>
       <use xlink:href="#mc44c02750d" x="213.096515" y="187.48" style="stroke: #000000; stroke-width: 0.8"/>
      </g>
     </g>
     <g id="text_2">
      <!-- 10 -->
      <g transform="translate(206.734015 202.078437) scale(0.1 -0.1)">
       <defs>
        <path id="DejaVuSans-31" d="M 794 531 
L 1825 531 
L 1825 4091 
L 703 3866 
L 703 4441 
L 1819 4666 
L 2450 4666 
L 2450 531 
L 3481 531 
L 3481 0 
L 794 0 
L 794 531 
z
" transform="scale(0.015625)"/>
       </defs>
       <use xlink:href="#DejaVuSans-31"/>
       <use xlink:href="#DejaVuSans-30" transform="translate(63.623047 0)"/>
      </g>
     </g>
    </g>
    <g id="xtick_3">
     <g id="line2d_3">
      <g>
       <use xlink:href="#mc44c02750d" x="333.870758" y="187.48" style="stroke: #000000; stroke-width: 0.8"/>
      </g>
     </g>
     <g id="text_3">
      <!-- 20 -->
      <g transform="translate(327.508258 202.078437) scale(0.1 -0.1)">
       <defs>
        <path id="DejaVuSans-32" d="M 1228 531 
L 3431 531 
L 3431 0 
L 469 0 
L 469 531 
Q 828 903 1448 1529 
Q 2069 2156 2228 2338 
Q 2531 2678 2651 2914 
Q 2772 3150 2772 3378 
Q 2772 3750 2511 3984 
Q 2250 4219 1831 4219 
Q 1534 4219 1204 4116 
Q 875 4013 500 3803 
L 500 4441 
Q 881 4594 1212 4672 
Q 1544 4750 1819 4750 
Q 2544 4750 2975 4387 
Q 3406 4025 3406 3419 
Q 3406 3131 3298 2873 
Q 3191 2616 2906 2266 
Q 2828 2175 2409 1742 
Q 1991 1309 1228 531 
z
" transform="scale(0.015625)"/>
       </defs>
       <use xlink:href="#DejaVuSans-32"/>
       <use xlink:href="#DejaVuSans-30" transform="translate(63.623047 0)"/>
      </g>
     </g>
    </g>
    <g id="xtick_4">
     <g id="line2d_4">
      <g>
       <use xlink:href="#mc44c02750d" x="454.645" y="187.48" style="stroke: #000000; stroke-width: 0.8"/>
      </g>
     </g>
     <g id="text_4">
      <!-- 30 -->
      <g transform="translate(448.2825 202.078437) scale(0.1 -0.1)">
       <defs>
        <path id="DejaVuSans-33" d="M 2597 2516 
Q 3050 2419 3304 2112 
Q 3559 1806 3559 1356 
Q 3559 666 3084 287 
Q 2609 -91 1734 -91 
Q 1441 -91 1130 -33 
Q 819 25 488 141 
L 488 750 
Q 750 597 1062 519 
Q 1375 441 1716 441 
Q 2309 441 2620 675 
Q 2931 909 2931 1356 
Q 2931 1769 2642 2001 
Q 2353 2234 1838 2234 
L 1294 2234 
L 1294 2753 
L 1863 2753 
Q 2328 2753 2575 2939 
Q 2822 3125 2822 3475 
Q 2822 3834 2567 4026 
Q 2313 4219 1838 4219 
Q 1578 4219 1281 4162 
Q 984 4106 628 3988 
L 628 4550 
Q 988 4650 1302 4700 
Q 1616 4750 1894 4750 
Q 2613 4750 3031 4423 
Q 3450 4097 3450 3541 
Q 3450 3153 3228 2886 
Q 3006 2619 2597 2516 
z
" transform="scale(0.015625)"/>
       </defs>
       <use xlink:href="#DejaVuSans-33"/>
       <use xlink:href="#DejaVuSans-30" transform="translate(63.623047 0)"/>
      </g>
     </g>
    </g>
    <g id="xtick_5">
     <g id="line2d_5">
      <g>
       <use xlink:href="#mc44c02750d" x="575.419242" y="187.48" style="stroke: #000000; stroke-width: 0.8"/>
      </g>
     </g>
     <g id="text_5">
      <!-- 40 -->
      <g transform="translate(569.056742 202.078437) scale(0.1 -0.1)">
       <defs>
        <path id="DejaVuSans-34" d="M 2419 4116 
L 825 1625 
L 2419 1625 
L 2419 4116 
z
M 2253 4666 
L 3047 4666 
L 3047 1625 
L 3713 1625 
L 3713 1100 
L 3047 1100 
L 3047 0 
L 2419 0 
L 2419 1100 
L 313 1100 
L 313 1709 
L 2253 4666 
z
" transform="scale(0.015625)"/>
       </defs>
       <use xlink:href="#DejaVuSans-34"/>
       <use xlink:href="#DejaVuSans-30" transform="translate(63.623047 0)"/>
      </g>
     </g>
    </g>
    <g id="xtick_6">
     <g id="line2d_6">
      <g>
       <use xlink:href="#mc44c02750d" x="696.193485" y="187.48" style="stroke: #000000; stroke-width: 0.8"/>
      </g>
     </g>
     <g id="text_6">
      <!-- 50 -->
      <g transform="translate(689.830985 202.078437) scale(0.1 -0.1)">
       <defs>
        <path id="DejaVuSans-35" d="M 691 4666 
L 3169 4666 
L 3169 4134 
L 1269 4134 
L 1269 2991 
Q 1406 3038 1543 3061 
Q 1681 3084 1819 3084 
Q 2600 3084 3056 2656 
Q 3513 2228 3513 1497 
Q 3513 744 3044 326 
Q 2575 -91 1722 -91 
Q 1428 -91 1123 -41 
Q 819 9 494 109 
L 494 744 
Q 775 591 1075 516 
Q 1375 441 1709 441 
Q 2250 441 2565 725 
Q 2881 1009 2881 1497 
Q 2881 1984 2565 2268 
Q 2250 2553 1709 2553 
Q 1456 2553 1204 2497 
Q 953 2441 691 2322 
L 691 4666 
z
" transform="scale(0.015625)"/>
       </defs>
       <use xlink:href="#DejaVuSans-35"/>
       <use xlink:href="#DejaVuSans-30" transform="translate(63.623047 0)"/>
      </g>
     </g>
    </g>
    <g id="xtick_7">
     <g id="line2d_7">
      <g>
       <use xlink:href="#mc44c02750d" x="816.967727" y="187.48" style="stroke: #000000; stroke-width: 0.8"/>
      </g>
     </g>
     <g id="text_7">
      <!-- 60 -->
      <g transform="translate(810.605227 202.078437) scale(0.1 -0.1)">
       <defs>
        <path id="DejaVuSans-36" d="M 2113 2584 
Q 1688 2584 1439 2293 
Q 1191 2003 1191 1497 
Q 1191 994 1439 701 
Q 1688 409 2113 409 
Q 2538 409 2786 701 
Q 3034 994 3034 1497 
Q 3034 2003 2786 2293 
Q 2538 2584 2113 2584 
z
M 3366 4563 
L 3366 3988 
Q 3128 4100 2886 4159 
Q 2644 4219 2406 4219 
Q 1781 4219 1451 3797 
Q 1122 3375 1075 2522 
Q 1259 2794 1537 2939 
Q 1816 3084 2150 3084 
Q 2853 3084 3261 2657 
Q 3669 2231 3669 1497 
Q 3669 778 3244 343 
Q 2819 -91 2113 -91 
Q 1303 -91 875 529 
Q 447 1150 447 2328 
Q 447 3434 972 4092 
Q 1497 4750 2381 4750 
Q 2619 4750 2861 4703 
Q 3103 4656 3366 4563 
z
" transform="scale(0.015625)"/>
       </defs>
       <use xlink:href="#DejaVuSans-36"/>
       <use xlink:href="#DejaVuSans-30" transform="translate(63.623047 0)"/>
      </g>
     </g>
    </g>
    <g id="text_8">
     <!-- Time (s) -->
     <g transform="translate(434.316094 215.756562) scale(0.1 -0.1)">
      <defs>
       <path id="DejaVuSans-54" d="M -19 4666 
L 3928 4666 
L 3928 4134 
L 2272 4134 
L 2272 0 
L 1638 0 
L 1638 4134 
L -19 4134 
L -19 4666 
z
" transform="scale(0.015625)"/>
       <path id="DejaVuSans-69" d="M 603 3500 
L 1178 3500 
L 1178 0 
L 603 0 
L 603 3500 
z
M 603 4863 
L 1178 4863 
L 1178 4134 
L 603 4134 
L 603 4863 
z
" transform="scale(0.015625)"/>
       <path id="DejaVuSans-6d" d="M 3328 2828 
Q 3544 3216 3844 3400 
Q 4144 3584 4550 3584 
Q 5097 3584 5394 3201 
Q 5691 2819 5691 2113 
L 5691 0 
L 5113 0 
L 5113 2094 
Q 5113 2597 4934 2840 
Q 4756 3084 4391 3084 
Q 3944 3084 3684 2787 
Q 3425 2491 3425 1978 
L 3425 0 
L 2847 0 
L 2847 2094 
Q 2847 2600 2669 2842 
Q 2491 3084 2119 3084 
Q 1678 3084 1418 2786 
Q 1159 2488 1159 1978 
L 1159 0 
L 581 0 
L 581 3500 
L 1159 3500 
L 1159 2956 
Q 1356 3278 1631 3431 
Q 1906 3584 2284 3584 
Q 2666 3584 2933 3390 
Q 3200 3197 3328 2828 
z
" transform="scale(0.015625)"/>
       <path id="DejaVuSans-65" d="M 3597 1894 
L 3597 1613 
L 953 1613 
Q 991 1019 1311 708 
Q 1631 397 2203 397 
Q 2534 397 2845 478 
Q 3156 559 3463 722 
L 3463 178 
Q 3153 47 2828 -22 
Q 2503 -91 2169 -91 
Q 1331 -91 842 396 
Q 353 884 353 1716 
Q 353 2575 817 3079 
Q 1281 3584 2069 3584 
Q 2775 3584 3186 3129 
Q 3597 2675 3597 1894 
z
M 3022 2063 
Q 3016 2534 2758 2815 
Q 2500 3097 2075 3097 
Q 1594 3097 1305 2825 
Q 1016 2553 972 2059 
L 3022 2063 
z
" transform="scale(0.015625)"/>
       <path id="DejaVuSans-20" transform="scale(0.015625)"/>
       <path id="DejaVuSans-28" d="M 1984 4856 
Q 1566 4138 1362 3434 
Q 1159 2731 1159 2009 
Q 1159 1288 1364 580 
Q 1569 -128 1984 -844 
L 1484 -844 
Q 1016 -109 783 600 
Q 550 1309 550 2009 
Q 550 2706 781 3412 
Q 1013 4119 1484 4856 
L 1984 4856 
z
" transform="scale(0.015625)"/>
       <path id="DejaVuSans-73" d="M 2834 3397 
L 2834 2853 
Q 2591 2978 2328 3040 
Q 2066 3103 1784 3103 
Q 1356 3103 1142 2972 
Q 928 2841 928 2578 
Q 928 2378 1081 2264 
Q 1234 2150 1697 2047 
L 1894 2003 
Q 2506 1872 2764 1633 
Q 3022 1394 3022 966 
Q 3022 478 2636 193 
Q 2250 -91 1575 -91 
Q 1294 -91 989 -36 
Q 684 19 347 128 
L 347 722 
Q 666 556 975 473 
Q 1284 391 1588 391 
Q 1994 391 2212 530 
Q 2431 669 2431 922 
Q 2431 1156 2273 1281 
Q 2116 1406 1581 1522 
L 1381 1569 
Q 847 1681 609 1914 
Q 372 2147 372 2553 
Q 372 3047 722 3315 
Q 1072 3584 1716 3584 
Q 2034 3584 2315 3537 
Q 2597 3491 2834 3397 
z
" transform="scale(0.015625)"/>
       <path id="DejaVuSans-29" d="M 513 4856 
L 1013 4856 
Q 1481 4119 1714 3412 
Q 1947 2706 1947 2009 
Q 1947 1309 1714 600 
Q 1481 -109 1013 -844 
L 513 -844 
Q 928 -128 1133 580 
Q 1338 1288 1338 2009 
Q 1338 2731 1133 3434 
Q 928 4138 513 4856 
z
" transform="scale(0.015625)"/>
      </defs>
      <use xlink:href="#DejaVuSans-54"/>
      <use xlink:href="#DejaVuSans-69" transform="translate(57.958984 0)"/>
      <use xlink:href="#DejaVuSans-6d" transform="translate(85.742188 0)"/>
      <use xlink:href="#DejaVuSans-65" transform="translate(183.154297 0)"/>
      <use xlink:href="#DejaVuSans-20" transform="translate(244.677734 0)"/>
      <use xlink:href="#DejaVuSans-28" transform="translate(276.464844 0)"/>
      <use xlink:href="#DejaVuSans-73" transform="translate(315.478516 0)"/>
      <use xlink:href="#DejaVuSans-29" transform="translate(367.578125 0)"/>
     </g>
    </g>
   </g>
   <g id="matplotlib.axis_2">
    <g id="ytick_1">
     <g id="line2d_8">
      <defs>
       <path id="m68384198e9" d="M 0 0 
L -3.5 0 
" style="stroke: #000000; stroke-width: 0.8"/>
      </defs>
      <g>
       <use xlink:href="#m68384198e9" x="56.09" y="168.857063" style="stroke: #000000; stroke-width: 0.8"/>
      </g>
     </g>
     <g id="text_9">
      <!-- −1.0 -->
      <g transform="translate(24.807187 172.656282) scale(0.1 -0.1)">
       <defs>
        <path id="DejaVuSans-2212" d="M 678 2272 
L 4684 2272 
L 4684 1741 
L 678 1741 
L 678 2272 
z
" transform="scale(0.015625)"/>
        <path id="DejaVuSans-2e" d="M 684 794 
L 1344 794 
L 1344 0 
L 684 0 
L 684 794 
z
" transform="scale(0.015625)"/>
       </defs>
       <use xlink:href="#DejaVuSans-2212"/>
       <use xlink:href="#DejaVuSans-31" transform="translate(83.789062 0)"/>
       <use xlink:href="#DejaVuSans-2e" transform="translate(147.412109 0)"/>
       <use xlink:href="#DejaVuSans-30" transform="translate(179.199219 0)"/>
      </g>
     </g>
    </g>
    <g id="ytick_2">
     <g id="line2d_9">
      <g>
       <use xlink:href="#m68384198e9" x="56.09" y="137.89516" style="stroke: #000000; stroke-width: 0.8"/>
      </g>
     </g>
     <g id="text_10">
      <!-- −0.5 -->
      <g transform="translate(24.807187 141.694379) scale(0.1 -0.1)">
       <use xlink:href="#DejaVuSans-2212"/>
       <use xlink:href="#DejaVuSans-30" transform="translate(83.789062 0)"/>
       <use xlink:href="#DejaVuSans-2e" transform="translate(147.412109 0)"/>
       <use xlink:href="#DejaVuSans-35" transform="translate(179.199219 0)"/>
      </g>
     </g>
    </g>
    <g id="ytick_3">
     <g id="line2d_10">
      <g>
       <use xlink:href="#m68384198e9" x="56.09" y="106.933257" style="stroke: #000000; stroke-width: 0.8"/>
      </g>
     </g>
     <g id="text_11">
      <!-- 0.0 -->
      <g transform="translate(33.186875 110.732475) scale(0.1 -0.1)">
       <use xlink:href="#DejaVuSans-30"/>
       <use xlink:href="#DejaVuSans-2e" transform="translate(63.623047 0)"/>
       <use xlink:href="#DejaVuSans-30" transform="translate(95.410156 0)"/>
      </g>
     </g>
    </g>
    <g id="ytick_4">
     <g id="line2d_11">
      <g>
       <use xlink:href="#m68384198e9" x="56.09" y="75.971354" style="stroke: #000000; stroke-width: 0.8"/>
      </g>
     </g>
     <g id="text_12">
      <!-- 0.5 -->
      <g transform="translate(33.186875 79.770572) scale(0.1 -0.1)">
       <use xlink:href="#DejaVuSans-30"/>
       <use xlink:href="#DejaVuSans-2e" transform="translate(63.623047 0)"/>
       <use xlink:href="#DejaVuSans-35" transform="translate(95.410156 0)"/>
      </g>
     </g>
    </g>
    <g id="ytick_5">
     <g id="line2d_12">
      <g>
       <use xlink:href="#m68384198e9" x="56.09" y="45.009451" style="stroke: #000000; stroke-width: 0.8"/>
      </g>
     </g>
     <g id="text_13">
      <!-- 1.0 -->
      <g transform="translate(33.186875 48.808669) scale(0.1 -0.1)">
       <use xlink:href="#DejaVuSans-31"/>
       <use xlink:href="#DejaVuSans-2e" transform="translate(63.623047 0)"/>
       <use xlink:href="#DejaVuSans-30" transform="translate(95.410156 0)"/>
      </g>
     </g>
    </g>
    <g id="text_14">
     <!-- Position (m) -->
     <g transform="translate(18.7275 137.005) rotate(-90) scale(0.1 -0.1)">
      <defs>
       <path id="DejaVuSans-50" d="M 1259 4147 
L 1259 2394 
L 2053 2394 
Q 2494 2394 2734 2622 
Q 2975 2850 2975 3272 
Q 2975 3691 2734 3919 
Q 2494 4147 2053 4147 
L 1259 4147 
z
M 628 4666 
L 2053 4666 
Q 2838 4666 3239 4311 
Q 3641 3956 3641 3272 
Q 3641 2581 3239 2228 
Q 2838 1875 2053 1875 
L 1259 1875 
L 1259 0 
L 628 0 
L 628 4666 
z
" transform="scale(0.015625)"/>
       <path id="DejaVuSans-6f" d="M 1959 3097 
Q 1497 3097 1228 2736 
Q 959 2375 959 1747 
Q 959 1119 1226 758 
Q 1494 397 1959 397 
Q 2419 397 2687 759 
Q 2956 1122 2956 1747 
Q 2956 2369 2687 2733 
Q 2419 3097 1959 3097 
z
M 1959 3584 
Q 2709 3584 3137 3096 
Q 3566 2609 3566 1747 
Q 3566 888 3137 398 
Q 2709 -91 1959 -91 
Q 1206 -91 779 398 
Q 353 888 353 1747 
Q 353 2609 779 3096 
Q 1206 3584 1959 3584 
z
" transform="scale(0.015625)"/>
       <path id="DejaVuSans-74" d="M 1172 4494 
L 1172 3500 
L 2356 3500 
L 2356 3053 
L 1172 3053 
L 1172 1153 
Q 1172 725 1289 603 
Q 1406 481 1766 481 
L 2356 481 
L 2356 0 
L 1766 0 
Q 1100 0 847 248 
Q 594 497 594 1153 
L 594 3053 
L 172 3053 
L 172 3500 
L 594 3500 
L 594 4494 
L 1172 4494 
z
" transform="scale(0.015625)"/>
       <path id="DejaVuSans-6e" d="M 3513 2113 
L 3513 0 
L 2938 0 
L 2938 2094 
Q 2938 2591 2744 2837 
Q 2550 3084 2163 3084 
Q 1697 3084 1428 2787 
Q 1159 2491 1159 1978 
L 1159 0 
L 581 0 
L 581 3500 
L 1159 3500 
L 1159 2956 
Q 1366 3272 1645 3428 
Q 1925 3584 2291 3584 
Q 2894 3584 3203 3211 
Q 3513 2838 3513 2113 
z
" transform="scale(0.015625)"/>
      </defs>
      <use xlink:href="#DejaVuSans-50"/>
      <use xlink:href="#DejaVuSans-6f" transform="translate(56.677734 0)"/>
      <use xlink:href="#DejaVuSans-73" transform="translate(117.859375 0)"/>
      <use xlink:href="#DejaVuSans-69" transform="translate(169.958984 0)"/>
      <use xlink:href="#DejaVuSans-74" transform="translate(197.742188 0)"/>
      <use xlink:href="#DejaVuSans-69" transform="translate(236.951172 0)"/>
      <use xlink:href="#DejaVuSans-6f" transform="translate(264.734375 0)"/>
      <use xlink:href="#DejaVuSans-6e" transform="translate(325.916016 0)"/>
      <use xlink:href="#DejaVuSans-20" transform="translate(389.294922 0)"/>
      <use xlink:href="#DejaVuSans-28" transform="translate(421.082031 0)"/>
      <use xlink:href="#DejaVuSans-6d" transform="translate(460.095703 0)"/>
      <use xlink:href="#DejaVuSans-29" transform="translate(557.507812 0)"/>
     </g>
    </g>
   </g>
   <g id="line2d_13">
    <path d="M 92.322273 106.933257 
L 92.443067 106.717801 
L 92.684656 104.993119 
L 93.047039 99.158374 
L 93.530216 85.309778 
L 94.134188 67.824197 
L 94.496571 62.532256 
L 94.73816 61.190248 
L 94.858955 61.172703 
L 94.979749 61.590373 
L 95.221338 63.734259 
L 95.583721 69.99748 
L 95.946104 75.517996 
L 96.187693 77.018238 
L 96.308487 77.107394 
L 96.429281 76.757086 
L 96.67087 74.74541 
L 97.274842 67.80313 
L 97.516431 67.054214 
L 97.637225 67.154313 
L 98.361991 69.006909 
L 98.482786 68.947292 
L 98.724375 68.449893 
L 99.449141 66.48579 
L 99.811524 66.221662 
L 100.53629 66.055085 
L 102.106617 64.978106 
L 103.918533 64.706908 
L 105.005682 64.901848 
L 106.092831 65.33709 
L 107.300775 66.075789 
L 108.629513 67.14986 
L 110.320635 68.820963 
L 112.736522 71.563191 
L 116.964325 76.388085 
L 118.897035 78.243399 
L 120.588156 79.562554 
L 122.037689 80.431727 
L 123.487221 81.044195 
L 124.81596 81.378095 
L 126.144698 81.500384 
L 127.59423 81.418738 
L 129.164557 81.074709 
L 130.855678 80.471547 
L 132.909183 79.495227 
L 136.170631 77.653712 
L 140.036051 75.523939 
L 142.331144 74.506404 
L 144.384648 73.832248 
L 146.317358 73.426939 
L 148.250068 73.247257 
L 150.303573 73.277857 
L 152.71946 73.596957 
L 155.497731 74.22234 
L 161.054272 75.789219 
L 164.557309 76.635043 
L 167.456374 77.105191 
L 170.234644 77.321395 
L 173.133709 77.319493 
L 176.636746 77.031223 
L 181.589316 76.352215 
L 187.50824 75.58985 
L 191.37366 75.318463 
L 195.480669 75.264974 
L 199.466883 75.43532 
L 213.116648 76.299361 
L 213.237442 76.018852 
L 213.479031 74.140649 
L 213.841414 68.05249 
L 214.324591 60.278482 
L 214.56618 58.952747 
L 214.686974 58.94206 
L 214.807769 59.365073 
L 215.049358 61.499686 
L 215.411741 68.030914 
L 216.015713 79.881139 
L 216.257301 81.809964 
L 216.49889 82.263768 
L 216.740479 82.322139 
L 216.861273 82.524301 
L 217.102862 83.636008 
L 217.465245 87.044298 
L 218.4316 97.094531 
L 219.639544 107.179141 
L 221.330665 122.44593 
L 223.625758 141.805197 
L 225.196085 153.372006 
L 226.524823 161.724136 
L 227.732767 168.006099 
L 228.819916 172.516572 
L 229.786271 175.587647 
L 230.631832 177.54517 
L 231.356598 178.688594 
L 231.96057 179.272048 
L 232.564542 179.528205 
L 233.047719 179.509677 
L 233.530897 179.300804 
L 234.134869 178.761682 
L 234.859635 177.746378 
L 235.705196 176.10013 
L 236.671551 173.658757 
L 237.879494 169.897252 
L 239.329027 164.560033 
L 241.382531 156.016584 
L 245.972717 136.592887 
L 247.663839 130.501705 
L 249.113371 126.089518 
L 250.321315 123.074157 
L 251.408464 120.911618 
L 252.374819 119.440748 
L 253.22038 118.505586 
L 254.065941 117.892734 
L 254.790707 117.619003 
L 255.515473 117.56782 
L 256.240239 117.7209 
L 256.965006 118.093258 
L 257.810566 118.762553 
L 258.776921 119.813788 
L 259.984865 121.503772 
L 261.434397 123.976946 
L 263.246313 127.54107 
L 269.527621 140.293247 
L 271.097947 142.819079 
L 272.54748 144.73266 
L 273.755424 145.98845 
L 274.963367 146.921668 
L 276.050517 147.483208 
L 277.137666 147.785879 
L 278.224816 147.842447 
L 279.191171 147.702953 
L 280.399114 147.272602 
L 281.607058 146.611002 
L 283.056591 145.556193 
L 284.868506 143.937539 
L 287.767571 140.980308 
L 291.270608 137.477519 
L 293.324112 135.752907 
L 295.015234 134.614454 
L 296.585561 133.820491 
L 298.035093 133.325102 
L 299.484626 133.057972 
L 301.054952 133.007139 
L 302.383691 133.157582 
L 304.074812 133.562759 
L 306.007522 134.266073 
L 308.544204 135.445697 
L 315.308689 138.720546 
L 317.603782 139.517485 
L 319.657286 140.005851 
L 321.710791 140.268176 
L 323.885089 140.316922 
L 325.817799 140.163328 
L 328.233687 139.773546 
L 331.615929 138.991036 
L 333.911022 138.427824 
L 334.031817 138.764924 
L 334.273405 140.75828 
L 334.635789 146.897823 
L 334.998172 152.915432 
L 335.23976 154.806419 
L 335.360555 155.098115 
L 335.481349 154.955653 
L 335.722938 153.370428 
L 336.085321 147.73504 
L 336.689293 136.086186 
L 336.930882 134.012782 
L 337.17247 133.346224 
L 337.414059 133.122131 
L 337.655648 132.453079 
L 337.897237 130.920553 
L 338.501209 124.530192 
L 339.225975 117.889858 
L 340.19233 109.947478 
L 342.608217 88.268032 
L 344.661722 71.272679 
L 346.232049 59.892614 
L 347.560787 51.703242 
L 348.76873 45.568828 
L 349.85588 41.191341 
L 350.822235 38.232539 
L 351.667795 36.368919 
L 352.392562 35.300937 
L 352.996534 34.777323 
L 353.479711 34.591316 
L 353.962889 34.60245 
L 354.446066 34.802931 
L 355.050038 35.329588 
L 355.774804 36.329146 
L 356.620365 37.95502 
L 357.58672 40.371016 
L 358.673869 43.694362 
L 360.123402 48.925339 
L 362.056112 56.843706 
L 367.129475 78.113765 
L 368.820597 84.046721 
L 370.149335 87.98301 
L 371.357279 90.928082 
L 372.444428 93.027578 
L 373.410783 94.444526 
L 374.256344 95.335467 
L 375.101904 95.906101 
L 375.82667 96.146247 
L 376.551437 96.166896 
L 377.276203 95.985559 
L 378.121764 95.503261 
L 379.088119 94.652046 
L 380.175268 93.344087 
L 381.383212 91.524385 
L 382.953539 88.709257 
L 385.127837 84.290333 
L 389.476435 75.368116 
L 391.28835 72.212341 
L 392.737883 70.097623 
L 394.066621 68.530663 
L 395.274565 67.436841 
L 396.361714 66.728536 
L 397.448864 66.281002 
L 398.536013 66.087277 
L 399.623162 66.123633 
L 400.710312 66.40003 
L 401.918255 66.939826 
L 403.246994 67.786353 
L 404.81732 69.056022 
L 406.870825 71.017478 
L 413.152132 77.218793 
L 414.964048 78.607018 
L 416.655169 79.619738 
L 418.225496 80.290196 
L 419.675028 80.671597 
L 421.124561 80.829512 
L 422.694888 80.775768 
L 424.386009 80.45313 
L 426.197925 79.873715 
L 428.493018 78.886618 
L 432.96241 76.638063 
L 435.982269 75.255836 
L 438.277362 74.435999 
L 440.451661 73.899066 
L 442.505165 73.622861 
L 444.679464 73.561518 
L 446.49138 73.687444 
L 448.907267 74.053291 
L 452.168715 74.786189 
L 454.705397 75.376068 
L 454.826192 74.967169 
L 455.06778 72.830202 
L 455.430163 66.493891 
L 455.792547 60.591126 
L 456.034135 58.809684 
L 456.15493 58.572343 
L 456.275724 58.768844 
L 456.517313 60.46157 
L 456.879696 66.256275 
L 457.483668 78.240454 
L 457.725257 80.404592 
L 457.966845 81.100923 
L 458.329228 81.520268 
L 458.570817 82.580551 
L 458.9332 85.807841 
L 459.899555 95.806567 
L 461.228293 107.078312 
L 463.040209 123.420279 
L 465.093713 140.818521 
L 466.784835 153.39151 
L 468.113573 161.780474 
L 469.321517 168.092415 
L 470.408666 172.623283 
L 471.375021 175.711019 
L 472.220582 177.679676 
L 472.945348 178.830615 
L 473.54932 179.418821 
L 474.153292 179.678856 
L 474.636469 179.661079 
L 475.119647 179.453525 
L 475.723618 178.916273 
L 476.448385 177.899055 
L 477.293945 176.249606 
L 478.2603 173.802047 
L 479.468244 170.030675 
L 480.917777 164.675838 
L 482.971281 156.104346 
L 487.561467 136.604544 
L 489.252588 130.490719 
L 490.702121 126.06058 
L 491.910065 123.030965 
L 492.997214 120.857687 
L 493.963569 119.380403 
L 494.80913 118.439205 
L 495.65469 117.822881 
L 496.379457 117.546717 
L 497.104223 117.494467 
L 497.828989 117.646584 
L 498.553755 118.017989 
L 499.399316 118.689289 
L 500.365671 119.742531 
L 501.573615 121.437437 
L 503.023147 123.918046 
L 504.835063 127.49403 
L 511.11637 140.293693 
L 512.686697 142.830036 
L 514.13623 144.751928 
L 515.344173 146.013322 
L 516.552117 146.951324 
L 517.639266 147.515923 
L 518.726416 147.820774 
L 519.813565 147.878529 
L 520.77992 147.739361 
L 521.987864 147.308456 
L 523.195808 146.645385 
L 524.64534 145.587528 
L 526.457256 143.964217 
L 529.235526 141.122872 
L 532.738563 137.591879 
L 534.792068 135.84075 
L 536.483189 134.677529 
L 538.053516 133.859695 
L 539.503048 133.342631 
L 540.952581 133.055012 
L 542.402113 132.986363 
L 543.851646 133.118398 
L 545.542767 133.509059 
L 547.475477 134.200597 
L 550.012159 135.373688 
L 557.018233 138.769351 
L 559.313326 139.556412 
L 561.36683 140.034045 
L 563.420335 140.284644 
L 565.594633 140.322521 
L 567.648138 140.142558 
L 570.18482 139.707506 
L 573.929445 138.810618 
L 575.499772 138.504311 
L 575.741361 139.909652 
L 575.98295 143.081303 
L 576.707716 154.513799 
L 576.949305 155.268999 
L 577.070099 154.994032 
L 577.311688 153.143827 
L 577.674071 147.118922 
L 578.278043 135.338443 
L 578.519631 133.340514 
L 578.76122 132.75583 
L 579.002809 132.554436 
L 579.244398 131.838864 
L 579.485986 130.214341 
L 580.089958 123.6275 
L 580.69393 117.876646 
L 581.901874 107.727143 
L 583.834584 90.245404 
L 585.888088 72.871474 
L 587.579209 60.326543 
L 588.907948 51.96263 
L 590.115891 45.676279 
L 591.203041 41.167961 
L 592.169396 38.101681 
L 593.014956 36.151148 
L 593.739723 35.015317 
L 594.343694 34.439629 
L 594.947666 34.19128 
L 595.430844 34.217867 
L 595.914021 34.43446 
L 596.517993 34.982518 
L 597.242759 36.011211 
L 598.08832 37.673061 
L 599.054675 40.13296 
L 600.262619 43.917904 
L 601.712151 49.282843 
L 603.765656 57.862774 
L 608.355842 77.347131 
L 610.046963 83.449869 
L 611.496496 87.86539 
L 612.704439 90.88241 
L 613.791589 93.044403 
L 614.757944 94.511869 
L 615.603504 95.444279 
L 616.449065 96.052034 
L 617.173831 96.321257 
L 617.898598 96.367437 
L 618.623364 96.208519 
L 619.34813 95.83012 
L 620.193691 95.15336 
L 621.160046 94.093185 
L 622.367989 92.391573 
L 623.817522 89.904995 
L 625.750232 86.073816 
L 631.669156 73.961003 
L 633.360278 71.183363 
L 634.80981 69.232665 
L 636.017754 67.945301 
L 637.225698 66.981028 
L 638.312847 66.392568 
L 639.399996 66.064543 
L 640.487146 65.986125 
L 641.574295 66.13455 
L 642.782239 66.569767 
L 643.990183 67.23692 
L 645.439715 68.298482 
L 647.251631 69.925508 
L 650.150696 72.894197 
L 653.653733 76.406643 
L 655.586443 78.042328 
L 657.277564 79.201807 
L 658.847891 80.015776 
L 660.297423 80.529265 
L 661.746956 80.813375 
L 663.317283 80.878036 
L 664.646021 80.743154 
L 666.337142 80.349849 
L 668.269852 79.655853 
L 670.806534 78.480995 
L 677.812607 75.088278 
L 680.107701 74.303829 
L 682.161205 73.828767 
L 684.214709 73.580734 
L 686.389008 73.54521 
L 688.442512 73.727226 
L 690.979194 74.164033 
L 694.72382 75.061878 
L 696.173352 75.435307 
L 696.294147 75.310759 
L 696.535736 73.753516 
L 696.898119 68.11398 
L 697.381296 60.039971 
L 697.622885 58.506577 
L 697.743679 58.393313 
L 697.864474 58.714512 
L 698.106062 60.656731 
L 698.468446 66.822758 
L 699.072417 79.061128 
L 699.314006 81.264887 
L 699.555595 81.949096 
L 699.797184 82.116006 
L 700.038772 82.74174 
L 700.280361 84.299294 
L 700.763539 89.560705 
L 701.488305 96.950806 
L 702.817043 108.37671 
L 704.508164 123.787605 
L 706.682463 142.309168 
L 708.25279 153.995781 
L 709.581528 162.416296 
L 710.789472 168.73378 
L 711.876621 173.255433 
L 712.842976 176.320658 
L 713.688537 178.261937 
L 714.413303 179.383423 
L 715.017275 179.943633 
L 715.500452 180.15301 
L 715.98363 180.157362 
L 716.466807 179.970379 
L 717.070779 179.458163 
L 717.795546 178.459558 
L 718.641106 176.823902 
L 719.607461 174.382009 
L 720.694611 171.01123 
L 722.023349 166.16411 
L 723.835264 158.670172 
L 729.633394 134.039969 
L 731.203721 128.617141 
L 732.532459 124.769934 
L 733.740403 121.932221 
L 734.827552 119.948123 
L 735.793907 118.644547 
L 736.639468 117.859163 
L 737.364234 117.444517 
L 738.089001 117.262198 
L 738.813767 117.295415 
L 739.538533 117.545438 
L 740.384094 118.100833 
L 741.350449 119.033942 
L 742.437598 120.433827 
L 743.766336 122.560567 
L 745.457457 125.764681 
L 748.114934 131.397516 
L 751.376382 138.198031 
L 753.188297 141.467388 
L 754.758624 143.837404 
L 756.087362 145.449351 
L 757.295306 146.577908 
L 758.382455 147.311699 
L 759.469605 147.778742 
L 760.556754 147.986405 
L 761.643904 147.959089 
L 762.731053 147.683657 
L 763.938997 147.140939 
L 765.267735 146.284071 
L 766.838062 144.993977 
L 768.891566 142.996393 
L 775.293668 136.55303 
L 777.105584 135.148565 
L 778.67591 134.191335 
L 780.125443 133.543171 
L 781.574975 133.127791 
L 783.024508 132.941625 
L 784.594835 132.97128 
L 786.165162 133.248798 
L 787.856283 133.760909 
L 789.909787 134.613324 
L 793.050441 136.190792 
L 797.399039 138.348779 
L 799.814926 139.29289 
L 801.989225 139.901397 
L 804.042729 140.242205 
L 806.096234 140.356041 
L 808.270532 140.255527 
L 810.68642 139.906381 
L 813.827074 139.206603 
L 816.967727 138.395072 
L 816.967727 138.395072 
" clip-path="url(#pfe656bd87d)" style="fill: none; stroke: #1f77b4; stroke-width: 1.5; stroke-linecap: square"/>
   </g>
   <g id="line2d_14">
    <path d="M 92.322273 75.971354 
L 212.995853 75.971354 
L 213.116648 137.89516 
L 333.790228 137.89516 
L 333.911022 75.971354 
L 454.584603 75.971354 
L 454.705397 137.89516 
L 575.378978 137.89516 
L 575.499772 75.971354 
L 696.173352 75.971354 
L 696.294147 137.89516 
L 816.846933 137.89516 
L 816.967727 75.971354 
L 816.967727 75.971354 
" clip-path="url(#pfe656bd87d)" style="fill: none; stroke-dasharray: 5.55,2.4; stroke-dashoffset: 0; stroke: #ff7f0e; stroke-opacity: 0.6; stroke-width: 1.5"/>
   </g>
   <g id="patch_3">
    <path d="M 56.09 187.48 
L 56.09 26.88 
" style="fill: none; stroke: #000000; stroke-width: 0.8; stroke-linejoin: miter; stroke-linecap: square"/>
   </g>
   <g id="patch_4">
    <path d="M 853.2 187.48 
L 853.2 26.88 
" style="fill: none; stroke: #000000; stroke-width: 0.8; stroke-linejoin: miter; stroke-linecap: square"/>
   </g>
   <g id="patch_5">
    <path d="M 56.09 187.48 
L 853.2 187.48 
" style="fill: none; stroke: #000000; stroke-width: 0.8; stroke-linejoin: miter; stroke-linecap: square"/>
   </g>
   <g id="patch_6">
    <path d="M 56.09 26.88 
L 853.2 26.88 
" style="fill: none; stroke: #000000; stroke-width: 0.8; stroke-linejoin: miter; stroke-linecap: square"/>
   </g>
   <g id="text_15">
    <!-- Inverted Pendulum on a Cart : System States -->
    <g transform="translate(319.102188 20.88) scale(0.12 -0.12)">
     <defs>
      <path id="DejaVuSans-49" d="M 628 4666 
L 1259 4666 
L 1259 0 
L 628 0 
L 628 4666 
z
" transform="scale(0.015625)"/>
      <path id="DejaVuSans-76" d="M 191 3500 
L 800 3500 
L 1894 563 
L 2988 3500 
L 3597 3500 
L 2284 0 
L 1503 0 
L 191 3500 
z
" transform="scale(0.015625)"/>
      <path id="DejaVuSans-72" d="M 2631 2963 
Q 2534 3019 2420 3045 
Q 2306 3072 2169 3072 
Q 1681 3072 1420 2755 
Q 1159 2438 1159 1844 
L 1159 0 
L 581 0 
L 581 3500 
L 1159 3500 
L 1159 2956 
Q 1341 3275 1631 3429 
Q 1922 3584 2338 3584 
Q 2397 3584 2469 3576 
Q 2541 3569 2628 3553 
L 2631 2963 
z
" transform="scale(0.015625)"/>
      <path id="DejaVuSans-64" d="M 2906 2969 
L 2906 4863 
L 3481 4863 
L 3481 0 
L 2906 0 
L 2906 525 
Q 2725 213 2448 61 
Q 2172 -91 1784 -91 
Q 1150 -91 751 415 
Q 353 922 353 1747 
Q 353 2572 751 3078 
Q 1150 3584 1784 3584 
Q 2172 3584 2448 3432 
Q 2725 3281 2906 2969 
z
M 947 1747 
Q 947 1113 1208 752 
Q 1469 391 1925 391 
Q 2381 391 2643 752 
Q 2906 1113 2906 1747 
Q 2906 2381 2643 2742 
Q 2381 3103 1925 3103 
Q 1469 3103 1208 2742 
Q 947 2381 947 1747 
z
" transform="scale(0.015625)"/>
      <path id="DejaVuSans-75" d="M 544 1381 
L 544 3500 
L 1119 3500 
L 1119 1403 
Q 1119 906 1312 657 
Q 1506 409 1894 409 
Q 2359 409 2629 706 
Q 2900 1003 2900 1516 
L 2900 3500 
L 3475 3500 
L 3475 0 
L 2900 0 
L 2900 538 
Q 2691 219 2414 64 
Q 2138 -91 1772 -91 
Q 1169 -91 856 284 
Q 544 659 544 1381 
z
M 1991 3584 
L 1991 3584 
z
" transform="scale(0.015625)"/>
      <path id="DejaVuSans-6c" d="M 603 4863 
L 1178 4863 
L 1178 0 
L 603 0 
L 603 4863 
z
" transform="scale(0.015625)"/>
      <path id="DejaVuSans-61" d="M 2194 1759 
Q 1497 1759 1228 1600 
Q 959 1441 959 1056 
Q 959 750 1161 570 
Q 1363 391 1709 391 
Q 2188 391 2477 730 
Q 2766 1069 2766 1631 
L 2766 1759 
L 2194 1759 
z
M 3341 1997 
L 3341 0 
L 2766 0 
L 2766 531 
Q 2569 213 2275 61 
Q 1981 -91 1556 -91 
Q 1019 -91 701 211 
Q 384 513 384 1019 
Q 384 1609 779 1909 
Q 1175 2209 1959 2209 
L 2766 2209 
L 2766 2266 
Q 2766 2663 2505 2880 
Q 2244 3097 1772 3097 
Q 1472 3097 1187 3025 
Q 903 2953 641 2809 
L 641 3341 
Q 956 3463 1253 3523 
Q 1550 3584 1831 3584 
Q 2591 3584 2966 3190 
Q 3341 2797 3341 1997 
z
" transform="scale(0.015625)"/>
      <path id="DejaVuSans-43" d="M 4122 4306 
L 4122 3641 
Q 3803 3938 3442 4084 
Q 3081 4231 2675 4231 
Q 1875 4231 1450 3742 
Q 1025 3253 1025 2328 
Q 1025 1406 1450 917 
Q 1875 428 2675 428 
Q 3081 428 3442 575 
Q 3803 722 4122 1019 
L 4122 359 
Q 3791 134 3420 21 
Q 3050 -91 2638 -91 
Q 1578 -91 968 557 
Q 359 1206 359 2328 
Q 359 3453 968 4101 
Q 1578 4750 2638 4750 
Q 3056 4750 3426 4639 
Q 3797 4528 4122 4306 
z
" transform="scale(0.015625)"/>
      <path id="DejaVuSans-3a" d="M 750 794 
L 1409 794 
L 1409 0 
L 750 0 
L 750 794 
z
M 750 3309 
L 1409 3309 
L 1409 2516 
L 750 2516 
L 750 3309 
z
" transform="scale(0.015625)"/>
      <path id="DejaVuSans-53" d="M 3425 4513 
L 3425 3897 
Q 3066 4069 2747 4153 
Q 2428 4238 2131 4238 
Q 1616 4238 1336 4038 
Q 1056 3838 1056 3469 
Q 1056 3159 1242 3001 
Q 1428 2844 1947 2747 
L 2328 2669 
Q 3034 2534 3370 2195 
Q 3706 1856 3706 1288 
Q 3706 609 3251 259 
Q 2797 -91 1919 -91 
Q 1588 -91 1214 -16 
Q 841 59 441 206 
L 441 856 
Q 825 641 1194 531 
Q 1563 422 1919 422 
Q 2459 422 2753 634 
Q 3047 847 3047 1241 
Q 3047 1584 2836 1778 
Q 2625 1972 2144 2069 
L 1759 2144 
Q 1053 2284 737 2584 
Q 422 2884 422 3419 
Q 422 4038 858 4394 
Q 1294 4750 2059 4750 
Q 2388 4750 2728 4690 
Q 3069 4631 3425 4513 
z
" transform="scale(0.015625)"/>
      <path id="DejaVuSans-79" d="M 2059 -325 
Q 1816 -950 1584 -1140 
Q 1353 -1331 966 -1331 
L 506 -1331 
L 506 -850 
L 844 -850 
Q 1081 -850 1212 -737 
Q 1344 -625 1503 -206 
L 1606 56 
L 191 3500 
L 800 3500 
L 1894 763 
L 2988 3500 
L 3597 3500 
L 2059 -325 
z
" transform="scale(0.015625)"/>
     </defs>
     <use xlink:href="#DejaVuSans-49"/>
     <use xlink:href="#DejaVuSans-6e" transform="translate(29.492188 0)"/>
     <use xlink:href="#DejaVuSans-76" transform="translate(92.871094 0)"/>
     <use xlink:href="#DejaVuSans-65" transform="translate(152.050781 0)"/>
     <use xlink:href="#DejaVuSans-72" transform="translate(213.574219 0)"/>
     <use xlink:href="#DejaVuSans-74" transform="translate(254.6875 0)"/>
     <use xlink:href="#DejaVuSans-65" transform="translate(293.896484 0)"/>
     <use xlink:href="#DejaVuSans-64" transform="translate(355.419922 0)"/>
     <use xlink:href="#DejaVuSans-20" transform="translate(418.896484 0)"/>
     <use xlink:href="#DejaVuSans-50" transform="translate(450.683594 0)"/>
     <use xlink:href="#DejaVuSans-65" transform="translate(507.361328 0)"/>
     <use xlink:href="#DejaVuSans-6e" transform="translate(568.884766 0)"/>
     <use xlink:href="#DejaVuSans-64" transform="translate(632.263672 0)"/>
     <use xlink:href="#DejaVuSans-75" transform="translate(695.740234 0)"/>
     <use xlink:href="#DejaVuSans-6c" transform="translate(759.119141 0)"/>
     <use xlink:href="#DejaVuSans-75" transform="translate(786.902344 0)"/>
     <use xlink:href="#DejaVuSans-6d" transform="translate(850.28125 0)"/>
     <use xlink:href="#DejaVuSans-20" transform="translate(947.693359 0)"/>
     <use xlink:href="#DejaVuSans-6f" transform="translate(979.480469 0)"/>
     <use xlink:href="#DejaVuSans-6e" transform="translate(1040.662109 0)"/>
     <use xlink:href="#DejaVuSans-20" transform="translate(1104.041016 0)"/>
     <use xlink:href="#DejaVuSans-61" transform="translate(1135.828125 0)"/>
     <use xlink:href="#DejaVuSans-20" transform="translate(1197.107422 0)"/>
     <use xlink:href="#DejaVuSans-43" transform="translate(1228.894531 0)"/>
     <use xlink:href="#DejaVuSans-61" transform="translate(1298.71875 0)"/>
     <use xlink:href="#DejaVuSans-72" transform="translate(1359.998047 0)"/>
     <use xlink:href="#DejaVuSans-74" transform="translate(1401.111328 0)"/>
     <use xlink:href="#DejaVuSans-20" transform="translate(1440.320312 0)"/>
     <use xlink:href="#DejaVuSans-3a" transform="translate(1472.107422 0)"/>
     <use xlink:href="#DejaVuSans-20" transform="translate(1505.798828 0)"/>
     <use xlink:href="#DejaVuSans-53" transform="translate(1537.585938 0)"/>
     <use xlink:href="#DejaVuSans-79" transform="translate(1601.0625 0)"/>
     <use xlink:href="#DejaVuSans-73" transform="translate(1660.242188 0)"/>
     <use xlink:href="#DejaVuSans-74" transform="translate(1712.341797 0)"/>
     <use xlink:href="#DejaVuSans-65" transform="translate(1751.550781 0)"/>
     <use xlink:href="#DejaVuSans-6d" transform="translate(1813.074219 0)"/>
     <use xlink:href="#DejaVuSans-20" transform="translate(1910.486328 0)"/>
     <use xlink:href="#DejaVuSans-53" transform="translate(1942.273438 0)"/>
     <use xlink:href="#DejaVuSans-74" transform="translate(2005.75 0)"/>
     <use xlink:href="#DejaVuSans-61" transform="translate(2044.958984 0)"/>
     <use xlink:href="#DejaVuSans-74" transform="translate(2106.238281 0)"/>
     <use xlink:href="#DejaVuSans-65" transform="translate(2145.447266 0)"/>
     <use xlink:href="#DejaVuSans-73" transform="translate(2206.970703 0)"/>
    </g>
   </g>
   <g id="legend_1">
    <g id="patch_7">
     <path d="M 719.34375 64.514375 
L 846.2 64.514375 
Q 848.2 64.514375 848.2 62.514375 
L 848.2 33.88 
Q 848.2 31.88 846.2 31.88 
L 719.34375 31.88 
Q 717.34375 31.88 717.34375 33.88 
L 717.34375 62.514375 
Q 717.34375 64.514375 719.34375 64.514375 
z
" style="fill: #ffffff; opacity: 0.8; stroke: #cccccc; stroke-linejoin: miter"/>
    </g>
    <g id="line2d_15">
     <path d="M 721.34375 39.978437 
L 731.34375 39.978437 
L 741.34375 39.978437 
" style="fill: none; stroke: #1f77b4; stroke-width: 1.5; stroke-linecap: square"/>
    </g>
    <g id="text_16">
     <!-- Cart position x -->
     <g transform="translate(749.34375 43.478437) scale(0.1 -0.1)">
      <defs>
       <path id="DejaVuSans-70" d="M 1159 525 
L 1159 -1331 
L 581 -1331 
L 581 3500 
L 1159 3500 
L 1159 2969 
Q 1341 3281 1617 3432 
Q 1894 3584 2278 3584 
Q 2916 3584 3314 3078 
Q 3713 2572 3713 1747 
Q 3713 922 3314 415 
Q 2916 -91 2278 -91 
Q 1894 -91 1617 61 
Q 1341 213 1159 525 
z
M 3116 1747 
Q 3116 2381 2855 2742 
Q 2594 3103 2138 3103 
Q 1681 3103 1420 2742 
Q 1159 2381 1159 1747 
Q 1159 1113 1420 752 
Q 1681 391 2138 391 
Q 2594 391 2855 752 
Q 3116 1113 3116 1747 
z
" transform="scale(0.015625)"/>
       <path id="DejaVuSans-78" d="M 3513 3500 
L 2247 1797 
L 3578 0 
L 2900 0 
L 1881 1375 
L 863 0 
L 184 0 
L 1544 1831 
L 300 3500 
L 978 3500 
L 1906 2253 
L 2834 3500 
L 3513 3500 
z
" transform="scale(0.015625)"/>
      </defs>
      <use xlink:href="#DejaVuSans-43"/>
      <use xlink:href="#DejaVuSans-61" transform="translate(69.824219 0)"/>
      <use xlink:href="#DejaVuSans-72" transform="translate(131.103516 0)"/>
      <use xlink:href="#DejaVuSans-74" transform="translate(172.216797 0)"/>
      <use xlink:href="#DejaVuSans-20" transform="translate(211.425781 0)"/>
      <use xlink:href="#DejaVuSans-70" transform="translate(243.212891 0)"/>
      <use xlink:href="#DejaVuSans-6f" transform="translate(306.689453 0)"/>
      <use xlink:href="#DejaVuSans-73" transform="translate(367.871094 0)"/>
      <use xlink:href="#DejaVuSans-69" transform="translate(419.970703 0)"/>
      <use xlink:href="#DejaVuSans-74" transform="translate(447.753906 0)"/>
      <use xlink:href="#DejaVuSans-69" transform="translate(486.962891 0)"/>
      <use xlink:href="#DejaVuSans-6f" transform="translate(514.746094 0)"/>
      <use xlink:href="#DejaVuSans-6e" transform="translate(575.927734 0)"/>
      <use xlink:href="#DejaVuSans-20" transform="translate(639.306641 0)"/>
      <use xlink:href="#DejaVuSans-78" transform="translate(671.09375 0)"/>
     </g>
    </g>
    <g id="line2d_16">
     <path d="M 721.34375 54.656563 
L 731.34375 54.656563 
L 741.34375 54.656563 
" style="fill: none; stroke-dasharray: 5.55,2.4; stroke-dashoffset: 0; stroke: #ff7f0e; stroke-opacity: 0.6; stroke-width: 1.5"/>
    </g>
    <g id="text_17">
     <!-- Reference x_target -->
     <g transform="translate(749.34375 58.156563) scale(0.1 -0.1)">
      <defs>
       <path id="DejaVuSans-52" d="M 2841 2188 
Q 3044 2119 3236 1894 
Q 3428 1669 3622 1275 
L 4263 0 
L 3584 0 
L 2988 1197 
Q 2756 1666 2539 1819 
Q 2322 1972 1947 1972 
L 1259 1972 
L 1259 0 
L 628 0 
L 628 4666 
L 2053 4666 
Q 2853 4666 3247 4331 
Q 3641 3997 3641 3322 
Q 3641 2881 3436 2590 
Q 3231 2300 2841 2188 
z
M 1259 4147 
L 1259 2491 
L 2053 2491 
Q 2509 2491 2742 2702 
Q 2975 2913 2975 3322 
Q 2975 3731 2742 3939 
Q 2509 4147 2053 4147 
L 1259 4147 
z
" transform="scale(0.015625)"/>
       <path id="DejaVuSans-66" d="M 2375 4863 
L 2375 4384 
L 1825 4384 
Q 1516 4384 1395 4259 
Q 1275 4134 1275 3809 
L 1275 3500 
L 2222 3500 
L 2222 3053 
L 1275 3053 
L 1275 0 
L 697 0 
L 697 3053 
L 147 3053 
L 147 3500 
L 697 3500 
L 697 3744 
Q 697 4328 969 4595 
Q 1241 4863 1831 4863 
L 2375 4863 
z
" transform="scale(0.015625)"/>
       <path id="DejaVuSans-63" d="M 3122 3366 
L 3122 2828 
Q 2878 2963 2633 3030 
Q 2388 3097 2138 3097 
Q 1578 3097 1268 2742 
Q 959 2388 959 1747 
Q 959 1106 1268 751 
Q 1578 397 2138 397 
Q 2388 397 2633 464 
Q 2878 531 3122 666 
L 3122 134 
Q 2881 22 2623 -34 
Q 2366 -91 2075 -91 
Q 1284 -91 818 406 
Q 353 903 353 1747 
Q 353 2603 823 3093 
Q 1294 3584 2113 3584 
Q 2378 3584 2631 3529 
Q 2884 3475 3122 3366 
z
" transform="scale(0.015625)"/>
       <path id="DejaVuSans-5f" d="M 3263 -1063 
L 3263 -1509 
L -63 -1509 
L -63 -1063 
L 3263 -1063 
z
" transform="scale(0.015625)"/>
       <path id="DejaVuSans-67" d="M 2906 1791 
Q 2906 2416 2648 2759 
Q 2391 3103 1925 3103 
Q 1463 3103 1205 2759 
Q 947 2416 947 1791 
Q 947 1169 1205 825 
Q 1463 481 1925 481 
Q 2391 481 2648 825 
Q 2906 1169 2906 1791 
z
M 3481 434 
Q 3481 -459 3084 -895 
Q 2688 -1331 1869 -1331 
Q 1566 -1331 1297 -1286 
Q 1028 -1241 775 -1147 
L 775 -588 
Q 1028 -725 1275 -790 
Q 1522 -856 1778 -856 
Q 2344 -856 2625 -561 
Q 2906 -266 2906 331 
L 2906 616 
Q 2728 306 2450 153 
Q 2172 0 1784 0 
Q 1141 0 747 490 
Q 353 981 353 1791 
Q 353 2603 747 3093 
Q 1141 3584 1784 3584 
Q 2172 3584 2450 3431 
Q 2728 3278 2906 2969 
L 2906 3500 
L 3481 3500 
L 3481 434 
z
" transform="scale(0.015625)"/>
      </defs>
      <use xlink:href="#DejaVuSans-52"/>
      <use xlink:href="#DejaVuSans-65" transform="translate(64.982422 0)"/>
      <use xlink:href="#DejaVuSans-66" transform="translate(126.505859 0)"/>
      <use xlink:href="#DejaVuSans-65" transform="translate(161.710938 0)"/>
      <use xlink:href="#DejaVuSans-72" transform="translate(223.234375 0)"/>
      <use xlink:href="#DejaVuSans-65" transform="translate(262.097656 0)"/>
      <use xlink:href="#DejaVuSans-6e" transform="translate(323.621094 0)"/>
      <use xlink:href="#DejaVuSans-63" transform="translate(387 0)"/>
      <use xlink:href="#DejaVuSans-65" transform="translate(441.980469 0)"/>
      <use xlink:href="#DejaVuSans-20" transform="translate(503.503906 0)"/>
      <use xlink:href="#DejaVuSans-78" transform="translate(535.291016 0)"/>
      <use xlink:href="#DejaVuSans-5f" transform="translate(594.470703 0)"/>
      <use xlink:href="#DejaVuSans-74" transform="translate(644.470703 0)"/>
      <use xlink:href="#DejaVuSans-61" transform="translate(683.679688 0)"/>
      <use xlink:href="#DejaVuSans-72" transform="translate(744.958984 0)"/>
      <use xlink:href="#DejaVuSans-67" transform="translate(784.322266 0)"/>
      <use xlink:href="#DejaVuSans-65" transform="translate(847.798828 0)"/>
      <use xlink:href="#DejaVuSans-74" transform="translate(909.322266 0)"/>
     </g>
    </g>
   </g>
  </g>
  <g id="axes_2">
   <g id="patch_8">
    <path d="M 56.09 390.04 
L 853.2 390.04 
L 853.2 229.44 
L 56.09 229.44 
z
" style="fill: #ffffff"/>
   </g>
   <g id="matplotlib.axis_3">
    <g id="xtick_8">
     <g id="line2d_17">
      <g>
       <use xlink:href="#mc44c02750d" x="92.322273" y="390.04" style="stroke: #000000; stroke-width: 0.8"/>
      </g>
     </g>
     <g id="text_18">
      <!-- 0 -->
      <g transform="translate(89.141023 404.638437) scale(0.1 -0.1)">
       <use xlink:href="#DejaVuSans-30"/>
      </g>
     </g>
    </g>
    <g id="xtick_9">
     <g id="line2d_18">
      <g>
       <use xlink:href="#mc44c02750d" x="213.096515" y="390.04" style="stroke: #000000; stroke-width: 0.8"/>
      </g>
     </g>
     <g id="text_19">
      <!-- 10 -->
      <g transform="translate(206.734015 404.638437) scale(0.1 -0.1)">
       <use xlink:href="#DejaVuSans-31"/>
       <use xlink:href="#DejaVuSans-30" transform="translate(63.623047 0)"/>
      </g>
     </g>
    </g>
    <g id="xtick_10">
     <g id="line2d_19">
      <g>
       <use xlink:href="#mc44c02750d" x="333.870758" y="390.04" style="stroke: #000000; stroke-width: 0.8"/>
      </g>
     </g>
     <g id="text_20">
      <!-- 20 -->
      <g transform="translate(327.508258 404.638437) scale(0.1 -0.1)">
       <use xlink:href="#DejaVuSans-32"/>
       <use xlink:href="#DejaVuSans-30" transform="translate(63.623047 0)"/>
      </g>
     </g>
    </g>
    <g id="xtick_11">
     <g id="line2d_20">
      <g>
       <use xlink:href="#mc44c02750d" x="454.645" y="390.04" style="stroke: #000000; stroke-width: 0.8"/>
      </g>
     </g>
     <g id="text_21">
      <!-- 30 -->
      <g transform="translate(448.2825 404.638437) scale(0.1 -0.1)">
       <use xlink:href="#DejaVuSans-33"/>
       <use xlink:href="#DejaVuSans-30" transform="translate(63.623047 0)"/>
      </g>
     </g>
    </g>
    <g id="xtick_12">
     <g id="line2d_21">
      <g>
       <use xlink:href="#mc44c02750d" x="575.419242" y="390.04" style="stroke: #000000; stroke-width: 0.8"/>
      </g>
     </g>
     <g id="text_22">
      <!-- 40 -->
      <g transform="translate(569.056742 404.638437) scale(0.1 -0.1)">
       <use xlink:href="#DejaVuSans-34"/>
       <use xlink:href="#DejaVuSans-30" transform="translate(63.623047 0)"/>
      </g>
     </g>
    </g>
    <g id="xtick_13">
     <g id="line2d_22">
      <g>
       <use xlink:href="#mc44c02750d" x="696.193485" y="390.04" style="stroke: #000000; stroke-width: 0.8"/>
      </g>
     </g>
     <g id="text_23">
      <!-- 50 -->
      <g transform="translate(689.830985 404.638437) scale(0.1 -0.1)">
       <use xlink:href="#DejaVuSans-35"/>
       <use xlink:href="#DejaVuSans-30" transform="translate(63.623047 0)"/>
      </g>
     </g>
    </g>
    <g id="xtick_14">
     <g id="line2d_23">
      <g>
       <use xlink:href="#mc44c02750d" x="816.967727" y="390.04" style="stroke: #000000; stroke-width: 0.8"/>
      </g>
     </g>
     <g id="text_24">
      <!-- 60 -->
      <g transform="translate(810.605227 404.638437) scale(0.1 -0.1)">
       <use xlink:href="#DejaVuSans-36"/>
       <use xlink:href="#DejaVuSans-30" transform="translate(63.623047 0)"/>
      </g>
     </g>
    </g>
    <g id="text_25">
     <!-- Time (s) -->
     <g transform="translate(434.316094 418.316562) scale(0.1 -0.1)">
      <use xlink:href="#DejaVuSans-54"/>
      <use xlink:href="#DejaVuSans-69" transform="translate(57.958984 0)"/>
      <use xlink:href="#DejaVuSans-6d" transform="translate(85.742188 0)"/>
      <use xlink:href="#DejaVuSans-65" transform="translate(183.154297 0)"/>
      <use xlink:href="#DejaVuSans-20" transform="translate(244.677734 0)"/>
      <use xlink:href="#DejaVuSans-28" transform="translate(276.464844 0)"/>
      <use xlink:href="#DejaVuSans-73" transform="translate(315.478516 0)"/>
      <use xlink:href="#DejaVuSans-29" transform="translate(367.578125 0)"/>
     </g>
    </g>
   </g>
   <g id="matplotlib.axis_4">
    <g id="ytick_6">
     <g id="line2d_24">
      <g>
       <use xlink:href="#m68384198e9" x="56.09" y="374.638003" style="stroke: #000000; stroke-width: 0.8"/>
      </g>
     </g>
     <g id="text_26">
      <!-- −4 -->
      <g transform="translate(34.347812 378.437222) scale(0.1 -0.1)">
       <use xlink:href="#DejaVuSans-2212"/>
       <use xlink:href="#DejaVuSans-34" transform="translate(83.789062 0)"/>
      </g>
     </g>
    </g>
    <g id="ytick_7">
     <g id="line2d_25">
      <g>
       <use xlink:href="#m68384198e9" x="56.09" y="349.217858" style="stroke: #000000; stroke-width: 0.8"/>
      </g>
     </g>
     <g id="text_27">
      <!-- −2 -->
      <g transform="translate(34.347812 353.017077) scale(0.1 -0.1)">
       <use xlink:href="#DejaVuSans-2212"/>
       <use xlink:href="#DejaVuSans-32" transform="translate(83.789062 0)"/>
      </g>
     </g>
    </g>
    <g id="ytick_8">
     <g id="line2d_26">
      <g>
       <use xlink:href="#m68384198e9" x="56.09" y="323.797714" style="stroke: #000000; stroke-width: 0.8"/>
      </g>
     </g>
     <g id="text_28">
      <!-- 0 -->
      <g transform="translate(42.7275 327.596933) scale(0.1 -0.1)">
       <use xlink:href="#DejaVuSans-30"/>
      </g>
     </g>
    </g>
    <g id="ytick_9">
     <g id="line2d_27">
      <g>
       <use xlink:href="#m68384198e9" x="56.09" y="298.377569" style="stroke: #000000; stroke-width: 0.8"/>
      </g>
     </g>
     <g id="text_29">
      <!-- 2 -->
      <g transform="translate(42.7275 302.176788) scale(0.1 -0.1)">
       <use xlink:href="#DejaVuSans-32"/>
      </g>
     </g>
    </g>
    <g id="ytick_10">
     <g id="line2d_28">
      <g>
       <use xlink:href="#m68384198e9" x="56.09" y="272.957425" style="stroke: #000000; stroke-width: 0.8"/>
      </g>
     </g>
     <g id="text_30">
      <!-- 4 -->
      <g transform="translate(42.7275 276.756643) scale(0.1 -0.1)">
       <use xlink:href="#DejaVuSans-34"/>
      </g>
     </g>
    </g>
    <g id="ytick_11">
     <g id="line2d_29">
      <g>
       <use xlink:href="#m68384198e9" x="56.09" y="247.53728" style="stroke: #000000; stroke-width: 0.8"/>
      </g>
     </g>
     <g id="text_31">
      <!-- 6 -->
      <g transform="translate(42.7275 251.336499) scale(0.1 -0.1)">
       <use xlink:href="#DejaVuSans-36"/>
      </g>
     </g>
    </g>
    <g id="text_32">
     <!-- Velocity (m/s) -->
     <g transform="translate(28.268125 344.005625) rotate(-90) scale(0.1 -0.1)">
      <defs>
       <path id="DejaVuSans-56" d="M 1831 0 
L 50 4666 
L 709 4666 
L 2188 738 
L 3669 4666 
L 4325 4666 
L 2547 0 
L 1831 0 
z
" transform="scale(0.015625)"/>
       <path id="DejaVuSans-2f" d="M 1625 4666 
L 2156 4666 
L 531 -594 
L 0 -594 
L 1625 4666 
z
" transform="scale(0.015625)"/>
      </defs>
      <use xlink:href="#DejaVuSans-56"/>
      <use xlink:href="#DejaVuSans-65" transform="translate(60.658203 0)"/>
      <use xlink:href="#DejaVuSans-6c" transform="translate(122.181641 0)"/>
      <use xlink:href="#DejaVuSans-6f" transform="translate(149.964844 0)"/>
      <use xlink:href="#DejaVuSans-63" transform="translate(211.146484 0)"/>
      <use xlink:href="#DejaVuSans-69" transform="translate(266.126953 0)"/>
      <use xlink:href="#DejaVuSans-74" transform="translate(293.910156 0)"/>
      <use xlink:href="#DejaVuSans-79" transform="translate(333.119141 0)"/>
      <use xlink:href="#DejaVuSans-20" transform="translate(392.298828 0)"/>
      <use xlink:href="#DejaVuSans-28" transform="translate(424.085938 0)"/>
      <use xlink:href="#DejaVuSans-6d" transform="translate(463.099609 0)"/>
      <use xlink:href="#DejaVuSans-2f" transform="translate(560.511719 0)"/>
      <use xlink:href="#DejaVuSans-73" transform="translate(594.203125 0)"/>
      <use xlink:href="#DejaVuSans-29" transform="translate(646.302734 0)"/>
     </g>
    </g>
   </g>
   <g id="line2d_30">
    <path d="M 92.322273 323.797714 
L 93.530216 236.74 
L 93.651011 237.941196 
L 95.583721 372.536421 
L 95.82531 357.27487 
L 96.791665 290.324287 
L 96.912459 290.549821 
L 97.154048 300.830345 
L 97.637225 328.303558 
L 97.878814 332.754006 
L 97.999608 332.167409 
L 98.241197 327.327975 
L 98.724375 316.797965 
L 98.965963 315.759898 
L 99.207552 317.429163 
L 99.811524 323.313808 
L 100.053113 323.715843 
L 100.294701 323.086603 
L 100.777879 321.422204 
L 101.019468 321.28998 
L 101.261056 321.661181 
L 101.985823 323.175186 
L 102.227411 323.287033 
L 103.072972 323.295586 
L 105.972037 324.998202 
L 108.025541 325.827089 
L 109.958251 326.37008 
L 111.890961 326.665121 
L 113.823671 326.723965 
L 115.99797 326.533584 
L 118.413858 326.073216 
L 121.433717 325.248782 
L 128.802174 323.167723 
L 131.45965 322.669928 
L 133.996332 322.412876 
L 136.774603 322.362171 
L 139.673668 322.536104 
L 143.297499 322.974496 
L 153.80661 324.337911 
L 157.309646 324.504016 
L 161.175066 324.470749 
L 166.127636 324.192213 
L 177.723896 323.480039 
L 183.159643 323.446333 
L 190.528099 323.663973 
L 201.520388 323.978916 
L 209.130433 323.943198 
L 212.995853 323.871581 
L 213.116648 322.550939 
L 213.841414 271.443993 
L 213.962208 274.605818 
L 215.532535 382.74 
L 215.653329 378.795876 
L 216.49889 324.42075 
L 216.619684 323.956536 
L 216.861273 330.082801 
L 217.465245 352.04621 
L 217.586039 353.337471 
L 217.706834 353.335881 
L 217.948423 350.534263 
L 218.4316 343.184468 
L 218.673189 342.210391 
L 218.793983 342.514534 
L 219.156366 345.089622 
L 219.518749 347.315472 
L 219.760338 347.638214 
L 220.001927 347.167066 
L 220.605899 345.495597 
L 220.847488 345.359805 
L 221.209871 345.580444 
L 221.572254 345.73819 
L 221.813843 345.620964 
L 222.29702 344.983573 
L 223.021786 344.025529 
L 223.867347 342.988785 
L 225.075291 340.889264 
L 226.404029 338.266208 
L 228.699122 333.094509 
L 232.926925 323.466056 
L 235.342813 318.865368 
L 236.671551 316.843996 
L 238.000289 315.234075 
L 239.087438 314.243981 
L 240.053793 313.596381 
L 241.140943 313.139739 
L 241.986503 312.981715 
L 243.194447 313.021115 
L 244.281596 313.332676 
L 245.368746 313.854968 
L 246.818278 314.846735 
L 248.509399 316.357735 
L 250.562904 318.526511 
L 255.757062 324.191924 
L 257.689772 326.008793 
L 259.380893 327.269758 
L 260.95122 328.156271 
L 262.521547 328.746667 
L 263.971079 329.031218 
L 265.420612 329.078685 
L 266.74935 328.927668 
L 268.319677 328.543602 
L 270.252387 327.814669 
L 272.426686 326.762319 
L 280.640703 322.580637 
L 282.452619 321.954442 
L 284.506123 321.472514 
L 286.318039 321.249767 
L 288.250749 321.21438 
L 290.425047 321.396195 
L 293.203318 321.901608 
L 296.827149 322.819374 
L 302.625279 324.274056 
L 307.094671 324.942377 
L 309.872942 325.075522 
L 313.13439 324.975607 
L 316.637427 324.639424 
L 329.562425 323.233282 
L 333.669434 323.164065 
L 333.790228 323.165342 
L 333.911022 326.203095 
L 334.635789 373.98188 
L 334.756583 369.910375 
L 336.206115 268.484038 
L 336.32691 269.675136 
L 336.568499 284.44489 
L 337.051676 317.421147 
L 337.293265 321.882647 
L 337.414059 320.398816 
L 337.776442 308.024655 
L 338.138825 297.21275 
L 338.380414 295.551095 
L 338.501209 296.279587 
L 339.346769 305.256285 
L 339.467564 305.051598 
L 339.709152 303.693327 
L 340.19233 300.687935 
L 340.433919 300.287971 
L 340.675507 300.62192 
L 341.279479 302.083014 
L 341.521068 302.218468 
L 341.883451 302.022716 
L 342.245834 301.857004 
L 342.487423 301.941314 
L 342.849806 302.329395 
L 343.816161 303.498375 
L 344.540927 304.348473 
L 345.628077 306.133141 
L 346.956815 308.629537 
L 349.131114 313.397613 
L 354.083683 324.575624 
L 355.774804 327.850917 
L 357.465925 330.519988 
L 358.794664 332.161652 
L 359.881813 333.179969 
L 360.968962 333.928028 
L 362.056112 334.385351 
L 363.022467 334.554033 
L 364.23041 334.490481 
L 365.31756 334.161322 
L 366.404709 333.619186 
L 367.854242 332.608835 
L 369.666157 330.969156 
L 372.202839 328.248348 
L 376.551437 323.532289 
L 380.054474 320.511935 
L 381.745595 319.531176 
L 383.195127 318.955589 
L 384.523865 318.649157 
L 385.852604 318.542096 
L 387.302136 318.637517 
L 388.993257 319.001639 
L 390.925967 319.692493 
L 393.22106 320.777914 
L 401.797461 325.096562 
L 403.609377 325.693857 
L 405.542087 326.127324 
L 407.474797 326.345289 
L 409.407507 326.357532 
L 411.581805 326.152829 
L 414.360076 325.63372 
L 418.104702 324.677956 
L 423.419654 323.344924 
L 428.493018 322.622217 
L 431.271288 322.526716 
L 434.411942 322.651082 
L 438.518951 323.076688 
L 448.786473 324.259653 
L 452.651893 324.42361 
L 454.584603 324.428216 
L 454.705397 319.918488 
L 455.430163 273.056697 
L 455.671752 287.607495 
L 457.00049 380.769846 
L 457.121285 379.317592 
L 457.362873 364.449302 
L 457.846051 330.466424 
L 458.08764 325.416737 
L 458.208434 326.825679 
L 458.570817 339.487057 
L 458.9332 350.850597 
L 459.174789 352.697326 
L 459.295583 351.986266 
L 460.141144 342.53673 
L 460.261938 342.714778 
L 460.503527 344.068964 
L 460.986705 347.167191 
L 461.228293 347.596579 
L 461.349088 347.496017 
L 461.711471 346.545725 
L 462.073854 345.692181 
L 462.315443 345.528614 
L 462.677826 345.70676 
L 463.040209 345.870649 
L 463.281798 345.778045 
L 463.644181 345.369998 
L 464.610536 344.130925 
L 465.335302 343.249629 
L 466.543246 341.186852 
L 467.871984 338.586771 
L 470.167077 333.420983 
L 474.757263 322.983516 
L 476.569179 319.471729 
L 478.139506 316.988461 
L 479.468244 315.334521 
L 480.434599 314.42042 
L 481.642543 313.557627 
L 482.608898 313.146355 
L 483.696047 312.91962 
L 484.903991 313.009803 
L 485.870346 313.290449 
L 487.199084 313.945303 
L 488.044645 314.549261 
L 489.735766 315.982196 
L 492.030859 318.372514 
L 498.432961 325.30418 
L 500.244876 326.782347 
L 501.694409 327.724742 
L 503.023147 328.376367 
L 504.47268 328.853973 
L 505.922212 329.083039 
L 507.371745 329.077501 
L 508.942071 328.829058 
L 510.512398 328.364028 
L 512.324314 327.617406 
L 514.860996 326.320992 
L 521.142303 323.005035 
L 523.920574 321.984877 
L 525.974078 321.491032 
L 528.148377 321.227265 
L 530.081087 321.215474 
L 532.134591 321.40464 
L 534.671273 321.86742 
L 538.415899 322.814963 
L 544.214029 324.277993 
L 548.92501 324.966621 
L 551.70328 325.08076 
L 554.843934 324.971353 
L 558.709354 324.584038 
L 569.943231 323.297063 
L 573.687856 323.160872 
L 575.378978 323.162977 
L 575.620566 338.218067 
L 576.103744 373.276434 
L 576.224538 374.03545 
L 576.586921 349.448672 
L 577.794865 266.671692 
L 577.91566 269.110454 
L 578.278043 294.111878 
L 578.640426 318.281785 
L 578.882015 322.114602 
L 579.002809 320.256303 
L 579.84837 295.024377 
L 579.969164 294.949461 
L 580.210753 297.431537 
L 580.69393 304.161973 
L 580.935519 305.076677 
L 581.056313 304.809591 
L 581.418696 302.43197 
L 581.781079 300.335704 
L 582.022668 300.004276 
L 582.264257 300.412663 
L 582.868229 301.93981 
L 583.109818 302.071067 
L 583.472201 301.869804 
L 583.834584 301.728239 
L 584.076173 301.836276 
L 584.55935 302.438939 
L 585.404911 303.48866 
L 586.129677 304.387358 
L 587.216826 306.241558 
L 588.545564 308.805266 
L 590.719863 313.658477 
L 595.430844 324.412272 
L 597.605143 328.571525 
L 598.933881 330.634347 
L 600.262619 332.280418 
L 601.349768 333.299983 
L 602.436918 334.044403 
L 603.524067 334.497383 
L 604.369628 334.653345 
L 605.577571 334.613309 
L 606.664721 334.290067 
L 607.872664 333.701136 
L 609.322197 332.675786 
L 610.650935 331.468557 
L 612.462851 329.597839 
L 619.710513 321.862689 
L 621.764018 320.300152 
L 623.334344 319.418502 
L 624.783877 318.861515 
L 626.112615 318.575732 
L 627.441353 318.492506 
L 628.890886 318.612471 
L 630.461213 318.967331 
L 632.273128 319.61828 
L 634.689016 320.769133 
L 643.265416 325.123753 
L 645.077332 325.722376 
L 647.010042 326.155724 
L 648.942752 326.371673 
L 650.875462 326.380121 
L 653.049761 326.169501 
L 655.828031 325.642703 
L 659.572657 324.676153 
L 664.887609 323.335667 
L 669.840179 322.617447 
L 672.618449 322.515368 
L 675.759103 322.634774 
L 679.624523 323.029447 
L 690.737606 324.29972 
L 694.482231 324.434833 
L 696.173352 324.432205 
L 696.898119 272.855532 
L 697.018913 273.570306 
L 697.502091 308.060476 
L 698.58924 382.67639 
L 698.710034 380.494756 
L 699.072417 355.46104 
L 699.555595 326.214614 
L 699.676389 325.075091 
L 699.797184 326.548946 
L 700.159567 339.828138 
L 700.52195 351.648086 
L 700.763539 353.509382 
L 700.884333 352.733555 
L 701.729894 342.758143 
L 701.850688 342.936845 
L 702.092277 344.33774 
L 702.575454 347.521486 
L 702.817043 347.935127 
L 703.058632 347.549577 
L 703.662604 345.880678 
L 703.904192 345.693623 
L 704.266576 345.860473 
L 704.628959 346.006983 
L 704.870547 345.90135 
L 705.232931 345.456397 
L 706.199286 344.133471 
L 706.924052 343.197696 
L 708.011201 341.270746 
L 709.460734 338.370192 
L 711.755827 333.103808 
L 715.98363 323.326577 
L 718.641106 318.289151 
L 719.84905 316.492864 
L 721.177788 314.91526 
L 722.264937 313.957954 
L 723.231292 313.344686 
L 724.318442 312.926978 
L 725.164002 312.803833 
L 726.371946 312.890656 
L 727.459096 313.244971 
L 728.546245 313.811484 
L 729.995777 314.85897 
L 731.807693 316.548326 
L 734.344375 319.343439 
L 738.451384 323.909861 
L 739.417739 324.914022 
L 740.625682 325.991105 
L 742.437598 327.363261 
L 744.007925 328.249502 
L 745.578252 328.837833 
L 747.027784 329.117344 
L 748.477317 329.156539 
L 749.806055 328.994584 
L 751.376382 328.595814 
L 753.188297 327.901132 
L 755.48339 326.773179 
L 763.697408 322.534345 
L 765.509324 321.908308 
L 767.442034 321.449439 
L 769.253949 321.216253 
L 771.186659 321.173957 
L 773.240164 321.337636 
L 775.656051 321.754609 
L 779.159088 322.62321 
L 785.681984 324.29335 
L 789.909787 324.943069 
L 792.688058 325.092496 
L 795.707917 325.019001 
L 799.09016 324.714811 
L 812.498335 323.227982 
L 816.48455 323.153063 
L 816.967727 323.159189 
L 816.967727 323.159189 
" clip-path="url(#p6eac66d96b)" style="fill: none; stroke: #1f77b4; stroke-width: 1.5; stroke-linecap: square"/>
   </g>
   <g id="patch_9">
    <path d="M 56.09 390.04 
L 56.09 229.44 
" style="fill: none; stroke: #000000; stroke-width: 0.8; stroke-linejoin: miter; stroke-linecap: square"/>
   </g>
   <g id="patch_10">
    <path d="M 853.2 390.04 
L 853.2 229.44 
" style="fill: none; stroke: #000000; stroke-width: 0.8; stroke-linejoin: miter; stroke-linecap: square"/>
   </g>
   <g id="patch_11">
    <path d="M 56.09 390.04 
L 853.2 390.04 
" style="fill: none; stroke: #000000; stroke-width: 0.8; stroke-linejoin: miter; stroke-linecap: square"/>
   </g>
   <g id="patch_12">
    <path d="M 56.09 229.44 
L 853.2 229.44 
" style="fill: none; stroke: #000000; stroke-width: 0.8; stroke-linejoin: miter; stroke-linecap: square"/>
   </g>
   <g id="legend_2">
    <g id="patch_13">
     <path d="M 720.310938 252.39625 
L 846.2 252.39625 
Q 848.2 252.39625 848.2 250.39625 
L 848.2 236.44 
Q 848.2 234.44 846.2 234.44 
L 720.310938 234.44 
Q 718.310938 234.44 718.310938 236.44 
L 718.310938 250.39625 
Q 718.310938 252.39625 720.310938 252.39625 
z
" style="fill: #ffffff; opacity: 0.8; stroke: #cccccc; stroke-linejoin: miter"/>
    </g>
    <g id="line2d_31">
     <path d="M 722.310938 242.538437 
L 732.310938 242.538437 
L 742.310938 242.538437 
" style="fill: none; stroke: #1f77b4; stroke-width: 1.5; stroke-linecap: square"/>
    </g>
    <g id="text_33">
     <!-- Cart velocity x_dot -->
     <g transform="translate(750.310938 246.038437) scale(0.1 -0.1)">
      <use xlink:href="#DejaVuSans-43"/>
      <use xlink:href="#DejaVuSans-61" transform="translate(69.824219 0)"/>
      <use xlink:href="#DejaVuSans-72" transform="translate(131.103516 0)"/>
      <use xlink:href="#DejaVuSans-74" transform="translate(172.216797 0)"/>
      <use xlink:href="#DejaVuSans-20" transform="translate(211.425781 0)"/>
      <use xlink:href="#DejaVuSans-76" transform="translate(243.212891 0)"/>
      <use xlink:href="#DejaVuSans-65" transform="translate(302.392578 0)"/>
      <use xlink:href="#DejaVuSans-6c" transform="translate(363.916016 0)"/>
      <use xlink:href="#DejaVuSans-6f" transform="translate(391.699219 0)"/>
      <use xlink:href="#DejaVuSans-63" transform="translate(452.880859 0)"/>
      <use xlink:href="#DejaVuSans-69" transform="translate(507.861328 0)"/>
      <use xlink:href="#DejaVuSans-74" transform="translate(535.644531 0)"/>
      <use xlink:href="#DejaVuSans-79" transform="translate(574.853516 0)"/>
      <use xlink:href="#DejaVuSans-20" transform="translate(634.033203 0)"/>
      <use xlink:href="#DejaVuSans-78" transform="translate(665.820312 0)"/>
      <use xlink:href="#DejaVuSans-5f" transform="translate(725 0)"/>
      <use xlink:href="#DejaVuSans-64" transform="translate(775 0)"/>
      <use xlink:href="#DejaVuSans-6f" transform="translate(838.476562 0)"/>
      <use xlink:href="#DejaVuSans-74" transform="translate(899.658203 0)"/>
     </g>
    </g>
   </g>
  </g>
 </g>
 <defs>
  <clipPath id="pfe656bd87d">
   <rect x="56.09" y="26.88" width="797.11" height="160.6"/>
  </clipPath>
  <clipPath id="p6eac66d96b">
   <rect x="56.09" y="229.44" width="797.11" height="160.6"/>
  </clipPath>
 </defs>
</svg>
