<?xml version="1.0" encoding="utf-8" standalone="no"?>
<!DOCTYPE svg PUBLIC "-//W3C//DTD SVG 1.1//EN"
  "http://www.w3.org/Graphics/SVG/1.1/DTD/svg11.dtd">
<svg xmlns:xlink="http://www.w3.org/1999/xlink" width="720pt" height="288pt" viewBox="0 0 720 288" xmlns="http://www.w3.org/2000/svg" version="1.1">
 <metadata>
  <rdf:RDF xmlns:dc="http://purl.org/dc/elements/1.1/" xmlns:cc="http://creativecommons.org/ns#" xmlns:rdf="http://www.w3.org/1999/02/22-rdf-syntax-ns#">
   <cc:Work>
    <dc:type rdf:resource="http://purl.org/dc/dcmitype/StillImage"/>
    <dc:date>2025-04-29T12:45:26.956097</dc:date>
    <dc:format>image/svg+xml</dc:format>
    <dc:creator>
     <cc:Agent>
      <dc:title>Matplotlib v3.10.1, https://matplotlib.org/</dc:title>
     </cc:Agent>
    </dc:creator>
   </cc:Work>
  </rdf:RDF>
 </metadata>
 <defs>
  <style type="text/css">*{stroke-linejoin: round; stroke-linecap: butt}</style>
 </defs>
 <g id="figure_1">
  <g id="patch_1">
   <path d="M 0 288 
L 720 288 
L 720 0 
L 0 0 
z
" style="fill: #ffffff"/>
  </g>
  <g id="axes_1">
   <g id="patch_2">
    <path d="M 52.94 246.04 
L 709.2 246.04 
L 709.2 26.88 
L 52.94 26.88 
z
" style="fill: #ffffff"/>
   </g>
   <g id="matplotlib.axis_1">
    <g id="xtick_1">
     <g id="line2d_1">
      <path d="M 82.77 246.04 
L 82.77 26.88 
" clip-path="url(#p16ca6adf65)" style="fill: none; stroke: #b0b0b0; stroke-width: 0.8; stroke-linecap: square"/>
     </g>
     <g id="line2d_2">
      <defs>
       <path id="m07baf2479b" d="M 0 0 
L 0 3.5 
" style="stroke: #000000; stroke-width: 0.8"/>
      </defs>
      <g>
       <use xlink:href="#m07baf2479b" x="82.77" y="246.04" style="stroke: #000000; stroke-width: 0.8"/>
      </g>
     </g>
     <g id="text_1">
      <!-- 0 -->
      <g transform="translate(79.58875 260.638438) scale(0.1 -0.1)">
       <defs>
        <path id="DejaVuSans-30" d="M 2034 4250 
Q 1547 4250 1301 3770 
Q 1056 3291 1056 2328 
Q 1056 1369 1301 889 
Q 1547 409 2034 409 
Q 2525 409 2770 889 
Q 3016 1369 3016 2328 
Q 3016 3291 2770 3770 
Q 2525 4250 2034 4250 
z
M 2034 4750 
Q 2819 4750 3233 4129 
Q 3647 3509 3647 2328 
Q 3647 1150 3233 529 
Q 2819 -91 2034 -91 
Q 1250 -91 836 529 
Q 422 1150 422 2328 
Q 422 3509 836 4129 
Q 1250 4750 2034 4750 
z
" transform="scale(0.015625)"/>
       </defs>
       <use xlink:href="#DejaVuSans-30"/>
      </g>
     </g>
    </g>
    <g id="xtick_2">
     <g id="line2d_3">
      <path d="M 182.203333 246.04 
L 182.203333 26.88 
" clip-path="url(#p16ca6adf65)" style="fill: none; stroke: #b0b0b0; stroke-width: 0.8; stroke-linecap: square"/>
     </g>
     <g id="line2d_4">
      <g>
       <use xlink:href="#m07baf2479b" x="182.203333" y="246.04" style="stroke: #000000; stroke-width: 0.8"/>
      </g>
     </g>
     <g id="text_2">
      <!-- 10 -->
      <g transform="translate(175.840833 260.638438) scale(0.1 -0.1)">
       <defs>
        <path id="DejaVuSans-31" d="M 794 531 
L 1825 531 
L 1825 4091 
L 703 3866 
L 703 4441 
L 1819 4666 
L 2450 4666 
L 2450 531 
L 3481 531 
L 3481 0 
L 794 0 
L 794 531 
z
" transform="scale(0.015625)"/>
       </defs>
       <use xlink:href="#DejaVuSans-31"/>
       <use xlink:href="#DejaVuSans-30" transform="translate(63.623047 0)"/>
      </g>
     </g>
    </g>
    <g id="xtick_3">
     <g id="line2d_5">
      <path d="M 281.636667 246.04 
L 281.636667 26.88 
" clip-path="url(#p16ca6adf65)" style="fill: none; stroke: #b0b0b0; stroke-width: 0.8; stroke-linecap: square"/>
     </g>
     <g id="line2d_6">
      <g>
       <use xlink:href="#m07baf2479b" x="281.636667" y="246.04" style="stroke: #000000; stroke-width: 0.8"/>
      </g>
     </g>
     <g id="text_3">
      <!-- 20 -->
      <g transform="translate(275.274167 260.638438) scale(0.1 -0.1)">
       <defs>
        <path id="DejaVuSans-32" d="M 1228 531 
L 3431 531 
L 3431 0 
L 469 0 
L 469 531 
Q 828 903 1448 1529 
Q 2069 2156 2228 2338 
Q 2531 2678 2651 2914 
Q 2772 3150 2772 3378 
Q 2772 3750 2511 3984 
Q 2250 4219 1831 4219 
Q 1534 4219 1204 4116 
Q 875 4013 500 3803 
L 500 4441 
Q 881 4594 1212 4672 
Q 1544 4750 1819 4750 
Q 2544 4750 2975 4387 
Q 3406 4025 3406 3419 
Q 3406 3131 3298 2873 
Q 3191 2616 2906 2266 
Q 2828 2175 2409 1742 
Q 1991 1309 1228 531 
z
" transform="scale(0.015625)"/>
       </defs>
       <use xlink:href="#DejaVuSans-32"/>
       <use xlink:href="#DejaVuSans-30" transform="translate(63.623047 0)"/>
      </g>
     </g>
    </g>
    <g id="xtick_4">
     <g id="line2d_7">
      <path d="M 381.07 246.04 
L 381.07 26.88 
" clip-path="url(#p16ca6adf65)" style="fill: none; stroke: #b0b0b0; stroke-width: 0.8; stroke-linecap: square"/>
     </g>
     <g id="line2d_8">
      <g>
       <use xlink:href="#m07baf2479b" x="381.07" y="246.04" style="stroke: #000000; stroke-width: 0.8"/>
      </g>
     </g>
     <g id="text_4">
      <!-- 30 -->
      <g transform="translate(374.7075 260.638438) scale(0.1 -0.1)">
       <defs>
        <path id="DejaVuSans-33" d="M 2597 2516 
Q 3050 2419 3304 2112 
Q 3559 1806 3559 1356 
Q 3559 666 3084 287 
Q 2609 -91 1734 -91 
Q 1441 -91 1130 -33 
Q 819 25 488 141 
L 488 750 
Q 750 597 1062 519 
Q 1375 441 1716 441 
Q 2309 441 2620 675 
Q 2931 909 2931 1356 
Q 2931 1769 2642 2001 
Q 2353 2234 1838 2234 
L 1294 2234 
L 1294 2753 
L 1863 2753 
Q 2328 2753 2575 2939 
Q 2822 3125 2822 3475 
Q 2822 3834 2567 4026 
Q 2313 4219 1838 4219 
Q 1578 4219 1281 4162 
Q 984 4106 628 3988 
L 628 4550 
Q 988 4650 1302 4700 
Q 1616 4750 1894 4750 
Q 2613 4750 3031 4423 
Q 3450 4097 3450 3541 
Q 3450 3153 3228 2886 
Q 3006 2619 2597 2516 
z
" transform="scale(0.015625)"/>
       </defs>
       <use xlink:href="#DejaVuSans-33"/>
       <use xlink:href="#DejaVuSans-30" transform="translate(63.623047 0)"/>
      </g>
     </g>
    </g>
    <g id="xtick_5">
     <g id="line2d_9">
      <path d="M 480.503333 246.04 
L 480.503333 26.88 
" clip-path="url(#p16ca6adf65)" style="fill: none; stroke: #b0b0b0; stroke-width: 0.8; stroke-linecap: square"/>
     </g>
     <g id="line2d_10">
      <g>
       <use xlink:href="#m07baf2479b" x="480.503333" y="246.04" style="stroke: #000000; stroke-width: 0.8"/>
      </g>
     </g>
     <g id="text_5">
      <!-- 40 -->
      <g transform="translate(474.140833 260.638438) scale(0.1 -0.1)">
       <defs>
        <path id="DejaVuSans-34" d="M 2419 4116 
L 825 1625 
L 2419 1625 
L 2419 4116 
z
M 2253 4666 
L 3047 4666 
L 3047 1625 
L 3713 1625 
L 3713 1100 
L 3047 1100 
L 3047 0 
L 2419 0 
L 2419 1100 
L 313 1100 
L 313 1709 
L 2253 4666 
z
" transform="scale(0.015625)"/>
       </defs>
       <use xlink:href="#DejaVuSans-34"/>
       <use xlink:href="#DejaVuSans-30" transform="translate(63.623047 0)"/>
      </g>
     </g>
    </g>
    <g id="xtick_6">
     <g id="line2d_11">
      <path d="M 579.936667 246.04 
L 579.936667 26.88 
" clip-path="url(#p16ca6adf65)" style="fill: none; stroke: #b0b0b0; stroke-width: 0.8; stroke-linecap: square"/>
     </g>
     <g id="line2d_12">
      <g>
       <use xlink:href="#m07baf2479b" x="579.936667" y="246.04" style="stroke: #000000; stroke-width: 0.8"/>
      </g>
     </g>
     <g id="text_6">
      <!-- 50 -->
      <g transform="translate(573.574167 260.638438) scale(0.1 -0.1)">
       <defs>
        <path id="DejaVuSans-35" d="M 691 4666 
L 3169 4666 
L 3169 4134 
L 1269 4134 
L 1269 2991 
Q 1406 3038 1543 3061 
Q 1681 3084 1819 3084 
Q 2600 3084 3056 2656 
Q 3513 2228 3513 1497 
Q 3513 744 3044 326 
Q 2575 -91 1722 -91 
Q 1428 -91 1123 -41 
Q 819 9 494 109 
L 494 744 
Q 775 591 1075 516 
Q 1375 441 1709 441 
Q 2250 441 2565 725 
Q 2881 1009 2881 1497 
Q 2881 1984 2565 2268 
Q 2250 2553 1709 2553 
Q 1456 2553 1204 2497 
Q 953 2441 691 2322 
L 691 4666 
z
" transform="scale(0.015625)"/>
       </defs>
       <use xlink:href="#DejaVuSans-35"/>
       <use xlink:href="#DejaVuSans-30" transform="translate(63.623047 0)"/>
      </g>
     </g>
    </g>
    <g id="xtick_7">
     <g id="line2d_13">
      <path d="M 679.37 246.04 
L 679.37 26.88 
" clip-path="url(#p16ca6adf65)" style="fill: none; stroke: #b0b0b0; stroke-width: 0.8; stroke-linecap: square"/>
     </g>
     <g id="line2d_14">
      <g>
       <use xlink:href="#m07baf2479b" x="679.37" y="246.04" style="stroke: #000000; stroke-width: 0.8"/>
      </g>
     </g>
     <g id="text_7">
      <!-- 60 -->
      <g transform="translate(673.0075 260.638438) scale(0.1 -0.1)">
       <defs>
        <path id="DejaVuSans-36" d="M 2113 2584 
Q 1688 2584 1439 2293 
Q 1191 2003 1191 1497 
Q 1191 994 1439 701 
Q 1688 409 2113 409 
Q 2538 409 2786 701 
Q 3034 994 3034 1497 
Q 3034 2003 2786 2293 
Q 2538 2584 2113 2584 
z
M 3366 4563 
L 3366 3988 
Q 3128 4100 2886 4159 
Q 2644 4219 2406 4219 
Q 1781 4219 1451 3797 
Q 1122 3375 1075 2522 
Q 1259 2794 1537 2939 
Q 1816 3084 2150 3084 
Q 2853 3084 3261 2657 
Q 3669 2231 3669 1497 
Q 3669 778 3244 343 
Q 2819 -91 2113 -91 
Q 1303 -91 875 529 
Q 447 1150 447 2328 
Q 447 3434 972 4092 
Q 1497 4750 2381 4750 
Q 2619 4750 2861 4703 
Q 3103 4656 3366 4563 
z
" transform="scale(0.015625)"/>
       </defs>
       <use xlink:href="#DejaVuSans-36"/>
       <use xlink:href="#DejaVuSans-30" transform="translate(63.623047 0)"/>
      </g>
     </g>
    </g>
    <g id="text_8">
     <!-- Time [s] -->
     <g transform="translate(360.741094 274.316562) scale(0.1 -0.1)">
      <defs>
       <path id="DejaVuSans-54" d="M -19 4666 
L 3928 4666 
L 3928 4134 
L 2272 4134 
L 2272 0 
L 1638 0 
L 1638 4134 
L -19 4134 
L -19 4666 
z
" transform="scale(0.015625)"/>
       <path id="DejaVuSans-69" d="M 603 3500 
L 1178 3500 
L 1178 0 
L 603 0 
L 603 3500 
z
M 603 4863 
L 1178 4863 
L 1178 4134 
L 603 4134 
L 603 4863 
z
" transform="scale(0.015625)"/>
       <path id="DejaVuSans-6d" d="M 3328 2828 
Q 3544 3216 3844 3400 
Q 4144 3584 4550 3584 
Q 5097 3584 5394 3201 
Q 5691 2819 5691 2113 
L 5691 0 
L 5113 0 
L 5113 2094 
Q 5113 2597 4934 2840 
Q 4756 3084 4391 3084 
Q 3944 3084 3684 2787 
Q 3425 2491 3425 1978 
L 3425 0 
L 2847 0 
L 2847 2094 
Q 2847 2600 2669 2842 
Q 2491 3084 2119 3084 
Q 1678 3084 1418 2786 
Q 1159 2488 1159 1978 
L 1159 0 
L 581 0 
L 581 3500 
L 1159 3500 
L 1159 2956 
Q 1356 3278 1631 3431 
Q 1906 3584 2284 3584 
Q 2666 3584 2933 3390 
Q 3200 3197 3328 2828 
z
" transform="scale(0.015625)"/>
       <path id="DejaVuSans-65" d="M 3597 1894 
L 3597 1613 
L 953 1613 
Q 991 1019 1311 708 
Q 1631 397 2203 397 
Q 2534 397 2845 478 
Q 3156 559 3463 722 
L 3463 178 
Q 3153 47 2828 -22 
Q 2503 -91 2169 -91 
Q 1331 -91 842 396 
Q 353 884 353 1716 
Q 353 2575 817 3079 
Q 1281 3584 2069 3584 
Q 2775 3584 3186 3129 
Q 3597 2675 3597 1894 
z
M 3022 2063 
Q 3016 2534 2758 2815 
Q 2500 3097 2075 3097 
Q 1594 3097 1305 2825 
Q 1016 2553 972 2059 
L 3022 2063 
z
" transform="scale(0.015625)"/>
       <path id="DejaVuSans-20" transform="scale(0.015625)"/>
       <path id="DejaVuSans-5b" d="M 550 4863 
L 1875 4863 
L 1875 4416 
L 1125 4416 
L 1125 -397 
L 1875 -397 
L 1875 -844 
L 550 -844 
L 550 4863 
z
" transform="scale(0.015625)"/>
       <path id="DejaVuSans-73" d="M 2834 3397 
L 2834 2853 
Q 2591 2978 2328 3040 
Q 2066 3103 1784 3103 
Q 1356 3103 1142 2972 
Q 928 2841 928 2578 
Q 928 2378 1081 2264 
Q 1234 2150 1697 2047 
L 1894 2003 
Q 2506 1872 2764 1633 
Q 3022 1394 3022 966 
Q 3022 478 2636 193 
Q 2250 -91 1575 -91 
Q 1294 -91 989 -36 
Q 684 19 347 128 
L 347 722 
Q 666 556 975 473 
Q 1284 391 1588 391 
Q 1994 391 2212 530 
Q 2431 669 2431 922 
Q 2431 1156 2273 1281 
Q 2116 1406 1581 1522 
L 1381 1569 
Q 847 1681 609 1914 
Q 372 2147 372 2553 
Q 372 3047 722 3315 
Q 1072 3584 1716 3584 
Q 2034 3584 2315 3537 
Q 2597 3491 2834 3397 
z
" transform="scale(0.015625)"/>
       <path id="DejaVuSans-5d" d="M 1947 4863 
L 1947 -844 
L 622 -844 
L 622 -397 
L 1369 -397 
L 1369 4416 
L 622 4416 
L 622 4863 
L 1947 4863 
z
" transform="scale(0.015625)"/>
      </defs>
      <use xlink:href="#DejaVuSans-54"/>
      <use xlink:href="#DejaVuSans-69" transform="translate(57.958984 0)"/>
      <use xlink:href="#DejaVuSans-6d" transform="translate(85.742188 0)"/>
      <use xlink:href="#DejaVuSans-65" transform="translate(183.154297 0)"/>
      <use xlink:href="#DejaVuSans-20" transform="translate(244.677734 0)"/>
      <use xlink:href="#DejaVuSans-5b" transform="translate(276.464844 0)"/>
      <use xlink:href="#DejaVuSans-73" transform="translate(315.478516 0)"/>
      <use xlink:href="#DejaVuSans-5d" transform="translate(367.578125 0)"/>
     </g>
    </g>
   </g>
   <g id="matplotlib.axis_2">
    <g id="ytick_1">
     <g id="line2d_15">
      <path d="M 52.94 236.078182 
L 709.2 236.078182 
" clip-path="url(#p16ca6adf65)" style="fill: none; stroke: #b0b0b0; stroke-width: 0.8; stroke-linecap: square"/>
     </g>
     <g id="line2d_16">
      <defs>
       <path id="m8ea6bc0875" d="M 0 0 
L -3.5 0 
" style="stroke: #000000; stroke-width: 0.8"/>
      </defs>
      <g>
       <use xlink:href="#m8ea6bc0875" x="52.94" y="236.078182" style="stroke: #000000; stroke-width: 0.8"/>
      </g>
     </g>
     <g id="text_9">
      <!-- −80 -->
      <g transform="translate(24.835313 239.877401) scale(0.1 -0.1)">
       <defs>
        <path id="DejaVuSans-2212" d="M 678 2272 
L 4684 2272 
L 4684 1741 
L 678 1741 
L 678 2272 
z
" transform="scale(0.015625)"/>
        <path id="DejaVuSans-38" d="M 2034 2216 
Q 1584 2216 1326 1975 
Q 1069 1734 1069 1313 
Q 1069 891 1326 650 
Q 1584 409 2034 409 
Q 2484 409 2743 651 
Q 3003 894 3003 1313 
Q 3003 1734 2745 1975 
Q 2488 2216 2034 2216 
z
M 1403 2484 
Q 997 2584 770 2862 
Q 544 3141 544 3541 
Q 544 4100 942 4425 
Q 1341 4750 2034 4750 
Q 2731 4750 3128 4425 
Q 3525 4100 3525 3541 
Q 3525 3141 3298 2862 
Q 3072 2584 2669 2484 
Q 3125 2378 3379 2068 
Q 3634 1759 3634 1313 
Q 3634 634 3220 271 
Q 2806 -91 2034 -91 
Q 1263 -91 848 271 
Q 434 634 434 1313 
Q 434 1759 690 2068 
Q 947 2378 1403 2484 
z
M 1172 3481 
Q 1172 3119 1398 2916 
Q 1625 2713 2034 2713 
Q 2441 2713 2670 2916 
Q 2900 3119 2900 3481 
Q 2900 3844 2670 4047 
Q 2441 4250 2034 4250 
Q 1625 4250 1398 4047 
Q 1172 3844 1172 3481 
z
" transform="scale(0.015625)"/>
       </defs>
       <use xlink:href="#DejaVuSans-2212"/>
       <use xlink:href="#DejaVuSans-38" transform="translate(83.789062 0)"/>
       <use xlink:href="#DejaVuSans-30" transform="translate(147.412109 0)"/>
      </g>
     </g>
    </g>
    <g id="ytick_2">
     <g id="line2d_17">
      <path d="M 52.94 211.173636 
L 709.2 211.173636 
" clip-path="url(#p16ca6adf65)" style="fill: none; stroke: #b0b0b0; stroke-width: 0.8; stroke-linecap: square"/>
     </g>
     <g id="line2d_18">
      <g>
       <use xlink:href="#m8ea6bc0875" x="52.94" y="211.173636" style="stroke: #000000; stroke-width: 0.8"/>
      </g>
     </g>
     <g id="text_10">
      <!-- −60 -->
      <g transform="translate(24.835313 214.972855) scale(0.1 -0.1)">
       <use xlink:href="#DejaVuSans-2212"/>
       <use xlink:href="#DejaVuSans-36" transform="translate(83.789062 0)"/>
       <use xlink:href="#DejaVuSans-30" transform="translate(147.412109 0)"/>
      </g>
     </g>
    </g>
    <g id="ytick_3">
     <g id="line2d_19">
      <path d="M 52.94 186.269091 
L 709.2 186.269091 
" clip-path="url(#p16ca6adf65)" style="fill: none; stroke: #b0b0b0; stroke-width: 0.8; stroke-linecap: square"/>
     </g>
     <g id="line2d_20">
      <g>
       <use xlink:href="#m8ea6bc0875" x="52.94" y="186.269091" style="stroke: #000000; stroke-width: 0.8"/>
      </g>
     </g>
     <g id="text_11">
      <!-- −40 -->
      <g transform="translate(24.835313 190.06831) scale(0.1 -0.1)">
       <use xlink:href="#DejaVuSans-2212"/>
       <use xlink:href="#DejaVuSans-34" transform="translate(83.789062 0)"/>
       <use xlink:href="#DejaVuSans-30" transform="translate(147.412109 0)"/>
      </g>
     </g>
    </g>
    <g id="ytick_4">
     <g id="line2d_21">
      <path d="M 52.94 161.364545 
L 709.2 161.364545 
" clip-path="url(#p16ca6adf65)" style="fill: none; stroke: #b0b0b0; stroke-width: 0.8; stroke-linecap: square"/>
     </g>
     <g id="line2d_22">
      <g>
       <use xlink:href="#m8ea6bc0875" x="52.94" y="161.364545" style="stroke: #000000; stroke-width: 0.8"/>
      </g>
     </g>
     <g id="text_12">
      <!-- −20 -->
      <g transform="translate(24.835313 165.163764) scale(0.1 -0.1)">
       <use xlink:href="#DejaVuSans-2212"/>
       <use xlink:href="#DejaVuSans-32" transform="translate(83.789062 0)"/>
       <use xlink:href="#DejaVuSans-30" transform="translate(147.412109 0)"/>
      </g>
     </g>
    </g>
    <g id="ytick_5">
     <g id="line2d_23">
      <path d="M 52.94 136.46 
L 709.2 136.46 
" clip-path="url(#p16ca6adf65)" style="fill: none; stroke: #b0b0b0; stroke-width: 0.8; stroke-linecap: square"/>
     </g>
     <g id="line2d_24">
      <g>
       <use xlink:href="#m8ea6bc0875" x="52.94" y="136.46" style="stroke: #000000; stroke-width: 0.8"/>
      </g>
     </g>
     <g id="text_13">
      <!-- 0 -->
      <g transform="translate(39.5775 140.259219) scale(0.1 -0.1)">
       <use xlink:href="#DejaVuSans-30"/>
      </g>
     </g>
    </g>
    <g id="ytick_6">
     <g id="line2d_25">
      <path d="M 52.94 111.555455 
L 709.2 111.555455 
" clip-path="url(#p16ca6adf65)" style="fill: none; stroke: #b0b0b0; stroke-width: 0.8; stroke-linecap: square"/>
     </g>
     <g id="line2d_26">
      <g>
       <use xlink:href="#m8ea6bc0875" x="52.94" y="111.555455" style="stroke: #000000; stroke-width: 0.8"/>
      </g>
     </g>
     <g id="text_14">
      <!-- 20 -->
      <g transform="translate(33.215 115.354673) scale(0.1 -0.1)">
       <use xlink:href="#DejaVuSans-32"/>
       <use xlink:href="#DejaVuSans-30" transform="translate(63.623047 0)"/>
      </g>
     </g>
    </g>
    <g id="ytick_7">
     <g id="line2d_27">
      <path d="M 52.94 86.650909 
L 709.2 86.650909 
" clip-path="url(#p16ca6adf65)" style="fill: none; stroke: #b0b0b0; stroke-width: 0.8; stroke-linecap: square"/>
     </g>
     <g id="line2d_28">
      <g>
       <use xlink:href="#m8ea6bc0875" x="52.94" y="86.650909" style="stroke: #000000; stroke-width: 0.8"/>
      </g>
     </g>
     <g id="text_15">
      <!-- 40 -->
      <g transform="translate(33.215 90.450128) scale(0.1 -0.1)">
       <use xlink:href="#DejaVuSans-34"/>
       <use xlink:href="#DejaVuSans-30" transform="translate(63.623047 0)"/>
      </g>
     </g>
    </g>
    <g id="ytick_8">
     <g id="line2d_29">
      <path d="M 52.94 61.746364 
L 709.2 61.746364 
" clip-path="url(#p16ca6adf65)" style="fill: none; stroke: #b0b0b0; stroke-width: 0.8; stroke-linecap: square"/>
     </g>
     <g id="line2d_30">
      <g>
       <use xlink:href="#m8ea6bc0875" x="52.94" y="61.746364" style="stroke: #000000; stroke-width: 0.8"/>
      </g>
     </g>
     <g id="text_16">
      <!-- 60 -->
      <g transform="translate(33.215 65.545582) scale(0.1 -0.1)">
       <use xlink:href="#DejaVuSans-36"/>
       <use xlink:href="#DejaVuSans-30" transform="translate(63.623047 0)"/>
      </g>
     </g>
    </g>
    <g id="ytick_9">
     <g id="line2d_31">
      <path d="M 52.94 36.841818 
L 709.2 36.841818 
" clip-path="url(#p16ca6adf65)" style="fill: none; stroke: #b0b0b0; stroke-width: 0.8; stroke-linecap: square"/>
     </g>
     <g id="line2d_32">
      <g>
       <use xlink:href="#m8ea6bc0875" x="52.94" y="36.841818" style="stroke: #000000; stroke-width: 0.8"/>
      </g>
     </g>
     <g id="text_17">
      <!-- 80 -->
      <g transform="translate(33.215 40.641037) scale(0.1 -0.1)">
       <use xlink:href="#DejaVuSans-38"/>
       <use xlink:href="#DejaVuSans-30" transform="translate(63.623047 0)"/>
      </g>
     </g>
    </g>
    <g id="text_18">
     <!-- Force [N] -->
     <g transform="translate(18.755625 159.213906) rotate(-90) scale(0.1 -0.1)">
      <defs>
       <path id="DejaVuSans-46" d="M 628 4666 
L 3309 4666 
L 3309 4134 
L 1259 4134 
L 1259 2759 
L 3109 2759 
L 3109 2228 
L 1259 2228 
L 1259 0 
L 628 0 
L 628 4666 
z
" transform="scale(0.015625)"/>
       <path id="DejaVuSans-6f" d="M 1959 3097 
Q 1497 3097 1228 2736 
Q 959 2375 959 1747 
Q 959 1119 1226 758 
Q 1494 397 1959 397 
Q 2419 397 2687 759 
Q 2956 1122 2956 1747 
Q 2956 2369 2687 2733 
Q 2419 3097 1959 3097 
z
M 1959 3584 
Q 2709 3584 3137 3096 
Q 3566 2609 3566 1747 
Q 3566 888 3137 398 
Q 2709 -91 1959 -91 
Q 1206 -91 779 398 
Q 353 888 353 1747 
Q 353 2609 779 3096 
Q 1206 3584 1959 3584 
z
" transform="scale(0.015625)"/>
       <path id="DejaVuSans-72" d="M 2631 2963 
Q 2534 3019 2420 3045 
Q 2306 3072 2169 3072 
Q 1681 3072 1420 2755 
Q 1159 2438 1159 1844 
L 1159 0 
L 581 0 
L 581 3500 
L 1159 3500 
L 1159 2956 
Q 1341 3275 1631 3429 
Q 1922 3584 2338 3584 
Q 2397 3584 2469 3576 
Q 2541 3569 2628 3553 
L 2631 2963 
z
" transform="scale(0.015625)"/>
       <path id="DejaVuSans-63" d="M 3122 3366 
L 3122 2828 
Q 2878 2963 2633 3030 
Q 2388 3097 2138 3097 
Q 1578 3097 1268 2742 
Q 959 2388 959 1747 
Q 959 1106 1268 751 
Q 1578 397 2138 397 
Q 2388 397 2633 464 
Q 2878 531 3122 666 
L 3122 134 
Q 2881 22 2623 -34 
Q 2366 -91 2075 -91 
Q 1284 -91 818 406 
Q 353 903 353 1747 
Q 353 2603 823 3093 
Q 1294 3584 2113 3584 
Q 2378 3584 2631 3529 
Q 2884 3475 3122 3366 
z
" transform="scale(0.015625)"/>
       <path id="DejaVuSans-4e" d="M 628 4666 
L 1478 4666 
L 3547 763 
L 3547 4666 
L 4159 4666 
L 4159 0 
L 3309 0 
L 1241 3903 
L 1241 0 
L 628 0 
L 628 4666 
z
" transform="scale(0.015625)"/>
      </defs>
      <use xlink:href="#DejaVuSans-46"/>
      <use xlink:href="#DejaVuSans-6f" transform="translate(53.894531 0)"/>
      <use xlink:href="#DejaVuSans-72" transform="translate(115.076172 0)"/>
      <use xlink:href="#DejaVuSans-63" transform="translate(153.939453 0)"/>
      <use xlink:href="#DejaVuSans-65" transform="translate(208.919922 0)"/>
      <use xlink:href="#DejaVuSans-20" transform="translate(270.443359 0)"/>
      <use xlink:href="#DejaVuSans-5b" transform="translate(302.230469 0)"/>
      <use xlink:href="#DejaVuSans-4e" transform="translate(341.244141 0)"/>
      <use xlink:href="#DejaVuSans-5d" transform="translate(416.048828 0)"/>
     </g>
    </g>
   </g>
   <g id="line2d_33">
    <path d="M 82.77 36.841818 
L 83.492611 36.841818 
L 84.110624 236.078182 
L 84.22723 236.078182 
L 84.22723 236.078182 
L 83.289909 36.841818 
L 83.345976 36.841818 
L 83.676152 36.841818 
L 83.738449 95.22085 
L 83.738449 59.805738 
L 83.242895 36.841818 
L 83.275455 36.841818 
L 83.601058 36.841818 
L 83.792803 164.205249 
L 83.917627 236.078182 
L 84.787713 236.078182 
L 85.383604 157.178329 
L 85.48954 36.841818 
L 85.621961 36.841818 
L 85.621961 36.841818 
L 84.527855 236.078182 
L 84.576694 236.078182 
L 85.065077 236.078182 
L 85.309269 229.176246 
L 85.406946 108.641272 
L 85.406946 129.825675 
L 84.99246 236.078182 
L 85.029408 236.078182 
L 85.288049 236.078182 
L 85.288049 236.078182 
L 85.583638 78.372775 
L 85.616481 174.621461 
L 85.657535 36.841818 
L 85.332276 212.772422 
L 85.730327 36.841818 
L 85.730327 36.841818 
L 86.298544 36.841818 
L 86.934819 236.078182 
L 87.05487 236.078182 
L 87.05487 236.078182 
L 86.057843 36.841818 
L 86.099562 36.841818 
L 86.308158 39.702748 
L 86.391597 95.016086 
L 86.391597 89.865321 
L 86.036715 36.841818 
L 86.06787 36.841818 
L 86.285958 36.841818 
L 86.285958 36.841818 
L 86.813642 224.258486 
L 86.839626 223.184814 
L 86.992642 211.27577 
L 87.353144 137.648243 
L 87.623594 103.196127 
L 87.762353 102.982556 
L 87.817856 109.967873 
L 87.817856 103.945555 
L 87.589873 104.437906 
L 87.738475 102.104809 
L 87.788009 106.531019 
L 87.86231 106.528874 
L 88.234245 136.969859 
L 88.283887 136.958134 
L 88.381467 148.135264 
L 88.5441 149.987877 
L 88.609153 143.710819 
L 88.609153 152.060316 
L 88.339751 146.298989 
L 88.507343 150.494264 
L 88.563207 147.317527 
L 88.563207 152.240973 
L 88.618921 152.319358 
L 89.054824 139.964683 
L 89.147822 134.758575 
L 89.302818 132.752206 
L 89.330373 135.127267 
L 89.364817 131.05572 
L 89.105067 136.006926 
L 89.375512 130.993824 
L 89.491302 131.068903 
L 90.161307 139.532061 
L 90.337457 139.427287 
L 90.407917 138.01567 
L 90.407917 139.567664 
L 90.110542 139.268313 
L 90.138004 139.395294 
L 90.275316 139.682658 
L 90.33024 139.167171 
L 90.33024 139.799103 
L 90.412596 139.546709 
L 90.813532 137.179974 
L 90.865726 137.213978 
L 90.963304 136.253178 
L 91.012093 136.183181 
L 91.256039 136.74411 
L 91.353618 138.870477 
L 91.353618 136.3587 
L 90.92499 136.444026 
L 90.954623 136.360247 
L 91.102785 136.173292 
L 91.162049 136.481018 
L 91.162049 136.046285 
L 91.248762 136.125641 
L 91.535699 136.837856 
L 91.888098 137.546536 
L 92.146407 137.211597 
L 92.249731 136.12813 
L 92.249731 137.423299 
L 91.789691 137.437649 
L 92.016005 137.42917 
L 92.016005 137.578065 
L 92.100873 137.541468 
L 92.388582 137.407391 
L 92.805663 137.315637 
L 93.152027 137.373245 
L 93.290572 137.635277 
L 93.290572 137.336568 
L 92.703539 137.322441 
L 93.882883 137.284804 
L 93.77332 137.302535 
L 97.691087 136.946076 
L 97.806477 136.73507 
L 97.806477 136.826135 
L 96.900121 136.974776 
L 99.183693 136.705091 
L 102.185919 136.442289 
L 102.373109 136.489519 
L 102.373109 136.410417 
L 103.270204 136.304115 
L 103.494478 136.010675 
L 103.494478 136.268938 
L 102.526709 136.401532 
L 103.814619 136.320294 
L 104.128172 136.288934 
L 107.797753 136.186328 
L 107.972244 136.209963 
L 107.972244 136.179916 
L 109.272867 136.153002 
L 109.598022 135.742706 
L 109.598022 136.007564 
L 108.090071 136.180536 
L 109.021501 136.183855 
L 110.889292 136.414513 
L 110.558484 136.213724 
L 110.852254 136.178085 
L 110.852254 136.063186 
L 110.47025 136.21121 
L 110.677416 136.217286 
L 110.845992 136.12878 
L 111.106857 135.901747 
L 111.296679 135.868436 
L 111.372608 135.990431 
L 111.372608 135.794216 
L 111.701676 135.858443 
L 111.446454 135.78735 
L 112.037221 135.967673 
L 112.111067 135.935536 
L 112.111067 136.012731 
L 112.298802 136.03521 
L 112.611694 135.976501 
L 112.736851 135.755672 
L 112.736851 135.993238 
L 112.20035 136.031903 
L 113.484313 136.02805 
L 113.604417 136.10288 
L 113.604417 136.035857 
L 115.471015 136.127069 
L 115.778708 136.152724 
L 118.155526 136.300045 
L 118.364617 136.399651 
L 118.364617 136.307005 
L 117.506179 136.242933 
L 121.511632 136.432793 
L 121.487138 136.43209 
L 125.657377 136.562818 
L 125.779418 136.622006 
L 125.779418 136.538977 
L 124.80458 136.507033 
L 128.700826 136.552533 
L 128.700826 136.517826 
L 127.787627 136.517853 
L 129.709433 136.497899 
L 129.782608 136.351065 
L 129.874076 136.839899 
L 129.120749 136.505547 
L 129.361487 136.502297 
L 129.400316 136.442384 
L 129.400316 136.446413 
L 129.083155 136.506095 
L 129.389822 136.518793 
L 129.520209 136.986011 
L 129.397364 136.506088 
L 129.52639 136.942207 
L 129.487112 136.468851 
L 129.560093 136.636778 
L 129.994542 136.863858 
L 130.072119 136.734906 
L 130.072119 136.93464 
L 129.753932 136.804952 
L 129.963027 136.873199 
L 130.032725 136.79069 
L 130.032725 136.931251 
L 130.329725 136.885886 
L 130.629894 136.793698 
L 130.695655 136.806389 
L 130.695655 136.755656 
L 131.080817 136.748755 
L 131.177108 136.853306 
L 131.177108 136.729496 
L 130.777974 136.733008 
L 138.405996 136.575192 
L 138.603925 136.526658 
L 138.603925 136.573319 
L 137.786345 136.601042 
L 143.595507 136.509554 
L 143.439865 136.510675 
L 148.214211 136.38985 
L 148.665068 136.590428 
L 148.845411 124.844494 
L 148.845411 134.774583 
L 147.981009 136.514681 
L 147.999666 136.488702 
L 148.092949 136.861726 
L 148.109533 137.514081 
L 148.130262 136.452399 
L 147.96434 136.514568 
L 147.974663 136.514634 
L 148.035449 135.919047 
L 148.077884 136.475454 
L 148.150139 136.440223 
L 148.052197 136.477321 
L 148.094434 136.416153 
L 148.09678 136.315437 
L 148.153545 136.581185 
L 148.205181 136.422816 
L 148.204156 136.423569 
L 148.246794 136.347853 
L 148.349352 135.894181 
L 148.243561 136.420553 
L 148.34953 136.336978 
L 148.35882 136.34283 
L 148.41353 135.695746 
L 148.382616 136.390925 
L 148.43277 136.281074 
L 148.843985 136.103178 
L 149.697958 136.217404 
L 149.784442 136.278949 
L 149.772769 136.27845 
L 151.011526 136.254163 
L 151.152891 136.365223 
L 151.152891 136.253288 
L 150.535201 136.216403 
L 153.107243 136.265156 
L 152.526769 136.261261 
L 153.904095 136.282231 
L 163.130286 136.352383 
L 163.264097 136.255698 
L 163.264097 136.339196 
L 162.154917 136.365361 
L 166.687012 136.160064 
L 166.601384 136.359128 
L 166.68634 136.47768 
L 167.111122 136.180004 
L 167.281035 146.054183 
L 167.281035 137.732835 
L 166.465454 136.359486 
L 166.582505 136.35914 
L 166.444699 136.359541 
L 166.76217 136.451083 
L 167.092869 135.910146 
L 167.151659 136.982615 
L 167.225148 140.509055 
L 167.225148 136.927483 
L 166.590207 136.359134 
L 166.603435 136.359093 
L 166.681332 137.110286 
L 166.582079 136.359157 
L 166.682883 136.393447 
L 166.835459 136.437491 
L 166.982838 135.920895 
L 167.009039 135.190603 
L 167.04179 136.494354 
L 166.769389 136.396949 
L 166.780568 136.412529 
L 166.846399 135.703314 
L 166.791116 136.428946 
L 166.888486 136.4345 
L 166.957137 136.50026 
L 166.965335 136.394249 
L 166.997865 136.467281 
L 167.127645 136.650005 
L 167.006376 136.453596 
L 167.129587 136.63806 
L 167.136617 136.506834 
L 167.227312 136.842422 
L 167.221424 136.559936 
L 167.365649 137.493058 
L 167.218582 136.469569 
L 167.381974 137.315491 
L 167.381974 136.607676 
L 167.238753 136.573551 
L 167.307934 136.664223 
L 167.309935 136.775485 
L 167.301963 136.527681 
L 167.356041 136.635549 
L 167.779204 136.746684 
L 169.95812 136.643055 
L 181.919108 136.581546 
L 182.321905 36.841818 
L 182.397904 36.841818 
L 182.397904 36.841818 
L 181.782023 136.581653 
L 181.81608 136.581626 
L 182.156648 136.581319 
L 182.395046 36.841818 
L 182.08811 136.58139 
L 182.189008 136.581293 
L 182.222641 36.841818 
L 182.222641 36.841818 
L 182.065975 136.581412 
L 182.284424 36.841818 
L 182.341911 36.841818 
L 182.629344 99.321776 
L 182.744317 236.078182 
L 182.744317 36.841818 
L 182.243995 36.841818 
L 182.50076 36.841818 
L 182.542173 107.557292 
L 182.542173 36.841818 
L 182.204612 36.841818 
L 182.345257 36.841818 
L 182.193967 136.581284 
L 182.176171 136.581302 
L 182.301862 36.841818 
L 182.669464 36.841818 
L 183.272691 236.078182 
L 183.369986 236.078182 
L 183.369986 236.078182 
L 182.594252 36.841818 
L 182.644211 36.841818 
L 182.993923 236.078182 
L 182.993923 215.566532 
L 182.554168 36.841818 
L 182.584086 36.841818 
L 182.733672 49.0728 
L 183.010229 236.078182 
L 183.034309 213.508299 
L 183.064409 236.078182 
L 182.83173 142.645171 
L 183.161464 236.078182 
L 183.161464 236.078182 
L 184.046213 236.078182 
L 184.144518 206.246206 
L 184.2674 41.220904 
L 183.276453 236.078182 
L 183.333947 236.078182 
L 183.908889 236.078182 
L 184.311349 36.841818 
L 183.809983 236.078182 
L 183.846772 236.078182 
L 184.030714 236.078182 
L 184.391907 76.511213 
L 184.423865 158.775433 
L 184.463811 36.841818 
L 184.162134 150.895139 
L 184.480267 36.841818 
L 184.682716 36.841818 
L 184.682716 36.841818 
L 184.89716 49.373876 
L 185.004382 135.843917 
L 185.540492 36.841818 
L 185.6358 76.484535 
L 185.754936 236.078182 
L 185.754936 236.078182 
L 184.760496 36.841818 
L 184.799386 44.837098 
L 185.163744 155.437754 
L 184.737253 36.841818 
L 185.186893 144.444991 
L 185.45596 195.99834 
L 185.506357 195.258426 
L 185.969311 144.005156 
L 186.078113 122.094023 
L 186.259451 119.49625 
L 186.331986 136.106958 
L 186.331986 113.277644 
L 186.031682 126.149142 
L 186.218794 117.905736 
L 186.281165 126.681383 
L 186.281165 113.038129 
L 186.343204 112.706501 
L 187.158657 145.713748 
L 187.229008 139.750525 
L 187.229008 147.051883 
L 186.934311 144.146632 
L 187.105483 146.539439 
L 187.16254 144.050921 
L 187.16254 147.55705 
L 187.217328 147.416917 
L 187.871548 132.831648 
L 188.062433 133.065478 
L 188.138786 136.272427 
L 188.138786 132.529049 
L 188.483257 134.593656 
L 188.559803 136.583911 
L 188.598077 136.83936 
L 188.789443 136.964138 
L 188.865989 135.372623 
L 188.865989 137.640143 
L 188.95079 137.5774 
L 189.413906 135.267621 
L 189.620426 135.039899 
L 189.65714 135.901453 
L 189.703034 134.540614 
L 189.818126 134.44516 
L 189.875672 134.562824 
L 190.214555 134.891588 
L 190.278495 135.5773 
L 190.278495 135.054512 
L 189.797091 134.462606 
L 190.314409 135.057218 
L 190.549553 134.847304 
L 190.643611 134.233402 
L 190.643611 135.012246 
L 191.172538 134.596812 
L 191.231308 134.791573 
L 191.30477 134.230214 
L 190.753328 134.919255 
L 191.08248 134.601149 
L 191.131243 134.711925 
L 191.356773 134.220672 
L 191.631066 134.201854 
L 191.740783 134.478666 
L 191.740783 134.119416 
L 191.937029 134.101735 
L 192.264105 133.867438 
L 192.322252 133.534742 
L 192.394936 133.563798 
L 192.394936 133.946462 
L 192.638573 133.815639 
L 193.044635 133.787968 
L 193.116824 133.998084 
L 193.20706 133.609826 
L 192.540671 133.872838 
L 192.977876 133.770069 
L 193.042647 133.915044 
L 193.342214 133.596264 
L 194.087413 133.436329 
L 195.268532 133.267858 
L 195.426655 133.218289 
L 195.426655 133.30077 
L 196.051839 133.322369 
L 196.208135 133.386088 
L 196.208135 133.297891 
L 197.730992 133.522847 
L 197.928166 133.632254 
L 197.928166 133.531513 
L 198.742108 133.640872 
L 198.832546 133.587616 
L 198.945593 133.111404 
L 198.945593 133.292813 
L 198.060386 133.564908 
L 198.126497 133.579244 
L 198.515813 133.705549 
L 198.589269 133.41066 
L 198.04197 133.560256 
L 198.098872 133.57288 
L 198.497187 133.75668 
L 198.010921 133.552414 
L 198.466077 133.59761 
L 198.672966 133.300711 
L 198.755722 132.411992 
L 198.755722 133.38537 
L 198.401641 133.637836 
L 198.580733 133.477848 
L 198.64043 133.146499 
L 198.64043 133.460459 
L 198.392663 133.635963 
L 198.567363 133.453383 
L 198.595541 133.341774 
L 198.595541 133.48978 
L 198.665279 133.440956 
L 199.016231 133.328822 
L 199.329951 133.655063 
L 199.455438 134.376372 
L 199.455438 133.584747 
L 199.625925 133.705857 
L 199.91007 133.727457 
L 199.960584 133.492543 
L 200.023728 133.523027 
L 200.023728 133.85936 
L 200.380081 133.895592 
L 200.974003 134.621556 
L 201.079589 135.297576 
L 201.211572 133.892102 
L 201.211572 134.079698 
L 200.14897 133.884781 
L 200.524696 134.010695 
L 200.580359 134.127767 
L 200.649938 134.080727 
L 200.649938 133.985047 
L 202.33355 134.664113 
L 202.889687 135.01732 
L 202.994618 135.141791 
L 202.994618 134.9725 
L 203.765223 135.341623 
L 203.850846 135.469545 
L 203.957874 135.281154 
L 203.957874 135.314424 
L 203.151014 135.031353 
L 204.824214 135.699942 
L 205.26694 135.942338 
L 205.44403 136.096539 
L 205.44403 135.95631 
L 205.731606 136.085762 
L 206.2109 136.150429 
L 206.402617 135.90138 
L 206.402617 136.286572 
L 206.732129 136.424493 
L 207.281316 136.716568 
L 207.500991 137.996989 
L 207.500991 136.945812 
L 206.543865 136.329937 
L 207.250102 136.658784 
L 208.467024 137.03947 
L 208.630007 137.203898 
L 208.630007 137.085779 
L 209.442383 137.276851 
L 209.54393 137.211863 
L 209.54393 137.298685 
L 210.228434 137.413998 
L 210.30449 137.294949 
L 210.631865 137.546396 
L 211.019039 137.687213 
L 211.173909 137.863844 
L 211.173909 137.653513 
L 211.450217 137.71223 
L 211.910731 137.67829 
L 212.094936 137.466999 
L 212.094936 137.759718 
L 212.429788 137.798221 
L 212.987873 137.981559 
L 213.211108 138.942877 
L 213.211108 138.06352 
L 212.225826 137.765499 
L 212.94288 137.873921 
L 214.010385 137.92574 
L 214.164389 137.983715 
L 214.164389 137.908153 
L 214.965595 137.861811 
L 215.165896 137.745223 
L 215.165896 137.876186 
L 215.992148 137.871311 
L 216.198711 138.213585 
L 216.198711 137.889746 
L 215.291649 137.867925 
L 216.334168 137.789322 
L 217.13407 137.643877 
L 217.225628 138.067871 
L 216.511636 137.800388 
L 216.56665 137.793878 
L 217.116794 137.809593 
L 217.391867 138.401063 
L 217.501895 140.362678 
L 217.501895 138.149585 
L 217.010165 137.745488 
L 217.211368 138.047446 
L 217.243821 138.205681 
L 217.243821 137.947547 
L 216.989224 137.747736 
L 217.48057 138.102859 
L 217.761813 137.91261 
L 217.87431 137.383302 
L 217.87431 138.046947 
L 217.983943 137.994863 
L 218.038759 137.956819 
L 218.312842 137.92555 
L 218.361567 138.088866 
L 218.422475 138.009354 
L 218.53185 137.776193 
L 219.428307 137.681739 
L 219.543046 137.568199 
L 219.543046 137.687713 
L 220.212277 137.59995 
L 220.286636 137.707162 
L 220.605942 137.480475 
L 221.427571 137.298209 
L 221.916671 137.285687 
L 222.003622 137.478487 
L 222.112311 137.440716 
L 222.112311 137.193907 
L 222.424263 137.128126 
L 222.944182 136.914336 
L 223.15215 136.155356 
L 223.15215 136.836606 
L 222.252714 137.174954 
L 223.0245 136.969711 
L 224.158228 136.745023 
L 224.319057 136.630456 
L 224.319057 136.722105 
L 225.149407 136.630068 
L 225.253201 136.670132 
L 225.253201 136.572886 
L 225.947814 136.47593 
L 226.024993 136.535256 
L 226.121467 136.395548 
L 225.40253 136.541082 
L 227.424264 136.230356 
L 227.593705 136.228189 
L 227.593705 136.185451 
L 228.319351 136.064875 
L 228.500762 135.967466 
L 228.500762 136.07009 
L 229.338704 136.042371 
L 229.54819 136.296518 
L 229.54819 136.019267 
L 228.669785 136.045574 
L 230.074144 135.907705 
L 230.165177 135.847638 
L 230.165177 135.912467 
L 229.484967 135.991778 
L 231.680884 135.84623 
L 235.741523 135.76042 
L 236.293638 133.039633 
L 236.514484 120.884933 
L 236.514484 133.376225 
L 235.480898 135.901134 
L 235.51622 135.902881 
L 235.763472 135.884326 
L 235.867025 135.690982 
L 236.276728 135.495342 
L 236.556858 135.647095 
L 236.668911 136.050908 
L 236.668911 135.628817 
L 236.190376 135.49621 
L 237.324185 135.740501 
L 237.42559 135.620665 
L 237.42559 135.764654 
L 238.127568 135.766585 
L 240.328668 136.000359 
L 240.996008 135.992626 
L 241.114646 135.798041 
L 241.262944 135.837216 
L 241.262944 136.024259 
L 240.119091 135.978452 
L 241.645703 136.142093 
L 241.83653 136.299494 
L 241.83653 136.166715 
L 241.036815 136.056801 
L 244.067579 136.365511 
L 244.067579 136.351422 
L 246.750457 136.544666 
L 246.965601 136.292952 
L 246.965601 136.51494 
L 246.022535 136.517361 
L 248.213919 136.621853 
L 248.189719 136.620931 
L 251.766707 136.690203 
L 254.506754 136.473389 
L 254.625597 137.092383 
L 253.643985 136.668446 
L 253.907893 136.662469 
L 254.435708 136.697952 
L 254.435708 136.817775 
L 254.058519 136.658643 
L 254.246489 136.653938 
L 254.274337 136.596566 
L 254.309146 136.765701 
L 254.751746 137.076179 
L 254.967274 137.029552 
L 255.053485 136.852414 
L 255.053485 137.049454 
L 254.693032 137.062115 
L 255.320833 136.941988 
L 255.641948 136.881546 
L 255.722226 136.94227 
L 255.722226 136.846886 
L 262.709727 136.622612 
L 262.825501 136.723725 
L 262.825501 136.608548 
L 261.911025 136.613362 
L 264.737644 136.501104 
L 264.960235 136.443772 
L 264.960235 136.493442 
L 271.058331 136.422882 
L 270.72738 136.421797 
L 273.031914 136.442334 
L 273.119307 136.624131 
L 273.228549 136.033392 
L 272.320264 136.432859 
L 272.578222 136.43606 
L 272.994285 136.405784 
L 272.994285 136.302153 
L 272.653029 136.437075 
L 272.835633 136.416419 
L 272.918635 136.757401 
L 272.933391 137.368562 
L 272.951835 136.386102 
L 272.870037 136.414081 
L 272.790586 136.438993 
L 272.828615 136.493271 
L 272.830728 136.609302 
L 272.911582 136.20363 
L 272.930398 136.387346 
L 273.111839 135.494392 
L 272.987123 136.422151 
L 273.125696 135.627267 
L 273.125696 136.27045 
L 273.005558 136.334896 
L 273.042183 136.251813 
L 273.044217 136.138198 
L 273.032585 136.371447 
L 273.141518 136.22064 
L 273.524893 136.012589 
L 274.058629 136.143913 
L 274.37031 136.193826 
L 274.44823 136.142182 
L 274.44823 136.221051 
L 281.44134 136.323238 
L 281.915513 236.078182 
L 282.00498 236.078182 
L 282.00498 236.078182 
L 281.280123 136.319958 
L 281.320295 136.320776 
L 281.601496 136.32752 
L 281.601496 136.326734 
L 281.722011 236.078182 
L 281.922868 236.078182 
L 282.003212 83.131556 
L 282.003212 236.078182 
L 281.63908 236.078182 
L 281.789418 236.078182 
L 281.627952 136.327321 
L 281.733778 236.078182 
L 281.607935 136.326877 
L 281.706298 236.078182 
L 282.145629 236.078182 
L 282.200546 184.794716 
L 282.200546 194.055586 
L 281.765889 236.078182 
L 281.795685 236.078182 
L 282.093642 236.078182 
L 282.521256 36.841818 
L 283.376212 36.841818 
L 283.427849 49.587447 
L 283.492396 94.828619 
L 283.492396 80.968872 
L 282.985675 36.841818 
L 283.022775 36.841818 
L 283.393777 36.841818 
L 283.653478 222.765444 
L 283.343845 36.841818 
L 283.680791 189.315237 
L 283.83324 220.088628 
L 283.860343 181.226469 
L 283.89422 236.078182 
L 283.985758 236.078182 
L 284.165445 212.808661 
L 284.473214 144.062358 
L 284.503644 171.877562 
L 284.541681 111.369081 
L 284.253525 192.374255 
L 284.686947 94.09416 
L 284.711025 103.827419 
L 284.741124 85.251964 
L 284.79304 82.616226 
L 284.818998 83.682924 
L 285.000705 96.444376 
L 285.000705 94.961453 
L 285.504208 146.870002 
L 285.533502 135.861076 
L 285.57012 155.269598 
L 285.638405 157.526782 
L 285.672548 156.766114 
L 285.873612 149.311854 
L 285.911548 145.448043 
L 285.911548 149.309735 
L 285.628489 157.199003 
L 285.949521 147.190874 
L 286.396766 128.910891 
L 286.423761 132.090801 
L 286.457504 126.627698 
L 286.514532 126.159472 
L 286.543046 126.463915 
L 286.742643 129.546368 
L 286.742643 129.241986 
L 287.171796 138.727598 
L 287.368081 138.878232 
L 287.446596 135.395277 
L 287.446596 140.057585 
L 287.557752 139.464811 
L 287.743013 138.382562 
L 287.775948 138.880149 
L 287.817117 138.054284 
L 287.892049 136.544239 
L 287.929515 136.282054 
L 288.116845 136.026519 
L 288.150148 137.367407 
L 288.191777 135.337542 
L 288.278163 135.310891 
L 288.748844 137.354524 
L 288.957403 137.613275 
L 288.99448 136.805521 
L 289.040826 138.127055 
L 289.165253 138.268513 
L 289.227466 138.160214 
L 289.538533 137.942229 
L 289.662959 136.663293 
L 289.662959 137.714474 
L 289.136665 138.236012 
L 289.466776 137.906656 
L 289.52002 137.600595 
L 289.52002 137.893977 
L 289.663778 137.765236 
L 289.903374 137.977447 
L 289.999213 138.558569 
L 289.999213 137.813074 
L 290.575952 138.219147 
L 290.640034 138.059885 
L 290.720137 138.697309 
L 290.720137 138.615227 
L 290.110705 137.901101 
L 290.445183 138.214571 
L 290.494735 138.136006 
L 290.668168 138.548593 
L 291.002646 138.606779 
L 291.114138 138.356373 
L 291.114138 138.689892 
L 291.316732 138.721323 
L 291.654387 138.970108 
L 291.714415 139.298051 
L 291.789449 139.276568 
L 291.789449 138.902608 
L 292.044595 139.04017 
L 292.469837 139.050554 
L 292.545436 138.784619 
L 292.639934 138.96981 
L 292.639934 139.242026 
L 291.942284 138.982805 
L 292.400787 139.07382 
L 292.468713 138.89054 
L 292.553622 139.009472 
L 292.553622 139.220882 
L 293.164959 139.424605 
L 293.232886 139.605624 
L 293.317794 139.572453 
L 293.317794 139.388542 
L 293.570756 139.461089 
L 293.992359 139.45085 
L 294.067311 139.278696 
L 294.161001 139.339798 
L 294.161001 139.542117 
L 294.418027 139.551768 
L 294.846404 139.675892 
L 295.017755 139.90778 
L 295.017755 139.621808 
L 295.390586 139.629137 
L 296.01197 139.364065 
L 296.260524 138.176816 
L 296.260524 139.26714 
L 295.167643 139.637846 
L 295.767196 139.391581 
L 295.767196 139.586645 
L 295.139824 139.634869 
L 296.731478 139.52008 
L 297.569397 139.092982 
L 297.718361 138.693403 
L 297.904565 139.760882 
L 297.904565 139.468163 
L 296.398718 139.54608 
L 296.908695 139.459575 
L 297.078687 139.42235 
L 297.078687 139.459078 
L 298.101654 139.248305 
L 298.197985 139.348555 
L 298.67964 141.321318 
L 298.872302 149.314757 
L 298.872302 140.44314 
L 298.002559 139.267521 
L 298.283258 139.711594 
L 298.376824 140.952602 
L 298.376824 139.554648 
L 297.972383 139.273372 
L 298.162555 139.455952 
L 298.225945 139.855169 
L 298.225945 139.460353 
L 297.961361 139.275509 
L 298.141744 139.481187 
L 298.170838 139.599498 
L 298.170838 139.42553 
L 298.2419 139.473229 
L 298.590626 139.568807 
L 298.895483 139.280004 
L 299.017426 138.657652 
L 299.017426 139.321917 
L 299.185265 139.204599 
L 299.464996 139.174919 
L 299.514725 139.388454 
L 299.576888 139.356643 
L 299.576888 139.04935 
L 299.939263 139.009521 
L 300.543222 138.306731 
L 300.650592 137.753496 
L 300.784805 139.26787 
L 300.784805 138.872863 
L 299.702253 139.021915 
L 300.078349 138.901781 
L 300.134067 138.799941 
L 300.203714 138.848183 
L 300.203714 138.923216 
L 301.898545 138.245876 
L 302.466939 137.86996 
L 302.574183 137.740401 
L 302.574183 137.929681 
L 303.351661 137.552864 
L 303.438048 137.417479 
L 303.546031 137.64695 
L 303.546031 137.596469 
L 302.726516 137.873234 
L 304.359389 137.225249 
L 305.251193 136.854556 
L 305.719115 136.775677 
L 305.802301 136.986204 
L 305.906284 136.922074 
L 305.906284 136.638319 
L 306.223337 136.524109 
L 306.751759 136.186038 
L 306.963127 135.297336 
L 306.963127 136.096892 
L 306.065159 136.592574 
L 306.541783 136.343785 
L 306.700658 136.020024 
L 306.700658 136.303801 
L 307.394239 136.16203 
L 307.480936 136.224894 
L 307.480936 136.091238 
L 309.311979 135.555977 
L 310.163902 135.38453 
L 310.605476 135.240572 
L 310.782106 135.076375 
L 310.782106 135.256988 
L 311.092902 135.203748 
L 311.610894 135.239265 
L 311.818091 135.639776 
L 311.818091 135.198259 
L 310.953619 135.21957 
L 311.468158 135.212041 
L 311.639671 135.400069 
L 311.639671 135.170074 
L 312.372064 135.021091 
L 312.463613 134.919754 
L 312.463613 135.047906 
L 311.771473 135.157071 
L 312.88447 135.079092 
L 313.182363 135.03812 
L 314.417372 135.038939 
L 314.595068 135.094371 
L 314.595068 135.038732 
L 313.861767 135.016792 
L 316.401849 135.161946 
L 316.908 135.226441 
L 316.997982 135.421582 
L 317.11046 134.815931 
L 316.212891 135.144277 
L 316.270257 135.149645 
L 316.671822 135.107756 
L 316.671822 134.961958 
L 316.192783 135.142417 
L 316.240095 135.146836 
L 316.164374 135.13979 
L 316.760319 135.173501 
L 316.843952 135.01346 
L 316.885768 134.97384 
L 317.09485 134.943485 
L 317.13202 135.136137 
L 317.178483 134.822858 
L 317.340631 134.825324 
L 317.610879 134.967868 
L 317.718978 135.264949 
L 317.718978 134.9985 
L 317.271653 134.805172 
L 317.592573 135.025275 
L 317.644334 135.100221 
L 317.644334 134.953365 
L 318.016461 135.068862 
L 318.057808 134.959647 
L 318.109493 134.987192 
L 318.109493 135.147386 
L 318.706775 135.183932 
L 318.856095 134.929904 
L 318.856095 135.169455 
L 318.222885 135.170949 
L 319.130021 135.26465 
L 319.243413 135.372549 
L 319.243413 135.265062 
L 319.862173 135.354899 
L 320.016862 135.322151 
L 320.016862 135.43126 
L 320.653525 135.58346 
L 320.812691 135.692854 
L 320.812691 135.578974 
L 321.563247 135.676986 
L 321.750886 135.564554 
L 321.750886 135.752041 
L 322.117329 135.831906 
L 322.728068 136.051171 
L 322.972364 137.02201 
L 322.972364 136.228864 
L 321.90329 135.776231 
L 322.512904 135.935698 
L 325.159574 136.425358 
L 326.036651 136.559674 
L 326.487398 136.678885 
L 326.667696 136.828208 
L 326.667696 136.673389 
L 327.013081 136.720151 
L 327.588721 136.716731 
L 327.818977 136.194899 
L 327.818977 136.698183 
L 326.823162 136.701416 
L 327.67428 136.786083 
L 329.993373 137.008396 
L 332.272046 137.142421 
L 332.272046 137.087607 
L 333.435639 137.02816 
L 333.726537 136.552215 
L 333.726537 136.903571 
L 332.390517 137.089733 
L 333.041941 137.080056 
L 335.205705 137.032561 
L 335.171198 137.008024 
L 335.212692 136.921579 
L 335.264558 137.058703 
L 335.264558 137.184155 
L 334.873959 137.02273 
L 335.102566 137.011579 
L 335.273009 137.017535 
L 334.845282 137.024076 
L 335.273009 137.085058 
L 335.69177 137.394462 
L 335.916343 137.340176 
L 336.006172 137.111042 
L 336.006172 137.389461 
L 336.794474 137.174706 
L 336.886792 137.266734 
L 336.886792 137.145931 
L 337.90668 137.078648 
L 338.152943 137.082017 
L 338.959064 137.018483 
L 339.586814 136.852598 
L 339.698414 136.663435 
L 339.837914 136.923086 
L 338.725796 137.031388 
L 342.770251 136.607328 
L 342.988201 136.316217 
L 342.988201 136.572624 
L 342.053849 136.720587 
L 343.359708 136.607821 
L 343.678257 136.565631 
L 347.637823 136.330244 
L 347.852597 136.47431 
L 347.852597 136.321844 
L 346.94475 136.329611 
L 353.816272 136.267848 
L 354.594482 135.112638 
L 354.853885 102.759839 
L 354.853885 127.602871 
L 353.616014 136.262974 
L 353.645587 136.26372 
L 353.862257 136.263076 
L 353.587407 136.262278 
L 353.787138 136.362616 
L 353.790969 136.566209 
L 353.838432 136.22447 
L 354.398956 135.870813 
L 354.463736 135.935169 
L 354.463736 135.837771 
L 354.814032 135.931681 
L 355.396663 136.076139 
L 355.753051 135.992912 
L 355.895607 135.648677 
L 355.895607 136.010831 
L 355.26973 136.075007 
L 356.231221 136.026579 
L 356.158412 136.020869 
L 358.075513 136.208474 
L 358.195247 136.074685 
L 358.195247 136.121096 
L 357.241755 136.103803 
L 360.026631 136.256553 
L 361.027613 136.301388 
L 361.138705 136.251845 
L 361.138705 136.273819 
L 360.279893 136.246793 
L 371.340875 136.490888 
L 372.87091 136.475956 
L 372.967227 136.288215 
L 373.087625 136.922667 
L 372.080709 136.483187 
L 372.344759 136.480151 
L 372.035282 136.483775 
L 372.501242 136.477837 
L 372.593678 136.605939 
L 373.055858 136.450752 
L 373.240729 149.061141 
L 373.240729 138.399942 
L 372.357431 136.479658 
L 372.480617 136.931752 
L 372.498866 137.595644 
L 372.521678 136.56048 
L 372.327041 136.480043 
L 372.385735 136.486761 
L 372.417157 136.114463 
L 372.463573 136.635412 
L 372.468071 136.874716 
L 372.428244 136.46311 
L 372.564111 136.571057 
L 372.682831 137.432228 
L 372.556958 136.497241 
L 372.696816 137.297478 
L 372.696816 136.650701 
L 372.575552 136.585373 
L 372.612418 136.669137 
L 372.614467 136.783481 
L 372.594849 136.601804 
L 372.711396 136.703438 
L 373.188291 136.8822 
L 373.262099 136.78609 
L 373.262099 136.899056 
L 372.955127 136.873508 
L 373.505851 136.835848 
L 373.505851 136.819844 
L 374.049951 136.697741 
L 374.375012 136.764254 
L 374.505037 136.999502 
L 374.505037 136.754541 
L 373.932886 136.698899 
L 375.071811 136.710241 
L 375.511713 136.728103 
L 375.729897 136.708671 
L 379.546989 136.629826 
L 379.384571 136.634326 
L 381.01995 136.597407 
L 381.093717 36.841818 
L 381.528125 236.078182 
L 381.610089 36.841818 
L 381.610089 36.841818 
L 380.923727 136.599807 
L 380.949383 136.599099 
L 381.130816 36.841818 
L 380.898255 136.600442 
L 381.054996 136.596264 
L 381.068342 136.595897 
L 381.135068 36.841818 
L 381.129963 36.841818 
L 381.552525 36.841818 
L 381.552525 36.841818 
L 381.849818 236.078182 
L 382.433393 36.841818 
L 382.543502 36.841818 
L 382.543502 236.078182 
L 381.629357 75.9602 
L 381.859853 196.28206 
L 381.894001 109.246629 
L 381.936685 236.078182 
L 381.594092 43.509126 
L 382.023101 236.078182 
L 382.565388 236.078182 
L 383.189201 36.841818 
L 383.306902 60.741204 
L 383.306902 236.078182 
L 382.309014 236.078182 
L 382.861768 236.078182 
L 383.194911 36.841818 
L 383.848858 236.078182 
L 383.972244 236.078182 
L 383.972244 36.841818 
L 382.943189 196.766606 
L 382.983899 165.448048 
L 383.18745 103.037181 
L 383.223637 178.138738 
L 383.26887 139.759901 
L 383.26887 36.841818 
L 382.915898 214.326601 
L 383.342085 36.841818 
L 383.365381 49.429054 
L 383.450373 36.841818 
L 383.478309 36.841818 
L 383.642821 63.223701 
L 383.92065 130.840923 
L 383.948071 111.050876 
L 383.982347 158.950072 
L 384.067703 175.825383 
L 384.209962 185.424869 
L 384.266866 173.870516 
L 384.266866 191.212919 
L 384.318676 191.119965 
L 384.785701 144.545374 
L 384.894856 124.350501 
L 385.07678 121.575105 
L 385.14955 137.003417 
L 385.14955 115.357323 
L 384.84919 128.166102 
L 385.039658 120.228611 
L 385.067876 128.901052 
L 385.103148 115.268055 
L 385.166248 114.847682 
L 385.81678 145.015665 
L 385.998781 144.841713 
L 386.071581 138.639817 
L 386.071581 146.082191 
L 385.766326 143.813684 
L 385.942567 145.792409 
L 386.001315 143.195923 
L 386.001315 146.69784 
L 386.05795 146.4721 
L 386.547137 136.598785 
L 386.57632 138.643121 
L 386.612798 134.281429 
L 386.730827 132.946602 
L 386.927541 133.454845 
L 387.006227 136.541188 
L 387.006227 133.175226 
L 386.683601 133.212296 
L 386.719002 133.039997 
L 386.896008 133.123375 
L 386.96681 135.198948 
L 386.96681 132.911879 
L 387.250019 134.822798 
L 387.320822 134.775502 
L 387.398164 136.679265 
L 387.436835 136.898198 
L 387.630189 136.939882 
L 387.707531 135.418462 
L 387.707531 137.527522 
L 387.793121 137.434756 
L 388.049889 136.468101 
L 388.087929 136.529989 
L 388.262356 135.248314 
L 388.473817 135.081858 
L 388.51141 135.92101 
L 388.558402 134.630174 
L 388.672356 134.569198 
L 388.729333 134.678816 
L 389.064865 134.72242 
L 389.128173 135.307677 
L 389.128173 135.094117 
L 388.654941 134.578516 
L 388.944561 134.766602 
L 388.987467 134.712621 
L 389.13764 135.091296 
L 389.18591 135.105562 
L 389.427259 134.855265 
L 389.523799 134.243465 
L 389.523799 134.972039 
L 390.028279 134.605681 
L 390.084333 134.907534 
L 390.328065 134.199629 
L 390.668965 134.179651 
L 390.733286 134.272988 
L 390.733286 134.138458 
L 390.925042 134.090455 
L 391.244635 133.874781 
L 391.372472 133.569 
L 391.372472 133.878713 
L 391.618065 133.758722 
L 392.027386 133.756899 
L 392.100154 134.035576 
L 392.191114 133.9613 
L 392.191114 133.607412 
L 392.466563 133.562069 
L 392.925644 133.292277 
L 393.109276 132.820955 
L 393.109276 133.357096 
L 393.551659 133.325034 
L 394.288963 133.745266 
L 394.583885 138.942783 
L 394.583885 135.152268 
L 393.245713 133.317992 
L 393.313931 133.318734 
L 393.655023 133.349949 
L 393.79146 133.574193 
L 393.79146 133.330201 
L 394.297455 133.269416 
L 394.423953 133.147313 
L 394.423953 133.282459 
L 394.968045 133.303476 
L 395.104068 133.387068 
L 395.104068 133.282351 
L 395.924829 133.286697 
L 396.016025 133.125518 
L 396.13002 133.216854 
L 396.13002 133.379165 
L 395.261088 133.296604 
L 396.517254 133.472244 
L 396.674274 133.554537 
L 396.674274 133.481121 
L 397.655579 133.663154 
L 397.778242 133.209564 
L 397.778242 133.248607 
L 396.819484 133.512979 
L 396.892089 133.52963 
L 397.400324 133.703988 
L 397.400324 133.781526 
L 396.777925 133.503861 
L 397.296177 133.61846 
L 397.348003 133.563486 
L 397.607129 133.056245 
L 397.71078 131.40331 
L 397.71078 133.293697 
L 397.258221 133.610025 
L 397.291068 133.617473 
L 397.455304 132.986439 
L 397.484501 132.227474 
L 397.520998 133.378695 
L 397.236093 133.605108 
L 397.366793 133.634963 
L 397.386155 133.676117 
L 397.410359 133.574595 
L 397.804862 133.339642 
L 398.099313 133.613169 
L 398.217094 134.237797 
L 398.217094 133.450167 
L 398.449084 133.629082 
L 398.835736 133.537444 
L 398.904474 133.028359 
L 398.990396 133.381655 
L 398.990396 133.879352 
L 398.333357 133.526755 
L 398.682145 133.646636 
L 398.733818 133.451706 
L 398.798408 133.565998 
L 398.798408 133.814615 
L 399.315133 133.91473 
L 399.379723 133.869185 
L 399.379723 133.934233 
L 399.904119 134.164218 
L 400.035218 134.371069 
L 400.035218 134.185594 
L 400.72415 134.387992 
L 400.800698 134.214418 
L 400.896383 134.264442 
L 400.896383 134.516094 
L 401.256443 134.657093 
L 401.856545 135.103873 
L 402.096585 136.140619 
L 402.096585 135.243011 
L 401.102645 134.584408 
L 401.721432 134.976735 
L 401.927694 135.58705 
L 401.927694 135.038814 
L 402.790531 135.357002 
L 402.898386 134.62969 
L 402.898386 135.203373 
L 402.052421 135.087114 
L 402.73842 135.25561 
L 403.406831 135.586884 
L 403.793274 135.686391 
L 403.947851 135.585928 
L 403.947851 135.786195 
L 404.280165 135.914798 
L 404.834023 136.24139 
L 405.055565 136.777097 
L 405.055565 136.318288 
L 405.376305 136.367044 
L 405.91087 136.741883 
L 406.005904 136.663805 
L 406.124697 135.453369 
L 406.124697 136.36818 
L 405.175585 136.359935 
L 405.535645 136.445823 
L 405.655665 136.428906 
L 406.135745 136.629367 
L 406.255765 136.790751 
L 406.255765 136.663936 
L 406.860434 136.823981 
L 407.011601 136.729573 
L 407.011601 136.91622 
L 407.357625 137.010385 
L 407.934332 137.326983 
L 408.036857 137.770594 
L 408.165014 137.81472 
L 408.165014 137.34344 
L 408.508734 137.372351 
L 409.081601 137.424139 
L 409.310747 134.510754 
L 409.310747 136.919291 
L 408.277439 137.383431 
L 408.333652 137.380949 
L 408.664681 137.345493 
L 408.72714 137.272566 
L 408.72714 137.385742 
L 409.17684 137.498594 
L 409.289265 137.655792 
L 409.289265 137.488656 
L 409.908697 137.570636 
L 409.977523 137.430555 
L 410.284505 137.686904 
L 411.050826 137.800454 
L 411.893523 137.85926 
L 412.322797 137.938368 
L 412.494507 138.091678 
L 412.494507 137.91301 
L 412.816001 137.921362 
L 413.351826 137.859168 
L 413.566155 137.445558 
L 413.566155 137.837138 
L 412.619555 137.922163 
L 413.613014 137.915156 
L 413.73633 137.942017 
L 413.73633 137.905202 
L 415.599946 137.789867 
L 416.082008 137.71523 
L 416.167708 137.482143 
L 416.274832 138.109703 
L 415.42538 137.805815 
L 415.482715 137.800515 
L 415.388795 137.808643 
L 416.091574 137.772622 
L 416.172614 137.945248 
L 416.213134 137.981059 
L 416.415734 138.010863 
L 416.451752 137.836048 
L 416.496774 138.116863 
L 416.683865 138.101986 
L 416.995684 137.913205 
L 417.120411 137.441324 
L 417.120411 137.877652 
L 416.589984 138.131408 
L 417.335229 137.863774 
L 417.376607 137.973487 
L 417.42833 137.948296 
L 417.42833 137.787043 
L 418.069513 137.739179 
L 418.229808 138.064377 
L 418.229808 137.769908 
L 417.541463 137.764906 
L 418.446525 137.670502 
L 418.559658 137.564384 
L 418.559658 137.668302 
L 419.170778 137.577719 
L 419.323559 137.612568 
L 419.323559 137.503657 
L 419.970722 137.347808 
L 420.132513 137.240005 
L 420.132513 137.351323 
L 420.882048 137.252314 
L 421.069432 137.369569 
L 421.069432 137.17804 
L 421.460415 137.088986 
L 422.112055 136.859535 
L 422.372711 135.585157 
L 422.372711 136.573597 
L 421.22044 137.153361 
L 421.824472 136.866585 
L 421.824472 136.993831 
L 424.482636 136.49588 
L 425.360886 136.360696 
L 425.811046 136.238468 
L 425.991109 136.079495 
L 425.991109 136.244302 
L 426.340897 136.197557 
L 426.923877 136.198938 
L 427.157069 136.777945 
L 427.157069 136.232007 
L 426.143631 136.21657 
L 426.979734 136.133339 
L 429.236017 135.908561 
L 432.09076 135.828385 
L 432.917304 135.906667 
L 433.247921 136.774676 
L 433.247921 136.245118 
L 431.748124 135.821838 
L 431.82477 135.82319 
L 431.712502 135.822504 
L 434.628969 135.91086 
L 434.725999 135.781325 
L 435.21115 133.711763 
L 435.40521 124.976379 
L 435.40521 134.418925 
L 434.50028 135.904418 
L 434.725449 135.45765 
L 434.761767 135.253402 
L 434.761767 135.659392 
L 434.473289 135.903067 
L 434.492479 135.904056 
L 434.588429 135.486821 
L 434.605487 134.862104 
L 434.626809 135.834362 
L 434.46072 135.902437 
L 435.026119 135.620581 
L 435.063543 135.818472 
L 435.110322 135.50226 
L 435.2739 135.50761 
L 435.594998 135.750053 
L 435.655582 135.873669 
L 435.655582 135.66183 
L 435.191672 135.488661 
L 435.842472 135.689612 
L 435.923822 135.643111 
L 435.923822 135.746308 
L 436.114783 135.768854 
L 436.433051 135.727679 
L 436.560359 135.523102 
L 436.560359 135.738286 
L 436.023402 135.767624 
L 436.820043 135.771608 
L 436.919623 135.832872 
L 436.919623 135.752047 
L 437.716252 135.848425 
L 437.81583 136.010876 
L 437.81583 135.889581 
L 437.03876 135.762874 
L 438.867219 136.010266 
L 438.867219 135.958718 
L 439.792943 136.00782 
L 440.024374 135.915285 
L 440.024374 136.048517 
L 440.873944 136.194992 
L 441.086337 136.870782 
L 441.086337 136.296931 
L 440.143441 136.055727 
L 440.798309 136.161104 
L 441.863225 136.275625 
L 442.02527 136.330576 
L 442.02527 136.267742 
L 442.706749 136.306974 
L 442.877119 136.254889 
L 442.877119 136.341621 
L 443.655533 136.438681 
L 443.850137 136.595873 
L 443.850137 136.447217 
L 443.044278 136.352304 
L 445.423476 136.539676 
L 449.741201 136.865523 
L 449.885853 137.005031 
L 449.885853 136.768466 
L 448.720787 136.670397 
L 450.167665 136.69197 
L 453.16896 136.662598 
L 453.263867 136.468402 
L 452.490608 136.672457 
L 452.935595 136.660506 
L 453.218768 136.69549 
L 453.218768 136.805857 
L 452.855696 136.662689 
L 453.083734 136.656513 
L 453.26786 136.755264 
L 453.542278 136.991913 
L 453.739568 137.011404 
L 453.818484 136.866876 
L 453.818484 137.085324 
L 454.168016 137.008585 
L 454.322118 136.926736 
L 455.084176 136.892162 
L 455.210285 137.076572 
L 455.210285 136.895978 
L 454.666083 136.843758 
L 455.646774 136.890879 
L 455.549138 136.899592 
L 457.374806 136.78719 
L 457.374806 136.795501 
L 456.632255 136.816618 
L 461.851508 136.566503 
L 462.035595 136.531153 
L 462.035595 136.566733 
L 462.971518 136.606089 
L 463.088508 136.637873 
L 463.088508 136.545504 
L 462.195952 136.55865 
L 471.726694 136.438276 
L 471.807049 136.602087 
L 471.907493 136.061302 
L 471.107619 136.431265 
L 471.159679 136.431895 
L 472.044697 136.374311 
L 472.044697 136.237501 
L 471.581938 136.43705 
L 471.755456 136.439304 
L 471.781162 136.491885 
L 471.813295 136.336789 
L 471.550763 136.436654 
L 471.82165 136.251375 
L 471.834582 136.320323 
L 471.834275 136.412037 
L 471.947082 135.827838 
L 471.954976 136.313172 
L 471.891556 136.346058 
L 471.914435 136.24194 
L 471.917825 136.057438 
L 471.90353 136.469075 
L 471.988516 136.26963 
L 472.308913 136.038281 
L 472.602178 136.220167 
L 472.719484 136.782795 
L 472.719484 136.064614 
L 472.197193 136.100598 
L 473.091026 136.133743 
L 473.186615 136.208947 
L 473.473384 136.190129 
L 473.568974 136.090806 
L 473.568974 136.20791 
L 473.1721 136.205094 
L 480.194969 136.319637 
L 480.761034 236.078182 
L 480.867839 236.078182 
L 480.867839 236.078182 
L 480.002515 136.315917 
L 480.050474 136.316844 
L 480.482108 136.32629 
L 480.530067 236.078182 
L 480.769863 185.734349 
L 480.812494 36.841818 
L 480.865782 236.078182 
L 480.427617 136.325016 
L 480.44833 136.325513 
L 480.622972 236.078182 
L 480.407022 136.324535 
L 480.622972 236.078182 
L 480.840204 236.078182 
L 481.266623 36.841818 
L 481.347079 36.841818 
L 481.347079 100.509476 
L 480.680382 236.078182 
L 480.709088 236.078182 
L 480.996139 236.078182 
L 481.276844 36.841818 
L 482.286709 36.841818 
L 482.286709 36.841818 
L 482.625078 236.078182 
L 483.289282 36.841818 
L 483.414604 36.841818 
L 483.414604 236.078182 
L 482.369385 71.941452 
L 482.410723 104.131953 
L 482.617413 170.916452 
L 482.654158 103.700546 
L 482.700089 146.875277 
L 482.700089 236.078182 
L 482.339195 52.81388 
L 482.746668 236.078182 
L 482.768615 225.172011 
L 482.79605 226.537752 
L 482.79605 236.078182 
L 482.869945 236.078182 
L 482.993102 236.078182 
L 483.627683 82.045339 
L 483.653397 82.139951 
L 483.781966 84.783161 
L 484.027081 109.713075 
L 484.048602 108.50816 
L 484.319139 143.244167 
L 484.34621 134.671748 
L 484.380048 152.568294 
L 484.486906 157.098235 
L 484.665003 154.038725 
L 484.736242 143.073548 
L 484.736242 152.975447 
L 484.468722 156.63411 
L 484.616511 156.215242 
L 484.675627 150.665086 
L 484.734743 153.456428 
L 485.058675 134.924418 
L 485.204455 130.687954 
L 485.230372 133.744846 
L 485.262768 127.529453 
L 485.347978 126.316855 
L 485.489994 126.856815 
L 485.635683 129.314451 
L 486.131884 138.409445 
L 486.163974 135.539417 
L 486.204087 140.227412 
L 486.279684 140.556289 
L 486.317483 140.312125 
L 486.540076 138.841149 
L 486.690685 137.39375 
L 486.871702 136.669586 
L 486.903883 137.954187 
L 486.944108 135.641893 
L 487.032858 135.290764 
L 487.077232 135.359026 
L 487.299105 136.132372 
L 487.387854 137.963421 
L 487.387854 136.24038 
L 487.713751 137.334607 
L 487.749961 136.597828 
L 487.795225 136.876558 
L 487.904418 138.280635 
L 487.959015 138.271675 
L 488.231999 137.912276 
L 488.341192 136.438182 
L 488.341192 138.03094 
L 487.892374 138.249022 
L 488.18382 138.054557 
L 488.280969 137.10157 
L 488.280969 138.122226 
L 488.426692 137.944457 
L 488.669564 138.09225 
L 488.712741 138.714535 
L 488.766713 138.624777 
L 488.766713 137.815489 
L 488.964229 137.967251 
L 489.293422 138.344329 
L 489.425099 139.163056 
L 489.425099 138.546057 
L 488.876431 137.853476 
L 489.254351 138.400153 
L 489.315305 138.661982 
L 489.315305 138.396808 
L 489.479883 138.565653 
L 489.75418 138.595928 
L 489.863898 138.290288 
L 489.863898 138.745004 
L 490.090533 138.771739 
L 490.468257 139.07312 
L 490.535408 139.463596 
L 490.619347 139.282466 
L 490.619347 138.934088 
L 490.824253 139.059638 
L 491.165765 139.108001 
L 491.226478 138.916144 
L 491.302369 139.021573 
L 491.302369 139.256779 
L 491.900996 139.432915 
L 491.96751 139.553606 
L 492.050653 139.486163 
L 492.050653 139.399089 
L 492.653768 139.500218 
L 492.804546 139.497342 
L 492.804546 139.572333 
L 494.195054 139.617272 
L 494.349464 139.575722 
L 494.349464 139.64419 
L 495.738618 139.486497 
L 495.903128 139.430528 
L 495.903128 139.476774 
L 496.680709 139.349301 
L 496.767107 139.419256 
L 496.875104 139.060672 
L 496.037631 139.449968 
L 496.44114 139.376082 
L 496.575643 139.3706 
L 496.575643 139.337439 
L 496.777398 139.292589 
L 497.113655 140.574651 
L 497.173435 141.350683 
L 497.248158 139.136043 
L 497.248158 139.578079 
L 496.63856 139.323888 
L 496.670019 139.316805 
L 496.890228 139.290205 
L 496.890228 139.373929 
L 497.396725 139.585935 
L 497.716578 139.243259 
L 497.844519 138.483459 
L 497.844519 139.320566 
L 497.3199 139.60156 
L 497.665159 139.336016 
L 497.780245 138.804657 
L 497.780245 139.379323 
L 497.950132 139.254222 
L 498.233276 139.213663 
L 498.283612 139.432398 
L 498.346533 139.373848 
L 498.346533 139.069376 
L 499.589586 138.65386 
L 499.662707 138.573403 
L 499.662707 138.64319 
L 500.28017 138.429073 
L 500.434536 138.4903 
L 500.434536 138.359785 
L 501.171205 138.032604 
L 501.355373 137.800055 
L 501.355373 137.944931 
L 502.113152 137.585113 
L 502.19735 137.457884 
L 502.302597 137.602569 
L 502.302597 137.597517 
L 501.516336 137.88396 
L 503.235303 137.195193 
L 503.685794 136.930147 
L 503.865991 136.711327 
L 503.865991 136.922017 
L 504.167526 136.791145 
L 504.670085 136.742319 
L 504.871108 137.182297 
L 504.871108 136.62187 
L 505.627458 136.332149 
L 505.711496 136.144623 
L 505.816545 135.482277 
L 505.816545 136.070427 
L 504.995535 136.576326 
L 505.679885 136.221535 
L 506.346932 136.046835 
L 506.732851 135.872376 
L 506.887219 135.683981 
L 506.887219 135.86344 
L 507.241969 135.754241 
L 507.833218 135.733721 
L 507.938329 136.124773 
L 508.069718 136.177502 
L 508.069718 135.666128 
L 508.325157 135.606206 
L 508.452877 135.457828 
L 509.091475 135.681947 
L 509.205003 134.605869 
L 509.346914 130.761081 
L 509.346914 134.170052 
L 508.172826 135.64194 
L 508.224381 135.610556 
L 508.997696 135.345829 
L 509.100805 135.444091 
L 509.100805 135.296072 
L 509.681725 135.18255 
L 509.746272 135.050575 
L 509.826955 135.117538 
L 509.826955 135.232154 
L 511.238676 135.051011 
L 511.238676 135.063828 
L 512.990133 135.008342 
L 515.355561 135.167554 
L 515.298894 135.16181 
L 515.481336 134.391337 
L 515.51377 133.43121 
L 515.554313 135.051499 
L 515.23513 135.154564 
L 515.646438 134.91725 
L 515.808348 134.819807 
L 516.078199 134.976359 
L 516.186139 135.436509 
L 516.186139 134.853465 
L 516.296192 134.901367 
L 516.351218 134.940789 
L 516.62635 134.982829 
L 516.675262 134.839288 
L 516.736402 134.931259 
L 516.841758 135.135651 
L 517.722672 135.231427 
L 517.837545 135.344363 
L 517.837545 135.218081 
L 518.161967 135.303265 
L 518.702672 135.271367 
L 518.798797 135.082364 
L 518.918954 135.46199 
L 517.974896 135.249528 
L 521.261203 135.922166 
L 521.724526 135.952454 
L 521.909855 135.849293 
L 521.909855 136.030649 
L 522.233224 136.093789 
L 522.772172 136.291431 
L 522.987751 136.87288 
L 522.987751 136.35175 
L 522.067143 136.053923 
L 522.608913 136.308012 
L 522.696296 136.378277 
L 522.696296 136.213108 
L 523.385319 136.287507 
L 523.471447 136.251611 
L 523.471447 136.330105 
L 525.715451 136.684082 
L 525.884923 136.687976 
L 525.884923 136.730557 
L 526.597949 136.850329 
L 526.776205 136.946246 
L 526.776205 136.844023 
L 527.593819 136.87323 
L 527.798223 136.651766 
L 527.798223 136.90355 
L 526.952133 136.870092 
L 527.558109 136.788884 
L 527.655847 136.763607 
L 527.655847 136.913773 
L 528.413523 137.020298 
L 528.508233 137.104168 
L 528.508233 137.015766 
L 527.789549 136.925105 
L 529.763042 137.100509 
L 529.763042 137.066736 
L 532.579843 137.078532 
L 532.579843 137.072585 
L 534.020727 137.010655 
L 534.786752 140.344561 
L 534.922934 138.80175 
L 535.093161 117.654378 
L 535.093161 130.796928 
L 533.636438 137.029635 
L 533.674101 137.027754 
L 534.033763 137.023907 
L 533.608378 137.03106 
L 534.033763 137.091026 
L 534.452269 137.401015 
L 534.675633 137.34858 
L 534.764979 137.12337 
L 534.764979 137.397318 
L 535.552684 137.181165 
L 535.644826 137.273028 
L 535.644826 137.151859 
L 536.664966 137.084349 
L 536.911353 137.087702 
L 537.722953 137.02306 
L 538.358687 136.851058 
L 538.471706 136.655657 
L 538.612981 136.92584 
L 537.484548 137.036363 
L 541.508924 136.610359 
L 541.72304 136.340925 
L 541.72304 136.581628 
L 540.810153 136.722626 
L 542.133279 136.607418 
L 542.450552 136.565075 
L 546.373755 136.327612 
L 546.584226 136.456479 
L 546.584226 136.316584 
L 545.700901 136.327919 
L 552.705344 136.267745 
L 552.813604 136.119436 
L 553.354903 133.49624 
L 553.571422 121.895707 
L 553.571422 133.998112 
L 552.547434 136.264021 
L 552.576739 136.223797 
L 552.723263 136.734169 
L 552.749311 137.462367 
L 552.781872 136.159239 
L 552.502993 136.262973 
L 552.921757 136.031909 
L 553.027943 135.876322 
L 553.626848 135.933707 
L 553.703395 135.98654 
L 553.967057 135.971847 
L 554.527419 135.988433 
L 554.592148 135.927333 
L 554.592148 136.027489 
L 554.095922 136.076449 
L 555.130236 136.03642 
L 555.635252 136.181445 
L 555.730537 136.312761 
L 555.730537 136.113672 
L 554.977249 136.020705 
L 556.711517 136.137017 
L 556.711517 136.121524 
L 556.047899 136.102238 
L 561.438795 136.366245 
L 561.632619 136.451095 
L 561.632619 136.368103 
L 560.833128 136.319654 
L 564.872396 136.459322 
L 569.035139 136.493324 
L 571.194172 136.479117 
L 571.301184 136.628386 
L 571.836242 136.835721 
L 572.050266 155.939144 
L 572.050266 140.090233 
L 571.026758 136.481241 
L 571.050062 136.480993 
L 571.213193 136.493383 
L 571.002126 136.481554 
L 571.160492 136.487386 
L 571.192408 136.109797 
L 571.239563 136.638604 
L 571.34928 136.906156 
L 571.223138 136.346186 
L 571.354288 136.872348 
L 571.361071 136.427799 
L 571.391032 137.122996 
L 571.442599 136.661969 
L 571.807638 136.8973 
L 572.067942 136.794312 
L 572.172063 136.45163 
L 572.172063 136.856849 
L 571.718151 136.866016 
L 572.642748 136.774824 
L 572.642748 136.712658 
L 572.828377 136.699645 
L 573.192759 136.872663 
L 573.26151 136.942109 
L 573.26151 136.749772 
L 572.720898 136.700181 
L 573.870385 136.709091 
L 574.070958 136.733993 
L 579.826354 136.595862 
L 580.268709 36.841818 
L 580.352172 36.841818 
L 580.352172 36.841818 
L 579.675944 136.599814 
L 579.713415 136.59883 
L 579.934076 136.593755 
L 579.97571 36.841818 
L 579.97571 36.841818 
L 579.625001 136.600952 
L 579.720996 136.598661 
L 579.840988 136.595631 
L 580.155077 36.841818 
L 580.771623 236.078182 
L 580.887952 236.078182 
L 580.887952 36.841818 
L 579.886636 136.594458 
L 579.90946 136.593862 
L 580.069226 36.841818 
L 579.849038 136.595424 
L 580.042239 36.841818 
L 580.24349 36.841818 
L 580.32399 192.110052 
L 580.32399 36.841818 
L 579.940226 36.841818 
L 580.015175 36.841818 
L 579.92286 136.593521 
L 580.023865 36.841818 
L 580.023865 36.841818 
L 580.226174 36.841818 
L 580.563357 156.995331 
L 580.69823 236.078182 
L 580.69823 211.121628 
L 580.093292 36.841818 
L 580.128006 36.841818 
L 580.440428 36.841818 
L 580.718137 236.078182 
L 580.423872 36.841818 
L 580.582485 175.501706 
L 580.713433 236.078182 
L 581.73876 236.078182 
L 581.73876 236.078182 
L 582.078015 36.841818 
L 582.743959 236.078182 
L 582.869609 236.078182 
L 582.869609 36.841818 
L 581.822044 206.056118 
L 581.863686 172.388253 
L 582.071895 97.646047 
L 582.10891 153.313032 
L 582.155178 104.0056 
L 582.155178 36.841818 
L 581.788651 227.508959 
L 582.263346 36.841818 
L 582.439951 36.841818 
L 582.439951 36.841818 
L 582.659206 70.769836 
L 582.768833 155.207243 
L 583.414416 36.841818 
L 583.536224 236.078182 
L 583.536224 236.078182 
L 582.523399 44.005574 
L 582.857193 125.650287 
L 582.857193 154.575342 
L 582.483896 36.841818 
L 583.065563 186.063602 
L 583.088298 178.401867 
L 583.116718 192.887991 
L 583.167637 194.778658 
L 583.193097 193.275672 
L 583.419997 173.365445 
L 583.715221 131.449655 
L 583.882718 123.485377 
L 583.912496 136.021341 
L 583.949717 114.932202 
L 584.015686 113.225533 
L 584.048671 114.244539 
L 584.242914 121.251905 
L 584.279564 125.191877 
L 584.279564 123.009446 
L 584.00751 113.437075 
L 584.469849 132.573327 
L 584.527641 132.350413 
L 584.618853 142.119535 
L 584.770872 144.795299 
L 584.797897 141.462908 
L 584.831679 146.966662 
L 584.887199 147.285944 
L 584.914959 146.907185 
L 585.109279 143.681525 
L 585.109279 143.704163 
L 585.358198 138.228186 
L 585.385856 139.772876 
L 585.420428 135.739245 
L 585.532564 133.692841 
L 585.719458 133.370355 
L 585.794216 136.445189 
L 585.794216 132.33543 
L 585.898148 132.892003 
L 586.140657 135.150634 
L 586.253207 136.224441 
L 586.440789 136.619743 
L 586.474137 135.118741 
L 586.515822 137.484575 
L 586.606676 137.596946 
L 586.919615 135.967949 
L 586.970089 135.181969 
L 586.970089 136.021657 
L 586.597116 137.585123 
L 587.247465 135.252291 
L 587.283596 136.05748 
L 587.328759 134.641513 
L 587.454538 134.393794 
L 587.517427 134.481355 
L 587.831873 134.967247 
L 587.957651 137.067981 
L 587.957651 134.990084 
L 587.42339 134.455139 
L 587.707283 134.667321 
L 587.801914 135.375281 
L 587.801914 134.727351 
L 587.94386 134.904821 
L 588.180438 134.751445 
L 588.222496 134.147293 
L 588.275069 134.19198 
L 588.275069 134.99374 
L 588.508751 134.766153 
L 588.898222 134.424606 
L 589.05401 133.02123 
L 589.05401 134.0541 
L 588.38207 134.942995 
L 588.97058 134.232463 
L 589.238084 134.201512 
L 589.345086 134.492797 
L 589.345086 134.065779 
L 589.562513 134.045902 
L 589.924891 133.777963 
L 589.989314 133.419618 
L 590.069842 133.576083 
L 590.069842 133.906644 
L 590.612623 133.723061 
L 590.672931 133.86366 
L 590.966446 133.54695 
L 591.700207 133.400435 
L 593.220174 133.240022 
L 595.242525 133.410726 
L 595.242525 133.406602 
L 596.086357 133.542647 
L 596.191836 133.82627 
L 595.375738 133.431949 
L 595.775377 133.513717 
L 596.10841 133.510905 
L 596.441442 132.60778 
L 596.574655 129.412284 
L 596.574655 133.125232 
L 595.983124 133.566967 
L 596.020391 133.575817 
L 596.281259 133.603445 
L 596.355793 133.456368 
L 596.579394 133.398914 
L 596.61252 133.527967 
L 596.653927 133.316788 
L 596.854922 133.340665 
L 597.189912 133.674482 
L 597.323908 134.435425 
L 597.323908 133.672604 
L 596.764232 133.301231 
L 597.095146 133.540816 
L 597.205451 133.929851 
L 597.205451 133.564165 
L 597.369256 133.681546 
L 597.642265 133.725458 
L 597.6908 133.533891 
L 597.751469 133.570456 
L 597.751469 133.848286 
L 598.059601 133.895367 
L 598.573155 134.287295 
L 598.664453 134.521453 
L 598.778576 133.841727 
L 598.778576 134.05167 
L 597.87989 133.881469 
L 598.265152 134.002482 
L 598.322228 134.085845 
L 598.393572 134.026766 
L 598.393572 133.985512 
L 598.964331 134.260092 
L 599.192102 134.341477 
L 599.730902 134.428813 
L 599.817805 134.427214 
L 599.817805 134.567465 
L 600.581981 134.915585 
L 600.773025 135.184246 
L 600.773025 135.007372 
L 601.53842 135.387708 
L 601.623464 135.540721 
L 601.729769 135.341269 
L 601.729769 135.350897 
L 600.92747 135.065325 
L 602.582463 135.73553 
L 603.486509 136.122241 
L 603.962718 136.190079 
L 604.047377 135.928522 
L 604.153201 135.964237 
L 604.153201 136.328623 
L 604.47861 136.4603 
L 605.02096 136.771078 
L 605.2379 137.944265 
L 605.2379 136.956375 
L 604.298635 136.372644 
L 605.025807 136.707619 
L 606.254339 137.082671 
L 606.416037 137.235557 
L 606.416037 137.137636 
L 607.969175 137.461323 
L 608.044554 137.358033 
L 608.384816 137.585931 
L 608.794879 137.727951 
L 608.958904 137.901606 
L 608.958904 137.701567 
L 609.253786 137.757216 
L 609.745258 137.715765 
L 609.941846 137.413863 
L 609.941846 137.782579 
L 610.774654 137.907106 
L 610.982856 138.799944 
L 610.982856 138.066207 
L 610.052541 137.790238 
L 610.661361 137.90494 
L 611.64273 137.954201 
L 611.791214 137.98715 
L 611.791214 137.924937 
L 611.180744 137.92473 
L 614.040056 137.835343 
L 614.638473 137.755148 
L 614.751381 137.520714 
L 613.85669 137.852262 
L 614.275146 137.809846 
L 614.950076 137.832353 
L 614.950076 137.97981 
L 614.436249 137.794987 
L 614.483054 137.789718 
L 614.810689 137.809553 
L 614.897591 138.005097 
L 614.941042 138.040038 
L 615.158297 138.035847 
L 615.19692 137.808302 
L 615.245199 138.148272 
L 615.505343 138.064165 
L 615.938917 137.87051 
L 616.112346 136.533938 
L 616.112346 137.669339 
L 615.336699 138.147435 
L 615.839952 137.899114 
L 616.884698 137.743708 
L 616.97526 137.980253 
L 616.97526 137.783152 
L 616.273276 137.785207 
L 617.177859 137.688825 
L 617.290932 137.587584 
L 617.290932 137.680319 
L 617.876084 137.59034 
L 618.022372 137.633848 
L 618.022372 137.524459 
L 618.724085 137.349586 
L 618.899514 137.237446 
L 618.899514 137.352823 
L 619.644691 137.261557 
L 619.830985 137.431515 
L 619.830985 137.188802 
L 620.707183 136.962575 
L 620.926232 136.253106 
L 620.926232 136.813993 
L 619.969483 137.164331 
L 620.731223 136.967073 
L 621.944353 136.681271 
L 622.225648 136.674209 
L 624.370555 136.284715 
L 624.524324 136.218868 
L 624.524324 136.288066 
L 625.238186 136.214665 
L 625.416651 136.258177 
L 625.416651 136.162204 
L 626.203078 136.01327 
L 626.399685 135.787217 
L 626.399685 136.011635 
L 627.247484 136.019342 
L 627.353459 136.255519 
L 627.353459 136.005976 
L 626.519558 135.998078 
L 627.531818 135.899824 
L 627.822217 135.910681 
L 629.173782 135.807588 
L 629.381122 135.714876 
L 629.381122 135.823343 
L 630.139233 135.853123 
L 630.328761 136.111032 
L 630.328761 135.857702 
L 629.494827 135.815995 
L 632.247288 135.847975 
L 632.727389 135.869094 
L 633.286663 135.904598 
L 633.386089 136.131643 
L 633.510372 135.451889 
L 632.497774 135.85919 
L 632.550749 135.861465 
L 633.451317 135.8358 
L 633.451317 135.698289 
L 632.999728 135.882578 
L 633.2342 135.89524 
L 633.268936 135.967222 
L 633.312357 135.8604 
L 633.386562 135.686991 
L 633.609176 135.591809 
L 633.642156 135.719279 
L 633.683381 135.497084 
L 633.863548 135.482466 
L 634.163826 135.649956 
L 634.283937 136.10445 
L 634.283937 135.654198 
L 633.764249 135.472088 
L 634.649132 135.747831 
L 634.967947 135.616624 
L 635.028101 135.579946 
L 635.028101 135.739553 
L 635.12845 135.731556 
L 635.429497 135.755023 
L 635.529847 135.817658 
L 635.529847 135.733558 
L 636.259395 135.827379 
L 636.350589 135.940928 
L 636.350589 135.8557 
L 635.64962 135.744102 
L 637.832835 135.980694 
L 638.417738 135.990311 
L 638.52172 135.870996 
L 638.651699 135.893035 
L 638.651699 136.031618 
L 637.692006 135.966006 
L 639.372906 136.157561 
L 639.583018 136.534875 
L 639.583018 136.2158 
L 638.667821 136.043804 
L 639.8109 136.145968 
L 640.130447 136.203336 
L 641.600775 136.295122 
L 641.713299 136.268118 
L 641.713299 136.341233 
L 640.878161 136.283075 
L 645.981486 136.601463 
L 646.240337 136.195393 
L 646.240337 136.535534 
L 645.092212 136.601351 
L 645.894301 136.626773 
L 649.012151 136.697798 
L 651.960615 136.662267 
L 652.052299 136.487317 
L 652.166904 137.085812 
L 651.222092 136.675454 
L 651.481983 136.66961 
L 652.001766 136.704008 
L 652.001766 136.822225 
L 651.633546 136.665772 
L 651.857201 136.660118 
L 651.893275 136.604083 
L 651.893275 136.608991 
L 651.601862 136.666523 
L 651.849509 136.660448 
L 651.901447 137.172045 
L 651.865241 136.651475 
L 651.972787 136.750183 
L 652.306112 137.024704 
L 652.847496 137.02614 
L 652.997443 136.947643 
L 653.470124 136.850462 
L 653.827006 136.933522 
L 653.969758 137.279066 
L 653.969758 136.915716 
L 653.343146 136.851545 
L 654.308215 136.899116 
L 654.234408 136.905075 
L 656.120889 136.71895 
L 656.236433 136.829491 
L 656.236433 136.800439 
L 655.321902 136.821112 
L 658.977664 136.637847 
L 658.347837 136.676475 
L 659.529966 136.626803 
L 660.53188 136.580422 
L 663.302891 136.511777 
L 663.413767 136.581963 
L 663.413767 136.496144 
L 662.541676 136.496334 
L 665.520087 136.416946 
L 665.787662 136.337001 
L 665.787662 136.406284 
L 666.88761 136.295375 
L 667.009827 136.55003 
L 667.162598 137.734546 
L 667.162598 136.772751 
L 665.871668 136.405545 
L 666.3337 136.428068 
L 670.646856 136.440348 
L 670.720152 136.592696 
L 670.811773 136.095634 
L 670.057579 136.432146 
L 670.300038 136.434938 
L 670.691101 136.408113 
L 670.691101 136.309678 
L 670.353693 136.435274 
L 670.579711 136.313564 
L 670.65913 135.98423 
L 670.585456 136.412847 
L 670.672137 136.329547 
L 670.729645 135.648574 
L 670.644919 136.339002 
L 670.772786 136.227709 
L 671.116163 136.016261 
L 671.373411 136.115401 
L 671.476311 136.442488 
L 671.476311 136.061493 
L 671.027803 136.044898 
L 671.950304 136.143464 
L 671.950304 136.207573 
L 672.417305 136.174163 
L 672.534055 136.026254 
L 672.534055 136.173838 
L 672.02822 136.219456 
L 673.182943 136.211523 
L 673.383982 136.185522 
L 679.321164 136.327623 
L 679.37 236.078182 
L 679.37 236.078182 
L 678.957601 136.319343 
L 679.066099 136.322125 
L 679.351302 136.329617 
L 679.37 236.078182 
L 679.37 236.078182 
L 679.213358 136.326073 
L 679.318089 136.32886 
L 679.364232 136.330054 
L 679.37 236.078182 
L 679.321827 136.328958 
L 679.37 236.078182 
" clip-path="url(#p16ca6adf65)" style="fill: none; stroke: #800080; stroke-width: 1.5; stroke-linecap: square"/>
   </g>
   <g id="patch_3">
    <path d="M 52.94 246.04 
L 52.94 26.88 
" style="fill: none; stroke: #000000; stroke-width: 0.8; stroke-linejoin: miter; stroke-linecap: square"/>
   </g>
   <g id="patch_4">
    <path d="M 709.2 246.04 
L 709.2 26.88 
" style="fill: none; stroke: #000000; stroke-width: 0.8; stroke-linejoin: miter; stroke-linecap: square"/>
   </g>
   <g id="patch_5">
    <path d="M 52.94 246.04 
L 709.2 246.04 
" style="fill: none; stroke: #000000; stroke-width: 0.8; stroke-linejoin: miter; stroke-linecap: square"/>
   </g>
   <g id="patch_6">
    <path d="M 52.94 26.88 
L 709.2 26.88 
" style="fill: none; stroke: #000000; stroke-width: 0.8; stroke-linejoin: miter; stroke-linecap: square"/>
   </g>
   <g id="text_19">
    <!-- Control Force vs Time -->
    <g transform="translate(316.079687 20.88) scale(0.12 -0.12)">
     <defs>
      <path id="DejaVuSans-43" d="M 4122 4306 
L 4122 3641 
Q 3803 3938 3442 4084 
Q 3081 4231 2675 4231 
Q 1875 4231 1450 3742 
Q 1025 3253 1025 2328 
Q 1025 1406 1450 917 
Q 1875 428 2675 428 
Q 3081 428 3442 575 
Q 3803 722 4122 1019 
L 4122 359 
Q 3791 134 3420 21 
Q 3050 -91 2638 -91 
Q 1578 -91 968 557 
Q 359 1206 359 2328 
Q 359 3453 968 4101 
Q 1578 4750 2638 4750 
Q 3056 4750 3426 4639 
Q 3797 4528 4122 4306 
z
" transform="scale(0.015625)"/>
      <path id="DejaVuSans-6e" d="M 3513 2113 
L 3513 0 
L 2938 0 
L 2938 2094 
Q 2938 2591 2744 2837 
Q 2550 3084 2163 3084 
Q 1697 3084 1428 2787 
Q 1159 2491 1159 1978 
L 1159 0 
L 581 0 
L 581 3500 
L 1159 3500 
L 1159 2956 
Q 1366 3272 1645 3428 
Q 1925 3584 2291 3584 
Q 2894 3584 3203 3211 
Q 3513 2838 3513 2113 
z
" transform="scale(0.015625)"/>
      <path id="DejaVuSans-74" d="M 1172 4494 
L 1172 3500 
L 2356 3500 
L 2356 3053 
L 1172 3053 
L 1172 1153 
Q 1172 725 1289 603 
Q 1406 481 1766 481 
L 2356 481 
L 2356 0 
L 1766 0 
Q 1100 0 847 248 
Q 594 497 594 1153 
L 594 3053 
L 172 3053 
L 172 3500 
L 594 3500 
L 594 4494 
L 1172 4494 
z
" transform="scale(0.015625)"/>
      <path id="DejaVuSans-6c" d="M 603 4863 
L 1178 4863 
L 1178 0 
L 603 0 
L 603 4863 
z
" transform="scale(0.015625)"/>
      <path id="DejaVuSans-76" d="M 191 3500 
L 800 3500 
L 1894 563 
L 2988 3500 
L 3597 3500 
L 2284 0 
L 1503 0 
L 191 3500 
z
" transform="scale(0.015625)"/>
     </defs>
     <use xlink:href="#DejaVuSans-43"/>
     <use xlink:href="#DejaVuSans-6f" transform="translate(69.824219 0)"/>
     <use xlink:href="#DejaVuSans-6e" transform="translate(131.005859 0)"/>
     <use xlink:href="#DejaVuSans-74" transform="translate(194.384766 0)"/>
     <use xlink:href="#DejaVuSans-72" transform="translate(233.59375 0)"/>
     <use xlink:href="#DejaVuSans-6f" transform="translate(272.457031 0)"/>
     <use xlink:href="#DejaVuSans-6c" transform="translate(333.638672 0)"/>
     <use xlink:href="#DejaVuSans-20" transform="translate(361.421875 0)"/>
     <use xlink:href="#DejaVuSans-46" transform="translate(393.208984 0)"/>
     <use xlink:href="#DejaVuSans-6f" transform="translate(447.103516 0)"/>
     <use xlink:href="#DejaVuSans-72" transform="translate(508.285156 0)"/>
     <use xlink:href="#DejaVuSans-63" transform="translate(547.148438 0)"/>
     <use xlink:href="#DejaVuSans-65" transform="translate(602.128906 0)"/>
     <use xlink:href="#DejaVuSans-20" transform="translate(663.652344 0)"/>
     <use xlink:href="#DejaVuSans-76" transform="translate(695.439453 0)"/>
     <use xlink:href="#DejaVuSans-73" transform="translate(754.619141 0)"/>
     <use xlink:href="#DejaVuSans-20" transform="translate(806.71875 0)"/>
     <use xlink:href="#DejaVuSans-54" transform="translate(838.505859 0)"/>
     <use xlink:href="#DejaVuSans-69" transform="translate(896.464844 0)"/>
     <use xlink:href="#DejaVuSans-6d" transform="translate(924.248047 0)"/>
     <use xlink:href="#DejaVuSans-65" transform="translate(1021.660156 0)"/>
    </g>
   </g>
   <g id="legend_1">
    <g id="patch_7">
     <path d="M 585.4125 49.558125 
L 702.2 49.558125 
Q 704.2 49.558125 704.2 47.558125 
L 704.2 33.88 
Q 704.2 31.88 702.2 31.88 
L 585.4125 31.88 
Q 583.4125 31.88 583.4125 33.88 
L 583.4125 47.558125 
Q 583.4125 49.558125 585.4125 49.558125 
z
" style="fill: #ffffff; opacity: 0.8; stroke: #cccccc; stroke-linejoin: miter"/>
    </g>
    <g id="line2d_34">
     <path d="M 587.4125 39.978437 
L 597.4125 39.978437 
L 607.4125 39.978437 
" style="fill: none; stroke: #800080; stroke-width: 1.5; stroke-linecap: square"/>
    </g>
    <g id="text_20">
     <!-- Control Force f(t) -->
     <g transform="translate(615.4125 43.478437) scale(0.1 -0.1)">
      <defs>
       <path id="DejaVuSans-66" d="M 2375 4863 
L 2375 4384 
L 1825 4384 
Q 1516 4384 1395 4259 
Q 1275 4134 1275 3809 
L 1275 3500 
L 2222 3500 
L 2222 3053 
L 1275 3053 
L 1275 0 
L 697 0 
L 697 3053 
L 147 3053 
L 147 3500 
L 697 3500 
L 697 3744 
Q 697 4328 969 4595 
Q 1241 4863 1831 4863 
L 2375 4863 
z
" transform="scale(0.015625)"/>
       <path id="DejaVuSans-28" d="M 1984 4856 
Q 1566 4138 1362 3434 
Q 1159 2731 1159 2009 
Q 1159 1288 1364 580 
Q 1569 -128 1984 -844 
L 1484 -844 
Q 1016 -109 783 600 
Q 550 1309 550 2009 
Q 550 2706 781 3412 
Q 1013 4119 1484 4856 
L 1984 4856 
z
" transform="scale(0.015625)"/>
       <path id="DejaVuSans-29" d="M 513 4856 
L 1013 4856 
Q 1481 4119 1714 3412 
Q 1947 2706 1947 2009 
Q 1947 1309 1714 600 
Q 1481 -109 1013 -844 
L 513 -844 
Q 928 -128 1133 580 
Q 1338 1288 1338 2009 
Q 1338 2731 1133 3434 
Q 928 4138 513 4856 
z
" transform="scale(0.015625)"/>
      </defs>
      <use xlink:href="#DejaVuSans-43"/>
      <use xlink:href="#DejaVuSans-6f" transform="translate(69.824219 0)"/>
      <use xlink:href="#DejaVuSans-6e" transform="translate(131.005859 0)"/>
      <use xlink:href="#DejaVuSans-74" transform="translate(194.384766 0)"/>
      <use xlink:href="#DejaVuSans-72" transform="translate(233.59375 0)"/>
      <use xlink:href="#DejaVuSans-6f" transform="translate(272.457031 0)"/>
      <use xlink:href="#DejaVuSans-6c" transform="translate(333.638672 0)"/>
      <use xlink:href="#DejaVuSans-20" transform="translate(361.421875 0)"/>
      <use xlink:href="#DejaVuSans-46" transform="translate(393.208984 0)"/>
      <use xlink:href="#DejaVuSans-6f" transform="translate(447.103516 0)"/>
      <use xlink:href="#DejaVuSans-72" transform="translate(508.285156 0)"/>
      <use xlink:href="#DejaVuSans-63" transform="translate(547.148438 0)"/>
      <use xlink:href="#DejaVuSans-65" transform="translate(602.128906 0)"/>
      <use xlink:href="#DejaVuSans-20" transform="translate(663.652344 0)"/>
      <use xlink:href="#DejaVuSans-66" transform="translate(695.439453 0)"/>
      <use xlink:href="#DejaVuSans-28" transform="translate(730.644531 0)"/>
      <use xlink:href="#DejaVuSans-74" transform="translate(769.658203 0)"/>
      <use xlink:href="#DejaVuSans-29" transform="translate(808.867188 0)"/>
     </g>
    </g>
   </g>
  </g>
 </g>
 <defs>
  <clipPath id="p16ca6adf65">
   <rect x="52.94" y="26.88" width="656.26" height="219.16"/>
  </clipPath>
 </defs>
</svg>
