<?xml version="1.0" encoding="utf-8" standalone="no"?>
<!DOCTYPE svg PUBLIC "-//W3C//DTD SVG 1.1//EN"
  "http://www.w3.org/Graphics/SVG/1.1/DTD/svg11.dtd">
<svg xmlns:xlink="http://www.w3.org/1999/xlink" width="864pt" height="432pt" viewBox="0 0 864 432" xmlns="http://www.w3.org/2000/svg" version="1.1">
 <metadata>
  <rdf:RDF xmlns:dc="http://purl.org/dc/elements/1.1/" xmlns:cc="http://creativecommons.org/ns#" xmlns:rdf="http://www.w3.org/1999/02/22-rdf-syntax-ns#">
   <cc:Work>
    <dc:type rdf:resource="http://purl.org/dc/dcmitype/StillImage"/>
    <dc:date>2025-04-29T12:45:26.370164</dc:date>
    <dc:format>image/svg+xml</dc:format>
    <dc:creator>
     <cc:Agent>
      <dc:title>Matplotlib v3.10.1, https://matplotlib.org/</dc:title>
     </cc:Agent>
    </dc:creator>
   </cc:Work>
  </rdf:RDF>
 </metadata>
 <defs>
  <style type="text/css">*{stroke-linejoin: round; stroke-linecap: butt}</style>
 </defs>
 <g id="figure_1">
  <g id="patch_1">
   <path d="M 0 432 
L 864 432 
L 864 0 
L 0 0 
z
" style="fill: #ffffff"/>
  </g>
  <g id="axes_1">
   <g id="patch_2">
    <path d="M 56 187.48 
L 853.2 187.48 
L 853.2 26.88 
L 56 26.88 
z
" style="fill: #ffffff"/>
   </g>
   <g id="matplotlib.axis_1">
    <g id="xtick_1">
     <g id="line2d_1">
      <defs>
       <path id="m2593101d65" d="M 0 0 
L 0 3.5 
" style="stroke: #000000; stroke-width: 0.8"/>
      </defs>
      <g>
       <use xlink:href="#m2593101d65" x="92.236364" y="187.48" style="stroke: #000000; stroke-width: 0.8"/>
      </g>
     </g>
     <g id="text_1">
      <!-- 0 -->
      <g transform="translate(89.055114 202.078437) scale(0.1 -0.1)">
       <defs>
        <path id="DejaVuSans-30" d="M 2034 4250 
Q 1547 4250 1301 3770 
Q 1056 3291 1056 2328 
Q 1056 1369 1301 889 
Q 1547 409 2034 409 
Q 2525 409 2770 889 
Q 3016 1369 3016 2328 
Q 3016 3291 2770 3770 
Q 2525 4250 2034 4250 
z
M 2034 4750 
Q 2819 4750 3233 4129 
Q 3647 3509 3647 2328 
Q 3647 1150 3233 529 
Q 2819 -91 2034 -91 
Q 1250 -91 836 529 
Q 422 1150 422 2328 
Q 422 3509 836 4129 
Q 1250 4750 2034 4750 
z
" transform="scale(0.015625)"/>
       </defs>
       <use xlink:href="#DejaVuSans-30"/>
      </g>
     </g>
    </g>
    <g id="xtick_2">
     <g id="line2d_2">
      <g>
       <use xlink:href="#m2593101d65" x="213.024242" y="187.48" style="stroke: #000000; stroke-width: 0.8"/>
      </g>
     </g>
     <g id="text_2">
      <!-- 10 -->
      <g transform="translate(206.661742 202.078437) scale(0.1 -0.1)">
       <defs>
        <path id="DejaVuSans-31" d="M 794 531 
L 1825 531 
L 1825 4091 
L 703 3866 
L 703 4441 
L 1819 4666 
L 2450 4666 
L 2450 531 
L 3481 531 
L 3481 0 
L 794 0 
L 794 531 
z
" transform="scale(0.015625)"/>
       </defs>
       <use xlink:href="#DejaVuSans-31"/>
       <use xlink:href="#DejaVuSans-30" transform="translate(63.623047 0)"/>
      </g>
     </g>
    </g>
    <g id="xtick_3">
     <g id="line2d_3">
      <g>
       <use xlink:href="#m2593101d65" x="333.812121" y="187.48" style="stroke: #000000; stroke-width: 0.8"/>
      </g>
     </g>
     <g id="text_3">
      <!-- 20 -->
      <g transform="translate(327.449621 202.078437) scale(0.1 -0.1)">
       <defs>
        <path id="DejaVuSans-32" d="M 1228 531 
L 3431 531 
L 3431 0 
L 469 0 
L 469 531 
Q 828 903 1448 1529 
Q 2069 2156 2228 2338 
Q 2531 2678 2651 2914 
Q 2772 3150 2772 3378 
Q 2772 3750 2511 3984 
Q 2250 4219 1831 4219 
Q 1534 4219 1204 4116 
Q 875 4013 500 3803 
L 500 4441 
Q 881 4594 1212 4672 
Q 1544 4750 1819 4750 
Q 2544 4750 2975 4387 
Q 3406 4025 3406 3419 
Q 3406 3131 3298 2873 
Q 3191 2616 2906 2266 
Q 2828 2175 2409 1742 
Q 1991 1309 1228 531 
z
" transform="scale(0.015625)"/>
       </defs>
       <use xlink:href="#DejaVuSans-32"/>
       <use xlink:href="#DejaVuSans-30" transform="translate(63.623047 0)"/>
      </g>
     </g>
    </g>
    <g id="xtick_4">
     <g id="line2d_4">
      <g>
       <use xlink:href="#m2593101d65" x="454.6" y="187.48" style="stroke: #000000; stroke-width: 0.8"/>
      </g>
     </g>
     <g id="text_4">
      <!-- 30 -->
      <g transform="translate(448.2375 202.078437) scale(0.1 -0.1)">
       <defs>
        <path id="DejaVuSans-33" d="M 2597 2516 
Q 3050 2419 3304 2112 
Q 3559 1806 3559 1356 
Q 3559 666 3084 287 
Q 2609 -91 1734 -91 
Q 1441 -91 1130 -33 
Q 819 25 488 141 
L 488 750 
Q 750 597 1062 519 
Q 1375 441 1716 441 
Q 2309 441 2620 675 
Q 2931 909 2931 1356 
Q 2931 1769 2642 2001 
Q 2353 2234 1838 2234 
L 1294 2234 
L 1294 2753 
L 1863 2753 
Q 2328 2753 2575 2939 
Q 2822 3125 2822 3475 
Q 2822 3834 2567 4026 
Q 2313 4219 1838 4219 
Q 1578 4219 1281 4162 
Q 984 4106 628 3988 
L 628 4550 
Q 988 4650 1302 4700 
Q 1616 4750 1894 4750 
Q 2613 4750 3031 4423 
Q 3450 4097 3450 3541 
Q 3450 3153 3228 2886 
Q 3006 2619 2597 2516 
z
" transform="scale(0.015625)"/>
       </defs>
       <use xlink:href="#DejaVuSans-33"/>
       <use xlink:href="#DejaVuSans-30" transform="translate(63.623047 0)"/>
      </g>
     </g>
    </g>
    <g id="xtick_5">
     <g id="line2d_5">
      <g>
       <use xlink:href="#m2593101d65" x="575.387879" y="187.48" style="stroke: #000000; stroke-width: 0.8"/>
      </g>
     </g>
     <g id="text_5">
      <!-- 40 -->
      <g transform="translate(569.025379 202.078437) scale(0.1 -0.1)">
       <defs>
        <path id="DejaVuSans-34" d="M 2419 4116 
L 825 1625 
L 2419 1625 
L 2419 4116 
z
M 2253 4666 
L 3047 4666 
L 3047 1625 
L 3713 1625 
L 3713 1100 
L 3047 1100 
L 3047 0 
L 2419 0 
L 2419 1100 
L 313 1100 
L 313 1709 
L 2253 4666 
z
" transform="scale(0.015625)"/>
       </defs>
       <use xlink:href="#DejaVuSans-34"/>
       <use xlink:href="#DejaVuSans-30" transform="translate(63.623047 0)"/>
      </g>
     </g>
    </g>
    <g id="xtick_6">
     <g id="line2d_6">
      <g>
       <use xlink:href="#m2593101d65" x="696.175758" y="187.48" style="stroke: #000000; stroke-width: 0.8"/>
      </g>
     </g>
     <g id="text_6">
      <!-- 50 -->
      <g transform="translate(689.813258 202.078437) scale(0.1 -0.1)">
       <defs>
        <path id="DejaVuSans-35" d="M 691 4666 
L 3169 4666 
L 3169 4134 
L 1269 4134 
L 1269 2991 
Q 1406 3038 1543 3061 
Q 1681 3084 1819 3084 
Q 2600 3084 3056 2656 
Q 3513 2228 3513 1497 
Q 3513 744 3044 326 
Q 2575 -91 1722 -91 
Q 1428 -91 1123 -41 
Q 819 9 494 109 
L 494 744 
Q 775 591 1075 516 
Q 1375 441 1709 441 
Q 2250 441 2565 725 
Q 2881 1009 2881 1497 
Q 2881 1984 2565 2268 
Q 2250 2553 1709 2553 
Q 1456 2553 1204 2497 
Q 953 2441 691 2322 
L 691 4666 
z
" transform="scale(0.015625)"/>
       </defs>
       <use xlink:href="#DejaVuSans-35"/>
       <use xlink:href="#DejaVuSans-30" transform="translate(63.623047 0)"/>
      </g>
     </g>
    </g>
    <g id="xtick_7">
     <g id="line2d_7">
      <g>
       <use xlink:href="#m2593101d65" x="816.963636" y="187.48" style="stroke: #000000; stroke-width: 0.8"/>
      </g>
     </g>
     <g id="text_7">
      <!-- 60 -->
      <g transform="translate(810.601136 202.078437) scale(0.1 -0.1)">
       <defs>
        <path id="DejaVuSans-36" d="M 2113 2584 
Q 1688 2584 1439 2293 
Q 1191 2003 1191 1497 
Q 1191 994 1439 701 
Q 1688 409 2113 409 
Q 2538 409 2786 701 
Q 3034 994 3034 1497 
Q 3034 2003 2786 2293 
Q 2538 2584 2113 2584 
z
M 3366 4563 
L 3366 3988 
Q 3128 4100 2886 4159 
Q 2644 4219 2406 4219 
Q 1781 4219 1451 3797 
Q 1122 3375 1075 2522 
Q 1259 2794 1537 2939 
Q 1816 3084 2150 3084 
Q 2853 3084 3261 2657 
Q 3669 2231 3669 1497 
Q 3669 778 3244 343 
Q 2819 -91 2113 -91 
Q 1303 -91 875 529 
Q 447 1150 447 2328 
Q 447 3434 972 4092 
Q 1497 4750 2381 4750 
Q 2619 4750 2861 4703 
Q 3103 4656 3366 4563 
z
" transform="scale(0.015625)"/>
       </defs>
       <use xlink:href="#DejaVuSans-36"/>
       <use xlink:href="#DejaVuSans-30" transform="translate(63.623047 0)"/>
      </g>
     </g>
    </g>
    <g id="text_8">
     <!-- Time (s) -->
     <g transform="translate(434.271094 215.756562) scale(0.1 -0.1)">
      <defs>
       <path id="DejaVuSans-54" d="M -19 4666 
L 3928 4666 
L 3928 4134 
L 2272 4134 
L 2272 0 
L 1638 0 
L 1638 4134 
L -19 4134 
L -19 4666 
z
" transform="scale(0.015625)"/>
       <path id="DejaVuSans-69" d="M 603 3500 
L 1178 3500 
L 1178 0 
L 603 0 
L 603 3500 
z
M 603 4863 
L 1178 4863 
L 1178 4134 
L 603 4134 
L 603 4863 
z
" transform="scale(0.015625)"/>
       <path id="DejaVuSans-6d" d="M 3328 2828 
Q 3544 3216 3844 3400 
Q 4144 3584 4550 3584 
Q 5097 3584 5394 3201 
Q 5691 2819 5691 2113 
L 5691 0 
L 5113 0 
L 5113 2094 
Q 5113 2597 4934 2840 
Q 4756 3084 4391 3084 
Q 3944 3084 3684 2787 
Q 3425 2491 3425 1978 
L 3425 0 
L 2847 0 
L 2847 2094 
Q 2847 2600 2669 2842 
Q 2491 3084 2119 3084 
Q 1678 3084 1418 2786 
Q 1159 2488 1159 1978 
L 1159 0 
L 581 0 
L 581 3500 
L 1159 3500 
L 1159 2956 
Q 1356 3278 1631 3431 
Q 1906 3584 2284 3584 
Q 2666 3584 2933 3390 
Q 3200 3197 3328 2828 
z
" transform="scale(0.015625)"/>
       <path id="DejaVuSans-65" d="M 3597 1894 
L 3597 1613 
L 953 1613 
Q 991 1019 1311 708 
Q 1631 397 2203 397 
Q 2534 397 2845 478 
Q 3156 559 3463 722 
L 3463 178 
Q 3153 47 2828 -22 
Q 2503 -91 2169 -91 
Q 1331 -91 842 396 
Q 353 884 353 1716 
Q 353 2575 817 3079 
Q 1281 3584 2069 3584 
Q 2775 3584 3186 3129 
Q 3597 2675 3597 1894 
z
M 3022 2063 
Q 3016 2534 2758 2815 
Q 2500 3097 2075 3097 
Q 1594 3097 1305 2825 
Q 1016 2553 972 2059 
L 3022 2063 
z
" transform="scale(0.015625)"/>
       <path id="DejaVuSans-20" transform="scale(0.015625)"/>
       <path id="DejaVuSans-28" d="M 1984 4856 
Q 1566 4138 1362 3434 
Q 1159 2731 1159 2009 
Q 1159 1288 1364 580 
Q 1569 -128 1984 -844 
L 1484 -844 
Q 1016 -109 783 600 
Q 550 1309 550 2009 
Q 550 2706 781 3412 
Q 1013 4119 1484 4856 
L 1984 4856 
z
" transform="scale(0.015625)"/>
       <path id="DejaVuSans-73" d="M 2834 3397 
L 2834 2853 
Q 2591 2978 2328 3040 
Q 2066 3103 1784 3103 
Q 1356 3103 1142 2972 
Q 928 2841 928 2578 
Q 928 2378 1081 2264 
Q 1234 2150 1697 2047 
L 1894 2003 
Q 2506 1872 2764 1633 
Q 3022 1394 3022 966 
Q 3022 478 2636 193 
Q 2250 -91 1575 -91 
Q 1294 -91 989 -36 
Q 684 19 347 128 
L 347 722 
Q 666 556 975 473 
Q 1284 391 1588 391 
Q 1994 391 2212 530 
Q 2431 669 2431 922 
Q 2431 1156 2273 1281 
Q 2116 1406 1581 1522 
L 1381 1569 
Q 847 1681 609 1914 
Q 372 2147 372 2553 
Q 372 3047 722 3315 
Q 1072 3584 1716 3584 
Q 2034 3584 2315 3537 
Q 2597 3491 2834 3397 
z
" transform="scale(0.015625)"/>
       <path id="DejaVuSans-29" d="M 513 4856 
L 1013 4856 
Q 1481 4119 1714 3412 
Q 1947 2706 1947 2009 
Q 1947 1309 1714 600 
Q 1481 -109 1013 -844 
L 513 -844 
Q 928 -128 1133 580 
Q 1338 1288 1338 2009 
Q 1338 2731 1133 3434 
Q 928 4138 513 4856 
z
" transform="scale(0.015625)"/>
      </defs>
      <use xlink:href="#DejaVuSans-54"/>
      <use xlink:href="#DejaVuSans-69" transform="translate(57.958984 0)"/>
      <use xlink:href="#DejaVuSans-6d" transform="translate(85.742188 0)"/>
      <use xlink:href="#DejaVuSans-65" transform="translate(183.154297 0)"/>
      <use xlink:href="#DejaVuSans-20" transform="translate(244.677734 0)"/>
      <use xlink:href="#DejaVuSans-28" transform="translate(276.464844 0)"/>
      <use xlink:href="#DejaVuSans-73" transform="translate(315.478516 0)"/>
      <use xlink:href="#DejaVuSans-29" transform="translate(367.578125 0)"/>
     </g>
    </g>
   </g>
   <g id="matplotlib.axis_2">
    <g id="ytick_1">
     <g id="line2d_8">
      <defs>
       <path id="m72e167ac4d" d="M 0 0 
L -3.5 0 
" style="stroke: #000000; stroke-width: 0.8"/>
      </defs>
      <g>
       <use xlink:href="#m72e167ac4d" x="56" y="174.413148" style="stroke: #000000; stroke-width: 0.8"/>
      </g>
     </g>
     <g id="text_9">
      <!-- −0.4 -->
      <g transform="translate(24.717187 178.212367) scale(0.1 -0.1)">
       <defs>
        <path id="DejaVuSans-2212" d="M 678 2272 
L 4684 2272 
L 4684 1741 
L 678 1741 
L 678 2272 
z
" transform="scale(0.015625)"/>
        <path id="DejaVuSans-2e" d="M 684 794 
L 1344 794 
L 1344 0 
L 684 0 
L 684 794 
z
" transform="scale(0.015625)"/>
       </defs>
       <use xlink:href="#DejaVuSans-2212"/>
       <use xlink:href="#DejaVuSans-30" transform="translate(83.789062 0)"/>
       <use xlink:href="#DejaVuSans-2e" transform="translate(147.412109 0)"/>
       <use xlink:href="#DejaVuSans-34" transform="translate(179.199219 0)"/>
      </g>
     </g>
    </g>
    <g id="ytick_2">
     <g id="line2d_9">
      <g>
       <use xlink:href="#m72e167ac4d" x="56" y="144.046467" style="stroke: #000000; stroke-width: 0.8"/>
      </g>
     </g>
     <g id="text_10">
      <!-- −0.2 -->
      <g transform="translate(24.717187 147.845685) scale(0.1 -0.1)">
       <use xlink:href="#DejaVuSans-2212"/>
       <use xlink:href="#DejaVuSans-30" transform="translate(83.789062 0)"/>
       <use xlink:href="#DejaVuSans-2e" transform="translate(147.412109 0)"/>
       <use xlink:href="#DejaVuSans-32" transform="translate(179.199219 0)"/>
      </g>
     </g>
    </g>
    <g id="ytick_3">
     <g id="line2d_10">
      <g>
       <use xlink:href="#m72e167ac4d" x="56" y="113.679785" style="stroke: #000000; stroke-width: 0.8"/>
      </g>
     </g>
     <g id="text_11">
      <!-- 0.0 -->
      <g transform="translate(33.096875 117.479004) scale(0.1 -0.1)">
       <use xlink:href="#DejaVuSans-30"/>
       <use xlink:href="#DejaVuSans-2e" transform="translate(63.623047 0)"/>
       <use xlink:href="#DejaVuSans-30" transform="translate(95.410156 0)"/>
      </g>
     </g>
    </g>
    <g id="ytick_4">
     <g id="line2d_11">
      <g>
       <use xlink:href="#m72e167ac4d" x="56" y="83.313104" style="stroke: #000000; stroke-width: 0.8"/>
      </g>
     </g>
     <g id="text_12">
      <!-- 0.2 -->
      <g transform="translate(33.096875 87.112323) scale(0.1 -0.1)">
       <use xlink:href="#DejaVuSans-30"/>
       <use xlink:href="#DejaVuSans-2e" transform="translate(63.623047 0)"/>
       <use xlink:href="#DejaVuSans-32" transform="translate(95.410156 0)"/>
      </g>
     </g>
    </g>
    <g id="ytick_5">
     <g id="line2d_12">
      <g>
       <use xlink:href="#m72e167ac4d" x="56" y="52.946423" style="stroke: #000000; stroke-width: 0.8"/>
      </g>
     </g>
     <g id="text_13">
      <!-- 0.4 -->
      <g transform="translate(33.096875 56.745642) scale(0.1 -0.1)">
       <use xlink:href="#DejaVuSans-30"/>
       <use xlink:href="#DejaVuSans-2e" transform="translate(63.623047 0)"/>
       <use xlink:href="#DejaVuSans-34" transform="translate(95.410156 0)"/>
      </g>
     </g>
    </g>
    <g id="text_14">
     <!-- Angle (rad) -->
     <g transform="translate(18.6375 135.193281) rotate(-90) scale(0.1 -0.1)">
      <defs>
       <path id="DejaVuSans-41" d="M 2188 4044 
L 1331 1722 
L 3047 1722 
L 2188 4044 
z
M 1831 4666 
L 2547 4666 
L 4325 0 
L 3669 0 
L 3244 1197 
L 1141 1197 
L 716 0 
L 50 0 
L 1831 4666 
z
" transform="scale(0.015625)"/>
       <path id="DejaVuSans-6e" d="M 3513 2113 
L 3513 0 
L 2938 0 
L 2938 2094 
Q 2938 2591 2744 2837 
Q 2550 3084 2163 3084 
Q 1697 3084 1428 2787 
Q 1159 2491 1159 1978 
L 1159 0 
L 581 0 
L 581 3500 
L 1159 3500 
L 1159 2956 
Q 1366 3272 1645 3428 
Q 1925 3584 2291 3584 
Q 2894 3584 3203 3211 
Q 3513 2838 3513 2113 
z
" transform="scale(0.015625)"/>
       <path id="DejaVuSans-67" d="M 2906 1791 
Q 2906 2416 2648 2759 
Q 2391 3103 1925 3103 
Q 1463 3103 1205 2759 
Q 947 2416 947 1791 
Q 947 1169 1205 825 
Q 1463 481 1925 481 
Q 2391 481 2648 825 
Q 2906 1169 2906 1791 
z
M 3481 434 
Q 3481 -459 3084 -895 
Q 2688 -1331 1869 -1331 
Q 1566 -1331 1297 -1286 
Q 1028 -1241 775 -1147 
L 775 -588 
Q 1028 -725 1275 -790 
Q 1522 -856 1778 -856 
Q 2344 -856 2625 -561 
Q 2906 -266 2906 331 
L 2906 616 
Q 2728 306 2450 153 
Q 2172 0 1784 0 
Q 1141 0 747 490 
Q 353 981 353 1791 
Q 353 2603 747 3093 
Q 1141 3584 1784 3584 
Q 2172 3584 2450 3431 
Q 2728 3278 2906 2969 
L 2906 3500 
L 3481 3500 
L 3481 434 
z
" transform="scale(0.015625)"/>
       <path id="DejaVuSans-6c" d="M 603 4863 
L 1178 4863 
L 1178 0 
L 603 0 
L 603 4863 
z
" transform="scale(0.015625)"/>
       <path id="DejaVuSans-72" d="M 2631 2963 
Q 2534 3019 2420 3045 
Q 2306 3072 2169 3072 
Q 1681 3072 1420 2755 
Q 1159 2438 1159 1844 
L 1159 0 
L 581 0 
L 581 3500 
L 1159 3500 
L 1159 2956 
Q 1341 3275 1631 3429 
Q 1922 3584 2338 3584 
Q 2397 3584 2469 3576 
Q 2541 3569 2628 3553 
L 2631 2963 
z
" transform="scale(0.015625)"/>
       <path id="DejaVuSans-61" d="M 2194 1759 
Q 1497 1759 1228 1600 
Q 959 1441 959 1056 
Q 959 750 1161 570 
Q 1363 391 1709 391 
Q 2188 391 2477 730 
Q 2766 1069 2766 1631 
L 2766 1759 
L 2194 1759 
z
M 3341 1997 
L 3341 0 
L 2766 0 
L 2766 531 
Q 2569 213 2275 61 
Q 1981 -91 1556 -91 
Q 1019 -91 701 211 
Q 384 513 384 1019 
Q 384 1609 779 1909 
Q 1175 2209 1959 2209 
L 2766 2209 
L 2766 2266 
Q 2766 2663 2505 2880 
Q 2244 3097 1772 3097 
Q 1472 3097 1187 3025 
Q 903 2953 641 2809 
L 641 3341 
Q 956 3463 1253 3523 
Q 1550 3584 1831 3584 
Q 2591 3584 2966 3190 
Q 3341 2797 3341 1997 
z
" transform="scale(0.015625)"/>
       <path id="DejaVuSans-64" d="M 2906 2969 
L 2906 4863 
L 3481 4863 
L 3481 0 
L 2906 0 
L 2906 525 
Q 2725 213 2448 61 
Q 2172 -91 1784 -91 
Q 1150 -91 751 415 
Q 353 922 353 1747 
Q 353 2572 751 3078 
Q 1150 3584 1784 3584 
Q 2172 3584 2448 3432 
Q 2725 3281 2906 2969 
z
M 947 1747 
Q 947 1113 1208 752 
Q 1469 391 1925 391 
Q 2381 391 2643 752 
Q 2906 1113 2906 1747 
Q 2906 2381 2643 2742 
Q 2381 3103 1925 3103 
Q 1469 3103 1208 2742 
Q 947 2381 947 1747 
z
" transform="scale(0.015625)"/>
      </defs>
      <use xlink:href="#DejaVuSans-41"/>
      <use xlink:href="#DejaVuSans-6e" transform="translate(68.408203 0)"/>
      <use xlink:href="#DejaVuSans-67" transform="translate(131.787109 0)"/>
      <use xlink:href="#DejaVuSans-6c" transform="translate(195.263672 0)"/>
      <use xlink:href="#DejaVuSans-65" transform="translate(223.046875 0)"/>
      <use xlink:href="#DejaVuSans-20" transform="translate(284.570312 0)"/>
      <use xlink:href="#DejaVuSans-28" transform="translate(316.357422 0)"/>
      <use xlink:href="#DejaVuSans-72" transform="translate(355.371094 0)"/>
      <use xlink:href="#DejaVuSans-61" transform="translate(396.484375 0)"/>
      <use xlink:href="#DejaVuSans-64" transform="translate(457.763672 0)"/>
      <use xlink:href="#DejaVuSans-29" transform="translate(521.240234 0)"/>
     </g>
    </g>
   </g>
   <g id="line2d_13">
    <path d="M 92.236364 34.18 
L 92.357172 34.810117 
L 92.598788 39.867648 
L 92.961212 57.22626 
L 93.323636 87.112767 
L 94.048484 152.53646 
L 94.410908 165.769332 
L 94.531716 167.258855 
L 94.652524 167.31748 
L 94.773332 165.95183 
L 95.014948 158.932524 
L 95.377372 137.460601 
L 95.860604 106.119607 
L 96.10222 99.533961 
L 96.223028 98.643777 
L 96.343836 99.340546 
L 96.585452 105.459646 
L 97.189492 127.462399 
L 97.3103 128.811757 
L 97.431108 128.864721 
L 97.672724 126.129519 
L 98.155956 118.583908 
L 98.397572 117.432568 
L 98.51838 117.650121 
L 98.759996 119.117456 
L 99.243228 122.312676 
L 99.484844 122.708976 
L 99.72646 122.323672 
L 100.330501 120.815643 
L 100.572117 120.74908 
L 100.934541 121.123814 
L 101.296965 121.499349 
L 101.538581 121.553642 
L 101.901005 121.373104 
L 102.625853 120.959481 
L 103.954741 120.618739 
L 105.766861 119.636461 
L 107.820597 118.208772 
L 111.444838 115.332064 
L 114.34423 113.147252 
L 116.397966 111.858825 
L 118.210087 110.970389 
L 119.901399 110.381349 
L 121.592711 110.033236 
L 123.284023 109.920499 
L 124.975335 110.025031 
L 127.270688 110.417653 
L 129.807656 111.220291 
L 134.39836 112.997627 
L 138.022601 114.286972 
L 140.559569 114.958087 
L 142.854921 115.348323 
L 145.271082 115.523978 
L 147.687242 115.474388 
L 150.707442 115.179355 
L 155.781379 114.261713 
L 161.338547 113.274346 
L 164.721172 112.901303 
L 167.982988 112.761022 
L 171.607228 112.837795 
L 174.748237 113.029986 
L 188.157926 114.103154 
L 192.748631 114.135899 
L 199.272264 113.928469 
L 210.749025 113.457497 
L 213.044377 113.450659 
L 213.165185 114.493461 
L 213.406801 121.409645 
L 213.769225 143.765142 
L 214.252457 172.964235 
L 214.494073 179.146421 
L 214.614881 180.18 
L 214.735689 179.861224 
L 214.977305 175.214789 
L 215.218921 164.945273 
L 215.943769 126.967232 
L 216.064577 125.272592 
L 216.185385 125.232317 
L 216.427001 128.969059 
L 216.910234 137.475005 
L 217.031042 137.80815 
L 217.15185 137.261572 
L 217.393466 134.101167 
L 217.997506 124.24959 
L 218.239122 122.481263 
L 218.480738 121.888469 
L 218.843162 121.519269 
L 219.084778 120.743664 
L 219.447202 118.471541 
L 220.292858 112.495523 
L 222.58821 101.350637 
L 224.158714 95.084093 
L 225.245986 91.601764 
L 226.333259 88.850622 
L 227.178915 87.256177 
L 228.024571 86.117008 
L 228.749419 85.51065 
L 229.353459 85.252315 
L 229.957499 85.213069 
L 230.561539 85.388187 
L 231.286387 85.860353 
L 232.011235 86.604717 
L 232.977699 87.971433 
L 233.944163 89.712927 
L 235.273052 92.694906 
L 236.843556 96.812402 
L 239.259716 103.844651 
L 242.64234 113.620246 
L 244.454461 118.18857 
L 245.904157 121.289847 
L 247.233045 123.623879 
L 248.441125 125.280927 
L 249.407589 126.279069 
L 250.374053 126.989958 
L 251.219709 127.372236 
L 252.065365 127.542163 
L 252.911022 127.505744 
L 253.877486 127.227896 
L 254.84395 126.717385 
L 256.172838 125.725061 
L 257.380918 124.471233 
L 258.951422 122.558466 
L 261.367582 119.185072 
L 265.837479 112.930839 
L 267.649599 110.817406 
L 269.220103 109.314571 
L 270.548991 108.316195 
L 271.87788 107.580094 
L 273.206768 107.113838 
L 274.414848 106.919282 
L 275.622928 106.931078 
L 276.951816 107.164066 
L 278.643128 107.711267 
L 279.851209 108.315847 
L 281.904945 109.549823 
L 285.166761 111.826818 
L 288.549386 114.107913 
L 290.72393 115.317173 
L 292.656858 116.138802 
L 294.468978 116.665562 
L 296.281098 116.947887 
L 298.093219 116.994974 
L 300.026147 116.811541 
L 302.442307 116.328924 
L 305.341699 115.445365 
L 313.073412 112.938991 
L 315.610381 112.409601 
L 318.147349 112.111478 
L 320.684317 112.044178 
L 323.946133 112.212442 
L 325.99987 112.485307 
L 330.348958 113.21431 
L 333.731583 113.777021 
L 333.852391 113.703767 
L 333.973199 112.370715 
L 334.214815 104.867162 
L 334.577239 82.070777 
L 335.060471 54.640403 
L 335.302087 49.374016 
L 335.422895 48.80331 
L 335.543703 49.590967 
L 335.785319 55.254123 
L 336.147743 73.738023 
L 336.630975 96.974416 
L 336.872591 99.434435 
L 336.993399 98.501391 
L 337.718247 88.868016 
L 337.839055 89.288669 
L 338.080671 92.038615 
L 338.805519 102.374001 
L 339.047135 103.619108 
L 339.409559 104.251791 
L 339.651175 104.803987 
L 340.013599 106.625525 
L 341.342487 115.183775 
L 342.550568 121.256686 
L 343.63784 126.337311 
L 345.208344 132.524452 
L 346.295616 135.917036 
L 347.26208 138.318587 
L 348.228544 140.107201 
L 348.953392 141.05685 
L 349.67824 141.665776 
L 350.28228 141.933444 
L 350.88632 141.976454 
L 351.490361 141.808539 
L 352.215209 141.346974 
L 352.940057 140.612776 
L 353.906521 139.262769 
L 354.872985 137.540052 
L 356.201873 134.582973 
L 357.772377 130.497049 
L 360.188537 123.511196 
L 363.571162 113.788135 
L 365.383282 109.241894 
L 366.832978 106.151851 
L 368.161866 103.826001 
L 369.369947 102.169957 
L 370.336411 101.173021 
L 371.302875 100.460299 
L 372.269339 100.038389 
L 373.114995 99.894177 
L 373.960651 99.954577 
L 374.927115 100.255528 
L 375.893579 100.786706 
L 377.222467 101.799887 
L 378.430548 103.066816 
L 380.001052 104.986933 
L 382.53802 108.527353 
L 386.645492 114.247509 
L 388.457613 116.376145 
L 390.028117 117.89865 
L 391.477813 118.99954 
L 392.806701 119.734329 
L 394.135589 120.201687 
L 395.343669 120.398709 
L 396.55175 120.389813 
L 397.880638 120.161519 
L 399.57195 119.620514 
L 400.78003 119.022447 
L 402.833766 117.798002 
L 406.216391 115.449811 
L 409.478207 113.266303 
L 411.652751 112.062352 
L 413.585679 111.241946 
L 415.3978 110.716142 
L 417.20992 110.432831 
L 419.02204 110.383617 
L 420.954968 110.563715 
L 423.371129 111.040457 
L 426.512137 111.999463 
L 433.63981 114.31882 
L 436.297586 114.898645 
L 438.834554 115.219293 
L 441.371523 115.309007 
L 444.150107 115.171031 
L 446.566267 114.918176 
L 450.069699 114.356409 
L 454.539596 113.60459 
L 454.660404 113.787943 
L 454.781212 115.383986 
L 455.022828 123.413454 
L 455.385252 146.92882 
L 455.747676 169.253267 
L 456.1101 178.78324 
L 456.230908 179.207998 
L 456.351716 178.279326 
L 456.593332 172.343938 
L 456.955756 153.38289 
L 457.438988 129.483067 
L 457.680604 126.833971 
L 457.801412 127.742696 
L 458.52626 137.995651 
L 458.647068 137.63501 
L 458.888684 134.893336 
L 459.613533 124.244909 
L 459.855149 122.960722 
L 460.217573 122.355305 
L 460.459189 121.843651 
L 460.821613 120.049719 
L 462.150501 111.42399 
L 463.237773 106.013934 
L 464.325045 100.826881 
L 465.895549 94.605098 
L 466.982821 91.191165 
L 467.949285 88.771199 
L 468.794942 87.17046 
L 469.640598 86.017397 
L 470.365446 85.412811 
L 470.969486 85.149864 
L 471.573526 85.108336 
L 472.177566 85.282681 
L 472.902414 85.754901 
L 473.627262 86.500607 
L 474.593726 87.873445 
L 475.56019 89.614271 
L 476.889078 92.607928 
L 478.459583 96.738449 
L 480.875743 103.793865 
L 484.379175 113.938958 
L 486.191296 118.47602 
L 487.7618 121.782329 
L 488.96988 123.83386 
L 490.057152 125.31763 
L 491.144424 126.427925 
L 492.110888 127.101732 
L 493.077352 127.492723 
L 493.923008 127.601699 
L 494.768664 127.510491 
L 495.735129 127.172008 
L 496.822401 126.519896 
L 498.151289 125.42573 
L 499.721793 123.672883 
L 501.533913 121.286233 
L 505.641386 115.366758 
L 507.81593 112.47977 
L 509.62805 110.432471 
L 511.198554 109.002036 
L 512.527442 108.070543 
L 513.856331 107.406227 
L 515.064411 107.035146 
L 516.272491 106.88062 
L 517.601379 106.947948 
L 518.930267 107.24003 
L 520.742387 107.906458 
L 522.916932 109.139058 
L 525.816324 111.125654 
L 530.407028 114.253601 
L 532.460765 115.378934 
L 534.393693 116.188931 
L 536.205813 116.701991 
L 538.017933 116.969703 
L 539.830053 117.002407 
L 541.762982 116.8049 
L 544.179142 116.307448 
L 547.078534 115.412372 
L 554.568631 112.968162 
L 557.105599 112.426315 
L 559.642568 112.11509 
L 562.058728 112.035194 
L 564.837312 112.175242 
L 567.132665 112.416088 
L 570.636097 112.978266 
L 575.347609 113.776505 
L 575.468417 113.434133 
L 575.710033 108.085561 
L 575.95165 96.263143 
L 576.676498 52.874147 
L 576.918114 48.411457 
L 577.038922 48.233335 
L 577.15973 49.409002 
L 577.401346 55.845153 
L 577.76377 75.401462 
L 578.126194 94.900305 
L 578.36781 100.249322 
L 578.488618 100.442765 
L 578.730234 97.225433 
L 579.213466 89.614387 
L 579.334274 89.333431 
L 579.455082 89.866077 
L 579.696698 92.841587 
L 580.421546 103.298544 
L 580.663162 104.462013 
L 581.38801 106.061581 
L 581.750434 108.321711 
L 582.716898 114.886037 
L 585.857907 129.630275 
L 587.065987 134.042874 
L 588.153259 137.202596 
L 589.119723 139.369756 
L 589.965379 140.766614 
L 590.690227 141.593875 
L 591.415075 142.08511 
L 592.019115 142.250334 
L 592.623155 142.195106 
L 593.227195 141.93289 
L 593.952044 141.359451 
L 594.7977 140.354513 
L 595.884972 138.63312 
L 596.851436 136.658321 
L 598.301132 133.170788 
L 600.23406 127.797107 
L 605.912037 111.465456 
L 607.482541 107.753058 
L 608.811429 105.10908 
L 610.140317 102.95481 
L 611.227589 101.611401 
L 612.194054 100.720076 
L 613.160518 100.124956 
L 614.006174 99.836996 
L 614.85183 99.761419 
L 615.697486 99.886235 
L 616.66395 100.25967 
L 617.751222 100.946122 
L 618.959302 101.959577 
L 620.529806 103.715139 
L 622.341927 106.105781 
L 629.469599 115.905803 
L 631.040104 117.535525 
L 632.4898 118.741463 
L 633.939496 119.635845 
L 635.268384 120.172542 
L 636.476464 120.429073 
L 637.684544 120.475662 
L 639.013433 120.299517 
L 640.463129 119.870262 
L 641.671209 119.378312 
L 643.966561 118.049767 
L 647.107569 115.872963 
L 650.973426 113.239481 
L 653.14797 112.028867 
L 655.080898 111.205812 
L 656.893019 110.679977 
L 658.705139 110.398947 
L 660.517259 110.35389 
L 662.450187 110.539989 
L 664.866347 111.026147 
L 667.76574 111.914132 
L 675.497453 114.427851 
L 678.155229 114.97642 
L 680.692197 115.263422 
L 683.229165 115.318315 
L 686.490982 115.140494 
L 689.148758 114.764189 
L 696.155623 113.579677 
L 696.276431 114.132573 
L 696.518047 120.038107 
L 696.880471 141.000717 
L 697.363703 171.507712 
L 697.605319 178.489445 
L 697.726127 179.910865 
L 697.846935 179.975782 
L 697.967743 178.692651 
L 698.209359 172.055269 
L 698.571783 152.110423 
L 698.934207 131.81198 
L 699.175823 125.914191 
L 699.296631 125.42631 
L 699.417439 126.426609 
L 700.142287 137.336374 
L 700.263095 136.972831 
L 700.504711 134.138609 
L 701.229559 123.170416 
L 701.471175 121.894388 
L 701.8336 121.353206 
L 702.075216 120.870604 
L 702.316832 119.820839 
L 702.800064 116.344299 
L 703.524912 111.549692 
L 706.424304 97.875531 
L 707.753192 92.941125 
L 708.840464 89.778514 
L 709.806928 87.605467 
L 710.652585 86.217808 
L 711.377433 85.397505 
L 712.102281 84.919961 
L 712.706321 84.768299 
L 713.310361 84.837556 
L 713.914401 85.117544 
L 714.639249 85.713819 
L 715.484905 86.747292 
L 716.572177 88.510599 
L 717.538641 90.521137 
L 718.988337 94.067578 
L 720.921266 99.517496 
L 726.478434 115.71419 
L 728.048938 119.500603 
L 729.377827 122.21134 
L 730.585907 124.235638 
L 731.793987 125.80852 
L 732.760451 126.724385 
L 733.726915 127.357938 
L 734.572571 127.666783 
L 735.418227 127.763844 
L 736.263883 127.655639 
L 737.230347 127.297515 
L 738.31762 126.621867 
L 739.5257 125.616955 
L 741.096204 123.858003 
L 742.908324 121.45346 
L 746.411757 116.335913 
L 748.948725 112.842771 
L 750.760845 110.7093 
L 752.331349 109.197008 
L 753.660237 108.194905 
L 754.989125 107.459815 
L 756.318014 106.99846 
L 757.526094 106.812731 
L 758.734174 106.833952 
L 760.063062 107.080875 
L 761.754374 107.642541 
L 763.324878 108.467826 
L 765.257807 109.6903 
L 769.123663 112.448656 
L 772.023055 114.374256 
L 774.076792 115.488565 
L 776.00972 116.281915 
L 777.82184 116.775312 
L 779.513152 117.012437 
L 781.325272 117.037425 
L 783.258201 116.830144 
L 785.674361 116.319514 
L 788.332137 115.492362 
L 796.184658 112.912196 
L 798.721626 112.38072 
L 801.137787 112.091708 
L 803.795563 112.020988 
L 807.057379 112.195286 
L 809.352732 112.512584 
L 816.963636 113.806177 
L 816.963636 113.806177 
" clip-path="url(#pd4ca71c7d1)" style="fill: none; stroke: #1f77b4; stroke-width: 1.5; stroke-linecap: square"/>
   </g>
   <g id="LineCollection_1">
    <path d="M 92.236364 113.679785 
L 816.963636 113.679785 
" clip-path="url(#pd4ca71c7d1)" style="fill: none; stroke: #ff0000; stroke-width: 1.5"/>
   </g>
   <g id="patch_3">
    <path d="M 56 187.48 
L 56 26.88 
" style="fill: none; stroke: #000000; stroke-width: 0.8; stroke-linejoin: miter; stroke-linecap: square"/>
   </g>
   <g id="patch_4">
    <path d="M 853.2 187.48 
L 853.2 26.88 
" style="fill: none; stroke: #000000; stroke-width: 0.8; stroke-linejoin: miter; stroke-linecap: square"/>
   </g>
   <g id="patch_5">
    <path d="M 56 187.48 
L 853.2 187.48 
" style="fill: none; stroke: #000000; stroke-width: 0.8; stroke-linejoin: miter; stroke-linecap: square"/>
   </g>
   <g id="patch_6">
    <path d="M 56 26.88 
L 853.2 26.88 
" style="fill: none; stroke: #000000; stroke-width: 0.8; stroke-linejoin: miter; stroke-linecap: square"/>
   </g>
   <g id="text_15">
    <!-- Inverted Pendulum on a Cart : System States -->
    <g transform="translate(319.057188 20.88) scale(0.12 -0.12)">
     <defs>
      <path id="DejaVuSans-49" d="M 628 4666 
L 1259 4666 
L 1259 0 
L 628 0 
L 628 4666 
z
" transform="scale(0.015625)"/>
      <path id="DejaVuSans-76" d="M 191 3500 
L 800 3500 
L 1894 563 
L 2988 3500 
L 3597 3500 
L 2284 0 
L 1503 0 
L 191 3500 
z
" transform="scale(0.015625)"/>
      <path id="DejaVuSans-74" d="M 1172 4494 
L 1172 3500 
L 2356 3500 
L 2356 3053 
L 1172 3053 
L 1172 1153 
Q 1172 725 1289 603 
Q 1406 481 1766 481 
L 2356 481 
L 2356 0 
L 1766 0 
Q 1100 0 847 248 
Q 594 497 594 1153 
L 594 3053 
L 172 3053 
L 172 3500 
L 594 3500 
L 594 4494 
L 1172 4494 
z
" transform="scale(0.015625)"/>
      <path id="DejaVuSans-50" d="M 1259 4147 
L 1259 2394 
L 2053 2394 
Q 2494 2394 2734 2622 
Q 2975 2850 2975 3272 
Q 2975 3691 2734 3919 
Q 2494 4147 2053 4147 
L 1259 4147 
z
M 628 4666 
L 2053 4666 
Q 2838 4666 3239 4311 
Q 3641 3956 3641 3272 
Q 3641 2581 3239 2228 
Q 2838 1875 2053 1875 
L 1259 1875 
L 1259 0 
L 628 0 
L 628 4666 
z
" transform="scale(0.015625)"/>
      <path id="DejaVuSans-75" d="M 544 1381 
L 544 3500 
L 1119 3500 
L 1119 1403 
Q 1119 906 1312 657 
Q 1506 409 1894 409 
Q 2359 409 2629 706 
Q 2900 1003 2900 1516 
L 2900 3500 
L 3475 3500 
L 3475 0 
L 2900 0 
L 2900 538 
Q 2691 219 2414 64 
Q 2138 -91 1772 -91 
Q 1169 -91 856 284 
Q 544 659 544 1381 
z
M 1991 3584 
L 1991 3584 
z
" transform="scale(0.015625)"/>
      <path id="DejaVuSans-6f" d="M 1959 3097 
Q 1497 3097 1228 2736 
Q 959 2375 959 1747 
Q 959 1119 1226 758 
Q 1494 397 1959 397 
Q 2419 397 2687 759 
Q 2956 1122 2956 1747 
Q 2956 2369 2687 2733 
Q 2419 3097 1959 3097 
z
M 1959 3584 
Q 2709 3584 3137 3096 
Q 3566 2609 3566 1747 
Q 3566 888 3137 398 
Q 2709 -91 1959 -91 
Q 1206 -91 779 398 
Q 353 888 353 1747 
Q 353 2609 779 3096 
Q 1206 3584 1959 3584 
z
" transform="scale(0.015625)"/>
      <path id="DejaVuSans-43" d="M 4122 4306 
L 4122 3641 
Q 3803 3938 3442 4084 
Q 3081 4231 2675 4231 
Q 1875 4231 1450 3742 
Q 1025 3253 1025 2328 
Q 1025 1406 1450 917 
Q 1875 428 2675 428 
Q 3081 428 3442 575 
Q 3803 722 4122 1019 
L 4122 359 
Q 3791 134 3420 21 
Q 3050 -91 2638 -91 
Q 1578 -91 968 557 
Q 359 1206 359 2328 
Q 359 3453 968 4101 
Q 1578 4750 2638 4750 
Q 3056 4750 3426 4639 
Q 3797 4528 4122 4306 
z
" transform="scale(0.015625)"/>
      <path id="DejaVuSans-3a" d="M 750 794 
L 1409 794 
L 1409 0 
L 750 0 
L 750 794 
z
M 750 3309 
L 1409 3309 
L 1409 2516 
L 750 2516 
L 750 3309 
z
" transform="scale(0.015625)"/>
      <path id="DejaVuSans-53" d="M 3425 4513 
L 3425 3897 
Q 3066 4069 2747 4153 
Q 2428 4238 2131 4238 
Q 1616 4238 1336 4038 
Q 1056 3838 1056 3469 
Q 1056 3159 1242 3001 
Q 1428 2844 1947 2747 
L 2328 2669 
Q 3034 2534 3370 2195 
Q 3706 1856 3706 1288 
Q 3706 609 3251 259 
Q 2797 -91 1919 -91 
Q 1588 -91 1214 -16 
Q 841 59 441 206 
L 441 856 
Q 825 641 1194 531 
Q 1563 422 1919 422 
Q 2459 422 2753 634 
Q 3047 847 3047 1241 
Q 3047 1584 2836 1778 
Q 2625 1972 2144 2069 
L 1759 2144 
Q 1053 2284 737 2584 
Q 422 2884 422 3419 
Q 422 4038 858 4394 
Q 1294 4750 2059 4750 
Q 2388 4750 2728 4690 
Q 3069 4631 3425 4513 
z
" transform="scale(0.015625)"/>
      <path id="DejaVuSans-79" d="M 2059 -325 
Q 1816 -950 1584 -1140 
Q 1353 -1331 966 -1331 
L 506 -1331 
L 506 -850 
L 844 -850 
Q 1081 -850 1212 -737 
Q 1344 -625 1503 -206 
L 1606 56 
L 191 3500 
L 800 3500 
L 1894 763 
L 2988 3500 
L 3597 3500 
L 2059 -325 
z
" transform="scale(0.015625)"/>
     </defs>
     <use xlink:href="#DejaVuSans-49"/>
     <use xlink:href="#DejaVuSans-6e" transform="translate(29.492188 0)"/>
     <use xlink:href="#DejaVuSans-76" transform="translate(92.871094 0)"/>
     <use xlink:href="#DejaVuSans-65" transform="translate(152.050781 0)"/>
     <use xlink:href="#DejaVuSans-72" transform="translate(213.574219 0)"/>
     <use xlink:href="#DejaVuSans-74" transform="translate(254.6875 0)"/>
     <use xlink:href="#DejaVuSans-65" transform="translate(293.896484 0)"/>
     <use xlink:href="#DejaVuSans-64" transform="translate(355.419922 0)"/>
     <use xlink:href="#DejaVuSans-20" transform="translate(418.896484 0)"/>
     <use xlink:href="#DejaVuSans-50" transform="translate(450.683594 0)"/>
     <use xlink:href="#DejaVuSans-65" transform="translate(507.361328 0)"/>
     <use xlink:href="#DejaVuSans-6e" transform="translate(568.884766 0)"/>
     <use xlink:href="#DejaVuSans-64" transform="translate(632.263672 0)"/>
     <use xlink:href="#DejaVuSans-75" transform="translate(695.740234 0)"/>
     <use xlink:href="#DejaVuSans-6c" transform="translate(759.119141 0)"/>
     <use xlink:href="#DejaVuSans-75" transform="translate(786.902344 0)"/>
     <use xlink:href="#DejaVuSans-6d" transform="translate(850.28125 0)"/>
     <use xlink:href="#DejaVuSans-20" transform="translate(947.693359 0)"/>
     <use xlink:href="#DejaVuSans-6f" transform="translate(979.480469 0)"/>
     <use xlink:href="#DejaVuSans-6e" transform="translate(1040.662109 0)"/>
     <use xlink:href="#DejaVuSans-20" transform="translate(1104.041016 0)"/>
     <use xlink:href="#DejaVuSans-61" transform="translate(1135.828125 0)"/>
     <use xlink:href="#DejaVuSans-20" transform="translate(1197.107422 0)"/>
     <use xlink:href="#DejaVuSans-43" transform="translate(1228.894531 0)"/>
     <use xlink:href="#DejaVuSans-61" transform="translate(1298.71875 0)"/>
     <use xlink:href="#DejaVuSans-72" transform="translate(1359.998047 0)"/>
     <use xlink:href="#DejaVuSans-74" transform="translate(1401.111328 0)"/>
     <use xlink:href="#DejaVuSans-20" transform="translate(1440.320312 0)"/>
     <use xlink:href="#DejaVuSans-3a" transform="translate(1472.107422 0)"/>
     <use xlink:href="#DejaVuSans-20" transform="translate(1505.798828 0)"/>
     <use xlink:href="#DejaVuSans-53" transform="translate(1537.585938 0)"/>
     <use xlink:href="#DejaVuSans-79" transform="translate(1601.0625 0)"/>
     <use xlink:href="#DejaVuSans-73" transform="translate(1660.242188 0)"/>
     <use xlink:href="#DejaVuSans-74" transform="translate(1712.341797 0)"/>
     <use xlink:href="#DejaVuSans-65" transform="translate(1751.550781 0)"/>
     <use xlink:href="#DejaVuSans-6d" transform="translate(1813.074219 0)"/>
     <use xlink:href="#DejaVuSans-20" transform="translate(1910.486328 0)"/>
     <use xlink:href="#DejaVuSans-53" transform="translate(1942.273438 0)"/>
     <use xlink:href="#DejaVuSans-74" transform="translate(2005.75 0)"/>
     <use xlink:href="#DejaVuSans-61" transform="translate(2044.958984 0)"/>
     <use xlink:href="#DejaVuSans-74" transform="translate(2106.238281 0)"/>
     <use xlink:href="#DejaVuSans-65" transform="translate(2145.447266 0)"/>
     <use xlink:href="#DejaVuSans-73" transform="translate(2206.970703 0)"/>
    </g>
   </g>
   <g id="legend_1">
    <g id="patch_7">
     <path d="M 679.209375 64.314375 
L 846.2 64.314375 
Q 848.2 64.314375 848.2 62.314375 
L 848.2 33.88 
Q 848.2 31.88 846.2 31.88 
L 679.209375 31.88 
Q 677.209375 31.88 677.209375 33.88 
L 677.209375 62.314375 
Q 677.209375 64.314375 679.209375 64.314375 
z
" style="fill: #ffffff; opacity: 0.8; stroke: #cccccc; stroke-linejoin: miter"/>
    </g>
    <g id="line2d_14">
     <path d="M 681.209375 40.056562 
L 691.209375 40.056562 
L 701.209375 40.056562 
" style="fill: none; stroke: #1f77b4; stroke-width: 1.5; stroke-linecap: square"/>
    </g>
    <g id="text_16">
     <!-- Inverted Pendulum angle θ -->
     <g transform="translate(709.209375 43.556562) scale(0.1 -0.1)">
      <defs>
       <path id="DejaVuSans-3b8" d="M 2953 2219 
L 963 2219 
Q 1009 1284 1225 888 
Q 1494 400 1959 400 
Q 2428 400 2688 891 
Q 2916 1322 2953 2219 
z
M 2944 2750 
Q 2856 3638 2688 3950 
Q 2419 4444 1959 4444 
Q 1481 4444 1228 3956 
Q 1028 3563 969 2750 
L 2944 2750 
z
M 1959 4913 
Q 2709 4913 3138 4250 
Q 3566 3591 3566 2422 
Q 3566 1256 3138 594 
Q 2709 -72 1959 -72 
Q 1206 -72 781 594 
Q 353 1256 353 2422 
Q 353 3591 781 4250 
Q 1206 4913 1959 4913 
z
" transform="scale(0.015625)"/>
      </defs>
      <use xlink:href="#DejaVuSans-49"/>
      <use xlink:href="#DejaVuSans-6e" transform="translate(29.492188 0)"/>
      <use xlink:href="#DejaVuSans-76" transform="translate(92.871094 0)"/>
      <use xlink:href="#DejaVuSans-65" transform="translate(152.050781 0)"/>
      <use xlink:href="#DejaVuSans-72" transform="translate(213.574219 0)"/>
      <use xlink:href="#DejaVuSans-74" transform="translate(254.6875 0)"/>
      <use xlink:href="#DejaVuSans-65" transform="translate(293.896484 0)"/>
      <use xlink:href="#DejaVuSans-64" transform="translate(355.419922 0)"/>
      <use xlink:href="#DejaVuSans-20" transform="translate(418.896484 0)"/>
      <use xlink:href="#DejaVuSans-50" transform="translate(450.683594 0)"/>
      <use xlink:href="#DejaVuSans-65" transform="translate(507.361328 0)"/>
      <use xlink:href="#DejaVuSans-6e" transform="translate(568.884766 0)"/>
      <use xlink:href="#DejaVuSans-64" transform="translate(632.263672 0)"/>
      <use xlink:href="#DejaVuSans-75" transform="translate(695.740234 0)"/>
      <use xlink:href="#DejaVuSans-6c" transform="translate(759.119141 0)"/>
      <use xlink:href="#DejaVuSans-75" transform="translate(786.902344 0)"/>
      <use xlink:href="#DejaVuSans-6d" transform="translate(850.28125 0)"/>
      <use xlink:href="#DejaVuSans-20" transform="translate(947.693359 0)"/>
      <use xlink:href="#DejaVuSans-61" transform="translate(979.480469 0)"/>
      <use xlink:href="#DejaVuSans-6e" transform="translate(1040.759766 0)"/>
      <use xlink:href="#DejaVuSans-67" transform="translate(1104.138672 0)"/>
      <use xlink:href="#DejaVuSans-6c" transform="translate(1167.615234 0)"/>
      <use xlink:href="#DejaVuSans-65" transform="translate(1195.398438 0)"/>
      <use xlink:href="#DejaVuSans-20" transform="translate(1256.921875 0)"/>
      <use xlink:href="#DejaVuSans-3b8" transform="translate(1288.708984 0)"/>
     </g>
    </g>
    <g id="line2d_15">
     <path d="M 681.209375 54.734688 
L 701.209375 54.734688 
" style="fill: none; stroke: #ff0000; stroke-width: 1.5"/>
    </g>
    <g id="text_17">
     <!-- Target angle -->
     <g transform="translate(709.209375 58.234688) scale(0.1 -0.1)">
      <use xlink:href="#DejaVuSans-54"/>
      <use xlink:href="#DejaVuSans-61" transform="translate(44.583984 0)"/>
      <use xlink:href="#DejaVuSans-72" transform="translate(105.863281 0)"/>
      <use xlink:href="#DejaVuSans-67" transform="translate(145.226562 0)"/>
      <use xlink:href="#DejaVuSans-65" transform="translate(208.703125 0)"/>
      <use xlink:href="#DejaVuSans-74" transform="translate(270.226562 0)"/>
      <use xlink:href="#DejaVuSans-20" transform="translate(309.435547 0)"/>
      <use xlink:href="#DejaVuSans-61" transform="translate(341.222656 0)"/>
      <use xlink:href="#DejaVuSans-6e" transform="translate(402.501953 0)"/>
      <use xlink:href="#DejaVuSans-67" transform="translate(465.880859 0)"/>
      <use xlink:href="#DejaVuSans-6c" transform="translate(529.357422 0)"/>
      <use xlink:href="#DejaVuSans-65" transform="translate(557.140625 0)"/>
     </g>
    </g>
   </g>
  </g>
  <g id="axes_2">
   <g id="patch_8">
    <path d="M 56 390.04 
L 853.2 390.04 
L 853.2 229.44 
L 56 229.44 
z
" style="fill: #ffffff"/>
   </g>
   <g id="matplotlib.axis_3">
    <g id="xtick_8">
     <g id="line2d_16">
      <g>
       <use xlink:href="#m2593101d65" x="92.236364" y="390.04" style="stroke: #000000; stroke-width: 0.8"/>
      </g>
     </g>
     <g id="text_18">
      <!-- 0 -->
      <g transform="translate(89.055114 404.638437) scale(0.1 -0.1)">
       <use xlink:href="#DejaVuSans-30"/>
      </g>
     </g>
    </g>
    <g id="xtick_9">
     <g id="line2d_17">
      <g>
       <use xlink:href="#m2593101d65" x="213.024242" y="390.04" style="stroke: #000000; stroke-width: 0.8"/>
      </g>
     </g>
     <g id="text_19">
      <!-- 10 -->
      <g transform="translate(206.661742 404.638437) scale(0.1 -0.1)">
       <use xlink:href="#DejaVuSans-31"/>
       <use xlink:href="#DejaVuSans-30" transform="translate(63.623047 0)"/>
      </g>
     </g>
    </g>
    <g id="xtick_10">
     <g id="line2d_18">
      <g>
       <use xlink:href="#m2593101d65" x="333.812121" y="390.04" style="stroke: #000000; stroke-width: 0.8"/>
      </g>
     </g>
     <g id="text_20">
      <!-- 20 -->
      <g transform="translate(327.449621 404.638437) scale(0.1 -0.1)">
       <use xlink:href="#DejaVuSans-32"/>
       <use xlink:href="#DejaVuSans-30" transform="translate(63.623047 0)"/>
      </g>
     </g>
    </g>
    <g id="xtick_11">
     <g id="line2d_19">
      <g>
       <use xlink:href="#m2593101d65" x="454.6" y="390.04" style="stroke: #000000; stroke-width: 0.8"/>
      </g>
     </g>
     <g id="text_21">
      <!-- 30 -->
      <g transform="translate(448.2375 404.638437) scale(0.1 -0.1)">
       <use xlink:href="#DejaVuSans-33"/>
       <use xlink:href="#DejaVuSans-30" transform="translate(63.623047 0)"/>
      </g>
     </g>
    </g>
    <g id="xtick_12">
     <g id="line2d_20">
      <g>
       <use xlink:href="#m2593101d65" x="575.387879" y="390.04" style="stroke: #000000; stroke-width: 0.8"/>
      </g>
     </g>
     <g id="text_22">
      <!-- 40 -->
      <g transform="translate(569.025379 404.638437) scale(0.1 -0.1)">
       <use xlink:href="#DejaVuSans-34"/>
       <use xlink:href="#DejaVuSans-30" transform="translate(63.623047 0)"/>
      </g>
     </g>
    </g>
    <g id="xtick_13">
     <g id="line2d_21">
      <g>
       <use xlink:href="#m2593101d65" x="696.175758" y="390.04" style="stroke: #000000; stroke-width: 0.8"/>
      </g>
     </g>
     <g id="text_23">
      <!-- 50 -->
      <g transform="translate(689.813258 404.638437) scale(0.1 -0.1)">
       <use xlink:href="#DejaVuSans-35"/>
       <use xlink:href="#DejaVuSans-30" transform="translate(63.623047 0)"/>
      </g>
     </g>
    </g>
    <g id="xtick_14">
     <g id="line2d_22">
      <g>
       <use xlink:href="#m2593101d65" x="816.963636" y="390.04" style="stroke: #000000; stroke-width: 0.8"/>
      </g>
     </g>
     <g id="text_24">
      <!-- 60 -->
      <g transform="translate(810.601136 404.638437) scale(0.1 -0.1)">
       <use xlink:href="#DejaVuSans-36"/>
       <use xlink:href="#DejaVuSans-30" transform="translate(63.623047 0)"/>
      </g>
     </g>
    </g>
    <g id="text_25">
     <!-- Time (s) -->
     <g transform="translate(434.271094 418.316562) scale(0.1 -0.1)">
      <use xlink:href="#DejaVuSans-54"/>
      <use xlink:href="#DejaVuSans-69" transform="translate(57.958984 0)"/>
      <use xlink:href="#DejaVuSans-6d" transform="translate(85.742188 0)"/>
      <use xlink:href="#DejaVuSans-65" transform="translate(183.154297 0)"/>
      <use xlink:href="#DejaVuSans-20" transform="translate(244.677734 0)"/>
      <use xlink:href="#DejaVuSans-28" transform="translate(276.464844 0)"/>
      <use xlink:href="#DejaVuSans-73" transform="translate(315.478516 0)"/>
      <use xlink:href="#DejaVuSans-29" transform="translate(367.578125 0)"/>
     </g>
    </g>
   </g>
   <g id="matplotlib.axis_4">
    <g id="ytick_6">
     <g id="line2d_23">
      <g>
       <use xlink:href="#m72e167ac4d" x="56" y="370.33161" style="stroke: #000000; stroke-width: 0.8"/>
      </g>
     </g>
     <g id="text_26">
      <!-- −7.5 -->
      <g transform="translate(24.717187 374.130829) scale(0.1 -0.1)">
       <defs>
        <path id="DejaVuSans-37" d="M 525 4666 
L 3525 4666 
L 3525 4397 
L 1831 0 
L 1172 0 
L 2766 4134 
L 525 4134 
L 525 4666 
z
" transform="scale(0.015625)"/>
       </defs>
       <use xlink:href="#DejaVuSans-2212"/>
       <use xlink:href="#DejaVuSans-37" transform="translate(83.789062 0)"/>
       <use xlink:href="#DejaVuSans-2e" transform="translate(147.412109 0)"/>
       <use xlink:href="#DejaVuSans-35" transform="translate(179.199219 0)"/>
      </g>
     </g>
    </g>
    <g id="ytick_7">
     <g id="line2d_24">
      <g>
       <use xlink:href="#m72e167ac4d" x="56" y="345.857975" style="stroke: #000000; stroke-width: 0.8"/>
      </g>
     </g>
     <g id="text_27">
      <!-- −5.0 -->
      <g transform="translate(24.717187 349.657194) scale(0.1 -0.1)">
       <use xlink:href="#DejaVuSans-2212"/>
       <use xlink:href="#DejaVuSans-35" transform="translate(83.789062 0)"/>
       <use xlink:href="#DejaVuSans-2e" transform="translate(147.412109 0)"/>
       <use xlink:href="#DejaVuSans-30" transform="translate(179.199219 0)"/>
      </g>
     </g>
    </g>
    <g id="ytick_8">
     <g id="line2d_25">
      <g>
       <use xlink:href="#m72e167ac4d" x="56" y="321.38434" style="stroke: #000000; stroke-width: 0.8"/>
      </g>
     </g>
     <g id="text_28">
      <!-- −2.5 -->
      <g transform="translate(24.717187 325.183559) scale(0.1 -0.1)">
       <use xlink:href="#DejaVuSans-2212"/>
       <use xlink:href="#DejaVuSans-32" transform="translate(83.789062 0)"/>
       <use xlink:href="#DejaVuSans-2e" transform="translate(147.412109 0)"/>
       <use xlink:href="#DejaVuSans-35" transform="translate(179.199219 0)"/>
      </g>
     </g>
    </g>
    <g id="ytick_9">
     <g id="line2d_26">
      <g>
       <use xlink:href="#m72e167ac4d" x="56" y="296.910705" style="stroke: #000000; stroke-width: 0.8"/>
      </g>
     </g>
     <g id="text_29">
      <!-- 0.0 -->
      <g transform="translate(33.096875 300.709924) scale(0.1 -0.1)">
       <use xlink:href="#DejaVuSans-30"/>
       <use xlink:href="#DejaVuSans-2e" transform="translate(63.623047 0)"/>
       <use xlink:href="#DejaVuSans-30" transform="translate(95.410156 0)"/>
      </g>
     </g>
    </g>
    <g id="ytick_10">
     <g id="line2d_27">
      <g>
       <use xlink:href="#m72e167ac4d" x="56" y="272.43707" style="stroke: #000000; stroke-width: 0.8"/>
      </g>
     </g>
     <g id="text_30">
      <!-- 2.5 -->
      <g transform="translate(33.096875 276.236289) scale(0.1 -0.1)">
       <use xlink:href="#DejaVuSans-32"/>
       <use xlink:href="#DejaVuSans-2e" transform="translate(63.623047 0)"/>
       <use xlink:href="#DejaVuSans-35" transform="translate(95.410156 0)"/>
      </g>
     </g>
    </g>
    <g id="ytick_11">
     <g id="line2d_28">
      <g>
       <use xlink:href="#m72e167ac4d" x="56" y="247.963435" style="stroke: #000000; stroke-width: 0.8"/>
      </g>
     </g>
     <g id="text_31">
      <!-- 5.0 -->
      <g transform="translate(33.096875 251.762654) scale(0.1 -0.1)">
       <use xlink:href="#DejaVuSans-35"/>
       <use xlink:href="#DejaVuSans-2e" transform="translate(63.623047 0)"/>
       <use xlink:href="#DejaVuSans-30" transform="translate(95.410156 0)"/>
      </g>
     </g>
    </g>
    <g id="text_32">
     <!-- Angular velocity (rad/s) -->
     <g transform="translate(18.6375 368.385312) rotate(-90) scale(0.1 -0.1)">
      <defs>
       <path id="DejaVuSans-63" d="M 3122 3366 
L 3122 2828 
Q 2878 2963 2633 3030 
Q 2388 3097 2138 3097 
Q 1578 3097 1268 2742 
Q 959 2388 959 1747 
Q 959 1106 1268 751 
Q 1578 397 2138 397 
Q 2388 397 2633 464 
Q 2878 531 3122 666 
L 3122 134 
Q 2881 22 2623 -34 
Q 2366 -91 2075 -91 
Q 1284 -91 818 406 
Q 353 903 353 1747 
Q 353 2603 823 3093 
Q 1294 3584 2113 3584 
Q 2378 3584 2631 3529 
Q 2884 3475 3122 3366 
z
" transform="scale(0.015625)"/>
       <path id="DejaVuSans-2f" d="M 1625 4666 
L 2156 4666 
L 531 -594 
L 0 -594 
L 1625 4666 
z
" transform="scale(0.015625)"/>
      </defs>
      <use xlink:href="#DejaVuSans-41"/>
      <use xlink:href="#DejaVuSans-6e" transform="translate(68.408203 0)"/>
      <use xlink:href="#DejaVuSans-67" transform="translate(131.787109 0)"/>
      <use xlink:href="#DejaVuSans-75" transform="translate(195.263672 0)"/>
      <use xlink:href="#DejaVuSans-6c" transform="translate(258.642578 0)"/>
      <use xlink:href="#DejaVuSans-61" transform="translate(286.425781 0)"/>
      <use xlink:href="#DejaVuSans-72" transform="translate(347.705078 0)"/>
      <use xlink:href="#DejaVuSans-20" transform="translate(388.818359 0)"/>
      <use xlink:href="#DejaVuSans-76" transform="translate(420.605469 0)"/>
      <use xlink:href="#DejaVuSans-65" transform="translate(479.785156 0)"/>
      <use xlink:href="#DejaVuSans-6c" transform="translate(541.308594 0)"/>
      <use xlink:href="#DejaVuSans-6f" transform="translate(569.091797 0)"/>
      <use xlink:href="#DejaVuSans-63" transform="translate(630.273438 0)"/>
      <use xlink:href="#DejaVuSans-69" transform="translate(685.253906 0)"/>
      <use xlink:href="#DejaVuSans-74" transform="translate(713.037109 0)"/>
      <use xlink:href="#DejaVuSans-79" transform="translate(752.246094 0)"/>
      <use xlink:href="#DejaVuSans-20" transform="translate(811.425781 0)"/>
      <use xlink:href="#DejaVuSans-28" transform="translate(843.212891 0)"/>
      <use xlink:href="#DejaVuSans-72" transform="translate(882.226562 0)"/>
      <use xlink:href="#DejaVuSans-61" transform="translate(923.339844 0)"/>
      <use xlink:href="#DejaVuSans-64" transform="translate(984.619141 0)"/>
      <use xlink:href="#DejaVuSans-2f" transform="translate(1048.095703 0)"/>
      <use xlink:href="#DejaVuSans-73" transform="translate(1081.787109 0)"/>
      <use xlink:href="#DejaVuSans-29" transform="translate(1133.886719 0)"/>
     </g>
    </g>
   </g>
   <g id="line2d_29">
    <path d="M 92.236364 296.910705 
L 93.444444 382.74 
L 93.565252 381.028189 
L 95.256564 245.907267 
L 95.49818 236.74 
L 95.739796 254.780061 
L 96.70626 331.105387 
L 96.827068 330.736393 
L 97.068684 318.832594 
L 97.551916 287.712355 
L 97.793532 282.898152 
L 97.91434 283.703681 
L 98.155956 289.474923 
L 98.639188 301.797241 
L 98.880804 303.064228 
L 99.12242 301.243379 
L 99.72646 294.861673 
L 99.847268 294.528102 
L 99.968076 294.568946 
L 100.209693 295.450752 
L 100.692925 297.64439 
L 100.934541 297.929569 
L 101.176157 297.639687 
L 101.780197 296.426009 
L 102.021813 296.318777 
L 102.384237 296.532894 
L 102.867469 296.829542 
L 103.229893 296.778633 
L 103.954741 296.54345 
L 108.062213 296.316013 
L 112.169686 296.302774 
L 117.606046 296.5484 
L 129.928464 297.192902 
L 137.297753 297.168429 
L 158.439155 296.768315 
L 185.983382 296.952024 
L 208.695289 296.889406 
L 212.923569 296.907237 
L 213.044377 298.430382 
L 213.769225 357.274079 
L 213.890033 353.876221 
L 215.339729 246.310649 
L 215.460537 245.057747 
L 215.581345 249.957906 
L 216.427001 313.684526 
L 216.547809 314.323036 
L 216.789426 307.608945 
L 217.393466 283.666326 
L 217.514274 282.411656 
L 217.635082 282.618979 
L 217.876698 286.182732 
L 218.35993 295.094971 
L 218.601546 296.380175 
L 218.722354 296.107595 
L 219.084778 293.372046 
L 219.447202 291.017756 
L 219.56801 290.74871 
L 219.688818 290.754707 
L 219.930434 291.371651 
L 220.534474 293.331723 
L 220.77609 293.454199 
L 221.138514 293.110291 
L 221.500938 292.792269 
L 221.742554 292.807821 
L 222.104978 293.103932 
L 222.709018 293.608994 
L 223.433866 293.788382 
L 224.037906 294.048952 
L 225.729219 294.902804 
L 230.803155 297.368364 
L 232.856891 298.103183 
L 233.581739 298.363941 
L 234.427395 298.626087 
L 238.172444 299.201279 
L 240.709412 299.192114 
L 242.763148 298.996658 
L 244.696077 298.675732 
L 247.957893 297.951954 
L 257.26011 296.053176 
L 262.454855 295.774687 
L 266.562327 295.988105 
L 271.515456 296.516617 
L 277.797472 297.185617 
L 279.005552 297.284367 
L 280.092825 297.337365 
L 287.099689 297.434569 
L 293.74413 297.127435 
L 302.925539 296.701897 
L 308.603516 296.642228 
L 316.576845 296.810219 
L 329.744918 297.046912 
L 333.731583 297.028877 
L 333.852391 293.521633 
L 334.577239 238.474193 
L 334.698047 242.861878 
L 336.026935 341.346684 
L 336.147743 345.378019 
L 336.268551 343.55136 
L 336.510167 326.016988 
L 336.993399 287.435034 
L 337.235015 282.067488 
L 337.355823 283.615857 
L 337.718247 297.130715 
L 338.080671 308.735219 
L 338.201479 310.116369 
L 338.322287 310.187329 
L 338.563903 307.339144 
L 339.047135 299.304308 
L 339.288751 297.940284 
L 339.409559 298.083057 
L 339.651175 299.464687 
L 340.134407 302.588386 
L 340.376023 302.914155 
L 340.617639 302.427858 
L 341.221679 300.639242 
L 341.463295 300.489529 
L 341.704911 300.640014 
L 342.188143 301.053851 
L 342.42976 301.050842 
L 342.792184 300.791042 
L 343.396224 300.314734 
L 344.121072 300.123276 
L 344.725112 299.872555 
L 347.382888 298.528313 
L 351.973593 296.365446 
L 353.785713 295.728913 
L 354.510561 295.473375 
L 355.356217 295.209397 
L 359.101265 294.634091 
L 361.638234 294.641754 
L 363.69197 294.836588 
L 365.745706 295.173032 
L 369.973987 296.138873 
L 374.685499 297.201864 
L 378.068123 297.760606 
L 383.7461 298.030768 
L 387.853573 297.798413 
L 391.961045 297.363539 
L 398.726294 296.640505 
L 408.511743 296.404129 
L 414.79376 296.70113 
L 421.679816 297.009939 
L 422.404664 297.07532 
L 423.371129 297.121908 
L 426.149713 297.169907 
L 431.948497 297.148338 
L 445.116571 296.82772 
L 446.203843 296.805958 
L 449.465659 296.776692 
L 454.539596 296.791715 
L 454.660404 301.997858 
L 455.385252 356.00964 
L 455.626868 340.347865 
L 456.834948 251.215299 
L 456.955756 246.981446 
L 457.076564 249.104085 
L 457.31818 266.770375 
L 457.801412 306.505288 
L 458.043028 312.528809 
L 458.163836 311.051975 
L 458.52626 297.175459 
L 458.888684 284.922078 
L 459.130301 283.249602 
L 459.371917 286.092802 
L 459.975957 295.536109 
L 460.096765 295.978094 
L 460.217573 295.858516 
L 460.459189 294.466528 
L 460.942421 291.208163 
L 461.184037 290.835589 
L 461.425653 291.323779 
L 462.029693 293.189062 
L 462.271309 293.356927 
L 462.512925 293.21003 
L 462.996157 292.772824 
L 463.237773 292.771573 
L 463.600197 293.033653 
L 464.204237 293.531077 
L 464.929085 293.727713 
L 465.533125 293.980684 
L 467.103629 294.774616 
L 473.506454 297.807477 
L 475.922614 298.609219 
L 479.305239 299.174111 
L 480.634127 299.227291 
L 482.325439 299.200813 
L 484.620791 298.960764 
L 486.432912 298.647649 
L 491.265232 297.5461 
L 494.889472 296.71144 
L 497.184825 296.338678 
L 498.030481 296.152542 
L 499.117753 296.02915 
L 503.346033 295.775826 
L 505.762194 295.819788 
L 509.869666 296.145623 
L 523.158548 297.415288 
L 527.990868 297.449845 
L 533.064805 297.256255 
L 546.71611 296.650793 
L 552.635703 296.670708 
L 562.058728 296.917325 
L 571.240137 297.047385 
L 575.347609 297.029455 
L 575.589225 279.669478 
L 576.072458 239.322551 
L 576.193266 238.353257 
L 576.55569 264.465656 
L 577.642962 343.810356 
L 577.76377 346.929142 
L 577.884578 343.707364 
L 578.247002 314.199483 
L 578.609426 285.983283 
L 578.851042 281.35234 
L 578.97185 283.335503 
L 579.817506 310.600498 
L 579.938314 310.477541 
L 580.17993 307.27249 
L 580.663162 299.044029 
L 580.904778 297.811039 
L 581.025586 298.033421 
L 581.38801 300.521976 
L 581.750434 302.710816 
L 581.99205 302.973394 
L 582.233666 302.417932 
L 582.837706 300.594985 
L 583.079322 300.466436 
L 583.441746 300.772379 
L 583.80417 301.057107 
L 584.045786 301.042801 
L 584.529018 300.642618 
L 585.012251 300.277143 
L 585.737099 300.090266 
L 586.461947 299.760066 
L 587.911643 299.042049 
L 593.831236 296.195087 
L 595.40174 295.676509 
L 599.146788 294.755588 
L 601.44214 294.584861 
L 603.133453 294.623286 
L 605.307997 294.831006 
L 606.999309 295.12386 
L 609.777893 295.713885 
L 613.160518 296.544379 
L 617.147182 297.393385 
L 620.167382 297.816904 
L 622.945967 298.024968 
L 626.086975 298.019038 
L 628.865559 297.845731 
L 634.060304 297.289133 
L 640.342321 296.640025 
L 640.946361 296.622922 
L 642.154441 296.486863 
L 653.14797 296.528507 
L 666.920084 297.164677 
L 675.014221 297.11772 
L 695.430775 296.786704 
L 696.155623 296.792029 
L 696.880471 356.178716 
L 697.001279 355.496279 
L 697.846935 292.982191 
L 698.571783 245.412235 
L 698.692591 248.350722 
L 699.055015 277.910446 
L 699.538247 312.057127 
L 699.659055 313.469749 
L 699.779863 311.907313 
L 700.142287 297.28921 
L 700.504711 284.488099 
L 700.746327 282.785279 
L 700.987943 285.807864 
L 701.591984 295.677222 
L 701.712792 296.123177 
L 701.8336 295.992702 
L 702.075216 294.527061 
L 702.558448 291.132432 
L 702.800064 290.759504 
L 703.04168 291.273449 
L 703.64572 293.218466 
L 703.887336 293.393767 
L 704.128952 293.235921 
L 704.612184 292.785282 
L 704.8538 292.780101 
L 705.216224 293.056214 
L 705.820264 293.573132 
L 706.424304 293.744674 
L 707.028344 293.964136 
L 711.619049 296.339276 
L 714.639249 297.699459 
L 716.209753 298.206995 
L 718.625913 298.893708 
L 720.196418 299.139879 
L 722.250154 299.267042 
L 723.941466 299.216514 
L 725.874394 299.017428 
L 727.686514 298.713449 
L 730.465099 298.094581 
L 737.471964 296.481072 
L 740.492164 296.02621 
L 744.478828 295.769717 
L 747.619837 295.831612 
L 752.210541 296.228846 
L 757.76771 296.88499 
L 762.962454 297.334689 
L 770.452551 297.433598 
L 776.976184 297.11974 
L 783.741433 296.806698 
L 784.466281 296.747068 
L 785.432745 296.695061 
L 788.211329 296.646646 
L 793.889306 296.665359 
L 804.399603 296.940046 
L 813.339396 297.049671 
L 816.963636 297.028101 
L 816.963636 297.028101 
" clip-path="url(#pc9f7d32ed5)" style="fill: none; stroke: #1f77b4; stroke-width: 1.5; stroke-linecap: square"/>
   </g>
   <g id="LineCollection_2">
    <path d="M 92.236364 296.910705 
L 816.963636 296.910705 
" clip-path="url(#pc9f7d32ed5)" style="fill: none; stroke: #ff0000; stroke-width: 1.5"/>
   </g>
   <g id="patch_9">
    <path d="M 56 390.04 
L 56 229.44 
" style="fill: none; stroke: #000000; stroke-width: 0.8; stroke-linejoin: miter; stroke-linecap: square"/>
   </g>
   <g id="patch_10">
    <path d="M 853.2 390.04 
L 853.2 229.44 
" style="fill: none; stroke: #000000; stroke-width: 0.8; stroke-linejoin: miter; stroke-linecap: square"/>
   </g>
   <g id="patch_11">
    <path d="M 56 390.04 
L 853.2 390.04 
" style="fill: none; stroke: #000000; stroke-width: 0.8; stroke-linejoin: miter; stroke-linecap: square"/>
   </g>
   <g id="patch_12">
    <path d="M 56 229.44 
L 853.2 229.44 
" style="fill: none; stroke: #000000; stroke-width: 0.8; stroke-linejoin: miter; stroke-linecap: square"/>
   </g>
   <g id="legend_2">
    <g id="patch_13">
     <path d="M 605.135938 385.04 
L 846.2 385.04 
Q 848.2 385.04 848.2 383.04 
L 848.2 354.3275 
Q 848.2 352.3275 846.2 352.3275 
L 605.135938 352.3275 
Q 603.135938 352.3275 603.135938 354.3275 
L 603.135938 383.04 
Q 603.135938 385.04 605.135938 385.04 
z
" style="fill: #ffffff; opacity: 0.8; stroke: #cccccc; stroke-linejoin: miter"/>
    </g>
    <g id="line2d_30">
     <path d="M 607.135938 360.504062 
L 617.135938 360.504062 
L 627.135938 360.504062 
" style="fill: none; stroke: #1f77b4; stroke-width: 1.5; stroke-linecap: square"/>
    </g>
    <g id="text_33">
     <!-- Inverted Pendulum angular velocity θ_dot -->
     <g transform="translate(635.135938 364.004062) scale(0.1 -0.1)">
      <defs>
       <path id="DejaVuSans-5f" d="M 3263 -1063 
L 3263 -1509 
L -63 -1509 
L -63 -1063 
L 3263 -1063 
z
" transform="scale(0.015625)"/>
      </defs>
      <use xlink:href="#DejaVuSans-49"/>
      <use xlink:href="#DejaVuSans-6e" transform="translate(29.492188 0)"/>
      <use xlink:href="#DejaVuSans-76" transform="translate(92.871094 0)"/>
      <use xlink:href="#DejaVuSans-65" transform="translate(152.050781 0)"/>
      <use xlink:href="#DejaVuSans-72" transform="translate(213.574219 0)"/>
      <use xlink:href="#DejaVuSans-74" transform="translate(254.6875 0)"/>
      <use xlink:href="#DejaVuSans-65" transform="translate(293.896484 0)"/>
      <use xlink:href="#DejaVuSans-64" transform="translate(355.419922 0)"/>
      <use xlink:href="#DejaVuSans-20" transform="translate(418.896484 0)"/>
      <use xlink:href="#DejaVuSans-50" transform="translate(450.683594 0)"/>
      <use xlink:href="#DejaVuSans-65" transform="translate(507.361328 0)"/>
      <use xlink:href="#DejaVuSans-6e" transform="translate(568.884766 0)"/>
      <use xlink:href="#DejaVuSans-64" transform="translate(632.263672 0)"/>
      <use xlink:href="#DejaVuSans-75" transform="translate(695.740234 0)"/>
      <use xlink:href="#DejaVuSans-6c" transform="translate(759.119141 0)"/>
      <use xlink:href="#DejaVuSans-75" transform="translate(786.902344 0)"/>
      <use xlink:href="#DejaVuSans-6d" transform="translate(850.28125 0)"/>
      <use xlink:href="#DejaVuSans-20" transform="translate(947.693359 0)"/>
      <use xlink:href="#DejaVuSans-61" transform="translate(979.480469 0)"/>
      <use xlink:href="#DejaVuSans-6e" transform="translate(1040.759766 0)"/>
      <use xlink:href="#DejaVuSans-67" transform="translate(1104.138672 0)"/>
      <use xlink:href="#DejaVuSans-75" transform="translate(1167.615234 0)"/>
      <use xlink:href="#DejaVuSans-6c" transform="translate(1230.994141 0)"/>
      <use xlink:href="#DejaVuSans-61" transform="translate(1258.777344 0)"/>
      <use xlink:href="#DejaVuSans-72" transform="translate(1320.056641 0)"/>
      <use xlink:href="#DejaVuSans-20" transform="translate(1361.169922 0)"/>
      <use xlink:href="#DejaVuSans-76" transform="translate(1392.957031 0)"/>
      <use xlink:href="#DejaVuSans-65" transform="translate(1452.136719 0)"/>
      <use xlink:href="#DejaVuSans-6c" transform="translate(1513.660156 0)"/>
      <use xlink:href="#DejaVuSans-6f" transform="translate(1541.443359 0)"/>
      <use xlink:href="#DejaVuSans-63" transform="translate(1602.625 0)"/>
      <use xlink:href="#DejaVuSans-69" transform="translate(1657.605469 0)"/>
      <use xlink:href="#DejaVuSans-74" transform="translate(1685.388672 0)"/>
      <use xlink:href="#DejaVuSans-79" transform="translate(1724.597656 0)"/>
      <use xlink:href="#DejaVuSans-20" transform="translate(1783.777344 0)"/>
      <use xlink:href="#DejaVuSans-3b8" transform="translate(1815.564453 0)"/>
      <use xlink:href="#DejaVuSans-5f" transform="translate(1876.746094 0)"/>
      <use xlink:href="#DejaVuSans-64" transform="translate(1926.746094 0)"/>
      <use xlink:href="#DejaVuSans-6f" transform="translate(1990.222656 0)"/>
      <use xlink:href="#DejaVuSans-74" transform="translate(2051.404297 0)"/>
     </g>
    </g>
    <g id="line2d_31">
     <path d="M 607.135938 375.460312 
L 627.135938 375.460312 
" style="fill: none; stroke: #ff0000; stroke-width: 1.5"/>
    </g>
    <g id="text_34">
     <!-- target angular velocity -->
     <g transform="translate(635.135938 378.960312) scale(0.1 -0.1)">
      <use xlink:href="#DejaVuSans-74"/>
      <use xlink:href="#DejaVuSans-61" transform="translate(39.208984 0)"/>
      <use xlink:href="#DejaVuSans-72" transform="translate(100.488281 0)"/>
      <use xlink:href="#DejaVuSans-67" transform="translate(139.851562 0)"/>
      <use xlink:href="#DejaVuSans-65" transform="translate(203.328125 0)"/>
      <use xlink:href="#DejaVuSans-74" transform="translate(264.851562 0)"/>
      <use xlink:href="#DejaVuSans-20" transform="translate(304.060547 0)"/>
      <use xlink:href="#DejaVuSans-61" transform="translate(335.847656 0)"/>
      <use xlink:href="#DejaVuSans-6e" transform="translate(397.126953 0)"/>
      <use xlink:href="#DejaVuSans-67" transform="translate(460.505859 0)"/>
      <use xlink:href="#DejaVuSans-75" transform="translate(523.982422 0)"/>
      <use xlink:href="#DejaVuSans-6c" transform="translate(587.361328 0)"/>
      <use xlink:href="#DejaVuSans-61" transform="translate(615.144531 0)"/>
      <use xlink:href="#DejaVuSans-72" transform="translate(676.423828 0)"/>
      <use xlink:href="#DejaVuSans-20" transform="translate(717.537109 0)"/>
      <use xlink:href="#DejaVuSans-76" transform="translate(749.324219 0)"/>
      <use xlink:href="#DejaVuSans-65" transform="translate(808.503906 0)"/>
      <use xlink:href="#DejaVuSans-6c" transform="translate(870.027344 0)"/>
      <use xlink:href="#DejaVuSans-6f" transform="translate(897.810547 0)"/>
      <use xlink:href="#DejaVuSans-63" transform="translate(958.992188 0)"/>
      <use xlink:href="#DejaVuSans-69" transform="translate(1013.972656 0)"/>
      <use xlink:href="#DejaVuSans-74" transform="translate(1041.755859 0)"/>
      <use xlink:href="#DejaVuSans-79" transform="translate(1080.964844 0)"/>
     </g>
    </g>
   </g>
  </g>
 </g>
 <defs>
  <clipPath id="pd4ca71c7d1">
   <rect x="56" y="26.88" width="797.2" height="160.6"/>
  </clipPath>
  <clipPath id="pc9f7d32ed5">
   <rect x="56" y="229.44" width="797.2" height="160.6"/>
  </clipPath>
 </defs>
</svg>
