<?xml version="1.0" encoding="utf-8" standalone="no"?>
<!DOCTYPE svg PUBLIC "-//W3C//DTD SVG 1.1//EN"
  "http://www.w3.org/Graphics/SVG/1.1/DTD/svg11.dtd">
<svg xmlns:xlink="http://www.w3.org/1999/xlink" width="864pt" height="432pt" viewBox="0 0 864 432" xmlns="http://www.w3.org/2000/svg" version="1.1">
 <metadata>
  <rdf:RDF xmlns:dc="http://purl.org/dc/elements/1.1/" xmlns:cc="http://creativecommons.org/ns#" xmlns:rdf="http://www.w3.org/1999/02/22-rdf-syntax-ns#">
   <cc:Work>
    <dc:type rdf:resource="http://purl.org/dc/dcmitype/StillImage"/>
    <dc:date>2025-04-29T12:43:48.853327</dc:date>
    <dc:format>image/svg+xml</dc:format>
    <dc:creator>
     <cc:Agent>
      <dc:title>Matplotlib v3.10.1, https://matplotlib.org/</dc:title>
     </cc:Agent>
    </dc:creator>
   </cc:Work>
  </rdf:RDF>
 </metadata>
 <defs>
  <style type="text/css">*{stroke-linejoin: round; stroke-linecap: butt}</style>
 </defs>
 <g id="figure_1">
  <g id="patch_1">
   <path d="M 0 432 
L 864 432 
L 864 0 
L 0 0 
z
" style="fill: #ffffff"/>
  </g>
  <g id="axes_1">
   <g id="patch_2">
    <path d="M 56 187.48 
L 853.2 187.48 
L 853.2 26.88 
L 56 26.88 
z
" style="fill: #ffffff"/>
   </g>
   <g id="matplotlib.axis_1">
    <g id="xtick_1">
     <g id="line2d_1">
      <defs>
       <path id="m5ed5fb5e85" d="M 0 0 
L 0 3.5 
" style="stroke: #000000; stroke-width: 0.8"/>
      </defs>
      <g>
       <use xlink:href="#m5ed5fb5e85" x="92.236364" y="187.48" style="stroke: #000000; stroke-width: 0.8"/>
      </g>
     </g>
     <g id="text_1">
      <!-- 0 -->
      <g transform="translate(89.055114 202.078437) scale(0.1 -0.1)">
       <defs>
        <path id="DejaVuSans-30" d="M 2034 4250 
Q 1547 4250 1301 3770 
Q 1056 3291 1056 2328 
Q 1056 1369 1301 889 
Q 1547 409 2034 409 
Q 2525 409 2770 889 
Q 3016 1369 3016 2328 
Q 3016 3291 2770 3770 
Q 2525 4250 2034 4250 
z
M 2034 4750 
Q 2819 4750 3233 4129 
Q 3647 3509 3647 2328 
Q 3647 1150 3233 529 
Q 2819 -91 2034 -91 
Q 1250 -91 836 529 
Q 422 1150 422 2328 
Q 422 3509 836 4129 
Q 1250 4750 2034 4750 
z
" transform="scale(0.015625)"/>
       </defs>
       <use xlink:href="#DejaVuSans-30"/>
      </g>
     </g>
    </g>
    <g id="xtick_2">
     <g id="line2d_2">
      <g>
       <use xlink:href="#m5ed5fb5e85" x="213.024242" y="187.48" style="stroke: #000000; stroke-width: 0.8"/>
      </g>
     </g>
     <g id="text_2">
      <!-- 10 -->
      <g transform="translate(206.661742 202.078437) scale(0.1 -0.1)">
       <defs>
        <path id="DejaVuSans-31" d="M 794 531 
L 1825 531 
L 1825 4091 
L 703 3866 
L 703 4441 
L 1819 4666 
L 2450 4666 
L 2450 531 
L 3481 531 
L 3481 0 
L 794 0 
L 794 531 
z
" transform="scale(0.015625)"/>
       </defs>
       <use xlink:href="#DejaVuSans-31"/>
       <use xlink:href="#DejaVuSans-30" transform="translate(63.623047 0)"/>
      </g>
     </g>
    </g>
    <g id="xtick_3">
     <g id="line2d_3">
      <g>
       <use xlink:href="#m5ed5fb5e85" x="333.812121" y="187.48" style="stroke: #000000; stroke-width: 0.8"/>
      </g>
     </g>
     <g id="text_3">
      <!-- 20 -->
      <g transform="translate(327.449621 202.078437) scale(0.1 -0.1)">
       <defs>
        <path id="DejaVuSans-32" d="M 1228 531 
L 3431 531 
L 3431 0 
L 469 0 
L 469 531 
Q 828 903 1448 1529 
Q 2069 2156 2228 2338 
Q 2531 2678 2651 2914 
Q 2772 3150 2772 3378 
Q 2772 3750 2511 3984 
Q 2250 4219 1831 4219 
Q 1534 4219 1204 4116 
Q 875 4013 500 3803 
L 500 4441 
Q 881 4594 1212 4672 
Q 1544 4750 1819 4750 
Q 2544 4750 2975 4387 
Q 3406 4025 3406 3419 
Q 3406 3131 3298 2873 
Q 3191 2616 2906 2266 
Q 2828 2175 2409 1742 
Q 1991 1309 1228 531 
z
" transform="scale(0.015625)"/>
       </defs>
       <use xlink:href="#DejaVuSans-32"/>
       <use xlink:href="#DejaVuSans-30" transform="translate(63.623047 0)"/>
      </g>
     </g>
    </g>
    <g id="xtick_4">
     <g id="line2d_4">
      <g>
       <use xlink:href="#m5ed5fb5e85" x="454.6" y="187.48" style="stroke: #000000; stroke-width: 0.8"/>
      </g>
     </g>
     <g id="text_4">
      <!-- 30 -->
      <g transform="translate(448.2375 202.078437) scale(0.1 -0.1)">
       <defs>
        <path id="DejaVuSans-33" d="M 2597 2516 
Q 3050 2419 3304 2112 
Q 3559 1806 3559 1356 
Q 3559 666 3084 287 
Q 2609 -91 1734 -91 
Q 1441 -91 1130 -33 
Q 819 25 488 141 
L 488 750 
Q 750 597 1062 519 
Q 1375 441 1716 441 
Q 2309 441 2620 675 
Q 2931 909 2931 1356 
Q 2931 1769 2642 2001 
Q 2353 2234 1838 2234 
L 1294 2234 
L 1294 2753 
L 1863 2753 
Q 2328 2753 2575 2939 
Q 2822 3125 2822 3475 
Q 2822 3834 2567 4026 
Q 2313 4219 1838 4219 
Q 1578 4219 1281 4162 
Q 984 4106 628 3988 
L 628 4550 
Q 988 4650 1302 4700 
Q 1616 4750 1894 4750 
Q 2613 4750 3031 4423 
Q 3450 4097 3450 3541 
Q 3450 3153 3228 2886 
Q 3006 2619 2597 2516 
z
" transform="scale(0.015625)"/>
       </defs>
       <use xlink:href="#DejaVuSans-33"/>
       <use xlink:href="#DejaVuSans-30" transform="translate(63.623047 0)"/>
      </g>
     </g>
    </g>
    <g id="xtick_5">
     <g id="line2d_5">
      <g>
       <use xlink:href="#m5ed5fb5e85" x="575.387879" y="187.48" style="stroke: #000000; stroke-width: 0.8"/>
      </g>
     </g>
     <g id="text_5">
      <!-- 40 -->
      <g transform="translate(569.025379 202.078437) scale(0.1 -0.1)">
       <defs>
        <path id="DejaVuSans-34" d="M 2419 4116 
L 825 1625 
L 2419 1625 
L 2419 4116 
z
M 2253 4666 
L 3047 4666 
L 3047 1625 
L 3713 1625 
L 3713 1100 
L 3047 1100 
L 3047 0 
L 2419 0 
L 2419 1100 
L 313 1100 
L 313 1709 
L 2253 4666 
z
" transform="scale(0.015625)"/>
       </defs>
       <use xlink:href="#DejaVuSans-34"/>
       <use xlink:href="#DejaVuSans-30" transform="translate(63.623047 0)"/>
      </g>
     </g>
    </g>
    <g id="xtick_6">
     <g id="line2d_6">
      <g>
       <use xlink:href="#m5ed5fb5e85" x="696.175758" y="187.48" style="stroke: #000000; stroke-width: 0.8"/>
      </g>
     </g>
     <g id="text_6">
      <!-- 50 -->
      <g transform="translate(689.813258 202.078437) scale(0.1 -0.1)">
       <defs>
        <path id="DejaVuSans-35" d="M 691 4666 
L 3169 4666 
L 3169 4134 
L 1269 4134 
L 1269 2991 
Q 1406 3038 1543 3061 
Q 1681 3084 1819 3084 
Q 2600 3084 3056 2656 
Q 3513 2228 3513 1497 
Q 3513 744 3044 326 
Q 2575 -91 1722 -91 
Q 1428 -91 1123 -41 
Q 819 9 494 109 
L 494 744 
Q 775 591 1075 516 
Q 1375 441 1709 441 
Q 2250 441 2565 725 
Q 2881 1009 2881 1497 
Q 2881 1984 2565 2268 
Q 2250 2553 1709 2553 
Q 1456 2553 1204 2497 
Q 953 2441 691 2322 
L 691 4666 
z
" transform="scale(0.015625)"/>
       </defs>
       <use xlink:href="#DejaVuSans-35"/>
       <use xlink:href="#DejaVuSans-30" transform="translate(63.623047 0)"/>
      </g>
     </g>
    </g>
    <g id="xtick_7">
     <g id="line2d_7">
      <g>
       <use xlink:href="#m5ed5fb5e85" x="816.963636" y="187.48" style="stroke: #000000; stroke-width: 0.8"/>
      </g>
     </g>
     <g id="text_7">
      <!-- 60 -->
      <g transform="translate(810.601136 202.078437) scale(0.1 -0.1)">
       <defs>
        <path id="DejaVuSans-36" d="M 2113 2584 
Q 1688 2584 1439 2293 
Q 1191 2003 1191 1497 
Q 1191 994 1439 701 
Q 1688 409 2113 409 
Q 2538 409 2786 701 
Q 3034 994 3034 1497 
Q 3034 2003 2786 2293 
Q 2538 2584 2113 2584 
z
M 3366 4563 
L 3366 3988 
Q 3128 4100 2886 4159 
Q 2644 4219 2406 4219 
Q 1781 4219 1451 3797 
Q 1122 3375 1075 2522 
Q 1259 2794 1537 2939 
Q 1816 3084 2150 3084 
Q 2853 3084 3261 2657 
Q 3669 2231 3669 1497 
Q 3669 778 3244 343 
Q 2819 -91 2113 -91 
Q 1303 -91 875 529 
Q 447 1150 447 2328 
Q 447 3434 972 4092 
Q 1497 4750 2381 4750 
Q 2619 4750 2861 4703 
Q 3103 4656 3366 4563 
z
" transform="scale(0.015625)"/>
       </defs>
       <use xlink:href="#DejaVuSans-36"/>
       <use xlink:href="#DejaVuSans-30" transform="translate(63.623047 0)"/>
      </g>
     </g>
    </g>
    <g id="text_8">
     <!-- Time (s) -->
     <g transform="translate(434.271094 215.756562) scale(0.1 -0.1)">
      <defs>
       <path id="DejaVuSans-54" d="M -19 4666 
L 3928 4666 
L 3928 4134 
L 2272 4134 
L 2272 0 
L 1638 0 
L 1638 4134 
L -19 4134 
L -19 4666 
z
" transform="scale(0.015625)"/>
       <path id="DejaVuSans-69" d="M 603 3500 
L 1178 3500 
L 1178 0 
L 603 0 
L 603 3500 
z
M 603 4863 
L 1178 4863 
L 1178 4134 
L 603 4134 
L 603 4863 
z
" transform="scale(0.015625)"/>
       <path id="DejaVuSans-6d" d="M 3328 2828 
Q 3544 3216 3844 3400 
Q 4144 3584 4550 3584 
Q 5097 3584 5394 3201 
Q 5691 2819 5691 2113 
L 5691 0 
L 5113 0 
L 5113 2094 
Q 5113 2597 4934 2840 
Q 4756 3084 4391 3084 
Q 3944 3084 3684 2787 
Q 3425 2491 3425 1978 
L 3425 0 
L 2847 0 
L 2847 2094 
Q 2847 2600 2669 2842 
Q 2491 3084 2119 3084 
Q 1678 3084 1418 2786 
Q 1159 2488 1159 1978 
L 1159 0 
L 581 0 
L 581 3500 
L 1159 3500 
L 1159 2956 
Q 1356 3278 1631 3431 
Q 1906 3584 2284 3584 
Q 2666 3584 2933 3390 
Q 3200 3197 3328 2828 
z
" transform="scale(0.015625)"/>
       <path id="DejaVuSans-65" d="M 3597 1894 
L 3597 1613 
L 953 1613 
Q 991 1019 1311 708 
Q 1631 397 2203 397 
Q 2534 397 2845 478 
Q 3156 559 3463 722 
L 3463 178 
Q 3153 47 2828 -22 
Q 2503 -91 2169 -91 
Q 1331 -91 842 396 
Q 353 884 353 1716 
Q 353 2575 817 3079 
Q 1281 3584 2069 3584 
Q 2775 3584 3186 3129 
Q 3597 2675 3597 1894 
z
M 3022 2063 
Q 3016 2534 2758 2815 
Q 2500 3097 2075 3097 
Q 1594 3097 1305 2825 
Q 1016 2553 972 2059 
L 3022 2063 
z
" transform="scale(0.015625)"/>
       <path id="DejaVuSans-20" transform="scale(0.015625)"/>
       <path id="DejaVuSans-28" d="M 1984 4856 
Q 1566 4138 1362 3434 
Q 1159 2731 1159 2009 
Q 1159 1288 1364 580 
Q 1569 -128 1984 -844 
L 1484 -844 
Q 1016 -109 783 600 
Q 550 1309 550 2009 
Q 550 2706 781 3412 
Q 1013 4119 1484 4856 
L 1984 4856 
z
" transform="scale(0.015625)"/>
       <path id="DejaVuSans-73" d="M 2834 3397 
L 2834 2853 
Q 2591 2978 2328 3040 
Q 2066 3103 1784 3103 
Q 1356 3103 1142 2972 
Q 928 2841 928 2578 
Q 928 2378 1081 2264 
Q 1234 2150 1697 2047 
L 1894 2003 
Q 2506 1872 2764 1633 
Q 3022 1394 3022 966 
Q 3022 478 2636 193 
Q 2250 -91 1575 -91 
Q 1294 -91 989 -36 
Q 684 19 347 128 
L 347 722 
Q 666 556 975 473 
Q 1284 391 1588 391 
Q 1994 391 2212 530 
Q 2431 669 2431 922 
Q 2431 1156 2273 1281 
Q 2116 1406 1581 1522 
L 1381 1569 
Q 847 1681 609 1914 
Q 372 2147 372 2553 
Q 372 3047 722 3315 
Q 1072 3584 1716 3584 
Q 2034 3584 2315 3537 
Q 2597 3491 2834 3397 
z
" transform="scale(0.015625)"/>
       <path id="DejaVuSans-29" d="M 513 4856 
L 1013 4856 
Q 1481 4119 1714 3412 
Q 1947 2706 1947 2009 
Q 1947 1309 1714 600 
Q 1481 -109 1013 -844 
L 513 -844 
Q 928 -128 1133 580 
Q 1338 1288 1338 2009 
Q 1338 2731 1133 3434 
Q 928 4138 513 4856 
z
" transform="scale(0.015625)"/>
      </defs>
      <use xlink:href="#DejaVuSans-54"/>
      <use xlink:href="#DejaVuSans-69" transform="translate(57.958984 0)"/>
      <use xlink:href="#DejaVuSans-6d" transform="translate(85.742188 0)"/>
      <use xlink:href="#DejaVuSans-65" transform="translate(183.154297 0)"/>
      <use xlink:href="#DejaVuSans-20" transform="translate(244.677734 0)"/>
      <use xlink:href="#DejaVuSans-28" transform="translate(276.464844 0)"/>
      <use xlink:href="#DejaVuSans-73" transform="translate(315.478516 0)"/>
      <use xlink:href="#DejaVuSans-29" transform="translate(367.578125 0)"/>
     </g>
    </g>
   </g>
   <g id="matplotlib.axis_2">
    <g id="ytick_1">
     <g id="line2d_8">
      <defs>
       <path id="m79bb7d1e20" d="M 0 0 
L -3.5 0 
" style="stroke: #000000; stroke-width: 0.8"/>
      </defs>
      <g>
       <use xlink:href="#m79bb7d1e20" x="56" y="169.977447" style="stroke: #000000; stroke-width: 0.8"/>
      </g>
     </g>
     <g id="text_9">
      <!-- −0.5 -->
      <g transform="translate(24.717187 173.776665) scale(0.1 -0.1)">
       <defs>
        <path id="DejaVuSans-2212" d="M 678 2272 
L 4684 2272 
L 4684 1741 
L 678 1741 
L 678 2272 
z
" transform="scale(0.015625)"/>
        <path id="DejaVuSans-2e" d="M 684 794 
L 1344 794 
L 1344 0 
L 684 0 
L 684 794 
z
" transform="scale(0.015625)"/>
       </defs>
       <use xlink:href="#DejaVuSans-2212"/>
       <use xlink:href="#DejaVuSans-30" transform="translate(83.789062 0)"/>
       <use xlink:href="#DejaVuSans-2e" transform="translate(147.412109 0)"/>
       <use xlink:href="#DejaVuSans-35" transform="translate(179.199219 0)"/>
      </g>
     </g>
    </g>
    <g id="ytick_2">
     <g id="line2d_9">
      <g>
       <use xlink:href="#m79bb7d1e20" x="56" y="130.643454" style="stroke: #000000; stroke-width: 0.8"/>
      </g>
     </g>
     <g id="text_10">
      <!-- 0.0 -->
      <g transform="translate(33.096875 134.442673) scale(0.1 -0.1)">
       <use xlink:href="#DejaVuSans-30"/>
       <use xlink:href="#DejaVuSans-2e" transform="translate(63.623047 0)"/>
       <use xlink:href="#DejaVuSans-30" transform="translate(95.410156 0)"/>
      </g>
     </g>
    </g>
    <g id="ytick_3">
     <g id="line2d_10">
      <g>
       <use xlink:href="#m79bb7d1e20" x="56" y="91.309461" style="stroke: #000000; stroke-width: 0.8"/>
      </g>
     </g>
     <g id="text_11">
      <!-- 0.5 -->
      <g transform="translate(33.096875 95.10868) scale(0.1 -0.1)">
       <use xlink:href="#DejaVuSans-30"/>
       <use xlink:href="#DejaVuSans-2e" transform="translate(63.623047 0)"/>
       <use xlink:href="#DejaVuSans-35" transform="translate(95.410156 0)"/>
      </g>
     </g>
    </g>
    <g id="ytick_4">
     <g id="line2d_11">
      <g>
       <use xlink:href="#m79bb7d1e20" x="56" y="51.975469" style="stroke: #000000; stroke-width: 0.8"/>
      </g>
     </g>
     <g id="text_12">
      <!-- 1.0 -->
      <g transform="translate(33.096875 55.774688) scale(0.1 -0.1)">
       <use xlink:href="#DejaVuSans-31"/>
       <use xlink:href="#DejaVuSans-2e" transform="translate(63.623047 0)"/>
       <use xlink:href="#DejaVuSans-30" transform="translate(95.410156 0)"/>
      </g>
     </g>
    </g>
    <g id="text_13">
     <!-- Position (m) -->
     <g transform="translate(18.6375 137.005) rotate(-90) scale(0.1 -0.1)">
      <defs>
       <path id="DejaVuSans-50" d="M 1259 4147 
L 1259 2394 
L 2053 2394 
Q 2494 2394 2734 2622 
Q 2975 2850 2975 3272 
Q 2975 3691 2734 3919 
Q 2494 4147 2053 4147 
L 1259 4147 
z
M 628 4666 
L 2053 4666 
Q 2838 4666 3239 4311 
Q 3641 3956 3641 3272 
Q 3641 2581 3239 2228 
Q 2838 1875 2053 1875 
L 1259 1875 
L 1259 0 
L 628 0 
L 628 4666 
z
" transform="scale(0.015625)"/>
       <path id="DejaVuSans-6f" d="M 1959 3097 
Q 1497 3097 1228 2736 
Q 959 2375 959 1747 
Q 959 1119 1226 758 
Q 1494 397 1959 397 
Q 2419 397 2687 759 
Q 2956 1122 2956 1747 
Q 2956 2369 2687 2733 
Q 2419 3097 1959 3097 
z
M 1959 3584 
Q 2709 3584 3137 3096 
Q 3566 2609 3566 1747 
Q 3566 888 3137 398 
Q 2709 -91 1959 -91 
Q 1206 -91 779 398 
Q 353 888 353 1747 
Q 353 2609 779 3096 
Q 1206 3584 1959 3584 
z
" transform="scale(0.015625)"/>
       <path id="DejaVuSans-74" d="M 1172 4494 
L 1172 3500 
L 2356 3500 
L 2356 3053 
L 1172 3053 
L 1172 1153 
Q 1172 725 1289 603 
Q 1406 481 1766 481 
L 2356 481 
L 2356 0 
L 1766 0 
Q 1100 0 847 248 
Q 594 497 594 1153 
L 594 3053 
L 172 3053 
L 172 3500 
L 594 3500 
L 594 4494 
L 1172 4494 
z
" transform="scale(0.015625)"/>
       <path id="DejaVuSans-6e" d="M 3513 2113 
L 3513 0 
L 2938 0 
L 2938 2094 
Q 2938 2591 2744 2837 
Q 2550 3084 2163 3084 
Q 1697 3084 1428 2787 
Q 1159 2491 1159 1978 
L 1159 0 
L 581 0 
L 581 3500 
L 1159 3500 
L 1159 2956 
Q 1366 3272 1645 3428 
Q 1925 3584 2291 3584 
Q 2894 3584 3203 3211 
Q 3513 2838 3513 2113 
z
" transform="scale(0.015625)"/>
      </defs>
      <use xlink:href="#DejaVuSans-50"/>
      <use xlink:href="#DejaVuSans-6f" transform="translate(56.677734 0)"/>
      <use xlink:href="#DejaVuSans-73" transform="translate(117.859375 0)"/>
      <use xlink:href="#DejaVuSans-69" transform="translate(169.958984 0)"/>
      <use xlink:href="#DejaVuSans-74" transform="translate(197.742188 0)"/>
      <use xlink:href="#DejaVuSans-69" transform="translate(236.951172 0)"/>
      <use xlink:href="#DejaVuSans-6f" transform="translate(264.734375 0)"/>
      <use xlink:href="#DejaVuSans-6e" transform="translate(325.916016 0)"/>
      <use xlink:href="#DejaVuSans-20" transform="translate(389.294922 0)"/>
      <use xlink:href="#DejaVuSans-28" transform="translate(421.082031 0)"/>
      <use xlink:href="#DejaVuSans-6d" transform="translate(460.095703 0)"/>
      <use xlink:href="#DejaVuSans-29" transform="translate(557.507812 0)"/>
     </g>
    </g>
   </g>
   <g id="line2d_12">
    <path d="M 92.236364 130.643454 
L 92.357172 130.573393 
L 92.598788 130.014909 
L 92.961212 128.175741 
L 93.444444 124.00005 
L 94.048484 116.386044 
L 94.89414 102.387196 
L 97.91434 48.824999 
L 98.639188 40.850837 
L 99.243228 36.555526 
L 99.72646 34.693605 
L 100.088885 34.183802 
L 100.330501 34.2693 
L 100.572117 34.723868 
L 100.934541 36.055749 
L 101.417773 38.922298 
L 102.021813 43.962899 
L 102.988277 54.301871 
L 105.162821 78.519075 
L 106.008477 85.245286 
L 106.612517 88.560655 
L 107.095749 90.270007 
L 107.458173 91.011735 
L 107.820597 91.311427 
L 108.062213 91.262732 
L 108.303829 91.007213 
L 108.666253 90.268878 
L 109.149486 88.709532 
L 109.874334 85.433662 
L 112.894534 70.236039 
L 113.498574 68.603056 
L 113.981806 67.853254 
L 114.34423 67.622241 
L 114.706654 67.666972 
L 115.069078 67.969559 
L 115.55231 68.744961 
L 116.15635 70.238173 
L 117.002006 73.077141 
L 118.814127 80.362842 
L 120.022207 84.680976 
L 120.867863 86.954734 
L 121.592711 88.310854 
L 122.196751 89.022713 
L 122.800791 89.389131 
L 123.284023 89.452572 
L 123.767255 89.312087 
L 124.371295 88.906971 
L 125.337759 87.939855 
L 126.908263 86.332223 
L 127.633112 85.858684 
L 128.237152 85.672199 
L 128.841192 85.688735 
L 129.445232 85.901318 
L 130.17008 86.396951 
L 131.015736 87.248904 
L 132.344624 88.958542 
L 134.519168 91.773256 
L 135.60644 92.816937 
L 136.572905 93.450651 
L 137.539369 93.820208 
L 138.505833 93.966897 
L 139.713913 93.906596 
L 143.579769 93.54644 
L 145.512698 93.65897 
L 147.324818 94.006402 
L 154.331683 95.626042 
L 157.110267 95.821517 
L 167.137332 96.09089 
L 173.660965 96.088272 
L 177.768437 95.879762 
L 189.366006 95.132273 
L 196.493679 94.948027 
L 203.862968 94.995149 
L 209.903369 95.308215 
L 213.285993 95.396242 
L 213.648417 95.087004 
L 214.131649 94.34558 
L 214.977305 92.487342 
L 216.185385 89.802891 
L 216.789426 88.971737 
L 217.15185 88.749278 
L 217.514274 88.771719 
L 217.876698 89.097205 
L 218.239122 89.769263 
L 218.722354 91.195886 
L 219.326394 93.766633 
L 220.051242 97.856448 
L 221.138514 105.490221 
L 224.40033 129.61786 
L 225.366794 134.840775 
L 226.212451 138.329889 
L 227.058107 140.875488 
L 227.782955 142.411091 
L 228.507803 143.458797 
L 229.232651 144.123276 
L 229.957499 144.496426 
L 230.803155 144.664142 
L 232.977699 144.850527 
L 233.460931 145.230789 
L 234.064971 146.049864 
L 234.78982 147.511437 
L 235.635476 149.757544 
L 236.964364 154.010575 
L 239.0181 160.538629 
L 240.105372 163.207791 
L 240.951028 164.731219 
L 241.675876 165.643708 
L 242.400724 166.220405 
L 243.125572 166.500189 
L 243.729613 166.519189 
L 244.454461 166.308607 
L 245.783349 165.612859 
L 246.991429 165.076523 
L 247.837085 164.94596 
L 248.682741 165.05908 
L 249.528397 165.442003 
L 250.494861 166.170903 
L 251.823749 167.512716 
L 254.481526 170.272758 
L 255.689606 171.153728 
L 256.776878 171.660446 
L 257.86415 171.920378 
L 259.07223 171.973231 
L 266.199903 171.821971 
L 268.374447 172.116953 
L 274.656464 173.14756 
L 277.797472 173.291226 
L 291.448778 173.625947 
L 296.76433 173.795688 
L 305.704123 173.814289 
L 309.811596 173.657704 
L 323.704517 172.906417 
L 330.83219 172.810786 
L 334.094007 172.907572 
L 334.456431 173.267826 
L 334.939663 174.091001 
L 335.785319 176.111235 
L 336.993399 179.005806 
L 337.597439 179.90634 
L 337.959863 180.153647 
L 338.322287 180.141417 
L 338.684711 179.808344 
L 339.047135 179.108048 
L 339.530367 177.612815 
L 340.134407 174.910897 
L 340.859255 170.608635 
L 341.946527 162.579873 
L 345.208344 137.306139 
L 346.174808 131.880191 
L 347.020464 128.27881 
L 347.86612 125.673355 
L 348.590968 124.121065 
L 349.315816 123.082376 
L 350.040664 122.449022 
L 350.765512 122.131005 
L 351.490361 122.068693 
L 353.423289 122.17058 
L 353.906521 121.921739 
L 354.389753 121.421109 
L 354.993793 120.416642 
L 355.718641 118.711537 
L 356.685105 115.774896 
L 360.67177 102.761822 
L 361.517426 101.048242 
L 362.242274 100.008551 
L 362.967122 99.333113 
L 363.69197 98.982422 
L 364.29601 98.920062 
L 365.020858 99.108326 
L 366.10813 99.700893 
L 367.678634 100.541557 
L 368.52429 100.728992 
L 369.369947 100.660927 
L 370.094795 100.38772 
L 370.940451 99.834671 
L 372.027723 98.843201 
L 375.772771 95.137629 
L 376.860043 94.485233 
L 377.947315 94.099768 
L 379.034588 93.944209 
L 380.484284 93.995347 
L 384.229332 94.217592 
L 386.887108 94.116174 
L 389.061653 93.775735 
L 394.739629 92.762038 
L 397.75983 92.554641 
L 405.974775 92.344107 
L 413.706487 92.258797 
L 420.23012 92.368445 
L 434.485466 92.923373 
L 443.304451 92.932649 
L 447.774347 92.730605 
L 454.90202 92.232072 
L 455.264444 91.849719 
L 455.747676 91.006713 
L 456.593332 88.978053 
L 457.801412 86.125709 
L 458.405452 85.264865 
L 458.767876 85.045412 
L 459.130301 85.087698 
L 459.492725 85.452053 
L 459.855149 86.179447 
L 460.338381 87.70859 
L 460.942421 90.454511 
L 461.667269 94.808154 
L 462.754541 102.902943 
L 465.895549 127.464701 
L 466.862013 133.043415 
L 467.707669 136.77078 
L 468.553326 139.482253 
L 469.278174 141.107885 
L 470.003022 142.201472 
L 470.72787 142.871837 
L 471.452718 143.210007 
L 472.177566 143.27333 
L 474.231302 143.113092 
L 474.714534 143.365453 
L 475.197766 143.872759 
L 475.801806 144.887125 
L 476.526654 146.6038 
L 477.493119 149.551705 
L 481.358975 162.217983 
L 482.204631 163.976324 
L 482.929479 165.050274 
L 483.654327 165.75285 
L 484.379175 166.123516 
L 484.983215 166.198746 
L 485.587255 166.06576 
L 486.432912 165.64468 
L 488.607456 164.449511 
L 489.453112 164.300266 
L 490.298768 164.406033 
L 491.144424 164.777665 
L 492.110888 165.485993 
L 493.439776 166.779899 
L 495.855937 169.177771 
L 497.064017 170.03114 
L 498.151289 170.514972 
L 499.238561 170.749316 
L 500.446641 170.770392 
L 503.225225 170.491928 
L 505.39977 170.426122 
L 508.540778 170.530466 
L 511.44017 170.897051 
L 516.030875 171.475192 
L 519.775923 171.670278 
L 527.749252 171.79196 
L 536.809853 171.746191 
L 541.762982 171.445055 
L 548.52823 171.074186 
L 556.139135 170.89393 
L 564.112464 170.934695 
L 569.911249 171.243111 
L 575.710033 171.612774 
L 576.072458 172.00602 
L 576.55569 172.858965 
L 577.401346 174.890966 
L 578.609426 177.717138 
L 579.213466 178.552923 
L 579.57589 178.754542 
L 579.938314 178.690948 
L 580.300738 178.297172 
L 580.663162 177.536648 
L 581.146394 175.961588 
L 581.750434 173.158932 
L 582.59609 167.91509 
L 583.80417 158.620488 
L 586.341139 138.525857 
L 587.428411 131.880577 
L 588.274067 127.941999 
L 589.119723 125.055191 
L 589.844571 123.315157 
L 590.569419 122.142177 
L 591.294267 121.425388 
L 591.898307 121.10915 
L 592.502347 121.012662 
L 593.227195 121.14442 
L 594.435276 121.402009 
L 595.039316 121.312961 
L 595.522548 121.008195 
L 596.00578 120.430126 
L 596.60982 119.318766 
L 597.334668 117.486912 
L 598.301132 114.402716 
L 601.804564 102.546185 
L 602.65022 100.621051 
L 603.375069 99.417692 
L 604.099917 98.60808 
L 604.824765 98.152267 
L 605.428805 98.016859 
L 606.032845 98.104353 
L 606.878501 98.506145 
L 609.415469 99.951134 
L 610.140317 100.061438 
L 610.865165 99.973714 
L 611.590013 99.678294 
L 612.43567 99.099818 
L 613.64375 97.958954 
L 616.784758 94.804867 
L 617.87203 94.08653 
L 618.959302 93.646658 
L 620.046574 93.451406 
L 621.254655 93.463411 
L 627.295055 93.830078 
L 630.07364 93.707553 
L 633.577072 93.280377 
L 637.805352 92.820945 
L 642.275249 92.603995 
L 651.215042 92.435731 
L 659.671603 92.496597 
L 667.403316 92.907591 
L 674.41018 93.109776 
L 683.470781 93.137236 
L 687.336638 92.965042 
L 696.518047 92.262741 
L 696.880471 91.854123 
L 697.484511 90.722254 
L 698.692591 87.699207 
L 699.538247 85.902458 
L 700.021479 85.286644 
L 700.383903 85.093983 
L 700.746327 85.167895 
L 701.108751 85.572122 
L 701.471175 86.341288 
L 701.954408 87.924508 
L 702.558448 90.732659 
L 703.404104 95.977794 
L 704.612184 105.26868 
L 707.149152 125.381134 
L 708.236424 132.05666 
L 709.08208 136.028402 
L 709.927736 138.948255 
L 710.652585 140.705206 
L 711.377433 141.890014 
L 712.102281 142.61837 
L 712.706321 142.948206 
L 713.310361 143.068769 
L 714.035209 142.97793 
L 715.243289 142.792687 
L 715.847329 142.932183 
L 716.330561 143.29935 
L 716.813793 143.950109 
L 717.417833 145.157457 
L 718.142681 147.106646 
L 719.229953 150.78185 
L 722.250154 161.552707 
L 723.216618 164.022857 
L 724.062274 165.572651 
L 724.787122 166.450739 
L 725.391162 166.891091 
L 725.995202 167.094272 
L 726.599242 167.062447 
L 727.32409 166.759148 
L 728.773787 165.79763 
L 729.861059 165.229787 
L 730.585907 165.084414 
L 731.310755 165.160568 
L 732.035603 165.478876 
L 732.881259 166.135881 
L 733.968531 167.323392 
L 737.71358 171.777484 
L 738.680044 172.484921 
L 739.646508 172.932272 
L 740.612972 173.15196 
L 741.700244 173.169143 
L 743.512364 172.92695 
L 745.5661 172.708882 
L 747.982261 172.74597 
L 750.035997 173.001218 
L 753.660237 173.747331 
L 756.438822 174.193735 
L 759.338214 174.418326 
L 764.532959 174.546041 
L 774.922448 174.624585 
L 778.788304 174.476541 
L 793.64769 173.624705 
L 801.137787 173.522573 
L 808.265459 173.633131 
L 816.963636 174.009971 
L 816.963636 174.009971 
" clip-path="url(#p1b740f1dad)" style="fill: none; stroke: #1f77b4; stroke-width: 1.5; stroke-linecap: square"/>
   </g>
   <g id="line2d_13">
    <path d="M 92.236364 91.309461 
L 212.923569 91.309461 
L 213.044377 169.977447 
L 333.731583 169.977447 
L 333.852391 91.309461 
L 454.539596 91.309461 
L 454.660404 169.977447 
L 575.347609 169.977447 
L 575.468417 91.309461 
L 696.155623 91.309461 
L 696.276431 169.977447 
L 816.842828 169.977447 
L 816.963636 91.309461 
L 816.963636 91.309461 
" clip-path="url(#p1b740f1dad)" style="fill: none; stroke-dasharray: 5.55,2.4; stroke-dashoffset: 0; stroke: #ff7f0e; stroke-opacity: 0.6; stroke-width: 1.5"/>
   </g>
   <g id="patch_3">
    <path d="M 56 187.48 
L 56 26.88 
" style="fill: none; stroke: #000000; stroke-width: 0.8; stroke-linejoin: miter; stroke-linecap: square"/>
   </g>
   <g id="patch_4">
    <path d="M 853.2 187.48 
L 853.2 26.88 
" style="fill: none; stroke: #000000; stroke-width: 0.8; stroke-linejoin: miter; stroke-linecap: square"/>
   </g>
   <g id="patch_5">
    <path d="M 56 187.48 
L 853.2 187.48 
" style="fill: none; stroke: #000000; stroke-width: 0.8; stroke-linejoin: miter; stroke-linecap: square"/>
   </g>
   <g id="patch_6">
    <path d="M 56 26.88 
L 853.2 26.88 
" style="fill: none; stroke: #000000; stroke-width: 0.8; stroke-linejoin: miter; stroke-linecap: square"/>
   </g>
   <g id="text_14">
    <!-- Inverted Pendulum on a Cart : System States -->
    <g transform="translate(319.057188 20.88) scale(0.12 -0.12)">
     <defs>
      <path id="DejaVuSans-49" d="M 628 4666 
L 1259 4666 
L 1259 0 
L 628 0 
L 628 4666 
z
" transform="scale(0.015625)"/>
      <path id="DejaVuSans-76" d="M 191 3500 
L 800 3500 
L 1894 563 
L 2988 3500 
L 3597 3500 
L 2284 0 
L 1503 0 
L 191 3500 
z
" transform="scale(0.015625)"/>
      <path id="DejaVuSans-72" d="M 2631 2963 
Q 2534 3019 2420 3045 
Q 2306 3072 2169 3072 
Q 1681 3072 1420 2755 
Q 1159 2438 1159 1844 
L 1159 0 
L 581 0 
L 581 3500 
L 1159 3500 
L 1159 2956 
Q 1341 3275 1631 3429 
Q 1922 3584 2338 3584 
Q 2397 3584 2469 3576 
Q 2541 3569 2628 3553 
L 2631 2963 
z
" transform="scale(0.015625)"/>
      <path id="DejaVuSans-64" d="M 2906 2969 
L 2906 4863 
L 3481 4863 
L 3481 0 
L 2906 0 
L 2906 525 
Q 2725 213 2448 61 
Q 2172 -91 1784 -91 
Q 1150 -91 751 415 
Q 353 922 353 1747 
Q 353 2572 751 3078 
Q 1150 3584 1784 3584 
Q 2172 3584 2448 3432 
Q 2725 3281 2906 2969 
z
M 947 1747 
Q 947 1113 1208 752 
Q 1469 391 1925 391 
Q 2381 391 2643 752 
Q 2906 1113 2906 1747 
Q 2906 2381 2643 2742 
Q 2381 3103 1925 3103 
Q 1469 3103 1208 2742 
Q 947 2381 947 1747 
z
" transform="scale(0.015625)"/>
      <path id="DejaVuSans-75" d="M 544 1381 
L 544 3500 
L 1119 3500 
L 1119 1403 
Q 1119 906 1312 657 
Q 1506 409 1894 409 
Q 2359 409 2629 706 
Q 2900 1003 2900 1516 
L 2900 3500 
L 3475 3500 
L 3475 0 
L 2900 0 
L 2900 538 
Q 2691 219 2414 64 
Q 2138 -91 1772 -91 
Q 1169 -91 856 284 
Q 544 659 544 1381 
z
M 1991 3584 
L 1991 3584 
z
" transform="scale(0.015625)"/>
      <path id="DejaVuSans-6c" d="M 603 4863 
L 1178 4863 
L 1178 0 
L 603 0 
L 603 4863 
z
" transform="scale(0.015625)"/>
      <path id="DejaVuSans-61" d="M 2194 1759 
Q 1497 1759 1228 1600 
Q 959 1441 959 1056 
Q 959 750 1161 570 
Q 1363 391 1709 391 
Q 2188 391 2477 730 
Q 2766 1069 2766 1631 
L 2766 1759 
L 2194 1759 
z
M 3341 1997 
L 3341 0 
L 2766 0 
L 2766 531 
Q 2569 213 2275 61 
Q 1981 -91 1556 -91 
Q 1019 -91 701 211 
Q 384 513 384 1019 
Q 384 1609 779 1909 
Q 1175 2209 1959 2209 
L 2766 2209 
L 2766 2266 
Q 2766 2663 2505 2880 
Q 2244 3097 1772 3097 
Q 1472 3097 1187 3025 
Q 903 2953 641 2809 
L 641 3341 
Q 956 3463 1253 3523 
Q 1550 3584 1831 3584 
Q 2591 3584 2966 3190 
Q 3341 2797 3341 1997 
z
" transform="scale(0.015625)"/>
      <path id="DejaVuSans-43" d="M 4122 4306 
L 4122 3641 
Q 3803 3938 3442 4084 
Q 3081 4231 2675 4231 
Q 1875 4231 1450 3742 
Q 1025 3253 1025 2328 
Q 1025 1406 1450 917 
Q 1875 428 2675 428 
Q 3081 428 3442 575 
Q 3803 722 4122 1019 
L 4122 359 
Q 3791 134 3420 21 
Q 3050 -91 2638 -91 
Q 1578 -91 968 557 
Q 359 1206 359 2328 
Q 359 3453 968 4101 
Q 1578 4750 2638 4750 
Q 3056 4750 3426 4639 
Q 3797 4528 4122 4306 
z
" transform="scale(0.015625)"/>
      <path id="DejaVuSans-3a" d="M 750 794 
L 1409 794 
L 1409 0 
L 750 0 
L 750 794 
z
M 750 3309 
L 1409 3309 
L 1409 2516 
L 750 2516 
L 750 3309 
z
" transform="scale(0.015625)"/>
      <path id="DejaVuSans-53" d="M 3425 4513 
L 3425 3897 
Q 3066 4069 2747 4153 
Q 2428 4238 2131 4238 
Q 1616 4238 1336 4038 
Q 1056 3838 1056 3469 
Q 1056 3159 1242 3001 
Q 1428 2844 1947 2747 
L 2328 2669 
Q 3034 2534 3370 2195 
Q 3706 1856 3706 1288 
Q 3706 609 3251 259 
Q 2797 -91 1919 -91 
Q 1588 -91 1214 -16 
Q 841 59 441 206 
L 441 856 
Q 825 641 1194 531 
Q 1563 422 1919 422 
Q 2459 422 2753 634 
Q 3047 847 3047 1241 
Q 3047 1584 2836 1778 
Q 2625 1972 2144 2069 
L 1759 2144 
Q 1053 2284 737 2584 
Q 422 2884 422 3419 
Q 422 4038 858 4394 
Q 1294 4750 2059 4750 
Q 2388 4750 2728 4690 
Q 3069 4631 3425 4513 
z
" transform="scale(0.015625)"/>
      <path id="DejaVuSans-79" d="M 2059 -325 
Q 1816 -950 1584 -1140 
Q 1353 -1331 966 -1331 
L 506 -1331 
L 506 -850 
L 844 -850 
Q 1081 -850 1212 -737 
Q 1344 -625 1503 -206 
L 1606 56 
L 191 3500 
L 800 3500 
L 1894 763 
L 2988 3500 
L 3597 3500 
L 2059 -325 
z
" transform="scale(0.015625)"/>
     </defs>
     <use xlink:href="#DejaVuSans-49"/>
     <use xlink:href="#DejaVuSans-6e" transform="translate(29.492188 0)"/>
     <use xlink:href="#DejaVuSans-76" transform="translate(92.871094 0)"/>
     <use xlink:href="#DejaVuSans-65" transform="translate(152.050781 0)"/>
     <use xlink:href="#DejaVuSans-72" transform="translate(213.574219 0)"/>
     <use xlink:href="#DejaVuSans-74" transform="translate(254.6875 0)"/>
     <use xlink:href="#DejaVuSans-65" transform="translate(293.896484 0)"/>
     <use xlink:href="#DejaVuSans-64" transform="translate(355.419922 0)"/>
     <use xlink:href="#DejaVuSans-20" transform="translate(418.896484 0)"/>
     <use xlink:href="#DejaVuSans-50" transform="translate(450.683594 0)"/>
     <use xlink:href="#DejaVuSans-65" transform="translate(507.361328 0)"/>
     <use xlink:href="#DejaVuSans-6e" transform="translate(568.884766 0)"/>
     <use xlink:href="#DejaVuSans-64" transform="translate(632.263672 0)"/>
     <use xlink:href="#DejaVuSans-75" transform="translate(695.740234 0)"/>
     <use xlink:href="#DejaVuSans-6c" transform="translate(759.119141 0)"/>
     <use xlink:href="#DejaVuSans-75" transform="translate(786.902344 0)"/>
     <use xlink:href="#DejaVuSans-6d" transform="translate(850.28125 0)"/>
     <use xlink:href="#DejaVuSans-20" transform="translate(947.693359 0)"/>
     <use xlink:href="#DejaVuSans-6f" transform="translate(979.480469 0)"/>
     <use xlink:href="#DejaVuSans-6e" transform="translate(1040.662109 0)"/>
     <use xlink:href="#DejaVuSans-20" transform="translate(1104.041016 0)"/>
     <use xlink:href="#DejaVuSans-61" transform="translate(1135.828125 0)"/>
     <use xlink:href="#DejaVuSans-20" transform="translate(1197.107422 0)"/>
     <use xlink:href="#DejaVuSans-43" transform="translate(1228.894531 0)"/>
     <use xlink:href="#DejaVuSans-61" transform="translate(1298.71875 0)"/>
     <use xlink:href="#DejaVuSans-72" transform="translate(1359.998047 0)"/>
     <use xlink:href="#DejaVuSans-74" transform="translate(1401.111328 0)"/>
     <use xlink:href="#DejaVuSans-20" transform="translate(1440.320312 0)"/>
     <use xlink:href="#DejaVuSans-3a" transform="translate(1472.107422 0)"/>
     <use xlink:href="#DejaVuSans-20" transform="translate(1505.798828 0)"/>
     <use xlink:href="#DejaVuSans-53" transform="translate(1537.585938 0)"/>
     <use xlink:href="#DejaVuSans-79" transform="translate(1601.0625 0)"/>
     <use xlink:href="#DejaVuSans-73" transform="translate(1660.242188 0)"/>
     <use xlink:href="#DejaVuSans-74" transform="translate(1712.341797 0)"/>
     <use xlink:href="#DejaVuSans-65" transform="translate(1751.550781 0)"/>
     <use xlink:href="#DejaVuSans-6d" transform="translate(1813.074219 0)"/>
     <use xlink:href="#DejaVuSans-20" transform="translate(1910.486328 0)"/>
     <use xlink:href="#DejaVuSans-53" transform="translate(1942.273438 0)"/>
     <use xlink:href="#DejaVuSans-74" transform="translate(2005.75 0)"/>
     <use xlink:href="#DejaVuSans-61" transform="translate(2044.958984 0)"/>
     <use xlink:href="#DejaVuSans-74" transform="translate(2106.238281 0)"/>
     <use xlink:href="#DejaVuSans-65" transform="translate(2145.447266 0)"/>
     <use xlink:href="#DejaVuSans-73" transform="translate(2206.970703 0)"/>
    </g>
   </g>
   <g id="legend_1">
    <g id="patch_7">
     <path d="M 719.34375 64.514375 
L 846.2 64.514375 
Q 848.2 64.514375 848.2 62.514375 
L 848.2 33.88 
Q 848.2 31.88 846.2 31.88 
L 719.34375 31.88 
Q 717.34375 31.88 717.34375 33.88 
L 717.34375 62.514375 
Q 717.34375 64.514375 719.34375 64.514375 
z
" style="fill: #ffffff; opacity: 0.8; stroke: #cccccc; stroke-linejoin: miter"/>
    </g>
    <g id="line2d_14">
     <path d="M 721.34375 39.978437 
L 731.34375 39.978437 
L 741.34375 39.978437 
" style="fill: none; stroke: #1f77b4; stroke-width: 1.5; stroke-linecap: square"/>
    </g>
    <g id="text_15">
     <!-- Cart position x -->
     <g transform="translate(749.34375 43.478437) scale(0.1 -0.1)">
      <defs>
       <path id="DejaVuSans-70" d="M 1159 525 
L 1159 -1331 
L 581 -1331 
L 581 3500 
L 1159 3500 
L 1159 2969 
Q 1341 3281 1617 3432 
Q 1894 3584 2278 3584 
Q 2916 3584 3314 3078 
Q 3713 2572 3713 1747 
Q 3713 922 3314 415 
Q 2916 -91 2278 -91 
Q 1894 -91 1617 61 
Q 1341 213 1159 525 
z
M 3116 1747 
Q 3116 2381 2855 2742 
Q 2594 3103 2138 3103 
Q 1681 3103 1420 2742 
Q 1159 2381 1159 1747 
Q 1159 1113 1420 752 
Q 1681 391 2138 391 
Q 2594 391 2855 752 
Q 3116 1113 3116 1747 
z
" transform="scale(0.015625)"/>
       <path id="DejaVuSans-78" d="M 3513 3500 
L 2247 1797 
L 3578 0 
L 2900 0 
L 1881 1375 
L 863 0 
L 184 0 
L 1544 1831 
L 300 3500 
L 978 3500 
L 1906 2253 
L 2834 3500 
L 3513 3500 
z
" transform="scale(0.015625)"/>
      </defs>
      <use xlink:href="#DejaVuSans-43"/>
      <use xlink:href="#DejaVuSans-61" transform="translate(69.824219 0)"/>
      <use xlink:href="#DejaVuSans-72" transform="translate(131.103516 0)"/>
      <use xlink:href="#DejaVuSans-74" transform="translate(172.216797 0)"/>
      <use xlink:href="#DejaVuSans-20" transform="translate(211.425781 0)"/>
      <use xlink:href="#DejaVuSans-70" transform="translate(243.212891 0)"/>
      <use xlink:href="#DejaVuSans-6f" transform="translate(306.689453 0)"/>
      <use xlink:href="#DejaVuSans-73" transform="translate(367.871094 0)"/>
      <use xlink:href="#DejaVuSans-69" transform="translate(419.970703 0)"/>
      <use xlink:href="#DejaVuSans-74" transform="translate(447.753906 0)"/>
      <use xlink:href="#DejaVuSans-69" transform="translate(486.962891 0)"/>
      <use xlink:href="#DejaVuSans-6f" transform="translate(514.746094 0)"/>
      <use xlink:href="#DejaVuSans-6e" transform="translate(575.927734 0)"/>
      <use xlink:href="#DejaVuSans-20" transform="translate(639.306641 0)"/>
      <use xlink:href="#DejaVuSans-78" transform="translate(671.09375 0)"/>
     </g>
    </g>
    <g id="line2d_15">
     <path d="M 721.34375 54.656563 
L 731.34375 54.656563 
L 741.34375 54.656563 
" style="fill: none; stroke-dasharray: 5.55,2.4; stroke-dashoffset: 0; stroke: #ff7f0e; stroke-opacity: 0.6; stroke-width: 1.5"/>
    </g>
    <g id="text_16">
     <!-- Reference x_target -->
     <g transform="translate(749.34375 58.156563) scale(0.1 -0.1)">
      <defs>
       <path id="DejaVuSans-52" d="M 2841 2188 
Q 3044 2119 3236 1894 
Q 3428 1669 3622 1275 
L 4263 0 
L 3584 0 
L 2988 1197 
Q 2756 1666 2539 1819 
Q 2322 1972 1947 1972 
L 1259 1972 
L 1259 0 
L 628 0 
L 628 4666 
L 2053 4666 
Q 2853 4666 3247 4331 
Q 3641 3997 3641 3322 
Q 3641 2881 3436 2590 
Q 3231 2300 2841 2188 
z
M 1259 4147 
L 1259 2491 
L 2053 2491 
Q 2509 2491 2742 2702 
Q 2975 2913 2975 3322 
Q 2975 3731 2742 3939 
Q 2509 4147 2053 4147 
L 1259 4147 
z
" transform="scale(0.015625)"/>
       <path id="DejaVuSans-66" d="M 2375 4863 
L 2375 4384 
L 1825 4384 
Q 1516 4384 1395 4259 
Q 1275 4134 1275 3809 
L 1275 3500 
L 2222 3500 
L 2222 3053 
L 1275 3053 
L 1275 0 
L 697 0 
L 697 3053 
L 147 3053 
L 147 3500 
L 697 3500 
L 697 3744 
Q 697 4328 969 4595 
Q 1241 4863 1831 4863 
L 2375 4863 
z
" transform="scale(0.015625)"/>
       <path id="DejaVuSans-63" d="M 3122 3366 
L 3122 2828 
Q 2878 2963 2633 3030 
Q 2388 3097 2138 3097 
Q 1578 3097 1268 2742 
Q 959 2388 959 1747 
Q 959 1106 1268 751 
Q 1578 397 2138 397 
Q 2388 397 2633 464 
Q 2878 531 3122 666 
L 3122 134 
Q 2881 22 2623 -34 
Q 2366 -91 2075 -91 
Q 1284 -91 818 406 
Q 353 903 353 1747 
Q 353 2603 823 3093 
Q 1294 3584 2113 3584 
Q 2378 3584 2631 3529 
Q 2884 3475 3122 3366 
z
" transform="scale(0.015625)"/>
       <path id="DejaVuSans-5f" d="M 3263 -1063 
L 3263 -1509 
L -63 -1509 
L -63 -1063 
L 3263 -1063 
z
" transform="scale(0.015625)"/>
       <path id="DejaVuSans-67" d="M 2906 1791 
Q 2906 2416 2648 2759 
Q 2391 3103 1925 3103 
Q 1463 3103 1205 2759 
Q 947 2416 947 1791 
Q 947 1169 1205 825 
Q 1463 481 1925 481 
Q 2391 481 2648 825 
Q 2906 1169 2906 1791 
z
M 3481 434 
Q 3481 -459 3084 -895 
Q 2688 -1331 1869 -1331 
Q 1566 -1331 1297 -1286 
Q 1028 -1241 775 -1147 
L 775 -588 
Q 1028 -725 1275 -790 
Q 1522 -856 1778 -856 
Q 2344 -856 2625 -561 
Q 2906 -266 2906 331 
L 2906 616 
Q 2728 306 2450 153 
Q 2172 0 1784 0 
Q 1141 0 747 490 
Q 353 981 353 1791 
Q 353 2603 747 3093 
Q 1141 3584 1784 3584 
Q 2172 3584 2450 3431 
Q 2728 3278 2906 2969 
L 2906 3500 
L 3481 3500 
L 3481 434 
z
" transform="scale(0.015625)"/>
      </defs>
      <use xlink:href="#DejaVuSans-52"/>
      <use xlink:href="#DejaVuSans-65" transform="translate(64.982422 0)"/>
      <use xlink:href="#DejaVuSans-66" transform="translate(126.505859 0)"/>
      <use xlink:href="#DejaVuSans-65" transform="translate(161.710938 0)"/>
      <use xlink:href="#DejaVuSans-72" transform="translate(223.234375 0)"/>
      <use xlink:href="#DejaVuSans-65" transform="translate(262.097656 0)"/>
      <use xlink:href="#DejaVuSans-6e" transform="translate(323.621094 0)"/>
      <use xlink:href="#DejaVuSans-63" transform="translate(387 0)"/>
      <use xlink:href="#DejaVuSans-65" transform="translate(441.980469 0)"/>
      <use xlink:href="#DejaVuSans-20" transform="translate(503.503906 0)"/>
      <use xlink:href="#DejaVuSans-78" transform="translate(535.291016 0)"/>
      <use xlink:href="#DejaVuSans-5f" transform="translate(594.470703 0)"/>
      <use xlink:href="#DejaVuSans-74" transform="translate(644.470703 0)"/>
      <use xlink:href="#DejaVuSans-61" transform="translate(683.679688 0)"/>
      <use xlink:href="#DejaVuSans-72" transform="translate(744.958984 0)"/>
      <use xlink:href="#DejaVuSans-67" transform="translate(784.322266 0)"/>
      <use xlink:href="#DejaVuSans-65" transform="translate(847.798828 0)"/>
      <use xlink:href="#DejaVuSans-74" transform="translate(909.322266 0)"/>
     </g>
    </g>
   </g>
  </g>
  <g id="axes_2">
   <g id="patch_8">
    <path d="M 56 390.04 
L 853.2 390.04 
L 853.2 229.44 
L 56 229.44 
z
" style="fill: #ffffff"/>
   </g>
   <g id="matplotlib.axis_3">
    <g id="xtick_8">
     <g id="line2d_16">
      <g>
       <use xlink:href="#m5ed5fb5e85" x="92.236364" y="390.04" style="stroke: #000000; stroke-width: 0.8"/>
      </g>
     </g>
     <g id="text_17">
      <!-- 0 -->
      <g transform="translate(89.055114 404.638437) scale(0.1 -0.1)">
       <use xlink:href="#DejaVuSans-30"/>
      </g>
     </g>
    </g>
    <g id="xtick_9">
     <g id="line2d_17">
      <g>
       <use xlink:href="#m5ed5fb5e85" x="213.024242" y="390.04" style="stroke: #000000; stroke-width: 0.8"/>
      </g>
     </g>
     <g id="text_18">
      <!-- 10 -->
      <g transform="translate(206.661742 404.638437) scale(0.1 -0.1)">
       <use xlink:href="#DejaVuSans-31"/>
       <use xlink:href="#DejaVuSans-30" transform="translate(63.623047 0)"/>
      </g>
     </g>
    </g>
    <g id="xtick_10">
     <g id="line2d_18">
      <g>
       <use xlink:href="#m5ed5fb5e85" x="333.812121" y="390.04" style="stroke: #000000; stroke-width: 0.8"/>
      </g>
     </g>
     <g id="text_19">
      <!-- 20 -->
      <g transform="translate(327.449621 404.638437) scale(0.1 -0.1)">
       <use xlink:href="#DejaVuSans-32"/>
       <use xlink:href="#DejaVuSans-30" transform="translate(63.623047 0)"/>
      </g>
     </g>
    </g>
    <g id="xtick_11">
     <g id="line2d_19">
      <g>
       <use xlink:href="#m5ed5fb5e85" x="454.6" y="390.04" style="stroke: #000000; stroke-width: 0.8"/>
      </g>
     </g>
     <g id="text_20">
      <!-- 30 -->
      <g transform="translate(448.2375 404.638437) scale(0.1 -0.1)">
       <use xlink:href="#DejaVuSans-33"/>
       <use xlink:href="#DejaVuSans-30" transform="translate(63.623047 0)"/>
      </g>
     </g>
    </g>
    <g id="xtick_12">
     <g id="line2d_20">
      <g>
       <use xlink:href="#m5ed5fb5e85" x="575.387879" y="390.04" style="stroke: #000000; stroke-width: 0.8"/>
      </g>
     </g>
     <g id="text_21">
      <!-- 40 -->
      <g transform="translate(569.025379 404.638437) scale(0.1 -0.1)">
       <use xlink:href="#DejaVuSans-34"/>
       <use xlink:href="#DejaVuSans-30" transform="translate(63.623047 0)"/>
      </g>
     </g>
    </g>
    <g id="xtick_13">
     <g id="line2d_21">
      <g>
       <use xlink:href="#m5ed5fb5e85" x="696.175758" y="390.04" style="stroke: #000000; stroke-width: 0.8"/>
      </g>
     </g>
     <g id="text_22">
      <!-- 50 -->
      <g transform="translate(689.813258 404.638437) scale(0.1 -0.1)">
       <use xlink:href="#DejaVuSans-35"/>
       <use xlink:href="#DejaVuSans-30" transform="translate(63.623047 0)"/>
      </g>
     </g>
    </g>
    <g id="xtick_14">
     <g id="line2d_22">
      <g>
       <use xlink:href="#m5ed5fb5e85" x="816.963636" y="390.04" style="stroke: #000000; stroke-width: 0.8"/>
      </g>
     </g>
     <g id="text_23">
      <!-- 60 -->
      <g transform="translate(810.601136 404.638437) scale(0.1 -0.1)">
       <use xlink:href="#DejaVuSans-36"/>
       <use xlink:href="#DejaVuSans-30" transform="translate(63.623047 0)"/>
      </g>
     </g>
    </g>
    <g id="text_24">
     <!-- Time (s) -->
     <g transform="translate(434.271094 418.316562) scale(0.1 -0.1)">
      <use xlink:href="#DejaVuSans-54"/>
      <use xlink:href="#DejaVuSans-69" transform="translate(57.958984 0)"/>
      <use xlink:href="#DejaVuSans-6d" transform="translate(85.742188 0)"/>
      <use xlink:href="#DejaVuSans-65" transform="translate(183.154297 0)"/>
      <use xlink:href="#DejaVuSans-20" transform="translate(244.677734 0)"/>
      <use xlink:href="#DejaVuSans-28" transform="translate(276.464844 0)"/>
      <use xlink:href="#DejaVuSans-73" transform="translate(315.478516 0)"/>
      <use xlink:href="#DejaVuSans-29" transform="translate(367.578125 0)"/>
     </g>
    </g>
   </g>
   <g id="matplotlib.axis_4">
    <g id="ytick_5">
     <g id="line2d_23">
      <g>
       <use xlink:href="#m79bb7d1e20" x="56" y="388.120737" style="stroke: #000000; stroke-width: 0.8"/>
      </g>
     </g>
     <g id="text_25">
      <!-- −2 -->
      <g transform="translate(34.257812 391.919955) scale(0.1 -0.1)">
       <use xlink:href="#DejaVuSans-2212"/>
       <use xlink:href="#DejaVuSans-32" transform="translate(83.789062 0)"/>
      </g>
     </g>
    </g>
    <g id="ytick_6">
     <g id="line2d_24">
      <g>
       <use xlink:href="#m79bb7d1e20" x="56" y="357.779886" style="stroke: #000000; stroke-width: 0.8"/>
      </g>
     </g>
     <g id="text_26">
      <!-- −1 -->
      <g transform="translate(34.257812 361.579105) scale(0.1 -0.1)">
       <use xlink:href="#DejaVuSans-2212"/>
       <use xlink:href="#DejaVuSans-31" transform="translate(83.789062 0)"/>
      </g>
     </g>
    </g>
    <g id="ytick_7">
     <g id="line2d_25">
      <g>
       <use xlink:href="#m79bb7d1e20" x="56" y="327.439036" style="stroke: #000000; stroke-width: 0.8"/>
      </g>
     </g>
     <g id="text_27">
      <!-- 0 -->
      <g transform="translate(42.6375 331.238254) scale(0.1 -0.1)">
       <use xlink:href="#DejaVuSans-30"/>
      </g>
     </g>
    </g>
    <g id="ytick_8">
     <g id="line2d_26">
      <g>
       <use xlink:href="#m79bb7d1e20" x="56" y="297.098185" style="stroke: #000000; stroke-width: 0.8"/>
      </g>
     </g>
     <g id="text_28">
      <!-- 1 -->
      <g transform="translate(42.6375 300.897404) scale(0.1 -0.1)">
       <use xlink:href="#DejaVuSans-31"/>
      </g>
     </g>
    </g>
    <g id="ytick_9">
     <g id="line2d_27">
      <g>
       <use xlink:href="#m79bb7d1e20" x="56" y="266.757335" style="stroke: #000000; stroke-width: 0.8"/>
      </g>
     </g>
     <g id="text_29">
      <!-- 2 -->
      <g transform="translate(42.6375 270.556554) scale(0.1 -0.1)">
       <use xlink:href="#DejaVuSans-32"/>
      </g>
     </g>
    </g>
    <g id="ytick_10">
     <g id="line2d_28">
      <g>
       <use xlink:href="#m79bb7d1e20" x="56" y="236.416484" style="stroke: #000000; stroke-width: 0.8"/>
      </g>
     </g>
     <g id="text_30">
      <!-- 3 -->
      <g transform="translate(42.6375 240.215703) scale(0.1 -0.1)">
       <use xlink:href="#DejaVuSans-33"/>
      </g>
     </g>
    </g>
    <g id="text_31">
     <!-- Velocity (m/s) -->
     <g transform="translate(28.178125 344.005625) rotate(-90) scale(0.1 -0.1)">
      <defs>
       <path id="DejaVuSans-56" d="M 1831 0 
L 50 4666 
L 709 4666 
L 2188 738 
L 3669 4666 
L 4325 4666 
L 2547 0 
L 1831 0 
z
" transform="scale(0.015625)"/>
       <path id="DejaVuSans-2f" d="M 1625 4666 
L 2156 4666 
L 531 -594 
L 0 -594 
L 1625 4666 
z
" transform="scale(0.015625)"/>
      </defs>
      <use xlink:href="#DejaVuSans-56"/>
      <use xlink:href="#DejaVuSans-65" transform="translate(60.658203 0)"/>
      <use xlink:href="#DejaVuSans-6c" transform="translate(122.181641 0)"/>
      <use xlink:href="#DejaVuSans-6f" transform="translate(149.964844 0)"/>
      <use xlink:href="#DejaVuSans-63" transform="translate(211.146484 0)"/>
      <use xlink:href="#DejaVuSans-69" transform="translate(266.126953 0)"/>
      <use xlink:href="#DejaVuSans-74" transform="translate(293.910156 0)"/>
      <use xlink:href="#DejaVuSans-79" transform="translate(333.119141 0)"/>
      <use xlink:href="#DejaVuSans-20" transform="translate(392.298828 0)"/>
      <use xlink:href="#DejaVuSans-28" transform="translate(424.085938 0)"/>
      <use xlink:href="#DejaVuSans-6d" transform="translate(463.099609 0)"/>
      <use xlink:href="#DejaVuSans-2f" transform="translate(560.511719 0)"/>
      <use xlink:href="#DejaVuSans-73" transform="translate(594.203125 0)"/>
      <use xlink:href="#DejaVuSans-29" transform="translate(646.302734 0)"/>
     </g>
    </g>
   </g>
   <g id="line2d_29">
    <path d="M 92.236364 327.439036 
L 93.323636 282.555138 
L 94.048484 259.92491 
L 94.531716 248.768687 
L 95.135756 239.850453 
L 95.618988 236.74 
L 95.860604 236.920067 
L 95.981412 236.911745 
L 96.10222 237.368177 
L 96.70626 243.068631 
L 97.431108 255.724301 
L 98.51838 282.517835 
L 101.538581 362.891903 
L 102.142621 373.403932 
L 102.746661 379.899352 
L 103.229893 382.346743 
L 103.350701 382.383962 
L 103.592317 382.74 
L 104.075549 381.140736 
L 104.679589 376.297675 
L 105.646053 363.649301 
L 106.612517 347.934373 
L 108.666253 315.432841 
L 109.270294 308.351292 
L 109.995142 303.057578 
L 110.478374 301.357885 
L 110.599182 301.073646 
L 110.840798 301.047524 
L 110.961606 301.040204 
L 111.565646 302.768159 
L 111.807262 303.901074 
L 112.652918 309.875009 
L 114.34423 326.27386 
L 115.431502 335.90597 
L 116.397966 342.29793 
L 117.122814 345.195105 
L 117.485238 346.100598 
L 117.968471 346.626864 
L 118.451703 346.447947 
L 119.055743 345.31674 
L 119.780591 342.90304 
L 120.988671 337.338853 
L 122.559175 330.011395 
L 124.008871 324.451461 
L 124.612911 323.051463 
L 125.216951 322.351194 
L 125.700183 322.281612 
L 126.062607 322.461037 
L 126.666647 323.214412 
L 127.270688 324.37363 
L 128.841192 328.311692 
L 130.049272 331.141804 
L 130.894928 332.623938 
L 131.619776 333.450483 
L 132.344624 333.82863 
L 133.069472 333.775658 
L 133.915128 333.234099 
L 135.0024 332.000467 
L 137.780985 328.388905 
L 138.989065 327.252151 
L 139.834721 326.85545 
L 140.680377 326.735046 
L 141.526033 326.857259 
L 142.613305 327.237407 
L 143.338153 327.441049 
L 144.183809 327.5764 
L 148.532898 328.755638 
L 149.861786 328.756246 
L 151.553098 328.522481 
L 156.385419 327.681931 
L 158.922387 327.538401 
L 161.942587 327.576029 
L 165.929252 327.556097 
L 183.567222 327.130606 
L 199.393072 327.44178 
L 202.050848 327.505467 
L 208.332865 327.713282 
L 212.923569 327.625132 
L 213.044377 327.443606 
L 213.769225 321.053704 
L 214.373265 317.720135 
L 214.735689 316.545967 
L 215.098113 316.230795 
L 215.218921 316.186744 
L 215.702153 317.080439 
L 216.306193 319.825569 
L 216.910234 324.096403 
L 217.514274 329.506761 
L 219.809626 354.815942 
L 220.655282 360.681571 
L 221.38013 363.538959 
L 221.742554 364.033502 
L 222.104978 364.302034 
L 222.346594 364.052817 
L 222.950634 362.790275 
L 223.433866 360.837904 
L 224.158714 357.181419 
L 225.729219 347.041628 
L 226.937299 339.76486 
L 227.903763 335.128665 
L 228.749419 332.066291 
L 229.474267 330.094642 
L 230.440731 328.246801 
L 231.165579 327.315753 
L 231.528003 327.216206 
L 231.890427 327.403179 
L 232.132043 327.583587 
L 232.494467 328.289366 
L 232.977699 329.994625 
L 234.185779 335.788378 
L 235.031436 339.218575 
L 235.756284 341.435406 
L 236.360324 342.548779 
L 236.722748 342.968722 
L 237.085172 343.063661 
L 237.568404 342.965286 
L 237.930828 342.557973 
L 238.534868 341.578604 
L 239.259716 339.764382 
L 240.22618 336.821562 
L 242.279916 330.476344 
L 243.971229 326.292991 
L 244.575269 325.332896 
L 245.058501 324.934374 
L 245.541733 324.833866 
L 245.904157 324.961476 
L 246.387389 325.314388 
L 247.233045 326.416432 
L 250.494861 331.5761 
L 251.340517 332.317425 
L 252.065365 332.597781 
L 252.669406 332.571507 
L 253.152638 332.42462 
L 254.119102 331.783856 
L 255.44799 330.456783 
L 257.380918 328.488693 
L 258.830614 327.38558 
L 259.797078 327.111435 
L 260.763542 327.061917 
L 262.092431 327.26294 
L 263.179703 327.438756 
L 265.112631 327.540694 
L 269.461719 328.369258 
L 271.032224 328.331226 
L 273.448384 328.005733 
L 276.468584 327.619443 
L 279.730401 327.440649 
L 284.804337 327.498314 
L 289.153426 327.715242 
L 292.656858 327.640326 
L 299.180491 327.458904 
L 309.449172 327.167307 
L 313.556644 327.108222 
L 333.731583 327.473785 
L 333.852391 327.920891 
L 334.577239 334.578065 
L 335.181279 338.047617 
L 335.543703 339.223743 
L 335.906127 339.581928 
L 336.147743 339.41119 
L 336.389359 338.90563 
L 336.630975 338.079469 
L 336.993399 336.378187 
L 337.597439 332.181218 
L 338.322287 325.401547 
L 340.617639 298.649066 
L 341.221679 293.970581 
L 341.946527 290.251714 
L 342.550568 288.869688 
L 342.792184 288.768135 
L 343.275416 289.205072 
L 343.517032 289.69087 
L 344.121072 291.908943 
L 344.604304 294.30034 
L 345.812384 302.082653 
L 347.624504 314.194702 
L 348.590968 319.210709 
L 349.315816 322.17573 
L 350.161472 324.777374 
L 350.88632 326.514222 
L 351.611169 327.955047 
L 351.973593 328.208334 
L 352.215209 328.184933 
L 352.577633 327.886118 
L 353.060865 327.144652 
L 353.423289 326.072004 
L 353.906521 323.88689 
L 355.839449 314.449029 
L 356.443489 312.535125 
L 357.047529 311.196127 
L 357.530761 310.727785 
L 357.893185 310.573274 
L 358.255609 310.777282 
L 358.738841 311.278579 
L 359.222073 312.246708 
L 359.946921 314.126592 
L 361.27581 318.64126 
L 362.846314 323.831471 
L 364.658434 328.67798 
L 365.262474 329.719433 
L 365.745706 330.182648 
L 366.10813 330.306288 
L 366.591362 330.228911 
L 367.31621 329.617372 
L 367.92025 328.77237 
L 369.732371 325.675743 
L 370.819643 323.944049 
L 371.665299 322.985121 
L 372.269339 322.57798 
L 372.873379 322.376047 
L 373.598227 322.428607 
L 374.443883 322.851274 
L 375.531155 323.803564 
L 378.792972 327.017516 
L 379.638628 327.587607 
L 380.605092 327.863404 
L 381.571556 327.894017 
L 382.779636 327.679246 
L 384.108524 327.438738 
L 385.316604 327.348941 
L 387.611957 326.773307 
L 389.303269 326.501705 
L 390.994581 326.467357 
L 393.048317 326.69099 
L 397.397406 327.228497 
L 400.538414 327.342089 
L 417.451536 327.526766 
L 422.64628 327.703023 
L 427.478601 327.624926 
L 438.713746 327.439469 
L 442.458795 327.398296 
L 449.103235 327.136147 
L 454.539596 327.250969 
L 454.781212 325.332449 
L 455.50606 319.235859 
L 456.1101 316.297494 
L 456.472524 315.48002 
L 456.71414 315.37103 
L 456.955756 315.581717 
L 457.197372 316.10394 
L 457.680604 318.071248 
L 458.284644 322.107136 
L 459.009492 328.544612 
L 459.855149 339.138962 
L 461.063229 353.123001 
L 461.788077 359.524372 
L 462.512925 363.920204 
L 463.116965 365.842041 
L 463.358581 366.183273 
L 463.721005 366.146734 
L 463.962621 366.024879 
L 464.204237 365.549426 
L 464.929085 363.064023 
L 465.653933 359.086381 
L 466.620397 352.667188 
L 468.432518 340.540128 
L 469.398982 335.520991 
L 470.244638 332.130876 
L 471.211102 329.278415 
L 472.298374 326.835649 
L 472.660798 326.510668 
L 472.902414 326.497678 
L 473.264838 326.749495 
L 473.74807 327.493843 
L 474.110494 328.382446 
L 474.593726 330.413118 
L 476.647462 340.49209 
L 477.372311 342.719143 
L 477.855543 343.68209 
L 478.459583 344.247059 
L 478.701199 344.26185 
L 479.184431 343.966806 
L 479.546855 343.514537 
L 480.271703 341.975459 
L 480.996551 339.812535 
L 484.741599 327.866788 
L 485.587255 325.754354 
L 486.191296 324.85909 
L 486.674528 324.546039 
L 487.15776 324.514235 
L 487.640992 324.770629 
L 488.124224 325.254229 
L 488.728264 326.109667 
L 492.231696 331.562816 
L 492.956544 332.125268 
L 493.681392 332.362558 
L 494.40624 332.281797 
L 495.251897 331.834789 
L 496.339169 330.866935 
L 499.480177 327.77865 
L 500.325833 327.227601 
L 501.292297 326.95076 
L 502.258761 326.907617 
L 503.346033 327.072352 
L 505.278962 327.439332 
L 506.849466 327.547714 
L 511.077746 328.124627 
L 513.131483 328.093311 
L 523.762588 327.504126 
L 535.480965 327.34855 
L 540.434094 327.112996 
L 544.90399 327.176813 
L 553.843783 327.357057 
L 563.991656 327.589445 
L 568.582361 327.719784 
L 573.897913 327.611483 
L 575.347609 327.583592 
L 575.830842 331.994471 
L 576.434882 336.471473 
L 576.918114 338.597556 
L 577.280538 339.419107 
L 577.642962 339.336054 
L 577.76377 339.259919 
L 578.247002 337.782381 
L 578.609426 335.964279 
L 579.213466 331.616735 
L 579.938314 324.641222 
L 582.112858 299.044475 
L 582.837706 293.342416 
L 583.562554 289.81802 
L 584.045786 288.831284 
L 584.287402 288.5609 
L 584.529018 288.702742 
L 585.133059 289.748775 
L 585.616291 291.659844 
L 586.220331 294.658078 
L 587.428411 302.70423 
L 589.240531 314.902093 
L 590.206995 319.90919 
L 590.931843 322.848298 
L 591.777499 325.53185 
L 592.985579 328.528829 
L 593.348003 328.800445 
L 593.589619 328.763999 
L 593.952044 328.435512 
L 594.435276 327.546933 
L 594.7977 326.633002 
L 595.280932 324.52083 
L 597.334668 314.126884 
L 597.938708 312.176169 
L 598.542748 310.845075 
L 598.905172 310.484342 
L 599.388404 310.279024 
L 599.750828 310.521803 
L 600.23406 311.08475 
L 600.717292 312.123651 
L 601.44214 314.114636 
L 602.771029 318.821321 
L 604.220725 323.786663 
L 605.912037 328.606935 
L 606.516077 329.795226 
L 606.999309 330.359652 
L 607.482541 330.575919 
L 607.844965 330.524336 
L 608.086581 330.425086 
L 608.811429 329.723002 
L 609.777893 328.156965 
L 611.83163 324.513086 
L 612.798094 323.230447 
L 613.522942 322.640245 
L 614.006174 322.438159 
L 614.731022 322.399584 
L 615.576678 322.745415 
L 616.543142 323.529542 
L 620.529806 327.461705 
L 621.496271 327.853879 
L 622.341927 328.001308 
L 623.429199 327.9493 
L 624.878895 327.625275 
L 625.966167 327.438737 
L 628.140711 327.32398 
L 631.88576 326.843762 
L 634.060304 326.82398 
L 637.442928 327.067768 
L 641.308785 327.267946 
L 648.557266 327.371183 
L 659.792411 327.622443 
L 663.899883 327.716216 
L 671.99402 327.554308 
L 686.128558 327.181656 
L 689.994414 327.088257 
L 696.155623 327.245928 
L 697.242895 318.243285 
L 697.846935 315.856043 
L 698.088551 315.450483 
L 698.330167 315.386126 
L 698.450975 315.451146 
L 698.813399 316.264625 
L 699.055015 317.175624 
L 699.417439 319.022611 
L 699.900671 322.417769 
L 700.625519 328.9785 
L 701.591984 341.220212 
L 702.679256 353.585846 
L 703.524912 360.752261 
L 704.24976 364.625321 
L 704.612184 365.572465 
L 705.095416 366.312329 
L 705.337032 366.153265 
L 705.820264 365.478754 
L 706.182688 364.278533 
L 706.907536 360.998044 
L 707.874 354.860656 
L 710.531777 337.40718 
L 711.498241 332.987277 
L 712.464705 329.808822 
L 713.431169 327.28023 
L 713.793593 326.610191 
L 714.156017 326.354347 
L 714.397633 326.383064 
L 714.760057 326.729765 
L 715.243289 327.585223 
L 715.605713 328.66974 
L 716.209753 331.615322 
L 717.538641 338.895531 
L 718.384297 342.359941 
L 719.109145 344.302265 
L 719.47157 344.827889 
L 720.07561 345.201785 
L 720.438034 344.990315 
L 720.921266 344.467395 
L 721.404498 343.441935 
L 722.129346 341.450217 
L 723.458234 336.661063 
L 725.149546 330.637433 
L 726.961666 325.459704 
L 727.444898 324.664166 
L 727.92813 324.256249 
L 728.411362 324.201996 
L 728.894595 324.477687 
L 729.498635 325.208396 
L 730.465099 326.988327 
L 733.002067 331.974894 
L 733.726915 332.897342 
L 734.451763 333.429521 
L 735.176611 333.555576 
L 735.780651 333.360966 
L 736.263883 333.043929 
L 737.230347 332.083861 
L 740.975396 327.660262 
L 741.579436 327.182017 
L 742.304284 326.846782 
L 743.14994 326.700463 
L 744.116404 326.806682 
L 745.082868 327.102891 
L 746.290948 327.43952 
L 747.136605 327.539341 
L 751.727309 328.438166 
L 753.297813 328.404721 
L 755.593166 328.109592 
L 759.096598 327.675606 
L 762.237606 327.529825 
L 777.82184 327.193786 
L 781.929312 327.069989 
L 789.902641 327.240348 
L 813.218588 327.651059 
L 816.963636 327.566051 
L 816.963636 327.566051 
" clip-path="url(#p794381e4ec)" style="fill: none; stroke: #1f77b4; stroke-width: 1.5; stroke-linecap: square"/>
   </g>
   <g id="patch_9">
    <path d="M 56 390.04 
L 56 229.44 
" style="fill: none; stroke: #000000; stroke-width: 0.8; stroke-linejoin: miter; stroke-linecap: square"/>
   </g>
   <g id="patch_10">
    <path d="M 853.2 390.04 
L 853.2 229.44 
" style="fill: none; stroke: #000000; stroke-width: 0.8; stroke-linejoin: miter; stroke-linecap: square"/>
   </g>
   <g id="patch_11">
    <path d="M 56 390.04 
L 853.2 390.04 
" style="fill: none; stroke: #000000; stroke-width: 0.8; stroke-linejoin: miter; stroke-linecap: square"/>
   </g>
   <g id="patch_12">
    <path d="M 56 229.44 
L 853.2 229.44 
" style="fill: none; stroke: #000000; stroke-width: 0.8; stroke-linejoin: miter; stroke-linecap: square"/>
   </g>
   <g id="legend_2">
    <g id="patch_13">
     <path d="M 720.310938 252.39625 
L 846.2 252.39625 
Q 848.2 252.39625 848.2 250.39625 
L 848.2 236.44 
Q 848.2 234.44 846.2 234.44 
L 720.310938 234.44 
Q 718.310938 234.44 718.310938 236.44 
L 718.310938 250.39625 
Q 718.310938 252.39625 720.310938 252.39625 
z
" style="fill: #ffffff; opacity: 0.8; stroke: #cccccc; stroke-linejoin: miter"/>
    </g>
    <g id="line2d_30">
     <path d="M 722.310938 242.538437 
L 732.310938 242.538437 
L 742.310938 242.538437 
" style="fill: none; stroke: #1f77b4; stroke-width: 1.5; stroke-linecap: square"/>
    </g>
    <g id="text_32">
     <!-- Cart velocity x_dot -->
     <g transform="translate(750.310938 246.038437) scale(0.1 -0.1)">
      <use xlink:href="#DejaVuSans-43"/>
      <use xlink:href="#DejaVuSans-61" transform="translate(69.824219 0)"/>
      <use xlink:href="#DejaVuSans-72" transform="translate(131.103516 0)"/>
      <use xlink:href="#DejaVuSans-74" transform="translate(172.216797 0)"/>
      <use xlink:href="#DejaVuSans-20" transform="translate(211.425781 0)"/>
      <use xlink:href="#DejaVuSans-76" transform="translate(243.212891 0)"/>
      <use xlink:href="#DejaVuSans-65" transform="translate(302.392578 0)"/>
      <use xlink:href="#DejaVuSans-6c" transform="translate(363.916016 0)"/>
      <use xlink:href="#DejaVuSans-6f" transform="translate(391.699219 0)"/>
      <use xlink:href="#DejaVuSans-63" transform="translate(452.880859 0)"/>
      <use xlink:href="#DejaVuSans-69" transform="translate(507.861328 0)"/>
      <use xlink:href="#DejaVuSans-74" transform="translate(535.644531 0)"/>
      <use xlink:href="#DejaVuSans-79" transform="translate(574.853516 0)"/>
      <use xlink:href="#DejaVuSans-20" transform="translate(634.033203 0)"/>
      <use xlink:href="#DejaVuSans-78" transform="translate(665.820312 0)"/>
      <use xlink:href="#DejaVuSans-5f" transform="translate(725 0)"/>
      <use xlink:href="#DejaVuSans-64" transform="translate(775 0)"/>
      <use xlink:href="#DejaVuSans-6f" transform="translate(838.476562 0)"/>
      <use xlink:href="#DejaVuSans-74" transform="translate(899.658203 0)"/>
     </g>
    </g>
   </g>
  </g>
 </g>
 <defs>
  <clipPath id="p1b740f1dad">
   <rect x="56" y="26.88" width="797.2" height="160.6"/>
  </clipPath>
  <clipPath id="p794381e4ec">
   <rect x="56" y="229.44" width="797.2" height="160.6"/>
  </clipPath>
 </defs>
</svg>
