<?xml version="1.0" encoding="utf-8" standalone="no"?>
<!DOCTYPE svg PUBLIC "-//W3C//DTD SVG 1.1//EN"
  "http://www.w3.org/Graphics/SVG/1.1/DTD/svg11.dtd">
<svg xmlns:xlink="http://www.w3.org/1999/xlink" width="460.8pt" height="345.6pt" viewBox="0 0 460.8 345.6" xmlns="http://www.w3.org/2000/svg" version="1.1">
 <metadata>
  <rdf:RDF xmlns:dc="http://purl.org/dc/elements/1.1/" xmlns:cc="http://creativecommons.org/ns#" xmlns:rdf="http://www.w3.org/1999/02/22-rdf-syntax-ns#">
   <cc:Work>
    <dc:type rdf:resource="http://purl.org/dc/dcmitype/StillImage"/>
    <dc:date>2025-04-29T12:43:48.963500</dc:date>
    <dc:format>image/svg+xml</dc:format>
    <dc:creator>
     <cc:Agent>
      <dc:title>Matplotlib v3.10.1, https://matplotlib.org/</dc:title>
     </cc:Agent>
    </dc:creator>
   </cc:Work>
  </rdf:RDF>
 </metadata>
 <defs>
  <style type="text/css">*{stroke-linejoin: round; stroke-linecap: butt}</style>
 </defs>
 <g id="figure_1">
  <g id="patch_1">
   <path d="M 0 345.6 
L 460.8 345.6 
L 460.8 0 
L 0 0 
z
" style="fill: #ffffff"/>
  </g>
  <g id="axes_1">
   <g id="patch_2">
    <path d="M 57.6 307.584 
L 414.72 307.584 
L 414.72 41.472 
L 57.6 41.472 
z
" style="fill: #ffffff"/>
   </g>
   <g id="matplotlib.axis_1">
    <g id="xtick_1">
     <g id="line2d_1">
      <defs>
       <path id="m59b8ce323e" d="M 0 0 
L 0 3.5 
" style="stroke: #000000; stroke-width: 0.8"/>
      </defs>
      <g>
       <use xlink:href="#m59b8ce323e" x="73.832727" y="307.584" style="stroke: #000000; stroke-width: 0.8"/>
      </g>
     </g>
     <g id="text_1">
      <!-- 0 -->
      <g transform="translate(70.651477 322.182437) scale(0.1 -0.1)">
       <defs>
        <path id="DejaVuSans-30" d="M 2034 4250 
Q 1547 4250 1301 3770 
Q 1056 3291 1056 2328 
Q 1056 1369 1301 889 
Q 1547 409 2034 409 
Q 2525 409 2770 889 
Q 3016 1369 3016 2328 
Q 3016 3291 2770 3770 
Q 2525 4250 2034 4250 
z
M 2034 4750 
Q 2819 4750 3233 4129 
Q 3647 3509 3647 2328 
Q 3647 1150 3233 529 
Q 2819 -91 2034 -91 
Q 1250 -91 836 529 
Q 422 1150 422 2328 
Q 422 3509 836 4129 
Q 1250 4750 2034 4750 
z
" transform="scale(0.015625)"/>
       </defs>
       <use xlink:href="#DejaVuSans-30"/>
      </g>
     </g>
    </g>
    <g id="xtick_2">
     <g id="line2d_2">
      <g>
       <use xlink:href="#m59b8ce323e" x="127.941818" y="307.584" style="stroke: #000000; stroke-width: 0.8"/>
      </g>
     </g>
     <g id="text_2">
      <!-- 10 -->
      <g transform="translate(121.579318 322.182437) scale(0.1 -0.1)">
       <defs>
        <path id="DejaVuSans-31" d="M 794 531 
L 1825 531 
L 1825 4091 
L 703 3866 
L 703 4441 
L 1819 4666 
L 2450 4666 
L 2450 531 
L 3481 531 
L 3481 0 
L 794 0 
L 794 531 
z
" transform="scale(0.015625)"/>
       </defs>
       <use xlink:href="#DejaVuSans-31"/>
       <use xlink:href="#DejaVuSans-30" transform="translate(63.623047 0)"/>
      </g>
     </g>
    </g>
    <g id="xtick_3">
     <g id="line2d_3">
      <g>
       <use xlink:href="#m59b8ce323e" x="182.050909" y="307.584" style="stroke: #000000; stroke-width: 0.8"/>
      </g>
     </g>
     <g id="text_3">
      <!-- 20 -->
      <g transform="translate(175.688409 322.182437) scale(0.1 -0.1)">
       <defs>
        <path id="DejaVuSans-32" d="M 1228 531 
L 3431 531 
L 3431 0 
L 469 0 
L 469 531 
Q 828 903 1448 1529 
Q 2069 2156 2228 2338 
Q 2531 2678 2651 2914 
Q 2772 3150 2772 3378 
Q 2772 3750 2511 3984 
Q 2250 4219 1831 4219 
Q 1534 4219 1204 4116 
Q 875 4013 500 3803 
L 500 4441 
Q 881 4594 1212 4672 
Q 1544 4750 1819 4750 
Q 2544 4750 2975 4387 
Q 3406 4025 3406 3419 
Q 3406 3131 3298 2873 
Q 3191 2616 2906 2266 
Q 2828 2175 2409 1742 
Q 1991 1309 1228 531 
z
" transform="scale(0.015625)"/>
       </defs>
       <use xlink:href="#DejaVuSans-32"/>
       <use xlink:href="#DejaVuSans-30" transform="translate(63.623047 0)"/>
      </g>
     </g>
    </g>
    <g id="xtick_4">
     <g id="line2d_4">
      <g>
       <use xlink:href="#m59b8ce323e" x="236.16" y="307.584" style="stroke: #000000; stroke-width: 0.8"/>
      </g>
     </g>
     <g id="text_4">
      <!-- 30 -->
      <g transform="translate(229.7975 322.182437) scale(0.1 -0.1)">
       <defs>
        <path id="DejaVuSans-33" d="M 2597 2516 
Q 3050 2419 3304 2112 
Q 3559 1806 3559 1356 
Q 3559 666 3084 287 
Q 2609 -91 1734 -91 
Q 1441 -91 1130 -33 
Q 819 25 488 141 
L 488 750 
Q 750 597 1062 519 
Q 1375 441 1716 441 
Q 2309 441 2620 675 
Q 2931 909 2931 1356 
Q 2931 1769 2642 2001 
Q 2353 2234 1838 2234 
L 1294 2234 
L 1294 2753 
L 1863 2753 
Q 2328 2753 2575 2939 
Q 2822 3125 2822 3475 
Q 2822 3834 2567 4026 
Q 2313 4219 1838 4219 
Q 1578 4219 1281 4162 
Q 984 4106 628 3988 
L 628 4550 
Q 988 4650 1302 4700 
Q 1616 4750 1894 4750 
Q 2613 4750 3031 4423 
Q 3450 4097 3450 3541 
Q 3450 3153 3228 2886 
Q 3006 2619 2597 2516 
z
" transform="scale(0.015625)"/>
       </defs>
       <use xlink:href="#DejaVuSans-33"/>
       <use xlink:href="#DejaVuSans-30" transform="translate(63.623047 0)"/>
      </g>
     </g>
    </g>
    <g id="xtick_5">
     <g id="line2d_5">
      <g>
       <use xlink:href="#m59b8ce323e" x="290.269091" y="307.584" style="stroke: #000000; stroke-width: 0.8"/>
      </g>
     </g>
     <g id="text_5">
      <!-- 40 -->
      <g transform="translate(283.906591 322.182437) scale(0.1 -0.1)">
       <defs>
        <path id="DejaVuSans-34" d="M 2419 4116 
L 825 1625 
L 2419 1625 
L 2419 4116 
z
M 2253 4666 
L 3047 4666 
L 3047 1625 
L 3713 1625 
L 3713 1100 
L 3047 1100 
L 3047 0 
L 2419 0 
L 2419 1100 
L 313 1100 
L 313 1709 
L 2253 4666 
z
" transform="scale(0.015625)"/>
       </defs>
       <use xlink:href="#DejaVuSans-34"/>
       <use xlink:href="#DejaVuSans-30" transform="translate(63.623047 0)"/>
      </g>
     </g>
    </g>
    <g id="xtick_6">
     <g id="line2d_6">
      <g>
       <use xlink:href="#m59b8ce323e" x="344.378182" y="307.584" style="stroke: #000000; stroke-width: 0.8"/>
      </g>
     </g>
     <g id="text_6">
      <!-- 50 -->
      <g transform="translate(338.015682 322.182437) scale(0.1 -0.1)">
       <defs>
        <path id="DejaVuSans-35" d="M 691 4666 
L 3169 4666 
L 3169 4134 
L 1269 4134 
L 1269 2991 
Q 1406 3038 1543 3061 
Q 1681 3084 1819 3084 
Q 2600 3084 3056 2656 
Q 3513 2228 3513 1497 
Q 3513 744 3044 326 
Q 2575 -91 1722 -91 
Q 1428 -91 1123 -41 
Q 819 9 494 109 
L 494 744 
Q 775 591 1075 516 
Q 1375 441 1709 441 
Q 2250 441 2565 725 
Q 2881 1009 2881 1497 
Q 2881 1984 2565 2268 
Q 2250 2553 1709 2553 
Q 1456 2553 1204 2497 
Q 953 2441 691 2322 
L 691 4666 
z
" transform="scale(0.015625)"/>
       </defs>
       <use xlink:href="#DejaVuSans-35"/>
       <use xlink:href="#DejaVuSans-30" transform="translate(63.623047 0)"/>
      </g>
     </g>
    </g>
    <g id="xtick_7">
     <g id="line2d_7">
      <g>
       <use xlink:href="#m59b8ce323e" x="398.487273" y="307.584" style="stroke: #000000; stroke-width: 0.8"/>
      </g>
     </g>
     <g id="text_7">
      <!-- 60 -->
      <g transform="translate(392.124773 322.182437) scale(0.1 -0.1)">
       <defs>
        <path id="DejaVuSans-36" d="M 2113 2584 
Q 1688 2584 1439 2293 
Q 1191 2003 1191 1497 
Q 1191 994 1439 701 
Q 1688 409 2113 409 
Q 2538 409 2786 701 
Q 3034 994 3034 1497 
Q 3034 2003 2786 2293 
Q 2538 2584 2113 2584 
z
M 3366 4563 
L 3366 3988 
Q 3128 4100 2886 4159 
Q 2644 4219 2406 4219 
Q 1781 4219 1451 3797 
Q 1122 3375 1075 2522 
Q 1259 2794 1537 2939 
Q 1816 3084 2150 3084 
Q 2853 3084 3261 2657 
Q 3669 2231 3669 1497 
Q 3669 778 3244 343 
Q 2819 -91 2113 -91 
Q 1303 -91 875 529 
Q 447 1150 447 2328 
Q 447 3434 972 4092 
Q 1497 4750 2381 4750 
Q 2619 4750 2861 4703 
Q 3103 4656 3366 4563 
z
" transform="scale(0.015625)"/>
       </defs>
       <use xlink:href="#DejaVuSans-36"/>
       <use xlink:href="#DejaVuSans-30" transform="translate(63.623047 0)"/>
      </g>
     </g>
    </g>
    <g id="text_8">
     <!-- Time (s) -->
     <g transform="translate(215.831094 335.860562) scale(0.1 -0.1)">
      <defs>
       <path id="DejaVuSans-54" d="M -19 4666 
L 3928 4666 
L 3928 4134 
L 2272 4134 
L 2272 0 
L 1638 0 
L 1638 4134 
L -19 4134 
L -19 4666 
z
" transform="scale(0.015625)"/>
       <path id="DejaVuSans-69" d="M 603 3500 
L 1178 3500 
L 1178 0 
L 603 0 
L 603 3500 
z
M 603 4863 
L 1178 4863 
L 1178 4134 
L 603 4134 
L 603 4863 
z
" transform="scale(0.015625)"/>
       <path id="DejaVuSans-6d" d="M 3328 2828 
Q 3544 3216 3844 3400 
Q 4144 3584 4550 3584 
Q 5097 3584 5394 3201 
Q 5691 2819 5691 2113 
L 5691 0 
L 5113 0 
L 5113 2094 
Q 5113 2597 4934 2840 
Q 4756 3084 4391 3084 
Q 3944 3084 3684 2787 
Q 3425 2491 3425 1978 
L 3425 0 
L 2847 0 
L 2847 2094 
Q 2847 2600 2669 2842 
Q 2491 3084 2119 3084 
Q 1678 3084 1418 2786 
Q 1159 2488 1159 1978 
L 1159 0 
L 581 0 
L 581 3500 
L 1159 3500 
L 1159 2956 
Q 1356 3278 1631 3431 
Q 1906 3584 2284 3584 
Q 2666 3584 2933 3390 
Q 3200 3197 3328 2828 
z
" transform="scale(0.015625)"/>
       <path id="DejaVuSans-65" d="M 3597 1894 
L 3597 1613 
L 953 1613 
Q 991 1019 1311 708 
Q 1631 397 2203 397 
Q 2534 397 2845 478 
Q 3156 559 3463 722 
L 3463 178 
Q 3153 47 2828 -22 
Q 2503 -91 2169 -91 
Q 1331 -91 842 396 
Q 353 884 353 1716 
Q 353 2575 817 3079 
Q 1281 3584 2069 3584 
Q 2775 3584 3186 3129 
Q 3597 2675 3597 1894 
z
M 3022 2063 
Q 3016 2534 2758 2815 
Q 2500 3097 2075 3097 
Q 1594 3097 1305 2825 
Q 1016 2553 972 2059 
L 3022 2063 
z
" transform="scale(0.015625)"/>
       <path id="DejaVuSans-20" transform="scale(0.015625)"/>
       <path id="DejaVuSans-28" d="M 1984 4856 
Q 1566 4138 1362 3434 
Q 1159 2731 1159 2009 
Q 1159 1288 1364 580 
Q 1569 -128 1984 -844 
L 1484 -844 
Q 1016 -109 783 600 
Q 550 1309 550 2009 
Q 550 2706 781 3412 
Q 1013 4119 1484 4856 
L 1984 4856 
z
" transform="scale(0.015625)"/>
       <path id="DejaVuSans-73" d="M 2834 3397 
L 2834 2853 
Q 2591 2978 2328 3040 
Q 2066 3103 1784 3103 
Q 1356 3103 1142 2972 
Q 928 2841 928 2578 
Q 928 2378 1081 2264 
Q 1234 2150 1697 2047 
L 1894 2003 
Q 2506 1872 2764 1633 
Q 3022 1394 3022 966 
Q 3022 478 2636 193 
Q 2250 -91 1575 -91 
Q 1294 -91 989 -36 
Q 684 19 347 128 
L 347 722 
Q 666 556 975 473 
Q 1284 391 1588 391 
Q 1994 391 2212 530 
Q 2431 669 2431 922 
Q 2431 1156 2273 1281 
Q 2116 1406 1581 1522 
L 1381 1569 
Q 847 1681 609 1914 
Q 372 2147 372 2553 
Q 372 3047 722 3315 
Q 1072 3584 1716 3584 
Q 2034 3584 2315 3537 
Q 2597 3491 2834 3397 
z
" transform="scale(0.015625)"/>
       <path id="DejaVuSans-29" d="M 513 4856 
L 1013 4856 
Q 1481 4119 1714 3412 
Q 1947 2706 1947 2009 
Q 1947 1309 1714 600 
Q 1481 -109 1013 -844 
L 513 -844 
Q 928 -128 1133 580 
Q 1338 1288 1338 2009 
Q 1338 2731 1133 3434 
Q 928 4138 513 4856 
z
" transform="scale(0.015625)"/>
      </defs>
      <use xlink:href="#DejaVuSans-54"/>
      <use xlink:href="#DejaVuSans-69" transform="translate(57.958984 0)"/>
      <use xlink:href="#DejaVuSans-6d" transform="translate(85.742188 0)"/>
      <use xlink:href="#DejaVuSans-65" transform="translate(183.154297 0)"/>
      <use xlink:href="#DejaVuSans-20" transform="translate(244.677734 0)"/>
      <use xlink:href="#DejaVuSans-28" transform="translate(276.464844 0)"/>
      <use xlink:href="#DejaVuSans-73" transform="translate(315.478516 0)"/>
      <use xlink:href="#DejaVuSans-29" transform="translate(367.578125 0)"/>
     </g>
    </g>
   </g>
   <g id="matplotlib.axis_2">
    <g id="ytick_1">
     <g id="line2d_8">
      <defs>
       <path id="mb100677d80" d="M 0 0 
L -3.5 0 
" style="stroke: #000000; stroke-width: 0.8"/>
      </defs>
      <g>
       <use xlink:href="#mb100677d80" x="57.6" y="278.582509" style="stroke: #000000; stroke-width: 0.8"/>
      </g>
     </g>
     <g id="text_9">
      <!-- −0.50 -->
      <g transform="translate(19.954687 282.381728) scale(0.1 -0.1)">
       <defs>
        <path id="DejaVuSans-2212" d="M 678 2272 
L 4684 2272 
L 4684 1741 
L 678 1741 
L 678 2272 
z
" transform="scale(0.015625)"/>
        <path id="DejaVuSans-2e" d="M 684 794 
L 1344 794 
L 1344 0 
L 684 0 
L 684 794 
z
" transform="scale(0.015625)"/>
       </defs>
       <use xlink:href="#DejaVuSans-2212"/>
       <use xlink:href="#DejaVuSans-30" transform="translate(83.789062 0)"/>
       <use xlink:href="#DejaVuSans-2e" transform="translate(147.412109 0)"/>
       <use xlink:href="#DejaVuSans-35" transform="translate(179.199219 0)"/>
       <use xlink:href="#DejaVuSans-30" transform="translate(242.822266 0)"/>
      </g>
     </g>
    </g>
    <g id="ytick_2">
     <g id="line2d_9">
      <g>
       <use xlink:href="#mb100677d80" x="57.6" y="245.994565" style="stroke: #000000; stroke-width: 0.8"/>
      </g>
     </g>
     <g id="text_10">
      <!-- −0.25 -->
      <g transform="translate(19.954687 249.793784) scale(0.1 -0.1)">
       <use xlink:href="#DejaVuSans-2212"/>
       <use xlink:href="#DejaVuSans-30" transform="translate(83.789062 0)"/>
       <use xlink:href="#DejaVuSans-2e" transform="translate(147.412109 0)"/>
       <use xlink:href="#DejaVuSans-32" transform="translate(179.199219 0)"/>
       <use xlink:href="#DejaVuSans-35" transform="translate(242.822266 0)"/>
      </g>
     </g>
    </g>
    <g id="ytick_3">
     <g id="line2d_10">
      <g>
       <use xlink:href="#mb100677d80" x="57.6" y="213.406622" style="stroke: #000000; stroke-width: 0.8"/>
      </g>
     </g>
     <g id="text_11">
      <!-- 0.00 -->
      <g transform="translate(28.334375 217.205841) scale(0.1 -0.1)">
       <use xlink:href="#DejaVuSans-30"/>
       <use xlink:href="#DejaVuSans-2e" transform="translate(63.623047 0)"/>
       <use xlink:href="#DejaVuSans-30" transform="translate(95.410156 0)"/>
       <use xlink:href="#DejaVuSans-30" transform="translate(159.033203 0)"/>
      </g>
     </g>
    </g>
    <g id="ytick_4">
     <g id="line2d_11">
      <g>
       <use xlink:href="#mb100677d80" x="57.6" y="180.818678" style="stroke: #000000; stroke-width: 0.8"/>
      </g>
     </g>
     <g id="text_12">
      <!-- 0.25 -->
      <g transform="translate(28.334375 184.617897) scale(0.1 -0.1)">
       <use xlink:href="#DejaVuSans-30"/>
       <use xlink:href="#DejaVuSans-2e" transform="translate(63.623047 0)"/>
       <use xlink:href="#DejaVuSans-32" transform="translate(95.410156 0)"/>
       <use xlink:href="#DejaVuSans-35" transform="translate(159.033203 0)"/>
      </g>
     </g>
    </g>
    <g id="ytick_5">
     <g id="line2d_12">
      <g>
       <use xlink:href="#mb100677d80" x="57.6" y="148.230735" style="stroke: #000000; stroke-width: 0.8"/>
      </g>
     </g>
     <g id="text_13">
      <!-- 0.50 -->
      <g transform="translate(28.334375 152.029954) scale(0.1 -0.1)">
       <use xlink:href="#DejaVuSans-30"/>
       <use xlink:href="#DejaVuSans-2e" transform="translate(63.623047 0)"/>
       <use xlink:href="#DejaVuSans-35" transform="translate(95.410156 0)"/>
       <use xlink:href="#DejaVuSans-30" transform="translate(159.033203 0)"/>
      </g>
     </g>
    </g>
    <g id="ytick_6">
     <g id="line2d_13">
      <g>
       <use xlink:href="#mb100677d80" x="57.6" y="115.642791" style="stroke: #000000; stroke-width: 0.8"/>
      </g>
     </g>
     <g id="text_14">
      <!-- 0.75 -->
      <g transform="translate(28.334375 119.44201) scale(0.1 -0.1)">
       <defs>
        <path id="DejaVuSans-37" d="M 525 4666 
L 3525 4666 
L 3525 4397 
L 1831 0 
L 1172 0 
L 2766 4134 
L 525 4134 
L 525 4666 
z
" transform="scale(0.015625)"/>
       </defs>
       <use xlink:href="#DejaVuSans-30"/>
       <use xlink:href="#DejaVuSans-2e" transform="translate(63.623047 0)"/>
       <use xlink:href="#DejaVuSans-37" transform="translate(95.410156 0)"/>
       <use xlink:href="#DejaVuSans-35" transform="translate(159.033203 0)"/>
      </g>
     </g>
    </g>
    <g id="ytick_7">
     <g id="line2d_14">
      <g>
       <use xlink:href="#mb100677d80" x="57.6" y="83.054848" style="stroke: #000000; stroke-width: 0.8"/>
      </g>
     </g>
     <g id="text_15">
      <!-- 1.00 -->
      <g transform="translate(28.334375 86.854067) scale(0.1 -0.1)">
       <use xlink:href="#DejaVuSans-31"/>
       <use xlink:href="#DejaVuSans-2e" transform="translate(63.623047 0)"/>
       <use xlink:href="#DejaVuSans-30" transform="translate(95.410156 0)"/>
       <use xlink:href="#DejaVuSans-30" transform="translate(159.033203 0)"/>
      </g>
     </g>
    </g>
    <g id="ytick_8">
     <g id="line2d_15">
      <g>
       <use xlink:href="#mb100677d80" x="57.6" y="50.466905" style="stroke: #000000; stroke-width: 0.8"/>
      </g>
     </g>
     <g id="text_16">
      <!-- 1.25 -->
      <g transform="translate(28.334375 54.266123) scale(0.1 -0.1)">
       <use xlink:href="#DejaVuSans-31"/>
       <use xlink:href="#DejaVuSans-2e" transform="translate(63.623047 0)"/>
       <use xlink:href="#DejaVuSans-32" transform="translate(95.410156 0)"/>
       <use xlink:href="#DejaVuSans-35" transform="translate(159.033203 0)"/>
      </g>
     </g>
    </g>
    <g id="text_17">
     <!-- Position (m) -->
     <g transform="translate(13.875 204.353) rotate(-90) scale(0.1 -0.1)">
      <defs>
       <path id="DejaVuSans-50" d="M 1259 4147 
L 1259 2394 
L 2053 2394 
Q 2494 2394 2734 2622 
Q 2975 2850 2975 3272 
Q 2975 3691 2734 3919 
Q 2494 4147 2053 4147 
L 1259 4147 
z
M 628 4666 
L 2053 4666 
Q 2838 4666 3239 4311 
Q 3641 3956 3641 3272 
Q 3641 2581 3239 2228 
Q 2838 1875 2053 1875 
L 1259 1875 
L 1259 0 
L 628 0 
L 628 4666 
z
" transform="scale(0.015625)"/>
       <path id="DejaVuSans-6f" d="M 1959 3097 
Q 1497 3097 1228 2736 
Q 959 2375 959 1747 
Q 959 1119 1226 758 
Q 1494 397 1959 397 
Q 2419 397 2687 759 
Q 2956 1122 2956 1747 
Q 2956 2369 2687 2733 
Q 2419 3097 1959 3097 
z
M 1959 3584 
Q 2709 3584 3137 3096 
Q 3566 2609 3566 1747 
Q 3566 888 3137 398 
Q 2709 -91 1959 -91 
Q 1206 -91 779 398 
Q 353 888 353 1747 
Q 353 2609 779 3096 
Q 1206 3584 1959 3584 
z
" transform="scale(0.015625)"/>
       <path id="DejaVuSans-74" d="M 1172 4494 
L 1172 3500 
L 2356 3500 
L 2356 3053 
L 1172 3053 
L 1172 1153 
Q 1172 725 1289 603 
Q 1406 481 1766 481 
L 2356 481 
L 2356 0 
L 1766 0 
Q 1100 0 847 248 
Q 594 497 594 1153 
L 594 3053 
L 172 3053 
L 172 3500 
L 594 3500 
L 594 4494 
L 1172 4494 
z
" transform="scale(0.015625)"/>
       <path id="DejaVuSans-6e" d="M 3513 2113 
L 3513 0 
L 2938 0 
L 2938 2094 
Q 2938 2591 2744 2837 
Q 2550 3084 2163 3084 
Q 1697 3084 1428 2787 
Q 1159 2491 1159 1978 
L 1159 0 
L 581 0 
L 581 3500 
L 1159 3500 
L 1159 2956 
Q 1366 3272 1645 3428 
Q 1925 3584 2291 3584 
Q 2894 3584 3203 3211 
Q 3513 2838 3513 2113 
z
" transform="scale(0.015625)"/>
      </defs>
      <use xlink:href="#DejaVuSans-50"/>
      <use xlink:href="#DejaVuSans-6f" transform="translate(56.677734 0)"/>
      <use xlink:href="#DejaVuSans-73" transform="translate(117.859375 0)"/>
      <use xlink:href="#DejaVuSans-69" transform="translate(169.958984 0)"/>
      <use xlink:href="#DejaVuSans-74" transform="translate(197.742188 0)"/>
      <use xlink:href="#DejaVuSans-69" transform="translate(236.951172 0)"/>
      <use xlink:href="#DejaVuSans-6f" transform="translate(264.734375 0)"/>
      <use xlink:href="#DejaVuSans-6e" transform="translate(325.916016 0)"/>
      <use xlink:href="#DejaVuSans-20" transform="translate(389.294922 0)"/>
      <use xlink:href="#DejaVuSans-28" transform="translate(421.082031 0)"/>
      <use xlink:href="#DejaVuSans-6d" transform="translate(460.095703 0)"/>
      <use xlink:href="#DejaVuSans-29" transform="translate(557.507812 0)"/>
     </g>
    </g>
   </g>
   <g id="line2d_16">
    <path d="M 73.832727 213.406622 
L 73.940963 212.942 
L 74.103318 210.547454 
L 74.373908 202.398593 
L 74.806853 180.485045 
L 75.672743 120.570849 
L 76.430397 75.295352 
L 76.863341 59.915168 
L 77.18805 54.419037 
L 77.404523 53.568 
L 77.512759 54.017787 
L 77.729231 56.67609 
L 78.05394 64.479408 
L 78.595121 84.606394 
L 79.893956 135.390559 
L 80.326901 144.514261 
L 80.651609 147.737407 
L 80.868082 148.237526 
L 80.976318 147.983042 
L 81.19279 146.506502 
L 81.517499 142.288828 
L 82.112798 130.839554 
L 82.978688 114.731379 
L 83.411633 110.217487 
L 83.682223 109.057012 
L 83.844578 108.98192 
L 84.006932 109.343821 
L 84.277523 110.841667 
L 84.656349 114.533964 
L 85.305767 123.571124 
L 86.388129 138.44382 
L 86.92931 142.951753 
L 87.308137 144.606774 
L 87.578727 145.10664 
L 87.7952 145.125782 
L 88.011672 144.816693 
L 88.336381 143.89354 
L 89.79757 139.034925 
L 90.06816 138.862454 
L 90.284633 138.961498 
L 90.555223 139.37771 
L 90.93405 140.449764 
L 91.529349 142.988306 
L 93.152893 150.393117 
L 93.694074 151.778657 
L 94.181137 152.440254 
L 94.559964 152.63407 
L 94.992909 152.577092 
L 95.912916 152.111691 
L 96.562334 151.93746 
L 97.428223 152.017766 
L 98.023523 152.312081 
L 98.781176 152.956819 
L 101.054137 155.078736 
L 101.920027 155.484515 
L 102.948271 155.714702 
L 106.574184 156.084575 
L 108.576554 156.182813 
L 110.903633 156.076652 
L 112.41894 155.72818 
L 116.207208 154.757215 
L 118.967232 154.359815 
L 121.29431 154.247906 
L 123.946098 154.351547 
L 125.948468 154.729445 
L 128.004956 155.080245 
L 128.16731 154.704642 
L 128.437901 153.261541 
L 129.0332 148.263588 
L 129.574381 144.562025 
L 129.844972 143.953384 
L 129.953208 144.02573 
L 130.115562 144.565057 
L 130.332035 146.177963 
L 130.656743 150.433354 
L 131.143806 160.358209 
L 131.955578 182.648672 
L 133.092058 212.905826 
L 133.741476 224.659459 
L 134.282657 230.848772 
L 134.76972 234.141587 
L 135.202665 235.742502 
L 135.581491 236.426121 
L 135.9062 236.638709 
L 136.339145 236.605955 
L 136.663854 236.664654 
L 136.880326 236.947548 
L 137.150917 237.797811 
L 137.475625 239.652238 
L 137.962688 243.932068 
L 138.828578 254.142526 
L 139.856822 265.554556 
L 140.452121 269.889582 
L 140.939184 271.944967 
L 141.318011 272.71735 
L 141.588602 272.880118 
L 141.805074 272.775341 
L 142.129783 272.322464 
L 143.320381 270.318534 
L 143.64509 270.257566 
L 143.91568 270.432843 
L 144.240389 270.950344 
L 144.673334 272.100413 
L 145.376869 274.718083 
L 146.675704 279.566458 
L 147.271003 280.95956 
L 147.758066 281.608713 
L 148.191011 281.867569 
L 148.623956 281.882485 
L 149.706318 281.598836 
L 150.51809 281.536673 
L 151.762807 281.63886 
L 152.52046 281.990166 
L 153.819295 282.913966 
L 154.955775 283.60744 
L 155.929901 283.934841 
L 157.120499 284.082522 
L 162.099366 284.420493 
L 164.480563 284.835791 
L 166.753523 284.948956 
L 170.2712 284.86937 
L 171.840626 284.548577 
L 175.520657 283.707923 
L 178.388917 283.356151 
L 180.932468 283.277293 
L 182.123067 283.335942 
L 182.285421 283.789998 
L 182.556011 285.398613 
L 183.205429 291.316816 
L 183.692492 294.811078 
L 183.963082 295.488 
L 184.071319 295.424068 
L 184.233673 294.872171 
L 184.450145 293.189432 
L 184.774854 288.722294 
L 185.261917 278.282396 
L 186.073689 254.852807 
L 187.210169 223.198622 
L 187.859586 211.015349 
L 188.400767 204.675491 
L 188.88783 201.368666 
L 189.320775 199.828561 
L 189.645484 199.301611 
L 189.916074 199.188073 
L 190.294901 199.370479 
L 190.673728 199.467807 
L 190.8902 199.298424 
L 191.106673 198.789168 
L 191.377263 197.541776 
L 191.75609 194.668448 
L 192.351389 188.096739 
L 194.137287 166.746496 
L 194.678468 163.148943 
L 195.111413 161.525816 
L 195.436122 160.944726 
L 195.706712 160.841396 
L 195.923185 161.005464 
L 196.302012 161.655807 
L 197.330256 163.659336 
L 197.654964 163.847391 
L 197.925555 163.768193 
L 198.196145 163.461317 
L 198.574972 162.656823 
L 199.116153 160.915468 
L 201.064405 154.037182 
L 201.605586 153.086592 
L 202.092649 152.668715 
L 202.525594 152.588139 
L 203.175012 152.756231 
L 204.257374 153.046109 
L 205.447972 152.995335 
L 206.151508 152.731421 
L 207.071516 152.114791 
L 208.911531 150.831374 
L 209.885657 150.459628 
L 211.130374 150.239555 
L 216.10924 149.826359 
L 219.302209 149.819084 
L 220.871634 150.00427 
L 226.175209 150.842269 
L 228.935232 150.946789 
L 231.803492 150.841897 
L 233.643508 150.456624 
L 236.295295 149.759488 
L 236.511768 148.829647 
L 236.890594 145.894879 
L 237.756484 138.673582 
L 238.027075 137.851291 
L 238.135311 137.845315 
L 238.297665 138.25825 
L 238.514138 139.730371 
L 238.838846 143.908213 
L 239.271791 152.709633 
L 239.975327 172.32886 
L 241.32828 210.663657 
L 241.977697 222.78536 
L 242.518878 229.059791 
L 243.005941 232.309362 
L 243.438886 233.79706 
L 243.763595 234.277103 
L 244.034185 234.334153 
L 244.521248 234.01963 
L 244.791839 233.968291 
L 245.008311 234.13821 
L 245.224784 234.654879 
L 245.495374 235.917445 
L 245.874201 238.813661 
L 246.4695 245.411671 
L 248.255398 266.649685 
L 248.796579 270.166191 
L 249.229524 271.721138 
L 249.554232 272.249761 
L 249.770705 272.321254 
L 249.987177 272.168442 
L 250.366004 271.520609 
L 251.502484 269.308038 
L 251.827193 269.17618 
L 252.097784 269.299082 
L 252.422492 269.747198 
L 252.855437 270.80712 
L 253.558973 273.284217 
L 254.857807 277.886927 
L 255.453106 279.171687 
L 255.940169 279.73537 
L 256.373114 279.919408 
L 256.860177 279.85469 
L 258.862547 279.325946 
L 260.107264 279.435191 
L 261.027272 279.791421 
L 264.003768 281.154528 
L 265.410839 281.393312 
L 268.062626 281.558915 
L 271.68854 281.60149 
L 273.203847 281.480319 
L 274.989744 281.071261 
L 277.587414 280.497775 
L 280.293319 280.173805 
L 282.890988 280.087386 
L 285.43454 280.19763 
L 287.43691 280.597116 
L 289.926343 281.037874 
L 290.359288 281.168689 
L 290.521642 281.682588 
L 290.846351 283.785886 
L 292.036949 292.948859 
L 292.199304 293.143186 
L 292.30754 293.020662 
L 292.469894 292.36818 
L 292.740485 289.932211 
L 293.119311 283.854186 
L 293.660493 270.824966 
L 295.879335 211.505318 
L 296.420516 204.146947 
L 296.907579 200.186239 
L 297.340524 198.284945 
L 297.719351 197.548074 
L 297.989941 197.46018 
L 298.31465 197.724259 
L 298.801713 198.093674 
L 299.018185 198.010654 
L 299.234658 197.607774 
L 299.505248 196.483277 
L 299.884075 193.722355 
L 300.425256 187.860476 
L 302.427626 164.058964 
L 302.914689 161.149611 
L 303.347634 159.760063 
L 303.672343 159.360603 
L 303.888815 159.390163 
L 304.159406 159.724247 
L 304.646469 160.802057 
L 305.404123 162.416 
L 305.728831 162.709936 
L 305.999422 162.701076 
L 306.270012 162.462066 
L 306.648839 161.73331 
L 307.19002 160.059376 
L 309.246508 152.941513 
L 309.733571 152.163042 
L 310.166516 151.820488 
L 310.599461 151.757219 
L 311.19476 151.936803 
L 312.493595 152.392775 
L 313.575957 152.406386 
L 314.550083 152.269665 
L 315.578327 151.871896 
L 318.175997 150.750199 
L 319.691304 150.445037 
L 322.288973 150.190148 
L 325.319587 150.087891 
L 328.025493 150.197803 
L 330.081981 150.604109 
L 332.571414 151.031538 
L 335.331438 151.24756 
L 338.632642 151.262377 
L 339.985595 151.074987 
L 342.42091 150.433895 
L 344.531516 149.810306 
L 344.747989 148.824202 
L 345.126816 145.831538 
L 345.992705 138.683335 
L 346.263296 137.931772 
L 346.371532 137.958667 
L 346.533887 138.434378 
L 346.750359 139.998539 
L 347.075068 144.308645 
L 347.562131 154.592099 
L 348.373902 177.993453 
L 349.510383 209.949633 
L 350.1598 222.329407 
L 350.700981 228.753889 
L 351.188044 232.042018 
L 351.620989 233.512513 
L 351.945698 233.954551 
L 352.16217 233.982232 
L 352.540997 233.705497 
L 352.919824 233.537734 
L 353.136296 233.682841 
L 353.352768 234.18265 
L 353.623359 235.455567 
L 354.002186 238.440177 
L 354.597485 245.328919 
L 356.383383 267.805964 
L 356.924564 271.573162 
L 357.357509 273.225886 
L 357.682217 273.767975 
L 357.89869 273.821312 
L 358.115162 273.628484 
L 358.493989 272.884513 
L 359.522233 270.650426 
L 359.846942 270.471461 
L 360.117532 270.601007 
L 360.388123 271.012513 
L 360.76695 272.034003 
L 361.362249 274.430758 
L 363.094028 281.899374 
L 363.63521 283.159132 
L 364.068154 283.703912 
L 364.446981 283.89358 
L 364.879926 283.837556 
L 365.63758 283.438782 
L 366.395233 283.125563 
L 367.098769 283.102352 
L 367.802304 283.235881 
L 368.559958 283.627973 
L 369.858792 284.622608 
L 371.049391 285.415476 
L 372.023517 285.796317 
L 373.268233 286.023062 
L 376.352965 286.242587 
L 379.167107 286.289788 
L 380.682414 286.179729 
L 382.25184 285.806793 
L 385.39069 285.014162 
L 388.150714 284.614752 
L 390.748383 284.45961 
L 393.724879 284.526774 
L 395.781367 284.851609 
L 398.487273 285.264347 
L 398.487273 285.264347 
" clip-path="url(#p975a40314f)" style="fill: none; stroke: #1f77b4; stroke-width: 1.5; stroke-linecap: square"/>
   </g>
   <g id="line2d_17">
    <path d="M 73.832727 148.230735 
L 127.89672 148.230735 
L 128.059074 278.582509 
L 182.01483 278.582509 
L 182.177185 148.230735 
L 236.132941 148.230735 
L 236.295295 278.582509 
L 290.251052 278.582509 
L 290.413406 148.230735 
L 344.369162 148.230735 
L 344.531516 278.582509 
L 398.433155 278.582509 
L 398.487273 148.230735 
L 398.487273 148.230735 
" clip-path="url(#p975a40314f)" style="fill: none; stroke-dasharray: 5.55,2.4; stroke-dashoffset: 0; stroke: #ff7f0e; stroke-opacity: 0.6; stroke-width: 1.5"/>
   </g>
   <g id="patch_3">
    <path d="M 57.6 307.584 
L 57.6 41.472 
" style="fill: none; stroke: #000000; stroke-width: 0.8; stroke-linejoin: miter; stroke-linecap: square"/>
   </g>
   <g id="patch_4">
    <path d="M 414.72 307.584 
L 414.72 41.472 
" style="fill: none; stroke: #000000; stroke-width: 0.8; stroke-linejoin: miter; stroke-linecap: square"/>
   </g>
   <g id="patch_5">
    <path d="M 57.6 307.584 
L 414.72 307.584 
" style="fill: none; stroke: #000000; stroke-width: 0.8; stroke-linejoin: miter; stroke-linecap: square"/>
   </g>
   <g id="patch_6">
    <path d="M 57.6 41.472 
L 414.72 41.472 
" style="fill: none; stroke: #000000; stroke-width: 0.8; stroke-linejoin: miter; stroke-linecap: square"/>
   </g>
   <g id="text_18">
    <!-- Cart position x' -->
    <g transform="translate(190.695 35.472) scale(0.12 -0.12)">
     <defs>
      <path id="DejaVuSans-43" d="M 4122 4306 
L 4122 3641 
Q 3803 3938 3442 4084 
Q 3081 4231 2675 4231 
Q 1875 4231 1450 3742 
Q 1025 3253 1025 2328 
Q 1025 1406 1450 917 
Q 1875 428 2675 428 
Q 3081 428 3442 575 
Q 3803 722 4122 1019 
L 4122 359 
Q 3791 134 3420 21 
Q 3050 -91 2638 -91 
Q 1578 -91 968 557 
Q 359 1206 359 2328 
Q 359 3453 968 4101 
Q 1578 4750 2638 4750 
Q 3056 4750 3426 4639 
Q 3797 4528 4122 4306 
z
" transform="scale(0.015625)"/>
      <path id="DejaVuSans-61" d="M 2194 1759 
Q 1497 1759 1228 1600 
Q 959 1441 959 1056 
Q 959 750 1161 570 
Q 1363 391 1709 391 
Q 2188 391 2477 730 
Q 2766 1069 2766 1631 
L 2766 1759 
L 2194 1759 
z
M 3341 1997 
L 3341 0 
L 2766 0 
L 2766 531 
Q 2569 213 2275 61 
Q 1981 -91 1556 -91 
Q 1019 -91 701 211 
Q 384 513 384 1019 
Q 384 1609 779 1909 
Q 1175 2209 1959 2209 
L 2766 2209 
L 2766 2266 
Q 2766 2663 2505 2880 
Q 2244 3097 1772 3097 
Q 1472 3097 1187 3025 
Q 903 2953 641 2809 
L 641 3341 
Q 956 3463 1253 3523 
Q 1550 3584 1831 3584 
Q 2591 3584 2966 3190 
Q 3341 2797 3341 1997 
z
" transform="scale(0.015625)"/>
      <path id="DejaVuSans-72" d="M 2631 2963 
Q 2534 3019 2420 3045 
Q 2306 3072 2169 3072 
Q 1681 3072 1420 2755 
Q 1159 2438 1159 1844 
L 1159 0 
L 581 0 
L 581 3500 
L 1159 3500 
L 1159 2956 
Q 1341 3275 1631 3429 
Q 1922 3584 2338 3584 
Q 2397 3584 2469 3576 
Q 2541 3569 2628 3553 
L 2631 2963 
z
" transform="scale(0.015625)"/>
      <path id="DejaVuSans-70" d="M 1159 525 
L 1159 -1331 
L 581 -1331 
L 581 3500 
L 1159 3500 
L 1159 2969 
Q 1341 3281 1617 3432 
Q 1894 3584 2278 3584 
Q 2916 3584 3314 3078 
Q 3713 2572 3713 1747 
Q 3713 922 3314 415 
Q 2916 -91 2278 -91 
Q 1894 -91 1617 61 
Q 1341 213 1159 525 
z
M 3116 1747 
Q 3116 2381 2855 2742 
Q 2594 3103 2138 3103 
Q 1681 3103 1420 2742 
Q 1159 2381 1159 1747 
Q 1159 1113 1420 752 
Q 1681 391 2138 391 
Q 2594 391 2855 752 
Q 3116 1113 3116 1747 
z
" transform="scale(0.015625)"/>
      <path id="DejaVuSans-78" d="M 3513 3500 
L 2247 1797 
L 3578 0 
L 2900 0 
L 1881 1375 
L 863 0 
L 184 0 
L 1544 1831 
L 300 3500 
L 978 3500 
L 1906 2253 
L 2834 3500 
L 3513 3500 
z
" transform="scale(0.015625)"/>
      <path id="DejaVuSans-27" d="M 1147 4666 
L 1147 2931 
L 616 2931 
L 616 4666 
L 1147 4666 
z
" transform="scale(0.015625)"/>
     </defs>
     <use xlink:href="#DejaVuSans-43"/>
     <use xlink:href="#DejaVuSans-61" transform="translate(69.824219 0)"/>
     <use xlink:href="#DejaVuSans-72" transform="translate(131.103516 0)"/>
     <use xlink:href="#DejaVuSans-74" transform="translate(172.216797 0)"/>
     <use xlink:href="#DejaVuSans-20" transform="translate(211.425781 0)"/>
     <use xlink:href="#DejaVuSans-70" transform="translate(243.212891 0)"/>
     <use xlink:href="#DejaVuSans-6f" transform="translate(306.689453 0)"/>
     <use xlink:href="#DejaVuSans-73" transform="translate(367.871094 0)"/>
     <use xlink:href="#DejaVuSans-69" transform="translate(419.970703 0)"/>
     <use xlink:href="#DejaVuSans-74" transform="translate(447.753906 0)"/>
     <use xlink:href="#DejaVuSans-69" transform="translate(486.962891 0)"/>
     <use xlink:href="#DejaVuSans-6f" transform="translate(514.746094 0)"/>
     <use xlink:href="#DejaVuSans-6e" transform="translate(575.927734 0)"/>
     <use xlink:href="#DejaVuSans-20" transform="translate(639.306641 0)"/>
     <use xlink:href="#DejaVuSans-78" transform="translate(671.09375 0)"/>
     <use xlink:href="#DejaVuSans-27" transform="translate(730.273438 0)"/>
    </g>
   </g>
   <g id="legend_1">
    <g id="patch_7">
     <path d="M 280.86375 79.106375 
L 407.72 79.106375 
Q 409.72 79.106375 409.72 77.106375 
L 409.72 48.472 
Q 409.72 46.472 407.72 46.472 
L 280.86375 46.472 
Q 278.86375 46.472 278.86375 48.472 
L 278.86375 77.106375 
Q 278.86375 79.106375 280.86375 79.106375 
z
" style="fill: #ffffff; opacity: 0.8; stroke: #cccccc; stroke-linejoin: miter"/>
    </g>
    <g id="line2d_18">
     <path d="M 282.86375 54.570438 
L 292.86375 54.570438 
L 302.86375 54.570438 
" style="fill: none; stroke: #1f77b4; stroke-width: 1.5; stroke-linecap: square"/>
    </g>
    <g id="text_19">
     <!-- Cart position x -->
     <g transform="translate(310.86375 58.070438) scale(0.1 -0.1)">
      <use xlink:href="#DejaVuSans-43"/>
      <use xlink:href="#DejaVuSans-61" transform="translate(69.824219 0)"/>
      <use xlink:href="#DejaVuSans-72" transform="translate(131.103516 0)"/>
      <use xlink:href="#DejaVuSans-74" transform="translate(172.216797 0)"/>
      <use xlink:href="#DejaVuSans-20" transform="translate(211.425781 0)"/>
      <use xlink:href="#DejaVuSans-70" transform="translate(243.212891 0)"/>
      <use xlink:href="#DejaVuSans-6f" transform="translate(306.689453 0)"/>
      <use xlink:href="#DejaVuSans-73" transform="translate(367.871094 0)"/>
      <use xlink:href="#DejaVuSans-69" transform="translate(419.970703 0)"/>
      <use xlink:href="#DejaVuSans-74" transform="translate(447.753906 0)"/>
      <use xlink:href="#DejaVuSans-69" transform="translate(486.962891 0)"/>
      <use xlink:href="#DejaVuSans-6f" transform="translate(514.746094 0)"/>
      <use xlink:href="#DejaVuSans-6e" transform="translate(575.927734 0)"/>
      <use xlink:href="#DejaVuSans-20" transform="translate(639.306641 0)"/>
      <use xlink:href="#DejaVuSans-78" transform="translate(671.09375 0)"/>
     </g>
    </g>
    <g id="line2d_19">
     <path d="M 282.86375 69.248563 
L 292.86375 69.248563 
L 302.86375 69.248563 
" style="fill: none; stroke-dasharray: 5.55,2.4; stroke-dashoffset: 0; stroke: #ff7f0e; stroke-opacity: 0.6; stroke-width: 1.5"/>
    </g>
    <g id="text_20">
     <!-- Reference x_target -->
     <g transform="translate(310.86375 72.748563) scale(0.1 -0.1)">
      <defs>
       <path id="DejaVuSans-52" d="M 2841 2188 
Q 3044 2119 3236 1894 
Q 3428 1669 3622 1275 
L 4263 0 
L 3584 0 
L 2988 1197 
Q 2756 1666 2539 1819 
Q 2322 1972 1947 1972 
L 1259 1972 
L 1259 0 
L 628 0 
L 628 4666 
L 2053 4666 
Q 2853 4666 3247 4331 
Q 3641 3997 3641 3322 
Q 3641 2881 3436 2590 
Q 3231 2300 2841 2188 
z
M 1259 4147 
L 1259 2491 
L 2053 2491 
Q 2509 2491 2742 2702 
Q 2975 2913 2975 3322 
Q 2975 3731 2742 3939 
Q 2509 4147 2053 4147 
L 1259 4147 
z
" transform="scale(0.015625)"/>
       <path id="DejaVuSans-66" d="M 2375 4863 
L 2375 4384 
L 1825 4384 
Q 1516 4384 1395 4259 
Q 1275 4134 1275 3809 
L 1275 3500 
L 2222 3500 
L 2222 3053 
L 1275 3053 
L 1275 0 
L 697 0 
L 697 3053 
L 147 3053 
L 147 3500 
L 697 3500 
L 697 3744 
Q 697 4328 969 4595 
Q 1241 4863 1831 4863 
L 2375 4863 
z
" transform="scale(0.015625)"/>
       <path id="DejaVuSans-63" d="M 3122 3366 
L 3122 2828 
Q 2878 2963 2633 3030 
Q 2388 3097 2138 3097 
Q 1578 3097 1268 2742 
Q 959 2388 959 1747 
Q 959 1106 1268 751 
Q 1578 397 2138 397 
Q 2388 397 2633 464 
Q 2878 531 3122 666 
L 3122 134 
Q 2881 22 2623 -34 
Q 2366 -91 2075 -91 
Q 1284 -91 818 406 
Q 353 903 353 1747 
Q 353 2603 823 3093 
Q 1294 3584 2113 3584 
Q 2378 3584 2631 3529 
Q 2884 3475 3122 3366 
z
" transform="scale(0.015625)"/>
       <path id="DejaVuSans-5f" d="M 3263 -1063 
L 3263 -1509 
L -63 -1509 
L -63 -1063 
L 3263 -1063 
z
" transform="scale(0.015625)"/>
       <path id="DejaVuSans-67" d="M 2906 1791 
Q 2906 2416 2648 2759 
Q 2391 3103 1925 3103 
Q 1463 3103 1205 2759 
Q 947 2416 947 1791 
Q 947 1169 1205 825 
Q 1463 481 1925 481 
Q 2391 481 2648 825 
Q 2906 1169 2906 1791 
z
M 3481 434 
Q 3481 -459 3084 -895 
Q 2688 -1331 1869 -1331 
Q 1566 -1331 1297 -1286 
Q 1028 -1241 775 -1147 
L 775 -588 
Q 1028 -725 1275 -790 
Q 1522 -856 1778 -856 
Q 2344 -856 2625 -561 
Q 2906 -266 2906 331 
L 2906 616 
Q 2728 306 2450 153 
Q 2172 0 1784 0 
Q 1141 0 747 490 
Q 353 981 353 1791 
Q 353 2603 747 3093 
Q 1141 3584 1784 3584 
Q 2172 3584 2450 3431 
Q 2728 3278 2906 2969 
L 2906 3500 
L 3481 3500 
L 3481 434 
z
" transform="scale(0.015625)"/>
      </defs>
      <use xlink:href="#DejaVuSans-52"/>
      <use xlink:href="#DejaVuSans-65" transform="translate(64.982422 0)"/>
      <use xlink:href="#DejaVuSans-66" transform="translate(126.505859 0)"/>
      <use xlink:href="#DejaVuSans-65" transform="translate(161.710938 0)"/>
      <use xlink:href="#DejaVuSans-72" transform="translate(223.234375 0)"/>
      <use xlink:href="#DejaVuSans-65" transform="translate(262.097656 0)"/>
      <use xlink:href="#DejaVuSans-6e" transform="translate(323.621094 0)"/>
      <use xlink:href="#DejaVuSans-63" transform="translate(387 0)"/>
      <use xlink:href="#DejaVuSans-65" transform="translate(441.980469 0)"/>
      <use xlink:href="#DejaVuSans-20" transform="translate(503.503906 0)"/>
      <use xlink:href="#DejaVuSans-78" transform="translate(535.291016 0)"/>
      <use xlink:href="#DejaVuSans-5f" transform="translate(594.470703 0)"/>
      <use xlink:href="#DejaVuSans-74" transform="translate(644.470703 0)"/>
      <use xlink:href="#DejaVuSans-61" transform="translate(683.679688 0)"/>
      <use xlink:href="#DejaVuSans-72" transform="translate(744.958984 0)"/>
      <use xlink:href="#DejaVuSans-67" transform="translate(784.322266 0)"/>
      <use xlink:href="#DejaVuSans-65" transform="translate(847.798828 0)"/>
      <use xlink:href="#DejaVuSans-74" transform="translate(909.322266 0)"/>
     </g>
    </g>
   </g>
  </g>
 </g>
 <defs>
  <clipPath id="p975a40314f">
   <rect x="57.6" y="41.472" width="357.12" height="266.112"/>
  </clipPath>
 </defs>
</svg>
