<?xml version="1.0" encoding="utf-8" standalone="no"?>
<!DOCTYPE svg PUBLIC "-//W3C//DTD SVG 1.1//EN"
  "http://www.w3.org/Graphics/SVG/1.1/DTD/svg11.dtd">
<svg xmlns:xlink="http://www.w3.org/1999/xlink" width="864pt" height="432pt" viewBox="0 0 864 432" xmlns="http://www.w3.org/2000/svg" version="1.1">
 <metadata>
  <rdf:RDF xmlns:dc="http://purl.org/dc/elements/1.1/" xmlns:cc="http://creativecommons.org/ns#" xmlns:rdf="http://www.w3.org/1999/02/22-rdf-syntax-ns#">
   <cc:Work>
    <dc:type rdf:resource="http://purl.org/dc/dcmitype/StillImage"/>
    <dc:date>2025-04-29T12:43:48.576417</dc:date>
    <dc:format>image/svg+xml</dc:format>
    <dc:creator>
     <cc:Agent>
      <dc:title>Matplotlib v3.10.1, https://matplotlib.org/</dc:title>
     </cc:Agent>
    </dc:creator>
   </cc:Work>
  </rdf:RDF>
 </metadata>
 <defs>
  <style type="text/css">*{stroke-linejoin: round; stroke-linecap: butt}</style>
 </defs>
 <g id="figure_1">
  <g id="patch_1">
   <path d="M 0 432 
L 864 432 
L 864 0 
L 0 0 
z
" style="fill: #ffffff"/>
  </g>
  <g id="axes_1">
   <g id="patch_2">
    <path d="M 56 187.48 
L 853.2 187.48 
L 853.2 26.88 
L 56 26.88 
z
" style="fill: #ffffff"/>
   </g>
   <g id="matplotlib.axis_1">
    <g id="xtick_1">
     <g id="line2d_1">
      <defs>
       <path id="m86ff84099e" d="M 0 0 
L 0 3.5 
" style="stroke: #000000; stroke-width: 0.8"/>
      </defs>
      <g>
       <use xlink:href="#m86ff84099e" x="92.236364" y="187.48" style="stroke: #000000; stroke-width: 0.8"/>
      </g>
     </g>
     <g id="text_1">
      <!-- 0 -->
      <g transform="translate(89.055114 202.078437) scale(0.1 -0.1)">
       <defs>
        <path id="DejaVuSans-30" d="M 2034 4250 
Q 1547 4250 1301 3770 
Q 1056 3291 1056 2328 
Q 1056 1369 1301 889 
Q 1547 409 2034 409 
Q 2525 409 2770 889 
Q 3016 1369 3016 2328 
Q 3016 3291 2770 3770 
Q 2525 4250 2034 4250 
z
M 2034 4750 
Q 2819 4750 3233 4129 
Q 3647 3509 3647 2328 
Q 3647 1150 3233 529 
Q 2819 -91 2034 -91 
Q 1250 -91 836 529 
Q 422 1150 422 2328 
Q 422 3509 836 4129 
Q 1250 4750 2034 4750 
z
" transform="scale(0.015625)"/>
       </defs>
       <use xlink:href="#DejaVuSans-30"/>
      </g>
     </g>
    </g>
    <g id="xtick_2">
     <g id="line2d_2">
      <g>
       <use xlink:href="#m86ff84099e" x="213.024242" y="187.48" style="stroke: #000000; stroke-width: 0.8"/>
      </g>
     </g>
     <g id="text_2">
      <!-- 10 -->
      <g transform="translate(206.661742 202.078437) scale(0.1 -0.1)">
       <defs>
        <path id="DejaVuSans-31" d="M 794 531 
L 1825 531 
L 1825 4091 
L 703 3866 
L 703 4441 
L 1819 4666 
L 2450 4666 
L 2450 531 
L 3481 531 
L 3481 0 
L 794 0 
L 794 531 
z
" transform="scale(0.015625)"/>
       </defs>
       <use xlink:href="#DejaVuSans-31"/>
       <use xlink:href="#DejaVuSans-30" transform="translate(63.623047 0)"/>
      </g>
     </g>
    </g>
    <g id="xtick_3">
     <g id="line2d_3">
      <g>
       <use xlink:href="#m86ff84099e" x="333.812121" y="187.48" style="stroke: #000000; stroke-width: 0.8"/>
      </g>
     </g>
     <g id="text_3">
      <!-- 20 -->
      <g transform="translate(327.449621 202.078437) scale(0.1 -0.1)">
       <defs>
        <path id="DejaVuSans-32" d="M 1228 531 
L 3431 531 
L 3431 0 
L 469 0 
L 469 531 
Q 828 903 1448 1529 
Q 2069 2156 2228 2338 
Q 2531 2678 2651 2914 
Q 2772 3150 2772 3378 
Q 2772 3750 2511 3984 
Q 2250 4219 1831 4219 
Q 1534 4219 1204 4116 
Q 875 4013 500 3803 
L 500 4441 
Q 881 4594 1212 4672 
Q 1544 4750 1819 4750 
Q 2544 4750 2975 4387 
Q 3406 4025 3406 3419 
Q 3406 3131 3298 2873 
Q 3191 2616 2906 2266 
Q 2828 2175 2409 1742 
Q 1991 1309 1228 531 
z
" transform="scale(0.015625)"/>
       </defs>
       <use xlink:href="#DejaVuSans-32"/>
       <use xlink:href="#DejaVuSans-30" transform="translate(63.623047 0)"/>
      </g>
     </g>
    </g>
    <g id="xtick_4">
     <g id="line2d_4">
      <g>
       <use xlink:href="#m86ff84099e" x="454.6" y="187.48" style="stroke: #000000; stroke-width: 0.8"/>
      </g>
     </g>
     <g id="text_4">
      <!-- 30 -->
      <g transform="translate(448.2375 202.078437) scale(0.1 -0.1)">
       <defs>
        <path id="DejaVuSans-33" d="M 2597 2516 
Q 3050 2419 3304 2112 
Q 3559 1806 3559 1356 
Q 3559 666 3084 287 
Q 2609 -91 1734 -91 
Q 1441 -91 1130 -33 
Q 819 25 488 141 
L 488 750 
Q 750 597 1062 519 
Q 1375 441 1716 441 
Q 2309 441 2620 675 
Q 2931 909 2931 1356 
Q 2931 1769 2642 2001 
Q 2353 2234 1838 2234 
L 1294 2234 
L 1294 2753 
L 1863 2753 
Q 2328 2753 2575 2939 
Q 2822 3125 2822 3475 
Q 2822 3834 2567 4026 
Q 2313 4219 1838 4219 
Q 1578 4219 1281 4162 
Q 984 4106 628 3988 
L 628 4550 
Q 988 4650 1302 4700 
Q 1616 4750 1894 4750 
Q 2613 4750 3031 4423 
Q 3450 4097 3450 3541 
Q 3450 3153 3228 2886 
Q 3006 2619 2597 2516 
z
" transform="scale(0.015625)"/>
       </defs>
       <use xlink:href="#DejaVuSans-33"/>
       <use xlink:href="#DejaVuSans-30" transform="translate(63.623047 0)"/>
      </g>
     </g>
    </g>
    <g id="xtick_5">
     <g id="line2d_5">
      <g>
       <use xlink:href="#m86ff84099e" x="575.387879" y="187.48" style="stroke: #000000; stroke-width: 0.8"/>
      </g>
     </g>
     <g id="text_5">
      <!-- 40 -->
      <g transform="translate(569.025379 202.078437) scale(0.1 -0.1)">
       <defs>
        <path id="DejaVuSans-34" d="M 2419 4116 
L 825 1625 
L 2419 1625 
L 2419 4116 
z
M 2253 4666 
L 3047 4666 
L 3047 1625 
L 3713 1625 
L 3713 1100 
L 3047 1100 
L 3047 0 
L 2419 0 
L 2419 1100 
L 313 1100 
L 313 1709 
L 2253 4666 
z
" transform="scale(0.015625)"/>
       </defs>
       <use xlink:href="#DejaVuSans-34"/>
       <use xlink:href="#DejaVuSans-30" transform="translate(63.623047 0)"/>
      </g>
     </g>
    </g>
    <g id="xtick_6">
     <g id="line2d_6">
      <g>
       <use xlink:href="#m86ff84099e" x="696.175758" y="187.48" style="stroke: #000000; stroke-width: 0.8"/>
      </g>
     </g>
     <g id="text_6">
      <!-- 50 -->
      <g transform="translate(689.813258 202.078437) scale(0.1 -0.1)">
       <defs>
        <path id="DejaVuSans-35" d="M 691 4666 
L 3169 4666 
L 3169 4134 
L 1269 4134 
L 1269 2991 
Q 1406 3038 1543 3061 
Q 1681 3084 1819 3084 
Q 2600 3084 3056 2656 
Q 3513 2228 3513 1497 
Q 3513 744 3044 326 
Q 2575 -91 1722 -91 
Q 1428 -91 1123 -41 
Q 819 9 494 109 
L 494 744 
Q 775 591 1075 516 
Q 1375 441 1709 441 
Q 2250 441 2565 725 
Q 2881 1009 2881 1497 
Q 2881 1984 2565 2268 
Q 2250 2553 1709 2553 
Q 1456 2553 1204 2497 
Q 953 2441 691 2322 
L 691 4666 
z
" transform="scale(0.015625)"/>
       </defs>
       <use xlink:href="#DejaVuSans-35"/>
       <use xlink:href="#DejaVuSans-30" transform="translate(63.623047 0)"/>
      </g>
     </g>
    </g>
    <g id="xtick_7">
     <g id="line2d_7">
      <g>
       <use xlink:href="#m86ff84099e" x="816.963636" y="187.48" style="stroke: #000000; stroke-width: 0.8"/>
      </g>
     </g>
     <g id="text_7">
      <!-- 60 -->
      <g transform="translate(810.601136 202.078437) scale(0.1 -0.1)">
       <defs>
        <path id="DejaVuSans-36" d="M 2113 2584 
Q 1688 2584 1439 2293 
Q 1191 2003 1191 1497 
Q 1191 994 1439 701 
Q 1688 409 2113 409 
Q 2538 409 2786 701 
Q 3034 994 3034 1497 
Q 3034 2003 2786 2293 
Q 2538 2584 2113 2584 
z
M 3366 4563 
L 3366 3988 
Q 3128 4100 2886 4159 
Q 2644 4219 2406 4219 
Q 1781 4219 1451 3797 
Q 1122 3375 1075 2522 
Q 1259 2794 1537 2939 
Q 1816 3084 2150 3084 
Q 2853 3084 3261 2657 
Q 3669 2231 3669 1497 
Q 3669 778 3244 343 
Q 2819 -91 2113 -91 
Q 1303 -91 875 529 
Q 447 1150 447 2328 
Q 447 3434 972 4092 
Q 1497 4750 2381 4750 
Q 2619 4750 2861 4703 
Q 3103 4656 3366 4563 
z
" transform="scale(0.015625)"/>
       </defs>
       <use xlink:href="#DejaVuSans-36"/>
       <use xlink:href="#DejaVuSans-30" transform="translate(63.623047 0)"/>
      </g>
     </g>
    </g>
    <g id="text_8">
     <!-- Time (s) -->
     <g transform="translate(434.271094 215.756562) scale(0.1 -0.1)">
      <defs>
       <path id="DejaVuSans-54" d="M -19 4666 
L 3928 4666 
L 3928 4134 
L 2272 4134 
L 2272 0 
L 1638 0 
L 1638 4134 
L -19 4134 
L -19 4666 
z
" transform="scale(0.015625)"/>
       <path id="DejaVuSans-69" d="M 603 3500 
L 1178 3500 
L 1178 0 
L 603 0 
L 603 3500 
z
M 603 4863 
L 1178 4863 
L 1178 4134 
L 603 4134 
L 603 4863 
z
" transform="scale(0.015625)"/>
       <path id="DejaVuSans-6d" d="M 3328 2828 
Q 3544 3216 3844 3400 
Q 4144 3584 4550 3584 
Q 5097 3584 5394 3201 
Q 5691 2819 5691 2113 
L 5691 0 
L 5113 0 
L 5113 2094 
Q 5113 2597 4934 2840 
Q 4756 3084 4391 3084 
Q 3944 3084 3684 2787 
Q 3425 2491 3425 1978 
L 3425 0 
L 2847 0 
L 2847 2094 
Q 2847 2600 2669 2842 
Q 2491 3084 2119 3084 
Q 1678 3084 1418 2786 
Q 1159 2488 1159 1978 
L 1159 0 
L 581 0 
L 581 3500 
L 1159 3500 
L 1159 2956 
Q 1356 3278 1631 3431 
Q 1906 3584 2284 3584 
Q 2666 3584 2933 3390 
Q 3200 3197 3328 2828 
z
" transform="scale(0.015625)"/>
       <path id="DejaVuSans-65" d="M 3597 1894 
L 3597 1613 
L 953 1613 
Q 991 1019 1311 708 
Q 1631 397 2203 397 
Q 2534 397 2845 478 
Q 3156 559 3463 722 
L 3463 178 
Q 3153 47 2828 -22 
Q 2503 -91 2169 -91 
Q 1331 -91 842 396 
Q 353 884 353 1716 
Q 353 2575 817 3079 
Q 1281 3584 2069 3584 
Q 2775 3584 3186 3129 
Q 3597 2675 3597 1894 
z
M 3022 2063 
Q 3016 2534 2758 2815 
Q 2500 3097 2075 3097 
Q 1594 3097 1305 2825 
Q 1016 2553 972 2059 
L 3022 2063 
z
" transform="scale(0.015625)"/>
       <path id="DejaVuSans-20" transform="scale(0.015625)"/>
       <path id="DejaVuSans-28" d="M 1984 4856 
Q 1566 4138 1362 3434 
Q 1159 2731 1159 2009 
Q 1159 1288 1364 580 
Q 1569 -128 1984 -844 
L 1484 -844 
Q 1016 -109 783 600 
Q 550 1309 550 2009 
Q 550 2706 781 3412 
Q 1013 4119 1484 4856 
L 1984 4856 
z
" transform="scale(0.015625)"/>
       <path id="DejaVuSans-73" d="M 2834 3397 
L 2834 2853 
Q 2591 2978 2328 3040 
Q 2066 3103 1784 3103 
Q 1356 3103 1142 2972 
Q 928 2841 928 2578 
Q 928 2378 1081 2264 
Q 1234 2150 1697 2047 
L 1894 2003 
Q 2506 1872 2764 1633 
Q 3022 1394 3022 966 
Q 3022 478 2636 193 
Q 2250 -91 1575 -91 
Q 1294 -91 989 -36 
Q 684 19 347 128 
L 347 722 
Q 666 556 975 473 
Q 1284 391 1588 391 
Q 1994 391 2212 530 
Q 2431 669 2431 922 
Q 2431 1156 2273 1281 
Q 2116 1406 1581 1522 
L 1381 1569 
Q 847 1681 609 1914 
Q 372 2147 372 2553 
Q 372 3047 722 3315 
Q 1072 3584 1716 3584 
Q 2034 3584 2315 3537 
Q 2597 3491 2834 3397 
z
" transform="scale(0.015625)"/>
       <path id="DejaVuSans-29" d="M 513 4856 
L 1013 4856 
Q 1481 4119 1714 3412 
Q 1947 2706 1947 2009 
Q 1947 1309 1714 600 
Q 1481 -109 1013 -844 
L 513 -844 
Q 928 -128 1133 580 
Q 1338 1288 1338 2009 
Q 1338 2731 1133 3434 
Q 928 4138 513 4856 
z
" transform="scale(0.015625)"/>
      </defs>
      <use xlink:href="#DejaVuSans-54"/>
      <use xlink:href="#DejaVuSans-69" transform="translate(57.958984 0)"/>
      <use xlink:href="#DejaVuSans-6d" transform="translate(85.742188 0)"/>
      <use xlink:href="#DejaVuSans-65" transform="translate(183.154297 0)"/>
      <use xlink:href="#DejaVuSans-20" transform="translate(244.677734 0)"/>
      <use xlink:href="#DejaVuSans-28" transform="translate(276.464844 0)"/>
      <use xlink:href="#DejaVuSans-73" transform="translate(315.478516 0)"/>
      <use xlink:href="#DejaVuSans-29" transform="translate(367.578125 0)"/>
     </g>
    </g>
   </g>
   <g id="matplotlib.axis_2">
    <g id="ytick_1">
     <g id="line2d_8">
      <defs>
       <path id="m3519b0cb7e" d="M 0 0 
L -3.5 0 
" style="stroke: #000000; stroke-width: 0.8"/>
      </defs>
      <g>
       <use xlink:href="#m3519b0cb7e" x="56" y="175.608168" style="stroke: #000000; stroke-width: 0.8"/>
      </g>
     </g>
     <g id="text_9">
      <!-- −0.4 -->
      <g transform="translate(24.717187 179.407387) scale(0.1 -0.1)">
       <defs>
        <path id="DejaVuSans-2212" d="M 678 2272 
L 4684 2272 
L 4684 1741 
L 678 1741 
L 678 2272 
z
" transform="scale(0.015625)"/>
        <path id="DejaVuSans-2e" d="M 684 794 
L 1344 794 
L 1344 0 
L 684 0 
L 684 794 
z
" transform="scale(0.015625)"/>
       </defs>
       <use xlink:href="#DejaVuSans-2212"/>
       <use xlink:href="#DejaVuSans-30" transform="translate(83.789062 0)"/>
       <use xlink:href="#DejaVuSans-2e" transform="translate(147.412109 0)"/>
       <use xlink:href="#DejaVuSans-34" transform="translate(179.199219 0)"/>
      </g>
     </g>
    </g>
    <g id="ytick_2">
     <g id="line2d_9">
      <g>
       <use xlink:href="#m3519b0cb7e" x="56" y="144.982712" style="stroke: #000000; stroke-width: 0.8"/>
      </g>
     </g>
     <g id="text_10">
      <!-- −0.2 -->
      <g transform="translate(24.717187 148.781931) scale(0.1 -0.1)">
       <use xlink:href="#DejaVuSans-2212"/>
       <use xlink:href="#DejaVuSans-30" transform="translate(83.789062 0)"/>
       <use xlink:href="#DejaVuSans-2e" transform="translate(147.412109 0)"/>
       <use xlink:href="#DejaVuSans-32" transform="translate(179.199219 0)"/>
      </g>
     </g>
    </g>
    <g id="ytick_3">
     <g id="line2d_10">
      <g>
       <use xlink:href="#m3519b0cb7e" x="56" y="114.357256" style="stroke: #000000; stroke-width: 0.8"/>
      </g>
     </g>
     <g id="text_11">
      <!-- 0.0 -->
      <g transform="translate(33.096875 118.156475) scale(0.1 -0.1)">
       <use xlink:href="#DejaVuSans-30"/>
       <use xlink:href="#DejaVuSans-2e" transform="translate(63.623047 0)"/>
       <use xlink:href="#DejaVuSans-30" transform="translate(95.410156 0)"/>
      </g>
     </g>
    </g>
    <g id="ytick_4">
     <g id="line2d_11">
      <g>
       <use xlink:href="#m3519b0cb7e" x="56" y="83.7318" style="stroke: #000000; stroke-width: 0.8"/>
      </g>
     </g>
     <g id="text_12">
      <!-- 0.2 -->
      <g transform="translate(33.096875 87.531019) scale(0.1 -0.1)">
       <use xlink:href="#DejaVuSans-30"/>
       <use xlink:href="#DejaVuSans-2e" transform="translate(63.623047 0)"/>
       <use xlink:href="#DejaVuSans-32" transform="translate(95.410156 0)"/>
      </g>
     </g>
    </g>
    <g id="ytick_5">
     <g id="line2d_12">
      <g>
       <use xlink:href="#m3519b0cb7e" x="56" y="53.106344" style="stroke: #000000; stroke-width: 0.8"/>
      </g>
     </g>
     <g id="text_13">
      <!-- 0.4 -->
      <g transform="translate(33.096875 56.905563) scale(0.1 -0.1)">
       <use xlink:href="#DejaVuSans-30"/>
       <use xlink:href="#DejaVuSans-2e" transform="translate(63.623047 0)"/>
       <use xlink:href="#DejaVuSans-34" transform="translate(95.410156 0)"/>
      </g>
     </g>
    </g>
    <g id="text_14">
     <!-- Angle (rad) -->
     <g transform="translate(18.6375 135.193281) rotate(-90) scale(0.1 -0.1)">
      <defs>
       <path id="DejaVuSans-41" d="M 2188 4044 
L 1331 1722 
L 3047 1722 
L 2188 4044 
z
M 1831 4666 
L 2547 4666 
L 4325 0 
L 3669 0 
L 3244 1197 
L 1141 1197 
L 716 0 
L 50 0 
L 1831 4666 
z
" transform="scale(0.015625)"/>
       <path id="DejaVuSans-6e" d="M 3513 2113 
L 3513 0 
L 2938 0 
L 2938 2094 
Q 2938 2591 2744 2837 
Q 2550 3084 2163 3084 
Q 1697 3084 1428 2787 
Q 1159 2491 1159 1978 
L 1159 0 
L 581 0 
L 581 3500 
L 1159 3500 
L 1159 2956 
Q 1366 3272 1645 3428 
Q 1925 3584 2291 3584 
Q 2894 3584 3203 3211 
Q 3513 2838 3513 2113 
z
" transform="scale(0.015625)"/>
       <path id="DejaVuSans-67" d="M 2906 1791 
Q 2906 2416 2648 2759 
Q 2391 3103 1925 3103 
Q 1463 3103 1205 2759 
Q 947 2416 947 1791 
Q 947 1169 1205 825 
Q 1463 481 1925 481 
Q 2391 481 2648 825 
Q 2906 1169 2906 1791 
z
M 3481 434 
Q 3481 -459 3084 -895 
Q 2688 -1331 1869 -1331 
Q 1566 -1331 1297 -1286 
Q 1028 -1241 775 -1147 
L 775 -588 
Q 1028 -725 1275 -790 
Q 1522 -856 1778 -856 
Q 2344 -856 2625 -561 
Q 2906 -266 2906 331 
L 2906 616 
Q 2728 306 2450 153 
Q 2172 0 1784 0 
Q 1141 0 747 490 
Q 353 981 353 1791 
Q 353 2603 747 3093 
Q 1141 3584 1784 3584 
Q 2172 3584 2450 3431 
Q 2728 3278 2906 2969 
L 2906 3500 
L 3481 3500 
L 3481 434 
z
" transform="scale(0.015625)"/>
       <path id="DejaVuSans-6c" d="M 603 4863 
L 1178 4863 
L 1178 0 
L 603 0 
L 603 4863 
z
" transform="scale(0.015625)"/>
       <path id="DejaVuSans-72" d="M 2631 2963 
Q 2534 3019 2420 3045 
Q 2306 3072 2169 3072 
Q 1681 3072 1420 2755 
Q 1159 2438 1159 1844 
L 1159 0 
L 581 0 
L 581 3500 
L 1159 3500 
L 1159 2956 
Q 1341 3275 1631 3429 
Q 1922 3584 2338 3584 
Q 2397 3584 2469 3576 
Q 2541 3569 2628 3553 
L 2631 2963 
z
" transform="scale(0.015625)"/>
       <path id="DejaVuSans-61" d="M 2194 1759 
Q 1497 1759 1228 1600 
Q 959 1441 959 1056 
Q 959 750 1161 570 
Q 1363 391 1709 391 
Q 2188 391 2477 730 
Q 2766 1069 2766 1631 
L 2766 1759 
L 2194 1759 
z
M 3341 1997 
L 3341 0 
L 2766 0 
L 2766 531 
Q 2569 213 2275 61 
Q 1981 -91 1556 -91 
Q 1019 -91 701 211 
Q 384 513 384 1019 
Q 384 1609 779 1909 
Q 1175 2209 1959 2209 
L 2766 2209 
L 2766 2266 
Q 2766 2663 2505 2880 
Q 2244 3097 1772 3097 
Q 1472 3097 1187 3025 
Q 903 2953 641 2809 
L 641 3341 
Q 956 3463 1253 3523 
Q 1550 3584 1831 3584 
Q 2591 3584 2966 3190 
Q 3341 2797 3341 1997 
z
" transform="scale(0.015625)"/>
       <path id="DejaVuSans-64" d="M 2906 2969 
L 2906 4863 
L 3481 4863 
L 3481 0 
L 2906 0 
L 2906 525 
Q 2725 213 2448 61 
Q 2172 -91 1784 -91 
Q 1150 -91 751 415 
Q 353 922 353 1747 
Q 353 2572 751 3078 
Q 1150 3584 1784 3584 
Q 2172 3584 2448 3432 
Q 2725 3281 2906 2969 
z
M 947 1747 
Q 947 1113 1208 752 
Q 1469 391 1925 391 
Q 2381 391 2643 752 
Q 2906 1113 2906 1747 
Q 2906 2381 2643 2742 
Q 2381 3103 1925 3103 
Q 1469 3103 1208 2742 
Q 947 2381 947 1747 
z
" transform="scale(0.015625)"/>
      </defs>
      <use xlink:href="#DejaVuSans-41"/>
      <use xlink:href="#DejaVuSans-6e" transform="translate(68.408203 0)"/>
      <use xlink:href="#DejaVuSans-67" transform="translate(131.787109 0)"/>
      <use xlink:href="#DejaVuSans-6c" transform="translate(195.263672 0)"/>
      <use xlink:href="#DejaVuSans-65" transform="translate(223.046875 0)"/>
      <use xlink:href="#DejaVuSans-20" transform="translate(284.570312 0)"/>
      <use xlink:href="#DejaVuSans-28" transform="translate(316.357422 0)"/>
      <use xlink:href="#DejaVuSans-72" transform="translate(355.371094 0)"/>
      <use xlink:href="#DejaVuSans-61" transform="translate(396.484375 0)"/>
      <use xlink:href="#DejaVuSans-64" transform="translate(457.763672 0)"/>
      <use xlink:href="#DejaVuSans-29" transform="translate(521.240234 0)"/>
     </g>
    </g>
   </g>
   <g id="line2d_13">
    <path d="M 92.236364 34.18 
L 92.357172 34.300767 
L 92.598788 35.261544 
L 92.961212 38.40027 
L 93.444444 45.471568 
L 94.048484 58.29808 
L 94.89414 81.751772 
L 97.3103 152.969573 
L 98.035148 167.252825 
L 98.639188 175.166768 
L 99.12242 178.82369 
L 99.484844 180.049262 
L 99.72646 180.176795 
L 99.968076 179.787544 
L 100.209693 178.900164 
L 100.572117 176.452608 
L 101.055349 171.211401 
L 101.659389 162.004118 
L 102.625853 143.034801 
L 104.800397 98.783159 
L 105.525245 88.43058 
L 106.129285 82.494732 
L 106.612517 79.593533 
L 106.974941 78.47576 
L 107.216557 78.212517 
L 107.458173 78.315195 
L 107.699789 78.76407 
L 108.062213 80.087888 
L 108.545445 83.149196 
L 109.149486 88.678367 
L 110.11595 100.032283 
L 111.92807 121.870618 
L 112.773726 129.220248 
L 113.377766 132.693781 
L 113.860998 134.326165 
L 114.223422 134.886268 
L 114.465038 134.955275 
L 114.706654 134.797961 
L 115.069078 134.172086 
L 115.55231 132.676831 
L 116.15635 129.917769 
L 117.002006 124.890044 
L 119.418167 109.691561 
L 120.143015 106.529373 
L 120.747055 104.710107 
L 121.230287 103.813072 
L 121.592711 103.458992 
L 121.955135 103.362911 
L 122.317559 103.501022 
L 122.800791 104.00497 
L 123.284023 104.850366 
L 123.888063 106.40326 
L 124.854527 109.619691 
L 126.666647 115.730254 
L 127.512304 117.737031 
L 128.116344 118.655869 
L 128.599576 119.064333 
L 129.082808 119.215192 
L 129.56604 119.113466 
L 130.049272 118.791196 
L 130.653312 118.128362 
L 131.498968 116.849236 
L 134.39836 112.11574 
L 135.244016 111.300508 
L 135.968865 110.919767 
L 136.693713 110.823853 
L 137.418561 110.968293 
L 138.264217 111.375084 
L 139.230681 112.097718 
L 141.767649 114.082242 
L 142.734113 114.538322 
L 144.304617 114.945638 
L 145.512698 115.070557 
L 146.841586 114.958261 
L 148.653706 114.543641 
L 151.553098 113.871187 
L 153.24441 113.725342 
L 155.298147 113.788437 
L 163.392284 114.263974 
L 177.406013 114.197871 
L 185.50015 114.461793 
L 207.3664 114.414325 
L 213.044377 114.251214 
L 213.285993 114.460431 
L 213.648417 115.398323 
L 214.131649 117.616948 
L 214.856497 122.385686 
L 216.910234 137.090336 
L 217.514274 139.828558 
L 217.876698 140.785245 
L 218.118314 141.059444 
L 218.35993 141.04263 
L 218.601546 140.752364 
L 218.96397 139.839277 
L 219.447202 137.808758 
L 220.051242 134.166545 
L 220.896898 127.590284 
L 223.554674 105.633964 
L 224.279522 101.534577 
L 224.883562 99.133805 
L 225.366794 97.898929 
L 225.850027 97.254466 
L 226.212451 97.1332 
L 226.574875 97.289832 
L 226.937299 97.691627 
L 227.420531 98.560431 
L 228.145379 100.43567 
L 229.111843 103.668723 
L 230.561539 109.39479 
L 232.977699 119.114392 
L 233.460931 120.175778 
L 233.823355 120.586575 
L 234.185779 120.674963 
L 234.548203 120.471374 
L 235.031436 119.804569 
L 235.635476 118.445409 
L 236.481132 115.867588 
L 238.897292 108.029666 
L 239.62214 106.461516 
L 240.22618 105.606262 
L 240.709412 105.2297 
L 241.192644 105.118118 
L 241.675876 105.252457 
L 242.159108 105.605844 
L 242.763148 106.31248 
L 243.487996 107.508441 
L 244.333653 109.422228 
L 246.749813 115.23602 
L 247.474661 116.36502 
L 248.199509 117.061527 
L 248.803549 117.334224 
L 249.286781 117.331272 
L 249.890821 117.087968 
L 250.615669 116.511236 
L 251.582133 115.420462 
L 253.998294 112.548377 
L 254.84395 111.89591 
L 255.689606 111.531423 
L 256.414454 111.447759 
L 257.26011 111.582046 
L 258.226574 111.974185 
L 259.555462 112.794421 
L 261.246774 113.757949 
L 262.454855 114.199757 
L 264.750207 114.66262 
L 266.199903 114.82954 
L 267.649599 114.759141 
L 269.824143 114.391568 
L 272.602728 113.959162 
L 274.656464 113.888676 
L 277.676664 114.045697 
L 285.287569 114.500173 
L 288.307769 114.429367 
L 294.710594 114.220108 
L 313.19422 114.359268 
L 318.268157 114.455781 
L 333.973199 114.457147 
L 334.214815 114.023187 
L 334.577239 112.757491 
L 335.060471 110.132643 
L 335.906127 103.886326 
L 337.597439 91.029401 
L 338.201479 87.923322 
L 338.684711 86.459058 
L 338.926327 86.1821 
L 339.167943 86.212951 
L 339.409559 86.533046 
L 339.771983 87.518439 
L 340.255215 89.69106 
L 340.859255 93.569857 
L 341.704911 100.551842 
L 344.362688 123.738901 
L 345.087536 128.033736 
L 345.691576 130.532522 
L 346.174808 131.80417 
L 346.65804 132.450679 
L 347.020464 132.553179 
L 347.382888 132.363696 
L 347.745312 131.91624 
L 348.228544 130.969153 
L 348.953392 128.947201 
L 349.919856 125.47216 
L 351.248744 119.770521 
L 353.544097 109.447737 
L 354.148137 107.882717 
L 354.510561 107.417437 
L 354.872985 107.305862 
L 355.235409 107.515707 
L 355.597833 108.009075 
L 356.081065 109.047635 
L 356.805913 111.23062 
L 358.134801 116.17951 
L 359.342881 120.399371 
L 360.188537 122.588262 
L 360.792578 123.627395 
L 361.27581 124.122368 
L 361.759042 124.323171 
L 362.242274 124.251829 
L 362.725506 123.943807 
L 363.329546 123.26907 
L 364.054394 122.087764 
L 364.779242 120.462535 
L 367.799442 113.016035 
L 368.52429 112.024449 
L 369.12833 111.538154 
L 369.611563 111.358021 
L 370.094795 111.375074 
L 370.698835 111.635123 
L 371.423683 112.229264 
L 372.510955 113.487942 
L 374.685499 116.082412 
L 375.531155 116.755057 
L 376.376811 117.138962 
L 377.101659 117.236198 
L 377.947315 117.113034 
L 378.91378 116.725472 
L 380.242668 115.896684 
L 382.054788 114.82696 
L 383.262868 114.376576 
L 385.316604 113.966852 
L 386.7663 113.840522 
L 388.336805 113.959196 
L 391.115389 114.466701 
L 393.410741 114.765546 
L 395.464477 114.798958 
L 399.209526 114.584812 
L 403.316998 114.424526 
L 414.431336 114.467546 
L 420.713352 114.46735 
L 429.653145 114.259487 
L 449.586467 114.359322 
L 454.781212 114.566301 
L 455.022828 115.034542 
L 455.385252 116.340167 
L 455.868484 118.998312 
L 456.71414 125.247635 
L 458.284644 137.20892 
L 459.009492 140.965279 
L 459.492725 142.354867 
L 459.734341 142.602191 
L 459.975957 142.548095 
L 460.217573 142.204283 
L 460.579997 141.181478 
L 461.063229 138.958858 
L 461.667269 135.019544 
L 462.633733 126.863115 
L 465.049893 105.547811 
L 465.895549 100.43453 
L 466.499589 97.963577 
L 466.982821 96.718823 
L 467.345245 96.199245 
L 467.707669 96.013654 
L 468.070094 96.131305 
L 468.432518 96.514327 
L 468.91575 97.388269 
L 469.51979 98.96208 
L 470.365446 101.823437 
L 471.573526 106.781346 
L 473.023222 113.758864 
L 474.110494 118.53109 
L 474.714534 120.418579 
L 475.197766 121.247584 
L 475.56019 121.448217 
L 475.922614 121.315279 
L 476.285038 120.887798 
L 476.76827 119.920125 
L 477.493119 117.805526 
L 478.701199 113.334221 
L 480.150895 108.188193 
L 480.996551 106.018039 
L 481.600591 104.998858 
L 482.083823 104.522294 
L 482.567055 104.341033 
L 483.050287 104.431554 
L 483.533519 104.758808 
L 484.137559 105.457596 
L 484.862407 106.674636 
L 485.708063 108.655657 
L 488.245032 115.095196 
L 488.96988 116.279901 
L 489.57392 116.908509 
L 490.17796 117.252572 
L 490.661192 117.311908 
L 491.265232 117.134157 
L 491.99008 116.618441 
L 492.956544 115.577379 
L 495.614321 112.471872 
L 496.459977 111.866864 
L 497.184825 111.580004 
L 497.909673 111.504391 
L 498.755329 111.648509 
L 499.721793 112.05607 
L 503.829265 114.251679 
L 505.037346 114.468741 
L 508.057546 114.740738 
L 509.990474 114.619116 
L 516.030875 114.046407 
L 519.655115 114.128086 
L 526.420364 114.270432 
L 534.756117 114.16859 
L 538.138741 114.186178 
L 549.494695 114.465681 
L 569.428017 114.341054 
L 574.743569 114.25462 
L 575.468417 114.230381 
L 575.710033 113.907318 
L 576.072458 112.791664 
L 576.55569 110.328808 
L 577.280538 105.209368 
L 579.213466 90.630083 
L 579.817506 87.651745 
L 580.17993 86.547297 
L 580.421546 86.186589 
L 580.663162 86.13319 
L 580.904778 86.378167 
L 581.267202 87.26883 
L 581.750434 89.345768 
L 582.354474 93.152797 
L 583.20013 100.116764 
L 585.978715 124.488014 
L 586.703563 128.682239 
L 587.307603 131.071481 
L 587.790835 132.24528 
L 588.153259 132.710281 
L 588.515683 132.841752 
L 588.878107 132.672122 
L 589.240531 132.236828 
L 589.723763 131.29435 
L 590.448611 129.255282 
L 591.415075 125.709831 
L 592.502347 120.903636 
L 594.918508 109.419599 
L 595.522548 107.688366 
L 595.884972 107.131418 
L 596.247396 106.945915 
L 596.60982 107.102964 
L 596.972244 107.562049 
L 597.455476 108.58152 
L 598.180324 110.787752 
L 599.388404 115.419166 
L 600.717292 120.333 
L 601.562948 122.667912 
L 602.166988 123.796344 
L 602.65022 124.349509 
L 603.133453 124.594842 
L 603.616685 124.552533 
L 604.099917 124.258776 
L 604.703957 123.583633 
L 605.428805 122.374942 
L 606.153653 120.690032 
L 609.173853 112.973455 
L 609.898701 111.94206 
L 610.502741 111.446472 
L 610.985973 111.267701 
L 611.469205 111.291975 
L 612.073246 111.567702 
L 612.798094 112.187494 
L 613.885366 113.490086 
L 615.939102 116.028191 
L 616.784758 116.746792 
L 617.630414 117.168931 
L 618.355262 117.289315 
L 619.200918 117.184611 
L 620.167382 116.81375 
L 621.496271 116.005541 
L 623.429199 114.889183 
L 624.637279 114.450077 
L 625.845359 114.259888 
L 629.590407 113.999968 
L 631.88576 114.171119 
L 636.71808 114.596838 
L 640.100705 114.574855 
L 649.402922 114.4512 
L 664.383115 114.343933 
L 669.698668 114.254208 
L 683.59159 114.136307 
L 686.853406 114.193584 
L 695.430775 114.472002 
L 696.276431 114.505981 
L 696.518047 114.853018 
L 696.880471 116.002724 
L 697.363703 118.501275 
L 698.088551 123.651342 
L 700.021479 138.193339 
L 700.625519 141.136007 
L 700.987943 142.216953 
L 701.229559 142.564525 
L 701.471175 142.607749 
L 701.712792 142.355596 
L 702.075216 141.459495 
L 702.558448 139.383589 
L 703.162488 135.588563 
L 704.008144 128.654202 
L 706.786728 104.372972 
L 707.511576 100.180913 
L 708.115616 97.784666 
L 708.598848 96.600051 
L 708.961272 96.124284 
L 709.323696 95.980154 
L 709.68612 96.142772 
L 710.048544 96.582284 
L 710.531777 97.543181 
L 711.256625 99.627995 
L 712.223089 103.249507 
L 713.431169 108.709821 
L 715.605713 119.208346 
L 716.209753 121.066011 
L 716.572177 121.69286 
L 716.934601 121.937589 
L 717.176217 121.900178 
L 717.538641 121.574884 
L 718.021873 120.695853 
L 718.625913 119.013292 
L 719.592378 115.447259 
L 721.646114 107.615156 
L 722.370962 105.66232 
L 722.975002 104.551093 
L 723.458234 104.020262 
L 723.941466 103.802885 
L 724.424698 103.881228 
L 724.90793 104.231197 
L 725.51197 104.998291 
L 726.236818 106.349861 
L 726.961666 108.219536 
L 729.740251 115.976668 
L 730.465099 117.16744 
L 731.069139 117.764131 
L 731.552371 117.989281 
L 732.035603 117.974169 
L 732.518835 117.749035 
L 733.122875 117.220157 
L 733.968531 116.14073 
L 737.109539 111.738488 
L 737.834388 111.180125 
L 738.559236 110.887132 
L 739.284084 110.848042 
L 740.12974 111.066159 
L 741.096204 111.590666 
L 742.787516 112.922174 
L 744.237212 113.944792 
L 745.324484 114.440521 
L 746.532565 114.705285 
L 748.223877 114.911782 
L 749.673573 114.843885 
L 751.727309 114.498087 
L 754.868317 113.975925 
L 756.922054 113.890106 
L 760.063062 114.029268 
L 765.257807 114.251891 
L 773.110327 114.207304 
L 778.42588 114.163678 
L 789.298601 114.463042 
L 810.68162 114.379175 
L 816.963636 114.257235 
L 816.963636 114.257235 
" clip-path="url(#p63c55e3362)" style="fill: none; stroke: #1f77b4; stroke-width: 1.5; stroke-linecap: square"/>
   </g>
   <g id="LineCollection_1">
    <path d="M 92.236364 114.357256 
L 816.963636 114.357256 
" clip-path="url(#p63c55e3362)" style="fill: none; stroke: #ff0000; stroke-width: 1.5"/>
   </g>
   <g id="patch_3">
    <path d="M 56 187.48 
L 56 26.88 
" style="fill: none; stroke: #000000; stroke-width: 0.8; stroke-linejoin: miter; stroke-linecap: square"/>
   </g>
   <g id="patch_4">
    <path d="M 853.2 187.48 
L 853.2 26.88 
" style="fill: none; stroke: #000000; stroke-width: 0.8; stroke-linejoin: miter; stroke-linecap: square"/>
   </g>
   <g id="patch_5">
    <path d="M 56 187.48 
L 853.2 187.48 
" style="fill: none; stroke: #000000; stroke-width: 0.8; stroke-linejoin: miter; stroke-linecap: square"/>
   </g>
   <g id="patch_6">
    <path d="M 56 26.88 
L 853.2 26.88 
" style="fill: none; stroke: #000000; stroke-width: 0.8; stroke-linejoin: miter; stroke-linecap: square"/>
   </g>
   <g id="text_15">
    <!-- Inverted Pendulum on a Cart : System States -->
    <g transform="translate(319.057188 20.88) scale(0.12 -0.12)">
     <defs>
      <path id="DejaVuSans-49" d="M 628 4666 
L 1259 4666 
L 1259 0 
L 628 0 
L 628 4666 
z
" transform="scale(0.015625)"/>
      <path id="DejaVuSans-76" d="M 191 3500 
L 800 3500 
L 1894 563 
L 2988 3500 
L 3597 3500 
L 2284 0 
L 1503 0 
L 191 3500 
z
" transform="scale(0.015625)"/>
      <path id="DejaVuSans-74" d="M 1172 4494 
L 1172 3500 
L 2356 3500 
L 2356 3053 
L 1172 3053 
L 1172 1153 
Q 1172 725 1289 603 
Q 1406 481 1766 481 
L 2356 481 
L 2356 0 
L 1766 0 
Q 1100 0 847 248 
Q 594 497 594 1153 
L 594 3053 
L 172 3053 
L 172 3500 
L 594 3500 
L 594 4494 
L 1172 4494 
z
" transform="scale(0.015625)"/>
      <path id="DejaVuSans-50" d="M 1259 4147 
L 1259 2394 
L 2053 2394 
Q 2494 2394 2734 2622 
Q 2975 2850 2975 3272 
Q 2975 3691 2734 3919 
Q 2494 4147 2053 4147 
L 1259 4147 
z
M 628 4666 
L 2053 4666 
Q 2838 4666 3239 4311 
Q 3641 3956 3641 3272 
Q 3641 2581 3239 2228 
Q 2838 1875 2053 1875 
L 1259 1875 
L 1259 0 
L 628 0 
L 628 4666 
z
" transform="scale(0.015625)"/>
      <path id="DejaVuSans-75" d="M 544 1381 
L 544 3500 
L 1119 3500 
L 1119 1403 
Q 1119 906 1312 657 
Q 1506 409 1894 409 
Q 2359 409 2629 706 
Q 2900 1003 2900 1516 
L 2900 3500 
L 3475 3500 
L 3475 0 
L 2900 0 
L 2900 538 
Q 2691 219 2414 64 
Q 2138 -91 1772 -91 
Q 1169 -91 856 284 
Q 544 659 544 1381 
z
M 1991 3584 
L 1991 3584 
z
" transform="scale(0.015625)"/>
      <path id="DejaVuSans-6f" d="M 1959 3097 
Q 1497 3097 1228 2736 
Q 959 2375 959 1747 
Q 959 1119 1226 758 
Q 1494 397 1959 397 
Q 2419 397 2687 759 
Q 2956 1122 2956 1747 
Q 2956 2369 2687 2733 
Q 2419 3097 1959 3097 
z
M 1959 3584 
Q 2709 3584 3137 3096 
Q 3566 2609 3566 1747 
Q 3566 888 3137 398 
Q 2709 -91 1959 -91 
Q 1206 -91 779 398 
Q 353 888 353 1747 
Q 353 2609 779 3096 
Q 1206 3584 1959 3584 
z
" transform="scale(0.015625)"/>
      <path id="DejaVuSans-43" d="M 4122 4306 
L 4122 3641 
Q 3803 3938 3442 4084 
Q 3081 4231 2675 4231 
Q 1875 4231 1450 3742 
Q 1025 3253 1025 2328 
Q 1025 1406 1450 917 
Q 1875 428 2675 428 
Q 3081 428 3442 575 
Q 3803 722 4122 1019 
L 4122 359 
Q 3791 134 3420 21 
Q 3050 -91 2638 -91 
Q 1578 -91 968 557 
Q 359 1206 359 2328 
Q 359 3453 968 4101 
Q 1578 4750 2638 4750 
Q 3056 4750 3426 4639 
Q 3797 4528 4122 4306 
z
" transform="scale(0.015625)"/>
      <path id="DejaVuSans-3a" d="M 750 794 
L 1409 794 
L 1409 0 
L 750 0 
L 750 794 
z
M 750 3309 
L 1409 3309 
L 1409 2516 
L 750 2516 
L 750 3309 
z
" transform="scale(0.015625)"/>
      <path id="DejaVuSans-53" d="M 3425 4513 
L 3425 3897 
Q 3066 4069 2747 4153 
Q 2428 4238 2131 4238 
Q 1616 4238 1336 4038 
Q 1056 3838 1056 3469 
Q 1056 3159 1242 3001 
Q 1428 2844 1947 2747 
L 2328 2669 
Q 3034 2534 3370 2195 
Q 3706 1856 3706 1288 
Q 3706 609 3251 259 
Q 2797 -91 1919 -91 
Q 1588 -91 1214 -16 
Q 841 59 441 206 
L 441 856 
Q 825 641 1194 531 
Q 1563 422 1919 422 
Q 2459 422 2753 634 
Q 3047 847 3047 1241 
Q 3047 1584 2836 1778 
Q 2625 1972 2144 2069 
L 1759 2144 
Q 1053 2284 737 2584 
Q 422 2884 422 3419 
Q 422 4038 858 4394 
Q 1294 4750 2059 4750 
Q 2388 4750 2728 4690 
Q 3069 4631 3425 4513 
z
" transform="scale(0.015625)"/>
      <path id="DejaVuSans-79" d="M 2059 -325 
Q 1816 -950 1584 -1140 
Q 1353 -1331 966 -1331 
L 506 -1331 
L 506 -850 
L 844 -850 
Q 1081 -850 1212 -737 
Q 1344 -625 1503 -206 
L 1606 56 
L 191 3500 
L 800 3500 
L 1894 763 
L 2988 3500 
L 3597 3500 
L 2059 -325 
z
" transform="scale(0.015625)"/>
     </defs>
     <use xlink:href="#DejaVuSans-49"/>
     <use xlink:href="#DejaVuSans-6e" transform="translate(29.492188 0)"/>
     <use xlink:href="#DejaVuSans-76" transform="translate(92.871094 0)"/>
     <use xlink:href="#DejaVuSans-65" transform="translate(152.050781 0)"/>
     <use xlink:href="#DejaVuSans-72" transform="translate(213.574219 0)"/>
     <use xlink:href="#DejaVuSans-74" transform="translate(254.6875 0)"/>
     <use xlink:href="#DejaVuSans-65" transform="translate(293.896484 0)"/>
     <use xlink:href="#DejaVuSans-64" transform="translate(355.419922 0)"/>
     <use xlink:href="#DejaVuSans-20" transform="translate(418.896484 0)"/>
     <use xlink:href="#DejaVuSans-50" transform="translate(450.683594 0)"/>
     <use xlink:href="#DejaVuSans-65" transform="translate(507.361328 0)"/>
     <use xlink:href="#DejaVuSans-6e" transform="translate(568.884766 0)"/>
     <use xlink:href="#DejaVuSans-64" transform="translate(632.263672 0)"/>
     <use xlink:href="#DejaVuSans-75" transform="translate(695.740234 0)"/>
     <use xlink:href="#DejaVuSans-6c" transform="translate(759.119141 0)"/>
     <use xlink:href="#DejaVuSans-75" transform="translate(786.902344 0)"/>
     <use xlink:href="#DejaVuSans-6d" transform="translate(850.28125 0)"/>
     <use xlink:href="#DejaVuSans-20" transform="translate(947.693359 0)"/>
     <use xlink:href="#DejaVuSans-6f" transform="translate(979.480469 0)"/>
     <use xlink:href="#DejaVuSans-6e" transform="translate(1040.662109 0)"/>
     <use xlink:href="#DejaVuSans-20" transform="translate(1104.041016 0)"/>
     <use xlink:href="#DejaVuSans-61" transform="translate(1135.828125 0)"/>
     <use xlink:href="#DejaVuSans-20" transform="translate(1197.107422 0)"/>
     <use xlink:href="#DejaVuSans-43" transform="translate(1228.894531 0)"/>
     <use xlink:href="#DejaVuSans-61" transform="translate(1298.71875 0)"/>
     <use xlink:href="#DejaVuSans-72" transform="translate(1359.998047 0)"/>
     <use xlink:href="#DejaVuSans-74" transform="translate(1401.111328 0)"/>
     <use xlink:href="#DejaVuSans-20" transform="translate(1440.320312 0)"/>
     <use xlink:href="#DejaVuSans-3a" transform="translate(1472.107422 0)"/>
     <use xlink:href="#DejaVuSans-20" transform="translate(1505.798828 0)"/>
     <use xlink:href="#DejaVuSans-53" transform="translate(1537.585938 0)"/>
     <use xlink:href="#DejaVuSans-79" transform="translate(1601.0625 0)"/>
     <use xlink:href="#DejaVuSans-73" transform="translate(1660.242188 0)"/>
     <use xlink:href="#DejaVuSans-74" transform="translate(1712.341797 0)"/>
     <use xlink:href="#DejaVuSans-65" transform="translate(1751.550781 0)"/>
     <use xlink:href="#DejaVuSans-6d" transform="translate(1813.074219 0)"/>
     <use xlink:href="#DejaVuSans-20" transform="translate(1910.486328 0)"/>
     <use xlink:href="#DejaVuSans-53" transform="translate(1942.273438 0)"/>
     <use xlink:href="#DejaVuSans-74" transform="translate(2005.75 0)"/>
     <use xlink:href="#DejaVuSans-61" transform="translate(2044.958984 0)"/>
     <use xlink:href="#DejaVuSans-74" transform="translate(2106.238281 0)"/>
     <use xlink:href="#DejaVuSans-65" transform="translate(2145.447266 0)"/>
     <use xlink:href="#DejaVuSans-73" transform="translate(2206.970703 0)"/>
    </g>
   </g>
   <g id="legend_1">
    <g id="patch_7">
     <path d="M 679.209375 64.314375 
L 846.2 64.314375 
Q 848.2 64.314375 848.2 62.314375 
L 848.2 33.88 
Q 848.2 31.88 846.2 31.88 
L 679.209375 31.88 
Q 677.209375 31.88 677.209375 33.88 
L 677.209375 62.314375 
Q 677.209375 64.314375 679.209375 64.314375 
z
" style="fill: #ffffff; opacity: 0.8; stroke: #cccccc; stroke-linejoin: miter"/>
    </g>
    <g id="line2d_14">
     <path d="M 681.209375 40.056562 
L 691.209375 40.056562 
L 701.209375 40.056562 
" style="fill: none; stroke: #1f77b4; stroke-width: 1.5; stroke-linecap: square"/>
    </g>
    <g id="text_16">
     <!-- Inverted Pendulum angle θ -->
     <g transform="translate(709.209375 43.556562) scale(0.1 -0.1)">
      <defs>
       <path id="DejaVuSans-3b8" d="M 2953 2219 
L 963 2219 
Q 1009 1284 1225 888 
Q 1494 400 1959 400 
Q 2428 400 2688 891 
Q 2916 1322 2953 2219 
z
M 2944 2750 
Q 2856 3638 2688 3950 
Q 2419 4444 1959 4444 
Q 1481 4444 1228 3956 
Q 1028 3563 969 2750 
L 2944 2750 
z
M 1959 4913 
Q 2709 4913 3138 4250 
Q 3566 3591 3566 2422 
Q 3566 1256 3138 594 
Q 2709 -72 1959 -72 
Q 1206 -72 781 594 
Q 353 1256 353 2422 
Q 353 3591 781 4250 
Q 1206 4913 1959 4913 
z
" transform="scale(0.015625)"/>
      </defs>
      <use xlink:href="#DejaVuSans-49"/>
      <use xlink:href="#DejaVuSans-6e" transform="translate(29.492188 0)"/>
      <use xlink:href="#DejaVuSans-76" transform="translate(92.871094 0)"/>
      <use xlink:href="#DejaVuSans-65" transform="translate(152.050781 0)"/>
      <use xlink:href="#DejaVuSans-72" transform="translate(213.574219 0)"/>
      <use xlink:href="#DejaVuSans-74" transform="translate(254.6875 0)"/>
      <use xlink:href="#DejaVuSans-65" transform="translate(293.896484 0)"/>
      <use xlink:href="#DejaVuSans-64" transform="translate(355.419922 0)"/>
      <use xlink:href="#DejaVuSans-20" transform="translate(418.896484 0)"/>
      <use xlink:href="#DejaVuSans-50" transform="translate(450.683594 0)"/>
      <use xlink:href="#DejaVuSans-65" transform="translate(507.361328 0)"/>
      <use xlink:href="#DejaVuSans-6e" transform="translate(568.884766 0)"/>
      <use xlink:href="#DejaVuSans-64" transform="translate(632.263672 0)"/>
      <use xlink:href="#DejaVuSans-75" transform="translate(695.740234 0)"/>
      <use xlink:href="#DejaVuSans-6c" transform="translate(759.119141 0)"/>
      <use xlink:href="#DejaVuSans-75" transform="translate(786.902344 0)"/>
      <use xlink:href="#DejaVuSans-6d" transform="translate(850.28125 0)"/>
      <use xlink:href="#DejaVuSans-20" transform="translate(947.693359 0)"/>
      <use xlink:href="#DejaVuSans-61" transform="translate(979.480469 0)"/>
      <use xlink:href="#DejaVuSans-6e" transform="translate(1040.759766 0)"/>
      <use xlink:href="#DejaVuSans-67" transform="translate(1104.138672 0)"/>
      <use xlink:href="#DejaVuSans-6c" transform="translate(1167.615234 0)"/>
      <use xlink:href="#DejaVuSans-65" transform="translate(1195.398438 0)"/>
      <use xlink:href="#DejaVuSans-20" transform="translate(1256.921875 0)"/>
      <use xlink:href="#DejaVuSans-3b8" transform="translate(1288.708984 0)"/>
     </g>
    </g>
    <g id="line2d_15">
     <path d="M 681.209375 54.734688 
L 701.209375 54.734688 
" style="fill: none; stroke: #ff0000; stroke-width: 1.5"/>
    </g>
    <g id="text_17">
     <!-- Target angle -->
     <g transform="translate(709.209375 58.234688) scale(0.1 -0.1)">
      <use xlink:href="#DejaVuSans-54"/>
      <use xlink:href="#DejaVuSans-61" transform="translate(44.583984 0)"/>
      <use xlink:href="#DejaVuSans-72" transform="translate(105.863281 0)"/>
      <use xlink:href="#DejaVuSans-67" transform="translate(145.226562 0)"/>
      <use xlink:href="#DejaVuSans-65" transform="translate(208.703125 0)"/>
      <use xlink:href="#DejaVuSans-74" transform="translate(270.226562 0)"/>
      <use xlink:href="#DejaVuSans-20" transform="translate(309.435547 0)"/>
      <use xlink:href="#DejaVuSans-61" transform="translate(341.222656 0)"/>
      <use xlink:href="#DejaVuSans-6e" transform="translate(402.501953 0)"/>
      <use xlink:href="#DejaVuSans-67" transform="translate(465.880859 0)"/>
      <use xlink:href="#DejaVuSans-6c" transform="translate(529.357422 0)"/>
      <use xlink:href="#DejaVuSans-65" transform="translate(557.140625 0)"/>
     </g>
    </g>
   </g>
  </g>
  <g id="axes_2">
   <g id="patch_8">
    <path d="M 56 390.04 
L 853.2 390.04 
L 853.2 229.44 
L 56 229.44 
z
" style="fill: #ffffff"/>
   </g>
   <g id="matplotlib.axis_3">
    <g id="xtick_8">
     <g id="line2d_16">
      <g>
       <use xlink:href="#m86ff84099e" x="92.236364" y="390.04" style="stroke: #000000; stroke-width: 0.8"/>
      </g>
     </g>
     <g id="text_18">
      <!-- 0 -->
      <g transform="translate(89.055114 404.638437) scale(0.1 -0.1)">
       <use xlink:href="#DejaVuSans-30"/>
      </g>
     </g>
    </g>
    <g id="xtick_9">
     <g id="line2d_17">
      <g>
       <use xlink:href="#m86ff84099e" x="213.024242" y="390.04" style="stroke: #000000; stroke-width: 0.8"/>
      </g>
     </g>
     <g id="text_19">
      <!-- 10 -->
      <g transform="translate(206.661742 404.638437) scale(0.1 -0.1)">
       <use xlink:href="#DejaVuSans-31"/>
       <use xlink:href="#DejaVuSans-30" transform="translate(63.623047 0)"/>
      </g>
     </g>
    </g>
    <g id="xtick_10">
     <g id="line2d_18">
      <g>
       <use xlink:href="#m86ff84099e" x="333.812121" y="390.04" style="stroke: #000000; stroke-width: 0.8"/>
      </g>
     </g>
     <g id="text_20">
      <!-- 20 -->
      <g transform="translate(327.449621 404.638437) scale(0.1 -0.1)">
       <use xlink:href="#DejaVuSans-32"/>
       <use xlink:href="#DejaVuSans-30" transform="translate(63.623047 0)"/>
      </g>
     </g>
    </g>
    <g id="xtick_11">
     <g id="line2d_19">
      <g>
       <use xlink:href="#m86ff84099e" x="454.6" y="390.04" style="stroke: #000000; stroke-width: 0.8"/>
      </g>
     </g>
     <g id="text_21">
      <!-- 30 -->
      <g transform="translate(448.2375 404.638437) scale(0.1 -0.1)">
       <use xlink:href="#DejaVuSans-33"/>
       <use xlink:href="#DejaVuSans-30" transform="translate(63.623047 0)"/>
      </g>
     </g>
    </g>
    <g id="xtick_12">
     <g id="line2d_20">
      <g>
       <use xlink:href="#m86ff84099e" x="575.387879" y="390.04" style="stroke: #000000; stroke-width: 0.8"/>
      </g>
     </g>
     <g id="text_22">
      <!-- 40 -->
      <g transform="translate(569.025379 404.638437) scale(0.1 -0.1)">
       <use xlink:href="#DejaVuSans-34"/>
       <use xlink:href="#DejaVuSans-30" transform="translate(63.623047 0)"/>
      </g>
     </g>
    </g>
    <g id="xtick_13">
     <g id="line2d_21">
      <g>
       <use xlink:href="#m86ff84099e" x="696.175758" y="390.04" style="stroke: #000000; stroke-width: 0.8"/>
      </g>
     </g>
     <g id="text_23">
      <!-- 50 -->
      <g transform="translate(689.813258 404.638437) scale(0.1 -0.1)">
       <use xlink:href="#DejaVuSans-35"/>
       <use xlink:href="#DejaVuSans-30" transform="translate(63.623047 0)"/>
      </g>
     </g>
    </g>
    <g id="xtick_14">
     <g id="line2d_22">
      <g>
       <use xlink:href="#m86ff84099e" x="816.963636" y="390.04" style="stroke: #000000; stroke-width: 0.8"/>
      </g>
     </g>
     <g id="text_24">
      <!-- 60 -->
      <g transform="translate(810.601136 404.638437) scale(0.1 -0.1)">
       <use xlink:href="#DejaVuSans-36"/>
       <use xlink:href="#DejaVuSans-30" transform="translate(63.623047 0)"/>
      </g>
     </g>
    </g>
    <g id="text_25">
     <!-- Time (s) -->
     <g transform="translate(434.271094 418.316562) scale(0.1 -0.1)">
      <use xlink:href="#DejaVuSans-54"/>
      <use xlink:href="#DejaVuSans-69" transform="translate(57.958984 0)"/>
      <use xlink:href="#DejaVuSans-6d" transform="translate(85.742188 0)"/>
      <use xlink:href="#DejaVuSans-65" transform="translate(183.154297 0)"/>
      <use xlink:href="#DejaVuSans-20" transform="translate(244.677734 0)"/>
      <use xlink:href="#DejaVuSans-28" transform="translate(276.464844 0)"/>
      <use xlink:href="#DejaVuSans-73" transform="translate(315.478516 0)"/>
      <use xlink:href="#DejaVuSans-29" transform="translate(367.578125 0)"/>
     </g>
    </g>
   </g>
   <g id="matplotlib.axis_4">
    <g id="ytick_6">
     <g id="line2d_23">
      <g>
       <use xlink:href="#m3519b0cb7e" x="56" y="364.852204" style="stroke: #000000; stroke-width: 0.8"/>
      </g>
     </g>
     <g id="text_26">
      <!-- −2 -->
      <g transform="translate(34.257812 368.651423) scale(0.1 -0.1)">
       <use xlink:href="#DejaVuSans-2212"/>
       <use xlink:href="#DejaVuSans-32" transform="translate(83.789062 0)"/>
      </g>
     </g>
    </g>
    <g id="ytick_7">
     <g id="line2d_24">
      <g>
       <use xlink:href="#m3519b0cb7e" x="56" y="330.485671" style="stroke: #000000; stroke-width: 0.8"/>
      </g>
     </g>
     <g id="text_27">
      <!-- −1 -->
      <g transform="translate(34.257812 334.28489) scale(0.1 -0.1)">
       <use xlink:href="#DejaVuSans-2212"/>
       <use xlink:href="#DejaVuSans-31" transform="translate(83.789062 0)"/>
      </g>
     </g>
    </g>
    <g id="ytick_8">
     <g id="line2d_25">
      <g>
       <use xlink:href="#m3519b0cb7e" x="56" y="296.119138" style="stroke: #000000; stroke-width: 0.8"/>
      </g>
     </g>
     <g id="text_28">
      <!-- 0 -->
      <g transform="translate(42.6375 299.918357) scale(0.1 -0.1)">
       <use xlink:href="#DejaVuSans-30"/>
      </g>
     </g>
    </g>
    <g id="ytick_9">
     <g id="line2d_26">
      <g>
       <use xlink:href="#m3519b0cb7e" x="56" y="261.752605" style="stroke: #000000; stroke-width: 0.8"/>
      </g>
     </g>
     <g id="text_29">
      <!-- 1 -->
      <g transform="translate(42.6375 265.551824) scale(0.1 -0.1)">
       <use xlink:href="#DejaVuSans-31"/>
      </g>
     </g>
    </g>
    <g id="text_30">
     <!-- Angular velocity (rad/s) -->
     <g transform="translate(28.178125 368.385312) rotate(-90) scale(0.1 -0.1)">
      <defs>
       <path id="DejaVuSans-63" d="M 3122 3366 
L 3122 2828 
Q 2878 2963 2633 3030 
Q 2388 3097 2138 3097 
Q 1578 3097 1268 2742 
Q 959 2388 959 1747 
Q 959 1106 1268 751 
Q 1578 397 2138 397 
Q 2388 397 2633 464 
Q 2878 531 3122 666 
L 3122 134 
Q 2881 22 2623 -34 
Q 2366 -91 2075 -91 
Q 1284 -91 818 406 
Q 353 903 353 1747 
Q 353 2603 823 3093 
Q 1294 3584 2113 3584 
Q 2378 3584 2631 3529 
Q 2884 3475 3122 3366 
z
" transform="scale(0.015625)"/>
       <path id="DejaVuSans-2f" d="M 1625 4666 
L 2156 4666 
L 531 -594 
L 0 -594 
L 1625 4666 
z
" transform="scale(0.015625)"/>
      </defs>
      <use xlink:href="#DejaVuSans-41"/>
      <use xlink:href="#DejaVuSans-6e" transform="translate(68.408203 0)"/>
      <use xlink:href="#DejaVuSans-67" transform="translate(131.787109 0)"/>
      <use xlink:href="#DejaVuSans-75" transform="translate(195.263672 0)"/>
      <use xlink:href="#DejaVuSans-6c" transform="translate(258.642578 0)"/>
      <use xlink:href="#DejaVuSans-61" transform="translate(286.425781 0)"/>
      <use xlink:href="#DejaVuSans-72" transform="translate(347.705078 0)"/>
      <use xlink:href="#DejaVuSans-20" transform="translate(388.818359 0)"/>
      <use xlink:href="#DejaVuSans-76" transform="translate(420.605469 0)"/>
      <use xlink:href="#DejaVuSans-65" transform="translate(479.785156 0)"/>
      <use xlink:href="#DejaVuSans-6c" transform="translate(541.308594 0)"/>
      <use xlink:href="#DejaVuSans-6f" transform="translate(569.091797 0)"/>
      <use xlink:href="#DejaVuSans-63" transform="translate(630.273438 0)"/>
      <use xlink:href="#DejaVuSans-69" transform="translate(685.253906 0)"/>
      <use xlink:href="#DejaVuSans-74" transform="translate(713.037109 0)"/>
      <use xlink:href="#DejaVuSans-79" transform="translate(752.246094 0)"/>
      <use xlink:href="#DejaVuSans-20" transform="translate(811.425781 0)"/>
      <use xlink:href="#DejaVuSans-28" transform="translate(843.212891 0)"/>
      <use xlink:href="#DejaVuSans-72" transform="translate(882.226562 0)"/>
      <use xlink:href="#DejaVuSans-61" transform="translate(923.339844 0)"/>
      <use xlink:href="#DejaVuSans-64" transform="translate(984.619141 0)"/>
      <use xlink:href="#DejaVuSans-2f" transform="translate(1048.095703 0)"/>
      <use xlink:href="#DejaVuSans-73" transform="translate(1081.787109 0)"/>
      <use xlink:href="#DejaVuSans-29" transform="translate(1133.886719 0)"/>
     </g>
    </g>
   </g>
   <g id="line2d_27">
    <path d="M 92.236364 296.119138 
L 93.323636 340.336309 
L 94.048484 362.124253 
L 94.531716 372.741594 
L 95.135756 380.64299 
L 95.256564 381.139995 
L 95.49818 382.74 
L 95.618988 382.547142 
L 95.860604 381.328239 
L 95.981412 381.077137 
L 96.223028 378.491657 
L 96.947876 366.424666 
L 97.431108 355.897557 
L 100.934541 263.643762 
L 101.901005 245.694137 
L 102.384237 240.315352 
L 102.746661 237.672386 
L 102.867469 237.606876 
L 103.109085 236.74 
L 103.229893 237.005866 
L 103.471509 237.704419 
L 103.592317 238.019525 
L 104.196357 243.228771 
L 105.404437 261.666618 
L 107.578981 301.174814 
L 109.270294 325.620637 
L 109.995142 329.965578 
L 110.236758 330.737069 
L 110.357566 330.650923 
L 110.599182 330.827141 
L 110.840798 330.227797 
L 110.961606 329.995094 
L 111.807262 324.811688 
L 113.015342 312.495437 
L 114.585846 294.349157 
L 115.55231 285.849436 
L 116.277158 281.191408 
L 116.881198 278.81937 
L 117.485238 277.869606 
L 117.606046 277.916214 
L 117.847662 277.807471 
L 118.089279 278.206632 
L 118.572511 279.188104 
L 119.659783 283.588269 
L 121.471903 293.815713 
L 122.438367 298.456981 
L 124.008871 304.456356 
L 124.492103 305.400387 
L 124.733719 305.702703 
L 125.216951 305.906228 
L 125.820991 305.437964 
L 126.425031 304.325476 
L 127.029072 302.762318 
L 130.049272 293.756305 
L 130.894928 292.224333 
L 131.619776 291.468106 
L 132.344624 291.238794 
L 133.19028 291.589569 
L 134.035936 292.433456 
L 135.485632 294.519914 
L 136.935329 296.530253 
L 138.143409 297.685175 
L 139.230681 298.382072 
L 139.834721 298.444455 
L 140.680377 298.280935 
L 141.526033 297.865376 
L 142.734113 297.063483 
L 143.217345 296.828936 
L 143.942193 296.766324 
L 144.908658 296.400794 
L 146.59997 295.745662 
L 147.928858 295.454633 
L 149.378554 295.395265 
L 151.190674 295.634663 
L 155.056531 296.291227 
L 157.593499 296.379377 
L 160.009659 296.287673 
L 165.083596 296.067511 
L 174.627429 296.143826 
L 180.063789 296.249035 
L 199.634688 296.152697 
L 201.567616 296.159578 
L 208.695289 296.011095 
L 212.923569 296.094336 
L 213.044377 296.399255 
L 213.769225 307.238071 
L 214.494073 314.175232 
L 214.977305 316.572312 
L 215.460537 317.289343 
L 216.064577 315.980895 
L 216.789426 311.768034 
L 217.514274 305.581811 
L 219.56801 281.191353 
L 220.292858 275.86408 
L 220.655282 274.032561 
L 221.38013 272.020999 
L 221.621746 272.064815 
L 222.104978 272.308819 
L 222.346594 272.97568 
L 223.19225 276.395326 
L 224.521138 284.947925 
L 226.091643 295.590955 
L 226.937299 299.949623 
L 227.782955 303.174823 
L 228.628611 305.250987 
L 229.957499 306.975351 
L 231.286387 307.994174 
L 231.528003 307.892899 
L 232.011235 307.34874 
L 232.252851 306.914949 
L 232.615275 305.603858 
L 233.098507 302.89768 
L 234.548203 293.613063 
L 235.39386 289.757981 
L 235.9979 287.937479 
L 236.722748 286.737173 
L 237.085172 286.666707 
L 237.568404 286.759937 
L 237.930828 287.24966 
L 238.655676 288.596631 
L 239.863756 292.068244 
L 241.675876 297.521038 
L 242.64234 299.668841 
L 243.367188 301.082156 
L 243.971229 302.403734 
L 244.454461 302.996215 
L 244.816885 303.205201 
L 245.179309 303.157903 
L 245.662541 302.864103 
L 246.266581 302.049856 
L 247.233045 300.080641 
L 248.441125 297.483564 
L 249.770013 294.699265 
L 250.494861 293.627394 
L 251.340517 292.852631 
L 252.065365 292.61757 
L 252.548597 292.69752 
L 253.152638 292.93161 
L 254.23991 293.834489 
L 257.139302 296.805172 
L 258.347382 297.590556 
L 258.830614 297.851555 
L 259.797078 297.822058 
L 260.88435 297.525597 
L 263.300511 296.646788 
L 265.112631 296.548106 
L 268.857679 295.630531 
L 270.428183 295.609869 
L 272.48192 295.855702 
L 275.622928 296.23935 
L 278.884744 296.32728 
L 284.562721 296.225404 
L 288.791002 295.978729 
L 292.294434 296.046326 
L 296.885138 296.138251 
L 303.287963 296.062751 
L 305.583315 296.043412 
L 312.469372 296.241831 
L 331.557038 296.157051 
L 333.731583 296.184982 
L 333.852391 295.431554 
L 334.577239 284.14976 
L 335.181279 277.959724 
L 335.543703 275.515966 
L 335.906127 274.207016 
L 336.147743 273.873794 
L 336.268551 273.830871 
L 336.510167 274.084494 
L 337.114207 276.402232 
L 337.959863 282.653463 
L 338.443095 287.837049 
L 340.013599 308.375144 
L 340.859255 316.055857 
L 341.342487 318.842401 
L 341.946527 321.209969 
L 342.550568 321.724678 
L 342.671376 321.648741 
L 342.912992 321.100495 
L 343.63784 318.748864 
L 344.725112 312.199841 
L 347.020464 295.746436 
L 347.86612 291.304475 
L 348.590968 288.560831 
L 349.195008 286.833787 
L 350.040664 285.286859 
L 351.852785 282.85256 
L 352.215209 283.104253 
L 352.577633 283.714784 
L 353.181673 285.262105 
L 353.664905 287.837875 
L 354.631369 294.859323 
L 355.477025 300.158711 
L 356.201873 303.493695 
L 356.926721 305.649282 
L 357.289145 306.18162 
L 357.893185 306.563634 
L 358.134801 306.412959 
L 358.859649 305.503164 
L 359.705305 303.369824 
L 360.67177 300.137686 
L 362.363082 294.696108 
L 363.329546 292.426752 
L 364.054394 290.916939 
L 364.658434 289.520261 
L 365.141666 288.868332 
L 365.624898 288.650359 
L 365.987322 288.705587 
L 366.591362 289.2608 
L 367.557826 290.983384 
L 370.215603 296.962026 
L 371.061259 298.3533 
L 371.906915 299.260349 
L 372.631763 299.605698 
L 373.235803 299.583312 
L 373.719035 299.403772 
L 374.685499 298.694196 
L 376.860043 296.35283 
L 377.947315 295.374315 
L 379.397012 294.409621 
L 380.363476 294.342835 
L 381.571556 294.621746 
L 382.900444 295.224297 
L 383.7461 295.596471 
L 385.316604 295.665906 
L 387.128724 296.222416 
L 388.699229 296.555404 
L 390.269733 296.653222 
L 391.840237 296.532348 
L 397.397406 295.947799 
L 400.659222 295.982908 
L 407.545279 296.140091 
L 415.035376 296.179324 
L 416.847496 296.157368 
L 422.04224 296.009998 
L 426.874561 296.08555 
L 432.552538 296.116531 
L 440.163442 296.069564 
L 443.183643 296.090564 
L 447.532731 296.241025 
L 453.452324 296.137992 
L 454.539596 296.123258 
L 454.781212 299.383651 
L 455.50606 309.811505 
L 456.230908 316.07308 
L 456.593332 317.646442 
L 456.955756 318.224906 
L 457.197372 318.120666 
L 457.680604 316.747664 
L 458.284644 313.093197 
L 459.009492 306.949403 
L 459.734341 297.192786 
L 460.700805 284.960741 
L 461.546461 276.815578 
L 462.150501 273.101147 
L 462.512925 271.482734 
L 463.116965 270.387808 
L 463.237773 270.324741 
L 463.479389 270.627954 
L 464.204237 272.420548 
L 465.170701 277.615084 
L 468.31171 299.290553 
L 469.157366 303.008766 
L 470.003022 305.491699 
L 470.969486 307.27592 
L 471.93595 308.842603 
L 472.298374 309.455215 
L 472.53999 309.568607 
L 472.781606 309.499179 
L 473.14403 309.039617 
L 473.627262 307.917442 
L 473.989686 306.871195 
L 474.35211 305.033597 
L 475.076958 299.872726 
L 476.043422 293.245427 
L 476.76827 289.55241 
L 477.493119 287.041377 
L 477.855543 286.277292 
L 478.459583 285.644853 
L 478.701199 285.645709 
L 479.305239 286.133576 
L 479.667663 286.783428 
L 480.634127 289.308794 
L 483.412711 298.258482 
L 485.224831 302.403475 
L 485.708063 303.195044 
L 486.070488 303.523846 
L 486.432912 303.621166 
L 486.916144 303.418681 
L 487.278568 303.028078 
L 487.640992 302.50777 
L 488.245032 301.380184 
L 489.211496 299.087787 
L 489.815536 297.803929 
L 491.627656 294.166169 
L 492.352504 293.29022 
L 492.835736 292.895856 
L 493.560584 292.64572 
L 494.285432 292.766356 
L 495.010281 293.204636 
L 495.614321 293.749831 
L 499.117753 297.188127 
L 500.325833 297.817 
L 501.292297 297.814993 
L 502.258761 297.576782 
L 503.466841 297.057645 
L 504.79573 296.447989 
L 506.849466 296.363542 
L 510.473706 295.781837 
L 512.406634 295.776168 
L 515.306027 296.028922 
L 518.326227 296.20301 
L 522.192084 296.19482 
L 534.876925 296.047882 
L 540.67571 296.251422 
L 575.347609 296.118201 
L 575.830842 288.62703 
L 576.434882 280.883195 
L 577.038922 276.008056 
L 577.522154 274.181972 
L 577.642962 274.15535 
L 577.76377 273.937202 
L 578.247002 274.721894 
L 578.609426 276.164263 
L 579.213466 280.1634 
L 579.938314 287.037031 
L 581.871242 311.591412 
L 582.716898 318.323386 
L 583.320938 320.984225 
L 583.562554 321.659166 
L 583.80417 321.788905 
L 584.045786 321.887921 
L 584.166594 321.931847 
L 584.287402 321.85167 
L 584.529018 321.267812 
L 585.374675 317.984442 
L 586.582755 309.996409 
L 588.515683 295.92634 
L 589.361339 291.371218 
L 590.086187 288.486765 
L 590.811035 286.394064 
L 592.985579 282.137245 
L 593.227195 282.077806 
L 593.468811 282.216304 
L 593.831236 282.802031 
L 594.19366 283.705989 
L 594.7977 285.740239 
L 595.280932 288.730546 
L 596.851436 299.90512 
L 597.576284 303.536891 
L 598.180324 305.498161 
L 598.663556 306.535216 
L 599.146788 306.892202 
L 599.388404 306.959206 
L 599.63002 306.778522 
L 600.354868 305.751836 
L 601.200524 303.470861 
L 602.166988 300.078681 
L 603.737493 294.800212 
L 604.703957 292.384999 
L 605.428805 290.741598 
L 606.032845 289.267922 
L 606.636885 288.515333 
L 606.999309 288.359524 
L 607.361733 288.480364 
L 607.603349 288.602305 
L 608.328197 289.569659 
L 608.932237 290.799654 
L 611.83163 297.479127 
L 612.677286 298.774222 
L 613.281326 299.344302 
L 613.885366 299.674049 
L 614.610214 299.689065 
L 615.45587 299.266575 
L 616.543142 298.238533 
L 618.838494 295.726886 
L 620.046574 294.830184 
L 620.771423 294.441059 
L 621.617079 294.382374 
L 622.462735 294.51662 
L 623.791623 295.017623 
L 625.845359 295.854405 
L 628.140711 295.930934 
L 631.160912 296.369918 
L 633.214648 296.429863 
L 635.993232 296.253091 
L 639.496665 296.060223 
L 645.657873 296.096982 
L 658.584331 296.102945 
L 663.658267 296.008156 
L 686.490982 296.226925 
L 689.873606 296.254721 
L 696.155623 296.11944 
L 697.242895 311.561285 
L 697.846935 316.227108 
L 698.209359 317.774595 
L 698.450975 318.207691 
L 698.692591 318.232214 
L 699.175823 317.091934 
L 699.779863 313.646737 
L 700.383903 308.842411 
L 700.746327 305.044152 
L 702.679256 280.721484 
L 703.524912 274.03448 
L 704.24976 270.946968 
L 704.491376 270.626962 
L 704.732992 270.52347 
L 704.974608 270.384267 
L 705.216224 270.75476 
L 705.941072 273.03182 
L 706.786728 277.831852 
L 707.994808 286.718279 
L 709.565312 297.715508 
L 710.410968 302.057441 
L 711.256625 305.053643 
L 711.739857 306.337199 
L 712.947937 308.559487 
L 713.914401 310.21499 
L 714.156017 310.171704 
L 714.397633 309.953692 
L 714.760057 309.266408 
L 715.364097 307.561703 
L 715.726521 305.709655 
L 716.330561 301.267188 
L 717.538641 292.550625 
L 718.263489 288.762953 
L 718.988337 286.28888 
L 719.350761 285.536328 
L 719.954802 285.007479 
L 720.196418 285.043759 
L 720.800458 285.67822 
L 721.162882 286.404101 
L 722.129346 289.176221 
L 725.028738 299.113838 
L 727.082474 304.06524 
L 727.444898 304.401447 
L 727.807322 304.506348 
L 728.169746 304.310952 
L 728.532171 303.977147 
L 729.377827 302.448473 
L 730.344291 299.908872 
L 731.793987 296.025089 
L 732.639643 294.07998 
L 733.485299 292.689567 
L 734.089339 292.128032 
L 734.451763 291.915689 
L 735.176611 291.875313 
L 735.901459 292.253436 
L 736.505499 292.84731 
L 737.230347 293.701584 
L 739.404892 296.525136 
L 740.612972 297.594057 
L 741.700244 298.259984 
L 742.425092 298.329768 
L 743.270748 298.151166 
L 744.478828 297.544144 
L 746.17014 296.616719 
L 747.015797 296.561392 
L 751.485693 295.586047 
L 753.056197 295.62376 
L 755.834782 296.000823 
L 758.009326 296.224408 
L 760.667102 296.289879 
L 764.532959 296.170328 
L 768.519623 296.10327 
L 778.667496 296.227012 
L 782.05012 296.249738 
L 791.714762 296.122286 
L 802.708291 296.164207 
L 804.762027 296.137161 
L 810.923236 296.022008 
L 816.963636 296.114309 
L 816.963636 296.114309 
" clip-path="url(#pd8ba30ee1e)" style="fill: none; stroke: #1f77b4; stroke-width: 1.5; stroke-linecap: square"/>
   </g>
   <g id="LineCollection_2">
    <path d="M 92.236364 296.119138 
L 816.963636 296.119138 
" clip-path="url(#pd8ba30ee1e)" style="fill: none; stroke: #ff0000; stroke-width: 1.5"/>
   </g>
   <g id="patch_9">
    <path d="M 56 390.04 
L 56 229.44 
" style="fill: none; stroke: #000000; stroke-width: 0.8; stroke-linejoin: miter; stroke-linecap: square"/>
   </g>
   <g id="patch_10">
    <path d="M 853.2 390.04 
L 853.2 229.44 
" style="fill: none; stroke: #000000; stroke-width: 0.8; stroke-linejoin: miter; stroke-linecap: square"/>
   </g>
   <g id="patch_11">
    <path d="M 56 390.04 
L 853.2 390.04 
" style="fill: none; stroke: #000000; stroke-width: 0.8; stroke-linejoin: miter; stroke-linecap: square"/>
   </g>
   <g id="patch_12">
    <path d="M 56 229.44 
L 853.2 229.44 
" style="fill: none; stroke: #000000; stroke-width: 0.8; stroke-linejoin: miter; stroke-linecap: square"/>
   </g>
   <g id="legend_2">
    <g id="patch_13">
     <path d="M 605.135938 267.1525 
L 846.2 267.1525 
Q 848.2 267.1525 848.2 265.1525 
L 848.2 236.44 
Q 848.2 234.44 846.2 234.44 
L 605.135938 234.44 
Q 603.135938 234.44 603.135938 236.44 
L 603.135938 265.1525 
Q 603.135938 267.1525 605.135938 267.1525 
z
" style="fill: #ffffff; opacity: 0.8; stroke: #cccccc; stroke-linejoin: miter"/>
    </g>
    <g id="line2d_28">
     <path d="M 607.135938 242.616562 
L 617.135938 242.616562 
L 627.135938 242.616562 
" style="fill: none; stroke: #1f77b4; stroke-width: 1.5; stroke-linecap: square"/>
    </g>
    <g id="text_31">
     <!-- Inverted Pendulum angular velocity θ_dot -->
     <g transform="translate(635.135938 246.116562) scale(0.1 -0.1)">
      <defs>
       <path id="DejaVuSans-5f" d="M 3263 -1063 
L 3263 -1509 
L -63 -1509 
L -63 -1063 
L 3263 -1063 
z
" transform="scale(0.015625)"/>
      </defs>
      <use xlink:href="#DejaVuSans-49"/>
      <use xlink:href="#DejaVuSans-6e" transform="translate(29.492188 0)"/>
      <use xlink:href="#DejaVuSans-76" transform="translate(92.871094 0)"/>
      <use xlink:href="#DejaVuSans-65" transform="translate(152.050781 0)"/>
      <use xlink:href="#DejaVuSans-72" transform="translate(213.574219 0)"/>
      <use xlink:href="#DejaVuSans-74" transform="translate(254.6875 0)"/>
      <use xlink:href="#DejaVuSans-65" transform="translate(293.896484 0)"/>
      <use xlink:href="#DejaVuSans-64" transform="translate(355.419922 0)"/>
      <use xlink:href="#DejaVuSans-20" transform="translate(418.896484 0)"/>
      <use xlink:href="#DejaVuSans-50" transform="translate(450.683594 0)"/>
      <use xlink:href="#DejaVuSans-65" transform="translate(507.361328 0)"/>
      <use xlink:href="#DejaVuSans-6e" transform="translate(568.884766 0)"/>
      <use xlink:href="#DejaVuSans-64" transform="translate(632.263672 0)"/>
      <use xlink:href="#DejaVuSans-75" transform="translate(695.740234 0)"/>
      <use xlink:href="#DejaVuSans-6c" transform="translate(759.119141 0)"/>
      <use xlink:href="#DejaVuSans-75" transform="translate(786.902344 0)"/>
      <use xlink:href="#DejaVuSans-6d" transform="translate(850.28125 0)"/>
      <use xlink:href="#DejaVuSans-20" transform="translate(947.693359 0)"/>
      <use xlink:href="#DejaVuSans-61" transform="translate(979.480469 0)"/>
      <use xlink:href="#DejaVuSans-6e" transform="translate(1040.759766 0)"/>
      <use xlink:href="#DejaVuSans-67" transform="translate(1104.138672 0)"/>
      <use xlink:href="#DejaVuSans-75" transform="translate(1167.615234 0)"/>
      <use xlink:href="#DejaVuSans-6c" transform="translate(1230.994141 0)"/>
      <use xlink:href="#DejaVuSans-61" transform="translate(1258.777344 0)"/>
      <use xlink:href="#DejaVuSans-72" transform="translate(1320.056641 0)"/>
      <use xlink:href="#DejaVuSans-20" transform="translate(1361.169922 0)"/>
      <use xlink:href="#DejaVuSans-76" transform="translate(1392.957031 0)"/>
      <use xlink:href="#DejaVuSans-65" transform="translate(1452.136719 0)"/>
      <use xlink:href="#DejaVuSans-6c" transform="translate(1513.660156 0)"/>
      <use xlink:href="#DejaVuSans-6f" transform="translate(1541.443359 0)"/>
      <use xlink:href="#DejaVuSans-63" transform="translate(1602.625 0)"/>
      <use xlink:href="#DejaVuSans-69" transform="translate(1657.605469 0)"/>
      <use xlink:href="#DejaVuSans-74" transform="translate(1685.388672 0)"/>
      <use xlink:href="#DejaVuSans-79" transform="translate(1724.597656 0)"/>
      <use xlink:href="#DejaVuSans-20" transform="translate(1783.777344 0)"/>
      <use xlink:href="#DejaVuSans-3b8" transform="translate(1815.564453 0)"/>
      <use xlink:href="#DejaVuSans-5f" transform="translate(1876.746094 0)"/>
      <use xlink:href="#DejaVuSans-64" transform="translate(1926.746094 0)"/>
      <use xlink:href="#DejaVuSans-6f" transform="translate(1990.222656 0)"/>
      <use xlink:href="#DejaVuSans-74" transform="translate(2051.404297 0)"/>
     </g>
    </g>
    <g id="line2d_29">
     <path d="M 607.135938 257.572812 
L 627.135938 257.572812 
" style="fill: none; stroke: #ff0000; stroke-width: 1.5"/>
    </g>
    <g id="text_32">
     <!-- target angular velocity -->
     <g transform="translate(635.135938 261.072812) scale(0.1 -0.1)">
      <use xlink:href="#DejaVuSans-74"/>
      <use xlink:href="#DejaVuSans-61" transform="translate(39.208984 0)"/>
      <use xlink:href="#DejaVuSans-72" transform="translate(100.488281 0)"/>
      <use xlink:href="#DejaVuSans-67" transform="translate(139.851562 0)"/>
      <use xlink:href="#DejaVuSans-65" transform="translate(203.328125 0)"/>
      <use xlink:href="#DejaVuSans-74" transform="translate(264.851562 0)"/>
      <use xlink:href="#DejaVuSans-20" transform="translate(304.060547 0)"/>
      <use xlink:href="#DejaVuSans-61" transform="translate(335.847656 0)"/>
      <use xlink:href="#DejaVuSans-6e" transform="translate(397.126953 0)"/>
      <use xlink:href="#DejaVuSans-67" transform="translate(460.505859 0)"/>
      <use xlink:href="#DejaVuSans-75" transform="translate(523.982422 0)"/>
      <use xlink:href="#DejaVuSans-6c" transform="translate(587.361328 0)"/>
      <use xlink:href="#DejaVuSans-61" transform="translate(615.144531 0)"/>
      <use xlink:href="#DejaVuSans-72" transform="translate(676.423828 0)"/>
      <use xlink:href="#DejaVuSans-20" transform="translate(717.537109 0)"/>
      <use xlink:href="#DejaVuSans-76" transform="translate(749.324219 0)"/>
      <use xlink:href="#DejaVuSans-65" transform="translate(808.503906 0)"/>
      <use xlink:href="#DejaVuSans-6c" transform="translate(870.027344 0)"/>
      <use xlink:href="#DejaVuSans-6f" transform="translate(897.810547 0)"/>
      <use xlink:href="#DejaVuSans-63" transform="translate(958.992188 0)"/>
      <use xlink:href="#DejaVuSans-69" transform="translate(1013.972656 0)"/>
      <use xlink:href="#DejaVuSans-74" transform="translate(1041.755859 0)"/>
      <use xlink:href="#DejaVuSans-79" transform="translate(1080.964844 0)"/>
     </g>
    </g>
   </g>
  </g>
 </g>
 <defs>
  <clipPath id="p63c55e3362">
   <rect x="56" y="26.88" width="797.2" height="160.6"/>
  </clipPath>
  <clipPath id="pd8ba30ee1e">
   <rect x="56" y="229.44" width="797.2" height="160.6"/>
  </clipPath>
 </defs>
</svg>
