<?xml version="1.0" encoding="utf-8" standalone="no"?>
<!DOCTYPE svg PUBLIC "-//W3C//DTD SVG 1.1//EN"
  "http://www.w3.org/Graphics/SVG/1.1/DTD/svg11.dtd">
<svg xmlns:xlink="http://www.w3.org/1999/xlink" width="720pt" height="288pt" viewBox="0 0 720 288" xmlns="http://www.w3.org/2000/svg" version="1.1">
 <metadata>
  <rdf:RDF xmlns:dc="http://purl.org/dc/elements/1.1/" xmlns:cc="http://creativecommons.org/ns#" xmlns:rdf="http://www.w3.org/1999/02/22-rdf-syntax-ns#">
   <cc:Work>
    <dc:type rdf:resource="http://purl.org/dc/dcmitype/StillImage"/>
    <dc:date>2025-04-29T12:24:33.002418</dc:date>
    <dc:format>image/svg+xml</dc:format>
    <dc:creator>
     <cc:Agent>
      <dc:title>Matplotlib v3.10.1, https://matplotlib.org/</dc:title>
     </cc:Agent>
    </dc:creator>
   </cc:Work>
  </rdf:RDF>
 </metadata>
 <defs>
  <style type="text/css">*{stroke-linejoin: round; stroke-linecap: butt}</style>
 </defs>
 <g id="figure_1">
  <g id="patch_1">
   <path d="M 0 288 
L 720 288 
L 720 0 
L 0 0 
z
" style="fill: #ffffff"/>
  </g>
  <g id="axes_1">
   <g id="patch_2">
    <path d="M 52.94 246.04 
L 709.2 246.04 
L 709.2 26.88 
L 52.94 26.88 
z
" style="fill: #ffffff"/>
   </g>
   <g id="matplotlib.axis_1">
    <g id="xtick_1">
     <g id="line2d_1">
      <path d="M 82.77 246.04 
L 82.77 26.88 
" clip-path="url(#padccf64ef8)" style="fill: none; stroke: #b0b0b0; stroke-width: 0.8; stroke-linecap: square"/>
     </g>
     <g id="line2d_2">
      <defs>
       <path id="mdfda1f6e67" d="M 0 0 
L 0 3.5 
" style="stroke: #000000; stroke-width: 0.8"/>
      </defs>
      <g>
       <use xlink:href="#mdfda1f6e67" x="82.77" y="246.04" style="stroke: #000000; stroke-width: 0.8"/>
      </g>
     </g>
     <g id="text_1">
      <!-- 0 -->
      <g transform="translate(79.58875 260.638438) scale(0.1 -0.1)">
       <defs>
        <path id="DejaVuSans-30" d="M 2034 4250 
Q 1547 4250 1301 3770 
Q 1056 3291 1056 2328 
Q 1056 1369 1301 889 
Q 1547 409 2034 409 
Q 2525 409 2770 889 
Q 3016 1369 3016 2328 
Q 3016 3291 2770 3770 
Q 2525 4250 2034 4250 
z
M 2034 4750 
Q 2819 4750 3233 4129 
Q 3647 3509 3647 2328 
Q 3647 1150 3233 529 
Q 2819 -91 2034 -91 
Q 1250 -91 836 529 
Q 422 1150 422 2328 
Q 422 3509 836 4129 
Q 1250 4750 2034 4750 
z
" transform="scale(0.015625)"/>
       </defs>
       <use xlink:href="#DejaVuSans-30"/>
      </g>
     </g>
    </g>
    <g id="xtick_2">
     <g id="line2d_3">
      <path d="M 182.203333 246.04 
L 182.203333 26.88 
" clip-path="url(#padccf64ef8)" style="fill: none; stroke: #b0b0b0; stroke-width: 0.8; stroke-linecap: square"/>
     </g>
     <g id="line2d_4">
      <g>
       <use xlink:href="#mdfda1f6e67" x="182.203333" y="246.04" style="stroke: #000000; stroke-width: 0.8"/>
      </g>
     </g>
     <g id="text_2">
      <!-- 10 -->
      <g transform="translate(175.840833 260.638438) scale(0.1 -0.1)">
       <defs>
        <path id="DejaVuSans-31" d="M 794 531 
L 1825 531 
L 1825 4091 
L 703 3866 
L 703 4441 
L 1819 4666 
L 2450 4666 
L 2450 531 
L 3481 531 
L 3481 0 
L 794 0 
L 794 531 
z
" transform="scale(0.015625)"/>
       </defs>
       <use xlink:href="#DejaVuSans-31"/>
       <use xlink:href="#DejaVuSans-30" transform="translate(63.623047 0)"/>
      </g>
     </g>
    </g>
    <g id="xtick_3">
     <g id="line2d_5">
      <path d="M 281.636667 246.04 
L 281.636667 26.88 
" clip-path="url(#padccf64ef8)" style="fill: none; stroke: #b0b0b0; stroke-width: 0.8; stroke-linecap: square"/>
     </g>
     <g id="line2d_6">
      <g>
       <use xlink:href="#mdfda1f6e67" x="281.636667" y="246.04" style="stroke: #000000; stroke-width: 0.8"/>
      </g>
     </g>
     <g id="text_3">
      <!-- 20 -->
      <g transform="translate(275.274167 260.638438) scale(0.1 -0.1)">
       <defs>
        <path id="DejaVuSans-32" d="M 1228 531 
L 3431 531 
L 3431 0 
L 469 0 
L 469 531 
Q 828 903 1448 1529 
Q 2069 2156 2228 2338 
Q 2531 2678 2651 2914 
Q 2772 3150 2772 3378 
Q 2772 3750 2511 3984 
Q 2250 4219 1831 4219 
Q 1534 4219 1204 4116 
Q 875 4013 500 3803 
L 500 4441 
Q 881 4594 1212 4672 
Q 1544 4750 1819 4750 
Q 2544 4750 2975 4387 
Q 3406 4025 3406 3419 
Q 3406 3131 3298 2873 
Q 3191 2616 2906 2266 
Q 2828 2175 2409 1742 
Q 1991 1309 1228 531 
z
" transform="scale(0.015625)"/>
       </defs>
       <use xlink:href="#DejaVuSans-32"/>
       <use xlink:href="#DejaVuSans-30" transform="translate(63.623047 0)"/>
      </g>
     </g>
    </g>
    <g id="xtick_4">
     <g id="line2d_7">
      <path d="M 381.07 246.04 
L 381.07 26.88 
" clip-path="url(#padccf64ef8)" style="fill: none; stroke: #b0b0b0; stroke-width: 0.8; stroke-linecap: square"/>
     </g>
     <g id="line2d_8">
      <g>
       <use xlink:href="#mdfda1f6e67" x="381.07" y="246.04" style="stroke: #000000; stroke-width: 0.8"/>
      </g>
     </g>
     <g id="text_4">
      <!-- 30 -->
      <g transform="translate(374.7075 260.638438) scale(0.1 -0.1)">
       <defs>
        <path id="DejaVuSans-33" d="M 2597 2516 
Q 3050 2419 3304 2112 
Q 3559 1806 3559 1356 
Q 3559 666 3084 287 
Q 2609 -91 1734 -91 
Q 1441 -91 1130 -33 
Q 819 25 488 141 
L 488 750 
Q 750 597 1062 519 
Q 1375 441 1716 441 
Q 2309 441 2620 675 
Q 2931 909 2931 1356 
Q 2931 1769 2642 2001 
Q 2353 2234 1838 2234 
L 1294 2234 
L 1294 2753 
L 1863 2753 
Q 2328 2753 2575 2939 
Q 2822 3125 2822 3475 
Q 2822 3834 2567 4026 
Q 2313 4219 1838 4219 
Q 1578 4219 1281 4162 
Q 984 4106 628 3988 
L 628 4550 
Q 988 4650 1302 4700 
Q 1616 4750 1894 4750 
Q 2613 4750 3031 4423 
Q 3450 4097 3450 3541 
Q 3450 3153 3228 2886 
Q 3006 2619 2597 2516 
z
" transform="scale(0.015625)"/>
       </defs>
       <use xlink:href="#DejaVuSans-33"/>
       <use xlink:href="#DejaVuSans-30" transform="translate(63.623047 0)"/>
      </g>
     </g>
    </g>
    <g id="xtick_5">
     <g id="line2d_9">
      <path d="M 480.503333 246.04 
L 480.503333 26.88 
" clip-path="url(#padccf64ef8)" style="fill: none; stroke: #b0b0b0; stroke-width: 0.8; stroke-linecap: square"/>
     </g>
     <g id="line2d_10">
      <g>
       <use xlink:href="#mdfda1f6e67" x="480.503333" y="246.04" style="stroke: #000000; stroke-width: 0.8"/>
      </g>
     </g>
     <g id="text_5">
      <!-- 40 -->
      <g transform="translate(474.140833 260.638438) scale(0.1 -0.1)">
       <defs>
        <path id="DejaVuSans-34" d="M 2419 4116 
L 825 1625 
L 2419 1625 
L 2419 4116 
z
M 2253 4666 
L 3047 4666 
L 3047 1625 
L 3713 1625 
L 3713 1100 
L 3047 1100 
L 3047 0 
L 2419 0 
L 2419 1100 
L 313 1100 
L 313 1709 
L 2253 4666 
z
" transform="scale(0.015625)"/>
       </defs>
       <use xlink:href="#DejaVuSans-34"/>
       <use xlink:href="#DejaVuSans-30" transform="translate(63.623047 0)"/>
      </g>
     </g>
    </g>
    <g id="xtick_6">
     <g id="line2d_11">
      <path d="M 579.936667 246.04 
L 579.936667 26.88 
" clip-path="url(#padccf64ef8)" style="fill: none; stroke: #b0b0b0; stroke-width: 0.8; stroke-linecap: square"/>
     </g>
     <g id="line2d_12">
      <g>
       <use xlink:href="#mdfda1f6e67" x="579.936667" y="246.04" style="stroke: #000000; stroke-width: 0.8"/>
      </g>
     </g>
     <g id="text_6">
      <!-- 50 -->
      <g transform="translate(573.574167 260.638438) scale(0.1 -0.1)">
       <defs>
        <path id="DejaVuSans-35" d="M 691 4666 
L 3169 4666 
L 3169 4134 
L 1269 4134 
L 1269 2991 
Q 1406 3038 1543 3061 
Q 1681 3084 1819 3084 
Q 2600 3084 3056 2656 
Q 3513 2228 3513 1497 
Q 3513 744 3044 326 
Q 2575 -91 1722 -91 
Q 1428 -91 1123 -41 
Q 819 9 494 109 
L 494 744 
Q 775 591 1075 516 
Q 1375 441 1709 441 
Q 2250 441 2565 725 
Q 2881 1009 2881 1497 
Q 2881 1984 2565 2268 
Q 2250 2553 1709 2553 
Q 1456 2553 1204 2497 
Q 953 2441 691 2322 
L 691 4666 
z
" transform="scale(0.015625)"/>
       </defs>
       <use xlink:href="#DejaVuSans-35"/>
       <use xlink:href="#DejaVuSans-30" transform="translate(63.623047 0)"/>
      </g>
     </g>
    </g>
    <g id="xtick_7">
     <g id="line2d_13">
      <path d="M 679.37 246.04 
L 679.37 26.88 
" clip-path="url(#padccf64ef8)" style="fill: none; stroke: #b0b0b0; stroke-width: 0.8; stroke-linecap: square"/>
     </g>
     <g id="line2d_14">
      <g>
       <use xlink:href="#mdfda1f6e67" x="679.37" y="246.04" style="stroke: #000000; stroke-width: 0.8"/>
      </g>
     </g>
     <g id="text_7">
      <!-- 60 -->
      <g transform="translate(673.0075 260.638438) scale(0.1 -0.1)">
       <defs>
        <path id="DejaVuSans-36" d="M 2113 2584 
Q 1688 2584 1439 2293 
Q 1191 2003 1191 1497 
Q 1191 994 1439 701 
Q 1688 409 2113 409 
Q 2538 409 2786 701 
Q 3034 994 3034 1497 
Q 3034 2003 2786 2293 
Q 2538 2584 2113 2584 
z
M 3366 4563 
L 3366 3988 
Q 3128 4100 2886 4159 
Q 2644 4219 2406 4219 
Q 1781 4219 1451 3797 
Q 1122 3375 1075 2522 
Q 1259 2794 1537 2939 
Q 1816 3084 2150 3084 
Q 2853 3084 3261 2657 
Q 3669 2231 3669 1497 
Q 3669 778 3244 343 
Q 2819 -91 2113 -91 
Q 1303 -91 875 529 
Q 447 1150 447 2328 
Q 447 3434 972 4092 
Q 1497 4750 2381 4750 
Q 2619 4750 2861 4703 
Q 3103 4656 3366 4563 
z
" transform="scale(0.015625)"/>
       </defs>
       <use xlink:href="#DejaVuSans-36"/>
       <use xlink:href="#DejaVuSans-30" transform="translate(63.623047 0)"/>
      </g>
     </g>
    </g>
    <g id="text_8">
     <!-- Time [s] -->
     <g transform="translate(360.741094 274.316562) scale(0.1 -0.1)">
      <defs>
       <path id="DejaVuSans-54" d="M -19 4666 
L 3928 4666 
L 3928 4134 
L 2272 4134 
L 2272 0 
L 1638 0 
L 1638 4134 
L -19 4134 
L -19 4666 
z
" transform="scale(0.015625)"/>
       <path id="DejaVuSans-69" d="M 603 3500 
L 1178 3500 
L 1178 0 
L 603 0 
L 603 3500 
z
M 603 4863 
L 1178 4863 
L 1178 4134 
L 603 4134 
L 603 4863 
z
" transform="scale(0.015625)"/>
       <path id="DejaVuSans-6d" d="M 3328 2828 
Q 3544 3216 3844 3400 
Q 4144 3584 4550 3584 
Q 5097 3584 5394 3201 
Q 5691 2819 5691 2113 
L 5691 0 
L 5113 0 
L 5113 2094 
Q 5113 2597 4934 2840 
Q 4756 3084 4391 3084 
Q 3944 3084 3684 2787 
Q 3425 2491 3425 1978 
L 3425 0 
L 2847 0 
L 2847 2094 
Q 2847 2600 2669 2842 
Q 2491 3084 2119 3084 
Q 1678 3084 1418 2786 
Q 1159 2488 1159 1978 
L 1159 0 
L 581 0 
L 581 3500 
L 1159 3500 
L 1159 2956 
Q 1356 3278 1631 3431 
Q 1906 3584 2284 3584 
Q 2666 3584 2933 3390 
Q 3200 3197 3328 2828 
z
" transform="scale(0.015625)"/>
       <path id="DejaVuSans-65" d="M 3597 1894 
L 3597 1613 
L 953 1613 
Q 991 1019 1311 708 
Q 1631 397 2203 397 
Q 2534 397 2845 478 
Q 3156 559 3463 722 
L 3463 178 
Q 3153 47 2828 -22 
Q 2503 -91 2169 -91 
Q 1331 -91 842 396 
Q 353 884 353 1716 
Q 353 2575 817 3079 
Q 1281 3584 2069 3584 
Q 2775 3584 3186 3129 
Q 3597 2675 3597 1894 
z
M 3022 2063 
Q 3016 2534 2758 2815 
Q 2500 3097 2075 3097 
Q 1594 3097 1305 2825 
Q 1016 2553 972 2059 
L 3022 2063 
z
" transform="scale(0.015625)"/>
       <path id="DejaVuSans-20" transform="scale(0.015625)"/>
       <path id="DejaVuSans-5b" d="M 550 4863 
L 1875 4863 
L 1875 4416 
L 1125 4416 
L 1125 -397 
L 1875 -397 
L 1875 -844 
L 550 -844 
L 550 4863 
z
" transform="scale(0.015625)"/>
       <path id="DejaVuSans-73" d="M 2834 3397 
L 2834 2853 
Q 2591 2978 2328 3040 
Q 2066 3103 1784 3103 
Q 1356 3103 1142 2972 
Q 928 2841 928 2578 
Q 928 2378 1081 2264 
Q 1234 2150 1697 2047 
L 1894 2003 
Q 2506 1872 2764 1633 
Q 3022 1394 3022 966 
Q 3022 478 2636 193 
Q 2250 -91 1575 -91 
Q 1294 -91 989 -36 
Q 684 19 347 128 
L 347 722 
Q 666 556 975 473 
Q 1284 391 1588 391 
Q 1994 391 2212 530 
Q 2431 669 2431 922 
Q 2431 1156 2273 1281 
Q 2116 1406 1581 1522 
L 1381 1569 
Q 847 1681 609 1914 
Q 372 2147 372 2553 
Q 372 3047 722 3315 
Q 1072 3584 1716 3584 
Q 2034 3584 2315 3537 
Q 2597 3491 2834 3397 
z
" transform="scale(0.015625)"/>
       <path id="DejaVuSans-5d" d="M 1947 4863 
L 1947 -844 
L 622 -844 
L 622 -397 
L 1369 -397 
L 1369 4416 
L 622 4416 
L 622 4863 
L 1947 4863 
z
" transform="scale(0.015625)"/>
      </defs>
      <use xlink:href="#DejaVuSans-54"/>
      <use xlink:href="#DejaVuSans-69" transform="translate(57.958984 0)"/>
      <use xlink:href="#DejaVuSans-6d" transform="translate(85.742188 0)"/>
      <use xlink:href="#DejaVuSans-65" transform="translate(183.154297 0)"/>
      <use xlink:href="#DejaVuSans-20" transform="translate(244.677734 0)"/>
      <use xlink:href="#DejaVuSans-5b" transform="translate(276.464844 0)"/>
      <use xlink:href="#DejaVuSans-73" transform="translate(315.478516 0)"/>
      <use xlink:href="#DejaVuSans-5d" transform="translate(367.578125 0)"/>
     </g>
    </g>
   </g>
   <g id="matplotlib.axis_2">
    <g id="ytick_1">
     <g id="line2d_15">
      <path d="M 52.94 236.078182 
L 709.2 236.078182 
" clip-path="url(#padccf64ef8)" style="fill: none; stroke: #b0b0b0; stroke-width: 0.8; stroke-linecap: square"/>
     </g>
     <g id="line2d_16">
      <defs>
       <path id="m6d3e2e6e86" d="M 0 0 
L -3.5 0 
" style="stroke: #000000; stroke-width: 0.8"/>
      </defs>
      <g>
       <use xlink:href="#m6d3e2e6e86" x="52.94" y="236.078182" style="stroke: #000000; stroke-width: 0.8"/>
      </g>
     </g>
     <g id="text_9">
      <!-- −80 -->
      <g transform="translate(24.835313 239.877401) scale(0.1 -0.1)">
       <defs>
        <path id="DejaVuSans-2212" d="M 678 2272 
L 4684 2272 
L 4684 1741 
L 678 1741 
L 678 2272 
z
" transform="scale(0.015625)"/>
        <path id="DejaVuSans-38" d="M 2034 2216 
Q 1584 2216 1326 1975 
Q 1069 1734 1069 1313 
Q 1069 891 1326 650 
Q 1584 409 2034 409 
Q 2484 409 2743 651 
Q 3003 894 3003 1313 
Q 3003 1734 2745 1975 
Q 2488 2216 2034 2216 
z
M 1403 2484 
Q 997 2584 770 2862 
Q 544 3141 544 3541 
Q 544 4100 942 4425 
Q 1341 4750 2034 4750 
Q 2731 4750 3128 4425 
Q 3525 4100 3525 3541 
Q 3525 3141 3298 2862 
Q 3072 2584 2669 2484 
Q 3125 2378 3379 2068 
Q 3634 1759 3634 1313 
Q 3634 634 3220 271 
Q 2806 -91 2034 -91 
Q 1263 -91 848 271 
Q 434 634 434 1313 
Q 434 1759 690 2068 
Q 947 2378 1403 2484 
z
M 1172 3481 
Q 1172 3119 1398 2916 
Q 1625 2713 2034 2713 
Q 2441 2713 2670 2916 
Q 2900 3119 2900 3481 
Q 2900 3844 2670 4047 
Q 2441 4250 2034 4250 
Q 1625 4250 1398 4047 
Q 1172 3844 1172 3481 
z
" transform="scale(0.015625)"/>
       </defs>
       <use xlink:href="#DejaVuSans-2212"/>
       <use xlink:href="#DejaVuSans-38" transform="translate(83.789062 0)"/>
       <use xlink:href="#DejaVuSans-30" transform="translate(147.412109 0)"/>
      </g>
     </g>
    </g>
    <g id="ytick_2">
     <g id="line2d_17">
      <path d="M 52.94 211.173636 
L 709.2 211.173636 
" clip-path="url(#padccf64ef8)" style="fill: none; stroke: #b0b0b0; stroke-width: 0.8; stroke-linecap: square"/>
     </g>
     <g id="line2d_18">
      <g>
       <use xlink:href="#m6d3e2e6e86" x="52.94" y="211.173636" style="stroke: #000000; stroke-width: 0.8"/>
      </g>
     </g>
     <g id="text_10">
      <!-- −60 -->
      <g transform="translate(24.835313 214.972855) scale(0.1 -0.1)">
       <use xlink:href="#DejaVuSans-2212"/>
       <use xlink:href="#DejaVuSans-36" transform="translate(83.789062 0)"/>
       <use xlink:href="#DejaVuSans-30" transform="translate(147.412109 0)"/>
      </g>
     </g>
    </g>
    <g id="ytick_3">
     <g id="line2d_19">
      <path d="M 52.94 186.269091 
L 709.2 186.269091 
" clip-path="url(#padccf64ef8)" style="fill: none; stroke: #b0b0b0; stroke-width: 0.8; stroke-linecap: square"/>
     </g>
     <g id="line2d_20">
      <g>
       <use xlink:href="#m6d3e2e6e86" x="52.94" y="186.269091" style="stroke: #000000; stroke-width: 0.8"/>
      </g>
     </g>
     <g id="text_11">
      <!-- −40 -->
      <g transform="translate(24.835313 190.06831) scale(0.1 -0.1)">
       <use xlink:href="#DejaVuSans-2212"/>
       <use xlink:href="#DejaVuSans-34" transform="translate(83.789062 0)"/>
       <use xlink:href="#DejaVuSans-30" transform="translate(147.412109 0)"/>
      </g>
     </g>
    </g>
    <g id="ytick_4">
     <g id="line2d_21">
      <path d="M 52.94 161.364545 
L 709.2 161.364545 
" clip-path="url(#padccf64ef8)" style="fill: none; stroke: #b0b0b0; stroke-width: 0.8; stroke-linecap: square"/>
     </g>
     <g id="line2d_22">
      <g>
       <use xlink:href="#m6d3e2e6e86" x="52.94" y="161.364545" style="stroke: #000000; stroke-width: 0.8"/>
      </g>
     </g>
     <g id="text_12">
      <!-- −20 -->
      <g transform="translate(24.835313 165.163764) scale(0.1 -0.1)">
       <use xlink:href="#DejaVuSans-2212"/>
       <use xlink:href="#DejaVuSans-32" transform="translate(83.789062 0)"/>
       <use xlink:href="#DejaVuSans-30" transform="translate(147.412109 0)"/>
      </g>
     </g>
    </g>
    <g id="ytick_5">
     <g id="line2d_23">
      <path d="M 52.94 136.46 
L 709.2 136.46 
" clip-path="url(#padccf64ef8)" style="fill: none; stroke: #b0b0b0; stroke-width: 0.8; stroke-linecap: square"/>
     </g>
     <g id="line2d_24">
      <g>
       <use xlink:href="#m6d3e2e6e86" x="52.94" y="136.46" style="stroke: #000000; stroke-width: 0.8"/>
      </g>
     </g>
     <g id="text_13">
      <!-- 0 -->
      <g transform="translate(39.5775 140.259219) scale(0.1 -0.1)">
       <use xlink:href="#DejaVuSans-30"/>
      </g>
     </g>
    </g>
    <g id="ytick_6">
     <g id="line2d_25">
      <path d="M 52.94 111.555455 
L 709.2 111.555455 
" clip-path="url(#padccf64ef8)" style="fill: none; stroke: #b0b0b0; stroke-width: 0.8; stroke-linecap: square"/>
     </g>
     <g id="line2d_26">
      <g>
       <use xlink:href="#m6d3e2e6e86" x="52.94" y="111.555455" style="stroke: #000000; stroke-width: 0.8"/>
      </g>
     </g>
     <g id="text_14">
      <!-- 20 -->
      <g transform="translate(33.215 115.354673) scale(0.1 -0.1)">
       <use xlink:href="#DejaVuSans-32"/>
       <use xlink:href="#DejaVuSans-30" transform="translate(63.623047 0)"/>
      </g>
     </g>
    </g>
    <g id="ytick_7">
     <g id="line2d_27">
      <path d="M 52.94 86.650909 
L 709.2 86.650909 
" clip-path="url(#padccf64ef8)" style="fill: none; stroke: #b0b0b0; stroke-width: 0.8; stroke-linecap: square"/>
     </g>
     <g id="line2d_28">
      <g>
       <use xlink:href="#m6d3e2e6e86" x="52.94" y="86.650909" style="stroke: #000000; stroke-width: 0.8"/>
      </g>
     </g>
     <g id="text_15">
      <!-- 40 -->
      <g transform="translate(33.215 90.450128) scale(0.1 -0.1)">
       <use xlink:href="#DejaVuSans-34"/>
       <use xlink:href="#DejaVuSans-30" transform="translate(63.623047 0)"/>
      </g>
     </g>
    </g>
    <g id="ytick_8">
     <g id="line2d_29">
      <path d="M 52.94 61.746364 
L 709.2 61.746364 
" clip-path="url(#padccf64ef8)" style="fill: none; stroke: #b0b0b0; stroke-width: 0.8; stroke-linecap: square"/>
     </g>
     <g id="line2d_30">
      <g>
       <use xlink:href="#m6d3e2e6e86" x="52.94" y="61.746364" style="stroke: #000000; stroke-width: 0.8"/>
      </g>
     </g>
     <g id="text_16">
      <!-- 60 -->
      <g transform="translate(33.215 65.545582) scale(0.1 -0.1)">
       <use xlink:href="#DejaVuSans-36"/>
       <use xlink:href="#DejaVuSans-30" transform="translate(63.623047 0)"/>
      </g>
     </g>
    </g>
    <g id="ytick_9">
     <g id="line2d_31">
      <path d="M 52.94 36.841818 
L 709.2 36.841818 
" clip-path="url(#padccf64ef8)" style="fill: none; stroke: #b0b0b0; stroke-width: 0.8; stroke-linecap: square"/>
     </g>
     <g id="line2d_32">
      <g>
       <use xlink:href="#m6d3e2e6e86" x="52.94" y="36.841818" style="stroke: #000000; stroke-width: 0.8"/>
      </g>
     </g>
     <g id="text_17">
      <!-- 80 -->
      <g transform="translate(33.215 40.641037) scale(0.1 -0.1)">
       <use xlink:href="#DejaVuSans-38"/>
       <use xlink:href="#DejaVuSans-30" transform="translate(63.623047 0)"/>
      </g>
     </g>
    </g>
    <g id="text_18">
     <!-- Force [N] -->
     <g transform="translate(18.755625 159.213906) rotate(-90) scale(0.1 -0.1)">
      <defs>
       <path id="DejaVuSans-46" d="M 628 4666 
L 3309 4666 
L 3309 4134 
L 1259 4134 
L 1259 2759 
L 3109 2759 
L 3109 2228 
L 1259 2228 
L 1259 0 
L 628 0 
L 628 4666 
z
" transform="scale(0.015625)"/>
       <path id="DejaVuSans-6f" d="M 1959 3097 
Q 1497 3097 1228 2736 
Q 959 2375 959 1747 
Q 959 1119 1226 758 
Q 1494 397 1959 397 
Q 2419 397 2687 759 
Q 2956 1122 2956 1747 
Q 2956 2369 2687 2733 
Q 2419 3097 1959 3097 
z
M 1959 3584 
Q 2709 3584 3137 3096 
Q 3566 2609 3566 1747 
Q 3566 888 3137 398 
Q 2709 -91 1959 -91 
Q 1206 -91 779 398 
Q 353 888 353 1747 
Q 353 2609 779 3096 
Q 1206 3584 1959 3584 
z
" transform="scale(0.015625)"/>
       <path id="DejaVuSans-72" d="M 2631 2963 
Q 2534 3019 2420 3045 
Q 2306 3072 2169 3072 
Q 1681 3072 1420 2755 
Q 1159 2438 1159 1844 
L 1159 0 
L 581 0 
L 581 3500 
L 1159 3500 
L 1159 2956 
Q 1341 3275 1631 3429 
Q 1922 3584 2338 3584 
Q 2397 3584 2469 3576 
Q 2541 3569 2628 3553 
L 2631 2963 
z
" transform="scale(0.015625)"/>
       <path id="DejaVuSans-63" d="M 3122 3366 
L 3122 2828 
Q 2878 2963 2633 3030 
Q 2388 3097 2138 3097 
Q 1578 3097 1268 2742 
Q 959 2388 959 1747 
Q 959 1106 1268 751 
Q 1578 397 2138 397 
Q 2388 397 2633 464 
Q 2878 531 3122 666 
L 3122 134 
Q 2881 22 2623 -34 
Q 2366 -91 2075 -91 
Q 1284 -91 818 406 
Q 353 903 353 1747 
Q 353 2603 823 3093 
Q 1294 3584 2113 3584 
Q 2378 3584 2631 3529 
Q 2884 3475 3122 3366 
z
" transform="scale(0.015625)"/>
       <path id="DejaVuSans-4e" d="M 628 4666 
L 1478 4666 
L 3547 763 
L 3547 4666 
L 4159 4666 
L 4159 0 
L 3309 0 
L 1241 3903 
L 1241 0 
L 628 0 
L 628 4666 
z
" transform="scale(0.015625)"/>
      </defs>
      <use xlink:href="#DejaVuSans-46"/>
      <use xlink:href="#DejaVuSans-6f" transform="translate(53.894531 0)"/>
      <use xlink:href="#DejaVuSans-72" transform="translate(115.076172 0)"/>
      <use xlink:href="#DejaVuSans-63" transform="translate(153.939453 0)"/>
      <use xlink:href="#DejaVuSans-65" transform="translate(208.919922 0)"/>
      <use xlink:href="#DejaVuSans-20" transform="translate(270.443359 0)"/>
      <use xlink:href="#DejaVuSans-5b" transform="translate(302.230469 0)"/>
      <use xlink:href="#DejaVuSans-4e" transform="translate(341.244141 0)"/>
      <use xlink:href="#DejaVuSans-5d" transform="translate(416.048828 0)"/>
     </g>
    </g>
   </g>
   <g id="line2d_33">
    <path d="M 82.77 36.841818 
L 83.387665 36.841818 
L 83.492611 50.9523 
L 84.110624 236.078182 
L 84.22723 236.078182 
L 84.22723 169.767338 
L 83.266119 36.841818 
L 83.57042 88.234697 
L 83.619501 88.011499 
L 83.752019 125.202413 
L 84.200487 212.523392 
L 84.432585 228.766595 
L 84.473847 224.169447 
L 84.525424 224.964727 
L 84.525424 234.163175 
L 84.645849 236.078182 
L 85.007123 209.856851 
L 85.127547 188.357106 
L 85.127547 197.912374 
L 84.625181 235.950491 
L 85.173849 191.811713 
L 85.696913 125.347929 
L 85.986767 109.230516 
L 86.038296 122.149072 
L 86.102708 119.981096 
L 86.102708 97.824975 
L 85.626267 132.731403 
L 85.936067 110.11229 
L 85.981963 117.95423 
L 86.039333 115.28605 
L 86.14251 95.725509 
L 86.194099 95.643647 
L 86.452041 96.500179 
L 86.710258 105.23696 
L 87.072019 123.515472 
L 87.46555 140.177962 
L 87.509275 137.720449 
L 87.563932 139.714432 
L 87.658497 148.368931 
L 87.942189 152.049177 
L 88.036753 150.794372 
L 88.142761 153.04605 
L 88.682749 145.097482 
L 89.030631 139.575412 
L 89.082169 141.4022 
L 89.146591 140.018742 
L 89.146591 136.361346 
L 89.335533 133.769944 
L 89.650435 132.342666 
L 89.776396 134.470444 
L 89.776396 131.207528 
L 89.249651 134.752244 
L 89.558832 132.342883 
L 89.604637 133.217701 
L 89.661892 133.065071 
L 89.764676 131.087688 
L 90.118707 131.955609 
L 90.175808 132.364723 
L 90.175808 132.272596 
L 89.753147 131.12537 
L 90.254723 132.715209 
L 91.288622 138.489314 
L 91.581001 138.670653 
L 91.697952 138.174969 
L 91.697952 138.734274 
L 91.216245 138.343233 
L 91.571194 138.491667 
L 91.628443 138.430722 
L 91.628443 138.782738 
L 91.731493 138.736642 
L 92.561322 137.007707 
L 92.607725 137.135875 
L 92.665729 137.11942 
L 92.665729 136.754022 
L 92.207427 137.701428 
L 92.918269 136.423544 
L 93.229316 136.378077 
L 93.288004 136.388807 
L 93.390622 136.246979 
L 93.950722 136.550419 
L 94.200101 137.312106 
L 94.244435 138.314241 
L 94.299853 137.877706 
L 94.299853 136.751283 
L 93.862432 136.520575 
L 95.070833 137.076394 
L 96.088887 136.855926 
L 96.088887 136.781836 
L 96.349389 136.716005 
L 96.860746 136.820104 
L 96.957228 136.831924 
L 96.957228 136.668591 
L 101.213453 136.639439 
L 103.633797 136.605637 
L 115.215325 136.551836 
L 115.175153 136.557986 
L 143.176342 136.604 
L 143.397173 136.843945 
L 141.541731 136.604223 
L 142.267914 136.604811 
L 143.109271 136.605376 
L 143.298891 136.445403 
L 144.246991 137.314845 
L 144.415542 133.734708 
L 144.626231 124.403643 
L 144.626231 134.647799 
L 142.811623 136.605181 
L 142.852419 136.605207 
L 142.756783 136.605145 
L 143.265074 136.605473 
L 143.398834 136.492631 
L 144.067638 137.510596 
L 144.186536 137.419021 
L 144.335159 133.521794 
L 144.335159 136.044318 
L 143.006697 136.605307 
L 143.226179 136.566845 
L 143.454805 137.13287 
L 143.49545 138.132075 
L 143.546256 137.718594 
L 143.546256 136.514239 
L 143.154119 136.605402 
L 143.186678 136.577936 
L 143.349469 137.004189 
L 143.378409 137.804378 
L 143.414585 136.543159 
L 143.121118 136.605381 
L 143.137175 136.591835 
L 143.217461 136.81641 
L 143.231735 137.262075 
L 143.249576 136.576206 
L 143.162846 136.592333 
L 143.092774 136.605362 
L 143.281142 136.57087 
L 143.48125 137.078606 
L 143.516825 138.001255 
L 143.561293 136.52628 
L 143.170549 136.604675 
L 143.251592 136.637931 
L 143.253723 136.7103 
L 143.240186 136.572478 
L 143.337359 136.602962 
L 143.579389 136.534806 
L 143.982772 137.381489 
L 144.054484 138.49575 
L 144.144125 136.413742 
L 143.347864 136.602945 
L 143.562246 136.574487 
L 143.72735 137.006057 
L 143.756702 137.814567 
L 143.793391 136.539354 
L 143.495916 136.602359 
L 143.512283 136.588543 
L 143.594114 136.817132 
L 143.608662 137.270436 
L 143.626847 136.572562 
L 143.538704 136.588979 
L 143.465444 136.602386 
L 143.785115 136.53869 
L 144.154911 137.342301 
L 144.220653 138.484694 
L 144.302829 136.436117 
L 143.613544 136.600884 
L 143.638698 136.57967 
L 143.764464 136.919118 
L 143.786823 137.574017 
L 143.814771 136.554036 
L 143.586783 136.600918 
L 143.598556 136.600915 
L 143.667883 136.176706 
L 143.606477 136.653978 
L 143.688323 136.59945 
L 143.901678 136.539793 
L 144.257271 137.323897 
L 144.320487 138.470563 
L 144.399507 136.444606 
L 143.738285 136.599413 
L 143.763266 136.578371 
L 143.888172 136.915861 
L 143.910378 137.567123 
L 143.938135 136.553148 
L 143.711671 136.599433 
L 143.723345 136.589583 
L 143.792092 137.088977 
L 143.711412 136.56569 
L 143.811994 136.59774 
L 144.016449 136.540841 
L 144.357207 137.303675 
L 144.417787 138.450108 
L 144.493511 136.452981 
L 143.861623 136.597746 
L 143.886437 136.576881 
L 144.01051 136.912518 
L 144.032567 137.560254 
L 144.060139 136.552124 
L 143.835143 136.597743 
L 143.846718 136.58799 
L 144.104609 137.589659 
L 143.817427 136.575238 
L 144.133221 137.423161 
L 144.133221 136.549405 
L 143.899822 136.596682 
L 143.911874 136.586534 
L 143.982845 137.101137 
L 143.889384 136.540185 
L 143.999001 136.594256 
L 144.066903 136.575345 
L 144.180074 136.884419 
L 144.200194 137.484753 
L 144.225343 136.553439 
L 144.019945 136.594288 
L 144.030417 136.585483 
L 144.092087 137.036593 
L 144.011468 136.542719 
L 144.146386 136.596194 
L 144.270961 136.569024 
L 144.150485 136.689037 
L 144.225686 136.584994 
L 144.257678 136.825377 
L 144.2217 136.577133 
L 144.339671 136.586532 
L 144.318486 136.586437 
L 144.571336 136.515566 
L 144.554166 136.634935 
L 144.696355 136.154595 
L 144.70948 136.557945 
L 144.59547 136.579037 
L 144.681906 136.577781 
L 144.863243 136.066841 
L 144.68496 136.614186 
L 144.879026 136.126796 
L 144.879026 136.549136 
L 144.74232 136.574397 
L 144.851314 136.572647 
L 144.937994 136.046964 
L 144.922169 136.687162 
L 144.929695 136.933904 
L 144.940125 136.520746 
L 144.991324 136.557633 
L 145.134941 137.183759 
L 144.985291 136.507199 
L 145.151549 137.103701 
L 145.151549 136.54213 
L 145.005834 136.565497 
L 145.097627 136.551786 
L 145.17279 136.76491 
L 145.186152 137.185302 
L 145.190778 136.365168 
L 145.24167 136.551781 
L 145.404312 137.193049 
L 145.249869 136.495133 
L 145.421452 137.109972 
L 145.421452 136.532847 
L 145.281237 136.555667 
L 145.323375 136.652674 
L 145.401525 137.029928 
L 145.325553 136.456305 
L 145.398926 136.540835 
L 145.471841 136.748817 
L 145.484804 137.157982 
L 145.442502 136.458934 
L 145.590495 137.066712 
L 145.604213 136.529594 
L 145.492096 136.546814 
L 145.526142 136.625871 
L 145.528829 136.503382 
L 145.640219 137.016446 
L 145.652593 136.528905 
L 145.551548 136.544171 
L 145.582499 136.616255 
L 145.554723 136.488518 
L 145.695739 137.130795 
L 145.711394 136.523673 
L 145.583255 136.542734 
L 145.621521 136.631518 
L 145.586188 136.478033 
L 145.746085 137.200809 
L 145.763831 137.114334 
L 145.763831 136.519728 
L 145.618428 136.541037 
L 145.661351 136.640417 
L 145.667711 136.850743 
L 145.621158 136.470778 
L 145.771512 136.6207 
L 145.865526 136.515947 
L 145.803581 136.628776 
L 145.882589 136.526052 
L 146.000574 136.621535 
L 145.910465 136.503878 
L 146.003066 136.611817 
L 146.065354 136.5034 
L 146.025918 136.622402 
L 146.112549 136.606511 
L 146.199951 136.498963 
L 146.12072 136.612191 
L 146.224288 136.542695 
L 146.226401 136.614602 
L 146.306097 136.49328 
L 146.331126 136.499658 
L 146.453602 136.582332 
L 146.329591 136.492677 
L 146.4558 136.573846 
L 146.546164 136.467531 
L 146.469629 136.588365 
L 146.56659 136.484357 
L 146.936571 136.437197 
L 146.937643 136.400256 
L 146.940662 136.470877 
L 147.046376 136.446296 
L 147.153442 136.468471 
L 147.050692 136.431817 
L 147.161838 136.435452 
L 147.316299 136.316724 
L 147.16416 136.443838 
L 147.318871 136.326298 
L 147.300503 136.431957 
L 147.419828 136.31138 
L 147.429574 136.383051 
L 147.525996 136.291951 
L 147.485236 136.414594 
L 147.540745 136.311744 
L 147.625464 136.414448 
L 147.575573 136.276605 
L 147.674631 136.385681 
L 147.794241 136.196794 
L 147.670419 136.385361 
L 147.798601 136.213642 
L 147.807417 136.41725 
L 147.863574 136.031055 
L 147.860914 136.372032 
L 148.051663 135.584293 
L 147.849728 136.477953 
L 148.072307 135.687126 
L 148.072307 136.362255 
L 147.903244 136.358538 
L 147.91161 136.364071 
L 148.075144 135.792549 
L 147.96049 136.518323 
L 148.089572 135.857869 
L 148.089572 136.353655 
L 147.971934 136.350526 
L 148.008568 136.425606 
L 148.013995 136.56566 
L 148.05502 136.023394 
L 148.113792 136.332667 
L 148.286858 136.311183 
L 148.061578 136.341116 
L 148.272022 136.358445 
L 148.275149 136.439858 
L 148.358281 136.299938 
L 149.549541 136.26828 
L 153.790389 136.306705 
L 153.790389 136.30987 
L 170.451709 136.313519 
L 170.03507 136.313598 
L 182.087829 136.311867 
L 183.001206 98.758609 
L 183.163584 73.711597 
L 183.366557 121.577 
L 183.366557 148.179975 
L 181.670081 136.311943 
L 181.735219 136.311931 
L 182.191191 136.311856 
L 182.321468 98.758511 
L 182.386607 105.668803 
L 182.712301 122.180027 
L 182.842578 162.238315 
L 182.842578 135.429025 
L 182.252506 98.758521 
L 182.283164 102.010887 
L 182.436454 102.586467 
L 182.463705 88.746042 
L 182.49777 114.373171 
L 182.228808 98.758524 
L 182.341661 99.589982 
L 182.35838 87.65095 
L 182.379279 107.877003 
L 182.289518 98.756555 
L 182.300443 89.806218 
L 182.20154 136.311854 
L 182.37344 108.249618 
L 183.135593 148.768804 
L 183.394926 153.592937 
L 183.44103 151.035991 
L 183.498659 151.255662 
L 183.603164 156.541928 
L 184.050835 150.907276 
L 184.603859 138.227594 
L 184.916856 134.662032 
L 184.9725 137.704824 
L 185.042055 136.916516 
L 185.042055 131.716885 
L 185.229253 130.599064 
L 185.541248 130.952848 
L 185.666046 132.733498 
L 185.666046 131.426165 
L 185.208933 130.669572 
L 185.487061 130.69606 
L 185.598313 131.856373 
L 185.598313 131.042943 
L 185.76519 132.116853 
L 186.043319 133.916527 
L 186.092764 133.427744 
L 186.588756 138.106923 
L 186.636999 137.45734 
L 186.697303 137.757247 
L 186.79958 139.443657 
L 187.106412 139.725762 
L 187.208689 139.377285 
L 187.208689 139.730345 
L 186.787584 139.393715 
L 187.238991 139.728427 
L 187.776505 138.194689 
L 188.070486 137.434444 
L 188.12275 137.761068 
L 188.188079 137.508478 
L 188.188079 136.853438 
L 188.430028 136.274894 
L 188.833277 136.223182 
L 188.994577 137.213666 
L 188.994577 135.89863 
L 188.323184 136.475 
L 188.728498 136.111684 
L 188.863602 136.588518 
L 188.863602 135.876513 
L 189.06548 135.929183 
L 189.536528 136.264506 
L 189.536528 136.365005 
L 189.733705 136.59436 
L 190.062333 136.780277 
L 190.120756 136.565361 
L 190.193784 136.625971 
L 190.193784 136.977079 
L 190.435018 137.058549 
L 190.837075 136.954357 
L 190.997898 136.653425 
L 190.997898 136.939717 
L 190.326794 137.047061 
L 191.521232 136.761336 
L 191.521232 136.660441 
L 191.760154 136.544257 
L 192.158356 136.488659 
L 192.317638 136.620161 
L 192.317638 136.404628 
L 193.042884 136.407121 
L 193.379218 136.47235 
L 205.846815 136.309199 
L 231.230605 136.584353 
L 231.439758 136.408681 
L 232.48552 137.150005 
L 232.671433 131.722218 
L 232.903825 119.694738 
L 232.903825 133.606788 
L 230.906084 136.582926 
L 230.952976 136.583131 
L 231.28122 136.57187 
L 230.850379 136.582681 
L 231.203292 136.534033 
L 231.206493 136.450277 
L 231.188975 136.61612 
L 231.292464 136.578204 
L 231.510867 135.908825 
L 231.337024 136.729662 
L 231.531622 135.992588 
L 231.531622 136.535491 
L 231.588921 136.533966 
L 231.876233 136.492942 
L 232.13226 137.121806 
L 232.177776 138.179925 
L 232.23467 137.679353 
L 232.23467 136.450557 
L 231.769413 136.53332 
L 231.792811 136.514168 
L 231.909801 136.835107 
L 231.930599 137.452609 
L 231.956597 136.495442 
L 231.74233 136.533154 
L 231.752187 136.533296 
L 231.810232 136.177726 
L 231.725833 136.533053 
L 231.815322 136.518573 
L 231.891006 136.73282 
L 231.904461 137.155809 
L 231.921279 136.506778 
L 231.788226 136.527732 
L 231.773179 136.547088 
L 231.911125 136.551818 
L 231.913189 136.621971 
L 231.896794 136.501773 
L 232.022831 136.587033 
L 232.127573 136.486919 
L 232.028297 136.598949 
L 232.133793 136.492867 
L 232.636807 136.394204 
L 232.746128 136.315077 
L 232.628045 136.429387 
L 232.748216 136.322665 
L 232.775486 136.413314 
L 232.841068 136.272725 
L 232.853698 136.381011 
L 233.013503 135.912969 
L 232.912076 136.404888 
L 233.024772 135.960453 
L 232.968772 136.43573 
L 233.05017 136.354819 
L 233.14889 136.058309 
L 233.16644 135.520801 
L 233.188378 136.340056 
L 232.995736 136.352384 
L 233.034116 136.309057 
L 233.071732 136.118438 
L 233.051549 136.436519 
L 233.143936 136.320118 
L 233.889665 136.211411 
L 280.43187 136.311063 
L 281.567334 136.310875 
L 281.945822 202.174655 
L 280.171091 136.311084 
L 280.229946 136.311086 
L 281.230476 136.330825 
L 281.230476 136.430335 
L 280.692928 136.3111 
L 281.100918 136.311119 
L 281.123585 136.283294 
L 281.151917 136.358893 
L 280.919735 136.311113 
L 281.454489 136.327681 
L 281.351955 136.311684 
L 281.566976 136.311719 
L 281.674487 173.955705 
L 282.307605 36.841818 
L 282.427061 64.351824 
L 282.427061 227.180272 
L 281.394959 136.311691 
L 281.416461 136.311689 
L 281.361243 136.311685 
L 281.633704 136.312581 
L 281.924396 180.580238 
L 281.979244 172.167622 
L 281.979244 161.679409 
L 281.537163 136.312555 
L 281.562937 136.312561 
L 281.747542 183.993056 
L 281.513349 136.312531 
L 281.727775 168.874767 
L 282.572482 124.126423 
L 282.831916 119.403451 
L 282.878038 121.930363 
L 282.93569 121.73375 
L 283.040115 116.54985 
L 283.488014 122.224175 
L 284.040996 134.791537 
L 284.355406 138.291215 
L 284.411301 135.223914 
L 284.48117 135.992298 
L 284.48117 141.211854 
L 284.668146 142.285217 
L 284.979773 141.908113 
L 285.104424 140.167686 
L 285.104424 141.414485 
L 284.647988 142.219418 
L 284.926018 142.162284 
L 285.03723 141.021536 
L 285.03723 141.796932 
L 285.204048 140.719999 
L 285.482078 138.931214 
L 285.531506 139.422192 
L 286.027457 134.793877 
L 286.075698 135.435896 
L 286.135999 135.144135 
L 286.23819 133.485358 
L 286.544762 133.22076 
L 286.646953 133.564427 
L 286.646953 133.223769 
L 286.226005 133.534855 
L 286.271008 133.453029 
L 286.496025 133.193711 
L 286.586031 133.380317 
L 286.586031 133.169283 
L 286.721041 133.33327 
L 287.036063 134.139826 
L 287.507736 135.504428 
L 287.560144 135.176134 
L 287.625654 135.426171 
L 287.625654 136.081475 
L 287.868064 136.651171 
L 288.272082 136.695769 
L 288.433689 135.709956 
L 288.433689 137.012783 
L 287.760633 136.454039 
L 288.165572 136.808796 
L 288.300552 136.339211 
L 288.300552 137.037205 
L 288.50227 136.982679 
L 288.972945 136.652125 
L 288.972945 136.548995 
L 289.170248 136.321814 
L 289.499087 136.138728 
L 289.557547 136.352154 
L 289.630623 136.292783 
L 289.630623 135.944458 
L 289.871053 135.865347 
L 290.27177 135.967887 
L 290.432057 136.260934 
L 290.432057 135.983993 
L 289.763672 135.875894 
L 290.958644 136.161638 
L 290.958644 136.262555 
L 291.198025 136.377412 
L 291.596995 136.431523 
L 291.756583 136.300189 
L 291.756583 136.514307 
L 292.571577 136.476328 
L 292.571577 136.4727 
L 293.227473 136.455499 
L 293.391447 136.521749 
L 293.391447 136.426956 
L 296.945667 136.599679 
L 297.425868 136.603141 
L 297.373075 136.60199 
L 301.320135 136.635733 
L 300.973441 136.635659 
L 321.211418 136.400225 
L 330.7417 136.335072 
L 330.926325 136.49014 
L 331.849451 135.590954 
L 332.013562 138.753835 
L 332.218701 147.464334 
L 332.218701 138.084247 
L 330.4525 136.336364 
L 330.492525 136.336186 
L 330.772704 136.344318 
L 330.405543 136.336574 
L 330.587561 136.349735 
L 330.670296 136.118439 
L 330.685005 135.660629 
L 330.70339 136.365451 
L 330.616117 136.349505 
L 330.545977 136.335949 
L 330.570147 136.389586 
L 330.573728 136.483168 
L 330.612144 136.224577 
L 330.665983 136.340012 
L 330.772666 136.36768 
L 330.627643 136.33996 
L 330.759802 136.447611 
L 330.766846 136.62958 
L 330.730042 136.331014 
L 330.842787 136.347631 
L 330.950585 136.635467 
L 330.969749 137.109904 
L 330.993704 136.391653 
L 330.816327 136.347527 
L 330.835436 136.347594 
L 330.930983 136.602786 
L 330.947969 137.026599 
L 330.969202 136.386171 
L 331.02653 136.387668 
L 331.313034 136.428078 
L 331.567598 135.801565 
L 331.612854 134.746302 
L 331.669424 135.241535 
L 331.669424 136.469373 
L 331.207238 136.388113 
L 331.230709 136.40728 
L 331.348064 136.085217 
L 331.368927 135.466091 
L 331.395006 136.425748 
L 331.180011 136.388316 
L 331.189869 136.388159 
L 331.247922 136.743684 
L 331.163495 136.38844 
L 331.252524 136.402709 
L 331.327818 136.18937 
L 331.341203 135.768322 
L 331.357935 136.414247 
L 331.225525 136.393635 
L 331.209785 136.37848 
L 331.232372 136.356513 
L 331.234572 136.281781 
L 331.321923 136.414746 
L 331.338143 136.403987 
L 331.413674 136.313313 
L 331.334545 136.413684 
L 331.450972 136.414146 
L 331.565145 136.428418 
L 331.464965 136.324173 
L 331.572911 136.405269 
L 331.574292 136.358121 
L 331.654736 136.455489 
L 331.682452 136.442589 
L 331.800188 136.470976 
L 331.686509 136.430283 
L 331.803326 136.453854 
L 331.844305 136.423934 
L 331.85388 136.511029 
L 331.913509 136.478989 
L 332.018638 136.501013 
L 331.978196 136.459981 
L 332.024126 136.493518 
L 332.023633 136.493363 
L 332.348219 136.614171 
L 332.403702 136.88114 
L 332.350294 136.507515 
L 332.402062 136.555347 
L 332.579871 137.224387 
L 332.391403 136.45131 
L 332.596608 137.147079 
L 332.596608 136.582273 
L 332.450048 136.572856 
L 335.051507 136.597362 
L 335.021592 136.598573 
L 363.798577 136.605625 
L 379.93993 136.608683 
L 380.176059 136.870968 
L 378.189428 136.608664 
L 378.951337 136.608736 
L 380.421218 136.608875 
L 382.062934 99.055876 
L 382.354795 54.394436 
L 382.719621 171.85508 
L 382.719621 163.843468 
L 379.615819 136.608794 
L 379.705634 136.608803 
L 380.603787 136.533067 
L 381.052863 137.430115 
L 381.232494 87.773066 
L 381.232494 88.307426 
L 380.393142 136.608871 
L 380.422543 136.608874 
L 380.628349 136.603701 
L 380.34517 136.608866 
L 380.60507 136.56318 
L 380.8758 137.208595 
L 380.923929 138.292653 
L 380.984092 137.732382 
L 380.984092 136.497313 
L 380.493745 136.608881 
L 380.519301 136.587308 
L 380.647083 136.931515 
L 380.669799 137.594885 
L 380.698195 136.560946 
L 380.466869 136.608879 
L 380.478988 136.598649 
L 380.550351 137.115741 
L 380.468393 136.502651 
L 380.583792 136.608371 
L 380.508622 136.608404 
L 381.038758 136.515583 
L 381.588667 99.940815 
L 381.686428 85.536733 
L 381.80863 106.499348 
L 381.80863 128.47879 
L 380.817107 136.608335 
L 380.871253 136.562646 
L 381.190118 93.314602 
L 381.250281 112.526605 
L 380.764753 136.608339 
L 380.792722 136.608344 
L 380.932572 136.235223 
L 380.957434 135.632253 
L 380.988511 136.549673 
L 380.724984 136.608342 
L 380.813923 136.60152 
L 380.861537 136.954125 
L 380.790229 136.608186 
L 380.860986 136.607995 
L 380.822659 136.608007 
L 381.059888 136.607991 
L 381.122317 99.00202 
L 381.559318 236.078182 
L 381.559318 102.100678 
L 380.97409 136.607989 
L 380.993619 136.607995 
L 381.108627 95.6838 
L 381.030993 136.619785 
L 381.175624 104.168474 
L 381.416685 110.191386 
L 381.45954 102.149946 
L 381.513109 124.821788 
L 381.083087 99.053845 
L 381.109137 101.817374 
L 381.239387 101.141869 
L 381.262542 86.934145 
L 381.291487 111.989419 
L 381.063485 136.607186 
L 381.079734 99.053856 
L 381.160978 126.293668 
L 381.175422 169.775981 
L 381.139881 97.374112 
L 381.153493 101.82413 
L 381.034207 136.607208 
L 381.206265 88.056988 
L 381.205203 106.267437 
L 381.92398 145.710212 
L 382.177932 151.798625 
L 382.223079 149.223462 
L 382.279512 149.896648 
L 382.384817 156.212508 
L 382.700733 154.455573 
L 383.768399 134.815229 
L 383.822662 137.548155 
L 383.890489 136.737379 
L 383.890489 131.962393 
L 384.077845 130.726756 
L 384.390103 130.964602 
L 384.515006 132.796463 
L 384.515006 131.336703 
L 384.001941 130.916645 
L 384.057667 130.809613 
L 384.336296 130.719724 
L 384.447748 131.905457 
L 384.447748 130.982294 
L 384.614926 131.999374 
L 384.893555 133.763116 
L 384.943089 133.302477 
L 385.16794 136.551595 
L 385.439494 137.972895 
L 385.48777 137.321254 
L 385.548116 137.6384 
L 385.650626 139.356891 
L 385.958158 139.691281 
L 386.060668 139.341014 
L 386.060668 139.723428 
L 385.639282 139.307489 
L 386.095114 139.722666 
L 386.634456 138.227649 
L 386.925586 137.471373 
L 386.977342 137.779077 
L 387.042037 137.527417 
L 387.042037 136.899501 
L 387.282129 136.312799 
L 387.682282 136.235323 
L 387.842343 137.198465 
L 387.842343 135.896749 
L 387.177662 136.514991 
L 387.584538 136.134924 
L 387.720163 136.61935 
L 387.720163 135.883924 
L 387.922731 135.927291 
L 388.395391 136.266334 
L 388.395391 136.352488 
L 388.592192 136.58017 
L 388.920194 136.768411 
L 388.978506 136.556724 
L 389.051395 136.619295 
L 389.051395 136.966279 
L 389.295605 137.052864 
L 389.702622 136.946601 
L 389.865428 136.628806 
L 389.865428 136.938022 
L 389.184343 137.038452 
L 390.377603 136.764278 
L 390.377603 136.667403 
L 390.615015 136.5513 
L 391.010702 136.492859 
L 391.168976 136.619787 
L 391.168976 136.407911 
L 391.896688 136.411583 
L 392.232528 136.471561 
L 405.910631 136.325517 
L 430.434439 136.431111 
L 431.351806 137.336168 
L 431.514893 134.266624 
L 431.718753 125.694893 
L 431.718753 134.880227 
L 429.96344 136.583943 
L 430.003151 136.584118 
L 430.201704 136.055202 
L 430.237003 135.231917 
L 430.281126 136.499369 
L 429.901143 136.583669 
L 429.995327 136.576855 
L 430.045749 136.949518 
L 429.988768 136.567407 
L 430.07985 136.581042 
L 430.059883 136.581049 
L 430.15077 136.578349 
L 430.235371 136.063196 
L 430.159327 136.629392 
L 430.263367 136.57071 
L 430.326512 136.570241 
L 430.431755 136.289201 
L 430.450464 135.825256 
L 430.473852 136.527374 
L 430.513733 136.526103 
L 430.490643 136.526839 
L 430.794593 136.485954 
L 431.049302 137.11377 
L 431.094583 138.169298 
L 431.151185 137.67413 
L 431.151185 136.446556 
L 430.688379 136.52571 
L 430.711685 136.506722 
L 430.828216 136.826965 
L 430.848932 137.44251 
L 430.874828 136.488829 
L 430.646472 136.525411 
L 430.732608 136.555682 
L 430.734757 136.628657 
L 430.717657 136.503746 
L 430.843623 136.583646 
L 430.972913 136.493928 
L 430.98115 136.557281 
L 430.972657 136.48744 
L 431.084662 136.478 
L 431.12118 136.454243 
L 431.132299 136.485423 
L 431.196049 136.468142 
L 431.27693 136.494908 
L 431.286389 136.408936 
L 431.305863 136.449789 
L 431.412897 136.421766 
L 431.309094 136.460342 
L 431.427878 136.42974 
L 431.504138 136.418782 
L 431.42439 136.43133 
L 431.514548 136.384863 
L 431.590445 136.296137 
L 431.514539 136.421565 
L 431.626559 136.306994 
L 431.616073 136.412484 
L 431.732012 136.261995 
L 431.736596 136.26416 
L 431.767743 136.395066 
L 431.805246 136.143682 
L 431.833085 136.254363 
L 431.912186 135.810918 
L 431.827869 136.467229 
L 431.922464 136.352623 
L 432.020484 136.058406 
L 432.03791 135.524217 
L 432.059693 136.338455 
L 431.868441 136.35001 
L 431.986706 136.429334 
L 431.993861 136.612411 
L 431.957982 136.245571 
L 432.085857 136.300857 
L 432.924457 136.211781 
L 434.445632 136.32095 
L 434.302918 136.317232 
L 440.65189 136.314121 
L 439.753184 136.308145 
L 448.087808 136.317482 
L 447.73128 136.317468 
L 480.120043 136.311074 
L 480.269744 136.127182 
L 480.456871 136.679085 
L 478.937378 136.311229 
L 479.0197 136.31122 
L 480.419177 136.349085 
L 480.419177 136.48424 
L 479.62721 136.311154 
L 480.048626 136.31197 
L 479.951396 136.311906 
L 480.404631 136.311992 
L 480.505599 173.950406 
L 481.10019 36.841818 
L 481.212377 49.138657 
L 481.212377 216.331919 
L 480.250592 136.312 
L 480.274541 136.31199 
L 480.442182 136.315441 
L 480.211807 136.312002 
L 480.350495 136.329224 
L 480.452734 136.048112 
L 480.47091 135.497354 
L 480.493629 136.34964 
L 480.308279 136.31198 
L 480.317842 136.32005 
L 480.374161 135.90624 
L 480.291984 136.323723 
L 480.422985 136.312558 
L 480.647544 184.46575 
L 480.361288 136.312558 
L 480.666377 181.888037 
L 480.666377 165.788872 
L 480.586423 173.950593 
L 480.596372 182.20545 
L 480.640047 166.590742 
L 481.360027 127.119868 
L 481.614163 121.067363 
L 481.659342 123.643974 
L 481.715817 122.983751 
L 481.821104 116.695262 
L 482.136963 118.490188 
L 482.24225 120.790579 
L 482.24225 120.125108 
L 481.810522 116.827172 
L 481.857875 116.974723 
L 482.136729 118.599369 
L 483.130777 137.228067 
L 483.182767 134.907321 
L 483.247754 135.875294 
L 483.247754 140.154249 
L 483.439404 141.849311 
L 483.75882 141.941719 
L 483.886586 139.730522 
L 483.886586 141.914923 
L 483.359865 141.462703 
L 483.41592 141.699896 
L 483.696196 142.202259 
L 483.808307 140.903646 
L 483.808307 142.236585 
L 483.976473 141.403916 
L 484.36886 139.316359 
L 484.477768 137.400595 
L 484.804495 135.382868 
L 484.852899 136.054639 
L 484.913404 135.670678 
L 484.913404 134.333723 
L 485.080839 133.628263 
L 485.359898 133.303437 
L 485.471521 133.830313 
L 485.471521 133.175672 
L 485.007006 133.855795 
L 485.475017 133.136563 
L 485.521818 133.227 
L 485.849426 133.951924 
L 486.300013 135.276932 
L 486.350078 135.022172 
L 486.412659 135.277753 
L 486.412659 135.834297 
L 486.644927 136.46163 
L 487.03204 136.643219 
L 487.186886 135.773453 
L 487.186886 137.036398 
L 486.550396 136.251951 
L 486.963607 136.704555 
L 487.101344 136.175407 
L 487.101344 137.024222 
L 487.306928 137.014587 
L 487.786623 136.648373 
L 487.786623 136.616291 
L 488.308308 136.187589 
L 488.366273 136.394208 
L 488.438729 136.323258 
L 488.438729 135.980692 
L 488.691769 135.873558 
L 489.113502 135.989216 
L 489.282195 136.373401 
L 489.282195 135.974838 
L 488.571647 135.898999 
L 489.029472 136.022926 
L 489.103315 136.067719 
L 489.103315 135.902156 
L 489.762153 136.140487 
L 489.762153 136.226369 
L 489.994755 136.345061 
L 490.382426 136.414287 
L 490.537494 136.298879 
L 490.537494 136.504396 
L 491.274808 136.496075 
L 491.609466 136.453905 
L 495.718948 136.598818 
L 496.25311 136.601771 
L 496.138414 136.599439 
L 500.632436 136.633742 
L 510.550892 136.527856 
L 510.871619 136.58723 
L 510.871619 136.532901 
L 508.254119 136.552997 
L 530.199171 136.332184 
L 530.368897 136.122287 
L 530.581055 136.742316 
L 528.904184 136.338081 
L 529.02046 136.337588 
L 529.601837 136.335004 
L 529.705193 136.207515 
L 529.834388 136.586936 
L 528.769026 136.338699 
L 529.158596 136.336981 
L 529.645559 136.348559 
L 529.603913 136.342075 
L 529.816458 137.038557 
L 529.600305 136.332315 
L 529.838108 136.950118 
L 529.838108 136.386168 
L 529.912523 136.387998 
L 529.854969 136.386724 
L 530.162443 136.429646 
L 530.421972 135.794199 
L 530.46811 134.729432 
L 530.525783 135.242387 
L 530.525783 136.472801 
L 530.05319 136.388512 
L 530.076422 136.407584 
L 530.192584 136.088956 
L 530.213235 135.475108 
L 530.239049 136.426476 
L 530.011105 136.38863 
L 530.116223 136.405685 
L 530.225721 136.10311 
L 530.245187 135.51882 
L 530.26952 136.422489 
L 530.06903 136.388127 
L 530.078283 136.395763 
L 530.132771 135.993658 
L 530.053117 136.39905 
L 530.200662 136.331272 
L 530.21555 136.420237 
L 530.231141 136.304994 
L 530.303465 136.413646 
L 530.336858 136.319948 
L 530.313217 136.422076 
L 530.416587 136.425569 
L 530.950882 136.502208 
L 531.075781 136.631604 
L 530.945689 136.502064 
L 531.078401 136.621995 
L 531.058394 136.507763 
L 531.185946 136.657503 
L 531.189003 136.583247 
L 531.278574 136.877955 
L 531.225952 136.508788 
L 531.277518 136.556316 
L 531.477216 137.396386 
L 531.266976 136.452401 
L 531.499019 137.287148 
L 531.499019 136.581478 
L 531.307587 136.569798 
L 533.971504 136.597515 
L 533.855057 136.598877 
L 542.710964 136.605479 
L 579.72853 136.609067 
L 579.902159 136.82266 
L 580.119195 98.847145 
L 580.119195 110.697149 
L 578.248791 136.608775 
L 578.290254 136.608777 
L 579.405268 136.608873 
L 579.610346 136.435768 
L 580.635731 99.650218 
L 580.818022 66.523889 
L 581.045885 112.223084 
L 581.045885 151.058837 
L 579.136033 136.608846 
L 579.206493 136.608854 
L 579.699709 136.580878 
L 579.699709 136.46326 
L 579.05593 136.608838 
L 579.390419 136.583203 
L 579.542459 136.984767 
L 579.569489 137.745142 
L 579.603276 136.550991 
L 579.328899 136.608868 
L 579.343751 136.596331 
L 579.418012 136.80498 
L 579.431213 137.220481 
L 579.361134 136.355444 
L 579.430609 136.606918 
L 579.676637 136.606732 
L 580.159581 87.899444 
L 580.250703 120.471066 
L 579.514139 136.60676 
L 579.555903 136.606754 
L 579.456936 136.606868 
L 579.86709 136.606784 
L 579.953698 98.980621 
L 580.463723 236.078182 
L 580.559954 236.078182 
L 580.559954 69.547048 
L 579.744325 136.606742 
L 579.76955 136.606772 
L 579.918098 136.634466 
L 579.946125 99.04978 
L 579.946125 100.56395 
L 579.711727 136.606731 
L 579.809918 136.606812 
L 579.791746 136.606792 
L 579.892401 136.606141 
L 579.978482 99.052859 
L 580.021522 103.618943 
L 580.236725 107.480928 
L 580.274983 96.263501 
L 580.322806 108.825294 
L 580.322806 121.701961 
L 579.941052 99.052839 
L 579.965378 101.633486 
L 580.087006 100.717363 
L 580.108629 86.795917 
L 579.923001 136.606156 
L 579.938301 99.052848 
L 580.014802 124.702342 
L 580.028402 165.773615 
L 579.998425 97.417454 
L 580.011678 101.747379 
L 579.895756 136.606142 
L 580.075074 87.835134 
L 580.097545 107.884425 
L 580.846892 147.890109 
L 581.104938 153.04351 
L 581.150813 150.478565 
L 581.208157 150.821534 
L 581.312897 156.383179 
L 581.673668 153.107256 
L 581.731857 151.575288 
L 581.731857 151.697218 
L 581.300288 156.282496 
L 581.807008 150.180122 
L 582.618721 135.017383 
L 582.673083 137.783966 
L 582.741035 136.928322 
L 582.741035 132.086112 
L 582.929646 130.77392 
L 583.243998 130.968218 
L 583.369739 132.880499 
L 583.369739 131.289425 
L 582.852578 130.997134 
L 582.908349 130.869052 
L 583.187206 130.712183 
L 583.298749 131.916218 
L 583.298749 130.927368 
L 583.466063 131.91542 
L 583.744921 133.665117 
L 583.794495 133.219495 
L 584.019475 136.458754 
L 584.29116 137.902114 
L 584.33946 137.246473 
L 584.399835 137.574853 
L 584.503636 139.324139 
L 584.555537 139.423904 
L 584.815041 139.681424 
L 584.918843 139.30985 
L 584.918843 139.727808 
L 584.49144 139.269475 
L 584.949468 139.733793 
L 585.431691 138.484292 
L 585.779091 137.499012 
L 585.830558 137.797388 
L 585.894891 137.544997 
L 585.894891 136.929607 
L 586.133778 136.335544 
L 586.531923 136.241544 
L 586.691181 137.191213 
L 586.691181 135.893294 
L 586.030851 136.539579 
L 586.438732 136.14759 
L 586.574692 136.639182 
L 586.574692 135.885619 
L 586.777717 135.923547 
L 587.251442 136.266634 
L 587.251442 136.34437 
L 587.44804 136.572108 
L 587.775702 136.762522 
L 587.833953 136.551688 
L 587.906766 136.61569 
L 587.906766 136.961935 
L 588.15274 137.051946 
L 588.562697 136.943778 
L 588.72668 136.614147 
L 588.72668 136.938859 
L 588.039703 137.035719 
L 589.232469 136.766948 
L 589.232469 136.671919 
L 589.469047 136.55534 
L 589.863344 136.495032 
L 590.021063 136.619979 
L 590.021063 136.409177 
L 590.750487 136.413553 
L 591.086119 136.470716 
L 605.153727 136.330497 
L 605.153727 136.330973 
L 629.108666 136.585173 
L 629.284707 136.43732 
L 630.164911 137.376627 
L 630.321392 134.880622 
L 630.516993 127.168375 
L 630.516993 135.14097 
L 628.831688 136.583955 
L 628.869239 136.58412 
L 629.056997 136.083962 
L 629.090376 135.299764 
L 629.1321 136.504247 
L 628.773496 136.583699 
L 628.866507 136.576969 
L 628.9163 136.945199 
L 628.879447 136.426626 
L 628.937135 136.581217 
L 628.912916 136.581217 
L 629.045259 136.576655 
L 629.153835 136.286824 
L 629.173138 135.809204 
L 629.197266 136.532329 
L 628.988736 136.576889 
L 629.182149 136.570304 
L 629.287498 136.289037 
L 629.306227 135.824661 
L 629.329638 136.527466 
L 629.369446 136.526216 
L 629.679027 136.487958 
L 629.929608 137.108563 
L 629.974155 138.155728 
L 630.02984 137.675007 
L 630.02984 136.450497 
L 629.575691 136.526518 
L 629.599197 136.507509 
L 629.716726 136.830894 
L 629.73762 137.45088 
L 629.763738 136.490337 
L 629.54827 136.526136 
L 629.558066 136.518091 
L 629.615753 136.942797 
L 629.557233 136.506034 
L 629.677874 136.601433 
L 629.756615 136.494651 
L 629.688713 136.608373 
L 629.780934 136.499608 
L 629.837724 136.57979 
L 629.776104 136.500857 
L 629.892834 136.487219 
L 630.005943 136.457544 
L 630.010207 136.479116 
L 630.010629 136.493613 
L 630.114079 136.428067 
L 630.121252 136.489847 
L 630.230194 136.423827 
L 630.138029 136.494682 
L 630.245431 136.443977 
L 630.265419 136.459944 
L 630.333851 136.326622 
L 630.354726 136.420262 
L 630.483135 136.2939 
L 630.354333 136.428028 
L 630.485671 136.303189 
L 630.493332 136.412424 
L 630.537955 136.272469 
L 630.583935 136.37929 
L 630.753305 135.847509 
L 630.636407 136.409787 
L 630.766293 135.903777 
L 630.665868 136.365415 
L 630.704302 136.360027 
L 630.653782 136.364065 
L 630.750515 136.358895 
L 630.8495 136.061362 
L 630.867097 135.522578 
L 630.889093 136.343652 
L 630.70883 136.353163 
L 630.761945 136.457383 
L 630.769814 136.658133 
L 630.844679 135.806726 
L 630.858354 136.339336 
L 630.738861 136.347427 
L 630.833308 136.431808 
L 630.84043 136.614019 
L 630.804615 136.249256 
L 630.908687 136.311464 
L 631.633589 136.212712 
L 659.555647 136.315188 
L 679.303616 136.310502 
L 659.110589 136.315221 
L 679.253325 136.196632 
L 679.37 173.92585 
L 679.37 167.60732 
L 678.37304 136.311161 
L 678.399595 136.311154 
L 679.065902 136.311629 
L 679.283115 136.891133 
L 679.32173 137.780602 
L 679.37 175.051463 
L 679.37 171.276909 
L 679.063422 136.295937 
L 679.064676 136.166598 
L 679.220563 136.313794 
L 679.34628 136.313848 
L 679.37 173.867163 
L 679.37 172.549057 
L 679.171803 136.313733 
L 679.255868 136.313823 
L 679.363263 136.313833 
L 679.37 173.867157 
L 679.369999 136.313829 
L 679.37 173.867089 
" clip-path="url(#padccf64ef8)" style="fill: none; stroke: #800080; stroke-width: 1.5; stroke-linecap: square"/>
   </g>
   <g id="patch_3">
    <path d="M 52.94 246.04 
L 52.94 26.88 
" style="fill: none; stroke: #000000; stroke-width: 0.8; stroke-linejoin: miter; stroke-linecap: square"/>
   </g>
   <g id="patch_4">
    <path d="M 709.2 246.04 
L 709.2 26.88 
" style="fill: none; stroke: #000000; stroke-width: 0.8; stroke-linejoin: miter; stroke-linecap: square"/>
   </g>
   <g id="patch_5">
    <path d="M 52.94 246.04 
L 709.2 246.04 
" style="fill: none; stroke: #000000; stroke-width: 0.8; stroke-linejoin: miter; stroke-linecap: square"/>
   </g>
   <g id="patch_6">
    <path d="M 52.94 26.88 
L 709.2 26.88 
" style="fill: none; stroke: #000000; stroke-width: 0.8; stroke-linejoin: miter; stroke-linecap: square"/>
   </g>
   <g id="text_19">
    <!-- Control Force vs Time -->
    <g transform="translate(316.079687 20.88) scale(0.12 -0.12)">
     <defs>
      <path id="DejaVuSans-43" d="M 4122 4306 
L 4122 3641 
Q 3803 3938 3442 4084 
Q 3081 4231 2675 4231 
Q 1875 4231 1450 3742 
Q 1025 3253 1025 2328 
Q 1025 1406 1450 917 
Q 1875 428 2675 428 
Q 3081 428 3442 575 
Q 3803 722 4122 1019 
L 4122 359 
Q 3791 134 3420 21 
Q 3050 -91 2638 -91 
Q 1578 -91 968 557 
Q 359 1206 359 2328 
Q 359 3453 968 4101 
Q 1578 4750 2638 4750 
Q 3056 4750 3426 4639 
Q 3797 4528 4122 4306 
z
" transform="scale(0.015625)"/>
      <path id="DejaVuSans-6e" d="M 3513 2113 
L 3513 0 
L 2938 0 
L 2938 2094 
Q 2938 2591 2744 2837 
Q 2550 3084 2163 3084 
Q 1697 3084 1428 2787 
Q 1159 2491 1159 1978 
L 1159 0 
L 581 0 
L 581 3500 
L 1159 3500 
L 1159 2956 
Q 1366 3272 1645 3428 
Q 1925 3584 2291 3584 
Q 2894 3584 3203 3211 
Q 3513 2838 3513 2113 
z
" transform="scale(0.015625)"/>
      <path id="DejaVuSans-74" d="M 1172 4494 
L 1172 3500 
L 2356 3500 
L 2356 3053 
L 1172 3053 
L 1172 1153 
Q 1172 725 1289 603 
Q 1406 481 1766 481 
L 2356 481 
L 2356 0 
L 1766 0 
Q 1100 0 847 248 
Q 594 497 594 1153 
L 594 3053 
L 172 3053 
L 172 3500 
L 594 3500 
L 594 4494 
L 1172 4494 
z
" transform="scale(0.015625)"/>
      <path id="DejaVuSans-6c" d="M 603 4863 
L 1178 4863 
L 1178 0 
L 603 0 
L 603 4863 
z
" transform="scale(0.015625)"/>
      <path id="DejaVuSans-76" d="M 191 3500 
L 800 3500 
L 1894 563 
L 2988 3500 
L 3597 3500 
L 2284 0 
L 1503 0 
L 191 3500 
z
" transform="scale(0.015625)"/>
     </defs>
     <use xlink:href="#DejaVuSans-43"/>
     <use xlink:href="#DejaVuSans-6f" transform="translate(69.824219 0)"/>
     <use xlink:href="#DejaVuSans-6e" transform="translate(131.005859 0)"/>
     <use xlink:href="#DejaVuSans-74" transform="translate(194.384766 0)"/>
     <use xlink:href="#DejaVuSans-72" transform="translate(233.59375 0)"/>
     <use xlink:href="#DejaVuSans-6f" transform="translate(272.457031 0)"/>
     <use xlink:href="#DejaVuSans-6c" transform="translate(333.638672 0)"/>
     <use xlink:href="#DejaVuSans-20" transform="translate(361.421875 0)"/>
     <use xlink:href="#DejaVuSans-46" transform="translate(393.208984 0)"/>
     <use xlink:href="#DejaVuSans-6f" transform="translate(447.103516 0)"/>
     <use xlink:href="#DejaVuSans-72" transform="translate(508.285156 0)"/>
     <use xlink:href="#DejaVuSans-63" transform="translate(547.148438 0)"/>
     <use xlink:href="#DejaVuSans-65" transform="translate(602.128906 0)"/>
     <use xlink:href="#DejaVuSans-20" transform="translate(663.652344 0)"/>
     <use xlink:href="#DejaVuSans-76" transform="translate(695.439453 0)"/>
     <use xlink:href="#DejaVuSans-73" transform="translate(754.619141 0)"/>
     <use xlink:href="#DejaVuSans-20" transform="translate(806.71875 0)"/>
     <use xlink:href="#DejaVuSans-54" transform="translate(838.505859 0)"/>
     <use xlink:href="#DejaVuSans-69" transform="translate(896.464844 0)"/>
     <use xlink:href="#DejaVuSans-6d" transform="translate(924.248047 0)"/>
     <use xlink:href="#DejaVuSans-65" transform="translate(1021.660156 0)"/>
    </g>
   </g>
   <g id="legend_1">
    <g id="patch_7">
     <path d="M 585.4125 49.558125 
L 702.2 49.558125 
Q 704.2 49.558125 704.2 47.558125 
L 704.2 33.88 
Q 704.2 31.88 702.2 31.88 
L 585.4125 31.88 
Q 583.4125 31.88 583.4125 33.88 
L 583.4125 47.558125 
Q 583.4125 49.558125 585.4125 49.558125 
z
" style="fill: #ffffff; opacity: 0.8; stroke: #cccccc; stroke-linejoin: miter"/>
    </g>
    <g id="line2d_34">
     <path d="M 587.4125 39.978437 
L 597.4125 39.978437 
L 607.4125 39.978437 
" style="fill: none; stroke: #800080; stroke-width: 1.5; stroke-linecap: square"/>
    </g>
    <g id="text_20">
     <!-- Control Force f(t) -->
     <g transform="translate(615.4125 43.478437) scale(0.1 -0.1)">
      <defs>
       <path id="DejaVuSans-66" d="M 2375 4863 
L 2375 4384 
L 1825 4384 
Q 1516 4384 1395 4259 
Q 1275 4134 1275 3809 
L 1275 3500 
L 2222 3500 
L 2222 3053 
L 1275 3053 
L 1275 0 
L 697 0 
L 697 3053 
L 147 3053 
L 147 3500 
L 697 3500 
L 697 3744 
Q 697 4328 969 4595 
Q 1241 4863 1831 4863 
L 2375 4863 
z
" transform="scale(0.015625)"/>
       <path id="DejaVuSans-28" d="M 1984 4856 
Q 1566 4138 1362 3434 
Q 1159 2731 1159 2009 
Q 1159 1288 1364 580 
Q 1569 -128 1984 -844 
L 1484 -844 
Q 1016 -109 783 600 
Q 550 1309 550 2009 
Q 550 2706 781 3412 
Q 1013 4119 1484 4856 
L 1984 4856 
z
" transform="scale(0.015625)"/>
       <path id="DejaVuSans-29" d="M 513 4856 
L 1013 4856 
Q 1481 4119 1714 3412 
Q 1947 2706 1947 2009 
Q 1947 1309 1714 600 
Q 1481 -109 1013 -844 
L 513 -844 
Q 928 -128 1133 580 
Q 1338 1288 1338 2009 
Q 1338 2731 1133 3434 
Q 928 4138 513 4856 
z
" transform="scale(0.015625)"/>
      </defs>
      <use xlink:href="#DejaVuSans-43"/>
      <use xlink:href="#DejaVuSans-6f" transform="translate(69.824219 0)"/>
      <use xlink:href="#DejaVuSans-6e" transform="translate(131.005859 0)"/>
      <use xlink:href="#DejaVuSans-74" transform="translate(194.384766 0)"/>
      <use xlink:href="#DejaVuSans-72" transform="translate(233.59375 0)"/>
      <use xlink:href="#DejaVuSans-6f" transform="translate(272.457031 0)"/>
      <use xlink:href="#DejaVuSans-6c" transform="translate(333.638672 0)"/>
      <use xlink:href="#DejaVuSans-20" transform="translate(361.421875 0)"/>
      <use xlink:href="#DejaVuSans-46" transform="translate(393.208984 0)"/>
      <use xlink:href="#DejaVuSans-6f" transform="translate(447.103516 0)"/>
      <use xlink:href="#DejaVuSans-72" transform="translate(508.285156 0)"/>
      <use xlink:href="#DejaVuSans-63" transform="translate(547.148438 0)"/>
      <use xlink:href="#DejaVuSans-65" transform="translate(602.128906 0)"/>
      <use xlink:href="#DejaVuSans-20" transform="translate(663.652344 0)"/>
      <use xlink:href="#DejaVuSans-66" transform="translate(695.439453 0)"/>
      <use xlink:href="#DejaVuSans-28" transform="translate(730.644531 0)"/>
      <use xlink:href="#DejaVuSans-74" transform="translate(769.658203 0)"/>
      <use xlink:href="#DejaVuSans-29" transform="translate(808.867188 0)"/>
     </g>
    </g>
   </g>
  </g>
 </g>
 <defs>
  <clipPath id="padccf64ef8">
   <rect x="52.94" y="26.88" width="656.26" height="219.16"/>
  </clipPath>
 </defs>
</svg>
