<?xml version="1.0" encoding="utf-8" standalone="no"?>
<!DOCTYPE svg PUBLIC "-//W3C//DTD SVG 1.1//EN"
  "http://www.w3.org/Graphics/SVG/1.1/DTD/svg11.dtd">
<svg xmlns:xlink="http://www.w3.org/1999/xlink" width="864pt" height="432pt" viewBox="0 0 864 432" xmlns="http://www.w3.org/2000/svg" version="1.1">
 <metadata>
  <rdf:RDF xmlns:dc="http://purl.org/dc/elements/1.1/" xmlns:cc="http://creativecommons.org/ns#" xmlns:rdf="http://www.w3.org/1999/02/22-rdf-syntax-ns#">
   <cc:Work>
    <dc:type rdf:resource="http://purl.org/dc/dcmitype/StillImage"/>
    <dc:date>2025-04-29T12:24:32.457946</dc:date>
    <dc:format>image/svg+xml</dc:format>
    <dc:creator>
     <cc:Agent>
      <dc:title>Matplotlib v3.10.1, https://matplotlib.org/</dc:title>
     </cc:Agent>
    </dc:creator>
   </cc:Work>
  </rdf:RDF>
 </metadata>
 <defs>
  <style type="text/css">*{stroke-linejoin: round; stroke-linecap: butt}</style>
 </defs>
 <g id="figure_1">
  <g id="patch_1">
   <path d="M 0 432 
L 864 432 
L 864 0 
L 0 0 
z
" style="fill: #ffffff"/>
  </g>
  <g id="axes_1">
   <g id="patch_2">
    <path d="M 56 186.576467 
L 853.2 186.576467 
L 853.2 26.88 
L 56 26.88 
z
" style="fill: #ffffff"/>
   </g>
   <g id="matplotlib.axis_1">
    <g id="xtick_1">
     <g id="line2d_1">
      <defs>
       <path id="mfe07a73e47" d="M 0 0 
L 0 3.5 
" style="stroke: #000000; stroke-width: 0.8"/>
      </defs>
      <g>
       <use xlink:href="#mfe07a73e47" x="92.236364" y="186.576467" style="stroke: #000000; stroke-width: 0.8"/>
      </g>
     </g>
     <g id="text_1">
      <!-- 0 -->
      <g transform="translate(89.055114 201.174904) scale(0.1 -0.1)">
       <defs>
        <path id="DejaVuSans-30" d="M 2034 4250 
Q 1547 4250 1301 3770 
Q 1056 3291 1056 2328 
Q 1056 1369 1301 889 
Q 1547 409 2034 409 
Q 2525 409 2770 889 
Q 3016 1369 3016 2328 
Q 3016 3291 2770 3770 
Q 2525 4250 2034 4250 
z
M 2034 4750 
Q 2819 4750 3233 4129 
Q 3647 3509 3647 2328 
Q 3647 1150 3233 529 
Q 2819 -91 2034 -91 
Q 1250 -91 836 529 
Q 422 1150 422 2328 
Q 422 3509 836 4129 
Q 1250 4750 2034 4750 
z
" transform="scale(0.015625)"/>
       </defs>
       <use xlink:href="#DejaVuSans-30"/>
      </g>
     </g>
    </g>
    <g id="xtick_2">
     <g id="line2d_2">
      <g>
       <use xlink:href="#mfe07a73e47" x="213.024242" y="186.576467" style="stroke: #000000; stroke-width: 0.8"/>
      </g>
     </g>
     <g id="text_2">
      <!-- 10 -->
      <g transform="translate(206.661742 201.174904) scale(0.1 -0.1)">
       <defs>
        <path id="DejaVuSans-31" d="M 794 531 
L 1825 531 
L 1825 4091 
L 703 3866 
L 703 4441 
L 1819 4666 
L 2450 4666 
L 2450 531 
L 3481 531 
L 3481 0 
L 794 0 
L 794 531 
z
" transform="scale(0.015625)"/>
       </defs>
       <use xlink:href="#DejaVuSans-31"/>
       <use xlink:href="#DejaVuSans-30" transform="translate(63.623047 0)"/>
      </g>
     </g>
    </g>
    <g id="xtick_3">
     <g id="line2d_3">
      <g>
       <use xlink:href="#mfe07a73e47" x="333.812121" y="186.576467" style="stroke: #000000; stroke-width: 0.8"/>
      </g>
     </g>
     <g id="text_3">
      <!-- 20 -->
      <g transform="translate(327.449621 201.174904) scale(0.1 -0.1)">
       <defs>
        <path id="DejaVuSans-32" d="M 1228 531 
L 3431 531 
L 3431 0 
L 469 0 
L 469 531 
Q 828 903 1448 1529 
Q 2069 2156 2228 2338 
Q 2531 2678 2651 2914 
Q 2772 3150 2772 3378 
Q 2772 3750 2511 3984 
Q 2250 4219 1831 4219 
Q 1534 4219 1204 4116 
Q 875 4013 500 3803 
L 500 4441 
Q 881 4594 1212 4672 
Q 1544 4750 1819 4750 
Q 2544 4750 2975 4387 
Q 3406 4025 3406 3419 
Q 3406 3131 3298 2873 
Q 3191 2616 2906 2266 
Q 2828 2175 2409 1742 
Q 1991 1309 1228 531 
z
" transform="scale(0.015625)"/>
       </defs>
       <use xlink:href="#DejaVuSans-32"/>
       <use xlink:href="#DejaVuSans-30" transform="translate(63.623047 0)"/>
      </g>
     </g>
    </g>
    <g id="xtick_4">
     <g id="line2d_4">
      <g>
       <use xlink:href="#mfe07a73e47" x="454.6" y="186.576467" style="stroke: #000000; stroke-width: 0.8"/>
      </g>
     </g>
     <g id="text_4">
      <!-- 30 -->
      <g transform="translate(448.2375 201.174904) scale(0.1 -0.1)">
       <defs>
        <path id="DejaVuSans-33" d="M 2597 2516 
Q 3050 2419 3304 2112 
Q 3559 1806 3559 1356 
Q 3559 666 3084 287 
Q 2609 -91 1734 -91 
Q 1441 -91 1130 -33 
Q 819 25 488 141 
L 488 750 
Q 750 597 1062 519 
Q 1375 441 1716 441 
Q 2309 441 2620 675 
Q 2931 909 2931 1356 
Q 2931 1769 2642 2001 
Q 2353 2234 1838 2234 
L 1294 2234 
L 1294 2753 
L 1863 2753 
Q 2328 2753 2575 2939 
Q 2822 3125 2822 3475 
Q 2822 3834 2567 4026 
Q 2313 4219 1838 4219 
Q 1578 4219 1281 4162 
Q 984 4106 628 3988 
L 628 4550 
Q 988 4650 1302 4700 
Q 1616 4750 1894 4750 
Q 2613 4750 3031 4423 
Q 3450 4097 3450 3541 
Q 3450 3153 3228 2886 
Q 3006 2619 2597 2516 
z
" transform="scale(0.015625)"/>
       </defs>
       <use xlink:href="#DejaVuSans-33"/>
       <use xlink:href="#DejaVuSans-30" transform="translate(63.623047 0)"/>
      </g>
     </g>
    </g>
    <g id="xtick_5">
     <g id="line2d_5">
      <g>
       <use xlink:href="#mfe07a73e47" x="575.387879" y="186.576467" style="stroke: #000000; stroke-width: 0.8"/>
      </g>
     </g>
     <g id="text_5">
      <!-- 40 -->
      <g transform="translate(569.025379 201.174904) scale(0.1 -0.1)">
       <defs>
        <path id="DejaVuSans-34" d="M 2419 4116 
L 825 1625 
L 2419 1625 
L 2419 4116 
z
M 2253 4666 
L 3047 4666 
L 3047 1625 
L 3713 1625 
L 3713 1100 
L 3047 1100 
L 3047 0 
L 2419 0 
L 2419 1100 
L 313 1100 
L 313 1709 
L 2253 4666 
z
" transform="scale(0.015625)"/>
       </defs>
       <use xlink:href="#DejaVuSans-34"/>
       <use xlink:href="#DejaVuSans-30" transform="translate(63.623047 0)"/>
      </g>
     </g>
    </g>
    <g id="xtick_6">
     <g id="line2d_6">
      <g>
       <use xlink:href="#mfe07a73e47" x="696.175758" y="186.576467" style="stroke: #000000; stroke-width: 0.8"/>
      </g>
     </g>
     <g id="text_6">
      <!-- 50 -->
      <g transform="translate(689.813258 201.174904) scale(0.1 -0.1)">
       <defs>
        <path id="DejaVuSans-35" d="M 691 4666 
L 3169 4666 
L 3169 4134 
L 1269 4134 
L 1269 2991 
Q 1406 3038 1543 3061 
Q 1681 3084 1819 3084 
Q 2600 3084 3056 2656 
Q 3513 2228 3513 1497 
Q 3513 744 3044 326 
Q 2575 -91 1722 -91 
Q 1428 -91 1123 -41 
Q 819 9 494 109 
L 494 744 
Q 775 591 1075 516 
Q 1375 441 1709 441 
Q 2250 441 2565 725 
Q 2881 1009 2881 1497 
Q 2881 1984 2565 2268 
Q 2250 2553 1709 2553 
Q 1456 2553 1204 2497 
Q 953 2441 691 2322 
L 691 4666 
z
" transform="scale(0.015625)"/>
       </defs>
       <use xlink:href="#DejaVuSans-35"/>
       <use xlink:href="#DejaVuSans-30" transform="translate(63.623047 0)"/>
      </g>
     </g>
    </g>
    <g id="xtick_7">
     <g id="line2d_7">
      <g>
       <use xlink:href="#mfe07a73e47" x="816.963636" y="186.576467" style="stroke: #000000; stroke-width: 0.8"/>
      </g>
     </g>
     <g id="text_7">
      <!-- 60 -->
      <g transform="translate(810.601136 201.174904) scale(0.1 -0.1)">
       <defs>
        <path id="DejaVuSans-36" d="M 2113 2584 
Q 1688 2584 1439 2293 
Q 1191 2003 1191 1497 
Q 1191 994 1439 701 
Q 1688 409 2113 409 
Q 2538 409 2786 701 
Q 3034 994 3034 1497 
Q 3034 2003 2786 2293 
Q 2538 2584 2113 2584 
z
M 3366 4563 
L 3366 3988 
Q 3128 4100 2886 4159 
Q 2644 4219 2406 4219 
Q 1781 4219 1451 3797 
Q 1122 3375 1075 2522 
Q 1259 2794 1537 2939 
Q 1816 3084 2150 3084 
Q 2853 3084 3261 2657 
Q 3669 2231 3669 1497 
Q 3669 778 3244 343 
Q 2819 -91 2113 -91 
Q 1303 -91 875 529 
Q 447 1150 447 2328 
Q 447 3434 972 4092 
Q 1497 4750 2381 4750 
Q 2619 4750 2861 4703 
Q 3103 4656 3366 4563 
z
" transform="scale(0.015625)"/>
       </defs>
       <use xlink:href="#DejaVuSans-36"/>
       <use xlink:href="#DejaVuSans-30" transform="translate(63.623047 0)"/>
      </g>
     </g>
    </g>
    <g id="text_8">
     <!-- Time (s) -->
     <g transform="translate(434.271094 214.853029) scale(0.1 -0.1)">
      <defs>
       <path id="DejaVuSans-54" d="M -19 4666 
L 3928 4666 
L 3928 4134 
L 2272 4134 
L 2272 0 
L 1638 0 
L 1638 4134 
L -19 4134 
L -19 4666 
z
" transform="scale(0.015625)"/>
       <path id="DejaVuSans-69" d="M 603 3500 
L 1178 3500 
L 1178 0 
L 603 0 
L 603 3500 
z
M 603 4863 
L 1178 4863 
L 1178 4134 
L 603 4134 
L 603 4863 
z
" transform="scale(0.015625)"/>
       <path id="DejaVuSans-6d" d="M 3328 2828 
Q 3544 3216 3844 3400 
Q 4144 3584 4550 3584 
Q 5097 3584 5394 3201 
Q 5691 2819 5691 2113 
L 5691 0 
L 5113 0 
L 5113 2094 
Q 5113 2597 4934 2840 
Q 4756 3084 4391 3084 
Q 3944 3084 3684 2787 
Q 3425 2491 3425 1978 
L 3425 0 
L 2847 0 
L 2847 2094 
Q 2847 2600 2669 2842 
Q 2491 3084 2119 3084 
Q 1678 3084 1418 2786 
Q 1159 2488 1159 1978 
L 1159 0 
L 581 0 
L 581 3500 
L 1159 3500 
L 1159 2956 
Q 1356 3278 1631 3431 
Q 1906 3584 2284 3584 
Q 2666 3584 2933 3390 
Q 3200 3197 3328 2828 
z
" transform="scale(0.015625)"/>
       <path id="DejaVuSans-65" d="M 3597 1894 
L 3597 1613 
L 953 1613 
Q 991 1019 1311 708 
Q 1631 397 2203 397 
Q 2534 397 2845 478 
Q 3156 559 3463 722 
L 3463 178 
Q 3153 47 2828 -22 
Q 2503 -91 2169 -91 
Q 1331 -91 842 396 
Q 353 884 353 1716 
Q 353 2575 817 3079 
Q 1281 3584 2069 3584 
Q 2775 3584 3186 3129 
Q 3597 2675 3597 1894 
z
M 3022 2063 
Q 3016 2534 2758 2815 
Q 2500 3097 2075 3097 
Q 1594 3097 1305 2825 
Q 1016 2553 972 2059 
L 3022 2063 
z
" transform="scale(0.015625)"/>
       <path id="DejaVuSans-20" transform="scale(0.015625)"/>
       <path id="DejaVuSans-28" d="M 1984 4856 
Q 1566 4138 1362 3434 
Q 1159 2731 1159 2009 
Q 1159 1288 1364 580 
Q 1569 -128 1984 -844 
L 1484 -844 
Q 1016 -109 783 600 
Q 550 1309 550 2009 
Q 550 2706 781 3412 
Q 1013 4119 1484 4856 
L 1984 4856 
z
" transform="scale(0.015625)"/>
       <path id="DejaVuSans-73" d="M 2834 3397 
L 2834 2853 
Q 2591 2978 2328 3040 
Q 2066 3103 1784 3103 
Q 1356 3103 1142 2972 
Q 928 2841 928 2578 
Q 928 2378 1081 2264 
Q 1234 2150 1697 2047 
L 1894 2003 
Q 2506 1872 2764 1633 
Q 3022 1394 3022 966 
Q 3022 478 2636 193 
Q 2250 -91 1575 -91 
Q 1294 -91 989 -36 
Q 684 19 347 128 
L 347 722 
Q 666 556 975 473 
Q 1284 391 1588 391 
Q 1994 391 2212 530 
Q 2431 669 2431 922 
Q 2431 1156 2273 1281 
Q 2116 1406 1581 1522 
L 1381 1569 
Q 847 1681 609 1914 
Q 372 2147 372 2553 
Q 372 3047 722 3315 
Q 1072 3584 1716 3584 
Q 2034 3584 2315 3537 
Q 2597 3491 2834 3397 
z
" transform="scale(0.015625)"/>
       <path id="DejaVuSans-29" d="M 513 4856 
L 1013 4856 
Q 1481 4119 1714 3412 
Q 1947 2706 1947 2009 
Q 1947 1309 1714 600 
Q 1481 -109 1013 -844 
L 513 -844 
Q 928 -128 1133 580 
Q 1338 1288 1338 2009 
Q 1338 2731 1133 3434 
Q 928 4138 513 4856 
z
" transform="scale(0.015625)"/>
      </defs>
      <use xlink:href="#DejaVuSans-54"/>
      <use xlink:href="#DejaVuSans-69" transform="translate(57.958984 0)"/>
      <use xlink:href="#DejaVuSans-6d" transform="translate(85.742188 0)"/>
      <use xlink:href="#DejaVuSans-65" transform="translate(183.154297 0)"/>
      <use xlink:href="#DejaVuSans-20" transform="translate(244.677734 0)"/>
      <use xlink:href="#DejaVuSans-28" transform="translate(276.464844 0)"/>
      <use xlink:href="#DejaVuSans-73" transform="translate(315.478516 0)"/>
      <use xlink:href="#DejaVuSans-29" transform="translate(367.578125 0)"/>
     </g>
    </g>
   </g>
   <g id="matplotlib.axis_2">
    <g id="ytick_1">
     <g id="line2d_8">
      <defs>
       <path id="m02ea372339" d="M 0 0 
L -3.5 0 
" style="stroke: #000000; stroke-width: 0.8"/>
      </defs>
      <g>
       <use xlink:href="#m02ea372339" x="56" y="186.476396" style="stroke: #000000; stroke-width: 0.8"/>
      </g>
     </g>
     <g id="text_9">
      <!-- −0.4 -->
      <g transform="translate(24.717187 190.275615) scale(0.1 -0.1)">
       <defs>
        <path id="DejaVuSans-2212" d="M 678 2272 
L 4684 2272 
L 4684 1741 
L 678 1741 
L 678 2272 
z
" transform="scale(0.015625)"/>
        <path id="DejaVuSans-2e" d="M 684 794 
L 1344 794 
L 1344 0 
L 684 0 
L 684 794 
z
" transform="scale(0.015625)"/>
       </defs>
       <use xlink:href="#DejaVuSans-2212"/>
       <use xlink:href="#DejaVuSans-30" transform="translate(83.789062 0)"/>
       <use xlink:href="#DejaVuSans-2e" transform="translate(147.412109 0)"/>
       <use xlink:href="#DejaVuSans-34" transform="translate(179.199219 0)"/>
      </g>
     </g>
    </g>
    <g id="ytick_2">
     <g id="line2d_9">
      <g>
       <use xlink:href="#m02ea372339" x="56" y="153.488595" style="stroke: #000000; stroke-width: 0.8"/>
      </g>
     </g>
     <g id="text_10">
      <!-- −0.2 -->
      <g transform="translate(24.717187 157.287813) scale(0.1 -0.1)">
       <use xlink:href="#DejaVuSans-2212"/>
       <use xlink:href="#DejaVuSans-30" transform="translate(83.789062 0)"/>
       <use xlink:href="#DejaVuSans-2e" transform="translate(147.412109 0)"/>
       <use xlink:href="#DejaVuSans-32" transform="translate(179.199219 0)"/>
      </g>
     </g>
    </g>
    <g id="ytick_3">
     <g id="line2d_10">
      <g>
       <use xlink:href="#m02ea372339" x="56" y="120.500793" style="stroke: #000000; stroke-width: 0.8"/>
      </g>
     </g>
     <g id="text_11">
      <!-- 0.0 -->
      <g transform="translate(33.096875 124.300012) scale(0.1 -0.1)">
       <use xlink:href="#DejaVuSans-30"/>
       <use xlink:href="#DejaVuSans-2e" transform="translate(63.623047 0)"/>
       <use xlink:href="#DejaVuSans-30" transform="translate(95.410156 0)"/>
      </g>
     </g>
    </g>
    <g id="ytick_4">
     <g id="line2d_11">
      <g>
       <use xlink:href="#m02ea372339" x="56" y="87.512991" style="stroke: #000000; stroke-width: 0.8"/>
      </g>
     </g>
     <g id="text_12">
      <!-- 0.2 -->
      <g transform="translate(33.096875 91.31221) scale(0.1 -0.1)">
       <use xlink:href="#DejaVuSans-30"/>
       <use xlink:href="#DejaVuSans-2e" transform="translate(63.623047 0)"/>
       <use xlink:href="#DejaVuSans-32" transform="translate(95.410156 0)"/>
      </g>
     </g>
    </g>
    <g id="ytick_5">
     <g id="line2d_12">
      <g>
       <use xlink:href="#m02ea372339" x="56" y="54.52519" style="stroke: #000000; stroke-width: 0.8"/>
      </g>
     </g>
     <g id="text_13">
      <!-- 0.4 -->
      <g transform="translate(33.096875 58.324409) scale(0.1 -0.1)">
       <use xlink:href="#DejaVuSans-30"/>
       <use xlink:href="#DejaVuSans-2e" transform="translate(63.623047 0)"/>
       <use xlink:href="#DejaVuSans-34" transform="translate(95.410156 0)"/>
      </g>
     </g>
    </g>
    <g id="text_14">
     <!-- Angle (rad) -->
     <g transform="translate(18.6375 134.741515) rotate(-90) scale(0.1 -0.1)">
      <defs>
       <path id="DejaVuSans-41" d="M 2188 4044 
L 1331 1722 
L 3047 1722 
L 2188 4044 
z
M 1831 4666 
L 2547 4666 
L 4325 0 
L 3669 0 
L 3244 1197 
L 1141 1197 
L 716 0 
L 50 0 
L 1831 4666 
z
" transform="scale(0.015625)"/>
       <path id="DejaVuSans-6e" d="M 3513 2113 
L 3513 0 
L 2938 0 
L 2938 2094 
Q 2938 2591 2744 2837 
Q 2550 3084 2163 3084 
Q 1697 3084 1428 2787 
Q 1159 2491 1159 1978 
L 1159 0 
L 581 0 
L 581 3500 
L 1159 3500 
L 1159 2956 
Q 1366 3272 1645 3428 
Q 1925 3584 2291 3584 
Q 2894 3584 3203 3211 
Q 3513 2838 3513 2113 
z
" transform="scale(0.015625)"/>
       <path id="DejaVuSans-67" d="M 2906 1791 
Q 2906 2416 2648 2759 
Q 2391 3103 1925 3103 
Q 1463 3103 1205 2759 
Q 947 2416 947 1791 
Q 947 1169 1205 825 
Q 1463 481 1925 481 
Q 2391 481 2648 825 
Q 2906 1169 2906 1791 
z
M 3481 434 
Q 3481 -459 3084 -895 
Q 2688 -1331 1869 -1331 
Q 1566 -1331 1297 -1286 
Q 1028 -1241 775 -1147 
L 775 -588 
Q 1028 -725 1275 -790 
Q 1522 -856 1778 -856 
Q 2344 -856 2625 -561 
Q 2906 -266 2906 331 
L 2906 616 
Q 2728 306 2450 153 
Q 2172 0 1784 0 
Q 1141 0 747 490 
Q 353 981 353 1791 
Q 353 2603 747 3093 
Q 1141 3584 1784 3584 
Q 2172 3584 2450 3431 
Q 2728 3278 2906 2969 
L 2906 3500 
L 3481 3500 
L 3481 434 
z
" transform="scale(0.015625)"/>
       <path id="DejaVuSans-6c" d="M 603 4863 
L 1178 4863 
L 1178 0 
L 603 0 
L 603 4863 
z
" transform="scale(0.015625)"/>
       <path id="DejaVuSans-72" d="M 2631 2963 
Q 2534 3019 2420 3045 
Q 2306 3072 2169 3072 
Q 1681 3072 1420 2755 
Q 1159 2438 1159 1844 
L 1159 0 
L 581 0 
L 581 3500 
L 1159 3500 
L 1159 2956 
Q 1341 3275 1631 3429 
Q 1922 3584 2338 3584 
Q 2397 3584 2469 3576 
Q 2541 3569 2628 3553 
L 2631 2963 
z
" transform="scale(0.015625)"/>
       <path id="DejaVuSans-61" d="M 2194 1759 
Q 1497 1759 1228 1600 
Q 959 1441 959 1056 
Q 959 750 1161 570 
Q 1363 391 1709 391 
Q 2188 391 2477 730 
Q 2766 1069 2766 1631 
L 2766 1759 
L 2194 1759 
z
M 3341 1997 
L 3341 0 
L 2766 0 
L 2766 531 
Q 2569 213 2275 61 
Q 1981 -91 1556 -91 
Q 1019 -91 701 211 
Q 384 513 384 1019 
Q 384 1609 779 1909 
Q 1175 2209 1959 2209 
L 2766 2209 
L 2766 2266 
Q 2766 2663 2505 2880 
Q 2244 3097 1772 3097 
Q 1472 3097 1187 3025 
Q 903 2953 641 2809 
L 641 3341 
Q 956 3463 1253 3523 
Q 1550 3584 1831 3584 
Q 2591 3584 2966 3190 
Q 3341 2797 3341 1997 
z
" transform="scale(0.015625)"/>
       <path id="DejaVuSans-64" d="M 2906 2969 
L 2906 4863 
L 3481 4863 
L 3481 0 
L 2906 0 
L 2906 525 
Q 2725 213 2448 61 
Q 2172 -91 1784 -91 
Q 1150 -91 751 415 
Q 353 922 353 1747 
Q 353 2572 751 3078 
Q 1150 3584 1784 3584 
Q 2172 3584 2448 3432 
Q 2725 3281 2906 2969 
z
M 947 1747 
Q 947 1113 1208 752 
Q 1469 391 1925 391 
Q 2381 391 2643 752 
Q 2906 1113 2906 1747 
Q 2906 2381 2643 2742 
Q 2381 3103 1925 3103 
Q 1469 3103 1208 2742 
Q 947 2381 947 1747 
z
" transform="scale(0.015625)"/>
      </defs>
      <use xlink:href="#DejaVuSans-41"/>
      <use xlink:href="#DejaVuSans-6e" transform="translate(68.408203 0)"/>
      <use xlink:href="#DejaVuSans-67" transform="translate(131.787109 0)"/>
      <use xlink:href="#DejaVuSans-6c" transform="translate(195.263672 0)"/>
      <use xlink:href="#DejaVuSans-65" transform="translate(223.046875 0)"/>
      <use xlink:href="#DejaVuSans-20" transform="translate(284.570312 0)"/>
      <use xlink:href="#DejaVuSans-28" transform="translate(316.357422 0)"/>
      <use xlink:href="#DejaVuSans-72" transform="translate(355.371094 0)"/>
      <use xlink:href="#DejaVuSans-61" transform="translate(396.484375 0)"/>
      <use xlink:href="#DejaVuSans-64" transform="translate(457.763672 0)"/>
      <use xlink:href="#DejaVuSans-29" transform="translate(521.240234 0)"/>
     </g>
    </g>
   </g>
   <g id="line2d_13">
    <path d="M 92.236364 34.13893 
L 92.357172 34.823436 
L 92.598788 40.317512 
L 92.961212 59.16746 
L 93.444444 102.618453 
L 94.048484 156.924986 
L 94.410908 174.979385 
L 94.652524 179.317536 
L 94.773332 179.256173 
L 95.014948 175.195455 
L 95.377372 161.702206 
L 96.343836 119.790156 
L 96.70626 112.97733 
L 96.947876 111.954254 
L 97.068684 112.346093 
L 97.3103 114.557446 
L 97.91434 124.284326 
L 98.397572 131.192519 
L 98.759996 133.870338 
L 99.001612 134.317674 
L 99.12242 134.176191 
L 99.364036 133.297065 
L 99.847268 130.108621 
L 100.572117 125.388858 
L 100.934541 124.162169 
L 101.176157 123.831455 
L 101.417773 123.82181 
L 101.780197 124.230444 
L 102.746661 125.696101 
L 103.109085 125.820181 
L 103.471509 125.645177 
L 104.075549 124.950956 
L 104.921205 124.008954 
L 105.525245 123.654207 
L 106.370901 123.470063 
L 107.458173 123.193818 
L 110.961606 121.920197 
L 115.189886 120.967935 
L 118.814127 120.460716 
L 122.921599 120.133958 
L 127.995536 119.971777 
L 135.123208 119.990541 
L 171.728036 120.390782 
L 174.385813 120.41347 
L 179.822173 120.485757 
L 198.305799 120.532749 
L 213.044377 120.533121 
L 213.165185 120.997671 
L 213.406801 123.468543 
L 214.131649 135.889904 
L 214.614881 141.723168 
L 214.856497 142.85831 
L 214.977305 142.965292 
L 215.098113 142.78825 
L 215.339729 141.69768 
L 215.822961 137.545911 
L 216.668617 129.944178 
L 217.031042 128.177702 
L 217.393466 127.457102 
L 217.635082 127.425909 
L 217.997506 127.767329 
L 218.601546 128.436065 
L 218.843162 128.505319 
L 219.084778 128.404286 
L 219.447202 127.943038 
L 220.051242 126.605748 
L 221.017706 124.406889 
L 221.621746 123.567732 
L 222.346594 123.000534 
L 223.554674 122.123208 
L 226.091643 119.952838 
L 227.903763 119.005172 
L 229.836691 118.180552 
L 231.648811 117.672169 
L 233.823355 117.283596 
L 236.239516 117.093294 
L 239.0181 117.098989 
L 242.64234 117.345778 
L 248.199509 117.982007 
L 260.038694 119.362379 
L 266.924751 119.905633 
L 273.448384 120.209529 
L 280.938481 120.3869 
L 289.032618 120.538386 
L 303.771195 120.567565 
L 333.852391 120.453974 
L 333.973199 119.894342 
L 334.214815 117.295571 
L 335.543703 98.655419 
L 335.785319 98.242663 
L 335.906127 98.463158 
L 336.147743 99.618859 
L 336.630975 103.808789 
L 337.476631 111.267686 
L 337.839055 112.956144 
L 338.201479 113.618648 
L 338.443095 113.626037 
L 338.805519 113.271507 
L 339.409559 112.623512 
L 339.651175 112.568874 
L 339.892791 112.683797 
L 340.255215 113.16044 
L 340.859255 114.501539 
L 341.825719 116.665976 
L 342.42976 117.483042 
L 343.154608 118.037671 
L 344.362688 118.913042 
L 346.778848 120.985611 
L 348.349352 121.81966 
L 350.523896 122.768723 
L 352.336017 123.284471 
L 354.510561 123.679692 
L 356.926721 123.877232 
L 359.705305 123.878659 
L 363.329546 123.63943 
L 368.765906 123.026399 
L 381.088324 121.605058 
L 387.974381 121.074649 
L 394.377205 120.789105 
L 400.296798 120.652344 
L 415.156184 120.432161 
L 440.405058 120.474269 
L 454.660404 120.586675 
L 454.90202 122.363959 
L 455.385252 130.03445 
L 455.989292 139.604448 
L 456.351716 142.41056 
L 456.593332 142.748058 
L 456.834948 142.000056 
L 457.197372 139.372913 
L 458.405452 128.968894 
L 458.767876 127.684613 
L 459.009492 127.368471 
L 459.251109 127.377596 
L 459.613533 127.743771 
L 460.217573 128.382705 
L 460.459189 128.428063 
L 460.700805 128.303459 
L 461.063229 127.813902 
L 461.667269 126.462601 
L 462.633733 124.308654 
L 463.237773 123.50181 
L 463.962621 122.952729 
L 465.170701 122.074174 
L 467.586861 120.005883 
L 469.278174 119.114894 
L 471.33191 118.227107 
L 473.14403 117.713295 
L 475.318574 117.319735 
L 477.734735 117.123671 
L 480.513319 117.123437 
L 484.137559 117.363619 
L 489.694728 117.992147 
L 501.654721 119.375282 
L 508.540778 119.912795 
L 515.064411 120.21108 
L 522.071276 120.37393 
L 531.494301 120.546099 
L 547.199342 120.562997 
L 575.347609 120.507249 
L 575.468417 120.351507 
L 575.710033 118.409638 
L 576.193266 110.610256 
L 576.797306 101.175913 
L 577.15973 98.519546 
L 577.280538 98.250978 
L 577.401346 98.274334 
L 577.642962 99.097754 
L 578.005386 101.800797 
L 579.092658 111.479579 
L 579.455082 113.06647 
L 579.696698 113.550604 
L 579.938314 113.663936 
L 580.17993 113.518753 
L 581.146394 112.573277 
L 581.38801 112.62541 
L 581.750434 113.017818 
L 582.233666 113.996166 
L 583.562554 116.921726 
L 584.166594 117.630873 
L 585.133059 118.290915 
L 586.099523 119.055636 
L 588.153259 120.854573 
L 589.482147 121.598009 
L 591.898307 122.694672 
L 593.589619 123.206384 
L 595.764164 123.634595 
L 598.059516 123.856522 
L 600.8381 123.891762 
L 604.220725 123.700057 
L 609.173853 123.170868 
L 623.550007 121.524862 
L 630.556872 121.015296 
L 636.476464 120.7897 
L 640.100705 120.718058 
L 643.724945 120.600496 
L 651.456658 120.462814 
L 666.195236 120.434509 
L 696.155623 120.493933 
L 696.276431 120.748668 
L 696.518047 122.884988 
L 697.001279 130.82854 
L 697.605319 140.088282 
L 697.967743 142.558694 
L 698.088551 142.7669 
L 698.209359 142.686045 
L 698.450975 141.763747 
L 698.813399 138.970009 
L 699.900671 129.382572 
L 700.263095 127.871601 
L 700.504711 127.43054 
L 700.746327 127.348592 
L 700.987943 127.512746 
L 701.8336 128.404803 
L 702.075216 128.419503 
L 702.316832 128.263636 
L 702.679256 127.734038 
L 703.404104 126.051869 
L 704.24976 124.23538 
L 704.8538 123.460089 
L 705.578648 122.926081 
L 706.66592 122.142716 
L 709.323696 119.907658 
L 711.256625 118.919075 
L 713.068745 118.170794 
L 714.880865 117.676013 
L 717.055409 117.299042 
L 719.47157 117.117708 
L 722.370962 117.134117 
L 725.995202 117.390398 
L 731.793987 118.058106 
L 742.908324 119.344961 
L 749.794381 119.892454 
L 756.438822 120.208429 
L 766.707503 120.45751 
L 778.305072 120.571308 
L 807.540611 120.518271 
L 816.963636 120.507598 
L 816.963636 120.507598 
" clip-path="url(#pe309084960)" style="fill: none; stroke: #1f77b4; stroke-width: 1.5; stroke-linecap: square"/>
   </g>
   <g id="LineCollection_1">
    <path d="M 92.236364 120.500793 
L 816.963636 120.500793 
" clip-path="url(#pe309084960)" style="fill: none; stroke: #ff0000; stroke-width: 1.5"/>
   </g>
   <g id="patch_3">
    <path d="M 56 186.576467 
L 56 26.88 
" style="fill: none; stroke: #000000; stroke-width: 0.8; stroke-linejoin: miter; stroke-linecap: square"/>
   </g>
   <g id="patch_4">
    <path d="M 853.2 186.576467 
L 853.2 26.88 
" style="fill: none; stroke: #000000; stroke-width: 0.8; stroke-linejoin: miter; stroke-linecap: square"/>
   </g>
   <g id="patch_5">
    <path d="M 56 186.576467 
L 853.2 186.576467 
" style="fill: none; stroke: #000000; stroke-width: 0.8; stroke-linejoin: miter; stroke-linecap: square"/>
   </g>
   <g id="patch_6">
    <path d="M 56 26.88 
L 853.2 26.88 
" style="fill: none; stroke: #000000; stroke-width: 0.8; stroke-linejoin: miter; stroke-linecap: square"/>
   </g>
   <g id="text_15">
    <!-- Inverted Pendulum on a Cart : System States -->
    <g transform="translate(319.057188 20.88) scale(0.12 -0.12)">
     <defs>
      <path id="DejaVuSans-49" d="M 628 4666 
L 1259 4666 
L 1259 0 
L 628 0 
L 628 4666 
z
" transform="scale(0.015625)"/>
      <path id="DejaVuSans-76" d="M 191 3500 
L 800 3500 
L 1894 563 
L 2988 3500 
L 3597 3500 
L 2284 0 
L 1503 0 
L 191 3500 
z
" transform="scale(0.015625)"/>
      <path id="DejaVuSans-74" d="M 1172 4494 
L 1172 3500 
L 2356 3500 
L 2356 3053 
L 1172 3053 
L 1172 1153 
Q 1172 725 1289 603 
Q 1406 481 1766 481 
L 2356 481 
L 2356 0 
L 1766 0 
Q 1100 0 847 248 
Q 594 497 594 1153 
L 594 3053 
L 172 3053 
L 172 3500 
L 594 3500 
L 594 4494 
L 1172 4494 
z
" transform="scale(0.015625)"/>
      <path id="DejaVuSans-50" d="M 1259 4147 
L 1259 2394 
L 2053 2394 
Q 2494 2394 2734 2622 
Q 2975 2850 2975 3272 
Q 2975 3691 2734 3919 
Q 2494 4147 2053 4147 
L 1259 4147 
z
M 628 4666 
L 2053 4666 
Q 2838 4666 3239 4311 
Q 3641 3956 3641 3272 
Q 3641 2581 3239 2228 
Q 2838 1875 2053 1875 
L 1259 1875 
L 1259 0 
L 628 0 
L 628 4666 
z
" transform="scale(0.015625)"/>
      <path id="DejaVuSans-75" d="M 544 1381 
L 544 3500 
L 1119 3500 
L 1119 1403 
Q 1119 906 1312 657 
Q 1506 409 1894 409 
Q 2359 409 2629 706 
Q 2900 1003 2900 1516 
L 2900 3500 
L 3475 3500 
L 3475 0 
L 2900 0 
L 2900 538 
Q 2691 219 2414 64 
Q 2138 -91 1772 -91 
Q 1169 -91 856 284 
Q 544 659 544 1381 
z
M 1991 3584 
L 1991 3584 
z
" transform="scale(0.015625)"/>
      <path id="DejaVuSans-6f" d="M 1959 3097 
Q 1497 3097 1228 2736 
Q 959 2375 959 1747 
Q 959 1119 1226 758 
Q 1494 397 1959 397 
Q 2419 397 2687 759 
Q 2956 1122 2956 1747 
Q 2956 2369 2687 2733 
Q 2419 3097 1959 3097 
z
M 1959 3584 
Q 2709 3584 3137 3096 
Q 3566 2609 3566 1747 
Q 3566 888 3137 398 
Q 2709 -91 1959 -91 
Q 1206 -91 779 398 
Q 353 888 353 1747 
Q 353 2609 779 3096 
Q 1206 3584 1959 3584 
z
" transform="scale(0.015625)"/>
      <path id="DejaVuSans-43" d="M 4122 4306 
L 4122 3641 
Q 3803 3938 3442 4084 
Q 3081 4231 2675 4231 
Q 1875 4231 1450 3742 
Q 1025 3253 1025 2328 
Q 1025 1406 1450 917 
Q 1875 428 2675 428 
Q 3081 428 3442 575 
Q 3803 722 4122 1019 
L 4122 359 
Q 3791 134 3420 21 
Q 3050 -91 2638 -91 
Q 1578 -91 968 557 
Q 359 1206 359 2328 
Q 359 3453 968 4101 
Q 1578 4750 2638 4750 
Q 3056 4750 3426 4639 
Q 3797 4528 4122 4306 
z
" transform="scale(0.015625)"/>
      <path id="DejaVuSans-3a" d="M 750 794 
L 1409 794 
L 1409 0 
L 750 0 
L 750 794 
z
M 750 3309 
L 1409 3309 
L 1409 2516 
L 750 2516 
L 750 3309 
z
" transform="scale(0.015625)"/>
      <path id="DejaVuSans-53" d="M 3425 4513 
L 3425 3897 
Q 3066 4069 2747 4153 
Q 2428 4238 2131 4238 
Q 1616 4238 1336 4038 
Q 1056 3838 1056 3469 
Q 1056 3159 1242 3001 
Q 1428 2844 1947 2747 
L 2328 2669 
Q 3034 2534 3370 2195 
Q 3706 1856 3706 1288 
Q 3706 609 3251 259 
Q 2797 -91 1919 -91 
Q 1588 -91 1214 -16 
Q 841 59 441 206 
L 441 856 
Q 825 641 1194 531 
Q 1563 422 1919 422 
Q 2459 422 2753 634 
Q 3047 847 3047 1241 
Q 3047 1584 2836 1778 
Q 2625 1972 2144 2069 
L 1759 2144 
Q 1053 2284 737 2584 
Q 422 2884 422 3419 
Q 422 4038 858 4394 
Q 1294 4750 2059 4750 
Q 2388 4750 2728 4690 
Q 3069 4631 3425 4513 
z
" transform="scale(0.015625)"/>
      <path id="DejaVuSans-79" d="M 2059 -325 
Q 1816 -950 1584 -1140 
Q 1353 -1331 966 -1331 
L 506 -1331 
L 506 -850 
L 844 -850 
Q 1081 -850 1212 -737 
Q 1344 -625 1503 -206 
L 1606 56 
L 191 3500 
L 800 3500 
L 1894 763 
L 2988 3500 
L 3597 3500 
L 2059 -325 
z
" transform="scale(0.015625)"/>
     </defs>
     <use xlink:href="#DejaVuSans-49"/>
     <use xlink:href="#DejaVuSans-6e" transform="translate(29.492188 0)"/>
     <use xlink:href="#DejaVuSans-76" transform="translate(92.871094 0)"/>
     <use xlink:href="#DejaVuSans-65" transform="translate(152.050781 0)"/>
     <use xlink:href="#DejaVuSans-72" transform="translate(213.574219 0)"/>
     <use xlink:href="#DejaVuSans-74" transform="translate(254.6875 0)"/>
     <use xlink:href="#DejaVuSans-65" transform="translate(293.896484 0)"/>
     <use xlink:href="#DejaVuSans-64" transform="translate(355.419922 0)"/>
     <use xlink:href="#DejaVuSans-20" transform="translate(418.896484 0)"/>
     <use xlink:href="#DejaVuSans-50" transform="translate(450.683594 0)"/>
     <use xlink:href="#DejaVuSans-65" transform="translate(507.361328 0)"/>
     <use xlink:href="#DejaVuSans-6e" transform="translate(568.884766 0)"/>
     <use xlink:href="#DejaVuSans-64" transform="translate(632.263672 0)"/>
     <use xlink:href="#DejaVuSans-75" transform="translate(695.740234 0)"/>
     <use xlink:href="#DejaVuSans-6c" transform="translate(759.119141 0)"/>
     <use xlink:href="#DejaVuSans-75" transform="translate(786.902344 0)"/>
     <use xlink:href="#DejaVuSans-6d" transform="translate(850.28125 0)"/>
     <use xlink:href="#DejaVuSans-20" transform="translate(947.693359 0)"/>
     <use xlink:href="#DejaVuSans-6f" transform="translate(979.480469 0)"/>
     <use xlink:href="#DejaVuSans-6e" transform="translate(1040.662109 0)"/>
     <use xlink:href="#DejaVuSans-20" transform="translate(1104.041016 0)"/>
     <use xlink:href="#DejaVuSans-61" transform="translate(1135.828125 0)"/>
     <use xlink:href="#DejaVuSans-20" transform="translate(1197.107422 0)"/>
     <use xlink:href="#DejaVuSans-43" transform="translate(1228.894531 0)"/>
     <use xlink:href="#DejaVuSans-61" transform="translate(1298.71875 0)"/>
     <use xlink:href="#DejaVuSans-72" transform="translate(1359.998047 0)"/>
     <use xlink:href="#DejaVuSans-74" transform="translate(1401.111328 0)"/>
     <use xlink:href="#DejaVuSans-20" transform="translate(1440.320312 0)"/>
     <use xlink:href="#DejaVuSans-3a" transform="translate(1472.107422 0)"/>
     <use xlink:href="#DejaVuSans-20" transform="translate(1505.798828 0)"/>
     <use xlink:href="#DejaVuSans-53" transform="translate(1537.585938 0)"/>
     <use xlink:href="#DejaVuSans-79" transform="translate(1601.0625 0)"/>
     <use xlink:href="#DejaVuSans-73" transform="translate(1660.242188 0)"/>
     <use xlink:href="#DejaVuSans-74" transform="translate(1712.341797 0)"/>
     <use xlink:href="#DejaVuSans-65" transform="translate(1751.550781 0)"/>
     <use xlink:href="#DejaVuSans-6d" transform="translate(1813.074219 0)"/>
     <use xlink:href="#DejaVuSans-20" transform="translate(1910.486328 0)"/>
     <use xlink:href="#DejaVuSans-53" transform="translate(1942.273438 0)"/>
     <use xlink:href="#DejaVuSans-74" transform="translate(2005.75 0)"/>
     <use xlink:href="#DejaVuSans-61" transform="translate(2044.958984 0)"/>
     <use xlink:href="#DejaVuSans-74" transform="translate(2106.238281 0)"/>
     <use xlink:href="#DejaVuSans-65" transform="translate(2145.447266 0)"/>
     <use xlink:href="#DejaVuSans-73" transform="translate(2206.970703 0)"/>
    </g>
   </g>
   <g id="legend_1">
    <g id="patch_7">
     <path d="M 679.209375 64.314375 
L 846.2 64.314375 
Q 848.2 64.314375 848.2 62.314375 
L 848.2 33.88 
Q 848.2 31.88 846.2 31.88 
L 679.209375 31.88 
Q 677.209375 31.88 677.209375 33.88 
L 677.209375 62.314375 
Q 677.209375 64.314375 679.209375 64.314375 
z
" style="fill: #ffffff; opacity: 0.8; stroke: #cccccc; stroke-linejoin: miter"/>
    </g>
    <g id="line2d_14">
     <path d="M 681.209375 40.056562 
L 691.209375 40.056562 
L 701.209375 40.056562 
" style="fill: none; stroke: #1f77b4; stroke-width: 1.5; stroke-linecap: square"/>
    </g>
    <g id="text_16">
     <!-- Inverted Pendulum angle θ -->
     <g transform="translate(709.209375 43.556562) scale(0.1 -0.1)">
      <defs>
       <path id="DejaVuSans-3b8" d="M 2953 2219 
L 963 2219 
Q 1009 1284 1225 888 
Q 1494 400 1959 400 
Q 2428 400 2688 891 
Q 2916 1322 2953 2219 
z
M 2944 2750 
Q 2856 3638 2688 3950 
Q 2419 4444 1959 4444 
Q 1481 4444 1228 3956 
Q 1028 3563 969 2750 
L 2944 2750 
z
M 1959 4913 
Q 2709 4913 3138 4250 
Q 3566 3591 3566 2422 
Q 3566 1256 3138 594 
Q 2709 -72 1959 -72 
Q 1206 -72 781 594 
Q 353 1256 353 2422 
Q 353 3591 781 4250 
Q 1206 4913 1959 4913 
z
" transform="scale(0.015625)"/>
      </defs>
      <use xlink:href="#DejaVuSans-49"/>
      <use xlink:href="#DejaVuSans-6e" transform="translate(29.492188 0)"/>
      <use xlink:href="#DejaVuSans-76" transform="translate(92.871094 0)"/>
      <use xlink:href="#DejaVuSans-65" transform="translate(152.050781 0)"/>
      <use xlink:href="#DejaVuSans-72" transform="translate(213.574219 0)"/>
      <use xlink:href="#DejaVuSans-74" transform="translate(254.6875 0)"/>
      <use xlink:href="#DejaVuSans-65" transform="translate(293.896484 0)"/>
      <use xlink:href="#DejaVuSans-64" transform="translate(355.419922 0)"/>
      <use xlink:href="#DejaVuSans-20" transform="translate(418.896484 0)"/>
      <use xlink:href="#DejaVuSans-50" transform="translate(450.683594 0)"/>
      <use xlink:href="#DejaVuSans-65" transform="translate(507.361328 0)"/>
      <use xlink:href="#DejaVuSans-6e" transform="translate(568.884766 0)"/>
      <use xlink:href="#DejaVuSans-64" transform="translate(632.263672 0)"/>
      <use xlink:href="#DejaVuSans-75" transform="translate(695.740234 0)"/>
      <use xlink:href="#DejaVuSans-6c" transform="translate(759.119141 0)"/>
      <use xlink:href="#DejaVuSans-75" transform="translate(786.902344 0)"/>
      <use xlink:href="#DejaVuSans-6d" transform="translate(850.28125 0)"/>
      <use xlink:href="#DejaVuSans-20" transform="translate(947.693359 0)"/>
      <use xlink:href="#DejaVuSans-61" transform="translate(979.480469 0)"/>
      <use xlink:href="#DejaVuSans-6e" transform="translate(1040.759766 0)"/>
      <use xlink:href="#DejaVuSans-67" transform="translate(1104.138672 0)"/>
      <use xlink:href="#DejaVuSans-6c" transform="translate(1167.615234 0)"/>
      <use xlink:href="#DejaVuSans-65" transform="translate(1195.398438 0)"/>
      <use xlink:href="#DejaVuSans-20" transform="translate(1256.921875 0)"/>
      <use xlink:href="#DejaVuSans-3b8" transform="translate(1288.708984 0)"/>
     </g>
    </g>
    <g id="line2d_15">
     <path d="M 681.209375 54.734688 
L 701.209375 54.734688 
" style="fill: none; stroke: #ff0000; stroke-width: 1.5"/>
    </g>
    <g id="text_17">
     <!-- Target angle -->
     <g transform="translate(709.209375 58.234688) scale(0.1 -0.1)">
      <use xlink:href="#DejaVuSans-54"/>
      <use xlink:href="#DejaVuSans-61" transform="translate(44.583984 0)"/>
      <use xlink:href="#DejaVuSans-72" transform="translate(105.863281 0)"/>
      <use xlink:href="#DejaVuSans-67" transform="translate(145.226562 0)"/>
      <use xlink:href="#DejaVuSans-65" transform="translate(208.703125 0)"/>
      <use xlink:href="#DejaVuSans-74" transform="translate(270.226562 0)"/>
      <use xlink:href="#DejaVuSans-20" transform="translate(309.435547 0)"/>
      <use xlink:href="#DejaVuSans-61" transform="translate(341.222656 0)"/>
      <use xlink:href="#DejaVuSans-6e" transform="translate(402.501953 0)"/>
      <use xlink:href="#DejaVuSans-67" transform="translate(465.880859 0)"/>
      <use xlink:href="#DejaVuSans-6c" transform="translate(529.357422 0)"/>
      <use xlink:href="#DejaVuSans-65" transform="translate(557.140625 0)"/>
     </g>
    </g>
   </g>
  </g>
  <g id="axes_2">
   <g id="patch_8">
    <path d="M 56 390.04 
L 853.2 390.04 
L 853.2 230.343533 
L 56 230.343533 
z
" style="fill: #ffffff"/>
   </g>
   <g id="matplotlib.axis_3">
    <g id="xtick_8">
     <g id="line2d_16">
      <g>
       <use xlink:href="#mfe07a73e47" x="92.236364" y="390.04" style="stroke: #000000; stroke-width: 0.8"/>
      </g>
     </g>
     <g id="text_18">
      <!-- 0 -->
      <g transform="translate(89.055114 404.638438) scale(0.1 -0.1)">
       <use xlink:href="#DejaVuSans-30"/>
      </g>
     </g>
    </g>
    <g id="xtick_9">
     <g id="line2d_17">
      <g>
       <use xlink:href="#mfe07a73e47" x="213.024242" y="390.04" style="stroke: #000000; stroke-width: 0.8"/>
      </g>
     </g>
     <g id="text_19">
      <!-- 10 -->
      <g transform="translate(206.661742 404.638438) scale(0.1 -0.1)">
       <use xlink:href="#DejaVuSans-31"/>
       <use xlink:href="#DejaVuSans-30" transform="translate(63.623047 0)"/>
      </g>
     </g>
    </g>
    <g id="xtick_10">
     <g id="line2d_18">
      <g>
       <use xlink:href="#mfe07a73e47" x="333.812121" y="390.04" style="stroke: #000000; stroke-width: 0.8"/>
      </g>
     </g>
     <g id="text_20">
      <!-- 20 -->
      <g transform="translate(327.449621 404.638438) scale(0.1 -0.1)">
       <use xlink:href="#DejaVuSans-32"/>
       <use xlink:href="#DejaVuSans-30" transform="translate(63.623047 0)"/>
      </g>
     </g>
    </g>
    <g id="xtick_11">
     <g id="line2d_19">
      <g>
       <use xlink:href="#mfe07a73e47" x="454.6" y="390.04" style="stroke: #000000; stroke-width: 0.8"/>
      </g>
     </g>
     <g id="text_21">
      <!-- 30 -->
      <g transform="translate(448.2375 404.638438) scale(0.1 -0.1)">
       <use xlink:href="#DejaVuSans-33"/>
       <use xlink:href="#DejaVuSans-30" transform="translate(63.623047 0)"/>
      </g>
     </g>
    </g>
    <g id="xtick_12">
     <g id="line2d_20">
      <g>
       <use xlink:href="#mfe07a73e47" x="575.387879" y="390.04" style="stroke: #000000; stroke-width: 0.8"/>
      </g>
     </g>
     <g id="text_22">
      <!-- 40 -->
      <g transform="translate(569.025379 404.638438) scale(0.1 -0.1)">
       <use xlink:href="#DejaVuSans-34"/>
       <use xlink:href="#DejaVuSans-30" transform="translate(63.623047 0)"/>
      </g>
     </g>
    </g>
    <g id="xtick_13">
     <g id="line2d_21">
      <g>
       <use xlink:href="#mfe07a73e47" x="696.175758" y="390.04" style="stroke: #000000; stroke-width: 0.8"/>
      </g>
     </g>
     <g id="text_23">
      <!-- 50 -->
      <g transform="translate(689.813258 404.638438) scale(0.1 -0.1)">
       <use xlink:href="#DejaVuSans-35"/>
       <use xlink:href="#DejaVuSans-30" transform="translate(63.623047 0)"/>
      </g>
     </g>
    </g>
    <g id="xtick_14">
     <g id="line2d_22">
      <g>
       <use xlink:href="#mfe07a73e47" x="816.963636" y="390.04" style="stroke: #000000; stroke-width: 0.8"/>
      </g>
     </g>
     <g id="text_24">
      <!-- 60 -->
      <g transform="translate(810.601136 404.638438) scale(0.1 -0.1)">
       <use xlink:href="#DejaVuSans-36"/>
       <use xlink:href="#DejaVuSans-30" transform="translate(63.623047 0)"/>
      </g>
     </g>
    </g>
    <g id="text_25">
     <!-- Time (s) -->
     <g transform="translate(434.271094 418.316563) scale(0.1 -0.1)">
      <use xlink:href="#DejaVuSans-54"/>
      <use xlink:href="#DejaVuSans-69" transform="translate(57.958984 0)"/>
      <use xlink:href="#DejaVuSans-6d" transform="translate(85.742188 0)"/>
      <use xlink:href="#DejaVuSans-65" transform="translate(183.154297 0)"/>
      <use xlink:href="#DejaVuSans-20" transform="translate(244.677734 0)"/>
      <use xlink:href="#DejaVuSans-28" transform="translate(276.464844 0)"/>
      <use xlink:href="#DejaVuSans-73" transform="translate(315.478516 0)"/>
      <use xlink:href="#DejaVuSans-29" transform="translate(367.578125 0)"/>
     </g>
    </g>
   </g>
   <g id="matplotlib.axis_4">
    <g id="ytick_6">
     <g id="line2d_23">
      <g>
       <use xlink:href="#m02ea372339" x="56" y="364.182877" style="stroke: #000000; stroke-width: 0.8"/>
      </g>
     </g>
     <g id="text_26">
      <!-- −6 -->
      <g transform="translate(34.257812 367.982096) scale(0.1 -0.1)">
       <use xlink:href="#DejaVuSans-2212"/>
       <use xlink:href="#DejaVuSans-36" transform="translate(83.789062 0)"/>
      </g>
     </g>
    </g>
    <g id="ytick_7">
     <g id="line2d_24">
      <g>
       <use xlink:href="#m02ea372339" x="56" y="337.869792" style="stroke: #000000; stroke-width: 0.8"/>
      </g>
     </g>
     <g id="text_27">
      <!-- −4 -->
      <g transform="translate(34.257812 341.66901) scale(0.1 -0.1)">
       <use xlink:href="#DejaVuSans-2212"/>
       <use xlink:href="#DejaVuSans-34" transform="translate(83.789062 0)"/>
      </g>
     </g>
    </g>
    <g id="ytick_8">
     <g id="line2d_25">
      <g>
       <use xlink:href="#m02ea372339" x="56" y="311.556706" style="stroke: #000000; stroke-width: 0.8"/>
      </g>
     </g>
     <g id="text_28">
      <!-- −2 -->
      <g transform="translate(34.257812 315.355924) scale(0.1 -0.1)">
       <use xlink:href="#DejaVuSans-2212"/>
       <use xlink:href="#DejaVuSans-32" transform="translate(83.789062 0)"/>
      </g>
     </g>
    </g>
    <g id="ytick_9">
     <g id="line2d_26">
      <g>
       <use xlink:href="#m02ea372339" x="56" y="285.24362" style="stroke: #000000; stroke-width: 0.8"/>
      </g>
     </g>
     <g id="text_29">
      <!-- 0 -->
      <g transform="translate(42.6375 289.042838) scale(0.1 -0.1)">
       <use xlink:href="#DejaVuSans-30"/>
      </g>
     </g>
    </g>
    <g id="ytick_10">
     <g id="line2d_27">
      <g>
       <use xlink:href="#m02ea372339" x="56" y="258.930534" style="stroke: #000000; stroke-width: 0.8"/>
      </g>
     </g>
     <g id="text_30">
      <!-- 2 -->
      <g transform="translate(42.6375 262.729752) scale(0.1 -0.1)">
       <use xlink:href="#DejaVuSans-32"/>
      </g>
     </g>
    </g>
    <g id="ytick_11">
     <g id="line2d_28">
      <g>
       <use xlink:href="#m02ea372339" x="56" y="232.617448" style="stroke: #000000; stroke-width: 0.8"/>
      </g>
     </g>
     <g id="text_31">
      <!-- 4 -->
      <g transform="translate(42.6375 236.416666) scale(0.1 -0.1)">
       <use xlink:href="#DejaVuSans-34"/>
      </g>
     </g>
    </g>
    <g id="text_32">
     <!-- Angular velocity (rad/s) -->
     <g transform="translate(28.178125 368.837079) rotate(-90) scale(0.1 -0.1)">
      <defs>
       <path id="DejaVuSans-63" d="M 3122 3366 
L 3122 2828 
Q 2878 2963 2633 3030 
Q 2388 3097 2138 3097 
Q 1578 3097 1268 2742 
Q 959 2388 959 1747 
Q 959 1106 1268 751 
Q 1578 397 2138 397 
Q 2388 397 2633 464 
Q 2878 531 3122 666 
L 3122 134 
Q 2881 22 2623 -34 
Q 2366 -91 2075 -91 
Q 1284 -91 818 406 
Q 353 903 353 1747 
Q 353 2603 823 3093 
Q 1294 3584 2113 3584 
Q 2378 3584 2631 3529 
Q 2884 3475 3122 3366 
z
" transform="scale(0.015625)"/>
       <path id="DejaVuSans-2f" d="M 1625 4666 
L 2156 4666 
L 531 -594 
L 0 -594 
L 1625 4666 
z
" transform="scale(0.015625)"/>
      </defs>
      <use xlink:href="#DejaVuSans-41"/>
      <use xlink:href="#DejaVuSans-6e" transform="translate(68.408203 0)"/>
      <use xlink:href="#DejaVuSans-67" transform="translate(131.787109 0)"/>
      <use xlink:href="#DejaVuSans-75" transform="translate(195.263672 0)"/>
      <use xlink:href="#DejaVuSans-6c" transform="translate(258.642578 0)"/>
      <use xlink:href="#DejaVuSans-61" transform="translate(286.425781 0)"/>
      <use xlink:href="#DejaVuSans-72" transform="translate(347.705078 0)"/>
      <use xlink:href="#DejaVuSans-20" transform="translate(388.818359 0)"/>
      <use xlink:href="#DejaVuSans-76" transform="translate(420.605469 0)"/>
      <use xlink:href="#DejaVuSans-65" transform="translate(479.785156 0)"/>
      <use xlink:href="#DejaVuSans-6c" transform="translate(541.308594 0)"/>
      <use xlink:href="#DejaVuSans-6f" transform="translate(569.091797 0)"/>
      <use xlink:href="#DejaVuSans-63" transform="translate(630.273438 0)"/>
      <use xlink:href="#DejaVuSans-69" transform="translate(685.253906 0)"/>
      <use xlink:href="#DejaVuSans-74" transform="translate(713.037109 0)"/>
      <use xlink:href="#DejaVuSans-79" transform="translate(752.246094 0)"/>
      <use xlink:href="#DejaVuSans-20" transform="translate(811.425781 0)"/>
      <use xlink:href="#DejaVuSans-28" transform="translate(843.212891 0)"/>
      <use xlink:href="#DejaVuSans-72" transform="translate(882.226562 0)"/>
      <use xlink:href="#DejaVuSans-61" transform="translate(923.339844 0)"/>
      <use xlink:href="#DejaVuSans-64" transform="translate(984.619141 0)"/>
      <use xlink:href="#DejaVuSans-2f" transform="translate(1048.095703 0)"/>
      <use xlink:href="#DejaVuSans-73" transform="translate(1081.787109 0)"/>
      <use xlink:href="#DejaVuSans-29" transform="translate(1133.886719 0)"/>
     </g>
    </g>
   </g>
   <g id="line2d_29">
    <path d="M 92.236364 285.24362 
L 93.323636 380.318677 
L 93.444444 382.78107 
L 93.565252 381.729597 
L 93.806868 370.609045 
L 94.2901 327.2511 
L 95.014948 259.779078 
L 95.377372 241.398905 
L 95.618988 237.602464 
L 95.739796 238.169717 
L 95.981412 243.455871 
L 96.464644 264.196234 
L 97.189492 294.186652 
L 97.551916 300.956646 
L 97.793532 301.964171 
L 97.91434 301.544888 
L 98.155956 299.243015 
L 98.639188 291.28699 
L 99.243228 281.69352 
L 99.605652 278.707031 
L 99.847268 278.051359 
L 99.968076 278.086144 
L 100.209693 278.749156 
L 100.572117 280.762135 
L 101.417773 285.74667 
L 101.780197 286.768874 
L 102.021813 286.980769 
L 102.263429 286.866634 
L 102.625853 286.265664 
L 103.592317 284.260724 
L 103.954741 284.021371 
L 104.317165 284.053763 
L 104.921205 284.447452 
L 105.766861 284.999542 
L 106.370901 285.094494 
L 107.216557 284.930723 
L 108.183021 284.789868 
L 109.391102 284.904761 
L 110.961606 285.003209 
L 115.431502 285.082737 
L 134.639976 285.255874 
L 170.640764 285.223404 
L 184.412878 285.248052 
L 212.923569 285.242545 
L 213.044377 286.492361 
L 213.406801 298.381721 
L 213.648417 302.153948 
L 213.769225 302.83367 
L 213.890033 302.783457 
L 214.131649 300.827299 
L 214.494073 294.737995 
L 215.339729 279.188476 
L 215.702153 276.017329 
L 215.943769 275.442886 
L 216.064577 275.572251 
L 216.306193 276.517694 
L 216.789426 280.050025 
L 217.514274 285.14086 
L 217.876698 286.311757 
L 218.118314 286.508927 
L 218.35993 286.313338 
L 218.722354 285.523545 
L 219.688818 283.145126 
L 220.051242 282.829932 
L 220.292858 282.838225 
L 220.655282 283.099821 
L 222.104978 284.569019 
L 222.58821 284.633247 
L 223.433866 284.417014 
L 224.279522 284.294839 
L 225.125178 284.435 
L 226.695683 284.733659 
L 234.548203 285.151275 
L 241.917492 285.325749 
L 253.63587 285.360176 
L 319.959469 285.241598 
L 333.731583 285.243647 
L 333.852391 283.130267 
L 334.214815 271.76228 
L 334.456431 268.297506 
L 334.577239 267.750588 
L 334.698047 267.915523 
L 334.939663 270.040547 
L 335.422895 278.685531 
L 336.147743 291.497753 
L 336.510167 294.483655 
L 336.751783 294.954845 
L 336.872591 294.783841 
L 337.114207 293.778766 
L 337.597439 290.223858 
L 338.201479 285.858659 
L 338.563903 284.399469 
L 338.805519 284.019609 
L 339.047135 284.062988 
L 339.288751 284.436447 
L 339.892791 286.041837 
L 340.496831 287.352616 
L 340.859255 287.641827 
L 341.221679 287.556689 
L 341.704911 287.067454 
L 342.550568 286.112535 
L 343.0338 285.86945 
L 343.517032 285.868169 
L 345.329152 286.163222 
L 346.778848 285.839779 
L 347.986928 285.725431 
L 351.127936 285.534547 
L 355.960257 285.312255 
L 364.054394 285.147671 
L 377.464083 285.13821 
L 425.545673 285.245853 
L 454.539596 285.24335 
L 454.781212 292.463039 
L 455.143636 301.078714 
L 455.385252 302.752421 
L 455.50606 302.50377 
L 455.747676 300.245794 
L 456.230908 291.477463 
L 456.955756 278.817403 
L 457.31818 275.939841 
L 457.559796 275.53529 
L 457.680604 275.73556 
L 457.92222 276.78658 
L 458.52626 281.35731 
L 459.130301 285.300265 
L 459.492725 286.358764 
L 459.734341 286.49313 
L 459.975957 286.251127 
L 460.338381 285.428483 
L 461.184037 283.297412 
L 461.546461 282.887765 
L 461.788077 282.838202 
L 462.150501 283.035411 
L 462.875349 283.894913 
L 463.479389 284.46997 
L 463.962621 284.63953 
L 464.566661 284.558966 
L 465.774741 284.302007 
L 466.620397 284.420749 
L 468.31171 284.740737 
L 477.372311 285.195097 
L 486.070488 285.349061 
L 500.809065 285.338091 
L 550.461159 285.240985 
L 575.347609 285.243333 
L 575.95165 269.155238 
L 576.193266 267.729501 
L 576.314074 268.084717 
L 576.55569 270.51 
L 577.038922 279.413786 
L 577.642962 290.370522 
L 578.005386 294.028005 
L 578.247002 294.926251 
L 578.36781 294.942459 
L 578.609426 294.238256 
L 578.97185 291.903089 
L 579.938314 285.103183 
L 580.300738 284.098837 
L 580.542354 283.998259 
L 580.78397 284.266043 
L 581.267202 285.448914 
L 581.99205 287.222256 
L 582.354474 287.610083 
L 582.59609 287.646931 
L 582.958514 287.4353 
L 583.80417 286.427594 
L 584.40821 285.940287 
L 584.891443 285.844292 
L 585.616291 286.006564 
L 586.582755 286.185127 
L 587.428411 286.06165 
L 589.119723 285.74507 
L 598.905172 285.270135 
L 607.603349 285.133002 
L 622.100311 285.150969 
L 666.436852 285.245692 
L 696.155623 285.243537 
L 696.638855 299.874959 
L 696.880471 302.550502 
L 697.001279 302.740378 
L 697.122087 302.257851 
L 697.363703 299.633237 
L 697.846935 290.578358 
L 698.450975 279.780553 
L 698.813399 276.315119 
L 699.055015 275.54184 
L 699.175823 275.580566 
L 699.417439 276.373844 
L 699.779863 278.783237 
L 700.625519 284.937771 
L 700.987943 286.223632 
L 701.229559 286.495177 
L 701.471175 286.361544 
L 701.8336 285.631262 
L 702.800064 283.225489 
L 703.162488 282.865959 
L 703.404104 282.846486 
L 703.766528 283.076526 
L 705.337032 284.60179 
L 705.820264 284.629258 
L 707.874 284.351832 
L 710.531777 284.766395 
L 713.189553 284.929918 
L 717.176217 285.130759 
L 724.062274 285.311346 
L 735.055803 285.36324 
L 758.009326 285.217343 
L 759.338214 285.277257 
L 761.029526 285.300646 
L 764.895383 285.273004 
L 789.177793 285.241234 
L 816.963636 285.24373 
L 816.963636 285.24373 
" clip-path="url(#pef343287f2)" style="fill: none; stroke: #1f77b4; stroke-width: 1.5; stroke-linecap: square"/>
   </g>
   <g id="LineCollection_2">
    <path d="M 92.236364 285.24362 
L 816.963636 285.24362 
" clip-path="url(#pef343287f2)" style="fill: none; stroke: #ff0000; stroke-width: 1.5"/>
   </g>
   <g id="patch_9">
    <path d="M 56 390.04 
L 56 230.343533 
" style="fill: none; stroke: #000000; stroke-width: 0.8; stroke-linejoin: miter; stroke-linecap: square"/>
   </g>
   <g id="patch_10">
    <path d="M 853.2 390.04 
L 853.2 230.343533 
" style="fill: none; stroke: #000000; stroke-width: 0.8; stroke-linejoin: miter; stroke-linecap: square"/>
   </g>
   <g id="patch_11">
    <path d="M 56 390.04 
L 853.2 390.04 
" style="fill: none; stroke: #000000; stroke-width: 0.8; stroke-linejoin: miter; stroke-linecap: square"/>
   </g>
   <g id="patch_12">
    <path d="M 56 230.343533 
L 853.2 230.343533 
" style="fill: none; stroke: #000000; stroke-width: 0.8; stroke-linejoin: miter; stroke-linecap: square"/>
   </g>
   <g id="legend_2">
    <g id="patch_13">
     <path d="M 605.135938 268.056033 
L 846.2 268.056033 
Q 848.2 268.056033 848.2 266.056033 
L 848.2 237.343533 
Q 848.2 235.343533 846.2 235.343533 
L 605.135938 235.343533 
Q 603.135938 235.343533 603.135938 237.343533 
L 603.135938 266.056033 
Q 603.135938 268.056033 605.135938 268.056033 
z
" style="fill: #ffffff; opacity: 0.8; stroke: #cccccc; stroke-linejoin: miter"/>
    </g>
    <g id="line2d_30">
     <path d="M 607.135938 243.520096 
L 617.135938 243.520096 
L 627.135938 243.520096 
" style="fill: none; stroke: #1f77b4; stroke-width: 1.5; stroke-linecap: square"/>
    </g>
    <g id="text_33">
     <!-- Inverted Pendulum angular velocity θ_dot -->
     <g transform="translate(635.135938 247.020096) scale(0.1 -0.1)">
      <defs>
       <path id="DejaVuSans-5f" d="M 3263 -1063 
L 3263 -1509 
L -63 -1509 
L -63 -1063 
L 3263 -1063 
z
" transform="scale(0.015625)"/>
      </defs>
      <use xlink:href="#DejaVuSans-49"/>
      <use xlink:href="#DejaVuSans-6e" transform="translate(29.492188 0)"/>
      <use xlink:href="#DejaVuSans-76" transform="translate(92.871094 0)"/>
      <use xlink:href="#DejaVuSans-65" transform="translate(152.050781 0)"/>
      <use xlink:href="#DejaVuSans-72" transform="translate(213.574219 0)"/>
      <use xlink:href="#DejaVuSans-74" transform="translate(254.6875 0)"/>
      <use xlink:href="#DejaVuSans-65" transform="translate(293.896484 0)"/>
      <use xlink:href="#DejaVuSans-64" transform="translate(355.419922 0)"/>
      <use xlink:href="#DejaVuSans-20" transform="translate(418.896484 0)"/>
      <use xlink:href="#DejaVuSans-50" transform="translate(450.683594 0)"/>
      <use xlink:href="#DejaVuSans-65" transform="translate(507.361328 0)"/>
      <use xlink:href="#DejaVuSans-6e" transform="translate(568.884766 0)"/>
      <use xlink:href="#DejaVuSans-64" transform="translate(632.263672 0)"/>
      <use xlink:href="#DejaVuSans-75" transform="translate(695.740234 0)"/>
      <use xlink:href="#DejaVuSans-6c" transform="translate(759.119141 0)"/>
      <use xlink:href="#DejaVuSans-75" transform="translate(786.902344 0)"/>
      <use xlink:href="#DejaVuSans-6d" transform="translate(850.28125 0)"/>
      <use xlink:href="#DejaVuSans-20" transform="translate(947.693359 0)"/>
      <use xlink:href="#DejaVuSans-61" transform="translate(979.480469 0)"/>
      <use xlink:href="#DejaVuSans-6e" transform="translate(1040.759766 0)"/>
      <use xlink:href="#DejaVuSans-67" transform="translate(1104.138672 0)"/>
      <use xlink:href="#DejaVuSans-75" transform="translate(1167.615234 0)"/>
      <use xlink:href="#DejaVuSans-6c" transform="translate(1230.994141 0)"/>
      <use xlink:href="#DejaVuSans-61" transform="translate(1258.777344 0)"/>
      <use xlink:href="#DejaVuSans-72" transform="translate(1320.056641 0)"/>
      <use xlink:href="#DejaVuSans-20" transform="translate(1361.169922 0)"/>
      <use xlink:href="#DejaVuSans-76" transform="translate(1392.957031 0)"/>
      <use xlink:href="#DejaVuSans-65" transform="translate(1452.136719 0)"/>
      <use xlink:href="#DejaVuSans-6c" transform="translate(1513.660156 0)"/>
      <use xlink:href="#DejaVuSans-6f" transform="translate(1541.443359 0)"/>
      <use xlink:href="#DejaVuSans-63" transform="translate(1602.625 0)"/>
      <use xlink:href="#DejaVuSans-69" transform="translate(1657.605469 0)"/>
      <use xlink:href="#DejaVuSans-74" transform="translate(1685.388672 0)"/>
      <use xlink:href="#DejaVuSans-79" transform="translate(1724.597656 0)"/>
      <use xlink:href="#DejaVuSans-20" transform="translate(1783.777344 0)"/>
      <use xlink:href="#DejaVuSans-3b8" transform="translate(1815.564453 0)"/>
      <use xlink:href="#DejaVuSans-5f" transform="translate(1876.746094 0)"/>
      <use xlink:href="#DejaVuSans-64" transform="translate(1926.746094 0)"/>
      <use xlink:href="#DejaVuSans-6f" transform="translate(1990.222656 0)"/>
      <use xlink:href="#DejaVuSans-74" transform="translate(2051.404297 0)"/>
     </g>
    </g>
    <g id="line2d_31">
     <path d="M 607.135938 258.476346 
L 627.135938 258.476346 
" style="fill: none; stroke: #ff0000; stroke-width: 1.5"/>
    </g>
    <g id="text_34">
     <!-- target angular velocity -->
     <g transform="translate(635.135938 261.976346) scale(0.1 -0.1)">
      <use xlink:href="#DejaVuSans-74"/>
      <use xlink:href="#DejaVuSans-61" transform="translate(39.208984 0)"/>
      <use xlink:href="#DejaVuSans-72" transform="translate(100.488281 0)"/>
      <use xlink:href="#DejaVuSans-67" transform="translate(139.851562 0)"/>
      <use xlink:href="#DejaVuSans-65" transform="translate(203.328125 0)"/>
      <use xlink:href="#DejaVuSans-74" transform="translate(264.851562 0)"/>
      <use xlink:href="#DejaVuSans-20" transform="translate(304.060547 0)"/>
      <use xlink:href="#DejaVuSans-61" transform="translate(335.847656 0)"/>
      <use xlink:href="#DejaVuSans-6e" transform="translate(397.126953 0)"/>
      <use xlink:href="#DejaVuSans-67" transform="translate(460.505859 0)"/>
      <use xlink:href="#DejaVuSans-75" transform="translate(523.982422 0)"/>
      <use xlink:href="#DejaVuSans-6c" transform="translate(587.361328 0)"/>
      <use xlink:href="#DejaVuSans-61" transform="translate(615.144531 0)"/>
      <use xlink:href="#DejaVuSans-72" transform="translate(676.423828 0)"/>
      <use xlink:href="#DejaVuSans-20" transform="translate(717.537109 0)"/>
      <use xlink:href="#DejaVuSans-76" transform="translate(749.324219 0)"/>
      <use xlink:href="#DejaVuSans-65" transform="translate(808.503906 0)"/>
      <use xlink:href="#DejaVuSans-6c" transform="translate(870.027344 0)"/>
      <use xlink:href="#DejaVuSans-6f" transform="translate(897.810547 0)"/>
      <use xlink:href="#DejaVuSans-63" transform="translate(958.992188 0)"/>
      <use xlink:href="#DejaVuSans-69" transform="translate(1013.972656 0)"/>
      <use xlink:href="#DejaVuSans-74" transform="translate(1041.755859 0)"/>
      <use xlink:href="#DejaVuSans-79" transform="translate(1080.964844 0)"/>
     </g>
    </g>
   </g>
  </g>
 </g>
 <defs>
  <clipPath id="pe309084960">
   <rect x="56" y="26.88" width="797.2" height="159.696467"/>
  </clipPath>
  <clipPath id="pef343287f2">
   <rect x="56" y="230.343533" width="797.2" height="159.696467"/>
  </clipPath>
 </defs>
</svg>
