<?xml version="1.0" encoding="utf-8" standalone="no"?>
<!DOCTYPE svg PUBLIC "-//W3C//DTD SVG 1.1//EN"
  "http://www.w3.org/Graphics/SVG/1.1/DTD/svg11.dtd">
<svg xmlns:xlink="http://www.w3.org/1999/xlink" width="864pt" height="432pt" viewBox="0 0 864 432" xmlns="http://www.w3.org/2000/svg" version="1.1">
 <metadata>
  <rdf:RDF xmlns:dc="http://purl.org/dc/elements/1.1/" xmlns:cc="http://creativecommons.org/ns#" xmlns:rdf="http://www.w3.org/1999/02/22-rdf-syntax-ns#">
   <cc:Work>
    <dc:type rdf:resource="http://purl.org/dc/dcmitype/StillImage"/>
    <dc:date>2025-04-29T12:22:27.304342</dc:date>
    <dc:format>image/svg+xml</dc:format>
    <dc:creator>
     <cc:Agent>
      <dc:title>Matplotlib v3.10.1, https://matplotlib.org/</dc:title>
     </cc:Agent>
    </dc:creator>
   </cc:Work>
  </rdf:RDF>
 </metadata>
 <defs>
  <style type="text/css">*{stroke-linejoin: round; stroke-linecap: butt}</style>
 </defs>
 <g id="figure_1">
  <g id="patch_1">
   <path d="M 0 432 
L 864 432 
L 864 0 
L 0 0 
z
" style="fill: #ffffff"/>
  </g>
  <g id="axes_1">
   <g id="patch_2">
    <path d="M 56 187.48 
L 853.2 187.48 
L 853.2 26.88 
L 56 26.88 
z
" style="fill: #ffffff"/>
   </g>
   <g id="matplotlib.axis_1">
    <g id="xtick_1">
     <g id="line2d_1">
      <defs>
       <path id="mc346d67c84" d="M 0 0 
L 0 3.5 
" style="stroke: #000000; stroke-width: 0.8"/>
      </defs>
      <g>
       <use xlink:href="#mc346d67c84" x="92.236364" y="187.48" style="stroke: #000000; stroke-width: 0.8"/>
      </g>
     </g>
     <g id="text_1">
      <!-- 0 -->
      <g transform="translate(89.055114 202.078437) scale(0.1 -0.1)">
       <defs>
        <path id="DejaVuSans-30" d="M 2034 4250 
Q 1547 4250 1301 3770 
Q 1056 3291 1056 2328 
Q 1056 1369 1301 889 
Q 1547 409 2034 409 
Q 2525 409 2770 889 
Q 3016 1369 3016 2328 
Q 3016 3291 2770 3770 
Q 2525 4250 2034 4250 
z
M 2034 4750 
Q 2819 4750 3233 4129 
Q 3647 3509 3647 2328 
Q 3647 1150 3233 529 
Q 2819 -91 2034 -91 
Q 1250 -91 836 529 
Q 422 1150 422 2328 
Q 422 3509 836 4129 
Q 1250 4750 2034 4750 
z
" transform="scale(0.015625)"/>
       </defs>
       <use xlink:href="#DejaVuSans-30"/>
      </g>
     </g>
    </g>
    <g id="xtick_2">
     <g id="line2d_2">
      <g>
       <use xlink:href="#mc346d67c84" x="213.024242" y="187.48" style="stroke: #000000; stroke-width: 0.8"/>
      </g>
     </g>
     <g id="text_2">
      <!-- 10 -->
      <g transform="translate(206.661742 202.078437) scale(0.1 -0.1)">
       <defs>
        <path id="DejaVuSans-31" d="M 794 531 
L 1825 531 
L 1825 4091 
L 703 3866 
L 703 4441 
L 1819 4666 
L 2450 4666 
L 2450 531 
L 3481 531 
L 3481 0 
L 794 0 
L 794 531 
z
" transform="scale(0.015625)"/>
       </defs>
       <use xlink:href="#DejaVuSans-31"/>
       <use xlink:href="#DejaVuSans-30" transform="translate(63.623047 0)"/>
      </g>
     </g>
    </g>
    <g id="xtick_3">
     <g id="line2d_3">
      <g>
       <use xlink:href="#mc346d67c84" x="333.812121" y="187.48" style="stroke: #000000; stroke-width: 0.8"/>
      </g>
     </g>
     <g id="text_3">
      <!-- 20 -->
      <g transform="translate(327.449621 202.078437) scale(0.1 -0.1)">
       <defs>
        <path id="DejaVuSans-32" d="M 1228 531 
L 3431 531 
L 3431 0 
L 469 0 
L 469 531 
Q 828 903 1448 1529 
Q 2069 2156 2228 2338 
Q 2531 2678 2651 2914 
Q 2772 3150 2772 3378 
Q 2772 3750 2511 3984 
Q 2250 4219 1831 4219 
Q 1534 4219 1204 4116 
Q 875 4013 500 3803 
L 500 4441 
Q 881 4594 1212 4672 
Q 1544 4750 1819 4750 
Q 2544 4750 2975 4387 
Q 3406 4025 3406 3419 
Q 3406 3131 3298 2873 
Q 3191 2616 2906 2266 
Q 2828 2175 2409 1742 
Q 1991 1309 1228 531 
z
" transform="scale(0.015625)"/>
       </defs>
       <use xlink:href="#DejaVuSans-32"/>
       <use xlink:href="#DejaVuSans-30" transform="translate(63.623047 0)"/>
      </g>
     </g>
    </g>
    <g id="xtick_4">
     <g id="line2d_4">
      <g>
       <use xlink:href="#mc346d67c84" x="454.6" y="187.48" style="stroke: #000000; stroke-width: 0.8"/>
      </g>
     </g>
     <g id="text_4">
      <!-- 30 -->
      <g transform="translate(448.2375 202.078437) scale(0.1 -0.1)">
       <defs>
        <path id="DejaVuSans-33" d="M 2597 2516 
Q 3050 2419 3304 2112 
Q 3559 1806 3559 1356 
Q 3559 666 3084 287 
Q 2609 -91 1734 -91 
Q 1441 -91 1130 -33 
Q 819 25 488 141 
L 488 750 
Q 750 597 1062 519 
Q 1375 441 1716 441 
Q 2309 441 2620 675 
Q 2931 909 2931 1356 
Q 2931 1769 2642 2001 
Q 2353 2234 1838 2234 
L 1294 2234 
L 1294 2753 
L 1863 2753 
Q 2328 2753 2575 2939 
Q 2822 3125 2822 3475 
Q 2822 3834 2567 4026 
Q 2313 4219 1838 4219 
Q 1578 4219 1281 4162 
Q 984 4106 628 3988 
L 628 4550 
Q 988 4650 1302 4700 
Q 1616 4750 1894 4750 
Q 2613 4750 3031 4423 
Q 3450 4097 3450 3541 
Q 3450 3153 3228 2886 
Q 3006 2619 2597 2516 
z
" transform="scale(0.015625)"/>
       </defs>
       <use xlink:href="#DejaVuSans-33"/>
       <use xlink:href="#DejaVuSans-30" transform="translate(63.623047 0)"/>
      </g>
     </g>
    </g>
    <g id="xtick_5">
     <g id="line2d_5">
      <g>
       <use xlink:href="#mc346d67c84" x="575.387879" y="187.48" style="stroke: #000000; stroke-width: 0.8"/>
      </g>
     </g>
     <g id="text_5">
      <!-- 40 -->
      <g transform="translate(569.025379 202.078437) scale(0.1 -0.1)">
       <defs>
        <path id="DejaVuSans-34" d="M 2419 4116 
L 825 1625 
L 2419 1625 
L 2419 4116 
z
M 2253 4666 
L 3047 4666 
L 3047 1625 
L 3713 1625 
L 3713 1100 
L 3047 1100 
L 3047 0 
L 2419 0 
L 2419 1100 
L 313 1100 
L 313 1709 
L 2253 4666 
z
" transform="scale(0.015625)"/>
       </defs>
       <use xlink:href="#DejaVuSans-34"/>
       <use xlink:href="#DejaVuSans-30" transform="translate(63.623047 0)"/>
      </g>
     </g>
    </g>
    <g id="xtick_6">
     <g id="line2d_6">
      <g>
       <use xlink:href="#mc346d67c84" x="696.175758" y="187.48" style="stroke: #000000; stroke-width: 0.8"/>
      </g>
     </g>
     <g id="text_6">
      <!-- 50 -->
      <g transform="translate(689.813258 202.078437) scale(0.1 -0.1)">
       <defs>
        <path id="DejaVuSans-35" d="M 691 4666 
L 3169 4666 
L 3169 4134 
L 1269 4134 
L 1269 2991 
Q 1406 3038 1543 3061 
Q 1681 3084 1819 3084 
Q 2600 3084 3056 2656 
Q 3513 2228 3513 1497 
Q 3513 744 3044 326 
Q 2575 -91 1722 -91 
Q 1428 -91 1123 -41 
Q 819 9 494 109 
L 494 744 
Q 775 591 1075 516 
Q 1375 441 1709 441 
Q 2250 441 2565 725 
Q 2881 1009 2881 1497 
Q 2881 1984 2565 2268 
Q 2250 2553 1709 2553 
Q 1456 2553 1204 2497 
Q 953 2441 691 2322 
L 691 4666 
z
" transform="scale(0.015625)"/>
       </defs>
       <use xlink:href="#DejaVuSans-35"/>
       <use xlink:href="#DejaVuSans-30" transform="translate(63.623047 0)"/>
      </g>
     </g>
    </g>
    <g id="xtick_7">
     <g id="line2d_7">
      <g>
       <use xlink:href="#mc346d67c84" x="816.963636" y="187.48" style="stroke: #000000; stroke-width: 0.8"/>
      </g>
     </g>
     <g id="text_7">
      <!-- 60 -->
      <g transform="translate(810.601136 202.078437) scale(0.1 -0.1)">
       <defs>
        <path id="DejaVuSans-36" d="M 2113 2584 
Q 1688 2584 1439 2293 
Q 1191 2003 1191 1497 
Q 1191 994 1439 701 
Q 1688 409 2113 409 
Q 2538 409 2786 701 
Q 3034 994 3034 1497 
Q 3034 2003 2786 2293 
Q 2538 2584 2113 2584 
z
M 3366 4563 
L 3366 3988 
Q 3128 4100 2886 4159 
Q 2644 4219 2406 4219 
Q 1781 4219 1451 3797 
Q 1122 3375 1075 2522 
Q 1259 2794 1537 2939 
Q 1816 3084 2150 3084 
Q 2853 3084 3261 2657 
Q 3669 2231 3669 1497 
Q 3669 778 3244 343 
Q 2819 -91 2113 -91 
Q 1303 -91 875 529 
Q 447 1150 447 2328 
Q 447 3434 972 4092 
Q 1497 4750 2381 4750 
Q 2619 4750 2861 4703 
Q 3103 4656 3366 4563 
z
" transform="scale(0.015625)"/>
       </defs>
       <use xlink:href="#DejaVuSans-36"/>
       <use xlink:href="#DejaVuSans-30" transform="translate(63.623047 0)"/>
      </g>
     </g>
    </g>
    <g id="text_8">
     <!-- Time (s) -->
     <g transform="translate(434.271094 215.756562) scale(0.1 -0.1)">
      <defs>
       <path id="DejaVuSans-54" d="M -19 4666 
L 3928 4666 
L 3928 4134 
L 2272 4134 
L 2272 0 
L 1638 0 
L 1638 4134 
L -19 4134 
L -19 4666 
z
" transform="scale(0.015625)"/>
       <path id="DejaVuSans-69" d="M 603 3500 
L 1178 3500 
L 1178 0 
L 603 0 
L 603 3500 
z
M 603 4863 
L 1178 4863 
L 1178 4134 
L 603 4134 
L 603 4863 
z
" transform="scale(0.015625)"/>
       <path id="DejaVuSans-6d" d="M 3328 2828 
Q 3544 3216 3844 3400 
Q 4144 3584 4550 3584 
Q 5097 3584 5394 3201 
Q 5691 2819 5691 2113 
L 5691 0 
L 5113 0 
L 5113 2094 
Q 5113 2597 4934 2840 
Q 4756 3084 4391 3084 
Q 3944 3084 3684 2787 
Q 3425 2491 3425 1978 
L 3425 0 
L 2847 0 
L 2847 2094 
Q 2847 2600 2669 2842 
Q 2491 3084 2119 3084 
Q 1678 3084 1418 2786 
Q 1159 2488 1159 1978 
L 1159 0 
L 581 0 
L 581 3500 
L 1159 3500 
L 1159 2956 
Q 1356 3278 1631 3431 
Q 1906 3584 2284 3584 
Q 2666 3584 2933 3390 
Q 3200 3197 3328 2828 
z
" transform="scale(0.015625)"/>
       <path id="DejaVuSans-65" d="M 3597 1894 
L 3597 1613 
L 953 1613 
Q 991 1019 1311 708 
Q 1631 397 2203 397 
Q 2534 397 2845 478 
Q 3156 559 3463 722 
L 3463 178 
Q 3153 47 2828 -22 
Q 2503 -91 2169 -91 
Q 1331 -91 842 396 
Q 353 884 353 1716 
Q 353 2575 817 3079 
Q 1281 3584 2069 3584 
Q 2775 3584 3186 3129 
Q 3597 2675 3597 1894 
z
M 3022 2063 
Q 3016 2534 2758 2815 
Q 2500 3097 2075 3097 
Q 1594 3097 1305 2825 
Q 1016 2553 972 2059 
L 3022 2063 
z
" transform="scale(0.015625)"/>
       <path id="DejaVuSans-20" transform="scale(0.015625)"/>
       <path id="DejaVuSans-28" d="M 1984 4856 
Q 1566 4138 1362 3434 
Q 1159 2731 1159 2009 
Q 1159 1288 1364 580 
Q 1569 -128 1984 -844 
L 1484 -844 
Q 1016 -109 783 600 
Q 550 1309 550 2009 
Q 550 2706 781 3412 
Q 1013 4119 1484 4856 
L 1984 4856 
z
" transform="scale(0.015625)"/>
       <path id="DejaVuSans-73" d="M 2834 3397 
L 2834 2853 
Q 2591 2978 2328 3040 
Q 2066 3103 1784 3103 
Q 1356 3103 1142 2972 
Q 928 2841 928 2578 
Q 928 2378 1081 2264 
Q 1234 2150 1697 2047 
L 1894 2003 
Q 2506 1872 2764 1633 
Q 3022 1394 3022 966 
Q 3022 478 2636 193 
Q 2250 -91 1575 -91 
Q 1294 -91 989 -36 
Q 684 19 347 128 
L 347 722 
Q 666 556 975 473 
Q 1284 391 1588 391 
Q 1994 391 2212 530 
Q 2431 669 2431 922 
Q 2431 1156 2273 1281 
Q 2116 1406 1581 1522 
L 1381 1569 
Q 847 1681 609 1914 
Q 372 2147 372 2553 
Q 372 3047 722 3315 
Q 1072 3584 1716 3584 
Q 2034 3584 2315 3537 
Q 2597 3491 2834 3397 
z
" transform="scale(0.015625)"/>
       <path id="DejaVuSans-29" d="M 513 4856 
L 1013 4856 
Q 1481 4119 1714 3412 
Q 1947 2706 1947 2009 
Q 1947 1309 1714 600 
Q 1481 -109 1013 -844 
L 513 -844 
Q 928 -128 1133 580 
Q 1338 1288 1338 2009 
Q 1338 2731 1133 3434 
Q 928 4138 513 4856 
z
" transform="scale(0.015625)"/>
      </defs>
      <use xlink:href="#DejaVuSans-54"/>
      <use xlink:href="#DejaVuSans-69" transform="translate(57.958984 0)"/>
      <use xlink:href="#DejaVuSans-6d" transform="translate(85.742188 0)"/>
      <use xlink:href="#DejaVuSans-65" transform="translate(183.154297 0)"/>
      <use xlink:href="#DejaVuSans-20" transform="translate(244.677734 0)"/>
      <use xlink:href="#DejaVuSans-28" transform="translate(276.464844 0)"/>
      <use xlink:href="#DejaVuSans-73" transform="translate(315.478516 0)"/>
      <use xlink:href="#DejaVuSans-29" transform="translate(367.578125 0)"/>
     </g>
    </g>
   </g>
   <g id="matplotlib.axis_2">
    <g id="ytick_1">
     <g id="line2d_8">
      <defs>
       <path id="ma3b34a4b70" d="M 0 0 
L -3.5 0 
" style="stroke: #000000; stroke-width: 0.8"/>
      </defs>
      <g>
       <use xlink:href="#ma3b34a4b70" x="56" y="176.923547" style="stroke: #000000; stroke-width: 0.8"/>
      </g>
     </g>
     <g id="text_9">
      <!-- −0.4 -->
      <g transform="translate(24.717187 180.722766) scale(0.1 -0.1)">
       <defs>
        <path id="DejaVuSans-2212" d="M 678 2272 
L 4684 2272 
L 4684 1741 
L 678 1741 
L 678 2272 
z
" transform="scale(0.015625)"/>
        <path id="DejaVuSans-2e" d="M 684 794 
L 1344 794 
L 1344 0 
L 684 0 
L 684 794 
z
" transform="scale(0.015625)"/>
       </defs>
       <use xlink:href="#DejaVuSans-2212"/>
       <use xlink:href="#DejaVuSans-30" transform="translate(83.789062 0)"/>
       <use xlink:href="#DejaVuSans-2e" transform="translate(147.412109 0)"/>
       <use xlink:href="#DejaVuSans-34" transform="translate(179.199219 0)"/>
      </g>
     </g>
    </g>
    <g id="ytick_2">
     <g id="line2d_9">
      <g>
       <use xlink:href="#ma3b34a4b70" x="56" y="146.013254" style="stroke: #000000; stroke-width: 0.8"/>
      </g>
     </g>
     <g id="text_10">
      <!-- −0.2 -->
      <g transform="translate(24.717187 149.812472) scale(0.1 -0.1)">
       <use xlink:href="#DejaVuSans-2212"/>
       <use xlink:href="#DejaVuSans-30" transform="translate(83.789062 0)"/>
       <use xlink:href="#DejaVuSans-2e" transform="translate(147.412109 0)"/>
       <use xlink:href="#DejaVuSans-32" transform="translate(179.199219 0)"/>
      </g>
     </g>
    </g>
    <g id="ytick_3">
     <g id="line2d_10">
      <g>
       <use xlink:href="#ma3b34a4b70" x="56" y="115.10296" style="stroke: #000000; stroke-width: 0.8"/>
      </g>
     </g>
     <g id="text_11">
      <!-- 0.0 -->
      <g transform="translate(33.096875 118.902179) scale(0.1 -0.1)">
       <use xlink:href="#DejaVuSans-30"/>
       <use xlink:href="#DejaVuSans-2e" transform="translate(63.623047 0)"/>
       <use xlink:href="#DejaVuSans-30" transform="translate(95.410156 0)"/>
      </g>
     </g>
    </g>
    <g id="ytick_4">
     <g id="line2d_11">
      <g>
       <use xlink:href="#ma3b34a4b70" x="56" y="84.192666" style="stroke: #000000; stroke-width: 0.8"/>
      </g>
     </g>
     <g id="text_12">
      <!-- 0.2 -->
      <g transform="translate(33.096875 87.991885) scale(0.1 -0.1)">
       <use xlink:href="#DejaVuSans-30"/>
       <use xlink:href="#DejaVuSans-2e" transform="translate(63.623047 0)"/>
       <use xlink:href="#DejaVuSans-32" transform="translate(95.410156 0)"/>
      </g>
     </g>
    </g>
    <g id="ytick_5">
     <g id="line2d_12">
      <g>
       <use xlink:href="#ma3b34a4b70" x="56" y="53.282372" style="stroke: #000000; stroke-width: 0.8"/>
      </g>
     </g>
     <g id="text_13">
      <!-- 0.4 -->
      <g transform="translate(33.096875 57.081591) scale(0.1 -0.1)">
       <use xlink:href="#DejaVuSans-30"/>
       <use xlink:href="#DejaVuSans-2e" transform="translate(63.623047 0)"/>
       <use xlink:href="#DejaVuSans-34" transform="translate(95.410156 0)"/>
      </g>
     </g>
    </g>
    <g id="text_14">
     <!-- Angle (rad) -->
     <g transform="translate(18.6375 135.193281) rotate(-90) scale(0.1 -0.1)">
      <defs>
       <path id="DejaVuSans-41" d="M 2188 4044 
L 1331 1722 
L 3047 1722 
L 2188 4044 
z
M 1831 4666 
L 2547 4666 
L 4325 0 
L 3669 0 
L 3244 1197 
L 1141 1197 
L 716 0 
L 50 0 
L 1831 4666 
z
" transform="scale(0.015625)"/>
       <path id="DejaVuSans-6e" d="M 3513 2113 
L 3513 0 
L 2938 0 
L 2938 2094 
Q 2938 2591 2744 2837 
Q 2550 3084 2163 3084 
Q 1697 3084 1428 2787 
Q 1159 2491 1159 1978 
L 1159 0 
L 581 0 
L 581 3500 
L 1159 3500 
L 1159 2956 
Q 1366 3272 1645 3428 
Q 1925 3584 2291 3584 
Q 2894 3584 3203 3211 
Q 3513 2838 3513 2113 
z
" transform="scale(0.015625)"/>
       <path id="DejaVuSans-67" d="M 2906 1791 
Q 2906 2416 2648 2759 
Q 2391 3103 1925 3103 
Q 1463 3103 1205 2759 
Q 947 2416 947 1791 
Q 947 1169 1205 825 
Q 1463 481 1925 481 
Q 2391 481 2648 825 
Q 2906 1169 2906 1791 
z
M 3481 434 
Q 3481 -459 3084 -895 
Q 2688 -1331 1869 -1331 
Q 1566 -1331 1297 -1286 
Q 1028 -1241 775 -1147 
L 775 -588 
Q 1028 -725 1275 -790 
Q 1522 -856 1778 -856 
Q 2344 -856 2625 -561 
Q 2906 -266 2906 331 
L 2906 616 
Q 2728 306 2450 153 
Q 2172 0 1784 0 
Q 1141 0 747 490 
Q 353 981 353 1791 
Q 353 2603 747 3093 
Q 1141 3584 1784 3584 
Q 2172 3584 2450 3431 
Q 2728 3278 2906 2969 
L 2906 3500 
L 3481 3500 
L 3481 434 
z
" transform="scale(0.015625)"/>
       <path id="DejaVuSans-6c" d="M 603 4863 
L 1178 4863 
L 1178 0 
L 603 0 
L 603 4863 
z
" transform="scale(0.015625)"/>
       <path id="DejaVuSans-72" d="M 2631 2963 
Q 2534 3019 2420 3045 
Q 2306 3072 2169 3072 
Q 1681 3072 1420 2755 
Q 1159 2438 1159 1844 
L 1159 0 
L 581 0 
L 581 3500 
L 1159 3500 
L 1159 2956 
Q 1341 3275 1631 3429 
Q 1922 3584 2338 3584 
Q 2397 3584 2469 3576 
Q 2541 3569 2628 3553 
L 2631 2963 
z
" transform="scale(0.015625)"/>
       <path id="DejaVuSans-61" d="M 2194 1759 
Q 1497 1759 1228 1600 
Q 959 1441 959 1056 
Q 959 750 1161 570 
Q 1363 391 1709 391 
Q 2188 391 2477 730 
Q 2766 1069 2766 1631 
L 2766 1759 
L 2194 1759 
z
M 3341 1997 
L 3341 0 
L 2766 0 
L 2766 531 
Q 2569 213 2275 61 
Q 1981 -91 1556 -91 
Q 1019 -91 701 211 
Q 384 513 384 1019 
Q 384 1609 779 1909 
Q 1175 2209 1959 2209 
L 2766 2209 
L 2766 2266 
Q 2766 2663 2505 2880 
Q 2244 3097 1772 3097 
Q 1472 3097 1187 3025 
Q 903 2953 641 2809 
L 641 3341 
Q 956 3463 1253 3523 
Q 1550 3584 1831 3584 
Q 2591 3584 2966 3190 
Q 3341 2797 3341 1997 
z
" transform="scale(0.015625)"/>
       <path id="DejaVuSans-64" d="M 2906 2969 
L 2906 4863 
L 3481 4863 
L 3481 0 
L 2906 0 
L 2906 525 
Q 2725 213 2448 61 
Q 2172 -91 1784 -91 
Q 1150 -91 751 415 
Q 353 922 353 1747 
Q 353 2572 751 3078 
Q 1150 3584 1784 3584 
Q 2172 3584 2448 3432 
Q 2725 3281 2906 2969 
z
M 947 1747 
Q 947 1113 1208 752 
Q 1469 391 1925 391 
Q 2381 391 2643 752 
Q 2906 1113 2906 1747 
Q 2906 2381 2643 2742 
Q 2381 3103 1925 3103 
Q 1469 3103 1208 2742 
Q 947 2381 947 1747 
z
" transform="scale(0.015625)"/>
      </defs>
      <use xlink:href="#DejaVuSans-41"/>
      <use xlink:href="#DejaVuSans-6e" transform="translate(68.408203 0)"/>
      <use xlink:href="#DejaVuSans-67" transform="translate(131.787109 0)"/>
      <use xlink:href="#DejaVuSans-6c" transform="translate(195.263672 0)"/>
      <use xlink:href="#DejaVuSans-65" transform="translate(223.046875 0)"/>
      <use xlink:href="#DejaVuSans-20" transform="translate(284.570312 0)"/>
      <use xlink:href="#DejaVuSans-28" transform="translate(316.357422 0)"/>
      <use xlink:href="#DejaVuSans-72" transform="translate(355.371094 0)"/>
      <use xlink:href="#DejaVuSans-61" transform="translate(396.484375 0)"/>
      <use xlink:href="#DejaVuSans-64" transform="translate(457.763672 0)"/>
      <use xlink:href="#DejaVuSans-29" transform="translate(521.240234 0)"/>
     </g>
    </g>
   </g>
   <g id="line2d_13">
    <path d="M 92.236364 34.18 
L 92.357172 34.295418 
L 92.598788 35.214109 
L 92.961212 38.221513 
L 93.444444 45.005785 
L 94.048484 57.338005 
L 94.89414 79.990297 
L 97.551916 155.679822 
L 98.276764 168.833741 
L 98.880804 175.96718 
L 99.364036 179.148776 
L 99.72646 180.115901 
L 99.968076 180.120381 
L 100.209693 179.648177 
L 100.572117 178.0566 
L 100.934541 175.315732 
L 101.538581 168.486734 
L 102.263429 157.352459 
L 103.592317 132.566067 
L 104.921205 108.903361 
L 105.766861 97.470619 
L 106.370901 91.7092 
L 106.854133 88.642401 
L 107.337365 86.925157 
L 107.699789 86.476188 
L 107.941405 86.546225 
L 108.183021 86.885159 
L 108.545445 87.856968 
L 109.028678 89.989142 
L 109.632718 94.119403 
L 110.478374 101.781667 
L 112.652918 122.268992 
L 113.377766 126.906661 
L 113.981806 129.412703 
L 114.465038 130.482943 
L 114.827462 130.748698 
L 115.069078 130.664439 
L 115.431502 130.173325 
L 115.914734 128.908817 
L 116.518774 126.512228 
L 117.36443 122.093381 
L 119.901399 108.114212 
L 120.626247 105.454659 
L 121.230287 103.969699 
L 121.713519 103.275507 
L 122.075943 103.034389 
L 122.438367 103.01757 
L 122.800791 103.202288 
L 123.284023 103.72797 
L 123.888063 104.790925 
L 124.612911 106.667079 
L 125.941799 110.991086 
L 127.270688 115.051691 
L 128.116344 116.934042 
L 128.720384 117.824535 
L 129.324424 118.314508 
L 129.928464 118.45053 
L 130.532504 118.319908 
L 131.136544 117.965252 
L 131.9822 117.182143 
L 133.552704 115.31063 
L 134.881592 113.861991 
L 135.848056 113.130452 
L 136.693713 112.776529 
L 137.539369 112.687899 
L 138.385025 112.825486 
L 139.472297 113.253207 
L 141.888457 114.25477 
L 143.338153 114.60581 
L 144.908658 114.742433 
L 147.566434 114.683193 
L 150.465826 114.702969 
L 153.486026 114.969919 
L 158.197539 115.392601 
L 161.942587 115.444285 
L 177.768437 115.351481 
L 185.137726 114.912415 
L 196.252063 114.872024 
L 206.037512 115.027307 
L 210.990641 115.247298 
L 213.165185 115.330358 
L 213.406801 115.732287 
L 213.769225 116.948178 
L 214.252457 119.521534 
L 214.977305 124.796728 
L 217.031042 140.785603 
L 217.635082 143.849069 
L 218.118314 145.241128 
L 218.35993 145.492918 
L 218.601546 145.447954 
L 218.843162 145.122227 
L 219.205586 144.142144 
L 219.688818 141.994101 
L 220.292858 138.153042 
L 221.138514 131.193215 
L 224.158714 104.752059 
L 224.883562 100.643171 
L 225.487602 98.266961 
L 225.970835 97.055193 
L 226.454067 96.425743 
L 226.816491 96.305031 
L 227.178915 96.454389 
L 227.541339 96.845456 
L 228.024571 97.691752 
L 228.749419 99.504565 
L 229.836691 102.955546 
L 231.890427 109.587396 
L 232.736083 111.605802 
L 233.460931 112.760723 
L 234.064971 113.286712 
L 234.548203 113.437026 
L 235.031436 113.37455 
L 235.635476 113.051225 
L 236.360324 112.394691 
L 237.930828 110.550492 
L 239.0181 109.432601 
L 239.863756 108.866772 
L 240.588604 108.649814 
L 241.313452 108.683206 
L 242.0383 108.940314 
L 242.883956 109.503386 
L 243.971229 110.53606 
L 247.233045 113.820673 
L 248.320317 114.528926 
L 249.407589 114.964756 
L 250.494861 115.166059 
L 251.944557 115.195942 
L 256.05203 115.157298 
L 258.347382 115.446257 
L 262.454855 116.003056 
L 264.871015 116.058098 
L 268.374447 115.889035 
L 274.89808 115.52598 
L 279.730401 115.479381 
L 283.958681 115.145415 
L 288.066153 114.899918 
L 293.864938 114.850577 
L 307.274628 114.860743 
L 315.972805 115.276136 
L 333.852391 115.30186 
L 334.094007 115.036785 
L 334.456431 113.993903 
L 334.939663 111.59269 
L 335.664511 106.447974 
L 337.959863 88.655762 
L 338.563903 85.846984 
L 338.926327 84.912521 
L 339.167943 84.664004 
L 339.409559 84.712812 
L 339.651175 85.042806 
L 340.013599 86.030043 
L 340.496831 88.188889 
L 341.100871 92.044166 
L 341.946527 99.023052 
L 344.966728 125.491196 
L 345.691576 129.594315 
L 346.295616 131.962895 
L 346.778848 133.167173 
L 347.26208 133.788318 
L 347.624504 133.902413 
L 347.986928 133.741786 
L 348.349352 133.333282 
L 348.832584 132.456313 
L 349.557432 130.588183 
L 350.644704 127.045777 
L 352.698441 120.268124 
L 353.544097 118.229718 
L 354.148137 117.236197 
L 354.752177 116.658558 
L 355.235409 116.482883 
L 355.718641 116.534715 
L 356.322681 116.863788 
L 357.047529 117.552064 
L 358.376417 119.221064 
L 359.705305 120.765809 
L 360.550962 121.417735 
L 361.27581 121.697745 
L 362.000658 121.70982 
L 362.725506 121.468162 
L 363.450354 120.996598 
L 364.416818 120.06855 
L 368.161866 116.165927 
L 369.12833 115.580749 
L 370.094795 115.232576 
L 371.182067 115.077853 
L 372.631763 115.115355 
L 376.014387 115.277784 
L 377.947315 115.086349 
L 384.470948 114.191166 
L 387.249532 114.24483 
L 398.96791 114.72409 
L 402.833766 114.853608 
L 411.652751 115.306573 
L 428.928297 115.335981 
L 438.230514 114.941673 
L 454.781212 114.979578 
L 455.022828 115.449562 
L 455.385252 116.759967 
L 455.868484 119.442268 
L 456.593332 124.840962 
L 458.647068 140.912684 
L 459.251109 143.938928 
L 459.613533 145.056975 
L 459.975957 145.508643 
L 460.217573 145.437833 
L 460.459189 145.087236 
L 460.821613 144.070927 
L 461.304845 141.877515 
L 461.908885 137.987779 
L 462.754541 130.979059 
L 465.653933 105.376836 
L 466.378781 101.091206 
L 466.982821 98.562845 
L 467.466053 97.233809 
L 467.949285 96.495811 
L 468.31171 96.302213 
L 468.674134 96.389899 
L 469.036558 96.734985 
L 469.51979 97.542399 
L 470.12383 99.000342 
L 471.090294 102.013062 
L 473.74807 110.705308 
L 474.472918 112.314423 
L 475.076958 113.211651 
L 475.56019 113.627511 
L 476.043422 113.788829 
L 476.526654 113.722333 
L 477.130695 113.375095 
L 477.855543 112.666727 
L 479.184431 110.969816 
L 480.513319 109.411761 
L 481.358975 108.758669 
L 482.083823 108.481231 
L 482.808671 108.472159 
L 483.533519 108.703349 
L 484.258367 109.151807 
L 485.224831 110.064137 
L 487.278568 112.468584 
L 488.607456 113.827972 
L 489.694728 114.620457 
L 490.661192 115.05064 
L 491.627656 115.24801 
L 492.835736 115.25592 
L 498.030481 114.977415 
L 500.084217 115.284204 
L 504.070882 115.919115 
L 506.245426 115.994 
L 509.507242 115.854346 
L 517.238955 115.454678 
L 522.796124 115.382884 
L 534.756117 114.896995 
L 551.306815 114.946927 
L 557.347215 115.256962 
L 567.011857 115.301143 
L 575.589225 115.219983 
L 575.830842 114.721389 
L 576.193266 113.373167 
L 576.676498 110.650615 
L 577.522154 104.213796 
L 579.334274 89.910552 
L 579.938314 86.681732 
L 580.421546 85.109412 
L 580.663162 84.766755 
L 580.904778 84.727314 
L 581.146394 84.983139 
L 581.508818 85.885059 
L 581.99205 87.973008 
L 582.59609 91.80152 
L 583.441746 98.839749 
L 586.461947 125.882802 
L 587.186795 130.084589 
L 587.790835 132.501319 
L 588.274067 133.720022 
L 588.757299 134.334447 
L 589.119723 134.430548 
L 589.482147 134.238003 
L 589.844571 133.781312 
L 590.327803 132.819457 
L 591.052651 130.789236 
L 592.139923 126.938412 
L 594.556084 118.168454 
L 595.280932 116.320428 
L 595.884972 115.312236 
L 596.368204 114.879162 
L 596.851436 114.762325 
L 597.334668 114.925243 
L 597.8179 115.322098 
L 598.542748 116.258016 
L 599.750828 118.311268 
L 601.200524 120.685473 
L 602.04618 121.658195 
L 602.771029 122.143915 
L 603.375069 122.288039 
L 603.979109 122.204264 
L 604.583149 121.912474 
L 605.307997 121.314034 
L 606.274461 120.1541 
L 609.415469 116.078949 
L 610.381933 115.31663 
L 611.227589 114.927703 
L 612.073246 114.775277 
L 613.03971 114.82422 
L 614.489406 115.14451 
L 616.784758 115.64609 
L 618.113646 115.689157 
L 619.563342 115.507739 
L 621.858695 114.947208 
L 624.274855 114.421622 
L 626.086975 114.259927 
L 628.261519 114.303306 
L 638.771817 114.814272 
L 648.31565 115.012831 
L 653.268778 115.261857 
L 661.604531 115.314488 
L 673.685332 115.266148 
L 680.329773 114.951833 
L 696.276431 114.834362 
L 696.518047 115.177492 
L 696.880471 116.322797 
L 697.363703 118.833237 
L 698.088551 124.081284 
L 700.263095 141.077603 
L 700.867135 144.035673 
L 701.229559 145.083019 
L 701.471175 145.405039 
L 701.712792 145.424328 
L 701.954408 145.156913 
L 702.316832 144.257594 
L 702.800064 142.200851 
L 703.404104 138.444746 
L 704.24976 131.548125 
L 707.390768 104.138932 
L 708.115616 100.171595 
L 708.719656 97.925073 
L 709.202888 96.818449 
L 709.565312 96.371128 
L 709.927736 96.227221 
L 710.29016 96.362648 
L 710.652585 96.751863 
L 711.135817 97.611569 
L 711.860665 99.472022 
L 712.947937 103.039065 
L 715.122481 110.319326 
L 715.968137 112.351595 
L 716.572177 113.321686 
L 717.176217 113.861877 
L 717.659449 114.000325 
L 718.142681 113.908384 
L 718.746721 113.528463 
L 719.47157 112.778603 
L 720.921266 110.848072 
L 722.129346 109.404937 
L 722.975002 108.736063 
L 723.69985 108.454469 
L 724.30389 108.432806 
L 725.028738 108.654466 
L 725.753586 109.120363 
L 726.72005 110.07932 
L 730.585907 114.342806 
L 731.552371 114.911035 
L 732.518835 115.210337 
L 733.606107 115.285108 
L 735.055803 115.131278 
L 737.834388 114.792199 
L 739.404892 114.847741 
L 741.33782 115.151531 
L 745.445292 115.874705 
L 747.499029 115.963396 
L 750.519229 115.837054 
L 758.613366 115.407116 
L 766.103463 115.305938 
L 773.955984 114.930787 
L 791.473146 114.853732 
L 802.949907 115.262672 
L 815.272324 115.402752 
L 816.963636 115.391712 
L 816.963636 115.391712 
" clip-path="url(#p145e1f3efd)" style="fill: none; stroke: #1f77b4; stroke-width: 1.5; stroke-linecap: square"/>
   </g>
   <g id="LineCollection_1">
    <path d="M 92.236364 115.10296 
L 816.963636 115.10296 
" clip-path="url(#p145e1f3efd)" style="fill: none; stroke: #ff0000; stroke-width: 1.5"/>
   </g>
   <g id="patch_3">
    <path d="M 56 187.48 
L 56 26.88 
" style="fill: none; stroke: #000000; stroke-width: 0.8; stroke-linejoin: miter; stroke-linecap: square"/>
   </g>
   <g id="patch_4">
    <path d="M 853.2 187.48 
L 853.2 26.88 
" style="fill: none; stroke: #000000; stroke-width: 0.8; stroke-linejoin: miter; stroke-linecap: square"/>
   </g>
   <g id="patch_5">
    <path d="M 56 187.48 
L 853.2 187.48 
" style="fill: none; stroke: #000000; stroke-width: 0.8; stroke-linejoin: miter; stroke-linecap: square"/>
   </g>
   <g id="patch_6">
    <path d="M 56 26.88 
L 853.2 26.88 
" style="fill: none; stroke: #000000; stroke-width: 0.8; stroke-linejoin: miter; stroke-linecap: square"/>
   </g>
   <g id="text_15">
    <!-- Inverted Pendulum on a Cart : System States -->
    <g transform="translate(319.057188 20.88) scale(0.12 -0.12)">
     <defs>
      <path id="DejaVuSans-49" d="M 628 4666 
L 1259 4666 
L 1259 0 
L 628 0 
L 628 4666 
z
" transform="scale(0.015625)"/>
      <path id="DejaVuSans-76" d="M 191 3500 
L 800 3500 
L 1894 563 
L 2988 3500 
L 3597 3500 
L 2284 0 
L 1503 0 
L 191 3500 
z
" transform="scale(0.015625)"/>
      <path id="DejaVuSans-74" d="M 1172 4494 
L 1172 3500 
L 2356 3500 
L 2356 3053 
L 1172 3053 
L 1172 1153 
Q 1172 725 1289 603 
Q 1406 481 1766 481 
L 2356 481 
L 2356 0 
L 1766 0 
Q 1100 0 847 248 
Q 594 497 594 1153 
L 594 3053 
L 172 3053 
L 172 3500 
L 594 3500 
L 594 4494 
L 1172 4494 
z
" transform="scale(0.015625)"/>
      <path id="DejaVuSans-50" d="M 1259 4147 
L 1259 2394 
L 2053 2394 
Q 2494 2394 2734 2622 
Q 2975 2850 2975 3272 
Q 2975 3691 2734 3919 
Q 2494 4147 2053 4147 
L 1259 4147 
z
M 628 4666 
L 2053 4666 
Q 2838 4666 3239 4311 
Q 3641 3956 3641 3272 
Q 3641 2581 3239 2228 
Q 2838 1875 2053 1875 
L 1259 1875 
L 1259 0 
L 628 0 
L 628 4666 
z
" transform="scale(0.015625)"/>
      <path id="DejaVuSans-75" d="M 544 1381 
L 544 3500 
L 1119 3500 
L 1119 1403 
Q 1119 906 1312 657 
Q 1506 409 1894 409 
Q 2359 409 2629 706 
Q 2900 1003 2900 1516 
L 2900 3500 
L 3475 3500 
L 3475 0 
L 2900 0 
L 2900 538 
Q 2691 219 2414 64 
Q 2138 -91 1772 -91 
Q 1169 -91 856 284 
Q 544 659 544 1381 
z
M 1991 3584 
L 1991 3584 
z
" transform="scale(0.015625)"/>
      <path id="DejaVuSans-6f" d="M 1959 3097 
Q 1497 3097 1228 2736 
Q 959 2375 959 1747 
Q 959 1119 1226 758 
Q 1494 397 1959 397 
Q 2419 397 2687 759 
Q 2956 1122 2956 1747 
Q 2956 2369 2687 2733 
Q 2419 3097 1959 3097 
z
M 1959 3584 
Q 2709 3584 3137 3096 
Q 3566 2609 3566 1747 
Q 3566 888 3137 398 
Q 2709 -91 1959 -91 
Q 1206 -91 779 398 
Q 353 888 353 1747 
Q 353 2609 779 3096 
Q 1206 3584 1959 3584 
z
" transform="scale(0.015625)"/>
      <path id="DejaVuSans-43" d="M 4122 4306 
L 4122 3641 
Q 3803 3938 3442 4084 
Q 3081 4231 2675 4231 
Q 1875 4231 1450 3742 
Q 1025 3253 1025 2328 
Q 1025 1406 1450 917 
Q 1875 428 2675 428 
Q 3081 428 3442 575 
Q 3803 722 4122 1019 
L 4122 359 
Q 3791 134 3420 21 
Q 3050 -91 2638 -91 
Q 1578 -91 968 557 
Q 359 1206 359 2328 
Q 359 3453 968 4101 
Q 1578 4750 2638 4750 
Q 3056 4750 3426 4639 
Q 3797 4528 4122 4306 
z
" transform="scale(0.015625)"/>
      <path id="DejaVuSans-3a" d="M 750 794 
L 1409 794 
L 1409 0 
L 750 0 
L 750 794 
z
M 750 3309 
L 1409 3309 
L 1409 2516 
L 750 2516 
L 750 3309 
z
" transform="scale(0.015625)"/>
      <path id="DejaVuSans-53" d="M 3425 4513 
L 3425 3897 
Q 3066 4069 2747 4153 
Q 2428 4238 2131 4238 
Q 1616 4238 1336 4038 
Q 1056 3838 1056 3469 
Q 1056 3159 1242 3001 
Q 1428 2844 1947 2747 
L 2328 2669 
Q 3034 2534 3370 2195 
Q 3706 1856 3706 1288 
Q 3706 609 3251 259 
Q 2797 -91 1919 -91 
Q 1588 -91 1214 -16 
Q 841 59 441 206 
L 441 856 
Q 825 641 1194 531 
Q 1563 422 1919 422 
Q 2459 422 2753 634 
Q 3047 847 3047 1241 
Q 3047 1584 2836 1778 
Q 2625 1972 2144 2069 
L 1759 2144 
Q 1053 2284 737 2584 
Q 422 2884 422 3419 
Q 422 4038 858 4394 
Q 1294 4750 2059 4750 
Q 2388 4750 2728 4690 
Q 3069 4631 3425 4513 
z
" transform="scale(0.015625)"/>
      <path id="DejaVuSans-79" d="M 2059 -325 
Q 1816 -950 1584 -1140 
Q 1353 -1331 966 -1331 
L 506 -1331 
L 506 -850 
L 844 -850 
Q 1081 -850 1212 -737 
Q 1344 -625 1503 -206 
L 1606 56 
L 191 3500 
L 800 3500 
L 1894 763 
L 2988 3500 
L 3597 3500 
L 2059 -325 
z
" transform="scale(0.015625)"/>
     </defs>
     <use xlink:href="#DejaVuSans-49"/>
     <use xlink:href="#DejaVuSans-6e" transform="translate(29.492188 0)"/>
     <use xlink:href="#DejaVuSans-76" transform="translate(92.871094 0)"/>
     <use xlink:href="#DejaVuSans-65" transform="translate(152.050781 0)"/>
     <use xlink:href="#DejaVuSans-72" transform="translate(213.574219 0)"/>
     <use xlink:href="#DejaVuSans-74" transform="translate(254.6875 0)"/>
     <use xlink:href="#DejaVuSans-65" transform="translate(293.896484 0)"/>
     <use xlink:href="#DejaVuSans-64" transform="translate(355.419922 0)"/>
     <use xlink:href="#DejaVuSans-20" transform="translate(418.896484 0)"/>
     <use xlink:href="#DejaVuSans-50" transform="translate(450.683594 0)"/>
     <use xlink:href="#DejaVuSans-65" transform="translate(507.361328 0)"/>
     <use xlink:href="#DejaVuSans-6e" transform="translate(568.884766 0)"/>
     <use xlink:href="#DejaVuSans-64" transform="translate(632.263672 0)"/>
     <use xlink:href="#DejaVuSans-75" transform="translate(695.740234 0)"/>
     <use xlink:href="#DejaVuSans-6c" transform="translate(759.119141 0)"/>
     <use xlink:href="#DejaVuSans-75" transform="translate(786.902344 0)"/>
     <use xlink:href="#DejaVuSans-6d" transform="translate(850.28125 0)"/>
     <use xlink:href="#DejaVuSans-20" transform="translate(947.693359 0)"/>
     <use xlink:href="#DejaVuSans-6f" transform="translate(979.480469 0)"/>
     <use xlink:href="#DejaVuSans-6e" transform="translate(1040.662109 0)"/>
     <use xlink:href="#DejaVuSans-20" transform="translate(1104.041016 0)"/>
     <use xlink:href="#DejaVuSans-61" transform="translate(1135.828125 0)"/>
     <use xlink:href="#DejaVuSans-20" transform="translate(1197.107422 0)"/>
     <use xlink:href="#DejaVuSans-43" transform="translate(1228.894531 0)"/>
     <use xlink:href="#DejaVuSans-61" transform="translate(1298.71875 0)"/>
     <use xlink:href="#DejaVuSans-72" transform="translate(1359.998047 0)"/>
     <use xlink:href="#DejaVuSans-74" transform="translate(1401.111328 0)"/>
     <use xlink:href="#DejaVuSans-20" transform="translate(1440.320312 0)"/>
     <use xlink:href="#DejaVuSans-3a" transform="translate(1472.107422 0)"/>
     <use xlink:href="#DejaVuSans-20" transform="translate(1505.798828 0)"/>
     <use xlink:href="#DejaVuSans-53" transform="translate(1537.585938 0)"/>
     <use xlink:href="#DejaVuSans-79" transform="translate(1601.0625 0)"/>
     <use xlink:href="#DejaVuSans-73" transform="translate(1660.242188 0)"/>
     <use xlink:href="#DejaVuSans-74" transform="translate(1712.341797 0)"/>
     <use xlink:href="#DejaVuSans-65" transform="translate(1751.550781 0)"/>
     <use xlink:href="#DejaVuSans-6d" transform="translate(1813.074219 0)"/>
     <use xlink:href="#DejaVuSans-20" transform="translate(1910.486328 0)"/>
     <use xlink:href="#DejaVuSans-53" transform="translate(1942.273438 0)"/>
     <use xlink:href="#DejaVuSans-74" transform="translate(2005.75 0)"/>
     <use xlink:href="#DejaVuSans-61" transform="translate(2044.958984 0)"/>
     <use xlink:href="#DejaVuSans-74" transform="translate(2106.238281 0)"/>
     <use xlink:href="#DejaVuSans-65" transform="translate(2145.447266 0)"/>
     <use xlink:href="#DejaVuSans-73" transform="translate(2206.970703 0)"/>
    </g>
   </g>
   <g id="legend_1">
    <g id="patch_7">
     <path d="M 679.209375 64.314375 
L 846.2 64.314375 
Q 848.2 64.314375 848.2 62.314375 
L 848.2 33.88 
Q 848.2 31.88 846.2 31.88 
L 679.209375 31.88 
Q 677.209375 31.88 677.209375 33.88 
L 677.209375 62.314375 
Q 677.209375 64.314375 679.209375 64.314375 
z
" style="fill: #ffffff; opacity: 0.8; stroke: #cccccc; stroke-linejoin: miter"/>
    </g>
    <g id="line2d_14">
     <path d="M 681.209375 40.056562 
L 691.209375 40.056562 
L 701.209375 40.056562 
" style="fill: none; stroke: #1f77b4; stroke-width: 1.5; stroke-linecap: square"/>
    </g>
    <g id="text_16">
     <!-- Inverted Pendulum angle θ -->
     <g transform="translate(709.209375 43.556562) scale(0.1 -0.1)">
      <defs>
       <path id="DejaVuSans-3b8" d="M 2953 2219 
L 963 2219 
Q 1009 1284 1225 888 
Q 1494 400 1959 400 
Q 2428 400 2688 891 
Q 2916 1322 2953 2219 
z
M 2944 2750 
Q 2856 3638 2688 3950 
Q 2419 4444 1959 4444 
Q 1481 4444 1228 3956 
Q 1028 3563 969 2750 
L 2944 2750 
z
M 1959 4913 
Q 2709 4913 3138 4250 
Q 3566 3591 3566 2422 
Q 3566 1256 3138 594 
Q 2709 -72 1959 -72 
Q 1206 -72 781 594 
Q 353 1256 353 2422 
Q 353 3591 781 4250 
Q 1206 4913 1959 4913 
z
" transform="scale(0.015625)"/>
      </defs>
      <use xlink:href="#DejaVuSans-49"/>
      <use xlink:href="#DejaVuSans-6e" transform="translate(29.492188 0)"/>
      <use xlink:href="#DejaVuSans-76" transform="translate(92.871094 0)"/>
      <use xlink:href="#DejaVuSans-65" transform="translate(152.050781 0)"/>
      <use xlink:href="#DejaVuSans-72" transform="translate(213.574219 0)"/>
      <use xlink:href="#DejaVuSans-74" transform="translate(254.6875 0)"/>
      <use xlink:href="#DejaVuSans-65" transform="translate(293.896484 0)"/>
      <use xlink:href="#DejaVuSans-64" transform="translate(355.419922 0)"/>
      <use xlink:href="#DejaVuSans-20" transform="translate(418.896484 0)"/>
      <use xlink:href="#DejaVuSans-50" transform="translate(450.683594 0)"/>
      <use xlink:href="#DejaVuSans-65" transform="translate(507.361328 0)"/>
      <use xlink:href="#DejaVuSans-6e" transform="translate(568.884766 0)"/>
      <use xlink:href="#DejaVuSans-64" transform="translate(632.263672 0)"/>
      <use xlink:href="#DejaVuSans-75" transform="translate(695.740234 0)"/>
      <use xlink:href="#DejaVuSans-6c" transform="translate(759.119141 0)"/>
      <use xlink:href="#DejaVuSans-75" transform="translate(786.902344 0)"/>
      <use xlink:href="#DejaVuSans-6d" transform="translate(850.28125 0)"/>
      <use xlink:href="#DejaVuSans-20" transform="translate(947.693359 0)"/>
      <use xlink:href="#DejaVuSans-61" transform="translate(979.480469 0)"/>
      <use xlink:href="#DejaVuSans-6e" transform="translate(1040.759766 0)"/>
      <use xlink:href="#DejaVuSans-67" transform="translate(1104.138672 0)"/>
      <use xlink:href="#DejaVuSans-6c" transform="translate(1167.615234 0)"/>
      <use xlink:href="#DejaVuSans-65" transform="translate(1195.398438 0)"/>
      <use xlink:href="#DejaVuSans-20" transform="translate(1256.921875 0)"/>
      <use xlink:href="#DejaVuSans-3b8" transform="translate(1288.708984 0)"/>
     </g>
    </g>
    <g id="line2d_15">
     <path d="M 681.209375 54.734688 
L 701.209375 54.734688 
" style="fill: none; stroke: #ff0000; stroke-width: 1.5"/>
    </g>
    <g id="text_17">
     <!-- Target angle -->
     <g transform="translate(709.209375 58.234688) scale(0.1 -0.1)">
      <use xlink:href="#DejaVuSans-54"/>
      <use xlink:href="#DejaVuSans-61" transform="translate(44.583984 0)"/>
      <use xlink:href="#DejaVuSans-72" transform="translate(105.863281 0)"/>
      <use xlink:href="#DejaVuSans-67" transform="translate(145.226562 0)"/>
      <use xlink:href="#DejaVuSans-65" transform="translate(208.703125 0)"/>
      <use xlink:href="#DejaVuSans-74" transform="translate(270.226562 0)"/>
      <use xlink:href="#DejaVuSans-20" transform="translate(309.435547 0)"/>
      <use xlink:href="#DejaVuSans-61" transform="translate(341.222656 0)"/>
      <use xlink:href="#DejaVuSans-6e" transform="translate(402.501953 0)"/>
      <use xlink:href="#DejaVuSans-67" transform="translate(465.880859 0)"/>
      <use xlink:href="#DejaVuSans-6c" transform="translate(529.357422 0)"/>
      <use xlink:href="#DejaVuSans-65" transform="translate(557.140625 0)"/>
     </g>
    </g>
   </g>
  </g>
  <g id="axes_2">
   <g id="patch_8">
    <path d="M 56 390.04 
L 853.2 390.04 
L 853.2 229.44 
L 56 229.44 
z
" style="fill: #ffffff"/>
   </g>
   <g id="matplotlib.axis_3">
    <g id="xtick_8">
     <g id="line2d_16">
      <g>
       <use xlink:href="#mc346d67c84" x="92.236364" y="390.04" style="stroke: #000000; stroke-width: 0.8"/>
      </g>
     </g>
     <g id="text_18">
      <!-- 0 -->
      <g transform="translate(89.055114 404.638437) scale(0.1 -0.1)">
       <use xlink:href="#DejaVuSans-30"/>
      </g>
     </g>
    </g>
    <g id="xtick_9">
     <g id="line2d_17">
      <g>
       <use xlink:href="#mc346d67c84" x="213.024242" y="390.04" style="stroke: #000000; stroke-width: 0.8"/>
      </g>
     </g>
     <g id="text_19">
      <!-- 10 -->
      <g transform="translate(206.661742 404.638437) scale(0.1 -0.1)">
       <use xlink:href="#DejaVuSans-31"/>
       <use xlink:href="#DejaVuSans-30" transform="translate(63.623047 0)"/>
      </g>
     </g>
    </g>
    <g id="xtick_10">
     <g id="line2d_18">
      <g>
       <use xlink:href="#mc346d67c84" x="333.812121" y="390.04" style="stroke: #000000; stroke-width: 0.8"/>
      </g>
     </g>
     <g id="text_20">
      <!-- 20 -->
      <g transform="translate(327.449621 404.638437) scale(0.1 -0.1)">
       <use xlink:href="#DejaVuSans-32"/>
       <use xlink:href="#DejaVuSans-30" transform="translate(63.623047 0)"/>
      </g>
     </g>
    </g>
    <g id="xtick_11">
     <g id="line2d_19">
      <g>
       <use xlink:href="#mc346d67c84" x="454.6" y="390.04" style="stroke: #000000; stroke-width: 0.8"/>
      </g>
     </g>
     <g id="text_21">
      <!-- 30 -->
      <g transform="translate(448.2375 404.638437) scale(0.1 -0.1)">
       <use xlink:href="#DejaVuSans-33"/>
       <use xlink:href="#DejaVuSans-30" transform="translate(63.623047 0)"/>
      </g>
     </g>
    </g>
    <g id="xtick_12">
     <g id="line2d_20">
      <g>
       <use xlink:href="#mc346d67c84" x="575.387879" y="390.04" style="stroke: #000000; stroke-width: 0.8"/>
      </g>
     </g>
     <g id="text_22">
      <!-- 40 -->
      <g transform="translate(569.025379 404.638437) scale(0.1 -0.1)">
       <use xlink:href="#DejaVuSans-34"/>
       <use xlink:href="#DejaVuSans-30" transform="translate(63.623047 0)"/>
      </g>
     </g>
    </g>
    <g id="xtick_13">
     <g id="line2d_21">
      <g>
       <use xlink:href="#mc346d67c84" x="696.175758" y="390.04" style="stroke: #000000; stroke-width: 0.8"/>
      </g>
     </g>
     <g id="text_23">
      <!-- 50 -->
      <g transform="translate(689.813258 404.638437) scale(0.1 -0.1)">
       <use xlink:href="#DejaVuSans-35"/>
       <use xlink:href="#DejaVuSans-30" transform="translate(63.623047 0)"/>
      </g>
     </g>
    </g>
    <g id="xtick_14">
     <g id="line2d_22">
      <g>
       <use xlink:href="#mc346d67c84" x="816.963636" y="390.04" style="stroke: #000000; stroke-width: 0.8"/>
      </g>
     </g>
     <g id="text_24">
      <!-- 60 -->
      <g transform="translate(810.601136 404.638437) scale(0.1 -0.1)">
       <use xlink:href="#DejaVuSans-36"/>
       <use xlink:href="#DejaVuSans-30" transform="translate(63.623047 0)"/>
      </g>
     </g>
    </g>
    <g id="text_25">
     <!-- Time (s) -->
     <g transform="translate(434.271094 418.316562) scale(0.1 -0.1)">
      <use xlink:href="#DejaVuSans-54"/>
      <use xlink:href="#DejaVuSans-69" transform="translate(57.958984 0)"/>
      <use xlink:href="#DejaVuSans-6d" transform="translate(85.742188 0)"/>
      <use xlink:href="#DejaVuSans-65" transform="translate(183.154297 0)"/>
      <use xlink:href="#DejaVuSans-20" transform="translate(244.677734 0)"/>
      <use xlink:href="#DejaVuSans-28" transform="translate(276.464844 0)"/>
      <use xlink:href="#DejaVuSans-73" transform="translate(315.478516 0)"/>
      <use xlink:href="#DejaVuSans-29" transform="translate(367.578125 0)"/>
     </g>
    </g>
   </g>
   <g id="matplotlib.axis_4">
    <g id="ytick_6">
     <g id="line2d_23">
      <g>
       <use xlink:href="#ma3b34a4b70" x="56" y="366.457623" style="stroke: #000000; stroke-width: 0.8"/>
      </g>
     </g>
     <g id="text_26">
      <!-- −2 -->
      <g transform="translate(34.257812 370.256842) scale(0.1 -0.1)">
       <use xlink:href="#DejaVuSans-2212"/>
       <use xlink:href="#DejaVuSans-32" transform="translate(83.789062 0)"/>
      </g>
     </g>
    </g>
    <g id="ytick_7">
     <g id="line2d_24">
      <g>
       <use xlink:href="#ma3b34a4b70" x="56" y="329.498327" style="stroke: #000000; stroke-width: 0.8"/>
      </g>
     </g>
     <g id="text_27">
      <!-- −1 -->
      <g transform="translate(34.257812 333.297546) scale(0.1 -0.1)">
       <use xlink:href="#DejaVuSans-2212"/>
       <use xlink:href="#DejaVuSans-31" transform="translate(83.789062 0)"/>
      </g>
     </g>
    </g>
    <g id="ytick_8">
     <g id="line2d_25">
      <g>
       <use xlink:href="#ma3b34a4b70" x="56" y="292.53903" style="stroke: #000000; stroke-width: 0.8"/>
      </g>
     </g>
     <g id="text_28">
      <!-- 0 -->
      <g transform="translate(42.6375 296.338249) scale(0.1 -0.1)">
       <use xlink:href="#DejaVuSans-30"/>
      </g>
     </g>
    </g>
    <g id="ytick_9">
     <g id="line2d_26">
      <g>
       <use xlink:href="#ma3b34a4b70" x="56" y="255.579734" style="stroke: #000000; stroke-width: 0.8"/>
      </g>
     </g>
     <g id="text_29">
      <!-- 1 -->
      <g transform="translate(42.6375 259.378953) scale(0.1 -0.1)">
       <use xlink:href="#DejaVuSans-31"/>
      </g>
     </g>
    </g>
    <g id="text_30">
     <!-- Angular velocity (rad/s) -->
     <g transform="translate(28.178125 368.385312) rotate(-90) scale(0.1 -0.1)">
      <defs>
       <path id="DejaVuSans-63" d="M 3122 3366 
L 3122 2828 
Q 2878 2963 2633 3030 
Q 2388 3097 2138 3097 
Q 1578 3097 1268 2742 
Q 959 2388 959 1747 
Q 959 1106 1268 751 
Q 1578 397 2138 397 
Q 2388 397 2633 464 
Q 2878 531 3122 666 
L 3122 134 
Q 2881 22 2623 -34 
Q 2366 -91 2075 -91 
Q 1284 -91 818 406 
Q 353 903 353 1747 
Q 353 2603 823 3093 
Q 1294 3584 2113 3584 
Q 2378 3584 2631 3529 
Q 2884 3475 3122 3366 
z
" transform="scale(0.015625)"/>
       <path id="DejaVuSans-2f" d="M 1625 4666 
L 2156 4666 
L 531 -594 
L 0 -594 
L 1625 4666 
z
" transform="scale(0.015625)"/>
      </defs>
      <use xlink:href="#DejaVuSans-41"/>
      <use xlink:href="#DejaVuSans-6e" transform="translate(68.408203 0)"/>
      <use xlink:href="#DejaVuSans-67" transform="translate(131.787109 0)"/>
      <use xlink:href="#DejaVuSans-75" transform="translate(195.263672 0)"/>
      <use xlink:href="#DejaVuSans-6c" transform="translate(258.642578 0)"/>
      <use xlink:href="#DejaVuSans-61" transform="translate(286.425781 0)"/>
      <use xlink:href="#DejaVuSans-72" transform="translate(347.705078 0)"/>
      <use xlink:href="#DejaVuSans-20" transform="translate(388.818359 0)"/>
      <use xlink:href="#DejaVuSans-76" transform="translate(420.605469 0)"/>
      <use xlink:href="#DejaVuSans-65" transform="translate(479.785156 0)"/>
      <use xlink:href="#DejaVuSans-6c" transform="translate(541.308594 0)"/>
      <use xlink:href="#DejaVuSans-6f" transform="translate(569.091797 0)"/>
      <use xlink:href="#DejaVuSans-63" transform="translate(630.273438 0)"/>
      <use xlink:href="#DejaVuSans-69" transform="translate(685.253906 0)"/>
      <use xlink:href="#DejaVuSans-74" transform="translate(713.037109 0)"/>
      <use xlink:href="#DejaVuSans-79" transform="translate(752.246094 0)"/>
      <use xlink:href="#DejaVuSans-20" transform="translate(811.425781 0)"/>
      <use xlink:href="#DejaVuSans-28" transform="translate(843.212891 0)"/>
      <use xlink:href="#DejaVuSans-72" transform="translate(882.226562 0)"/>
      <use xlink:href="#DejaVuSans-61" transform="translate(923.339844 0)"/>
      <use xlink:href="#DejaVuSans-64" transform="translate(984.619141 0)"/>
      <use xlink:href="#DejaVuSans-2f" transform="translate(1048.095703 0)"/>
      <use xlink:href="#DejaVuSans-73" transform="translate(1081.787109 0)"/>
      <use xlink:href="#DejaVuSans-29" transform="translate(1133.886719 0)"/>
     </g>
    </g>
   </g>
   <g id="line2d_27">
    <path d="M 92.236364 292.53903 
L 93.323636 337.489856 
L 94.169292 363.588972 
L 94.89414 377.477495 
L 95.256564 381.457308 
L 95.49818 382.609211 
L 95.618988 382.74 
L 95.739796 382.58338 
L 95.981412 381.438722 
L 96.343836 377.854641 
L 96.947876 367.960728 
L 97.551916 354.727046 
L 101.176157 261.033916 
L 101.901005 247.796426 
L 102.505045 240.58253 
L 102.988277 237.475116 
L 103.229893 236.833915 
L 103.350701 236.74 
L 103.471509 236.795222 
L 103.713125 237.347107 
L 104.075549 239.239479 
L 104.558781 243.535052 
L 105.283629 252.490562 
L 106.129285 266.073303 
L 107.699789 291.66819 
L 108.666253 303.789279 
L 110.11595 319.213024 
L 110.357566 320.546611 
L 110.840798 321.78281 
L 111.082414 321.775659 
L 111.203222 321.780642 
L 111.444838 321.180751 
L 112.048878 318.583389 
L 112.894534 312.101052 
L 114.102614 300.179696 
L 115.55231 285.965123 
L 116.397966 279.919806 
L 117.122814 276.713609 
L 117.606046 275.529312 
L 117.847662 275.320656 
L 118.089279 275.343184 
L 118.451703 275.670533 
L 118.814127 276.238054 
L 119.176551 277.204985 
L 119.780591 279.687207 
L 120.505439 283.164448 
L 122.196751 292.125947 
L 123.163215 296.147 
L 124.612911 301.063315 
L 125.216951 302.014696 
L 125.458567 302.227596 
L 126.183415 302.03518 
L 126.545839 301.53115 
L 126.908263 300.942126 
L 127.995536 298.102764 
L 129.324424 293.937128 
L 129.807656 292.786526 
L 130.77412 290.931076 
L 131.498968 289.926444 
L 132.223816 289.247383 
L 132.827856 289.030685 
L 133.431896 289.005466 
L 133.915128 289.179735 
L 134.881592 289.86267 
L 136.452097 291.527005 
L 137.660177 292.762341 
L 138.868257 293.660235 
L 139.230681 293.856686 
L 140.317953 293.829761 
L 141.888457 293.464033 
L 145.875122 292.474398 
L 147.566434 292.447462 
L 151.311482 292.755738 
L 153.606834 292.867695 
L 157.472691 292.713195 
L 162.788243 292.548604 
L 170.88238 292.560397 
L 172.332077 292.640891 
L 174.748237 292.501519 
L 179.097325 292.296875 
L 184.89611 292.490901 
L 189.72843 292.525211 
L 200.238728 292.508834 
L 205.071048 292.728267 
L 209.903369 292.621588 
L 212.923569 292.548575 
L 213.044377 292.944371 
L 213.769225 304.845855 
L 214.373265 311.762577 
L 214.977305 315.791968 
L 215.460537 316.970715 
L 215.822961 316.632212 
L 215.943769 316.384859 
L 216.547809 313.485687 
L 217.031042 309.945788 
L 217.635082 304.158505 
L 218.843162 287.067425 
L 219.688818 277.039259 
L 220.534474 269.793924 
L 221.259322 265.986419 
L 221.621746 265.313638 
L 222.104978 264.839748 
L 222.346594 265.070268 
L 222.709018 266.14716 
L 223.313058 268.326975 
L 224.279522 274.371437 
L 226.212451 288.813399 
L 227.299723 295.341433 
L 228.024571 298.570116 
L 228.870227 301.086584 
L 229.353459 301.902923 
L 229.836691 302.335322 
L 230.440731 302.387279 
L 230.923963 302.068426 
L 231.407195 301.437688 
L 232.494467 298.963079 
L 235.031436 291.594774 
L 235.877092 290.062951 
L 236.60194 289.311674 
L 237.085172 289.055303 
L 237.81002 289.113271 
L 238.655676 289.714275 
L 239.62214 290.827538 
L 241.917492 293.84695 
L 243.24638 295.182703 
L 243.850421 295.507991 
L 244.333653 295.659499 
L 245.300117 295.658628 
L 246.145773 295.374502 
L 247.474661 294.620856 
L 249.407589 293.363163 
L 250.494861 292.819327 
L 251.702941 292.479709 
L 252.911022 292.390607 
L 254.602334 292.546962 
L 258.347382 292.998967 
L 260.038694 292.986525 
L 268.253639 292.336042 
L 272.48192 292.349655 
L 275.50212 292.57938 
L 278.401512 292.46775 
L 284.079489 292.29167 
L 292.052818 292.529331 
L 304.012811 292.535008 
L 308.845132 292.746045 
L 311.744524 292.695362 
L 318.751389 292.549142 
L 330.590574 292.553022 
L 333.731583 292.38874 
L 333.852391 291.610874 
L 334.577239 279.668814 
L 335.181279 272.842114 
L 335.543703 270.224544 
L 336.026935 268.162476 
L 336.389359 267.932533 
L 336.510167 267.973943 
L 336.872591 268.977887 
L 337.235015 270.749016 
L 337.597439 273.141024 
L 338.443095 280.94302 
L 339.409559 294.824385 
L 340.376023 306.878881 
L 341.221679 314.614584 
L 341.946527 318.658379 
L 342.308951 319.752854 
L 342.792184 320.154134 
L 343.0338 320.194983 
L 343.275416 319.81072 
L 343.879456 317.758425 
L 344.24188 316.116813 
L 345.329152 308.820855 
L 347.986928 290.22222 
L 348.711776 286.781235 
L 349.315816 284.696706 
L 349.919856 283.368682 
L 350.403088 282.745911 
L 350.88632 282.411603 
L 351.369553 282.511645 
L 351.852785 282.937885 
L 352.940057 285.032947 
L 353.785713 287.596104 
L 355.477025 292.85744 
L 356.201873 294.488373 
L 357.047529 295.767362 
L 357.530761 296.134703 
L 357.893185 296.308511 
L 358.618033 296.218557 
L 359.342881 295.699112 
L 360.550962 294.195342 
L 362.48389 291.406928 
L 363.933586 289.740161 
L 364.658434 289.332097 
L 365.383282 289.192623 
L 365.987322 289.226382 
L 366.832978 289.54721 
L 367.799442 290.167666 
L 370.336411 291.971502 
L 371.665299 292.565651 
L 372.631763 292.758734 
L 373.839843 292.77121 
L 375.289539 292.561902 
L 378.430548 292.051457 
L 380.605092 292.01606 
L 382.779636 292.248993 
L 385.799836 292.598225 
L 389.303269 292.735715 
L 393.289933 292.723234 
L 394.981245 292.61094 
L 397.15579 292.511967 
L 400.78003 292.628505 
L 405.00831 292.757729 
L 421.196584 292.536816 
L 426.753753 292.493862 
L 431.223649 292.345014 
L 435.572738 292.467503 
L 440.163442 292.530647 
L 453.573132 292.600606 
L 454.539596 292.648136 
L 454.660404 293.803116 
L 455.385252 305.60186 
L 455.989292 312.420773 
L 456.472524 315.617261 
L 456.71414 316.646416 
L 457.076564 317.146562 
L 457.197372 317.203712 
L 457.438988 316.674076 
L 457.680604 316.088532 
L 458.284644 312.667862 
L 459.130301 305.327173 
L 459.734341 297.060796 
L 460.821613 282.160685 
L 461.788077 272.418115 
L 462.392117 268.078351 
L 463.116965 265.229981 
L 463.358581 264.903695 
L 463.600197 264.983646 
L 464.083429 265.329588 
L 464.325045 265.947985 
L 465.049893 269.10376 
L 465.533125 272.174606 
L 466.862013 281.848914 
L 467.949285 289.827532 
L 469.036558 296.227995 
L 469.640598 298.872828 
L 470.486254 301.409946 
L 470.969486 302.223567 
L 471.33191 302.55227 
L 471.93595 302.701672 
L 472.660798 302.152012 
L 473.14403 301.3891 
L 474.110494 298.979597 
L 476.526654 291.528206 
L 477.372311 289.867724 
L 478.097159 289.036399 
L 478.701199 288.72761 
L 479.426047 288.834163 
L 480.271703 289.509454 
L 480.996551 290.390349 
L 481.842207 291.613689 
L 483.050287 293.307296 
L 484.620791 295.178407 
L 485.466447 295.795369 
L 486.070488 295.9949 
L 486.674528 295.985535 
L 487.520184 295.72262 
L 488.607456 295.072778 
L 490.17796 293.816433 
L 491.506848 292.901134 
L 492.473312 292.45194 
L 493.560584 292.209121 
L 494.647856 292.188466 
L 496.339169 292.462883 
L 499.480177 293.031575 
L 500.929873 293.094569 
L 502.500377 292.994484 
L 507.21189 292.444225 
L 510.956938 292.334672 
L 515.306027 292.430678 
L 517.601379 292.559716 
L 521.346427 292.461547 
L 527.024404 292.347226 
L 535.239349 292.527662 
L 547.561766 292.568883 
L 552.031663 292.743745 
L 556.259943 292.626004 
L 560.1258 292.544354 
L 574.985185 292.455911 
L 575.347609 292.437268 
L 575.710033 286.549635 
L 576.434882 276.258729 
L 576.918114 271.511521 
L 577.401346 268.763207 
L 577.642962 268.149921 
L 578.005386 267.873011 
L 578.247002 268.424309 
L 578.488618 269.048579 
L 579.092658 272.53217 
L 579.938314 279.963113 
L 580.542354 288.427511 
L 581.750434 305.086363 
L 582.716898 314.476587 
L 583.320938 318.504859 
L 583.80417 320.034975 
L 584.166594 320.84926 
L 584.40821 320.854473 
L 584.770634 320.168388 
L 585.253867 319.001764 
L 585.616291 317.209911 
L 586.824371 309.312117 
L 587.790835 301.708202 
L 588.757299 294.496822 
L 589.844571 287.938266 
L 590.690227 284.374777 
L 591.294267 282.800005 
L 591.898307 281.803937 
L 592.743963 281.401202 
L 593.227195 281.613834 
L 593.468811 281.791853 
L 593.952044 282.549541 
L 594.435276 283.650631 
L 595.039316 285.5602 
L 597.21386 293.88862 
L 597.938708 295.788265 
L 598.542748 296.889429 
L 599.146788 297.539664 
L 599.750828 297.713081 
L 600.113252 297.575332 
L 600.8381 296.987589 
L 602.04618 295.157417 
L 604.341533 291.049181 
L 605.912037 288.924223 
L 606.636885 288.493115 
L 607.120117 288.423778 
L 607.603349 288.490945 
L 608.449005 288.923505 
L 609.294661 289.641934 
L 612.314862 292.543951 
L 613.281326 293.048981 
L 614.126982 293.267994 
L 615.093446 293.295604 
L 616.05991 293.104222 
L 618.355262 292.318193 
L 619.804958 291.934737 
L 621.617079 291.777729 
L 623.187583 291.910779 
L 627.657479 292.656656 
L 630.194448 292.771716 
L 633.335456 292.691946 
L 641.912825 292.492217 
L 648.194842 292.747437 
L 651.094234 292.677688 
L 660.758875 292.556878 
L 667.282508 292.639545 
L 669.457052 292.562714 
L 673.926948 292.350979 
L 677.551189 292.406923 
L 683.833206 292.530821 
L 693.377039 292.447938 
L 695.068351 292.446869 
L 696.155623 292.522741 
L 697.363703 310.413103 
L 697.846935 314.382471 
L 698.209359 316.386808 
L 698.571783 317.112762 
L 698.692591 317.255699 
L 698.813399 317.163229 
L 699.296631 315.914553 
L 699.900671 312.46679 
L 700.746327 304.934022 
L 701.350367 296.367591 
L 702.43764 281.605323 
L 703.404104 271.974119 
L 704.008144 267.781387 
L 704.732992 265.068448 
L 704.974608 264.817949 
L 705.337032 265.040965 
L 705.578648 265.204371 
L 705.820264 265.670606 
L 706.182688 267.13648 
L 707.028344 271.631594 
L 710.29016 294.659372 
L 711.135817 298.699953 
L 711.981473 301.34643 
L 712.464705 302.225946 
L 712.827129 302.597879 
L 713.431169 302.823896 
L 714.156017 302.387631 
L 715.122481 300.657917 
L 716.451369 296.541179 
L 717.780257 292.299348 
L 718.625913 290.332149 
L 719.350761 289.208859 
L 720.07561 288.650031 
L 720.800458 288.615874 
L 721.525306 289.048137 
L 722.612578 290.320133 
L 726.236818 295.431214 
L 726.840858 295.882052 
L 727.686514 296.153224 
L 728.290554 296.072734 
L 729.015403 295.803921 
L 729.861059 295.237456 
L 733.485299 292.507406 
L 734.572571 292.156794 
L 735.659843 292.074244 
L 736.747115 292.197314 
L 741.94186 293.145776 
L 743.633172 293.067504 
L 749.069533 292.404296 
L 752.935389 292.344723 
L 763.80811 292.453387 
L 767.915583 292.342013 
L 781.204464 292.526416 
L 786.640825 292.443071 
L 788.211329 292.471176 
L 794.372538 292.729512 
L 807.057379 292.554289 
L 812.976972 292.63228 
L 814.30586 292.652811 
L 816.963636 292.460167 
L 816.963636 292.460167 
" clip-path="url(#p5488b1e3fd)" style="fill: none; stroke: #1f77b4; stroke-width: 1.5; stroke-linecap: square"/>
   </g>
   <g id="LineCollection_2">
    <path d="M 92.236364 292.53903 
L 816.963636 292.53903 
" clip-path="url(#p5488b1e3fd)" style="fill: none; stroke: #ff0000; stroke-width: 1.5"/>
   </g>
   <g id="patch_9">
    <path d="M 56 390.04 
L 56 229.44 
" style="fill: none; stroke: #000000; stroke-width: 0.8; stroke-linejoin: miter; stroke-linecap: square"/>
   </g>
   <g id="patch_10">
    <path d="M 853.2 390.04 
L 853.2 229.44 
" style="fill: none; stroke: #000000; stroke-width: 0.8; stroke-linejoin: miter; stroke-linecap: square"/>
   </g>
   <g id="patch_11">
    <path d="M 56 390.04 
L 853.2 390.04 
" style="fill: none; stroke: #000000; stroke-width: 0.8; stroke-linejoin: miter; stroke-linecap: square"/>
   </g>
   <g id="patch_12">
    <path d="M 56 229.44 
L 853.2 229.44 
" style="fill: none; stroke: #000000; stroke-width: 0.8; stroke-linejoin: miter; stroke-linecap: square"/>
   </g>
   <g id="legend_2">
    <g id="patch_13">
     <path d="M 605.135938 385.04 
L 846.2 385.04 
Q 848.2 385.04 848.2 383.04 
L 848.2 354.3275 
Q 848.2 352.3275 846.2 352.3275 
L 605.135938 352.3275 
Q 603.135938 352.3275 603.135938 354.3275 
L 603.135938 383.04 
Q 603.135938 385.04 605.135938 385.04 
z
" style="fill: #ffffff; opacity: 0.8; stroke: #cccccc; stroke-linejoin: miter"/>
    </g>
    <g id="line2d_28">
     <path d="M 607.135938 360.504062 
L 617.135938 360.504062 
L 627.135938 360.504062 
" style="fill: none; stroke: #1f77b4; stroke-width: 1.5; stroke-linecap: square"/>
    </g>
    <g id="text_31">
     <!-- Inverted Pendulum angular velocity θ_dot -->
     <g transform="translate(635.135938 364.004062) scale(0.1 -0.1)">
      <defs>
       <path id="DejaVuSans-5f" d="M 3263 -1063 
L 3263 -1509 
L -63 -1509 
L -63 -1063 
L 3263 -1063 
z
" transform="scale(0.015625)"/>
      </defs>
      <use xlink:href="#DejaVuSans-49"/>
      <use xlink:href="#DejaVuSans-6e" transform="translate(29.492188 0)"/>
      <use xlink:href="#DejaVuSans-76" transform="translate(92.871094 0)"/>
      <use xlink:href="#DejaVuSans-65" transform="translate(152.050781 0)"/>
      <use xlink:href="#DejaVuSans-72" transform="translate(213.574219 0)"/>
      <use xlink:href="#DejaVuSans-74" transform="translate(254.6875 0)"/>
      <use xlink:href="#DejaVuSans-65" transform="translate(293.896484 0)"/>
      <use xlink:href="#DejaVuSans-64" transform="translate(355.419922 0)"/>
      <use xlink:href="#DejaVuSans-20" transform="translate(418.896484 0)"/>
      <use xlink:href="#DejaVuSans-50" transform="translate(450.683594 0)"/>
      <use xlink:href="#DejaVuSans-65" transform="translate(507.361328 0)"/>
      <use xlink:href="#DejaVuSans-6e" transform="translate(568.884766 0)"/>
      <use xlink:href="#DejaVuSans-64" transform="translate(632.263672 0)"/>
      <use xlink:href="#DejaVuSans-75" transform="translate(695.740234 0)"/>
      <use xlink:href="#DejaVuSans-6c" transform="translate(759.119141 0)"/>
      <use xlink:href="#DejaVuSans-75" transform="translate(786.902344 0)"/>
      <use xlink:href="#DejaVuSans-6d" transform="translate(850.28125 0)"/>
      <use xlink:href="#DejaVuSans-20" transform="translate(947.693359 0)"/>
      <use xlink:href="#DejaVuSans-61" transform="translate(979.480469 0)"/>
      <use xlink:href="#DejaVuSans-6e" transform="translate(1040.759766 0)"/>
      <use xlink:href="#DejaVuSans-67" transform="translate(1104.138672 0)"/>
      <use xlink:href="#DejaVuSans-75" transform="translate(1167.615234 0)"/>
      <use xlink:href="#DejaVuSans-6c" transform="translate(1230.994141 0)"/>
      <use xlink:href="#DejaVuSans-61" transform="translate(1258.777344 0)"/>
      <use xlink:href="#DejaVuSans-72" transform="translate(1320.056641 0)"/>
      <use xlink:href="#DejaVuSans-20" transform="translate(1361.169922 0)"/>
      <use xlink:href="#DejaVuSans-76" transform="translate(1392.957031 0)"/>
      <use xlink:href="#DejaVuSans-65" transform="translate(1452.136719 0)"/>
      <use xlink:href="#DejaVuSans-6c" transform="translate(1513.660156 0)"/>
      <use xlink:href="#DejaVuSans-6f" transform="translate(1541.443359 0)"/>
      <use xlink:href="#DejaVuSans-63" transform="translate(1602.625 0)"/>
      <use xlink:href="#DejaVuSans-69" transform="translate(1657.605469 0)"/>
      <use xlink:href="#DejaVuSans-74" transform="translate(1685.388672 0)"/>
      <use xlink:href="#DejaVuSans-79" transform="translate(1724.597656 0)"/>
      <use xlink:href="#DejaVuSans-20" transform="translate(1783.777344 0)"/>
      <use xlink:href="#DejaVuSans-3b8" transform="translate(1815.564453 0)"/>
      <use xlink:href="#DejaVuSans-5f" transform="translate(1876.746094 0)"/>
      <use xlink:href="#DejaVuSans-64" transform="translate(1926.746094 0)"/>
      <use xlink:href="#DejaVuSans-6f" transform="translate(1990.222656 0)"/>
      <use xlink:href="#DejaVuSans-74" transform="translate(2051.404297 0)"/>
     </g>
    </g>
    <g id="line2d_29">
     <path d="M 607.135938 375.460312 
L 627.135938 375.460312 
" style="fill: none; stroke: #ff0000; stroke-width: 1.5"/>
    </g>
    <g id="text_32">
     <!-- target angular velocity -->
     <g transform="translate(635.135938 378.960312) scale(0.1 -0.1)">
      <use xlink:href="#DejaVuSans-74"/>
      <use xlink:href="#DejaVuSans-61" transform="translate(39.208984 0)"/>
      <use xlink:href="#DejaVuSans-72" transform="translate(100.488281 0)"/>
      <use xlink:href="#DejaVuSans-67" transform="translate(139.851562 0)"/>
      <use xlink:href="#DejaVuSans-65" transform="translate(203.328125 0)"/>
      <use xlink:href="#DejaVuSans-74" transform="translate(264.851562 0)"/>
      <use xlink:href="#DejaVuSans-20" transform="translate(304.060547 0)"/>
      <use xlink:href="#DejaVuSans-61" transform="translate(335.847656 0)"/>
      <use xlink:href="#DejaVuSans-6e" transform="translate(397.126953 0)"/>
      <use xlink:href="#DejaVuSans-67" transform="translate(460.505859 0)"/>
      <use xlink:href="#DejaVuSans-75" transform="translate(523.982422 0)"/>
      <use xlink:href="#DejaVuSans-6c" transform="translate(587.361328 0)"/>
      <use xlink:href="#DejaVuSans-61" transform="translate(615.144531 0)"/>
      <use xlink:href="#DejaVuSans-72" transform="translate(676.423828 0)"/>
      <use xlink:href="#DejaVuSans-20" transform="translate(717.537109 0)"/>
      <use xlink:href="#DejaVuSans-76" transform="translate(749.324219 0)"/>
      <use xlink:href="#DejaVuSans-65" transform="translate(808.503906 0)"/>
      <use xlink:href="#DejaVuSans-6c" transform="translate(870.027344 0)"/>
      <use xlink:href="#DejaVuSans-6f" transform="translate(897.810547 0)"/>
      <use xlink:href="#DejaVuSans-63" transform="translate(958.992188 0)"/>
      <use xlink:href="#DejaVuSans-69" transform="translate(1013.972656 0)"/>
      <use xlink:href="#DejaVuSans-74" transform="translate(1041.755859 0)"/>
      <use xlink:href="#DejaVuSans-79" transform="translate(1080.964844 0)"/>
     </g>
    </g>
   </g>
  </g>
 </g>
 <defs>
  <clipPath id="p145e1f3efd">
   <rect x="56" y="26.88" width="797.2" height="160.6"/>
  </clipPath>
  <clipPath id="p5488b1e3fd">
   <rect x="56" y="229.44" width="797.2" height="160.6"/>
  </clipPath>
 </defs>
</svg>
