<?xml version="1.0" encoding="utf-8" standalone="no"?>
<!DOCTYPE svg PUBLIC "-//W3C//DTD SVG 1.1//EN"
  "http://www.w3.org/Graphics/SVG/1.1/DTD/svg11.dtd">
<svg xmlns:xlink="http://www.w3.org/1999/xlink" width="460.8pt" height="345.6pt" viewBox="0 0 460.8 345.6" xmlns="http://www.w3.org/2000/svg" version="1.1">
 <metadata>
  <rdf:RDF xmlns:dc="http://purl.org/dc/elements/1.1/" xmlns:cc="http://creativecommons.org/ns#" xmlns:rdf="http://www.w3.org/1999/02/22-rdf-syntax-ns#">
   <cc:Work>
    <dc:type rdf:resource="http://purl.org/dc/dcmitype/StillImage"/>
    <dc:date>2025-04-29T12:33:16.107399</dc:date>
    <dc:format>image/svg+xml</dc:format>
    <dc:creator>
     <cc:Agent>
      <dc:title>Matplotlib v3.10.1, https://matplotlib.org/</dc:title>
     </cc:Agent>
    </dc:creator>
   </cc:Work>
  </rdf:RDF>
 </metadata>
 <defs>
  <style type="text/css">*{stroke-linejoin: round; stroke-linecap: butt}</style>
 </defs>
 <g id="figure_1">
  <g id="patch_1">
   <path d="M 0 345.6 
L 460.8 345.6 
L 460.8 0 
L 0 0 
z
" style="fill: #ffffff"/>
  </g>
  <g id="axes_1">
   <g id="patch_2">
    <path d="M 57.6 307.584 
L 414.72 307.584 
L 414.72 41.472 
L 57.6 41.472 
z
" style="fill: #ffffff"/>
   </g>
   <g id="matplotlib.axis_1">
    <g id="xtick_1">
     <g id="line2d_1">
      <defs>
       <path id="m86a7ffa217" d="M 0 0 
L 0 3.5 
" style="stroke: #000000; stroke-width: 0.8"/>
      </defs>
      <g>
       <use xlink:href="#m86a7ffa217" x="73.832727" y="307.584" style="stroke: #000000; stroke-width: 0.8"/>
      </g>
     </g>
     <g id="text_1">
      <!-- 0 -->
      <g transform="translate(70.651477 322.182437) scale(0.1 -0.1)">
       <defs>
        <path id="DejaVuSans-30" d="M 2034 4250 
Q 1547 4250 1301 3770 
Q 1056 3291 1056 2328 
Q 1056 1369 1301 889 
Q 1547 409 2034 409 
Q 2525 409 2770 889 
Q 3016 1369 3016 2328 
Q 3016 3291 2770 3770 
Q 2525 4250 2034 4250 
z
M 2034 4750 
Q 2819 4750 3233 4129 
Q 3647 3509 3647 2328 
Q 3647 1150 3233 529 
Q 2819 -91 2034 -91 
Q 1250 -91 836 529 
Q 422 1150 422 2328 
Q 422 3509 836 4129 
Q 1250 4750 2034 4750 
z
" transform="scale(0.015625)"/>
       </defs>
       <use xlink:href="#DejaVuSans-30"/>
      </g>
     </g>
    </g>
    <g id="xtick_2">
     <g id="line2d_2">
      <g>
       <use xlink:href="#m86a7ffa217" x="127.941818" y="307.584" style="stroke: #000000; stroke-width: 0.8"/>
      </g>
     </g>
     <g id="text_2">
      <!-- 10 -->
      <g transform="translate(121.579318 322.182437) scale(0.1 -0.1)">
       <defs>
        <path id="DejaVuSans-31" d="M 794 531 
L 1825 531 
L 1825 4091 
L 703 3866 
L 703 4441 
L 1819 4666 
L 2450 4666 
L 2450 531 
L 3481 531 
L 3481 0 
L 794 0 
L 794 531 
z
" transform="scale(0.015625)"/>
       </defs>
       <use xlink:href="#DejaVuSans-31"/>
       <use xlink:href="#DejaVuSans-30" transform="translate(63.623047 0)"/>
      </g>
     </g>
    </g>
    <g id="xtick_3">
     <g id="line2d_3">
      <g>
       <use xlink:href="#m86a7ffa217" x="182.050909" y="307.584" style="stroke: #000000; stroke-width: 0.8"/>
      </g>
     </g>
     <g id="text_3">
      <!-- 20 -->
      <g transform="translate(175.688409 322.182437) scale(0.1 -0.1)">
       <defs>
        <path id="DejaVuSans-32" d="M 1228 531 
L 3431 531 
L 3431 0 
L 469 0 
L 469 531 
Q 828 903 1448 1529 
Q 2069 2156 2228 2338 
Q 2531 2678 2651 2914 
Q 2772 3150 2772 3378 
Q 2772 3750 2511 3984 
Q 2250 4219 1831 4219 
Q 1534 4219 1204 4116 
Q 875 4013 500 3803 
L 500 4441 
Q 881 4594 1212 4672 
Q 1544 4750 1819 4750 
Q 2544 4750 2975 4387 
Q 3406 4025 3406 3419 
Q 3406 3131 3298 2873 
Q 3191 2616 2906 2266 
Q 2828 2175 2409 1742 
Q 1991 1309 1228 531 
z
" transform="scale(0.015625)"/>
       </defs>
       <use xlink:href="#DejaVuSans-32"/>
       <use xlink:href="#DejaVuSans-30" transform="translate(63.623047 0)"/>
      </g>
     </g>
    </g>
    <g id="xtick_4">
     <g id="line2d_4">
      <g>
       <use xlink:href="#m86a7ffa217" x="236.16" y="307.584" style="stroke: #000000; stroke-width: 0.8"/>
      </g>
     </g>
     <g id="text_4">
      <!-- 30 -->
      <g transform="translate(229.7975 322.182437) scale(0.1 -0.1)">
       <defs>
        <path id="DejaVuSans-33" d="M 2597 2516 
Q 3050 2419 3304 2112 
Q 3559 1806 3559 1356 
Q 3559 666 3084 287 
Q 2609 -91 1734 -91 
Q 1441 -91 1130 -33 
Q 819 25 488 141 
L 488 750 
Q 750 597 1062 519 
Q 1375 441 1716 441 
Q 2309 441 2620 675 
Q 2931 909 2931 1356 
Q 2931 1769 2642 2001 
Q 2353 2234 1838 2234 
L 1294 2234 
L 1294 2753 
L 1863 2753 
Q 2328 2753 2575 2939 
Q 2822 3125 2822 3475 
Q 2822 3834 2567 4026 
Q 2313 4219 1838 4219 
Q 1578 4219 1281 4162 
Q 984 4106 628 3988 
L 628 4550 
Q 988 4650 1302 4700 
Q 1616 4750 1894 4750 
Q 2613 4750 3031 4423 
Q 3450 4097 3450 3541 
Q 3450 3153 3228 2886 
Q 3006 2619 2597 2516 
z
" transform="scale(0.015625)"/>
       </defs>
       <use xlink:href="#DejaVuSans-33"/>
       <use xlink:href="#DejaVuSans-30" transform="translate(63.623047 0)"/>
      </g>
     </g>
    </g>
    <g id="xtick_5">
     <g id="line2d_5">
      <g>
       <use xlink:href="#m86a7ffa217" x="290.269091" y="307.584" style="stroke: #000000; stroke-width: 0.8"/>
      </g>
     </g>
     <g id="text_5">
      <!-- 40 -->
      <g transform="translate(283.906591 322.182437) scale(0.1 -0.1)">
       <defs>
        <path id="DejaVuSans-34" d="M 2419 4116 
L 825 1625 
L 2419 1625 
L 2419 4116 
z
M 2253 4666 
L 3047 4666 
L 3047 1625 
L 3713 1625 
L 3713 1100 
L 3047 1100 
L 3047 0 
L 2419 0 
L 2419 1100 
L 313 1100 
L 313 1709 
L 2253 4666 
z
" transform="scale(0.015625)"/>
       </defs>
       <use xlink:href="#DejaVuSans-34"/>
       <use xlink:href="#DejaVuSans-30" transform="translate(63.623047 0)"/>
      </g>
     </g>
    </g>
    <g id="xtick_6">
     <g id="line2d_6">
      <g>
       <use xlink:href="#m86a7ffa217" x="344.378182" y="307.584" style="stroke: #000000; stroke-width: 0.8"/>
      </g>
     </g>
     <g id="text_6">
      <!-- 50 -->
      <g transform="translate(338.015682 322.182437) scale(0.1 -0.1)">
       <defs>
        <path id="DejaVuSans-35" d="M 691 4666 
L 3169 4666 
L 3169 4134 
L 1269 4134 
L 1269 2991 
Q 1406 3038 1543 3061 
Q 1681 3084 1819 3084 
Q 2600 3084 3056 2656 
Q 3513 2228 3513 1497 
Q 3513 744 3044 326 
Q 2575 -91 1722 -91 
Q 1428 -91 1123 -41 
Q 819 9 494 109 
L 494 744 
Q 775 591 1075 516 
Q 1375 441 1709 441 
Q 2250 441 2565 725 
Q 2881 1009 2881 1497 
Q 2881 1984 2565 2268 
Q 2250 2553 1709 2553 
Q 1456 2553 1204 2497 
Q 953 2441 691 2322 
L 691 4666 
z
" transform="scale(0.015625)"/>
       </defs>
       <use xlink:href="#DejaVuSans-35"/>
       <use xlink:href="#DejaVuSans-30" transform="translate(63.623047 0)"/>
      </g>
     </g>
    </g>
    <g id="xtick_7">
     <g id="line2d_7">
      <g>
       <use xlink:href="#m86a7ffa217" x="398.487273" y="307.584" style="stroke: #000000; stroke-width: 0.8"/>
      </g>
     </g>
     <g id="text_7">
      <!-- 60 -->
      <g transform="translate(392.124773 322.182437) scale(0.1 -0.1)">
       <defs>
        <path id="DejaVuSans-36" d="M 2113 2584 
Q 1688 2584 1439 2293 
Q 1191 2003 1191 1497 
Q 1191 994 1439 701 
Q 1688 409 2113 409 
Q 2538 409 2786 701 
Q 3034 994 3034 1497 
Q 3034 2003 2786 2293 
Q 2538 2584 2113 2584 
z
M 3366 4563 
L 3366 3988 
Q 3128 4100 2886 4159 
Q 2644 4219 2406 4219 
Q 1781 4219 1451 3797 
Q 1122 3375 1075 2522 
Q 1259 2794 1537 2939 
Q 1816 3084 2150 3084 
Q 2853 3084 3261 2657 
Q 3669 2231 3669 1497 
Q 3669 778 3244 343 
Q 2819 -91 2113 -91 
Q 1303 -91 875 529 
Q 447 1150 447 2328 
Q 447 3434 972 4092 
Q 1497 4750 2381 4750 
Q 2619 4750 2861 4703 
Q 3103 4656 3366 4563 
z
" transform="scale(0.015625)"/>
       </defs>
       <use xlink:href="#DejaVuSans-36"/>
       <use xlink:href="#DejaVuSans-30" transform="translate(63.623047 0)"/>
      </g>
     </g>
    </g>
    <g id="text_8">
     <!-- Time (s) -->
     <g transform="translate(215.831094 335.860562) scale(0.1 -0.1)">
      <defs>
       <path id="DejaVuSans-54" d="M -19 4666 
L 3928 4666 
L 3928 4134 
L 2272 4134 
L 2272 0 
L 1638 0 
L 1638 4134 
L -19 4134 
L -19 4666 
z
" transform="scale(0.015625)"/>
       <path id="DejaVuSans-69" d="M 603 3500 
L 1178 3500 
L 1178 0 
L 603 0 
L 603 3500 
z
M 603 4863 
L 1178 4863 
L 1178 4134 
L 603 4134 
L 603 4863 
z
" transform="scale(0.015625)"/>
       <path id="DejaVuSans-6d" d="M 3328 2828 
Q 3544 3216 3844 3400 
Q 4144 3584 4550 3584 
Q 5097 3584 5394 3201 
Q 5691 2819 5691 2113 
L 5691 0 
L 5113 0 
L 5113 2094 
Q 5113 2597 4934 2840 
Q 4756 3084 4391 3084 
Q 3944 3084 3684 2787 
Q 3425 2491 3425 1978 
L 3425 0 
L 2847 0 
L 2847 2094 
Q 2847 2600 2669 2842 
Q 2491 3084 2119 3084 
Q 1678 3084 1418 2786 
Q 1159 2488 1159 1978 
L 1159 0 
L 581 0 
L 581 3500 
L 1159 3500 
L 1159 2956 
Q 1356 3278 1631 3431 
Q 1906 3584 2284 3584 
Q 2666 3584 2933 3390 
Q 3200 3197 3328 2828 
z
" transform="scale(0.015625)"/>
       <path id="DejaVuSans-65" d="M 3597 1894 
L 3597 1613 
L 953 1613 
Q 991 1019 1311 708 
Q 1631 397 2203 397 
Q 2534 397 2845 478 
Q 3156 559 3463 722 
L 3463 178 
Q 3153 47 2828 -22 
Q 2503 -91 2169 -91 
Q 1331 -91 842 396 
Q 353 884 353 1716 
Q 353 2575 817 3079 
Q 1281 3584 2069 3584 
Q 2775 3584 3186 3129 
Q 3597 2675 3597 1894 
z
M 3022 2063 
Q 3016 2534 2758 2815 
Q 2500 3097 2075 3097 
Q 1594 3097 1305 2825 
Q 1016 2553 972 2059 
L 3022 2063 
z
" transform="scale(0.015625)"/>
       <path id="DejaVuSans-20" transform="scale(0.015625)"/>
       <path id="DejaVuSans-28" d="M 1984 4856 
Q 1566 4138 1362 3434 
Q 1159 2731 1159 2009 
Q 1159 1288 1364 580 
Q 1569 -128 1984 -844 
L 1484 -844 
Q 1016 -109 783 600 
Q 550 1309 550 2009 
Q 550 2706 781 3412 
Q 1013 4119 1484 4856 
L 1984 4856 
z
" transform="scale(0.015625)"/>
       <path id="DejaVuSans-73" d="M 2834 3397 
L 2834 2853 
Q 2591 2978 2328 3040 
Q 2066 3103 1784 3103 
Q 1356 3103 1142 2972 
Q 928 2841 928 2578 
Q 928 2378 1081 2264 
Q 1234 2150 1697 2047 
L 1894 2003 
Q 2506 1872 2764 1633 
Q 3022 1394 3022 966 
Q 3022 478 2636 193 
Q 2250 -91 1575 -91 
Q 1294 -91 989 -36 
Q 684 19 347 128 
L 347 722 
Q 666 556 975 473 
Q 1284 391 1588 391 
Q 1994 391 2212 530 
Q 2431 669 2431 922 
Q 2431 1156 2273 1281 
Q 2116 1406 1581 1522 
L 1381 1569 
Q 847 1681 609 1914 
Q 372 2147 372 2553 
Q 372 3047 722 3315 
Q 1072 3584 1716 3584 
Q 2034 3584 2315 3537 
Q 2597 3491 2834 3397 
z
" transform="scale(0.015625)"/>
       <path id="DejaVuSans-29" d="M 513 4856 
L 1013 4856 
Q 1481 4119 1714 3412 
Q 1947 2706 1947 2009 
Q 1947 1309 1714 600 
Q 1481 -109 1013 -844 
L 513 -844 
Q 928 -128 1133 580 
Q 1338 1288 1338 2009 
Q 1338 2731 1133 3434 
Q 928 4138 513 4856 
z
" transform="scale(0.015625)"/>
      </defs>
      <use xlink:href="#DejaVuSans-54"/>
      <use xlink:href="#DejaVuSans-69" transform="translate(57.958984 0)"/>
      <use xlink:href="#DejaVuSans-6d" transform="translate(85.742188 0)"/>
      <use xlink:href="#DejaVuSans-65" transform="translate(183.154297 0)"/>
      <use xlink:href="#DejaVuSans-20" transform="translate(244.677734 0)"/>
      <use xlink:href="#DejaVuSans-28" transform="translate(276.464844 0)"/>
      <use xlink:href="#DejaVuSans-73" transform="translate(315.478516 0)"/>
      <use xlink:href="#DejaVuSans-29" transform="translate(367.578125 0)"/>
     </g>
    </g>
   </g>
   <g id="matplotlib.axis_2">
    <g id="ytick_1">
     <g id="line2d_8">
      <defs>
       <path id="m379d106885" d="M 0 0 
L -3.5 0 
" style="stroke: #000000; stroke-width: 0.8"/>
      </defs>
      <g>
       <use xlink:href="#m379d106885" x="57.6" y="275.894301" style="stroke: #000000; stroke-width: 0.8"/>
      </g>
     </g>
     <g id="text_9">
      <!-- −1.0 -->
      <g transform="translate(26.317187 279.69352) scale(0.1 -0.1)">
       <defs>
        <path id="DejaVuSans-2212" d="M 678 2272 
L 4684 2272 
L 4684 1741 
L 678 1741 
L 678 2272 
z
" transform="scale(0.015625)"/>
        <path id="DejaVuSans-2e" d="M 684 794 
L 1344 794 
L 1344 0 
L 684 0 
L 684 794 
z
" transform="scale(0.015625)"/>
       </defs>
       <use xlink:href="#DejaVuSans-2212"/>
       <use xlink:href="#DejaVuSans-31" transform="translate(83.789062 0)"/>
       <use xlink:href="#DejaVuSans-2e" transform="translate(147.412109 0)"/>
       <use xlink:href="#DejaVuSans-30" transform="translate(179.199219 0)"/>
      </g>
     </g>
    </g>
    <g id="ytick_2">
     <g id="line2d_9">
      <g>
       <use xlink:href="#m379d106885" x="57.6" y="219.605379" style="stroke: #000000; stroke-width: 0.8"/>
      </g>
     </g>
     <g id="text_10">
      <!-- −0.5 -->
      <g transform="translate(26.317187 223.404598) scale(0.1 -0.1)">
       <use xlink:href="#DejaVuSans-2212"/>
       <use xlink:href="#DejaVuSans-30" transform="translate(83.789062 0)"/>
       <use xlink:href="#DejaVuSans-2e" transform="translate(147.412109 0)"/>
       <use xlink:href="#DejaVuSans-35" transform="translate(179.199219 0)"/>
      </g>
     </g>
    </g>
    <g id="ytick_3">
     <g id="line2d_10">
      <g>
       <use xlink:href="#m379d106885" x="57.6" y="163.316457" style="stroke: #000000; stroke-width: 0.8"/>
      </g>
     </g>
     <g id="text_11">
      <!-- 0.0 -->
      <g transform="translate(34.696875 167.115676) scale(0.1 -0.1)">
       <use xlink:href="#DejaVuSans-30"/>
       <use xlink:href="#DejaVuSans-2e" transform="translate(63.623047 0)"/>
       <use xlink:href="#DejaVuSans-30" transform="translate(95.410156 0)"/>
      </g>
     </g>
    </g>
    <g id="ytick_4">
     <g id="line2d_11">
      <g>
       <use xlink:href="#m379d106885" x="57.6" y="107.027535" style="stroke: #000000; stroke-width: 0.8"/>
      </g>
     </g>
     <g id="text_12">
      <!-- 0.5 -->
      <g transform="translate(34.696875 110.826754) scale(0.1 -0.1)">
       <use xlink:href="#DejaVuSans-30"/>
       <use xlink:href="#DejaVuSans-2e" transform="translate(63.623047 0)"/>
       <use xlink:href="#DejaVuSans-35" transform="translate(95.410156 0)"/>
      </g>
     </g>
    </g>
    <g id="ytick_5">
     <g id="line2d_12">
      <g>
       <use xlink:href="#m379d106885" x="57.6" y="50.738613" style="stroke: #000000; stroke-width: 0.8"/>
      </g>
     </g>
     <g id="text_13">
      <!-- 1.0 -->
      <g transform="translate(34.696875 54.537832) scale(0.1 -0.1)">
       <use xlink:href="#DejaVuSans-31"/>
       <use xlink:href="#DejaVuSans-2e" transform="translate(63.623047 0)"/>
       <use xlink:href="#DejaVuSans-30" transform="translate(95.410156 0)"/>
      </g>
     </g>
    </g>
    <g id="text_14">
     <!-- Position (m) -->
     <g transform="translate(20.2375 204.353) rotate(-90) scale(0.1 -0.1)">
      <defs>
       <path id="DejaVuSans-50" d="M 1259 4147 
L 1259 2394 
L 2053 2394 
Q 2494 2394 2734 2622 
Q 2975 2850 2975 3272 
Q 2975 3691 2734 3919 
Q 2494 4147 2053 4147 
L 1259 4147 
z
M 628 4666 
L 2053 4666 
Q 2838 4666 3239 4311 
Q 3641 3956 3641 3272 
Q 3641 2581 3239 2228 
Q 2838 1875 2053 1875 
L 1259 1875 
L 1259 0 
L 628 0 
L 628 4666 
z
" transform="scale(0.015625)"/>
       <path id="DejaVuSans-6f" d="M 1959 3097 
Q 1497 3097 1228 2736 
Q 959 2375 959 1747 
Q 959 1119 1226 758 
Q 1494 397 1959 397 
Q 2419 397 2687 759 
Q 2956 1122 2956 1747 
Q 2956 2369 2687 2733 
Q 2419 3097 1959 3097 
z
M 1959 3584 
Q 2709 3584 3137 3096 
Q 3566 2609 3566 1747 
Q 3566 888 3137 398 
Q 2709 -91 1959 -91 
Q 1206 -91 779 398 
Q 353 888 353 1747 
Q 353 2609 779 3096 
Q 1206 3584 1959 3584 
z
" transform="scale(0.015625)"/>
       <path id="DejaVuSans-74" d="M 1172 4494 
L 1172 3500 
L 2356 3500 
L 2356 3053 
L 1172 3053 
L 1172 1153 
Q 1172 725 1289 603 
Q 1406 481 1766 481 
L 2356 481 
L 2356 0 
L 1766 0 
Q 1100 0 847 248 
Q 594 497 594 1153 
L 594 3053 
L 172 3053 
L 172 3500 
L 594 3500 
L 594 4494 
L 1172 4494 
z
" transform="scale(0.015625)"/>
       <path id="DejaVuSans-6e" d="M 3513 2113 
L 3513 0 
L 2938 0 
L 2938 2094 
Q 2938 2591 2744 2837 
Q 2550 3084 2163 3084 
Q 1697 3084 1428 2787 
Q 1159 2491 1159 1978 
L 1159 0 
L 581 0 
L 581 3500 
L 1159 3500 
L 1159 2956 
Q 1366 3272 1645 3428 
Q 1925 3584 2291 3584 
Q 2894 3584 3203 3211 
Q 3513 2838 3513 2113 
z
" transform="scale(0.015625)"/>
      </defs>
      <use xlink:href="#DejaVuSans-50"/>
      <use xlink:href="#DejaVuSans-6f" transform="translate(56.677734 0)"/>
      <use xlink:href="#DejaVuSans-73" transform="translate(117.859375 0)"/>
      <use xlink:href="#DejaVuSans-69" transform="translate(169.958984 0)"/>
      <use xlink:href="#DejaVuSans-74" transform="translate(197.742188 0)"/>
      <use xlink:href="#DejaVuSans-69" transform="translate(236.951172 0)"/>
      <use xlink:href="#DejaVuSans-6f" transform="translate(264.734375 0)"/>
      <use xlink:href="#DejaVuSans-6e" transform="translate(325.916016 0)"/>
      <use xlink:href="#DejaVuSans-20" transform="translate(389.294922 0)"/>
      <use xlink:href="#DejaVuSans-28" transform="translate(421.082031 0)"/>
      <use xlink:href="#DejaVuSans-6d" transform="translate(460.095703 0)"/>
      <use xlink:href="#DejaVuSans-29" transform="translate(557.507812 0)"/>
     </g>
    </g>
   </g>
   <g id="line2d_13">
    <path d="M 73.832727 163.316457 
L 73.940963 161.749357 
L 74.103318 153.508071 
L 74.373908 123.914216 
L 74.806853 73.729287 
L 75.023326 67.308249 
L 75.077444 67.672001 
L 75.239798 73.482186 
L 75.456271 92.297735 
L 75.997452 149.389117 
L 76.159806 152.390291 
L 76.268042 150.449206 
L 76.430397 141.615683 
L 76.700987 111.433993 
L 77.025696 84.661545 
L 77.18805 82.027405 
L 77.296286 84.218391 
L 77.458641 93.43983 
L 78.162176 147.405326 
L 78.270412 145.449471 
L 78.432767 136.566993 
L 79.028066 94.952153 
L 79.136302 96.519181 
L 79.298656 104.825025 
L 79.839838 143.676987 
L 79.893956 143.823107 
L 80.002192 141.732109 
L 80.164546 132.632731 
L 80.651609 98.935376 
L 80.705727 98.739476 
L 80.813964 100.730384 
L 80.976318 109.682934 
L 81.409263 139.457615 
L 81.463381 139.969853 
L 81.517499 139.685899 
L 81.625735 136.73061 
L 81.842208 121.270139 
L 82.112798 102.624266 
L 82.221034 100.729287 
L 82.275153 100.9782 
L 82.383389 103.866955 
L 82.599861 119.118835 
L 82.870452 135.659628 
L 82.978688 136.693099 
L 83.086924 134.544597 
L 83.249279 125.347563 
L 83.628105 101.568118 
L 83.682223 101.169859 
L 83.736342 101.569414 
L 83.898696 107.552745 
L 84.385759 132.635979 
L 84.493995 130.424429 
L 84.656349 121.129387 
L 84.981058 101.46372 
L 85.035176 100.859424 
L 85.089294 101.052784 
L 85.19753 103.822566 
L 85.684593 126.746548 
L 85.738712 126.083793 
L 85.901066 119.314379 
L 86.225775 101.959778 
L 86.279893 101.6501 
L 86.388129 103.423843 
L 86.604601 115.625162 
L 86.821074 121.938589 
L 86.92931 120.300436 
L 87.145782 108.225682 
L 87.362255 101.452945 
L 87.416373 101.759739 
L 87.524609 104.767144 
L 87.849318 118.177406 
L 87.903436 118.002146 
L 88.011672 115.256419 
L 88.390499 101.357569 
L 88.498735 103.743984 
L 88.823444 114.571785 
L 88.93168 112.475336 
L 89.256389 101.278145 
L 89.364625 103.078906 
L 89.635216 111.41212 
L 89.689334 111.031549 
L 89.851688 105.283912 
L 90.014042 101.026883 
L 90.06816 101.209597 
L 90.176397 103.975887 
L 90.392869 108.655535 
L 90.501105 106.296301 
L 90.717578 100.89808 
L 90.825814 102.747335 
L 90.988168 106.63632 
L 91.042286 106.46887 
L 91.312877 100.631725 
L 91.366995 101.131462 
L 91.583468 104.911961 
L 91.691704 102.842447 
L 91.854058 100.401223 
L 92.070531 103.536974 
L 92.124649 102.98411 
L 92.287003 100.046936 
L 92.341121 100.203054 
L 92.503475 102.359441 
L 92.557594 102.190205 
L 92.774066 99.632859 
L 92.990538 101.310257 
L 93.044657 100.866546 
L 93.207011 99.157349 
L 93.261129 99.307338 
L 93.423483 100.411487 
L 93.477601 100.200037 
L 93.694074 98.687556 
L 93.856428 99.538134 
L 93.910546 99.48168 
L 94.127019 98.148856 
L 94.181137 98.253577 
L 94.343491 98.751849 
L 94.614082 97.650901 
L 94.6682 97.795373 
L 94.776436 98.041276 
L 94.830554 97.94459 
L 95.047027 97.1128 
L 95.101145 97.170905 
L 95.209381 97.368715 
L 95.263499 97.333517 
L 95.53409 96.613964 
L 95.588208 96.679551 
L 95.696444 96.741157 
L 96.129389 96.181444 
L 96.291743 95.855909 
L 96.454098 95.638356 
L 96.616452 95.627231 
L 96.995279 95.186961 
L 97.157633 95.016196 
L 97.374105 94.76244 
L 97.590578 94.627861 
L 97.861168 94.363136 
L 98.077641 94.197889 
L 98.348231 93.995412 
L 98.618822 93.764492 
L 99.53883 93.212554 
L 100.621192 92.77238 
L 102.298853 92.483319 
L 103.489452 92.594518 
L 104.625932 92.938225 
L 105.816531 93.530221 
L 107.115365 94.429426 
L 108.576554 95.723393 
L 110.254216 97.522001 
L 112.310704 100.076289 
L 115.395436 104.314016 
L 119.508413 109.912581 
L 121.673137 112.487168 
L 123.459035 114.288087 
L 125.082578 115.61808 
L 126.543767 116.537003 
L 127.89672 117.13888 
L 127.950838 117.147548 
L 128.059074 115.323313 
L 128.221428 111.973181 
L 128.275547 112.346404 
L 128.492019 116.842616 
L 128.546137 116.503431 
L 128.76261 113.21763 
L 128.979082 116.991235 
L 129.0332 116.723215 
L 129.195554 114.426946 
L 129.249673 114.708045 
L 129.466145 117.539857 
L 129.628499 115.877856 
L 129.682617 115.917775 
L 129.89909 118.506596 
L 129.953208 118.366136 
L 130.115562 117.426385 
L 130.277917 119.192024 
L 130.386153 119.778024 
L 130.548507 119.17406 
L 130.602625 119.387468 
L 130.873216 121.343884 
L 130.981452 121.120498 
L 131.089688 121.644404 
L 131.360279 123.256513 
L 131.414397 123.240608 
L 131.522633 123.65612 
L 131.847342 125.522569 
L 131.955578 125.904625 
L 132.659113 130.34122 
L 132.929704 131.78318 
L 133.525003 135.888074 
L 134.390893 142.096181 
L 136.393263 158.689335 
L 138.016806 173.884447 
L 141.696838 210.813169 
L 144.727452 240.254324 
L 146.675704 257.082124 
L 148.299247 269.223939 
L 149.6522 277.777067 
L 150.842799 283.997826 
L 151.925161 288.524739 
L 152.845169 291.496821 
L 153.65694 293.438446 
L 154.360476 294.601817 
L 154.955775 295.209632 
L 155.496956 295.464716 
L 155.984019 295.461698 
L 156.5252 295.182376 
L 157.120499 294.561963 
L 157.715799 293.622075 
L 158.419334 292.100789 
L 159.285224 289.652453 
L 160.25935 286.176339 
L 161.39583 281.232336 
L 162.694665 274.5379 
L 164.26409 265.203317 
L 166.26646 251.821754 
L 169.730019 226.82133 
L 172.814752 205.219146 
L 174.763004 193.066962 
L 176.386547 184.278337 
L 177.793618 177.847013 
L 179.038334 173.179596 
L 180.120696 169.951687 
L 181.094822 167.73197 
L 181.906594 166.386966 
L 182.068948 166.218839 
L 182.177185 168.195165 
L 182.339539 171.103443 
L 182.447775 169.215227 
L 182.61013 166.131789 
L 182.718366 167.763809 
L 182.826602 169.634382 
L 182.88072 169.469555 
L 183.097193 165.764709 
L 183.151311 166.203725 
L 183.313665 168.277639 
L 183.421901 166.820364 
L 183.530137 165.193375 
L 183.584256 165.245109 
L 183.74661 166.878129 
L 183.800728 166.69766 
L 184.0172 164.270442 
L 184.071319 164.526867 
L 184.179555 165.37698 
L 184.233673 165.36726 
L 184.450145 163.224083 
L 184.558382 163.518156 
L 184.666618 163.878913 
L 184.774854 163.088523 
L 184.937208 161.914008 
L 185.099563 162.276553 
L 185.153681 162.120681 
L 185.424271 160.462479 
L 185.478389 160.536488 
L 185.532508 160.585593 
L 185.640744 160.192072 
L 185.911334 158.824658 
L 186.019571 158.738244 
L 187.534878 151.888477 
L 188.130177 148.96246 
L 188.671358 146.297879 
L 189.320775 142.858426 
L 197.546728 94.575041 
L 199.49498 84.501125 
L 201.118523 77.23386 
L 202.525594 71.93064 
L 203.716193 68.244493 
L 204.798555 65.570733 
L 205.772681 63.736078 
L 206.638571 62.567888 
L 207.396224 61.904893 
L 208.045642 61.602553 
L 208.695059 61.538273 
L 209.290358 61.694723 
L 209.993894 62.139097 
L 210.697429 62.850333 
L 211.563319 64.084741 
L 212.537445 65.923213 
L 213.619807 68.484551 
L 214.864523 72.041036 
L 216.325712 76.935794 
L 218.11161 83.756279 
L 220.546925 94.015093 
L 225.796382 116.362437 
L 227.744634 123.571845 
L 229.368177 128.758573 
L 230.775248 132.53165 
L 232.019965 135.250392 
L 233.102327 137.112488 
L 234.076453 138.375732 
L 234.942343 139.165014 
L 235.754114 139.618791 
L 236.132941 139.736143 
L 236.187059 139.653006 
L 236.349413 135.736232 
L 236.45765 134.591217 
L 236.565886 136.586248 
L 236.72824 139.201103 
L 236.944713 135.57745 
L 236.998831 135.861545 
L 237.215303 139.155934 
L 237.431776 136.660448 
L 237.485894 137.241385 
L 237.648248 139.542075 
L 237.702366 139.317453 
L 237.86472 137.741333 
L 237.918839 138.028132 
L 238.135311 140.154139 
L 238.297665 139.009615 
L 238.351783 139.10837 
L 238.568256 141.098111 
L 238.622374 140.991562 
L 238.784728 140.421217 
L 239.055319 142.265925 
L 239.109437 142.129997 
L 239.217673 141.921039 
L 239.325909 142.551754 
L 239.542382 143.669525 
L 239.650618 143.576711 
L 239.758854 144.054312 
L 240.029445 145.342416 
L 240.137681 145.49033 
L 242.681232 158.691345 
L 243.438886 163.319353 
L 246.740091 186.932768 
L 250.636595 217.726601 
L 253.288382 237.6689 
L 255.182516 250.318241 
L 256.751941 259.377378 
L 258.104894 265.962513 
L 259.295492 270.723079 
L 260.323736 274.008309 
L 261.243744 276.276827 
L 262.055516 277.743474 
L 262.759051 278.606402 
L 263.408469 279.067586 
L 263.94965 279.207454 
L 264.490831 279.12846 
L 265.032012 278.833748 
L 265.627311 278.263218 
L 266.330847 277.258532 
L 267.142618 275.681631 
L 268.062626 273.374013 
L 269.144988 270.000135 
L 270.389705 265.321922 
L 271.850894 258.891709 
L 273.636792 249.941256 
L 276.072107 236.492831 
L 281.267445 207.522345 
L 283.215697 198.066536 
L 284.785122 191.467727 
L 286.192193 186.475761 
L 287.43691 182.866923 
L 288.519272 180.384218 
L 289.493398 178.689322 
L 290.251052 177.730356 
L 290.30517 177.855638 
L 290.521642 182.576354 
L 290.629878 181.74633 
L 290.846351 177.831862 
L 291.062823 181.315603 
L 291.116941 180.87327 
L 291.333414 177.504896 
L 291.549886 179.852529 
L 291.766359 176.809872 
L 291.820477 177.0701 
L 291.982831 178.532068 
L 292.091067 177.36232 
L 292.253422 175.956039 
L 292.415776 177.038095 
L 292.469894 176.866421 
L 292.686367 174.773509 
L 292.740485 174.893447 
L 292.848721 175.419913 
L 292.902839 175.364804 
L 293.17343 173.413702 
L 293.227548 173.549419 
L 293.335784 173.696758 
L 293.498138 172.458329 
L 293.660493 171.840484 
L 293.768729 171.89622 
L 293.876965 171.345775 
L 294.093437 170.051709 
L 294.201674 169.985399 
L 294.30991 169.536253 
L 294.5805 168.055923 
L 294.688737 167.824878 
L 295.771099 162.215758 
L 296.474634 158.465695 
L 297.394642 153.033395 
L 298.855831 143.681746 
L 304.105288 106.80177 
L 306.702957 89.446659 
L 308.542973 78.574853 
L 310.112398 70.585569 
L 311.465351 64.810854 
L 312.655949 60.665209 
L 313.684193 57.83052 
L 314.604201 55.897949 
L 315.415973 54.673373 
L 316.119508 53.977949 
L 316.768926 53.636643 
L 317.364225 53.569449 
L 317.905406 53.717851 
L 318.554823 54.15788 
L 319.258359 54.933397 
L 320.016012 56.119364 
L 320.881902 57.892706 
L 321.856028 60.392041 
L 322.992508 63.929751 
L 324.345461 68.914338 
L 325.969005 75.816596 
L 328.025493 85.610092 
L 335.926737 124.345602 
L 337.604398 130.93426 
L 339.065587 135.797637 
L 340.310304 139.217568 
L 341.446784 141.716583 
L 342.42091 143.365471 
L 343.2868 144.44083 
L 344.098572 145.112812 
L 344.369162 145.264571 
L 344.42328 145.034793 
L 344.639753 140.213125 
L 344.693871 140.309353 
L 344.910343 144.865331 
L 345.018579 143.88566 
L 345.180934 141.278334 
L 345.28917 142.97715 
L 345.397406 144.926074 
L 345.451524 144.829384 
L 345.613879 142.464953 
L 345.667997 142.551328 
L 345.884469 145.388787 
L 345.938587 145.0191 
L 346.100942 143.624175 
L 346.317414 146.06114 
L 346.42565 145.574398 
L 346.533887 144.901796 
L 346.588005 145.125463 
L 346.804477 147.043909 
L 346.858595 146.859853 
L 346.966831 146.333556 
L 347.02095 146.426507 
L 347.29154 148.209586 
L 347.345658 148.04091 
L 347.399776 147.887002 
L 347.453894 147.917521 
L 347.724485 149.652765 
L 347.832721 149.546692 
L 347.886839 149.566645 
L 348.049194 150.580978 
L 348.211548 151.296219 
L 348.319784 151.344182 
L 348.42802 151.810682 
L 348.698611 153.165805 
L 348.806847 153.394925 
L 350.700981 163.054411 
L 355.355139 194.02464 
L 361.362249 237.418133 
L 363.256383 249.124313 
L 364.825808 257.472275 
L 366.178761 263.510668 
L 367.369359 267.849605 
L 368.397603 270.821052 
L 369.317611 272.850454 
L 370.129383 274.14016 
L 370.832918 274.87659 
L 371.482336 275.243073 
L 372.077635 275.321338 
L 372.564698 275.198842 
L 373.105879 274.870146 
L 373.755296 274.209313 
L 374.51295 273.094191 
L 375.37884 271.372938 
L 376.352965 268.900823 
L 377.489446 265.355265 
L 378.78828 260.524213 
L 380.303588 254.000808 
L 382.25184 244.547429 
L 385.336572 228.27146 
L 388.854249 209.993675 
L 390.856619 200.717834 
L 392.480162 194.172933 
L 393.887233 189.359478 
L 395.13195 185.845134 
L 396.214312 183.395561 
L 397.188438 181.692523 
L 398.054328 180.585618 
L 398.487273 180.176806 
L 398.487273 180.176806 
" clip-path="url(#pa943a2ff73)" style="fill: none; stroke: #1f77b4; stroke-width: 1.5; stroke-linecap: square"/>
   </g>
   <g id="line2d_14">
    <path d="M 73.832727 107.027535 
L 127.89672 107.027535 
L 128.059074 219.605379 
L 182.01483 219.605379 
L 182.177185 107.027535 
L 236.132941 107.027535 
L 236.295295 219.605379 
L 290.251052 219.605379 
L 290.413406 107.027535 
L 344.369162 107.027535 
L 344.531516 219.605379 
L 398.433155 219.605379 
L 398.487273 107.027535 
L 398.487273 107.027535 
" clip-path="url(#pa943a2ff73)" style="fill: none; stroke-dasharray: 5.55,2.4; stroke-dashoffset: 0; stroke: #ff7f0e; stroke-opacity: 0.6; stroke-width: 1.5"/>
   </g>
   <g id="patch_3">
    <path d="M 57.6 307.584 
L 57.6 41.472 
" style="fill: none; stroke: #000000; stroke-width: 0.8; stroke-linejoin: miter; stroke-linecap: square"/>
   </g>
   <g id="patch_4">
    <path d="M 414.72 307.584 
L 414.72 41.472 
" style="fill: none; stroke: #000000; stroke-width: 0.8; stroke-linejoin: miter; stroke-linecap: square"/>
   </g>
   <g id="patch_5">
    <path d="M 57.6 307.584 
L 414.72 307.584 
" style="fill: none; stroke: #000000; stroke-width: 0.8; stroke-linejoin: miter; stroke-linecap: square"/>
   </g>
   <g id="patch_6">
    <path d="M 57.6 41.472 
L 414.72 41.472 
" style="fill: none; stroke: #000000; stroke-width: 0.8; stroke-linejoin: miter; stroke-linecap: square"/>
   </g>
   <g id="text_15">
    <!-- Cart position x' -->
    <g transform="translate(190.695 35.472) scale(0.12 -0.12)">
     <defs>
      <path id="DejaVuSans-43" d="M 4122 4306 
L 4122 3641 
Q 3803 3938 3442 4084 
Q 3081 4231 2675 4231 
Q 1875 4231 1450 3742 
Q 1025 3253 1025 2328 
Q 1025 1406 1450 917 
Q 1875 428 2675 428 
Q 3081 428 3442 575 
Q 3803 722 4122 1019 
L 4122 359 
Q 3791 134 3420 21 
Q 3050 -91 2638 -91 
Q 1578 -91 968 557 
Q 359 1206 359 2328 
Q 359 3453 968 4101 
Q 1578 4750 2638 4750 
Q 3056 4750 3426 4639 
Q 3797 4528 4122 4306 
z
" transform="scale(0.015625)"/>
      <path id="DejaVuSans-61" d="M 2194 1759 
Q 1497 1759 1228 1600 
Q 959 1441 959 1056 
Q 959 750 1161 570 
Q 1363 391 1709 391 
Q 2188 391 2477 730 
Q 2766 1069 2766 1631 
L 2766 1759 
L 2194 1759 
z
M 3341 1997 
L 3341 0 
L 2766 0 
L 2766 531 
Q 2569 213 2275 61 
Q 1981 -91 1556 -91 
Q 1019 -91 701 211 
Q 384 513 384 1019 
Q 384 1609 779 1909 
Q 1175 2209 1959 2209 
L 2766 2209 
L 2766 2266 
Q 2766 2663 2505 2880 
Q 2244 3097 1772 3097 
Q 1472 3097 1187 3025 
Q 903 2953 641 2809 
L 641 3341 
Q 956 3463 1253 3523 
Q 1550 3584 1831 3584 
Q 2591 3584 2966 3190 
Q 3341 2797 3341 1997 
z
" transform="scale(0.015625)"/>
      <path id="DejaVuSans-72" d="M 2631 2963 
Q 2534 3019 2420 3045 
Q 2306 3072 2169 3072 
Q 1681 3072 1420 2755 
Q 1159 2438 1159 1844 
L 1159 0 
L 581 0 
L 581 3500 
L 1159 3500 
L 1159 2956 
Q 1341 3275 1631 3429 
Q 1922 3584 2338 3584 
Q 2397 3584 2469 3576 
Q 2541 3569 2628 3553 
L 2631 2963 
z
" transform="scale(0.015625)"/>
      <path id="DejaVuSans-70" d="M 1159 525 
L 1159 -1331 
L 581 -1331 
L 581 3500 
L 1159 3500 
L 1159 2969 
Q 1341 3281 1617 3432 
Q 1894 3584 2278 3584 
Q 2916 3584 3314 3078 
Q 3713 2572 3713 1747 
Q 3713 922 3314 415 
Q 2916 -91 2278 -91 
Q 1894 -91 1617 61 
Q 1341 213 1159 525 
z
M 3116 1747 
Q 3116 2381 2855 2742 
Q 2594 3103 2138 3103 
Q 1681 3103 1420 2742 
Q 1159 2381 1159 1747 
Q 1159 1113 1420 752 
Q 1681 391 2138 391 
Q 2594 391 2855 752 
Q 3116 1113 3116 1747 
z
" transform="scale(0.015625)"/>
      <path id="DejaVuSans-78" d="M 3513 3500 
L 2247 1797 
L 3578 0 
L 2900 0 
L 1881 1375 
L 863 0 
L 184 0 
L 1544 1831 
L 300 3500 
L 978 3500 
L 1906 2253 
L 2834 3500 
L 3513 3500 
z
" transform="scale(0.015625)"/>
      <path id="DejaVuSans-27" d="M 1147 4666 
L 1147 2931 
L 616 2931 
L 616 4666 
L 1147 4666 
z
" transform="scale(0.015625)"/>
     </defs>
     <use xlink:href="#DejaVuSans-43"/>
     <use xlink:href="#DejaVuSans-61" transform="translate(69.824219 0)"/>
     <use xlink:href="#DejaVuSans-72" transform="translate(131.103516 0)"/>
     <use xlink:href="#DejaVuSans-74" transform="translate(172.216797 0)"/>
     <use xlink:href="#DejaVuSans-20" transform="translate(211.425781 0)"/>
     <use xlink:href="#DejaVuSans-70" transform="translate(243.212891 0)"/>
     <use xlink:href="#DejaVuSans-6f" transform="translate(306.689453 0)"/>
     <use xlink:href="#DejaVuSans-73" transform="translate(367.871094 0)"/>
     <use xlink:href="#DejaVuSans-69" transform="translate(419.970703 0)"/>
     <use xlink:href="#DejaVuSans-74" transform="translate(447.753906 0)"/>
     <use xlink:href="#DejaVuSans-69" transform="translate(486.962891 0)"/>
     <use xlink:href="#DejaVuSans-6f" transform="translate(514.746094 0)"/>
     <use xlink:href="#DejaVuSans-6e" transform="translate(575.927734 0)"/>
     <use xlink:href="#DejaVuSans-20" transform="translate(639.306641 0)"/>
     <use xlink:href="#DejaVuSans-78" transform="translate(671.09375 0)"/>
     <use xlink:href="#DejaVuSans-27" transform="translate(730.273438 0)"/>
    </g>
   </g>
   <g id="legend_1">
    <g id="patch_7">
     <path d="M 64.6 79.106375 
L 191.45625 79.106375 
Q 193.45625 79.106375 193.45625 77.106375 
L 193.45625 48.472 
Q 193.45625 46.472 191.45625 46.472 
L 64.6 46.472 
Q 62.6 46.472 62.6 48.472 
L 62.6 77.106375 
Q 62.6 79.106375 64.6 79.106375 
z
" style="fill: #ffffff; opacity: 0.8; stroke: #cccccc; stroke-linejoin: miter"/>
    </g>
    <g id="line2d_15">
     <path d="M 66.6 54.570438 
L 76.6 54.570438 
L 86.6 54.570438 
" style="fill: none; stroke: #1f77b4; stroke-width: 1.5; stroke-linecap: square"/>
    </g>
    <g id="text_16">
     <!-- Cart position x -->
     <g transform="translate(94.6 58.070438) scale(0.1 -0.1)">
      <use xlink:href="#DejaVuSans-43"/>
      <use xlink:href="#DejaVuSans-61" transform="translate(69.824219 0)"/>
      <use xlink:href="#DejaVuSans-72" transform="translate(131.103516 0)"/>
      <use xlink:href="#DejaVuSans-74" transform="translate(172.216797 0)"/>
      <use xlink:href="#DejaVuSans-20" transform="translate(211.425781 0)"/>
      <use xlink:href="#DejaVuSans-70" transform="translate(243.212891 0)"/>
      <use xlink:href="#DejaVuSans-6f" transform="translate(306.689453 0)"/>
      <use xlink:href="#DejaVuSans-73" transform="translate(367.871094 0)"/>
      <use xlink:href="#DejaVuSans-69" transform="translate(419.970703 0)"/>
      <use xlink:href="#DejaVuSans-74" transform="translate(447.753906 0)"/>
      <use xlink:href="#DejaVuSans-69" transform="translate(486.962891 0)"/>
      <use xlink:href="#DejaVuSans-6f" transform="translate(514.746094 0)"/>
      <use xlink:href="#DejaVuSans-6e" transform="translate(575.927734 0)"/>
      <use xlink:href="#DejaVuSans-20" transform="translate(639.306641 0)"/>
      <use xlink:href="#DejaVuSans-78" transform="translate(671.09375 0)"/>
     </g>
    </g>
    <g id="line2d_16">
     <path d="M 66.6 69.248563 
L 76.6 69.248563 
L 86.6 69.248563 
" style="fill: none; stroke-dasharray: 5.55,2.4; stroke-dashoffset: 0; stroke: #ff7f0e; stroke-opacity: 0.6; stroke-width: 1.5"/>
    </g>
    <g id="text_17">
     <!-- Reference x_target -->
     <g transform="translate(94.6 72.748563) scale(0.1 -0.1)">
      <defs>
       <path id="DejaVuSans-52" d="M 2841 2188 
Q 3044 2119 3236 1894 
Q 3428 1669 3622 1275 
L 4263 0 
L 3584 0 
L 2988 1197 
Q 2756 1666 2539 1819 
Q 2322 1972 1947 1972 
L 1259 1972 
L 1259 0 
L 628 0 
L 628 4666 
L 2053 4666 
Q 2853 4666 3247 4331 
Q 3641 3997 3641 3322 
Q 3641 2881 3436 2590 
Q 3231 2300 2841 2188 
z
M 1259 4147 
L 1259 2491 
L 2053 2491 
Q 2509 2491 2742 2702 
Q 2975 2913 2975 3322 
Q 2975 3731 2742 3939 
Q 2509 4147 2053 4147 
L 1259 4147 
z
" transform="scale(0.015625)"/>
       <path id="DejaVuSans-66" d="M 2375 4863 
L 2375 4384 
L 1825 4384 
Q 1516 4384 1395 4259 
Q 1275 4134 1275 3809 
L 1275 3500 
L 2222 3500 
L 2222 3053 
L 1275 3053 
L 1275 0 
L 697 0 
L 697 3053 
L 147 3053 
L 147 3500 
L 697 3500 
L 697 3744 
Q 697 4328 969 4595 
Q 1241 4863 1831 4863 
L 2375 4863 
z
" transform="scale(0.015625)"/>
       <path id="DejaVuSans-63" d="M 3122 3366 
L 3122 2828 
Q 2878 2963 2633 3030 
Q 2388 3097 2138 3097 
Q 1578 3097 1268 2742 
Q 959 2388 959 1747 
Q 959 1106 1268 751 
Q 1578 397 2138 397 
Q 2388 397 2633 464 
Q 2878 531 3122 666 
L 3122 134 
Q 2881 22 2623 -34 
Q 2366 -91 2075 -91 
Q 1284 -91 818 406 
Q 353 903 353 1747 
Q 353 2603 823 3093 
Q 1294 3584 2113 3584 
Q 2378 3584 2631 3529 
Q 2884 3475 3122 3366 
z
" transform="scale(0.015625)"/>
       <path id="DejaVuSans-5f" d="M 3263 -1063 
L 3263 -1509 
L -63 -1509 
L -63 -1063 
L 3263 -1063 
z
" transform="scale(0.015625)"/>
       <path id="DejaVuSans-67" d="M 2906 1791 
Q 2906 2416 2648 2759 
Q 2391 3103 1925 3103 
Q 1463 3103 1205 2759 
Q 947 2416 947 1791 
Q 947 1169 1205 825 
Q 1463 481 1925 481 
Q 2391 481 2648 825 
Q 2906 1169 2906 1791 
z
M 3481 434 
Q 3481 -459 3084 -895 
Q 2688 -1331 1869 -1331 
Q 1566 -1331 1297 -1286 
Q 1028 -1241 775 -1147 
L 775 -588 
Q 1028 -725 1275 -790 
Q 1522 -856 1778 -856 
Q 2344 -856 2625 -561 
Q 2906 -266 2906 331 
L 2906 616 
Q 2728 306 2450 153 
Q 2172 0 1784 0 
Q 1141 0 747 490 
Q 353 981 353 1791 
Q 353 2603 747 3093 
Q 1141 3584 1784 3584 
Q 2172 3584 2450 3431 
Q 2728 3278 2906 2969 
L 2906 3500 
L 3481 3500 
L 3481 434 
z
" transform="scale(0.015625)"/>
      </defs>
      <use xlink:href="#DejaVuSans-52"/>
      <use xlink:href="#DejaVuSans-65" transform="translate(64.982422 0)"/>
      <use xlink:href="#DejaVuSans-66" transform="translate(126.505859 0)"/>
      <use xlink:href="#DejaVuSans-65" transform="translate(161.710938 0)"/>
      <use xlink:href="#DejaVuSans-72" transform="translate(223.234375 0)"/>
      <use xlink:href="#DejaVuSans-65" transform="translate(262.097656 0)"/>
      <use xlink:href="#DejaVuSans-6e" transform="translate(323.621094 0)"/>
      <use xlink:href="#DejaVuSans-63" transform="translate(387 0)"/>
      <use xlink:href="#DejaVuSans-65" transform="translate(441.980469 0)"/>
      <use xlink:href="#DejaVuSans-20" transform="translate(503.503906 0)"/>
      <use xlink:href="#DejaVuSans-78" transform="translate(535.291016 0)"/>
      <use xlink:href="#DejaVuSans-5f" transform="translate(594.470703 0)"/>
      <use xlink:href="#DejaVuSans-74" transform="translate(644.470703 0)"/>
      <use xlink:href="#DejaVuSans-61" transform="translate(683.679688 0)"/>
      <use xlink:href="#DejaVuSans-72" transform="translate(744.958984 0)"/>
      <use xlink:href="#DejaVuSans-67" transform="translate(784.322266 0)"/>
      <use xlink:href="#DejaVuSans-65" transform="translate(847.798828 0)"/>
      <use xlink:href="#DejaVuSans-74" transform="translate(909.322266 0)"/>
     </g>
    </g>
   </g>
  </g>
 </g>
 <defs>
  <clipPath id="pa943a2ff73">
   <rect x="57.6" y="41.472" width="357.12" height="266.112"/>
  </clipPath>
 </defs>
</svg>
