<?xml version="1.0" encoding="utf-8" standalone="no"?>
<!DOCTYPE svg PUBLIC "-//W3C//DTD SVG 1.1//EN"
  "http://www.w3.org/Graphics/SVG/1.1/DTD/svg11.dtd">
<svg xmlns:xlink="http://www.w3.org/1999/xlink" width="864pt" height="432pt" viewBox="0 0 864 432" xmlns="http://www.w3.org/2000/svg" version="1.1">
 <metadata>
  <rdf:RDF xmlns:dc="http://purl.org/dc/elements/1.1/" xmlns:cc="http://creativecommons.org/ns#" xmlns:rdf="http://www.w3.org/1999/02/22-rdf-syntax-ns#">
   <cc:Work>
    <dc:type rdf:resource="http://purl.org/dc/dcmitype/StillImage"/>
    <dc:date>2025-04-29T12:33:15.988762</dc:date>
    <dc:format>image/svg+xml</dc:format>
    <dc:creator>
     <cc:Agent>
      <dc:title>Matplotlib v3.10.1, https://matplotlib.org/</dc:title>
     </cc:Agent>
    </dc:creator>
   </cc:Work>
  </rdf:RDF>
 </metadata>
 <defs>
  <style type="text/css">*{stroke-linejoin: round; stroke-linecap: butt}</style>
 </defs>
 <g id="figure_1">
  <g id="patch_1">
   <path d="M 0 432 
L 864 432 
L 864 0 
L 0 0 
z
" style="fill: #ffffff"/>
  </g>
  <g id="axes_1">
   <g id="patch_2">
    <path d="M 56.09 187.48 
L 853.2 187.48 
L 853.2 26.88 
L 56.09 26.88 
z
" style="fill: #ffffff"/>
   </g>
   <g id="matplotlib.axis_1">
    <g id="xtick_1">
     <g id="line2d_1">
      <defs>
       <path id="m54851277fa" d="M 0 0 
L 0 3.5 
" style="stroke: #000000; stroke-width: 0.8"/>
      </defs>
      <g>
       <use xlink:href="#m54851277fa" x="92.322273" y="187.48" style="stroke: #000000; stroke-width: 0.8"/>
      </g>
     </g>
     <g id="text_1">
      <!-- 0 -->
      <g transform="translate(89.141023 202.078437) scale(0.1 -0.1)">
       <defs>
        <path id="DejaVuSans-30" d="M 2034 4250 
Q 1547 4250 1301 3770 
Q 1056 3291 1056 2328 
Q 1056 1369 1301 889 
Q 1547 409 2034 409 
Q 2525 409 2770 889 
Q 3016 1369 3016 2328 
Q 3016 3291 2770 3770 
Q 2525 4250 2034 4250 
z
M 2034 4750 
Q 2819 4750 3233 4129 
Q 3647 3509 3647 2328 
Q 3647 1150 3233 529 
Q 2819 -91 2034 -91 
Q 1250 -91 836 529 
Q 422 1150 422 2328 
Q 422 3509 836 4129 
Q 1250 4750 2034 4750 
z
" transform="scale(0.015625)"/>
       </defs>
       <use xlink:href="#DejaVuSans-30"/>
      </g>
     </g>
    </g>
    <g id="xtick_2">
     <g id="line2d_2">
      <g>
       <use xlink:href="#m54851277fa" x="213.096515" y="187.48" style="stroke: #000000; stroke-width: 0.8"/>
      </g>
     </g>
     <g id="text_2">
      <!-- 10 -->
      <g transform="translate(206.734015 202.078437) scale(0.1 -0.1)">
       <defs>
        <path id="DejaVuSans-31" d="M 794 531 
L 1825 531 
L 1825 4091 
L 703 3866 
L 703 4441 
L 1819 4666 
L 2450 4666 
L 2450 531 
L 3481 531 
L 3481 0 
L 794 0 
L 794 531 
z
" transform="scale(0.015625)"/>
       </defs>
       <use xlink:href="#DejaVuSans-31"/>
       <use xlink:href="#DejaVuSans-30" transform="translate(63.623047 0)"/>
      </g>
     </g>
    </g>
    <g id="xtick_3">
     <g id="line2d_3">
      <g>
       <use xlink:href="#m54851277fa" x="333.870758" y="187.48" style="stroke: #000000; stroke-width: 0.8"/>
      </g>
     </g>
     <g id="text_3">
      <!-- 20 -->
      <g transform="translate(327.508258 202.078437) scale(0.1 -0.1)">
       <defs>
        <path id="DejaVuSans-32" d="M 1228 531 
L 3431 531 
L 3431 0 
L 469 0 
L 469 531 
Q 828 903 1448 1529 
Q 2069 2156 2228 2338 
Q 2531 2678 2651 2914 
Q 2772 3150 2772 3378 
Q 2772 3750 2511 3984 
Q 2250 4219 1831 4219 
Q 1534 4219 1204 4116 
Q 875 4013 500 3803 
L 500 4441 
Q 881 4594 1212 4672 
Q 1544 4750 1819 4750 
Q 2544 4750 2975 4387 
Q 3406 4025 3406 3419 
Q 3406 3131 3298 2873 
Q 3191 2616 2906 2266 
Q 2828 2175 2409 1742 
Q 1991 1309 1228 531 
z
" transform="scale(0.015625)"/>
       </defs>
       <use xlink:href="#DejaVuSans-32"/>
       <use xlink:href="#DejaVuSans-30" transform="translate(63.623047 0)"/>
      </g>
     </g>
    </g>
    <g id="xtick_4">
     <g id="line2d_4">
      <g>
       <use xlink:href="#m54851277fa" x="454.645" y="187.48" style="stroke: #000000; stroke-width: 0.8"/>
      </g>
     </g>
     <g id="text_4">
      <!-- 30 -->
      <g transform="translate(448.2825 202.078437) scale(0.1 -0.1)">
       <defs>
        <path id="DejaVuSans-33" d="M 2597 2516 
Q 3050 2419 3304 2112 
Q 3559 1806 3559 1356 
Q 3559 666 3084 287 
Q 2609 -91 1734 -91 
Q 1441 -91 1130 -33 
Q 819 25 488 141 
L 488 750 
Q 750 597 1062 519 
Q 1375 441 1716 441 
Q 2309 441 2620 675 
Q 2931 909 2931 1356 
Q 2931 1769 2642 2001 
Q 2353 2234 1838 2234 
L 1294 2234 
L 1294 2753 
L 1863 2753 
Q 2328 2753 2575 2939 
Q 2822 3125 2822 3475 
Q 2822 3834 2567 4026 
Q 2313 4219 1838 4219 
Q 1578 4219 1281 4162 
Q 984 4106 628 3988 
L 628 4550 
Q 988 4650 1302 4700 
Q 1616 4750 1894 4750 
Q 2613 4750 3031 4423 
Q 3450 4097 3450 3541 
Q 3450 3153 3228 2886 
Q 3006 2619 2597 2516 
z
" transform="scale(0.015625)"/>
       </defs>
       <use xlink:href="#DejaVuSans-33"/>
       <use xlink:href="#DejaVuSans-30" transform="translate(63.623047 0)"/>
      </g>
     </g>
    </g>
    <g id="xtick_5">
     <g id="line2d_5">
      <g>
       <use xlink:href="#m54851277fa" x="575.419242" y="187.48" style="stroke: #000000; stroke-width: 0.8"/>
      </g>
     </g>
     <g id="text_5">
      <!-- 40 -->
      <g transform="translate(569.056742 202.078437) scale(0.1 -0.1)">
       <defs>
        <path id="DejaVuSans-34" d="M 2419 4116 
L 825 1625 
L 2419 1625 
L 2419 4116 
z
M 2253 4666 
L 3047 4666 
L 3047 1625 
L 3713 1625 
L 3713 1100 
L 3047 1100 
L 3047 0 
L 2419 0 
L 2419 1100 
L 313 1100 
L 313 1709 
L 2253 4666 
z
" transform="scale(0.015625)"/>
       </defs>
       <use xlink:href="#DejaVuSans-34"/>
       <use xlink:href="#DejaVuSans-30" transform="translate(63.623047 0)"/>
      </g>
     </g>
    </g>
    <g id="xtick_6">
     <g id="line2d_6">
      <g>
       <use xlink:href="#m54851277fa" x="696.193485" y="187.48" style="stroke: #000000; stroke-width: 0.8"/>
      </g>
     </g>
     <g id="text_6">
      <!-- 50 -->
      <g transform="translate(689.830985 202.078437) scale(0.1 -0.1)">
       <defs>
        <path id="DejaVuSans-35" d="M 691 4666 
L 3169 4666 
L 3169 4134 
L 1269 4134 
L 1269 2991 
Q 1406 3038 1543 3061 
Q 1681 3084 1819 3084 
Q 2600 3084 3056 2656 
Q 3513 2228 3513 1497 
Q 3513 744 3044 326 
Q 2575 -91 1722 -91 
Q 1428 -91 1123 -41 
Q 819 9 494 109 
L 494 744 
Q 775 591 1075 516 
Q 1375 441 1709 441 
Q 2250 441 2565 725 
Q 2881 1009 2881 1497 
Q 2881 1984 2565 2268 
Q 2250 2553 1709 2553 
Q 1456 2553 1204 2497 
Q 953 2441 691 2322 
L 691 4666 
z
" transform="scale(0.015625)"/>
       </defs>
       <use xlink:href="#DejaVuSans-35"/>
       <use xlink:href="#DejaVuSans-30" transform="translate(63.623047 0)"/>
      </g>
     </g>
    </g>
    <g id="xtick_7">
     <g id="line2d_7">
      <g>
       <use xlink:href="#m54851277fa" x="816.967727" y="187.48" style="stroke: #000000; stroke-width: 0.8"/>
      </g>
     </g>
     <g id="text_7">
      <!-- 60 -->
      <g transform="translate(810.605227 202.078437) scale(0.1 -0.1)">
       <defs>
        <path id="DejaVuSans-36" d="M 2113 2584 
Q 1688 2584 1439 2293 
Q 1191 2003 1191 1497 
Q 1191 994 1439 701 
Q 1688 409 2113 409 
Q 2538 409 2786 701 
Q 3034 994 3034 1497 
Q 3034 2003 2786 2293 
Q 2538 2584 2113 2584 
z
M 3366 4563 
L 3366 3988 
Q 3128 4100 2886 4159 
Q 2644 4219 2406 4219 
Q 1781 4219 1451 3797 
Q 1122 3375 1075 2522 
Q 1259 2794 1537 2939 
Q 1816 3084 2150 3084 
Q 2853 3084 3261 2657 
Q 3669 2231 3669 1497 
Q 3669 778 3244 343 
Q 2819 -91 2113 -91 
Q 1303 -91 875 529 
Q 447 1150 447 2328 
Q 447 3434 972 4092 
Q 1497 4750 2381 4750 
Q 2619 4750 2861 4703 
Q 3103 4656 3366 4563 
z
" transform="scale(0.015625)"/>
       </defs>
       <use xlink:href="#DejaVuSans-36"/>
       <use xlink:href="#DejaVuSans-30" transform="translate(63.623047 0)"/>
      </g>
     </g>
    </g>
    <g id="text_8">
     <!-- Time (s) -->
     <g transform="translate(434.316094 215.756562) scale(0.1 -0.1)">
      <defs>
       <path id="DejaVuSans-54" d="M -19 4666 
L 3928 4666 
L 3928 4134 
L 2272 4134 
L 2272 0 
L 1638 0 
L 1638 4134 
L -19 4134 
L -19 4666 
z
" transform="scale(0.015625)"/>
       <path id="DejaVuSans-69" d="M 603 3500 
L 1178 3500 
L 1178 0 
L 603 0 
L 603 3500 
z
M 603 4863 
L 1178 4863 
L 1178 4134 
L 603 4134 
L 603 4863 
z
" transform="scale(0.015625)"/>
       <path id="DejaVuSans-6d" d="M 3328 2828 
Q 3544 3216 3844 3400 
Q 4144 3584 4550 3584 
Q 5097 3584 5394 3201 
Q 5691 2819 5691 2113 
L 5691 0 
L 5113 0 
L 5113 2094 
Q 5113 2597 4934 2840 
Q 4756 3084 4391 3084 
Q 3944 3084 3684 2787 
Q 3425 2491 3425 1978 
L 3425 0 
L 2847 0 
L 2847 2094 
Q 2847 2600 2669 2842 
Q 2491 3084 2119 3084 
Q 1678 3084 1418 2786 
Q 1159 2488 1159 1978 
L 1159 0 
L 581 0 
L 581 3500 
L 1159 3500 
L 1159 2956 
Q 1356 3278 1631 3431 
Q 1906 3584 2284 3584 
Q 2666 3584 2933 3390 
Q 3200 3197 3328 2828 
z
" transform="scale(0.015625)"/>
       <path id="DejaVuSans-65" d="M 3597 1894 
L 3597 1613 
L 953 1613 
Q 991 1019 1311 708 
Q 1631 397 2203 397 
Q 2534 397 2845 478 
Q 3156 559 3463 722 
L 3463 178 
Q 3153 47 2828 -22 
Q 2503 -91 2169 -91 
Q 1331 -91 842 396 
Q 353 884 353 1716 
Q 353 2575 817 3079 
Q 1281 3584 2069 3584 
Q 2775 3584 3186 3129 
Q 3597 2675 3597 1894 
z
M 3022 2063 
Q 3016 2534 2758 2815 
Q 2500 3097 2075 3097 
Q 1594 3097 1305 2825 
Q 1016 2553 972 2059 
L 3022 2063 
z
" transform="scale(0.015625)"/>
       <path id="DejaVuSans-20" transform="scale(0.015625)"/>
       <path id="DejaVuSans-28" d="M 1984 4856 
Q 1566 4138 1362 3434 
Q 1159 2731 1159 2009 
Q 1159 1288 1364 580 
Q 1569 -128 1984 -844 
L 1484 -844 
Q 1016 -109 783 600 
Q 550 1309 550 2009 
Q 550 2706 781 3412 
Q 1013 4119 1484 4856 
L 1984 4856 
z
" transform="scale(0.015625)"/>
       <path id="DejaVuSans-73" d="M 2834 3397 
L 2834 2853 
Q 2591 2978 2328 3040 
Q 2066 3103 1784 3103 
Q 1356 3103 1142 2972 
Q 928 2841 928 2578 
Q 928 2378 1081 2264 
Q 1234 2150 1697 2047 
L 1894 2003 
Q 2506 1872 2764 1633 
Q 3022 1394 3022 966 
Q 3022 478 2636 193 
Q 2250 -91 1575 -91 
Q 1294 -91 989 -36 
Q 684 19 347 128 
L 347 722 
Q 666 556 975 473 
Q 1284 391 1588 391 
Q 1994 391 2212 530 
Q 2431 669 2431 922 
Q 2431 1156 2273 1281 
Q 2116 1406 1581 1522 
L 1381 1569 
Q 847 1681 609 1914 
Q 372 2147 372 2553 
Q 372 3047 722 3315 
Q 1072 3584 1716 3584 
Q 2034 3584 2315 3537 
Q 2597 3491 2834 3397 
z
" transform="scale(0.015625)"/>
       <path id="DejaVuSans-29" d="M 513 4856 
L 1013 4856 
Q 1481 4119 1714 3412 
Q 1947 2706 1947 2009 
Q 1947 1309 1714 600 
Q 1481 -109 1013 -844 
L 513 -844 
Q 928 -128 1133 580 
Q 1338 1288 1338 2009 
Q 1338 2731 1133 3434 
Q 928 4138 513 4856 
z
" transform="scale(0.015625)"/>
      </defs>
      <use xlink:href="#DejaVuSans-54"/>
      <use xlink:href="#DejaVuSans-69" transform="translate(57.958984 0)"/>
      <use xlink:href="#DejaVuSans-6d" transform="translate(85.742188 0)"/>
      <use xlink:href="#DejaVuSans-65" transform="translate(183.154297 0)"/>
      <use xlink:href="#DejaVuSans-20" transform="translate(244.677734 0)"/>
      <use xlink:href="#DejaVuSans-28" transform="translate(276.464844 0)"/>
      <use xlink:href="#DejaVuSans-73" transform="translate(315.478516 0)"/>
      <use xlink:href="#DejaVuSans-29" transform="translate(367.578125 0)"/>
     </g>
    </g>
   </g>
   <g id="matplotlib.axis_2">
    <g id="ytick_1">
     <g id="line2d_8">
      <defs>
       <path id="m8af547047c" d="M 0 0 
L -3.5 0 
" style="stroke: #000000; stroke-width: 0.8"/>
      </defs>
      <g>
       <use xlink:href="#m8af547047c" x="56.09" y="168.355099" style="stroke: #000000; stroke-width: 0.8"/>
      </g>
     </g>
     <g id="text_9">
      <!-- −1.0 -->
      <g transform="translate(24.807187 172.154318) scale(0.1 -0.1)">
       <defs>
        <path id="DejaVuSans-2212" d="M 678 2272 
L 4684 2272 
L 4684 1741 
L 678 1741 
L 678 2272 
z
" transform="scale(0.015625)"/>
        <path id="DejaVuSans-2e" d="M 684 794 
L 1344 794 
L 1344 0 
L 684 0 
L 684 794 
z
" transform="scale(0.015625)"/>
       </defs>
       <use xlink:href="#DejaVuSans-2212"/>
       <use xlink:href="#DejaVuSans-31" transform="translate(83.789062 0)"/>
       <use xlink:href="#DejaVuSans-2e" transform="translate(147.412109 0)"/>
       <use xlink:href="#DejaVuSans-30" transform="translate(179.199219 0)"/>
      </g>
     </g>
    </g>
    <g id="ytick_2">
     <g id="line2d_9">
      <g>
       <use xlink:href="#m8af547047c" x="56.09" y="134.384437" style="stroke: #000000; stroke-width: 0.8"/>
      </g>
     </g>
     <g id="text_10">
      <!-- −0.5 -->
      <g transform="translate(24.807187 138.183656) scale(0.1 -0.1)">
       <use xlink:href="#DejaVuSans-2212"/>
       <use xlink:href="#DejaVuSans-30" transform="translate(83.789062 0)"/>
       <use xlink:href="#DejaVuSans-2e" transform="translate(147.412109 0)"/>
       <use xlink:href="#DejaVuSans-35" transform="translate(179.199219 0)"/>
      </g>
     </g>
    </g>
    <g id="ytick_3">
     <g id="line2d_10">
      <g>
       <use xlink:href="#m8af547047c" x="56.09" y="100.413775" style="stroke: #000000; stroke-width: 0.8"/>
      </g>
     </g>
     <g id="text_11">
      <!-- 0.0 -->
      <g transform="translate(33.186875 104.212993) scale(0.1 -0.1)">
       <use xlink:href="#DejaVuSans-30"/>
       <use xlink:href="#DejaVuSans-2e" transform="translate(63.623047 0)"/>
       <use xlink:href="#DejaVuSans-30" transform="translate(95.410156 0)"/>
      </g>
     </g>
    </g>
    <g id="ytick_4">
     <g id="line2d_11">
      <g>
       <use xlink:href="#m8af547047c" x="56.09" y="66.443112" style="stroke: #000000; stroke-width: 0.8"/>
      </g>
     </g>
     <g id="text_12">
      <!-- 0.5 -->
      <g transform="translate(33.186875 70.242331) scale(0.1 -0.1)">
       <use xlink:href="#DejaVuSans-30"/>
       <use xlink:href="#DejaVuSans-2e" transform="translate(63.623047 0)"/>
       <use xlink:href="#DejaVuSans-35" transform="translate(95.410156 0)"/>
      </g>
     </g>
    </g>
    <g id="ytick_5">
     <g id="line2d_12">
      <g>
       <use xlink:href="#m8af547047c" x="56.09" y="32.47245" style="stroke: #000000; stroke-width: 0.8"/>
      </g>
     </g>
     <g id="text_13">
      <!-- 1.0 -->
      <g transform="translate(33.186875 36.271669) scale(0.1 -0.1)">
       <use xlink:href="#DejaVuSans-31"/>
       <use xlink:href="#DejaVuSans-2e" transform="translate(63.623047 0)"/>
       <use xlink:href="#DejaVuSans-30" transform="translate(95.410156 0)"/>
      </g>
     </g>
    </g>
    <g id="text_14">
     <!-- Position (m) -->
     <g transform="translate(18.7275 137.005) rotate(-90) scale(0.1 -0.1)">
      <defs>
       <path id="DejaVuSans-50" d="M 1259 4147 
L 1259 2394 
L 2053 2394 
Q 2494 2394 2734 2622 
Q 2975 2850 2975 3272 
Q 2975 3691 2734 3919 
Q 2494 4147 2053 4147 
L 1259 4147 
z
M 628 4666 
L 2053 4666 
Q 2838 4666 3239 4311 
Q 3641 3956 3641 3272 
Q 3641 2581 3239 2228 
Q 2838 1875 2053 1875 
L 1259 1875 
L 1259 0 
L 628 0 
L 628 4666 
z
" transform="scale(0.015625)"/>
       <path id="DejaVuSans-6f" d="M 1959 3097 
Q 1497 3097 1228 2736 
Q 959 2375 959 1747 
Q 959 1119 1226 758 
Q 1494 397 1959 397 
Q 2419 397 2687 759 
Q 2956 1122 2956 1747 
Q 2956 2369 2687 2733 
Q 2419 3097 1959 3097 
z
M 1959 3584 
Q 2709 3584 3137 3096 
Q 3566 2609 3566 1747 
Q 3566 888 3137 398 
Q 2709 -91 1959 -91 
Q 1206 -91 779 398 
Q 353 888 353 1747 
Q 353 2609 779 3096 
Q 1206 3584 1959 3584 
z
" transform="scale(0.015625)"/>
       <path id="DejaVuSans-74" d="M 1172 4494 
L 1172 3500 
L 2356 3500 
L 2356 3053 
L 1172 3053 
L 1172 1153 
Q 1172 725 1289 603 
Q 1406 481 1766 481 
L 2356 481 
L 2356 0 
L 1766 0 
Q 1100 0 847 248 
Q 594 497 594 1153 
L 594 3053 
L 172 3053 
L 172 3500 
L 594 3500 
L 594 4494 
L 1172 4494 
z
" transform="scale(0.015625)"/>
       <path id="DejaVuSans-6e" d="M 3513 2113 
L 3513 0 
L 2938 0 
L 2938 2094 
Q 2938 2591 2744 2837 
Q 2550 3084 2163 3084 
Q 1697 3084 1428 2787 
Q 1159 2491 1159 1978 
L 1159 0 
L 581 0 
L 581 3500 
L 1159 3500 
L 1159 2956 
Q 1366 3272 1645 3428 
Q 1925 3584 2291 3584 
Q 2894 3584 3203 3211 
Q 3513 2838 3513 2113 
z
" transform="scale(0.015625)"/>
      </defs>
      <use xlink:href="#DejaVuSans-50"/>
      <use xlink:href="#DejaVuSans-6f" transform="translate(56.677734 0)"/>
      <use xlink:href="#DejaVuSans-73" transform="translate(117.859375 0)"/>
      <use xlink:href="#DejaVuSans-69" transform="translate(169.958984 0)"/>
      <use xlink:href="#DejaVuSans-74" transform="translate(197.742188 0)"/>
      <use xlink:href="#DejaVuSans-69" transform="translate(236.951172 0)"/>
      <use xlink:href="#DejaVuSans-6f" transform="translate(264.734375 0)"/>
      <use xlink:href="#DejaVuSans-6e" transform="translate(325.916016 0)"/>
      <use xlink:href="#DejaVuSans-20" transform="translate(389.294922 0)"/>
      <use xlink:href="#DejaVuSans-28" transform="translate(421.082031 0)"/>
      <use xlink:href="#DejaVuSans-6d" transform="translate(460.095703 0)"/>
      <use xlink:href="#DejaVuSans-29" transform="translate(557.507812 0)"/>
     </g>
    </g>
   </g>
   <g id="line2d_13">
    <path d="M 92.322273 100.413775 
L 92.443067 100.177382 
L 92.684656 98.285102 
L 93.047039 91.883515 
L 93.409422 81.167837 
L 94.375777 48.508213 
L 94.73816 43.458173 
L 94.979749 42.472313 
L 95.100543 42.691839 
L 95.342132 44.554748 
L 95.704515 50.916308 
L 96.066898 61.59599 
L 96.791665 85.897677 
L 97.154048 92.008551 
L 97.395636 93.692101 
L 97.516431 93.819776 
L 97.637225 93.471876 
L 97.878814 91.348663 
L 98.241197 84.58218 
L 98.724375 69.102433 
L 99.207552 56.399651 
L 99.569935 51.937656 
L 99.811524 51.355401 
L 99.932318 51.778332 
L 100.173907 54.054173 
L 100.53629 61.057688 
L 101.62344 88.995443 
L 101.865028 90.684513 
L 101.985823 90.811323 
L 102.106617 90.460144 
L 102.348206 88.323415 
L 102.710589 81.522373 
L 103.55615 61.332556 
L 103.797738 59.401265 
L 103.918533 59.155555 
L 104.039327 59.389003 
L 104.280916 61.292217 
L 104.643299 67.746698 
L 105.48886 86.944911 
L 105.730448 88.56125 
L 105.851243 88.649434 
L 105.972037 88.258162 
L 106.213626 86.037282 
L 106.576009 79.103002 
L 107.179981 64.797759 
L 107.42157 62.157764 
L 107.663158 61.441225 
L 107.783953 61.802469 
L 108.025541 63.962776 
L 108.387925 70.809903 
L 108.871102 82.198675 
L 109.233485 86.014837 
L 109.35428 86.323976 
L 109.475074 86.152607 
L 109.716663 84.369075 
L 110.079046 78.088481 
L 110.683018 65.080524 
L 110.924606 62.973091 
L 111.045401 62.642086 
L 111.166195 62.792306 
L 111.407784 64.535685 
L 111.770167 70.759755 
L 112.253345 81.172475 
L 112.494933 83.722732 
L 112.736522 84.346437 
L 112.857316 83.938097 
L 113.098905 81.680965 
L 113.461288 74.681416 
L 113.944466 65.075125 
L 114.186055 63.148325 
L 114.306849 62.907974 
L 114.427643 63.149108 
L 114.669232 65.075136 
L 115.031615 71.553969 
L 115.514793 80.29128 
L 115.756381 81.844283 
L 115.877176 81.897943 
L 115.99797 81.470778 
L 116.239559 79.174883 
L 116.601942 72.145558 
L 116.964325 65.262061 
L 117.205914 63.085321 
L 117.326708 62.720625 
L 117.447503 62.837318 
L 117.689091 64.508897 
L 118.051475 70.622377 
L 118.413858 76.652012 
L 118.655446 78.262181 
L 118.776241 78.343641 
L 118.897035 77.943665 
L 119.138624 75.700507 
L 119.984185 63.384694 
L 120.104979 63.197802 
L 120.225773 63.49245 
L 120.467362 65.525671 
L 121.192128 75.213799 
L 121.312923 75.442012 
L 121.433717 75.188352 
L 121.675306 73.236761 
L 122.400072 63.375648 
L 122.520866 63.078817 
L 122.641661 63.26397 
L 122.88325 65.078954 
L 123.487221 72.795174 
L 123.608016 73.172118 
L 123.72881 73.066348 
L 123.970399 71.409287 
L 124.695165 63.023768 
L 124.81596 63.021258 
L 124.936754 63.500523 
L 125.178343 65.906087 
L 125.540726 70.329087 
L 125.782315 70.996107 
L 125.903109 70.60475 
L 126.144698 68.373917 
L 126.507081 63.818145 
L 126.74867 62.973325 
L 126.869464 63.275677 
L 127.111053 65.326023 
L 127.473436 68.836538 
L 127.59423 69.089232 
L 127.715025 68.859556 
L 127.956613 66.953895 
L 128.318996 63.194797 
L 128.439791 62.821687 
L 128.560585 62.931956 
L 128.802174 64.601426 
L 129.164557 67.412518 
L 129.285351 67.425619 
L 129.406146 66.956372 
L 130.010118 62.743954 
L 130.130912 63.061766 
L 130.61409 66.207012 
L 130.734884 66.105955 
L 130.976473 64.496659 
L 131.218061 62.763157 
L 131.338856 62.583207 
L 131.45965 62.884801 
L 131.822033 65.096447 
L 131.942828 65.166352 
L 132.063622 64.753864 
L 132.426005 62.492989 
L 132.5468 62.444098 
L 132.788388 63.599098 
L 133.029977 64.33654 
L 133.150771 64.002884 
L 133.513155 62.230284 
L 133.633949 62.324502 
L 133.996332 63.625893 
L 134.117126 63.523758 
L 134.600304 61.980386 
L 135.083481 62.992704 
L 135.32507 62.282208 
L 135.566659 61.693413 
L 135.687453 61.783932 
L 136.049836 62.450292 
L 136.170631 62.322681 
L 136.533014 61.432075 
L 136.653808 61.409891 
L 137.136986 61.889149 
L 137.620163 61.084782 
L 137.861752 61.298597 
L 138.103341 61.448692 
L 138.34493 61.122538 
L 138.586518 60.788376 
L 138.828107 60.871454 
L 139.069696 61.019857 
L 139.311285 60.815752 
L 139.673668 60.459517 
L 140.156845 60.592721 
L 140.760817 60.158467 
L 141.1232 60.235229 
L 141.968761 59.892567 
L 142.21035 59.862812 
L 142.814321 59.569682 
L 143.297499 59.512544 
L 143.780676 59.300085 
L 144.384648 59.194206 
L 144.867826 59.041063 
L 145.471798 58.909686 
L 146.07577 58.790976 
L 147.525302 58.471605 
L 148.733246 58.249574 
L 152.961049 57.769413 
L 157.430441 57.686241 
L 160.571095 57.889892 
L 163.953337 58.336893 
L 167.577168 59.053704 
L 171.442588 60.053944 
L 175.791186 61.41245 
L 181.468521 63.437789 
L 196.567818 68.950414 
L 201.278799 70.355586 
L 205.385808 71.355255 
L 209.251228 72.07325 
L 212.995853 72.545363 
L 213.116648 72.550594 
L 213.237442 72.240885 
L 213.720619 69.427836 
L 213.841414 69.653078 
L 214.324591 72.366565 
L 214.445386 72.161865 
L 214.807769 70.204246 
L 214.928563 70.178867 
L 215.170152 71.412066 
L 215.411741 72.456258 
L 215.532535 72.294506 
L 215.894918 70.908696 
L 216.015713 71.078341 
L 216.49889 72.787354 
L 216.982068 71.808419 
L 217.465245 73.370786 
L 217.586039 73.286018 
L 217.948423 72.718873 
L 218.190011 73.348294 
L 218.4316 74.075871 
L 218.552394 74.1381 
L 218.914778 73.773604 
L 219.035572 73.902397 
L 219.518749 75.08512 
L 219.760338 74.997434 
L 219.881133 74.94829 
L 220.001927 75.029773 
L 220.726693 76.237386 
L 220.968282 76.294281 
L 221.209871 76.760244 
L 221.572254 77.493139 
L 222.055431 77.835536 
L 222.780198 79.078777 
L 223.021786 79.321281 
L 227.611973 87.863654 
L 229.182299 91.157234 
L 233.651691 101.819377 
L 237.033934 110.625322 
L 241.986503 124.116097 
L 248.388605 141.332731 
L 251.770847 149.795535 
L 254.669912 156.473557 
L 257.206594 161.777722 
L 259.501687 166.080261 
L 261.555192 169.491358 
L 263.487902 172.298003 
L 265.299817 174.556996 
L 266.990939 176.329878 
L 268.561266 177.679385 
L 270.131592 178.739741 
L 271.581125 179.460158 
L 273.030657 179.932601 
L 274.48019 180.158191 
L 275.929722 180.141387 
L 277.379255 179.88276 
L 278.707993 179.438573 
L 280.27832 178.661931 
L 281.848647 177.626599 
L 283.539768 176.231203 
L 285.351684 174.431055 
L 287.284394 172.186635 
L 289.337898 169.465384 
L 291.632991 166.057456 
L 294.290467 161.696305 
L 297.431121 156.086142 
L 301.417336 148.483637 
L 312.772007 126.570897 
L 316.033455 120.907941 
L 318.811726 116.509885 
L 321.348407 112.902164 
L 323.643501 110.015328 
L 325.817799 107.638405 
L 327.871304 105.73191 
L 329.804014 104.249861 
L 331.615929 103.142525 
L 333.30705 102.358963 
L 333.911022 102.165377 
L 334.031817 102.528362 
L 334.514994 105.113262 
L 334.635789 104.776935 
L 335.118966 102.112842 
L 335.23976 102.39718 
L 335.602144 104.226676 
L 335.722938 104.127202 
L 336.206115 101.891308 
L 336.32691 102.156256 
L 336.689293 103.407874 
L 336.810087 103.126054 
L 337.17247 101.546504 
L 337.293265 101.577726 
L 337.655648 102.563263 
L 337.776442 102.454349 
L 338.25962 100.989509 
L 338.501209 101.43559 
L 338.742797 101.651445 
L 338.984386 100.970247 
L 339.225975 100.358026 
L 339.346769 100.368164 
L 339.709152 100.753219 
L 339.950741 100.276215 
L 340.19233 99.659482 
L 340.313124 99.567389 
L 340.796302 99.692117 
L 341.400274 98.691384 
L 341.641862 98.765684 
L 341.883451 98.528191 
L 342.366629 97.72091 
L 342.729012 97.650798 
L 342.9706 97.298427 
L 343.332984 96.702008 
L 343.936955 96.239549 
L 344.420133 95.518916 
L 344.90331 95.105948 
L 345.507282 94.256424 
L 345.869665 93.907125 
L 346.715226 92.794054 
L 347.198404 92.083674 
L 348.527142 90.285212 
L 349.131114 89.452442 
L 350.580646 87.34274 
L 351.909384 85.369385 
L 357.949103 75.720358 
L 366.283915 62.229461 
L 369.786952 56.988779 
L 372.806811 52.848305 
L 375.464287 49.563383 
L 377.880175 46.911592 
L 380.175268 44.716274 
L 382.349567 42.947222 
L 384.403071 41.567123 
L 386.335781 40.533962 
L 388.147697 39.803477 
L 389.959612 39.305067 
L 391.771528 39.038455 
L 393.583444 38.997169 
L 395.516154 39.207563 
L 397.328069 39.632802 
L 399.139985 40.269763 
L 401.072695 41.172311 
L 403.126199 42.369955 
L 405.421292 43.977557 
L 407.83718 45.947126 
L 410.61545 48.517601 
L 413.756104 51.745742 
L 417.621524 56.059284 
L 424.627598 64.296338 
L 429.94255 70.377875 
L 433.566382 74.202667 
L 436.707035 77.202377 
L 439.485306 79.557908 
L 442.021988 81.430866 
L 444.437875 82.946485 
L 446.732968 84.129439 
L 448.907267 85.010547 
L 451.081566 85.653275 
L 453.255865 86.055428 
L 454.705397 86.132757 
L 454.946986 84.748586 
L 455.188575 83.181527 
L 455.309369 83.07794 
L 455.430163 83.457448 
L 455.792547 85.774603 
L 455.913341 85.860031 
L 456.15493 84.702544 
L 456.396518 83.673137 
L 456.517313 83.84459 
L 457.00049 85.832771 
L 457.483668 84.326732 
L 457.725257 85.274027 
L 457.966845 86.065809 
L 458.08764 85.930249 
L 458.450023 84.979052 
L 458.570817 85.152137 
L 458.9332 86.398157 
L 459.053995 86.435193 
L 459.537172 85.804066 
L 460.02035 87.004885 
L 460.261938 86.754559 
L 460.503527 86.596376 
L 460.745116 87.116428 
L 460.986705 87.662953 
L 461.107499 87.709667 
L 461.469882 87.501526 
L 461.711471 87.882166 
L 462.073854 88.549822 
L 462.557032 88.589979 
L 463.161003 89.552306 
L 463.523387 89.655613 
L 463.88577 90.292204 
L 464.248153 90.69194 
L 464.489742 90.816289 
L 464.852125 91.393652 
L 465.214508 91.889756 
L 465.576891 92.195502 
L 467.388807 94.787853 
L 467.871984 95.521978 
L 468.475956 96.414245 
L 469.563105 98.146996 
L 471.737404 101.887878 
L 476.689973 111.420009 
L 481.038571 120.545477 
L 490.098149 139.786818 
L 493.601186 146.663996 
L 496.500251 151.893283 
L 499.157727 156.229928 
L 501.45282 159.57261 
L 503.627119 162.361212 
L 505.680623 164.634666 
L 507.613333 166.43962 
L 509.425249 167.827465 
L 511.11637 168.851683 
L 512.807491 169.611514 
L 514.377818 170.079674 
L 515.948145 170.319914 
L 517.518472 170.338692 
L 519.209593 170.10508 
L 520.77992 169.662167 
L 522.471041 168.952041 
L 524.282957 167.92882 
L 526.094873 166.649282 
L 528.027583 165.019672 
L 530.201881 162.884731 
L 532.496975 160.319234 
L 535.154451 157.001754 
L 538.17431 152.864422 
L 541.918936 147.344546 
L 556.172672 125.925823 
L 559.313326 121.831239 
L 562.091596 118.572838 
L 564.628278 115.943275 
L 566.923371 113.876913 
L 569.09767 112.212584 
L 571.151175 110.914884 
L 573.083885 109.944103 
L 575.016595 109.220584 
L 575.499772 109.188247 
L 575.741361 110.655568 
L 575.98295 112.037224 
L 576.103744 112.028673 
L 576.345333 110.623754 
L 576.586921 109.198948 
L 576.707716 109.173898 
L 576.949305 110.406016 
L 577.190893 111.276354 
L 577.311688 111.009404 
L 577.674071 109.015554 
L 577.794865 108.976573 
L 578.278043 110.393381 
L 578.76122 108.557122 
L 578.882015 108.714171 
L 579.244398 109.596476 
L 579.365192 109.367736 
L 579.727575 108.064267 
L 579.84837 108.041829 
L 580.210753 108.694855 
L 580.331547 108.591249 
L 580.814724 107.328166 
L 581.056313 107.582525 
L 581.177108 107.718274 
L 581.297902 107.685016 
L 581.901874 106.507515 
L 582.264257 106.678341 
L 582.505846 106.244121 
L 582.868229 105.56316 
L 583.351406 105.480281 
L 583.955378 104.478535 
L 584.317761 104.347605 
L 585.163322 103.222484 
L 585.404911 102.980221 
L 586.008883 102.03091 
L 586.371266 101.709649 
L 587.337621 100.365417 
L 590.840658 94.950598 
L 594.464489 88.783855 
L 599.296264 79.772465 
L 611.375701 57.076425 
L 614.516355 51.866438 
L 617.173831 47.863955 
L 619.589719 44.603058 
L 621.884812 41.874057 
L 623.938316 39.760057 
L 625.871026 38.067857 
L 627.682942 36.752453 
L 629.494858 35.705241 
L 631.185979 34.973002 
L 632.8771 34.478676 
L 634.568221 34.221427 
L 636.259343 34.195132 
L 638.071258 34.427614 
L 639.762379 34.880255 
L 641.453501 35.548623 
L 643.386211 36.568916 
L 645.439715 37.936321 
L 647.614014 39.679403 
L 649.909107 41.81856 
L 652.445789 44.498638 
L 655.344854 47.902876 
L 658.847891 52.389198 
L 663.679666 58.979659 
L 672.014477 70.365106 
L 675.638309 74.915705 
L 678.658168 78.373565 
L 681.436439 81.222702 
L 683.973121 83.50649 
L 686.268214 85.286343 
L 688.442512 86.705853 
L 690.496017 87.798147 
L 692.549521 88.642693 
L 694.482231 89.207996 
L 696.173352 89.519366 
L 696.294147 89.380694 
L 696.535736 87.779278 
L 696.777324 86.470792 
L 696.898119 86.528866 
L 697.139707 87.994134 
L 697.381296 89.278422 
L 697.502091 89.21994 
L 697.985268 87.113651 
L 698.106062 87.433358 
L 698.468446 89.315081 
L 698.58924 89.256728 
L 698.951623 87.829782 
L 699.072417 87.881909 
L 699.555595 89.594331 
L 699.797184 88.951904 
L 700.038772 88.529378 
L 700.280361 89.274069 
L 700.52195 90.0001 
L 700.642744 89.960805 
L 701.005127 89.300429 
L 701.125922 89.435413 
L 701.609099 90.593206 
L 702.092277 90.2206 
L 702.696249 91.296698 
L 703.058632 91.120435 
L 703.300221 91.568106 
L 703.662604 92.167664 
L 704.024987 92.11569 
L 704.266576 92.460868 
L 704.628959 93.106559 
L 705.232931 93.469978 
L 705.716108 94.234538 
L 706.078491 94.426077 
L 709.339939 98.826297 
L 709.943911 99.732571 
L 710.427089 100.468101 
L 711.755827 102.58437 
L 713.205359 104.943564 
L 716.949985 111.693842 
L 719.607461 116.801351 
L 733.498814 144.051342 
L 736.518674 149.290188 
L 739.17615 153.489302 
L 741.592037 156.91654 
L 743.887131 159.790347 
L 745.940635 162.021576 
L 747.873345 163.812685 
L 749.68526 165.210034 
L 751.497176 166.328275 
L 753.188297 167.116734 
L 754.879419 167.657318 
L 756.449745 167.937744 
L 758.140867 168.007549 
L 759.711194 167.848907 
L 761.402315 167.455034 
L 763.21423 166.775218 
L 765.026146 165.841745 
L 766.838062 164.667944 
L 768.891566 163.064563 
L 771.065865 161.075326 
L 773.481752 158.549639 
L 776.139229 155.439924 
L 779.279882 151.403465 
L 783.266097 145.883791 
L 796.553478 127.159652 
L 799.814926 123.127343 
L 802.593197 120.030125 
L 805.129879 117.518823 
L 807.545766 115.439155 
L 809.720065 113.846475 
L 811.773569 112.597237 
L 813.827074 111.603675 
L 815.759784 110.90662 
L 816.967727 110.589084 
L 816.967727 110.589084 
" clip-path="url(#pe7afa2f183)" style="fill: none; stroke: #1f77b4; stroke-width: 1.5; stroke-linecap: square"/>
   </g>
   <g id="line2d_14">
    <path d="M 92.322273 66.443112 
L 212.995853 66.443112 
L 213.116648 134.384437 
L 333.790228 134.384437 
L 333.911022 66.443112 
L 454.584603 66.443112 
L 454.705397 134.384437 
L 575.378978 134.384437 
L 575.499772 66.443112 
L 696.173352 66.443112 
L 696.294147 134.384437 
L 816.846933 134.384437 
L 816.967727 66.443112 
L 816.967727 66.443112 
" clip-path="url(#pe7afa2f183)" style="fill: none; stroke-dasharray: 5.55,2.4; stroke-dashoffset: 0; stroke: #ff7f0e; stroke-opacity: 0.6; stroke-width: 1.5"/>
   </g>
   <g id="patch_3">
    <path d="M 56.09 187.48 
L 56.09 26.88 
" style="fill: none; stroke: #000000; stroke-width: 0.8; stroke-linejoin: miter; stroke-linecap: square"/>
   </g>
   <g id="patch_4">
    <path d="M 853.2 187.48 
L 853.2 26.88 
" style="fill: none; stroke: #000000; stroke-width: 0.8; stroke-linejoin: miter; stroke-linecap: square"/>
   </g>
   <g id="patch_5">
    <path d="M 56.09 187.48 
L 853.2 187.48 
" style="fill: none; stroke: #000000; stroke-width: 0.8; stroke-linejoin: miter; stroke-linecap: square"/>
   </g>
   <g id="patch_6">
    <path d="M 56.09 26.88 
L 853.2 26.88 
" style="fill: none; stroke: #000000; stroke-width: 0.8; stroke-linejoin: miter; stroke-linecap: square"/>
   </g>
   <g id="text_15">
    <!-- Inverted Pendulum on a Cart : System States -->
    <g transform="translate(319.102188 20.88) scale(0.12 -0.12)">
     <defs>
      <path id="DejaVuSans-49" d="M 628 4666 
L 1259 4666 
L 1259 0 
L 628 0 
L 628 4666 
z
" transform="scale(0.015625)"/>
      <path id="DejaVuSans-76" d="M 191 3500 
L 800 3500 
L 1894 563 
L 2988 3500 
L 3597 3500 
L 2284 0 
L 1503 0 
L 191 3500 
z
" transform="scale(0.015625)"/>
      <path id="DejaVuSans-72" d="M 2631 2963 
Q 2534 3019 2420 3045 
Q 2306 3072 2169 3072 
Q 1681 3072 1420 2755 
Q 1159 2438 1159 1844 
L 1159 0 
L 581 0 
L 581 3500 
L 1159 3500 
L 1159 2956 
Q 1341 3275 1631 3429 
Q 1922 3584 2338 3584 
Q 2397 3584 2469 3576 
Q 2541 3569 2628 3553 
L 2631 2963 
z
" transform="scale(0.015625)"/>
      <path id="DejaVuSans-64" d="M 2906 2969 
L 2906 4863 
L 3481 4863 
L 3481 0 
L 2906 0 
L 2906 525 
Q 2725 213 2448 61 
Q 2172 -91 1784 -91 
Q 1150 -91 751 415 
Q 353 922 353 1747 
Q 353 2572 751 3078 
Q 1150 3584 1784 3584 
Q 2172 3584 2448 3432 
Q 2725 3281 2906 2969 
z
M 947 1747 
Q 947 1113 1208 752 
Q 1469 391 1925 391 
Q 2381 391 2643 752 
Q 2906 1113 2906 1747 
Q 2906 2381 2643 2742 
Q 2381 3103 1925 3103 
Q 1469 3103 1208 2742 
Q 947 2381 947 1747 
z
" transform="scale(0.015625)"/>
      <path id="DejaVuSans-75" d="M 544 1381 
L 544 3500 
L 1119 3500 
L 1119 1403 
Q 1119 906 1312 657 
Q 1506 409 1894 409 
Q 2359 409 2629 706 
Q 2900 1003 2900 1516 
L 2900 3500 
L 3475 3500 
L 3475 0 
L 2900 0 
L 2900 538 
Q 2691 219 2414 64 
Q 2138 -91 1772 -91 
Q 1169 -91 856 284 
Q 544 659 544 1381 
z
M 1991 3584 
L 1991 3584 
z
" transform="scale(0.015625)"/>
      <path id="DejaVuSans-6c" d="M 603 4863 
L 1178 4863 
L 1178 0 
L 603 0 
L 603 4863 
z
" transform="scale(0.015625)"/>
      <path id="DejaVuSans-61" d="M 2194 1759 
Q 1497 1759 1228 1600 
Q 959 1441 959 1056 
Q 959 750 1161 570 
Q 1363 391 1709 391 
Q 2188 391 2477 730 
Q 2766 1069 2766 1631 
L 2766 1759 
L 2194 1759 
z
M 3341 1997 
L 3341 0 
L 2766 0 
L 2766 531 
Q 2569 213 2275 61 
Q 1981 -91 1556 -91 
Q 1019 -91 701 211 
Q 384 513 384 1019 
Q 384 1609 779 1909 
Q 1175 2209 1959 2209 
L 2766 2209 
L 2766 2266 
Q 2766 2663 2505 2880 
Q 2244 3097 1772 3097 
Q 1472 3097 1187 3025 
Q 903 2953 641 2809 
L 641 3341 
Q 956 3463 1253 3523 
Q 1550 3584 1831 3584 
Q 2591 3584 2966 3190 
Q 3341 2797 3341 1997 
z
" transform="scale(0.015625)"/>
      <path id="DejaVuSans-43" d="M 4122 4306 
L 4122 3641 
Q 3803 3938 3442 4084 
Q 3081 4231 2675 4231 
Q 1875 4231 1450 3742 
Q 1025 3253 1025 2328 
Q 1025 1406 1450 917 
Q 1875 428 2675 428 
Q 3081 428 3442 575 
Q 3803 722 4122 1019 
L 4122 359 
Q 3791 134 3420 21 
Q 3050 -91 2638 -91 
Q 1578 -91 968 557 
Q 359 1206 359 2328 
Q 359 3453 968 4101 
Q 1578 4750 2638 4750 
Q 3056 4750 3426 4639 
Q 3797 4528 4122 4306 
z
" transform="scale(0.015625)"/>
      <path id="DejaVuSans-3a" d="M 750 794 
L 1409 794 
L 1409 0 
L 750 0 
L 750 794 
z
M 750 3309 
L 1409 3309 
L 1409 2516 
L 750 2516 
L 750 3309 
z
" transform="scale(0.015625)"/>
      <path id="DejaVuSans-53" d="M 3425 4513 
L 3425 3897 
Q 3066 4069 2747 4153 
Q 2428 4238 2131 4238 
Q 1616 4238 1336 4038 
Q 1056 3838 1056 3469 
Q 1056 3159 1242 3001 
Q 1428 2844 1947 2747 
L 2328 2669 
Q 3034 2534 3370 2195 
Q 3706 1856 3706 1288 
Q 3706 609 3251 259 
Q 2797 -91 1919 -91 
Q 1588 -91 1214 -16 
Q 841 59 441 206 
L 441 856 
Q 825 641 1194 531 
Q 1563 422 1919 422 
Q 2459 422 2753 634 
Q 3047 847 3047 1241 
Q 3047 1584 2836 1778 
Q 2625 1972 2144 2069 
L 1759 2144 
Q 1053 2284 737 2584 
Q 422 2884 422 3419 
Q 422 4038 858 4394 
Q 1294 4750 2059 4750 
Q 2388 4750 2728 4690 
Q 3069 4631 3425 4513 
z
" transform="scale(0.015625)"/>
      <path id="DejaVuSans-79" d="M 2059 -325 
Q 1816 -950 1584 -1140 
Q 1353 -1331 966 -1331 
L 506 -1331 
L 506 -850 
L 844 -850 
Q 1081 -850 1212 -737 
Q 1344 -625 1503 -206 
L 1606 56 
L 191 3500 
L 800 3500 
L 1894 763 
L 2988 3500 
L 3597 3500 
L 2059 -325 
z
" transform="scale(0.015625)"/>
     </defs>
     <use xlink:href="#DejaVuSans-49"/>
     <use xlink:href="#DejaVuSans-6e" transform="translate(29.492188 0)"/>
     <use xlink:href="#DejaVuSans-76" transform="translate(92.871094 0)"/>
     <use xlink:href="#DejaVuSans-65" transform="translate(152.050781 0)"/>
     <use xlink:href="#DejaVuSans-72" transform="translate(213.574219 0)"/>
     <use xlink:href="#DejaVuSans-74" transform="translate(254.6875 0)"/>
     <use xlink:href="#DejaVuSans-65" transform="translate(293.896484 0)"/>
     <use xlink:href="#DejaVuSans-64" transform="translate(355.419922 0)"/>
     <use xlink:href="#DejaVuSans-20" transform="translate(418.896484 0)"/>
     <use xlink:href="#DejaVuSans-50" transform="translate(450.683594 0)"/>
     <use xlink:href="#DejaVuSans-65" transform="translate(507.361328 0)"/>
     <use xlink:href="#DejaVuSans-6e" transform="translate(568.884766 0)"/>
     <use xlink:href="#DejaVuSans-64" transform="translate(632.263672 0)"/>
     <use xlink:href="#DejaVuSans-75" transform="translate(695.740234 0)"/>
     <use xlink:href="#DejaVuSans-6c" transform="translate(759.119141 0)"/>
     <use xlink:href="#DejaVuSans-75" transform="translate(786.902344 0)"/>
     <use xlink:href="#DejaVuSans-6d" transform="translate(850.28125 0)"/>
     <use xlink:href="#DejaVuSans-20" transform="translate(947.693359 0)"/>
     <use xlink:href="#DejaVuSans-6f" transform="translate(979.480469 0)"/>
     <use xlink:href="#DejaVuSans-6e" transform="translate(1040.662109 0)"/>
     <use xlink:href="#DejaVuSans-20" transform="translate(1104.041016 0)"/>
     <use xlink:href="#DejaVuSans-61" transform="translate(1135.828125 0)"/>
     <use xlink:href="#DejaVuSans-20" transform="translate(1197.107422 0)"/>
     <use xlink:href="#DejaVuSans-43" transform="translate(1228.894531 0)"/>
     <use xlink:href="#DejaVuSans-61" transform="translate(1298.71875 0)"/>
     <use xlink:href="#DejaVuSans-72" transform="translate(1359.998047 0)"/>
     <use xlink:href="#DejaVuSans-74" transform="translate(1401.111328 0)"/>
     <use xlink:href="#DejaVuSans-20" transform="translate(1440.320312 0)"/>
     <use xlink:href="#DejaVuSans-3a" transform="translate(1472.107422 0)"/>
     <use xlink:href="#DejaVuSans-20" transform="translate(1505.798828 0)"/>
     <use xlink:href="#DejaVuSans-53" transform="translate(1537.585938 0)"/>
     <use xlink:href="#DejaVuSans-79" transform="translate(1601.0625 0)"/>
     <use xlink:href="#DejaVuSans-73" transform="translate(1660.242188 0)"/>
     <use xlink:href="#DejaVuSans-74" transform="translate(1712.341797 0)"/>
     <use xlink:href="#DejaVuSans-65" transform="translate(1751.550781 0)"/>
     <use xlink:href="#DejaVuSans-6d" transform="translate(1813.074219 0)"/>
     <use xlink:href="#DejaVuSans-20" transform="translate(1910.486328 0)"/>
     <use xlink:href="#DejaVuSans-53" transform="translate(1942.273438 0)"/>
     <use xlink:href="#DejaVuSans-74" transform="translate(2005.75 0)"/>
     <use xlink:href="#DejaVuSans-61" transform="translate(2044.958984 0)"/>
     <use xlink:href="#DejaVuSans-74" transform="translate(2106.238281 0)"/>
     <use xlink:href="#DejaVuSans-65" transform="translate(2145.447266 0)"/>
     <use xlink:href="#DejaVuSans-73" transform="translate(2206.970703 0)"/>
    </g>
   </g>
   <g id="legend_1">
    <g id="patch_7">
     <path d="M 719.34375 64.514375 
L 846.2 64.514375 
Q 848.2 64.514375 848.2 62.514375 
L 848.2 33.88 
Q 848.2 31.88 846.2 31.88 
L 719.34375 31.88 
Q 717.34375 31.88 717.34375 33.88 
L 717.34375 62.514375 
Q 717.34375 64.514375 719.34375 64.514375 
z
" style="fill: #ffffff; opacity: 0.8; stroke: #cccccc; stroke-linejoin: miter"/>
    </g>
    <g id="line2d_15">
     <path d="M 721.34375 39.978437 
L 731.34375 39.978437 
L 741.34375 39.978437 
" style="fill: none; stroke: #1f77b4; stroke-width: 1.5; stroke-linecap: square"/>
    </g>
    <g id="text_16">
     <!-- Cart position x -->
     <g transform="translate(749.34375 43.478437) scale(0.1 -0.1)">
      <defs>
       <path id="DejaVuSans-70" d="M 1159 525 
L 1159 -1331 
L 581 -1331 
L 581 3500 
L 1159 3500 
L 1159 2969 
Q 1341 3281 1617 3432 
Q 1894 3584 2278 3584 
Q 2916 3584 3314 3078 
Q 3713 2572 3713 1747 
Q 3713 922 3314 415 
Q 2916 -91 2278 -91 
Q 1894 -91 1617 61 
Q 1341 213 1159 525 
z
M 3116 1747 
Q 3116 2381 2855 2742 
Q 2594 3103 2138 3103 
Q 1681 3103 1420 2742 
Q 1159 2381 1159 1747 
Q 1159 1113 1420 752 
Q 1681 391 2138 391 
Q 2594 391 2855 752 
Q 3116 1113 3116 1747 
z
" transform="scale(0.015625)"/>
       <path id="DejaVuSans-78" d="M 3513 3500 
L 2247 1797 
L 3578 0 
L 2900 0 
L 1881 1375 
L 863 0 
L 184 0 
L 1544 1831 
L 300 3500 
L 978 3500 
L 1906 2253 
L 2834 3500 
L 3513 3500 
z
" transform="scale(0.015625)"/>
      </defs>
      <use xlink:href="#DejaVuSans-43"/>
      <use xlink:href="#DejaVuSans-61" transform="translate(69.824219 0)"/>
      <use xlink:href="#DejaVuSans-72" transform="translate(131.103516 0)"/>
      <use xlink:href="#DejaVuSans-74" transform="translate(172.216797 0)"/>
      <use xlink:href="#DejaVuSans-20" transform="translate(211.425781 0)"/>
      <use xlink:href="#DejaVuSans-70" transform="translate(243.212891 0)"/>
      <use xlink:href="#DejaVuSans-6f" transform="translate(306.689453 0)"/>
      <use xlink:href="#DejaVuSans-73" transform="translate(367.871094 0)"/>
      <use xlink:href="#DejaVuSans-69" transform="translate(419.970703 0)"/>
      <use xlink:href="#DejaVuSans-74" transform="translate(447.753906 0)"/>
      <use xlink:href="#DejaVuSans-69" transform="translate(486.962891 0)"/>
      <use xlink:href="#DejaVuSans-6f" transform="translate(514.746094 0)"/>
      <use xlink:href="#DejaVuSans-6e" transform="translate(575.927734 0)"/>
      <use xlink:href="#DejaVuSans-20" transform="translate(639.306641 0)"/>
      <use xlink:href="#DejaVuSans-78" transform="translate(671.09375 0)"/>
     </g>
    </g>
    <g id="line2d_16">
     <path d="M 721.34375 54.656563 
L 731.34375 54.656563 
L 741.34375 54.656563 
" style="fill: none; stroke-dasharray: 5.55,2.4; stroke-dashoffset: 0; stroke: #ff7f0e; stroke-opacity: 0.6; stroke-width: 1.5"/>
    </g>
    <g id="text_17">
     <!-- Reference x_target -->
     <g transform="translate(749.34375 58.156563) scale(0.1 -0.1)">
      <defs>
       <path id="DejaVuSans-52" d="M 2841 2188 
Q 3044 2119 3236 1894 
Q 3428 1669 3622 1275 
L 4263 0 
L 3584 0 
L 2988 1197 
Q 2756 1666 2539 1819 
Q 2322 1972 1947 1972 
L 1259 1972 
L 1259 0 
L 628 0 
L 628 4666 
L 2053 4666 
Q 2853 4666 3247 4331 
Q 3641 3997 3641 3322 
Q 3641 2881 3436 2590 
Q 3231 2300 2841 2188 
z
M 1259 4147 
L 1259 2491 
L 2053 2491 
Q 2509 2491 2742 2702 
Q 2975 2913 2975 3322 
Q 2975 3731 2742 3939 
Q 2509 4147 2053 4147 
L 1259 4147 
z
" transform="scale(0.015625)"/>
       <path id="DejaVuSans-66" d="M 2375 4863 
L 2375 4384 
L 1825 4384 
Q 1516 4384 1395 4259 
Q 1275 4134 1275 3809 
L 1275 3500 
L 2222 3500 
L 2222 3053 
L 1275 3053 
L 1275 0 
L 697 0 
L 697 3053 
L 147 3053 
L 147 3500 
L 697 3500 
L 697 3744 
Q 697 4328 969 4595 
Q 1241 4863 1831 4863 
L 2375 4863 
z
" transform="scale(0.015625)"/>
       <path id="DejaVuSans-63" d="M 3122 3366 
L 3122 2828 
Q 2878 2963 2633 3030 
Q 2388 3097 2138 3097 
Q 1578 3097 1268 2742 
Q 959 2388 959 1747 
Q 959 1106 1268 751 
Q 1578 397 2138 397 
Q 2388 397 2633 464 
Q 2878 531 3122 666 
L 3122 134 
Q 2881 22 2623 -34 
Q 2366 -91 2075 -91 
Q 1284 -91 818 406 
Q 353 903 353 1747 
Q 353 2603 823 3093 
Q 1294 3584 2113 3584 
Q 2378 3584 2631 3529 
Q 2884 3475 3122 3366 
z
" transform="scale(0.015625)"/>
       <path id="DejaVuSans-5f" d="M 3263 -1063 
L 3263 -1509 
L -63 -1509 
L -63 -1063 
L 3263 -1063 
z
" transform="scale(0.015625)"/>
       <path id="DejaVuSans-67" d="M 2906 1791 
Q 2906 2416 2648 2759 
Q 2391 3103 1925 3103 
Q 1463 3103 1205 2759 
Q 947 2416 947 1791 
Q 947 1169 1205 825 
Q 1463 481 1925 481 
Q 2391 481 2648 825 
Q 2906 1169 2906 1791 
z
M 3481 434 
Q 3481 -459 3084 -895 
Q 2688 -1331 1869 -1331 
Q 1566 -1331 1297 -1286 
Q 1028 -1241 775 -1147 
L 775 -588 
Q 1028 -725 1275 -790 
Q 1522 -856 1778 -856 
Q 2344 -856 2625 -561 
Q 2906 -266 2906 331 
L 2906 616 
Q 2728 306 2450 153 
Q 2172 0 1784 0 
Q 1141 0 747 490 
Q 353 981 353 1791 
Q 353 2603 747 3093 
Q 1141 3584 1784 3584 
Q 2172 3584 2450 3431 
Q 2728 3278 2906 2969 
L 2906 3500 
L 3481 3500 
L 3481 434 
z
" transform="scale(0.015625)"/>
      </defs>
      <use xlink:href="#DejaVuSans-52"/>
      <use xlink:href="#DejaVuSans-65" transform="translate(64.982422 0)"/>
      <use xlink:href="#DejaVuSans-66" transform="translate(126.505859 0)"/>
      <use xlink:href="#DejaVuSans-65" transform="translate(161.710938 0)"/>
      <use xlink:href="#DejaVuSans-72" transform="translate(223.234375 0)"/>
      <use xlink:href="#DejaVuSans-65" transform="translate(262.097656 0)"/>
      <use xlink:href="#DejaVuSans-6e" transform="translate(323.621094 0)"/>
      <use xlink:href="#DejaVuSans-63" transform="translate(387 0)"/>
      <use xlink:href="#DejaVuSans-65" transform="translate(441.980469 0)"/>
      <use xlink:href="#DejaVuSans-20" transform="translate(503.503906 0)"/>
      <use xlink:href="#DejaVuSans-78" transform="translate(535.291016 0)"/>
      <use xlink:href="#DejaVuSans-5f" transform="translate(594.470703 0)"/>
      <use xlink:href="#DejaVuSans-74" transform="translate(644.470703 0)"/>
      <use xlink:href="#DejaVuSans-61" transform="translate(683.679688 0)"/>
      <use xlink:href="#DejaVuSans-72" transform="translate(744.958984 0)"/>
      <use xlink:href="#DejaVuSans-67" transform="translate(784.322266 0)"/>
      <use xlink:href="#DejaVuSans-65" transform="translate(847.798828 0)"/>
      <use xlink:href="#DejaVuSans-74" transform="translate(909.322266 0)"/>
     </g>
    </g>
   </g>
  </g>
  <g id="axes_2">
   <g id="patch_8">
    <path d="M 56.09 390.04 
L 853.2 390.04 
L 853.2 229.44 
L 56.09 229.44 
z
" style="fill: #ffffff"/>
   </g>
   <g id="matplotlib.axis_3">
    <g id="xtick_8">
     <g id="line2d_17">
      <g>
       <use xlink:href="#m54851277fa" x="92.322273" y="390.04" style="stroke: #000000; stroke-width: 0.8"/>
      </g>
     </g>
     <g id="text_18">
      <!-- 0 -->
      <g transform="translate(89.141023 404.638437) scale(0.1 -0.1)">
       <use xlink:href="#DejaVuSans-30"/>
      </g>
     </g>
    </g>
    <g id="xtick_9">
     <g id="line2d_18">
      <g>
       <use xlink:href="#m54851277fa" x="213.096515" y="390.04" style="stroke: #000000; stroke-width: 0.8"/>
      </g>
     </g>
     <g id="text_19">
      <!-- 10 -->
      <g transform="translate(206.734015 404.638437) scale(0.1 -0.1)">
       <use xlink:href="#DejaVuSans-31"/>
       <use xlink:href="#DejaVuSans-30" transform="translate(63.623047 0)"/>
      </g>
     </g>
    </g>
    <g id="xtick_10">
     <g id="line2d_19">
      <g>
       <use xlink:href="#m54851277fa" x="333.870758" y="390.04" style="stroke: #000000; stroke-width: 0.8"/>
      </g>
     </g>
     <g id="text_20">
      <!-- 20 -->
      <g transform="translate(327.508258 404.638437) scale(0.1 -0.1)">
       <use xlink:href="#DejaVuSans-32"/>
       <use xlink:href="#DejaVuSans-30" transform="translate(63.623047 0)"/>
      </g>
     </g>
    </g>
    <g id="xtick_11">
     <g id="line2d_20">
      <g>
       <use xlink:href="#m54851277fa" x="454.645" y="390.04" style="stroke: #000000; stroke-width: 0.8"/>
      </g>
     </g>
     <g id="text_21">
      <!-- 30 -->
      <g transform="translate(448.2825 404.638437) scale(0.1 -0.1)">
       <use xlink:href="#DejaVuSans-33"/>
       <use xlink:href="#DejaVuSans-30" transform="translate(63.623047 0)"/>
      </g>
     </g>
    </g>
    <g id="xtick_12">
     <g id="line2d_21">
      <g>
       <use xlink:href="#m54851277fa" x="575.419242" y="390.04" style="stroke: #000000; stroke-width: 0.8"/>
      </g>
     </g>
     <g id="text_22">
      <!-- 40 -->
      <g transform="translate(569.056742 404.638437) scale(0.1 -0.1)">
       <use xlink:href="#DejaVuSans-34"/>
       <use xlink:href="#DejaVuSans-30" transform="translate(63.623047 0)"/>
      </g>
     </g>
    </g>
    <g id="xtick_13">
     <g id="line2d_22">
      <g>
       <use xlink:href="#m54851277fa" x="696.193485" y="390.04" style="stroke: #000000; stroke-width: 0.8"/>
      </g>
     </g>
     <g id="text_23">
      <!-- 50 -->
      <g transform="translate(689.830985 404.638437) scale(0.1 -0.1)">
       <use xlink:href="#DejaVuSans-35"/>
       <use xlink:href="#DejaVuSans-30" transform="translate(63.623047 0)"/>
      </g>
     </g>
    </g>
    <g id="xtick_14">
     <g id="line2d_23">
      <g>
       <use xlink:href="#m54851277fa" x="816.967727" y="390.04" style="stroke: #000000; stroke-width: 0.8"/>
      </g>
     </g>
     <g id="text_24">
      <!-- 60 -->
      <g transform="translate(810.605227 404.638437) scale(0.1 -0.1)">
       <use xlink:href="#DejaVuSans-36"/>
       <use xlink:href="#DejaVuSans-30" transform="translate(63.623047 0)"/>
      </g>
     </g>
    </g>
    <g id="text_25">
     <!-- Time (s) -->
     <g transform="translate(434.316094 418.316562) scale(0.1 -0.1)">
      <use xlink:href="#DejaVuSans-54"/>
      <use xlink:href="#DejaVuSans-69" transform="translate(57.958984 0)"/>
      <use xlink:href="#DejaVuSans-6d" transform="translate(85.742188 0)"/>
      <use xlink:href="#DejaVuSans-65" transform="translate(183.154297 0)"/>
      <use xlink:href="#DejaVuSans-20" transform="translate(244.677734 0)"/>
      <use xlink:href="#DejaVuSans-28" transform="translate(276.464844 0)"/>
      <use xlink:href="#DejaVuSans-73" transform="translate(315.478516 0)"/>
      <use xlink:href="#DejaVuSans-29" transform="translate(367.578125 0)"/>
     </g>
    </g>
   </g>
   <g id="matplotlib.axis_4">
    <g id="ytick_6">
     <g id="line2d_24">
      <g>
       <use xlink:href="#m8af547047c" x="56.09" y="387.526194" style="stroke: #000000; stroke-width: 0.8"/>
      </g>
     </g>
     <g id="text_26">
      <!-- −7.5 -->
      <g transform="translate(24.807187 391.325412) scale(0.1 -0.1)">
       <defs>
        <path id="DejaVuSans-37" d="M 525 4666 
L 3525 4666 
L 3525 4397 
L 1831 0 
L 1172 0 
L 2766 4134 
L 525 4134 
L 525 4666 
z
" transform="scale(0.015625)"/>
       </defs>
       <use xlink:href="#DejaVuSans-2212"/>
       <use xlink:href="#DejaVuSans-37" transform="translate(83.789062 0)"/>
       <use xlink:href="#DejaVuSans-2e" transform="translate(147.412109 0)"/>
       <use xlink:href="#DejaVuSans-35" transform="translate(179.199219 0)"/>
      </g>
     </g>
    </g>
    <g id="ytick_7">
     <g id="line2d_25">
      <g>
       <use xlink:href="#m8af547047c" x="56.09" y="362.809361" style="stroke: #000000; stroke-width: 0.8"/>
      </g>
     </g>
     <g id="text_27">
      <!-- −5.0 -->
      <g transform="translate(24.807187 366.60858) scale(0.1 -0.1)">
       <use xlink:href="#DejaVuSans-2212"/>
       <use xlink:href="#DejaVuSans-35" transform="translate(83.789062 0)"/>
       <use xlink:href="#DejaVuSans-2e" transform="translate(147.412109 0)"/>
       <use xlink:href="#DejaVuSans-30" transform="translate(179.199219 0)"/>
      </g>
     </g>
    </g>
    <g id="ytick_8">
     <g id="line2d_26">
      <g>
       <use xlink:href="#m8af547047c" x="56.09" y="338.092528" style="stroke: #000000; stroke-width: 0.8"/>
      </g>
     </g>
     <g id="text_28">
      <!-- −2.5 -->
      <g transform="translate(24.807187 341.891747) scale(0.1 -0.1)">
       <use xlink:href="#DejaVuSans-2212"/>
       <use xlink:href="#DejaVuSans-32" transform="translate(83.789062 0)"/>
       <use xlink:href="#DejaVuSans-2e" transform="translate(147.412109 0)"/>
       <use xlink:href="#DejaVuSans-35" transform="translate(179.199219 0)"/>
      </g>
     </g>
    </g>
    <g id="ytick_9">
     <g id="line2d_27">
      <g>
       <use xlink:href="#m8af547047c" x="56.09" y="313.375695" style="stroke: #000000; stroke-width: 0.8"/>
      </g>
     </g>
     <g id="text_29">
      <!-- 0.0 -->
      <g transform="translate(33.186875 317.174914) scale(0.1 -0.1)">
       <use xlink:href="#DejaVuSans-30"/>
       <use xlink:href="#DejaVuSans-2e" transform="translate(63.623047 0)"/>
       <use xlink:href="#DejaVuSans-30" transform="translate(95.410156 0)"/>
      </g>
     </g>
    </g>
    <g id="ytick_10">
     <g id="line2d_28">
      <g>
       <use xlink:href="#m8af547047c" x="56.09" y="288.658863" style="stroke: #000000; stroke-width: 0.8"/>
      </g>
     </g>
     <g id="text_30">
      <!-- 2.5 -->
      <g transform="translate(33.186875 292.458081) scale(0.1 -0.1)">
       <use xlink:href="#DejaVuSans-32"/>
       <use xlink:href="#DejaVuSans-2e" transform="translate(63.623047 0)"/>
       <use xlink:href="#DejaVuSans-35" transform="translate(95.410156 0)"/>
      </g>
     </g>
    </g>
    <g id="ytick_11">
     <g id="line2d_29">
      <g>
       <use xlink:href="#m8af547047c" x="56.09" y="263.94203" style="stroke: #000000; stroke-width: 0.8"/>
      </g>
     </g>
     <g id="text_31">
      <!-- 5.0 -->
      <g transform="translate(33.186875 267.741249) scale(0.1 -0.1)">
       <use xlink:href="#DejaVuSans-35"/>
       <use xlink:href="#DejaVuSans-2e" transform="translate(63.623047 0)"/>
       <use xlink:href="#DejaVuSans-30" transform="translate(95.410156 0)"/>
      </g>
     </g>
    </g>
    <g id="ytick_12">
     <g id="line2d_30">
      <g>
       <use xlink:href="#m8af547047c" x="56.09" y="239.225197" style="stroke: #000000; stroke-width: 0.8"/>
      </g>
     </g>
     <g id="text_32">
      <!-- 7.5 -->
      <g transform="translate(33.186875 243.024416) scale(0.1 -0.1)">
       <use xlink:href="#DejaVuSans-37"/>
       <use xlink:href="#DejaVuSans-2e" transform="translate(63.623047 0)"/>
       <use xlink:href="#DejaVuSans-35" transform="translate(95.410156 0)"/>
      </g>
     </g>
    </g>
    <g id="text_33">
     <!-- Velocity (m/s) -->
     <g transform="translate(18.7275 344.005625) rotate(-90) scale(0.1 -0.1)">
      <defs>
       <path id="DejaVuSans-56" d="M 1831 0 
L 50 4666 
L 709 4666 
L 2188 738 
L 3669 4666 
L 4325 4666 
L 2547 0 
L 1831 0 
z
" transform="scale(0.015625)"/>
       <path id="DejaVuSans-2f" d="M 1625 4666 
L 2156 4666 
L 531 -594 
L 0 -594 
L 1625 4666 
z
" transform="scale(0.015625)"/>
      </defs>
      <use xlink:href="#DejaVuSans-56"/>
      <use xlink:href="#DejaVuSans-65" transform="translate(60.658203 0)"/>
      <use xlink:href="#DejaVuSans-6c" transform="translate(122.181641 0)"/>
      <use xlink:href="#DejaVuSans-6f" transform="translate(149.964844 0)"/>
      <use xlink:href="#DejaVuSans-63" transform="translate(211.146484 0)"/>
      <use xlink:href="#DejaVuSans-69" transform="translate(266.126953 0)"/>
      <use xlink:href="#DejaVuSans-74" transform="translate(293.910156 0)"/>
      <use xlink:href="#DejaVuSans-79" transform="translate(333.119141 0)"/>
      <use xlink:href="#DejaVuSans-20" transform="translate(392.298828 0)"/>
      <use xlink:href="#DejaVuSans-28" transform="translate(424.085938 0)"/>
      <use xlink:href="#DejaVuSans-6d" transform="translate(463.099609 0)"/>
      <use xlink:href="#DejaVuSans-2f" transform="translate(560.511719 0)"/>
      <use xlink:href="#DejaVuSans-73" transform="translate(594.203125 0)"/>
      <use xlink:href="#DejaVuSans-29" transform="translate(646.302734 0)"/>
     </g>
    </g>
   </g>
   <g id="line2d_31">
    <path d="M 92.322273 313.375695 
L 93.651011 236.74 
L 95.583721 347.693243 
L 96.187693 382.74 
L 96.308487 382.440794 
L 97.274842 325.615092 
L 98.60358 248.523977 
L 98.845169 260.125724 
L 100.898673 375.458069 
L 101.985823 311.738936 
L 102.952178 258.218184 
L 103.676944 299.334541 
L 104.884888 367.363481 
L 106.696803 262.573607 
L 106.817598 266.019401 
L 108.508719 362.418157 
L 109.112691 328.372818 
L 110.19984 266.297404 
L 110.320635 269.777493 
L 111.890961 358.042304 
L 112.13255 345.99505 
L 113.461288 268.441939 
L 113.582083 271.205925 
L 115.031615 353.898935 
L 115.15241 352.49568 
L 116.601942 270.483688 
L 117.205914 304.565038 
L 118.051475 352.046063 
L 118.655446 318.064639 
L 119.380213 275.720981 
L 119.501007 278.973952 
L 120.708951 347.683071 
L 121.916895 279.482131 
L 122.279278 298.513876 
L 123.124838 343.414616 
L 124.211988 282.764933 
L 124.936754 323.851735 
L 125.299137 339.351523 
L 126.265492 286.587292 
L 127.111053 335.15887 
L 127.231847 334.630256 
L 128.077408 290.716257 
L 128.802174 332.249709 
L 128.922968 331.30586 
L 129.647735 294.123525 
L 130.372501 328.904713 
L 130.976473 296.683694 
L 131.097267 300.241106 
L 131.580445 326.763849 
L 131.701239 324.772397 
L 132.184416 299.60006 
L 132.305211 302.270838 
L 132.788388 323.904085 
L 133.271566 302.299525 
L 133.39236 304.852488 
L 133.754743 321.450356 
L 133.875538 320.136881 
L 134.237921 305.13737 
L 134.358715 305.453751 
L 134.841893 319.215478 
L 135.32507 306.682366 
L 135.566659 312.743742 
L 135.808248 317.880112 
L 135.929042 316.551373 
L 136.291425 308.146519 
L 136.41222 308.842662 
L 136.774603 316.459982 
L 136.895397 316.282163 
L 137.378575 309.362651 
L 137.861752 315.688078 
L 138.103341 312.629626 
L 138.34493 310.097724 
L 138.465724 310.781 
L 138.828107 314.977338 
L 138.948901 314.617389 
L 139.311285 310.869534 
L 139.432079 310.977906 
L 139.915256 314.38742 
L 140.398434 311.331662 
L 140.640023 312.840334 
L 140.881611 314.063001 
L 141.002406 313.723133 
L 141.364789 311.74181 
L 141.485583 311.927099 
L 141.847966 313.726303 
L 141.968761 313.66273 
L 142.451938 312.094762 
L 142.935116 313.537348 
L 143.176705 312.851086 
L 143.418293 312.312117 
L 143.539088 312.472083 
L 143.901471 313.40625 
L 144.022265 313.308316 
L 144.384648 312.512058 
L 144.505443 312.545915 
L 144.98862 313.300464 
L 145.471798 312.639494 
L 145.713386 312.990636 
L 145.954975 313.269502 
L 146.196564 313.014255 
L 146.438153 312.748697 
L 146.679741 312.953257 
L 146.92133 313.232125 
L 147.162919 313.106318 
L 147.404508 312.858926 
L 147.646096 312.951974 
L 148.00848 313.228025 
L 148.612451 312.977102 
L 148.974835 313.228525 
L 149.216423 313.135138 
L 149.578806 313.019854 
L 150.061984 313.235966 
L 150.665956 313.111703 
L 151.028339 313.256618 
L 151.753105 313.193925 
L 152.115488 313.27451 
L 152.71946 313.221373 
L 153.202638 313.292009 
L 153.685815 313.255887 
L 154.289787 313.314491 
L 154.772965 313.316684 
L 155.376936 313.344031 
L 156.343291 313.378691 
L 161.175066 313.569367 
L 187.387446 314.039791 
L 200.795621 313.862038 
L 212.995853 313.544234 
L 213.116648 312.372754 
L 213.358236 298.932206 
L 213.479031 299.45734 
L 214.083003 327.109222 
L 214.56618 301.657592 
L 214.686974 302.993043 
L 215.170152 325.318683 
L 215.411741 314.487868 
L 215.653329 304.460443 
L 215.774124 306.474524 
L 216.136507 322.808005 
L 216.257301 322.019375 
L 216.740479 307.516528 
L 217.223656 321.185888 
L 217.465245 314.204943 
L 217.706834 309.088723 
L 217.827628 310.870304 
L 218.190011 319.999632 
L 218.310806 319.006211 
L 218.673189 310.8219 
L 218.793983 311.292819 
L 219.277161 318.844343 
L 219.760338 312.104291 
L 220.001927 315.724515 
L 220.243516 318.400346 
L 220.36431 317.547826 
L 220.726693 313.065847 
L 220.847488 313.619977 
L 221.209871 317.878921 
L 221.330665 317.68925 
L 221.813843 314.027815 
L 222.29702 317.638595 
L 222.538609 315.860245 
L 222.780198 314.568498 
L 222.900992 315.05287 
L 223.263375 317.489558 
L 223.384169 317.242511 
L 223.746553 315.148118 
L 223.867347 315.292149 
L 224.350524 317.348141 
L 224.833702 315.62603 
L 225.075291 316.631377 
L 225.316879 317.371796 
L 225.437674 317.152429 
L 225.800057 315.997834 
L 225.920851 316.166169 
L 226.283234 317.359993 
L 226.404029 317.316828 
L 226.766412 316.366891 
L 226.887206 316.388895 
L 227.370384 317.416788 
L 227.611973 316.956044 
L 227.853561 316.640543 
L 228.09515 317.073747 
L 228.336739 317.481985 
L 228.457533 317.422941 
L 228.819916 316.894868 
L 228.940711 316.949949 
L 229.423888 317.547784 
L 229.907066 317.128852 
L 230.511038 317.589858 
L 230.873421 317.310022 
L 231.115009 317.497596 
L 231.356598 317.717736 
L 231.598187 317.635927 
L 231.839776 317.482585 
L 232.081364 317.584626 
L 232.443748 317.809047 
L 233.047719 317.679943 
L 233.410103 317.887104 
L 234.255663 317.90512 
L 234.618046 317.933858 
L 234.980429 317.870483 
L 235.705196 317.988595 
L 236.067579 317.977115 
L 236.671551 318.06493 
L 237.154728 318.066485 
L 237.637906 318.123613 
L 238.241878 318.134829 
L 238.845849 318.140697 
L 240.295382 318.19538 
L 241.62412 318.210583 
L 244.040008 318.156371 
L 247.180661 318.010299 
L 249.958932 317.786896 
L 255.394679 317.133274 
L 259.864071 316.413671 
L 269.769209 314.475278 
L 280.27832 312.3654 
L 290.545842 310.758323 
L 294.894439 310.308525 
L 299.60542 310.011838 
L 303.47084 309.91345 
L 308.544204 309.98299 
L 313.496773 310.253484 
L 319.536492 310.815175 
L 326.66336 311.719029 
L 333.790228 312.759765 
L 333.911022 315.140938 
L 334.152611 327.846613 
L 334.273405 325.960687 
L 334.756583 299.136913 
L 334.877377 300.313876 
L 335.360555 325.029887 
L 335.481349 322.316679 
L 335.843732 302.358974 
L 335.964527 301.835658 
L 336.447704 322.124691 
L 336.568499 318.917524 
L 336.930882 303.731936 
L 337.051676 305.67354 
L 337.414059 319.567419 
L 337.534854 318.608112 
L 337.897237 305.993589 
L 338.018031 306.091883 
L 338.501209 317.600466 
L 338.742797 311.310482 
L 338.984386 307.02326 
L 339.10518 308.647037 
L 339.467564 316.273055 
L 339.588358 315.245087 
L 339.950741 308.134118 
L 340.071535 308.610524 
L 340.433919 314.909383 
L 340.554713 314.807872 
L 341.03789 308.931284 
L 341.279479 312.063508 
L 341.521068 314.139592 
L 341.762657 311.63229 
L 342.004245 309.416744 
L 342.12504 309.918344 
L 342.487423 313.409891 
L 342.608217 313.134349 
L 342.9706 309.895696 
L 343.091395 309.929162 
L 343.574572 312.822049 
L 344.05775 310.073822 
L 344.178544 310.496443 
L 344.540927 312.428469 
L 344.661722 312.141375 
L 345.024105 310.27345 
L 345.144899 310.40018 
L 345.507282 312.022738 
L 345.628077 311.98037 
L 346.111254 310.405381 
L 346.594432 311.756867 
L 346.83602 311.063014 
L 347.077609 310.462277 
L 347.198404 310.597468 
L 347.560787 311.513851 
L 347.681581 311.427378 
L 348.043964 310.535426 
L 348.164759 310.544525 
L 348.647936 311.295916 
L 349.131114 310.533874 
L 349.372702 310.867762 
L 349.614291 311.147301 
L 349.85588 310.860521 
L 350.097469 310.543626 
L 350.339057 310.723711 
L 350.580646 310.999515 
L 350.822235 310.850993 
L 351.063824 310.559741 
L 351.305412 310.624036 
L 351.667795 310.887325 
L 352.271767 310.558651 
L 352.63415 310.794097 
L 352.875739 310.678224 
L 353.238122 310.517605 
L 353.7213 310.707943 
L 354.325272 310.52343 
L 354.687655 310.650952 
L 355.533215 310.573747 
L 355.895599 310.554281 
L 356.257982 310.46956 
L 356.982748 310.504177 
L 357.345131 310.470722 
L 357.949103 310.501128 
L 358.43228 310.477785 
L 359.036252 310.479275 
L 359.640224 310.503039 
L 362.176906 310.502656 
L 365.559149 310.61822 
L 379.933679 311.794864 
L 389.597229 312.959776 
L 401.072695 314.298793 
L 413.876898 315.268678 
L 420.399795 315.445899 
L 426.922691 315.402343 
L 433.928765 315.12509 
L 441.780399 314.59467 
L 451.685538 313.743799 
L 454.584603 313.485158 
L 454.705397 310.023835 
L 454.946986 298.269685 
L 455.06778 301.324963 
L 455.550958 327.352019 
L 455.671752 325.033965 
L 456.15493 301.511483 
L 456.396518 312.357227 
L 456.638107 324.352635 
L 456.758902 323.739806 
L 457.242079 304.903866 
L 457.725257 322.434477 
L 457.966845 314.099733 
L 458.208434 306.986582 
L 458.329228 308.840362 
L 458.691612 320.660022 
L 458.812406 319.742182 
L 459.174789 309.188987 
L 459.295583 309.450568 
L 459.778761 319.270393 
L 460.261938 310.50262 
L 460.503527 314.817527 
L 460.745116 318.489838 
L 460.86591 317.585024 
L 461.228293 311.712914 
L 461.349088 312.228917 
L 461.711471 317.648185 
L 461.832265 317.550909 
L 462.315443 312.761809 
L 462.79862 317.287659 
L 463.040209 315.186336 
L 463.281798 313.412519 
L 463.402592 313.90887 
L 463.764975 316.972513 
L 463.88577 316.743664 
L 464.248153 314.078369 
L 464.368947 314.167224 
L 464.852125 316.752068 
L 465.335302 314.5359 
L 465.576891 315.69782 
L 465.81848 316.674575 
L 465.939274 316.442203 
L 466.301657 314.943678 
L 466.422452 315.097745 
L 466.784835 316.570822 
L 466.905629 316.549453 
L 467.388807 315.325282 
L 467.871984 316.587765 
L 468.113573 316.034778 
L 468.355162 315.586517 
L 468.475956 315.737329 
L 468.838339 316.594398 
L 468.959133 316.537457 
L 469.321517 315.850597 
L 469.442311 315.890152 
L 469.925488 316.624217 
L 470.408666 316.066711 
L 470.650255 316.404159 
L 470.891843 316.681402 
L 471.133432 316.472119 
L 471.375021 316.248141 
L 471.61661 316.450282 
L 471.858198 316.723819 
L 472.099787 316.630083 
L 472.341376 316.421431 
L 472.582965 316.520249 
L 472.945348 316.797258 
L 473.54932 316.60528 
L 473.911703 316.855297 
L 474.274086 316.714903 
L 474.515675 316.696939 
L 474.998852 316.916841 
L 475.602824 316.828546 
L 476.086002 316.961994 
L 476.569179 316.894937 
L 477.052357 317.02325 
L 477.656328 316.98809 
L 478.139506 317.0599 
L 478.622683 317.033219 
L 479.226655 317.089786 
L 479.709833 317.093653 
L 480.313805 317.114801 
L 481.400954 317.134691 
L 492.755625 316.756798 
L 496.621045 316.381736 
L 502.177586 315.683044 
L 513.04908 313.988418 
L 525.007723 312.15983 
L 535.39604 311.055516 
L 540.10702 310.779063 
L 546.871505 310.650934 
L 553.998373 310.853281 
L 562.45398 311.468719 
L 569.580848 312.203822 
L 575.378978 312.873666 
L 575.741361 328.138857 
L 575.98295 316.769535 
L 576.345333 298.801564 
L 576.466127 302.457446 
L 576.949305 324.869708 
L 577.432482 301.6019 
L 577.553276 303.039109 
L 577.91566 321.40352 
L 578.036454 321.49556 
L 578.519631 303.953248 
L 578.76122 312.996223 
L 579.002809 319.628868 
L 579.123603 317.346029 
L 579.485986 305.6202 
L 579.606781 306.926803 
L 579.969164 317.550804 
L 580.089958 316.960688 
L 580.573136 307.273467 
L 581.056313 316.064321 
L 581.297902 311.393117 
L 581.539491 307.986838 
L 581.660285 309.123126 
L 582.022668 314.951423 
L 582.143463 314.241237 
L 582.505846 308.81158 
L 582.62664 309.086673 
L 582.989023 313.842073 
L 583.109818 313.824987 
L 583.592995 309.310784 
L 583.834584 311.605076 
L 584.076173 313.255675 
L 584.196967 312.649114 
L 584.55935 309.619625 
L 584.680144 309.954619 
L 585.042528 312.645899 
L 585.163322 312.471275 
L 585.646499 309.935081 
L 586.129677 312.16651 
L 586.371266 310.916521 
L 586.612854 310.016761 
L 586.733649 310.312536 
L 587.096032 311.808196 
L 587.216826 311.604572 
L 587.579209 310.137119 
L 587.700004 310.208816 
L 588.062387 311.447916 
L 588.183181 311.428881 
L 588.666359 310.182635 
L 588.907948 310.792195 
L 589.149536 311.210853 
L 589.391125 310.684147 
L 589.632714 310.195232 
L 589.753508 310.283362 
L 590.115891 310.983227 
L 590.236686 310.9231 
L 590.719863 310.214096 
L 591.203041 310.784232 
L 591.807013 310.254947 
L 592.169396 310.636472 
L 592.410984 310.417264 
L 592.652573 310.159489 
L 592.894162 310.282685 
L 593.135751 310.493295 
L 593.377339 310.380788 
L 593.739723 310.124699 
L 594.343694 310.327572 
L 594.706078 310.090076 
L 595.430844 310.19776 
L 595.793227 310.061791 
L 596.397199 310.160406 
L 596.759582 310.027359 
L 597.484348 310.076007 
L 597.846731 310.007606 
L 598.450703 310.052954 
L 598.933881 309.997615 
L 599.417058 310.031518 
L 600.02103 309.992389 
L 600.504208 309.994961 
L 601.108179 309.990194 
L 602.316123 309.996042 
L 604.732011 310.001317 
L 608.235048 310.141044 
L 615.724299 310.71415 
L 621.160046 311.338355 
L 634.689016 313.248357 
L 645.318921 314.65331 
L 650.875462 315.20733 
L 657.398358 315.645203 
L 663.075694 315.80851 
L 668.269852 315.785307 
L 673.222421 315.614519 
L 678.537374 315.294187 
L 686.872186 314.570895 
L 696.173352 313.610306 
L 696.535736 298.408713 
L 696.898119 317.735047 
L 697.139707 327.597247 
L 697.381296 316.041492 
L 697.622885 302.7081 
L 697.743679 302.055201 
L 698.226857 324.986965 
L 698.347651 322.652024 
L 698.710034 304.837002 
L 698.830829 305.64277 
L 699.314006 322.1906 
L 699.797184 307.121279 
L 700.038772 314.883012 
L 700.280361 320.864286 
L 700.401156 319.036446 
L 700.763539 308.952515 
L 700.884333 310.039626 
L 701.246716 319.36391 
L 701.367511 318.978463 
L 701.850688 310.711108 
L 702.333866 318.48449 
L 702.575454 314.594778 
L 702.817043 311.66664 
L 702.937837 312.646843 
L 703.300221 317.813122 
L 703.421015 317.291385 
L 703.783398 312.688447 
L 703.904192 312.936169 
L 704.38737 317.192875 
L 704.870547 313.422648 
L 705.112136 315.449935 
L 705.353725 316.984223 
L 705.474519 316.514399 
L 705.836902 313.978274 
L 705.957697 314.283733 
L 706.32008 316.721158 
L 706.440874 316.62059 
L 706.924052 314.540491 
L 707.407229 316.608929 
L 707.648818 315.603475 
L 707.890407 314.869126 
L 708.011201 315.145569 
L 708.373584 316.539829 
L 708.494379 316.402951 
L 708.856762 315.216382 
L 708.977556 315.299124 
L 709.460734 316.477566 
L 709.943911 315.504469 
L 710.1855 316.0791 
L 710.427089 316.503489 
L 710.668677 316.106767 
L 710.910266 315.728433 
L 711.031061 315.825188 
L 711.393444 316.508397 
L 711.514238 316.484791 
L 711.997416 315.96225 
L 712.480593 316.550481 
L 713.084565 316.198222 
L 713.446948 316.594227 
L 713.688537 316.448969 
L 713.930126 316.263301 
L 714.171714 316.405228 
L 714.413303 316.627454 
L 714.654892 316.5706 
L 715.017275 316.400074 
L 715.621247 316.662695 
L 715.98363 316.504119 
L 716.829191 316.633531 
L 717.070779 316.610717 
L 717.674751 316.761994 
L 718.157929 316.709568 
L 718.641106 316.818021 
L 719.124284 316.758982 
L 719.728256 316.843011 
L 720.211433 316.825105 
L 720.815405 316.863947 
L 721.298582 316.875693 
L 721.902554 316.881823 
L 723.231292 316.902219 
L 724.439236 316.923513 
L 726.613535 316.898999 
L 734.102786 316.500871 
L 739.900916 315.927197 
L 749.68526 314.597171 
L 766.838062 312.124415 
L 777.588761 311.120404 
L 783.386891 310.872715 
L 788.097872 310.832786 
L 794.620768 311.003568 
L 800.660487 311.372557 
L 808.149738 312.039842 
L 816.967727 312.979914 
L 816.967727 312.979914 
" clip-path="url(#pe00c2c00d3)" style="fill: none; stroke: #1f77b4; stroke-width: 1.5; stroke-linecap: square"/>
   </g>
   <g id="patch_9">
    <path d="M 56.09 390.04 
L 56.09 229.44 
" style="fill: none; stroke: #000000; stroke-width: 0.8; stroke-linejoin: miter; stroke-linecap: square"/>
   </g>
   <g id="patch_10">
    <path d="M 853.2 390.04 
L 853.2 229.44 
" style="fill: none; stroke: #000000; stroke-width: 0.8; stroke-linejoin: miter; stroke-linecap: square"/>
   </g>
   <g id="patch_11">
    <path d="M 56.09 390.04 
L 853.2 390.04 
" style="fill: none; stroke: #000000; stroke-width: 0.8; stroke-linejoin: miter; stroke-linecap: square"/>
   </g>
   <g id="patch_12">
    <path d="M 56.09 229.44 
L 853.2 229.44 
" style="fill: none; stroke: #000000; stroke-width: 0.8; stroke-linejoin: miter; stroke-linecap: square"/>
   </g>
   <g id="legend_2">
    <g id="patch_13">
     <path d="M 720.310938 252.39625 
L 846.2 252.39625 
Q 848.2 252.39625 848.2 250.39625 
L 848.2 236.44 
Q 848.2 234.44 846.2 234.44 
L 720.310938 234.44 
Q 718.310938 234.44 718.310938 236.44 
L 718.310938 250.39625 
Q 718.310938 252.39625 720.310938 252.39625 
z
" style="fill: #ffffff; opacity: 0.8; stroke: #cccccc; stroke-linejoin: miter"/>
    </g>
    <g id="line2d_32">
     <path d="M 722.310938 242.538437 
L 732.310938 242.538437 
L 742.310938 242.538437 
" style="fill: none; stroke: #1f77b4; stroke-width: 1.5; stroke-linecap: square"/>
    </g>
    <g id="text_34">
     <!-- Cart velocity x_dot -->
     <g transform="translate(750.310938 246.038437) scale(0.1 -0.1)">
      <use xlink:href="#DejaVuSans-43"/>
      <use xlink:href="#DejaVuSans-61" transform="translate(69.824219 0)"/>
      <use xlink:href="#DejaVuSans-72" transform="translate(131.103516 0)"/>
      <use xlink:href="#DejaVuSans-74" transform="translate(172.216797 0)"/>
      <use xlink:href="#DejaVuSans-20" transform="translate(211.425781 0)"/>
      <use xlink:href="#DejaVuSans-76" transform="translate(243.212891 0)"/>
      <use xlink:href="#DejaVuSans-65" transform="translate(302.392578 0)"/>
      <use xlink:href="#DejaVuSans-6c" transform="translate(363.916016 0)"/>
      <use xlink:href="#DejaVuSans-6f" transform="translate(391.699219 0)"/>
      <use xlink:href="#DejaVuSans-63" transform="translate(452.880859 0)"/>
      <use xlink:href="#DejaVuSans-69" transform="translate(507.861328 0)"/>
      <use xlink:href="#DejaVuSans-74" transform="translate(535.644531 0)"/>
      <use xlink:href="#DejaVuSans-79" transform="translate(574.853516 0)"/>
      <use xlink:href="#DejaVuSans-20" transform="translate(634.033203 0)"/>
      <use xlink:href="#DejaVuSans-78" transform="translate(665.820312 0)"/>
      <use xlink:href="#DejaVuSans-5f" transform="translate(725 0)"/>
      <use xlink:href="#DejaVuSans-64" transform="translate(775 0)"/>
      <use xlink:href="#DejaVuSans-6f" transform="translate(838.476562 0)"/>
      <use xlink:href="#DejaVuSans-74" transform="translate(899.658203 0)"/>
     </g>
    </g>
   </g>
  </g>
 </g>
 <defs>
  <clipPath id="pe7afa2f183">
   <rect x="56.09" y="26.88" width="797.11" height="160.6"/>
  </clipPath>
  <clipPath id="pe00c2c00d3">
   <rect x="56.09" y="229.44" width="797.11" height="160.6"/>
  </clipPath>
 </defs>
</svg>
