<?xml version="1.0" encoding="utf-8" standalone="no"?>
<!DOCTYPE svg PUBLIC "-//W3C//DTD SVG 1.1//EN"
  "http://www.w3.org/Graphics/SVG/1.1/DTD/svg11.dtd">
<svg xmlns:xlink="http://www.w3.org/1999/xlink" width="460.8pt" height="345.6pt" viewBox="0 0 460.8 345.6" xmlns="http://www.w3.org/2000/svg" version="1.1">
 <metadata>
  <rdf:RDF xmlns:dc="http://purl.org/dc/elements/1.1/" xmlns:cc="http://creativecommons.org/ns#" xmlns:rdf="http://www.w3.org/1999/02/22-rdf-syntax-ns#">
   <cc:Work>
    <dc:type rdf:resource="http://purl.org/dc/dcmitype/StillImage"/>
    <dc:date>2025-04-29T12:33:15.812288</dc:date>
    <dc:format>image/svg+xml</dc:format>
    <dc:creator>
     <cc:Agent>
      <dc:title>Matplotlib v3.10.1, https://matplotlib.org/</dc:title>
     </cc:Agent>
    </dc:creator>
   </cc:Work>
  </rdf:RDF>
 </metadata>
 <defs>
  <style type="text/css">*{stroke-linejoin: round; stroke-linecap: butt}</style>
 </defs>
 <g id="figure_1">
  <g id="patch_1">
   <path d="M 0 345.6 
L 460.8 345.6 
L 460.8 0 
L 0 0 
z
" style="fill: #ffffff"/>
  </g>
  <g id="axes_1">
   <g id="patch_2">
    <path d="M 57.6 307.584 
L 414.72 307.584 
L 414.72 41.472 
L 57.6 41.472 
z
" style="fill: #ffffff"/>
   </g>
   <g id="matplotlib.axis_1">
    <g id="xtick_1">
     <g id="line2d_1">
      <defs>
       <path id="m7ad3b42591" d="M 0 0 
L 0 3.5 
" style="stroke: #000000; stroke-width: 0.8"/>
      </defs>
      <g>
       <use xlink:href="#m7ad3b42591" x="73.832727" y="307.584" style="stroke: #000000; stroke-width: 0.8"/>
      </g>
     </g>
     <g id="text_1">
      <!-- 0 -->
      <g transform="translate(70.651477 322.182437) scale(0.1 -0.1)">
       <defs>
        <path id="DejaVuSans-30" d="M 2034 4250 
Q 1547 4250 1301 3770 
Q 1056 3291 1056 2328 
Q 1056 1369 1301 889 
Q 1547 409 2034 409 
Q 2525 409 2770 889 
Q 3016 1369 3016 2328 
Q 3016 3291 2770 3770 
Q 2525 4250 2034 4250 
z
M 2034 4750 
Q 2819 4750 3233 4129 
Q 3647 3509 3647 2328 
Q 3647 1150 3233 529 
Q 2819 -91 2034 -91 
Q 1250 -91 836 529 
Q 422 1150 422 2328 
Q 422 3509 836 4129 
Q 1250 4750 2034 4750 
z
" transform="scale(0.015625)"/>
       </defs>
       <use xlink:href="#DejaVuSans-30"/>
      </g>
     </g>
    </g>
    <g id="xtick_2">
     <g id="line2d_2">
      <g>
       <use xlink:href="#m7ad3b42591" x="127.941818" y="307.584" style="stroke: #000000; stroke-width: 0.8"/>
      </g>
     </g>
     <g id="text_2">
      <!-- 10 -->
      <g transform="translate(121.579318 322.182437) scale(0.1 -0.1)">
       <defs>
        <path id="DejaVuSans-31" d="M 794 531 
L 1825 531 
L 1825 4091 
L 703 3866 
L 703 4441 
L 1819 4666 
L 2450 4666 
L 2450 531 
L 3481 531 
L 3481 0 
L 794 0 
L 794 531 
z
" transform="scale(0.015625)"/>
       </defs>
       <use xlink:href="#DejaVuSans-31"/>
       <use xlink:href="#DejaVuSans-30" transform="translate(63.623047 0)"/>
      </g>
     </g>
    </g>
    <g id="xtick_3">
     <g id="line2d_3">
      <g>
       <use xlink:href="#m7ad3b42591" x="182.050909" y="307.584" style="stroke: #000000; stroke-width: 0.8"/>
      </g>
     </g>
     <g id="text_3">
      <!-- 20 -->
      <g transform="translate(175.688409 322.182437) scale(0.1 -0.1)">
       <defs>
        <path id="DejaVuSans-32" d="M 1228 531 
L 3431 531 
L 3431 0 
L 469 0 
L 469 531 
Q 828 903 1448 1529 
Q 2069 2156 2228 2338 
Q 2531 2678 2651 2914 
Q 2772 3150 2772 3378 
Q 2772 3750 2511 3984 
Q 2250 4219 1831 4219 
Q 1534 4219 1204 4116 
Q 875 4013 500 3803 
L 500 4441 
Q 881 4594 1212 4672 
Q 1544 4750 1819 4750 
Q 2544 4750 2975 4387 
Q 3406 4025 3406 3419 
Q 3406 3131 3298 2873 
Q 3191 2616 2906 2266 
Q 2828 2175 2409 1742 
Q 1991 1309 1228 531 
z
" transform="scale(0.015625)"/>
       </defs>
       <use xlink:href="#DejaVuSans-32"/>
       <use xlink:href="#DejaVuSans-30" transform="translate(63.623047 0)"/>
      </g>
     </g>
    </g>
    <g id="xtick_4">
     <g id="line2d_4">
      <g>
       <use xlink:href="#m7ad3b42591" x="236.16" y="307.584" style="stroke: #000000; stroke-width: 0.8"/>
      </g>
     </g>
     <g id="text_4">
      <!-- 30 -->
      <g transform="translate(229.7975 322.182437) scale(0.1 -0.1)">
       <defs>
        <path id="DejaVuSans-33" d="M 2597 2516 
Q 3050 2419 3304 2112 
Q 3559 1806 3559 1356 
Q 3559 666 3084 287 
Q 2609 -91 1734 -91 
Q 1441 -91 1130 -33 
Q 819 25 488 141 
L 488 750 
Q 750 597 1062 519 
Q 1375 441 1716 441 
Q 2309 441 2620 675 
Q 2931 909 2931 1356 
Q 2931 1769 2642 2001 
Q 2353 2234 1838 2234 
L 1294 2234 
L 1294 2753 
L 1863 2753 
Q 2328 2753 2575 2939 
Q 2822 3125 2822 3475 
Q 2822 3834 2567 4026 
Q 2313 4219 1838 4219 
Q 1578 4219 1281 4162 
Q 984 4106 628 3988 
L 628 4550 
Q 988 4650 1302 4700 
Q 1616 4750 1894 4750 
Q 2613 4750 3031 4423 
Q 3450 4097 3450 3541 
Q 3450 3153 3228 2886 
Q 3006 2619 2597 2516 
z
" transform="scale(0.015625)"/>
       </defs>
       <use xlink:href="#DejaVuSans-33"/>
       <use xlink:href="#DejaVuSans-30" transform="translate(63.623047 0)"/>
      </g>
     </g>
    </g>
    <g id="xtick_5">
     <g id="line2d_5">
      <g>
       <use xlink:href="#m7ad3b42591" x="290.269091" y="307.584" style="stroke: #000000; stroke-width: 0.8"/>
      </g>
     </g>
     <g id="text_5">
      <!-- 40 -->
      <g transform="translate(283.906591 322.182437) scale(0.1 -0.1)">
       <defs>
        <path id="DejaVuSans-34" d="M 2419 4116 
L 825 1625 
L 2419 1625 
L 2419 4116 
z
M 2253 4666 
L 3047 4666 
L 3047 1625 
L 3713 1625 
L 3713 1100 
L 3047 1100 
L 3047 0 
L 2419 0 
L 2419 1100 
L 313 1100 
L 313 1709 
L 2253 4666 
z
" transform="scale(0.015625)"/>
       </defs>
       <use xlink:href="#DejaVuSans-34"/>
       <use xlink:href="#DejaVuSans-30" transform="translate(63.623047 0)"/>
      </g>
     </g>
    </g>
    <g id="xtick_6">
     <g id="line2d_6">
      <g>
       <use xlink:href="#m7ad3b42591" x="344.378182" y="307.584" style="stroke: #000000; stroke-width: 0.8"/>
      </g>
     </g>
     <g id="text_6">
      <!-- 50 -->
      <g transform="translate(338.015682 322.182437) scale(0.1 -0.1)">
       <defs>
        <path id="DejaVuSans-35" d="M 691 4666 
L 3169 4666 
L 3169 4134 
L 1269 4134 
L 1269 2991 
Q 1406 3038 1543 3061 
Q 1681 3084 1819 3084 
Q 2600 3084 3056 2656 
Q 3513 2228 3513 1497 
Q 3513 744 3044 326 
Q 2575 -91 1722 -91 
Q 1428 -91 1123 -41 
Q 819 9 494 109 
L 494 744 
Q 775 591 1075 516 
Q 1375 441 1709 441 
Q 2250 441 2565 725 
Q 2881 1009 2881 1497 
Q 2881 1984 2565 2268 
Q 2250 2553 1709 2553 
Q 1456 2553 1204 2497 
Q 953 2441 691 2322 
L 691 4666 
z
" transform="scale(0.015625)"/>
       </defs>
       <use xlink:href="#DejaVuSans-35"/>
       <use xlink:href="#DejaVuSans-30" transform="translate(63.623047 0)"/>
      </g>
     </g>
    </g>
    <g id="xtick_7">
     <g id="line2d_7">
      <g>
       <use xlink:href="#m7ad3b42591" x="398.487273" y="307.584" style="stroke: #000000; stroke-width: 0.8"/>
      </g>
     </g>
     <g id="text_7">
      <!-- 60 -->
      <g transform="translate(392.124773 322.182437) scale(0.1 -0.1)">
       <defs>
        <path id="DejaVuSans-36" d="M 2113 2584 
Q 1688 2584 1439 2293 
Q 1191 2003 1191 1497 
Q 1191 994 1439 701 
Q 1688 409 2113 409 
Q 2538 409 2786 701 
Q 3034 994 3034 1497 
Q 3034 2003 2786 2293 
Q 2538 2584 2113 2584 
z
M 3366 4563 
L 3366 3988 
Q 3128 4100 2886 4159 
Q 2644 4219 2406 4219 
Q 1781 4219 1451 3797 
Q 1122 3375 1075 2522 
Q 1259 2794 1537 2939 
Q 1816 3084 2150 3084 
Q 2853 3084 3261 2657 
Q 3669 2231 3669 1497 
Q 3669 778 3244 343 
Q 2819 -91 2113 -91 
Q 1303 -91 875 529 
Q 447 1150 447 2328 
Q 447 3434 972 4092 
Q 1497 4750 2381 4750 
Q 2619 4750 2861 4703 
Q 3103 4656 3366 4563 
z
" transform="scale(0.015625)"/>
       </defs>
       <use xlink:href="#DejaVuSans-36"/>
       <use xlink:href="#DejaVuSans-30" transform="translate(63.623047 0)"/>
      </g>
     </g>
    </g>
    <g id="text_8">
     <!-- Time (s) -->
     <g transform="translate(215.831094 335.860562) scale(0.1 -0.1)">
      <defs>
       <path id="DejaVuSans-54" d="M -19 4666 
L 3928 4666 
L 3928 4134 
L 2272 4134 
L 2272 0 
L 1638 0 
L 1638 4134 
L -19 4134 
L -19 4666 
z
" transform="scale(0.015625)"/>
       <path id="DejaVuSans-69" d="M 603 3500 
L 1178 3500 
L 1178 0 
L 603 0 
L 603 3500 
z
M 603 4863 
L 1178 4863 
L 1178 4134 
L 603 4134 
L 603 4863 
z
" transform="scale(0.015625)"/>
       <path id="DejaVuSans-6d" d="M 3328 2828 
Q 3544 3216 3844 3400 
Q 4144 3584 4550 3584 
Q 5097 3584 5394 3201 
Q 5691 2819 5691 2113 
L 5691 0 
L 5113 0 
L 5113 2094 
Q 5113 2597 4934 2840 
Q 4756 3084 4391 3084 
Q 3944 3084 3684 2787 
Q 3425 2491 3425 1978 
L 3425 0 
L 2847 0 
L 2847 2094 
Q 2847 2600 2669 2842 
Q 2491 3084 2119 3084 
Q 1678 3084 1418 2786 
Q 1159 2488 1159 1978 
L 1159 0 
L 581 0 
L 581 3500 
L 1159 3500 
L 1159 2956 
Q 1356 3278 1631 3431 
Q 1906 3584 2284 3584 
Q 2666 3584 2933 3390 
Q 3200 3197 3328 2828 
z
" transform="scale(0.015625)"/>
       <path id="DejaVuSans-65" d="M 3597 1894 
L 3597 1613 
L 953 1613 
Q 991 1019 1311 708 
Q 1631 397 2203 397 
Q 2534 397 2845 478 
Q 3156 559 3463 722 
L 3463 178 
Q 3153 47 2828 -22 
Q 2503 -91 2169 -91 
Q 1331 -91 842 396 
Q 353 884 353 1716 
Q 353 2575 817 3079 
Q 1281 3584 2069 3584 
Q 2775 3584 3186 3129 
Q 3597 2675 3597 1894 
z
M 3022 2063 
Q 3016 2534 2758 2815 
Q 2500 3097 2075 3097 
Q 1594 3097 1305 2825 
Q 1016 2553 972 2059 
L 3022 2063 
z
" transform="scale(0.015625)"/>
       <path id="DejaVuSans-20" transform="scale(0.015625)"/>
       <path id="DejaVuSans-28" d="M 1984 4856 
Q 1566 4138 1362 3434 
Q 1159 2731 1159 2009 
Q 1159 1288 1364 580 
Q 1569 -128 1984 -844 
L 1484 -844 
Q 1016 -109 783 600 
Q 550 1309 550 2009 
Q 550 2706 781 3412 
Q 1013 4119 1484 4856 
L 1984 4856 
z
" transform="scale(0.015625)"/>
       <path id="DejaVuSans-73" d="M 2834 3397 
L 2834 2853 
Q 2591 2978 2328 3040 
Q 2066 3103 1784 3103 
Q 1356 3103 1142 2972 
Q 928 2841 928 2578 
Q 928 2378 1081 2264 
Q 1234 2150 1697 2047 
L 1894 2003 
Q 2506 1872 2764 1633 
Q 3022 1394 3022 966 
Q 3022 478 2636 193 
Q 2250 -91 1575 -91 
Q 1294 -91 989 -36 
Q 684 19 347 128 
L 347 722 
Q 666 556 975 473 
Q 1284 391 1588 391 
Q 1994 391 2212 530 
Q 2431 669 2431 922 
Q 2431 1156 2273 1281 
Q 2116 1406 1581 1522 
L 1381 1569 
Q 847 1681 609 1914 
Q 372 2147 372 2553 
Q 372 3047 722 3315 
Q 1072 3584 1716 3584 
Q 2034 3584 2315 3537 
Q 2597 3491 2834 3397 
z
" transform="scale(0.015625)"/>
       <path id="DejaVuSans-29" d="M 513 4856 
L 1013 4856 
Q 1481 4119 1714 3412 
Q 1947 2706 1947 2009 
Q 1947 1309 1714 600 
Q 1481 -109 1013 -844 
L 513 -844 
Q 928 -128 1133 580 
Q 1338 1288 1338 2009 
Q 1338 2731 1133 3434 
Q 928 4138 513 4856 
z
" transform="scale(0.015625)"/>
      </defs>
      <use xlink:href="#DejaVuSans-54"/>
      <use xlink:href="#DejaVuSans-69" transform="translate(57.958984 0)"/>
      <use xlink:href="#DejaVuSans-6d" transform="translate(85.742188 0)"/>
      <use xlink:href="#DejaVuSans-65" transform="translate(183.154297 0)"/>
      <use xlink:href="#DejaVuSans-20" transform="translate(244.677734 0)"/>
      <use xlink:href="#DejaVuSans-28" transform="translate(276.464844 0)"/>
      <use xlink:href="#DejaVuSans-73" transform="translate(315.478516 0)"/>
      <use xlink:href="#DejaVuSans-29" transform="translate(367.578125 0)"/>
     </g>
    </g>
   </g>
   <g id="matplotlib.axis_2">
    <g id="ytick_1">
     <g id="line2d_8">
      <defs>
       <path id="mc28a3e0b41" d="M 0 0 
L -3.5 0 
" style="stroke: #000000; stroke-width: 0.8"/>
      </defs>
      <g>
       <use xlink:href="#mc28a3e0b41" x="57.6" y="267.163398" style="stroke: #000000; stroke-width: 0.8"/>
      </g>
     </g>
     <g id="text_9">
      <!-- −0.4 -->
      <g transform="translate(26.317187 270.962617) scale(0.1 -0.1)">
       <defs>
        <path id="DejaVuSans-2212" d="M 678 2272 
L 4684 2272 
L 4684 1741 
L 678 1741 
L 678 2272 
z
" transform="scale(0.015625)"/>
        <path id="DejaVuSans-2e" d="M 684 794 
L 1344 794 
L 1344 0 
L 684 0 
L 684 794 
z
" transform="scale(0.015625)"/>
       </defs>
       <use xlink:href="#DejaVuSans-2212"/>
       <use xlink:href="#DejaVuSans-30" transform="translate(83.789062 0)"/>
       <use xlink:href="#DejaVuSans-2e" transform="translate(147.412109 0)"/>
       <use xlink:href="#DejaVuSans-34" transform="translate(179.199219 0)"/>
      </g>
     </g>
    </g>
    <g id="ytick_2">
     <g id="line2d_9">
      <g>
       <use xlink:href="#mc28a3e0b41" x="57.6" y="220.910544" style="stroke: #000000; stroke-width: 0.8"/>
      </g>
     </g>
     <g id="text_10">
      <!-- −0.2 -->
      <g transform="translate(26.317187 224.709763) scale(0.1 -0.1)">
       <use xlink:href="#DejaVuSans-2212"/>
       <use xlink:href="#DejaVuSans-30" transform="translate(83.789062 0)"/>
       <use xlink:href="#DejaVuSans-2e" transform="translate(147.412109 0)"/>
       <use xlink:href="#DejaVuSans-32" transform="translate(179.199219 0)"/>
      </g>
     </g>
    </g>
    <g id="ytick_3">
     <g id="line2d_10">
      <g>
       <use xlink:href="#mc28a3e0b41" x="57.6" y="174.65769" style="stroke: #000000; stroke-width: 0.8"/>
      </g>
     </g>
     <g id="text_11">
      <!-- 0.0 -->
      <g transform="translate(34.696875 178.456908) scale(0.1 -0.1)">
       <use xlink:href="#DejaVuSans-30"/>
       <use xlink:href="#DejaVuSans-2e" transform="translate(63.623047 0)"/>
       <use xlink:href="#DejaVuSans-30" transform="translate(95.410156 0)"/>
      </g>
     </g>
    </g>
    <g id="ytick_4">
     <g id="line2d_11">
      <g>
       <use xlink:href="#mc28a3e0b41" x="57.6" y="128.404835" style="stroke: #000000; stroke-width: 0.8"/>
      </g>
     </g>
     <g id="text_12">
      <!-- 0.2 -->
      <g transform="translate(34.696875 132.204054) scale(0.1 -0.1)">
       <use xlink:href="#DejaVuSans-30"/>
       <use xlink:href="#DejaVuSans-2e" transform="translate(63.623047 0)"/>
       <use xlink:href="#DejaVuSans-32" transform="translate(95.410156 0)"/>
      </g>
     </g>
    </g>
    <g id="ytick_5">
     <g id="line2d_12">
      <g>
       <use xlink:href="#mc28a3e0b41" x="57.6" y="82.151981" style="stroke: #000000; stroke-width: 0.8"/>
      </g>
     </g>
     <g id="text_13">
      <!-- 0.4 -->
      <g transform="translate(34.696875 85.9512) scale(0.1 -0.1)">
       <use xlink:href="#DejaVuSans-30"/>
       <use xlink:href="#DejaVuSans-2e" transform="translate(63.623047 0)"/>
       <use xlink:href="#DejaVuSans-34" transform="translate(95.410156 0)"/>
      </g>
     </g>
    </g>
    <g id="text_14">
     <!-- Angle (rad) -->
     <g transform="translate(20.2375 202.541281) rotate(-90) scale(0.1 -0.1)">
      <defs>
       <path id="DejaVuSans-41" d="M 2188 4044 
L 1331 1722 
L 3047 1722 
L 2188 4044 
z
M 1831 4666 
L 2547 4666 
L 4325 0 
L 3669 0 
L 3244 1197 
L 1141 1197 
L 716 0 
L 50 0 
L 1831 4666 
z
" transform="scale(0.015625)"/>
       <path id="DejaVuSans-6e" d="M 3513 2113 
L 3513 0 
L 2938 0 
L 2938 2094 
Q 2938 2591 2744 2837 
Q 2550 3084 2163 3084 
Q 1697 3084 1428 2787 
Q 1159 2491 1159 1978 
L 1159 0 
L 581 0 
L 581 3500 
L 1159 3500 
L 1159 2956 
Q 1366 3272 1645 3428 
Q 1925 3584 2291 3584 
Q 2894 3584 3203 3211 
Q 3513 2838 3513 2113 
z
" transform="scale(0.015625)"/>
       <path id="DejaVuSans-67" d="M 2906 1791 
Q 2906 2416 2648 2759 
Q 2391 3103 1925 3103 
Q 1463 3103 1205 2759 
Q 947 2416 947 1791 
Q 947 1169 1205 825 
Q 1463 481 1925 481 
Q 2391 481 2648 825 
Q 2906 1169 2906 1791 
z
M 3481 434 
Q 3481 -459 3084 -895 
Q 2688 -1331 1869 -1331 
Q 1566 -1331 1297 -1286 
Q 1028 -1241 775 -1147 
L 775 -588 
Q 1028 -725 1275 -790 
Q 1522 -856 1778 -856 
Q 2344 -856 2625 -561 
Q 2906 -266 2906 331 
L 2906 616 
Q 2728 306 2450 153 
Q 2172 0 1784 0 
Q 1141 0 747 490 
Q 353 981 353 1791 
Q 353 2603 747 3093 
Q 1141 3584 1784 3584 
Q 2172 3584 2450 3431 
Q 2728 3278 2906 2969 
L 2906 3500 
L 3481 3500 
L 3481 434 
z
" transform="scale(0.015625)"/>
       <path id="DejaVuSans-6c" d="M 603 4863 
L 1178 4863 
L 1178 0 
L 603 0 
L 603 4863 
z
" transform="scale(0.015625)"/>
       <path id="DejaVuSans-72" d="M 2631 2963 
Q 2534 3019 2420 3045 
Q 2306 3072 2169 3072 
Q 1681 3072 1420 2755 
Q 1159 2438 1159 1844 
L 1159 0 
L 581 0 
L 581 3500 
L 1159 3500 
L 1159 2956 
Q 1341 3275 1631 3429 
Q 1922 3584 2338 3584 
Q 2397 3584 2469 3576 
Q 2541 3569 2628 3553 
L 2631 2963 
z
" transform="scale(0.015625)"/>
       <path id="DejaVuSans-61" d="M 2194 1759 
Q 1497 1759 1228 1600 
Q 959 1441 959 1056 
Q 959 750 1161 570 
Q 1363 391 1709 391 
Q 2188 391 2477 730 
Q 2766 1069 2766 1631 
L 2766 1759 
L 2194 1759 
z
M 3341 1997 
L 3341 0 
L 2766 0 
L 2766 531 
Q 2569 213 2275 61 
Q 1981 -91 1556 -91 
Q 1019 -91 701 211 
Q 384 513 384 1019 
Q 384 1609 779 1909 
Q 1175 2209 1959 2209 
L 2766 2209 
L 2766 2266 
Q 2766 2663 2505 2880 
Q 2244 3097 1772 3097 
Q 1472 3097 1187 3025 
Q 903 2953 641 2809 
L 641 3341 
Q 956 3463 1253 3523 
Q 1550 3584 1831 3584 
Q 2591 3584 2966 3190 
Q 3341 2797 3341 1997 
z
" transform="scale(0.015625)"/>
       <path id="DejaVuSans-64" d="M 2906 2969 
L 2906 4863 
L 3481 4863 
L 3481 0 
L 2906 0 
L 2906 525 
Q 2725 213 2448 61 
Q 2172 -91 1784 -91 
Q 1150 -91 751 415 
Q 353 922 353 1747 
Q 353 2572 751 3078 
Q 1150 3584 1784 3584 
Q 2172 3584 2448 3432 
Q 2725 3281 2906 2969 
z
M 947 1747 
Q 947 1113 1208 752 
Q 1469 391 1925 391 
Q 2381 391 2643 752 
Q 2906 1113 2906 1747 
Q 2906 2381 2643 2742 
Q 2381 3103 1925 3103 
Q 1469 3103 1208 2742 
Q 947 2381 947 1747 
z
" transform="scale(0.015625)"/>
      </defs>
      <use xlink:href="#DejaVuSans-41"/>
      <use xlink:href="#DejaVuSans-6e" transform="translate(68.408203 0)"/>
      <use xlink:href="#DejaVuSans-67" transform="translate(131.787109 0)"/>
      <use xlink:href="#DejaVuSans-6c" transform="translate(195.263672 0)"/>
      <use xlink:href="#DejaVuSans-65" transform="translate(223.046875 0)"/>
      <use xlink:href="#DejaVuSans-20" transform="translate(284.570312 0)"/>
      <use xlink:href="#DejaVuSans-28" transform="translate(316.357422 0)"/>
      <use xlink:href="#DejaVuSans-72" transform="translate(355.371094 0)"/>
      <use xlink:href="#DejaVuSans-61" transform="translate(396.484375 0)"/>
      <use xlink:href="#DejaVuSans-64" transform="translate(457.763672 0)"/>
      <use xlink:href="#DejaVuSans-29" transform="translate(521.240234 0)"/>
     </g>
    </g>
   </g>
   <g id="line2d_13">
    <path d="M 73.832727 53.568 
L 73.940963 57.41031 
L 74.103318 77.812737 
L 74.373908 153.947639 
L 74.752735 273.638896 
L 74.969208 295.086872 
L 75.023326 295.488 
L 75.131562 290.504643 
L 75.293916 268.341434 
L 75.564507 188.896832 
L 75.889215 91.262636 
L 76.105688 71.026339 
L 76.159806 71.181817 
L 76.268042 77.661791 
L 76.484515 115.776546 
L 77.133932 268.202221 
L 77.18805 268.265462 
L 77.296286 262.106352 
L 77.458641 236.83393 
L 78.108058 91.241146 
L 78.162176 91.331011 
L 78.270412 98.029274 
L 78.486885 137.939669 
L 78.91983 240.445099 
L 79.028066 244.742425 
L 79.136302 240.073867 
L 79.298656 216.207268 
L 79.839838 105.776223 
L 79.893956 105.646735 
L 80.002192 112.122519 
L 80.164546 138.824636 
L 80.651609 235.792335 
L 80.705727 236.089901 
L 80.813964 229.871847 
L 80.976318 203.349537 
L 81.409263 116.460978 
L 81.463381 115.111644 
L 81.517499 116.054809 
L 81.625735 124.808894 
L 81.842208 170.154138 
L 82.112798 223.894508 
L 82.221034 228.813697 
L 82.275153 227.791498 
L 82.383389 218.804235 
L 82.599861 172.993871 
L 82.870452 124.046947 
L 82.978688 121.045146 
L 83.086924 127.275183 
L 83.249279 154.062683 
L 83.628105 222.35201 
L 83.682223 223.128094 
L 83.79046 217.670458 
L 83.952814 191.895393 
L 84.277523 129.857665 
L 84.385759 126.764143 
L 84.493995 133.004446 
L 84.656349 159.960141 
L 84.981058 216.202602 
L 85.035176 217.520317 
L 85.089294 216.483641 
L 85.19753 207.385179 
L 85.684593 136.477346 
L 85.738712 138.281383 
L 85.901066 157.900757 
L 86.225775 207.86497 
L 86.279893 208.354463 
L 86.388129 202.191715 
L 86.821074 144.064346 
L 86.92931 148.553859 
L 87.091664 173.197658 
L 87.308137 201.713631 
L 87.362255 202.783413 
L 87.470491 197.724241 
L 87.849318 149.283068 
L 87.957554 152.293399 
L 88.119908 174.69983 
L 88.336381 197.522192 
L 88.390499 197.140476 
L 88.498735 189.144796 
L 88.823444 154.494308 
L 88.93168 160.358726 
L 89.256389 192.455027 
L 89.364625 186.239597 
L 89.635216 159.330159 
L 89.689334 160.229925 
L 89.851688 176.93233 
L 90.014042 188.907085 
L 90.06816 187.996113 
L 90.230515 171.811713 
L 90.392869 163.429037 
L 90.501105 170.107685 
L 90.717578 185.376641 
L 90.825814 179.068813 
L 90.988168 166.304284 
L 91.042286 166.554579 
L 91.312877 182.991607 
L 91.366995 181.148777 
L 91.583468 168.432258 
L 91.691704 174.249882 
L 91.79994 180.915914 
L 91.854058 180.866116 
L 92.070531 170.13065 
L 92.124649 171.569119 
L 92.287003 179.765968 
L 92.341121 179.001578 
L 92.503475 171.57112 
L 92.557594 171.836258 
L 92.774066 178.628015 
L 92.990538 172.43699 
L 93.044657 173.551101 
L 93.207011 178.029685 
L 93.315247 175.652892 
L 93.423483 173.167469 
L 93.477601 173.575674 
L 93.639956 177.370569 
L 93.694074 177.233553 
L 93.910546 173.834262 
L 94.127019 176.983754 
L 94.181137 176.424885 
L 94.343491 174.206082 
L 94.451727 175.417582 
L 94.559964 176.665305 
L 94.614082 176.459842 
L 94.776436 174.599818 
L 94.830554 174.682183 
L 95.047027 176.377965 
L 95.263499 174.863992 
L 95.317617 175.14632 
L 95.479972 176.239643 
L 95.588208 175.65654 
L 95.696444 175.075443 
L 95.750562 175.182943 
L 95.912916 176.08577 
L 95.967035 176.047471 
L 96.183507 175.270602 
L 96.399979 175.997282 
L 96.454098 175.866463 
L 96.616452 175.381941 
L 96.832924 175.930248 
L 96.94116 175.735676 
L 97.049397 175.483766 
L 97.103515 175.506781 
L 97.319987 175.877781 
L 97.53646 175.552051 
L 97.590578 175.618784 
L 97.752932 175.864201 
L 97.80705 175.822498 
L 98.023523 175.630909 
L 98.239995 175.833836 
L 98.510586 175.701497 
L 98.727058 175.8 
L 98.943531 175.70464 
L 99.160003 175.811442 
L 99.430594 175.746428 
L 99.647066 175.789519 
L 99.863538 175.744096 
L 100.134129 175.771884 
L 100.350601 175.765649 
L 100.621192 175.759811 
L 100.945901 175.791732 
L 101.703554 175.75547 
L 102.298853 175.757535 
L 111.228342 175.110429 
L 122.051964 174.067956 
L 126.652003 173.868521 
L 127.950838 173.883276 
L 128.059074 179.607911 
L 128.221428 190.075147 
L 128.275547 189.012461 
L 128.492019 175.783825 
L 128.546137 177.014416 
L 128.76261 187.883951 
L 128.979082 177.303367 
L 129.0332 178.423309 
L 129.195554 186.386879 
L 129.249673 185.840128 
L 129.412027 178.553096 
L 129.466145 178.590446 
L 129.682617 185.184196 
L 129.89909 179.03288 
L 129.953208 179.949583 
L 130.115562 184.326374 
L 130.16968 183.731598 
L 130.332035 179.562265 
L 130.386153 179.815633 
L 130.548507 183.423589 
L 130.602625 183.367426 
L 130.819098 179.875601 
L 131.03557 182.844128 
L 131.089688 182.342677 
L 131.252043 180.014072 
L 131.306161 180.279757 
L 131.468515 182.263741 
L 131.522633 182.098266 
L 131.739106 180.136498 
L 131.955578 181.742814 
L 132.17205 180.04812 
L 132.226169 180.263105 
L 132.388523 181.325811 
L 132.496759 180.705525 
L 132.604995 179.975377 
L 132.659113 180.017025 
L 132.821468 180.887856 
L 132.875586 180.844167 
L 133.092058 179.814666 
L 133.146176 179.967725 
L 133.308531 180.495859 
L 133.525003 179.627515 
L 133.633239 179.849807 
L 133.741476 180.123409 
L 133.795594 180.047447 
L 134.012066 179.407191 
L 134.228539 179.725392 
L 134.445011 179.152269 
L 134.499129 179.183783 
L 134.661484 179.381659 
L 134.932074 178.881186 
L 135.04031 178.99918 
L 135.148547 178.9835 
L 135.419137 178.599023 
L 135.581491 178.64905 
L 135.9062 178.293356 
L 136.068554 178.252079 
L 136.339145 177.952891 
L 136.501499 177.918417 
L 136.880326 177.604838 
L 137.096799 177.377947 
L 137.63798 176.9545 
L 138.233279 176.536038 
L 138.936814 175.959057 
L 141.426247 174.058964 
L 144.565098 171.876859 
L 146.892177 170.562961 
L 148.732192 169.761951 
L 150.409854 169.238561 
L 152.195751 168.909956 
L 153.981649 168.820112 
L 155.929901 168.962362 
L 158.148744 169.47315 
L 159.772287 170.027736 
L 162.045248 171.010527 
L 164.913507 172.494332 
L 173.13946 176.840568 
L 175.304185 177.689071 
L 177.468909 178.322581 
L 179.687752 178.721004 
L 181.798358 178.854597 
L 182.01483 178.854524 
L 182.068948 178.714411 
L 182.177185 172.228139 
L 182.339539 162.715271 
L 182.447775 168.08264 
L 182.61013 176.763226 
L 182.718366 171.189179 
L 182.826602 164.9014 
L 182.88072 165.133163 
L 183.097193 175.265357 
L 183.151311 173.576267 
L 183.313665 166.196594 
L 183.367783 167.290225 
L 183.530137 174.226048 
L 183.584256 173.676442 
L 183.74661 167.485106 
L 183.800728 167.645282 
L 184.0172 173.416848 
L 184.233673 168.27332 
L 184.287791 169.163266 
L 184.450145 172.988216 
L 184.504263 172.447979 
L 184.666618 169.009631 
L 184.720736 169.320792 
L 184.88309 172.529096 
L 184.937208 172.465431 
L 185.153681 169.669279 
L 185.370153 172.361005 
L 185.424271 171.932855 
L 185.586626 170.110146 
L 185.694862 171.1158 
L 185.803098 172.214812 
L 185.857216 172.081812 
L 186.019571 170.55812 
L 186.073689 170.624542 
L 186.290161 172.156504 
L 186.506634 170.908534 
L 186.560752 171.16136 
L 186.723106 172.191405 
L 186.777224 172.062312 
L 186.939578 171.226071 
L 186.993697 171.330745 
L 187.210169 172.214378 
L 187.426641 171.553961 
L 187.643114 172.335737 
L 187.697232 172.236404 
L 187.859586 171.806142 
L 188.130177 172.42518 
L 188.184295 172.297964 
L 188.292531 172.069607 
L 188.346649 172.108756 
L 188.563122 172.592386 
L 188.61724 172.526249 
L 188.779594 172.330224 
L 189.050185 172.731453 
L 189.104303 172.659071 
L 189.212539 172.563031 
L 189.266657 172.611622 
L 189.48313 172.922169 
L 189.699602 172.820161 
L 189.970193 173.09599 
L 190.186665 173.085437 
L 190.457256 173.281732 
L 190.61961 173.289232 
L 190.944319 173.483073 
L 191.106673 173.542662 
L 191.377263 173.699436 
L 191.593736 173.79156 
L 191.864326 173.914033 
L 192.134917 174.07298 
L 193.75846 174.792646 
L 195.923185 175.747756 
L 200.198516 177.253701 
L 202.36324 177.758963 
L 204.527964 178.062088 
L 206.800925 178.154539 
L 209.290358 178.016484 
L 215.297468 176.717732 
L 219.626917 175.319994 
L 224.876374 173.64153 
L 228.394051 172.781757 
L 231.262311 172.333994 
L 233.914098 172.150365 
L 236.132941 172.169903 
L 236.187059 172.464923 
L 236.349413 184.601836 
L 236.45765 188.183095 
L 236.565886 182.185974 
L 236.72824 174.510284 
L 236.944713 186.190711 
L 236.998831 185.464496 
L 237.215303 176.111058 
L 237.431776 184.673463 
L 237.485894 183.126948 
L 237.648248 176.872079 
L 237.756484 180.146982 
L 237.86472 183.603146 
L 237.918839 183.033566 
L 238.081193 177.708645 
L 238.135311 177.884678 
L 238.351783 182.600777 
L 238.568256 178.136591 
L 238.622374 178.902036 
L 238.784728 181.995364 
L 238.892965 180.279208 
L 239.001201 178.47422 
L 239.055319 178.739195 
L 239.217673 181.339529 
L 239.271791 181.220498 
L 239.488264 178.729913 
L 239.704736 180.846638 
L 239.758854 180.430633 
L 239.921209 178.787992 
L 240.029445 179.592471 
L 240.137681 180.432466 
L 240.191799 180.262691 
L 240.354154 178.841556 
L 240.408272 178.871109 
L 240.624744 180.001985 
L 240.841217 178.768607 
L 240.895335 178.950441 
L 241.057689 179.690413 
L 241.220043 178.858689 
L 241.274161 178.683369 
L 241.32828 178.73571 
L 241.490634 179.357122 
L 241.544752 179.300298 
L 241.761224 178.555629 
L 241.977697 179.033864 
L 242.194169 178.390021 
L 242.248287 178.434731 
L 242.410642 178.745918 
L 242.46476 178.674889 
L 242.681232 178.211983 
L 242.897705 178.42411 
L 243.114177 177.999756 
L 243.168295 178.027447 
L 243.33065 178.155181 
L 243.655358 177.819043 
L 243.817713 177.836817 
L 244.088303 177.552014 
L 244.250658 177.573853 
L 244.575366 177.304437 
L 244.737721 177.258604 
L 245.008311 177.033653 
L 245.224784 176.941132 
L 245.495374 176.761551 
L 245.711847 176.627087 
L 246.036555 176.455036 
L 248.688343 174.808894 
L 254.803689 171.598005 
L 256.914295 170.849953 
L 258.808429 170.383787 
L 260.702563 170.126572 
L 262.704933 170.084124 
L 264.81554 170.268727 
L 266.384965 170.571314 
L 267.846154 170.948871 
L 270.281469 171.765758 
L 274.015618 173.305047 
L 281.375681 176.348726 
L 284.027469 177.149674 
L 286.516902 177.665235 
L 288.789863 177.912223 
L 290.251052 177.95557 
L 290.30517 177.39603 
L 290.57576 162.11185 
L 290.629878 164.433018 
L 290.792233 175.648543 
L 290.846351 175.518752 
L 291.062823 163.79581 
L 291.116941 164.891453 
L 291.279296 174.146151 
L 291.333414 174.016146 
L 291.549886 165.479568 
L 291.766359 173.363851 
L 291.820477 172.169366 
L 291.982831 166.48685 
L 292.036949 167.2458 
L 292.199304 172.587647 
L 292.253422 172.2484 
L 292.415776 167.546306 
L 292.469894 167.607537 
L 292.686367 172.066254 
L 292.902839 168.171061 
L 292.956957 168.809547 
L 293.119311 171.771179 
L 293.17343 171.406935 
L 293.335784 168.805233 
L 293.389902 169.009176 
L 293.552256 171.466131 
L 293.606374 171.460624 
L 293.822847 169.350265 
L 294.039319 171.430009 
L 294.093437 171.136521 
L 294.255792 169.74469 
L 294.30991 169.965276 
L 294.472264 171.388532 
L 294.526382 171.313837 
L 294.688737 170.160233 
L 294.742855 170.202017 
L 294.959327 171.429418 
L 295.013445 171.215374 
L 295.1758 170.495312 
L 295.392272 171.518988 
L 295.44639 171.43934 
L 295.608744 170.814292 
L 295.662863 170.893519 
L 295.879335 171.622152 
L 296.095807 171.141942 
L 296.31228 171.784822 
L 296.366398 171.723522 
L 296.528752 171.413287 
L 296.799343 171.940803 
L 296.853461 171.855264 
L 296.961697 171.693736 
L 297.015815 171.728586 
L 297.232288 172.143799 
L 297.286406 172.105702 
L 297.44876 171.97851 
L 297.719351 172.340073 
L 297.773469 172.295436 
L 297.935823 172.282307 
L 298.206414 172.547374 
L 298.368768 172.524019 
L 298.693477 172.773013 
L 298.855831 172.818556 
L 299.126422 173.023933 
L 299.288776 173.057628 
L 299.613485 173.270507 
L 299.829957 173.398601 
L 300.100548 173.528411 
L 300.695847 173.863278 
L 301.291146 174.214886 
L 307.947674 177.381179 
L 310.004162 178.043492 
L 312.223004 178.526252 
L 314.387729 178.749682 
L 316.498335 178.730878 
L 318.771296 178.481434 
L 320.66543 178.081444 
L 324.020753 177.066696 
L 327.53843 175.743284 
L 333.437304 173.507204 
L 336.467918 172.605094 
L 338.903233 172.08588 
L 341.500902 171.769112 
L 343.882099 171.703054 
L 344.369162 171.715623 
L 344.42328 172.505153 
L 344.639753 187.615868 
L 344.693871 187.402231 
L 344.910343 173.939807 
L 344.964461 174.410781 
L 345.180934 185.82019 
L 345.235052 184.376446 
L 345.397406 175.45845 
L 345.451524 176.005226 
L 345.613879 184.024962 
L 345.667997 184.015982 
L 345.884469 176.468375 
L 345.938587 177.925252 
L 346.100942 183.183177 
L 346.209178 180.07631 
L 346.317414 177.119782 
L 346.371532 177.704685 
L 346.533887 182.240311 
L 346.588005 181.953681 
L 346.804477 177.776045 
L 347.02095 181.501659 
L 347.237422 177.993069 
L 347.29154 178.488187 
L 347.453894 180.946246 
L 347.508013 180.619197 
L 347.670367 178.247568 
L 347.724485 178.367765 
L 347.886839 180.368857 
L 347.940957 180.33978 
L 348.15743 178.356581 
L 348.211548 178.716893 
L 348.373902 179.99323 
L 348.590375 178.366625 
L 348.644493 178.504127 
L 348.806847 179.610121 
L 348.860965 179.510917 
L 349.077438 178.360593 
L 349.29391 179.246415 
L 349.510383 178.250671 
L 349.564501 178.364315 
L 349.726855 178.947705 
L 349.835091 178.579737 
L 349.943328 178.14806 
L 349.997446 178.163988 
L 350.1598 178.636375 
L 350.213918 178.603858 
L 350.430391 177.986984 
L 350.484509 178.066156 
L 350.646863 178.343691 
L 350.917454 177.836742 
L 350.971572 177.929119 
L 351.079808 178.069123 
L 351.133926 178.018119 
L 351.350398 177.62278 
L 351.404517 177.669536 
L 351.566871 177.772536 
L 351.837461 177.42552 
L 351.999816 177.51439 
L 352.378643 177.242592 
L 352.486879 177.21812 
L 352.811587 176.977405 
L 352.973942 176.915165 
L 353.244532 176.718157 
L 353.406887 176.671554 
L 353.731595 176.460877 
L 353.948068 176.319659 
L 354.272776 176.167596 
L 355.463375 175.44686 
L 356.221028 175.022022 
L 357.411627 174.359677 
L 360.929304 172.558353 
L 363.743446 171.438422 
L 365.854052 170.843139 
L 368.018776 170.479144 
L 370.075265 170.372149 
L 372.239989 170.481591 
L 373.376469 170.658948 
L 374.567068 170.889859 
L 378.355336 172.003193 
L 381.38595 173.163392 
L 388.800131 176.070926 
L 391.830745 176.956462 
L 394.482533 177.473989 
L 396.917848 177.710143 
L 398.487273 177.738892 
L 398.487273 177.738892 
" clip-path="url(#p9e66969b7b)" style="fill: none; stroke: #1f77b4; stroke-width: 1.5; stroke-linecap: square"/>
   </g>
   <g id="LineCollection_1">
    <path d="M 73.832727 174.65769 
L 398.487273 174.65769 
" clip-path="url(#p9e66969b7b)" style="fill: none; stroke: #ff0000; stroke-width: 1.5"/>
   </g>
   <g id="patch_3">
    <path d="M 57.6 307.584 
L 57.6 41.472 
" style="fill: none; stroke: #000000; stroke-width: 0.8; stroke-linejoin: miter; stroke-linecap: square"/>
   </g>
   <g id="patch_4">
    <path d="M 414.72 307.584 
L 414.72 41.472 
" style="fill: none; stroke: #000000; stroke-width: 0.8; stroke-linejoin: miter; stroke-linecap: square"/>
   </g>
   <g id="patch_5">
    <path d="M 57.6 307.584 
L 414.72 307.584 
" style="fill: none; stroke: #000000; stroke-width: 0.8; stroke-linejoin: miter; stroke-linecap: square"/>
   </g>
   <g id="patch_6">
    <path d="M 57.6 41.472 
L 414.72 41.472 
" style="fill: none; stroke: #000000; stroke-width: 0.8; stroke-linejoin: miter; stroke-linecap: square"/>
   </g>
   <g id="text_15">
    <!-- Inverted Pendulum angle -->
    <g transform="translate(160.74375 35.472) scale(0.12 -0.12)">
     <defs>
      <path id="DejaVuSans-49" d="M 628 4666 
L 1259 4666 
L 1259 0 
L 628 0 
L 628 4666 
z
" transform="scale(0.015625)"/>
      <path id="DejaVuSans-76" d="M 191 3500 
L 800 3500 
L 1894 563 
L 2988 3500 
L 3597 3500 
L 2284 0 
L 1503 0 
L 191 3500 
z
" transform="scale(0.015625)"/>
      <path id="DejaVuSans-74" d="M 1172 4494 
L 1172 3500 
L 2356 3500 
L 2356 3053 
L 1172 3053 
L 1172 1153 
Q 1172 725 1289 603 
Q 1406 481 1766 481 
L 2356 481 
L 2356 0 
L 1766 0 
Q 1100 0 847 248 
Q 594 497 594 1153 
L 594 3053 
L 172 3053 
L 172 3500 
L 594 3500 
L 594 4494 
L 1172 4494 
z
" transform="scale(0.015625)"/>
      <path id="DejaVuSans-50" d="M 1259 4147 
L 1259 2394 
L 2053 2394 
Q 2494 2394 2734 2622 
Q 2975 2850 2975 3272 
Q 2975 3691 2734 3919 
Q 2494 4147 2053 4147 
L 1259 4147 
z
M 628 4666 
L 2053 4666 
Q 2838 4666 3239 4311 
Q 3641 3956 3641 3272 
Q 3641 2581 3239 2228 
Q 2838 1875 2053 1875 
L 1259 1875 
L 1259 0 
L 628 0 
L 628 4666 
z
" transform="scale(0.015625)"/>
      <path id="DejaVuSans-75" d="M 544 1381 
L 544 3500 
L 1119 3500 
L 1119 1403 
Q 1119 906 1312 657 
Q 1506 409 1894 409 
Q 2359 409 2629 706 
Q 2900 1003 2900 1516 
L 2900 3500 
L 3475 3500 
L 3475 0 
L 2900 0 
L 2900 538 
Q 2691 219 2414 64 
Q 2138 -91 1772 -91 
Q 1169 -91 856 284 
Q 544 659 544 1381 
z
M 1991 3584 
L 1991 3584 
z
" transform="scale(0.015625)"/>
     </defs>
     <use xlink:href="#DejaVuSans-49"/>
     <use xlink:href="#DejaVuSans-6e" transform="translate(29.492188 0)"/>
     <use xlink:href="#DejaVuSans-76" transform="translate(92.871094 0)"/>
     <use xlink:href="#DejaVuSans-65" transform="translate(152.050781 0)"/>
     <use xlink:href="#DejaVuSans-72" transform="translate(213.574219 0)"/>
     <use xlink:href="#DejaVuSans-74" transform="translate(254.6875 0)"/>
     <use xlink:href="#DejaVuSans-65" transform="translate(293.896484 0)"/>
     <use xlink:href="#DejaVuSans-64" transform="translate(355.419922 0)"/>
     <use xlink:href="#DejaVuSans-20" transform="translate(418.896484 0)"/>
     <use xlink:href="#DejaVuSans-50" transform="translate(450.683594 0)"/>
     <use xlink:href="#DejaVuSans-65" transform="translate(507.361328 0)"/>
     <use xlink:href="#DejaVuSans-6e" transform="translate(568.884766 0)"/>
     <use xlink:href="#DejaVuSans-64" transform="translate(632.263672 0)"/>
     <use xlink:href="#DejaVuSans-75" transform="translate(695.740234 0)"/>
     <use xlink:href="#DejaVuSans-6c" transform="translate(759.119141 0)"/>
     <use xlink:href="#DejaVuSans-75" transform="translate(786.902344 0)"/>
     <use xlink:href="#DejaVuSans-6d" transform="translate(850.28125 0)"/>
     <use xlink:href="#DejaVuSans-20" transform="translate(947.693359 0)"/>
     <use xlink:href="#DejaVuSans-61" transform="translate(979.480469 0)"/>
     <use xlink:href="#DejaVuSans-6e" transform="translate(1040.759766 0)"/>
     <use xlink:href="#DejaVuSans-67" transform="translate(1104.138672 0)"/>
     <use xlink:href="#DejaVuSans-6c" transform="translate(1167.615234 0)"/>
     <use xlink:href="#DejaVuSans-65" transform="translate(1195.398438 0)"/>
    </g>
   </g>
   <g id="legend_1">
    <g id="patch_7">
     <path d="M 240.729375 78.906375 
L 407.72 78.906375 
Q 409.72 78.906375 409.72 76.906375 
L 409.72 48.472 
Q 409.72 46.472 407.72 46.472 
L 240.729375 46.472 
Q 238.729375 46.472 238.729375 48.472 
L 238.729375 76.906375 
Q 238.729375 78.906375 240.729375 78.906375 
z
" style="fill: #ffffff; opacity: 0.8; stroke: #cccccc; stroke-linejoin: miter"/>
    </g>
    <g id="line2d_14">
     <path d="M 242.729375 54.648562 
L 252.729375 54.648562 
L 262.729375 54.648562 
" style="fill: none; stroke: #1f77b4; stroke-width: 1.5; stroke-linecap: square"/>
    </g>
    <g id="text_16">
     <!-- Inverted Pendulum angle θ -->
     <g transform="translate(270.729375 58.148562) scale(0.1 -0.1)">
      <defs>
       <path id="DejaVuSans-3b8" d="M 2953 2219 
L 963 2219 
Q 1009 1284 1225 888 
Q 1494 400 1959 400 
Q 2428 400 2688 891 
Q 2916 1322 2953 2219 
z
M 2944 2750 
Q 2856 3638 2688 3950 
Q 2419 4444 1959 4444 
Q 1481 4444 1228 3956 
Q 1028 3563 969 2750 
L 2944 2750 
z
M 1959 4913 
Q 2709 4913 3138 4250 
Q 3566 3591 3566 2422 
Q 3566 1256 3138 594 
Q 2709 -72 1959 -72 
Q 1206 -72 781 594 
Q 353 1256 353 2422 
Q 353 3591 781 4250 
Q 1206 4913 1959 4913 
z
" transform="scale(0.015625)"/>
      </defs>
      <use xlink:href="#DejaVuSans-49"/>
      <use xlink:href="#DejaVuSans-6e" transform="translate(29.492188 0)"/>
      <use xlink:href="#DejaVuSans-76" transform="translate(92.871094 0)"/>
      <use xlink:href="#DejaVuSans-65" transform="translate(152.050781 0)"/>
      <use xlink:href="#DejaVuSans-72" transform="translate(213.574219 0)"/>
      <use xlink:href="#DejaVuSans-74" transform="translate(254.6875 0)"/>
      <use xlink:href="#DejaVuSans-65" transform="translate(293.896484 0)"/>
      <use xlink:href="#DejaVuSans-64" transform="translate(355.419922 0)"/>
      <use xlink:href="#DejaVuSans-20" transform="translate(418.896484 0)"/>
      <use xlink:href="#DejaVuSans-50" transform="translate(450.683594 0)"/>
      <use xlink:href="#DejaVuSans-65" transform="translate(507.361328 0)"/>
      <use xlink:href="#DejaVuSans-6e" transform="translate(568.884766 0)"/>
      <use xlink:href="#DejaVuSans-64" transform="translate(632.263672 0)"/>
      <use xlink:href="#DejaVuSans-75" transform="translate(695.740234 0)"/>
      <use xlink:href="#DejaVuSans-6c" transform="translate(759.119141 0)"/>
      <use xlink:href="#DejaVuSans-75" transform="translate(786.902344 0)"/>
      <use xlink:href="#DejaVuSans-6d" transform="translate(850.28125 0)"/>
      <use xlink:href="#DejaVuSans-20" transform="translate(947.693359 0)"/>
      <use xlink:href="#DejaVuSans-61" transform="translate(979.480469 0)"/>
      <use xlink:href="#DejaVuSans-6e" transform="translate(1040.759766 0)"/>
      <use xlink:href="#DejaVuSans-67" transform="translate(1104.138672 0)"/>
      <use xlink:href="#DejaVuSans-6c" transform="translate(1167.615234 0)"/>
      <use xlink:href="#DejaVuSans-65" transform="translate(1195.398438 0)"/>
      <use xlink:href="#DejaVuSans-20" transform="translate(1256.921875 0)"/>
      <use xlink:href="#DejaVuSans-3b8" transform="translate(1288.708984 0)"/>
     </g>
    </g>
    <g id="line2d_15">
     <path d="M 242.729375 69.326687 
L 262.729375 69.326687 
" style="fill: none; stroke: #ff0000; stroke-width: 1.5"/>
    </g>
    <g id="text_17">
     <!-- Target angle -->
     <g transform="translate(270.729375 72.826687) scale(0.1 -0.1)">
      <use xlink:href="#DejaVuSans-54"/>
      <use xlink:href="#DejaVuSans-61" transform="translate(44.583984 0)"/>
      <use xlink:href="#DejaVuSans-72" transform="translate(105.863281 0)"/>
      <use xlink:href="#DejaVuSans-67" transform="translate(145.226562 0)"/>
      <use xlink:href="#DejaVuSans-65" transform="translate(208.703125 0)"/>
      <use xlink:href="#DejaVuSans-74" transform="translate(270.226562 0)"/>
      <use xlink:href="#DejaVuSans-20" transform="translate(309.435547 0)"/>
      <use xlink:href="#DejaVuSans-61" transform="translate(341.222656 0)"/>
      <use xlink:href="#DejaVuSans-6e" transform="translate(402.501953 0)"/>
      <use xlink:href="#DejaVuSans-67" transform="translate(465.880859 0)"/>
      <use xlink:href="#DejaVuSans-6c" transform="translate(529.357422 0)"/>
      <use xlink:href="#DejaVuSans-65" transform="translate(557.140625 0)"/>
     </g>
    </g>
   </g>
  </g>
 </g>
 <defs>
  <clipPath id="p9e66969b7b">
   <rect x="57.6" y="41.472" width="357.12" height="266.112"/>
  </clipPath>
 </defs>
</svg>
