<?xml version="1.0" encoding="utf-8" standalone="no"?>
<!DOCTYPE svg PUBLIC "-//W3C//DTD SVG 1.1//EN"
  "http://www.w3.org/Graphics/SVG/1.1/DTD/svg11.dtd">
<svg xmlns:xlink="http://www.w3.org/1999/xlink" width="864pt" height="432pt" viewBox="0 0 864 432" xmlns="http://www.w3.org/2000/svg" version="1.1">
 <metadata>
  <rdf:RDF xmlns:dc="http://purl.org/dc/elements/1.1/" xmlns:cc="http://creativecommons.org/ns#" xmlns:rdf="http://www.w3.org/1999/02/22-rdf-syntax-ns#">
   <cc:Work>
    <dc:type rdf:resource="http://purl.org/dc/dcmitype/StillImage"/>
    <dc:date>2025-04-29T12:33:15.699726</dc:date>
    <dc:format>image/svg+xml</dc:format>
    <dc:creator>
     <cc:Agent>
      <dc:title>Matplotlib v3.10.1, https://matplotlib.org/</dc:title>
     </cc:Agent>
    </dc:creator>
   </cc:Work>
  </rdf:RDF>
 </metadata>
 <defs>
  <style type="text/css">*{stroke-linejoin: round; stroke-linecap: butt}</style>
 </defs>
 <g id="figure_1">
  <g id="patch_1">
   <path d="M 0 432 
L 864 432 
L 864 0 
L 0 0 
z
" style="fill: #ffffff"/>
  </g>
  <g id="axes_1">
   <g id="patch_2">
    <path d="M 56 186.612768 
L 853.2 186.612768 
L 853.2 26.88 
L 56 26.88 
z
" style="fill: #ffffff"/>
   </g>
   <g id="matplotlib.axis_1">
    <g id="xtick_1">
     <g id="line2d_1">
      <defs>
       <path id="mbfb592fa8c" d="M 0 0 
L 0 3.5 
" style="stroke: #000000; stroke-width: 0.8"/>
      </defs>
      <g>
       <use xlink:href="#mbfb592fa8c" x="92.236364" y="186.612768" style="stroke: #000000; stroke-width: 0.8"/>
      </g>
     </g>
     <g id="text_1">
      <!-- 0 -->
      <g transform="translate(89.055114 201.211205) scale(0.1 -0.1)">
       <defs>
        <path id="DejaVuSans-30" d="M 2034 4250 
Q 1547 4250 1301 3770 
Q 1056 3291 1056 2328 
Q 1056 1369 1301 889 
Q 1547 409 2034 409 
Q 2525 409 2770 889 
Q 3016 1369 3016 2328 
Q 3016 3291 2770 3770 
Q 2525 4250 2034 4250 
z
M 2034 4750 
Q 2819 4750 3233 4129 
Q 3647 3509 3647 2328 
Q 3647 1150 3233 529 
Q 2819 -91 2034 -91 
Q 1250 -91 836 529 
Q 422 1150 422 2328 
Q 422 3509 836 4129 
Q 1250 4750 2034 4750 
z
" transform="scale(0.015625)"/>
       </defs>
       <use xlink:href="#DejaVuSans-30"/>
      </g>
     </g>
    </g>
    <g id="xtick_2">
     <g id="line2d_2">
      <g>
       <use xlink:href="#mbfb592fa8c" x="213.024242" y="186.612768" style="stroke: #000000; stroke-width: 0.8"/>
      </g>
     </g>
     <g id="text_2">
      <!-- 10 -->
      <g transform="translate(206.661742 201.211205) scale(0.1 -0.1)">
       <defs>
        <path id="DejaVuSans-31" d="M 794 531 
L 1825 531 
L 1825 4091 
L 703 3866 
L 703 4441 
L 1819 4666 
L 2450 4666 
L 2450 531 
L 3481 531 
L 3481 0 
L 794 0 
L 794 531 
z
" transform="scale(0.015625)"/>
       </defs>
       <use xlink:href="#DejaVuSans-31"/>
       <use xlink:href="#DejaVuSans-30" transform="translate(63.623047 0)"/>
      </g>
     </g>
    </g>
    <g id="xtick_3">
     <g id="line2d_3">
      <g>
       <use xlink:href="#mbfb592fa8c" x="333.812121" y="186.612768" style="stroke: #000000; stroke-width: 0.8"/>
      </g>
     </g>
     <g id="text_3">
      <!-- 20 -->
      <g transform="translate(327.449621 201.211205) scale(0.1 -0.1)">
       <defs>
        <path id="DejaVuSans-32" d="M 1228 531 
L 3431 531 
L 3431 0 
L 469 0 
L 469 531 
Q 828 903 1448 1529 
Q 2069 2156 2228 2338 
Q 2531 2678 2651 2914 
Q 2772 3150 2772 3378 
Q 2772 3750 2511 3984 
Q 2250 4219 1831 4219 
Q 1534 4219 1204 4116 
Q 875 4013 500 3803 
L 500 4441 
Q 881 4594 1212 4672 
Q 1544 4750 1819 4750 
Q 2544 4750 2975 4387 
Q 3406 4025 3406 3419 
Q 3406 3131 3298 2873 
Q 3191 2616 2906 2266 
Q 2828 2175 2409 1742 
Q 1991 1309 1228 531 
z
" transform="scale(0.015625)"/>
       </defs>
       <use xlink:href="#DejaVuSans-32"/>
       <use xlink:href="#DejaVuSans-30" transform="translate(63.623047 0)"/>
      </g>
     </g>
    </g>
    <g id="xtick_4">
     <g id="line2d_4">
      <g>
       <use xlink:href="#mbfb592fa8c" x="454.6" y="186.612768" style="stroke: #000000; stroke-width: 0.8"/>
      </g>
     </g>
     <g id="text_4">
      <!-- 30 -->
      <g transform="translate(448.2375 201.211205) scale(0.1 -0.1)">
       <defs>
        <path id="DejaVuSans-33" d="M 2597 2516 
Q 3050 2419 3304 2112 
Q 3559 1806 3559 1356 
Q 3559 666 3084 287 
Q 2609 -91 1734 -91 
Q 1441 -91 1130 -33 
Q 819 25 488 141 
L 488 750 
Q 750 597 1062 519 
Q 1375 441 1716 441 
Q 2309 441 2620 675 
Q 2931 909 2931 1356 
Q 2931 1769 2642 2001 
Q 2353 2234 1838 2234 
L 1294 2234 
L 1294 2753 
L 1863 2753 
Q 2328 2753 2575 2939 
Q 2822 3125 2822 3475 
Q 2822 3834 2567 4026 
Q 2313 4219 1838 4219 
Q 1578 4219 1281 4162 
Q 984 4106 628 3988 
L 628 4550 
Q 988 4650 1302 4700 
Q 1616 4750 1894 4750 
Q 2613 4750 3031 4423 
Q 3450 4097 3450 3541 
Q 3450 3153 3228 2886 
Q 3006 2619 2597 2516 
z
" transform="scale(0.015625)"/>
       </defs>
       <use xlink:href="#DejaVuSans-33"/>
       <use xlink:href="#DejaVuSans-30" transform="translate(63.623047 0)"/>
      </g>
     </g>
    </g>
    <g id="xtick_5">
     <g id="line2d_5">
      <g>
       <use xlink:href="#mbfb592fa8c" x="575.387879" y="186.612768" style="stroke: #000000; stroke-width: 0.8"/>
      </g>
     </g>
     <g id="text_5">
      <!-- 40 -->
      <g transform="translate(569.025379 201.211205) scale(0.1 -0.1)">
       <defs>
        <path id="DejaVuSans-34" d="M 2419 4116 
L 825 1625 
L 2419 1625 
L 2419 4116 
z
M 2253 4666 
L 3047 4666 
L 3047 1625 
L 3713 1625 
L 3713 1100 
L 3047 1100 
L 3047 0 
L 2419 0 
L 2419 1100 
L 313 1100 
L 313 1709 
L 2253 4666 
z
" transform="scale(0.015625)"/>
       </defs>
       <use xlink:href="#DejaVuSans-34"/>
       <use xlink:href="#DejaVuSans-30" transform="translate(63.623047 0)"/>
      </g>
     </g>
    </g>
    <g id="xtick_6">
     <g id="line2d_6">
      <g>
       <use xlink:href="#mbfb592fa8c" x="696.175758" y="186.612768" style="stroke: #000000; stroke-width: 0.8"/>
      </g>
     </g>
     <g id="text_6">
      <!-- 50 -->
      <g transform="translate(689.813258 201.211205) scale(0.1 -0.1)">
       <defs>
        <path id="DejaVuSans-35" d="M 691 4666 
L 3169 4666 
L 3169 4134 
L 1269 4134 
L 1269 2991 
Q 1406 3038 1543 3061 
Q 1681 3084 1819 3084 
Q 2600 3084 3056 2656 
Q 3513 2228 3513 1497 
Q 3513 744 3044 326 
Q 2575 -91 1722 -91 
Q 1428 -91 1123 -41 
Q 819 9 494 109 
L 494 744 
Q 775 591 1075 516 
Q 1375 441 1709 441 
Q 2250 441 2565 725 
Q 2881 1009 2881 1497 
Q 2881 1984 2565 2268 
Q 2250 2553 1709 2553 
Q 1456 2553 1204 2497 
Q 953 2441 691 2322 
L 691 4666 
z
" transform="scale(0.015625)"/>
       </defs>
       <use xlink:href="#DejaVuSans-35"/>
       <use xlink:href="#DejaVuSans-30" transform="translate(63.623047 0)"/>
      </g>
     </g>
    </g>
    <g id="xtick_7">
     <g id="line2d_7">
      <g>
       <use xlink:href="#mbfb592fa8c" x="816.963636" y="186.612768" style="stroke: #000000; stroke-width: 0.8"/>
      </g>
     </g>
     <g id="text_7">
      <!-- 60 -->
      <g transform="translate(810.601136 201.211205) scale(0.1 -0.1)">
       <defs>
        <path id="DejaVuSans-36" d="M 2113 2584 
Q 1688 2584 1439 2293 
Q 1191 2003 1191 1497 
Q 1191 994 1439 701 
Q 1688 409 2113 409 
Q 2538 409 2786 701 
Q 3034 994 3034 1497 
Q 3034 2003 2786 2293 
Q 2538 2584 2113 2584 
z
M 3366 4563 
L 3366 3988 
Q 3128 4100 2886 4159 
Q 2644 4219 2406 4219 
Q 1781 4219 1451 3797 
Q 1122 3375 1075 2522 
Q 1259 2794 1537 2939 
Q 1816 3084 2150 3084 
Q 2853 3084 3261 2657 
Q 3669 2231 3669 1497 
Q 3669 778 3244 343 
Q 2819 -91 2113 -91 
Q 1303 -91 875 529 
Q 447 1150 447 2328 
Q 447 3434 972 4092 
Q 1497 4750 2381 4750 
Q 2619 4750 2861 4703 
Q 3103 4656 3366 4563 
z
" transform="scale(0.015625)"/>
       </defs>
       <use xlink:href="#DejaVuSans-36"/>
       <use xlink:href="#DejaVuSans-30" transform="translate(63.623047 0)"/>
      </g>
     </g>
    </g>
    <g id="text_8">
     <!-- Time (s) -->
     <g transform="translate(434.271094 214.88933) scale(0.1 -0.1)">
      <defs>
       <path id="DejaVuSans-54" d="M -19 4666 
L 3928 4666 
L 3928 4134 
L 2272 4134 
L 2272 0 
L 1638 0 
L 1638 4134 
L -19 4134 
L -19 4666 
z
" transform="scale(0.015625)"/>
       <path id="DejaVuSans-69" d="M 603 3500 
L 1178 3500 
L 1178 0 
L 603 0 
L 603 3500 
z
M 603 4863 
L 1178 4863 
L 1178 4134 
L 603 4134 
L 603 4863 
z
" transform="scale(0.015625)"/>
       <path id="DejaVuSans-6d" d="M 3328 2828 
Q 3544 3216 3844 3400 
Q 4144 3584 4550 3584 
Q 5097 3584 5394 3201 
Q 5691 2819 5691 2113 
L 5691 0 
L 5113 0 
L 5113 2094 
Q 5113 2597 4934 2840 
Q 4756 3084 4391 3084 
Q 3944 3084 3684 2787 
Q 3425 2491 3425 1978 
L 3425 0 
L 2847 0 
L 2847 2094 
Q 2847 2600 2669 2842 
Q 2491 3084 2119 3084 
Q 1678 3084 1418 2786 
Q 1159 2488 1159 1978 
L 1159 0 
L 581 0 
L 581 3500 
L 1159 3500 
L 1159 2956 
Q 1356 3278 1631 3431 
Q 1906 3584 2284 3584 
Q 2666 3584 2933 3390 
Q 3200 3197 3328 2828 
z
" transform="scale(0.015625)"/>
       <path id="DejaVuSans-65" d="M 3597 1894 
L 3597 1613 
L 953 1613 
Q 991 1019 1311 708 
Q 1631 397 2203 397 
Q 2534 397 2845 478 
Q 3156 559 3463 722 
L 3463 178 
Q 3153 47 2828 -22 
Q 2503 -91 2169 -91 
Q 1331 -91 842 396 
Q 353 884 353 1716 
Q 353 2575 817 3079 
Q 1281 3584 2069 3584 
Q 2775 3584 3186 3129 
Q 3597 2675 3597 1894 
z
M 3022 2063 
Q 3016 2534 2758 2815 
Q 2500 3097 2075 3097 
Q 1594 3097 1305 2825 
Q 1016 2553 972 2059 
L 3022 2063 
z
" transform="scale(0.015625)"/>
       <path id="DejaVuSans-20" transform="scale(0.015625)"/>
       <path id="DejaVuSans-28" d="M 1984 4856 
Q 1566 4138 1362 3434 
Q 1159 2731 1159 2009 
Q 1159 1288 1364 580 
Q 1569 -128 1984 -844 
L 1484 -844 
Q 1016 -109 783 600 
Q 550 1309 550 2009 
Q 550 2706 781 3412 
Q 1013 4119 1484 4856 
L 1984 4856 
z
" transform="scale(0.015625)"/>
       <path id="DejaVuSans-73" d="M 2834 3397 
L 2834 2853 
Q 2591 2978 2328 3040 
Q 2066 3103 1784 3103 
Q 1356 3103 1142 2972 
Q 928 2841 928 2578 
Q 928 2378 1081 2264 
Q 1234 2150 1697 2047 
L 1894 2003 
Q 2506 1872 2764 1633 
Q 3022 1394 3022 966 
Q 3022 478 2636 193 
Q 2250 -91 1575 -91 
Q 1294 -91 989 -36 
Q 684 19 347 128 
L 347 722 
Q 666 556 975 473 
Q 1284 391 1588 391 
Q 1994 391 2212 530 
Q 2431 669 2431 922 
Q 2431 1156 2273 1281 
Q 2116 1406 1581 1522 
L 1381 1569 
Q 847 1681 609 1914 
Q 372 2147 372 2553 
Q 372 3047 722 3315 
Q 1072 3584 1716 3584 
Q 2034 3584 2315 3537 
Q 2597 3491 2834 3397 
z
" transform="scale(0.015625)"/>
       <path id="DejaVuSans-29" d="M 513 4856 
L 1013 4856 
Q 1481 4119 1714 3412 
Q 1947 2706 1947 2009 
Q 1947 1309 1714 600 
Q 1481 -109 1013 -844 
L 513 -844 
Q 928 -128 1133 580 
Q 1338 1288 1338 2009 
Q 1338 2731 1133 3434 
Q 928 4138 513 4856 
z
" transform="scale(0.015625)"/>
      </defs>
      <use xlink:href="#DejaVuSans-54"/>
      <use xlink:href="#DejaVuSans-69" transform="translate(57.958984 0)"/>
      <use xlink:href="#DejaVuSans-6d" transform="translate(85.742188 0)"/>
      <use xlink:href="#DejaVuSans-65" transform="translate(183.154297 0)"/>
      <use xlink:href="#DejaVuSans-20" transform="translate(244.677734 0)"/>
      <use xlink:href="#DejaVuSans-28" transform="translate(276.464844 0)"/>
      <use xlink:href="#DejaVuSans-73" transform="translate(315.478516 0)"/>
      <use xlink:href="#DejaVuSans-29" transform="translate(367.578125 0)"/>
     </g>
    </g>
   </g>
   <g id="matplotlib.axis_2">
    <g id="ytick_1">
     <g id="line2d_8">
      <defs>
       <path id="m34e29ce7db" d="M 0 0 
L -3.5 0 
" style="stroke: #000000; stroke-width: 0.8"/>
      </defs>
      <g>
       <use xlink:href="#m34e29ce7db" x="56" y="162.350448" style="stroke: #000000; stroke-width: 0.8"/>
      </g>
     </g>
     <g id="text_9">
      <!-- −0.4 -->
      <g transform="translate(24.717187 166.149666) scale(0.1 -0.1)">
       <defs>
        <path id="DejaVuSans-2212" d="M 678 2272 
L 4684 2272 
L 4684 1741 
L 678 1741 
L 678 2272 
z
" transform="scale(0.015625)"/>
        <path id="DejaVuSans-2e" d="M 684 794 
L 1344 794 
L 1344 0 
L 684 0 
L 684 794 
z
" transform="scale(0.015625)"/>
       </defs>
       <use xlink:href="#DejaVuSans-2212"/>
       <use xlink:href="#DejaVuSans-30" transform="translate(83.789062 0)"/>
       <use xlink:href="#DejaVuSans-2e" transform="translate(147.412109 0)"/>
       <use xlink:href="#DejaVuSans-34" transform="translate(179.199219 0)"/>
      </g>
     </g>
    </g>
    <g id="ytick_2">
     <g id="line2d_9">
      <g>
       <use xlink:href="#m34e29ce7db" x="56" y="134.587339" style="stroke: #000000; stroke-width: 0.8"/>
      </g>
     </g>
     <g id="text_10">
      <!-- −0.2 -->
      <g transform="translate(24.717187 138.386557) scale(0.1 -0.1)">
       <use xlink:href="#DejaVuSans-2212"/>
       <use xlink:href="#DejaVuSans-30" transform="translate(83.789062 0)"/>
       <use xlink:href="#DejaVuSans-2e" transform="translate(147.412109 0)"/>
       <use xlink:href="#DejaVuSans-32" transform="translate(179.199219 0)"/>
      </g>
     </g>
    </g>
    <g id="ytick_3">
     <g id="line2d_10">
      <g>
       <use xlink:href="#m34e29ce7db" x="56" y="106.82423" style="stroke: #000000; stroke-width: 0.8"/>
      </g>
     </g>
     <g id="text_11">
      <!-- 0.0 -->
      <g transform="translate(33.096875 110.623448) scale(0.1 -0.1)">
       <use xlink:href="#DejaVuSans-30"/>
       <use xlink:href="#DejaVuSans-2e" transform="translate(63.623047 0)"/>
       <use xlink:href="#DejaVuSans-30" transform="translate(95.410156 0)"/>
      </g>
     </g>
    </g>
    <g id="ytick_4">
     <g id="line2d_11">
      <g>
       <use xlink:href="#m34e29ce7db" x="56" y="79.061121" style="stroke: #000000; stroke-width: 0.8"/>
      </g>
     </g>
     <g id="text_12">
      <!-- 0.2 -->
      <g transform="translate(33.096875 82.860339) scale(0.1 -0.1)">
       <use xlink:href="#DejaVuSans-30"/>
       <use xlink:href="#DejaVuSans-2e" transform="translate(63.623047 0)"/>
       <use xlink:href="#DejaVuSans-32" transform="translate(95.410156 0)"/>
      </g>
     </g>
    </g>
    <g id="ytick_5">
     <g id="line2d_12">
      <g>
       <use xlink:href="#m34e29ce7db" x="56" y="51.298012" style="stroke: #000000; stroke-width: 0.8"/>
      </g>
     </g>
     <g id="text_13">
      <!-- 0.4 -->
      <g transform="translate(33.096875 55.09723) scale(0.1 -0.1)">
       <use xlink:href="#DejaVuSans-30"/>
       <use xlink:href="#DejaVuSans-2e" transform="translate(63.623047 0)"/>
       <use xlink:href="#DejaVuSans-34" transform="translate(95.410156 0)"/>
      </g>
     </g>
    </g>
    <g id="text_14">
     <!-- Angle (rad) -->
     <g transform="translate(18.6375 134.759665) rotate(-90) scale(0.1 -0.1)">
      <defs>
       <path id="DejaVuSans-41" d="M 2188 4044 
L 1331 1722 
L 3047 1722 
L 2188 4044 
z
M 1831 4666 
L 2547 4666 
L 4325 0 
L 3669 0 
L 3244 1197 
L 1141 1197 
L 716 0 
L 50 0 
L 1831 4666 
z
" transform="scale(0.015625)"/>
       <path id="DejaVuSans-6e" d="M 3513 2113 
L 3513 0 
L 2938 0 
L 2938 2094 
Q 2938 2591 2744 2837 
Q 2550 3084 2163 3084 
Q 1697 3084 1428 2787 
Q 1159 2491 1159 1978 
L 1159 0 
L 581 0 
L 581 3500 
L 1159 3500 
L 1159 2956 
Q 1366 3272 1645 3428 
Q 1925 3584 2291 3584 
Q 2894 3584 3203 3211 
Q 3513 2838 3513 2113 
z
" transform="scale(0.015625)"/>
       <path id="DejaVuSans-67" d="M 2906 1791 
Q 2906 2416 2648 2759 
Q 2391 3103 1925 3103 
Q 1463 3103 1205 2759 
Q 947 2416 947 1791 
Q 947 1169 1205 825 
Q 1463 481 1925 481 
Q 2391 481 2648 825 
Q 2906 1169 2906 1791 
z
M 3481 434 
Q 3481 -459 3084 -895 
Q 2688 -1331 1869 -1331 
Q 1566 -1331 1297 -1286 
Q 1028 -1241 775 -1147 
L 775 -588 
Q 1028 -725 1275 -790 
Q 1522 -856 1778 -856 
Q 2344 -856 2625 -561 
Q 2906 -266 2906 331 
L 2906 616 
Q 2728 306 2450 153 
Q 2172 0 1784 0 
Q 1141 0 747 490 
Q 353 981 353 1791 
Q 353 2603 747 3093 
Q 1141 3584 1784 3584 
Q 2172 3584 2450 3431 
Q 2728 3278 2906 2969 
L 2906 3500 
L 3481 3500 
L 3481 434 
z
" transform="scale(0.015625)"/>
       <path id="DejaVuSans-6c" d="M 603 4863 
L 1178 4863 
L 1178 0 
L 603 0 
L 603 4863 
z
" transform="scale(0.015625)"/>
       <path id="DejaVuSans-72" d="M 2631 2963 
Q 2534 3019 2420 3045 
Q 2306 3072 2169 3072 
Q 1681 3072 1420 2755 
Q 1159 2438 1159 1844 
L 1159 0 
L 581 0 
L 581 3500 
L 1159 3500 
L 1159 2956 
Q 1341 3275 1631 3429 
Q 1922 3584 2338 3584 
Q 2397 3584 2469 3576 
Q 2541 3569 2628 3553 
L 2631 2963 
z
" transform="scale(0.015625)"/>
       <path id="DejaVuSans-61" d="M 2194 1759 
Q 1497 1759 1228 1600 
Q 959 1441 959 1056 
Q 959 750 1161 570 
Q 1363 391 1709 391 
Q 2188 391 2477 730 
Q 2766 1069 2766 1631 
L 2766 1759 
L 2194 1759 
z
M 3341 1997 
L 3341 0 
L 2766 0 
L 2766 531 
Q 2569 213 2275 61 
Q 1981 -91 1556 -91 
Q 1019 -91 701 211 
Q 384 513 384 1019 
Q 384 1609 779 1909 
Q 1175 2209 1959 2209 
L 2766 2209 
L 2766 2266 
Q 2766 2663 2505 2880 
Q 2244 3097 1772 3097 
Q 1472 3097 1187 3025 
Q 903 2953 641 2809 
L 641 3341 
Q 956 3463 1253 3523 
Q 1550 3584 1831 3584 
Q 2591 3584 2966 3190 
Q 3341 2797 3341 1997 
z
" transform="scale(0.015625)"/>
       <path id="DejaVuSans-64" d="M 2906 2969 
L 2906 4863 
L 3481 4863 
L 3481 0 
L 2906 0 
L 2906 525 
Q 2725 213 2448 61 
Q 2172 -91 1784 -91 
Q 1150 -91 751 415 
Q 353 922 353 1747 
Q 353 2572 751 3078 
Q 1150 3584 1784 3584 
Q 2172 3584 2448 3432 
Q 2725 3281 2906 2969 
z
M 947 1747 
Q 947 1113 1208 752 
Q 1469 391 1925 391 
Q 2381 391 2643 752 
Q 2906 1113 2906 1747 
Q 2906 2381 2643 2742 
Q 2381 3103 1925 3103 
Q 1469 3103 1208 2742 
Q 947 2381 947 1747 
z
" transform="scale(0.015625)"/>
      </defs>
      <use xlink:href="#DejaVuSans-41"/>
      <use xlink:href="#DejaVuSans-6e" transform="translate(68.408203 0)"/>
      <use xlink:href="#DejaVuSans-67" transform="translate(131.787109 0)"/>
      <use xlink:href="#DejaVuSans-6c" transform="translate(195.263672 0)"/>
      <use xlink:href="#DejaVuSans-65" transform="translate(223.046875 0)"/>
      <use xlink:href="#DejaVuSans-20" transform="translate(284.570312 0)"/>
      <use xlink:href="#DejaVuSans-28" transform="translate(316.357422 0)"/>
      <use xlink:href="#DejaVuSans-72" transform="translate(355.371094 0)"/>
      <use xlink:href="#DejaVuSans-61" transform="translate(396.484375 0)"/>
      <use xlink:href="#DejaVuSans-64" transform="translate(457.763672 0)"/>
      <use xlink:href="#DejaVuSans-29" transform="translate(521.240234 0)"/>
     </g>
    </g>
   </g>
   <g id="line2d_13">
    <path d="M 92.236364 34.14058 
L 92.357172 34.716672 
L 92.598788 39.340582 
L 92.961212 55.209101 
L 93.323636 82.559746 
L 94.169292 159.915605 
L 94.531716 175.098732 
L 94.773332 179.111412 
L 94.89414 179.352187 
L 95.014948 178.433323 
L 95.256564 173.123833 
L 95.618988 156.169376 
L 95.981412 127.634022 
L 96.70626 63.0333 
L 97.068684 48.158581 
L 97.3103 44.619886 
L 97.431108 44.713211 
L 97.551916 46.040273 
L 97.793532 52.408688 
L 98.155956 71.481036 
L 98.639188 115.091451 
L 99.12242 149.973795 
L 99.484844 161.672416 
L 99.605652 162.973997 
L 99.72646 163.011957 
L 99.847268 161.795181 
L 100.088885 155.559398 
L 100.451309 136.434526 
L 101.538581 60.579616 
L 101.780197 56.75375 
L 101.901005 56.807691 
L 102.021813 58.165269 
L 102.263429 64.804617 
L 102.625853 84.78437 
L 103.471509 142.979723 
L 103.713125 148.279096 
L 103.833933 148.892339 
L 103.954741 148.161438 
L 104.196357 142.676629 
L 104.558781 124.225081 
L 105.404437 69.70185 
L 105.646053 65.478378 
L 105.766861 65.400653 
L 105.887669 66.670278 
L 106.129285 73.259011 
L 106.491709 93.440851 
L 107.095749 134.694085 
L 107.337365 141.968923 
L 107.578981 143.698693 
L 107.699789 142.512967 
L 107.941405 136.049701 
L 108.303829 115.925867 
L 108.787061 82.683154 
L 109.149486 71.891863 
L 109.270294 71.081931 
L 109.391102 71.648062 
L 109.632718 76.90267 
L 109.995142 95.204075 
L 110.599182 132.793434 
L 110.840798 138.553816 
L 110.961606 139.331178 
L 111.082414 138.717606 
L 111.32403 133.323034 
L 111.686454 114.712492 
L 112.169686 83.867724 
L 112.411302 76.445314 
L 112.652918 74.643494 
L 112.773726 75.821387 
L 113.015342 82.336045 
L 113.377766 102.677041 
L 113.74019 125.550857 
L 114.102614 135.452573 
L 114.223422 135.918415 
L 114.34423 134.981096 
L 114.585846 128.900026 
L 114.94827 109.22072 
L 115.431502 82.983829 
L 115.673118 78.301431 
L 115.793926 78.076301 
L 115.914734 79.250359 
L 116.15635 85.797601 
L 116.518774 106.178041 
L 116.881198 125.898412 
L 117.122814 131.761413 
L 117.243622 132.552367 
L 117.36443 131.930106 
L 117.606046 126.468787 
L 117.968471 107.614374 
L 118.330895 89.220048 
L 118.572511 84.245004 
L 118.693319 83.906616 
L 118.814127 84.989483 
L 119.055743 91.4157 
L 119.901399 126.75678 
L 120.022207 127.050596 
L 120.143015 125.914731 
L 120.384631 119.356417 
L 121.109479 89.267566 
L 121.230287 88.460685 
L 121.351095 89.091459 
L 121.592711 94.655304 
L 122.317559 123.064461 
L 122.438367 123.706593 
L 122.559175 122.907106 
L 122.800791 116.992379 
L 123.404831 92.861809 
L 123.525639 91.593205 
L 123.646447 91.774749 
L 123.888063 96.468291 
L 124.612911 120.548564 
L 124.733719 120.319441 
L 124.975335 115.520063 
L 125.579375 95.144136 
L 125.700183 94.721233 
L 125.820991 95.754892 
L 126.062607 102.183433 
L 126.425031 115.398799 
L 126.666647 117.507017 
L 126.787455 116.368891 
L 127.029072 109.729702 
L 127.391496 98.546272 
L 127.512304 97.623935 
L 127.633112 98.164016 
L 127.874728 103.618951 
L 128.237152 114.457314 
L 128.35796 115.377378 
L 128.478768 114.83057 
L 128.720384 109.350207 
L 129.082808 100.281302 
L 129.203616 100.084272 
L 129.324424 101.352503 
L 129.928464 113.258241 
L 130.049272 112.094144 
L 130.532504 101.810128 
L 130.653312 101.960367 
L 130.894928 106.540544 
L 131.136544 111.466192 
L 131.257352 111.826633 
L 131.37816 110.720481 
L 131.740584 103.457976 
L 131.861392 103.087437 
L 131.9822 104.188405 
L 132.344624 110.580706 
L 132.465432 110.550815 
L 132.948664 104.10689 
L 133.069472 104.970326 
L 133.431896 109.890455 
L 133.552704 109.431633 
L 133.915128 104.971528 
L 134.035936 105.130675 
L 134.519168 109.207403 
L 135.0024 105.491263 
L 135.244016 107.360995 
L 135.485632 108.848258 
L 135.60644 108.415227 
L 135.968865 105.92973 
L 136.089673 106.174754 
L 136.452097 108.452626 
L 136.572905 108.370382 
L 137.056137 106.32997 
L 137.539369 108.220441 
L 137.780985 107.284634 
L 138.022601 106.553154 
L 138.143409 106.778039 
L 138.505833 108.029294 
L 138.626641 107.905965 
L 138.989065 106.789493 
L 139.109873 106.838932 
L 139.593105 107.856819 
L 140.076337 106.948062 
L 140.317953 107.414048 
L 140.559569 107.773792 
L 140.801185 107.423786 
L 141.042801 107.074985 
L 141.163609 107.139511 
L 141.526033 107.68143 
L 141.646841 107.658441 
L 142.130073 107.192128 
L 142.613305 107.628315 
L 143.217345 107.311375 
L 143.579769 107.588078 
L 143.821385 107.471287 
L 144.063001 107.320079 
L 144.304617 107.404903 
L 144.667041 107.556585 
L 145.271082 107.401123 
L 145.633506 107.548434 
L 146.358354 107.455204 
L 146.720778 107.530207 
L 147.324818 107.450771 
L 147.80805 107.509898 
L 148.291282 107.452658 
L 148.895322 107.493472 
L 149.378554 107.477741 
L 149.861786 107.503606 
L 150.465826 107.494517 
L 151.069866 107.478562 
L 152.64037 107.50383 
L 159.164003 107.452726 
L 168.103796 107.292912 
L 194.077519 106.589328 
L 208.332865 106.362269 
L 213.044377 106.359391 
L 213.165185 107.341745 
L 213.648417 116.078503 
L 213.769225 115.44063 
L 214.252457 107.500188 
L 214.373265 108.238846 
L 214.735689 114.564665 
L 214.856497 114.763246 
L 215.098113 111.272601 
L 215.339729 108.412288 
L 215.460537 109.084529 
L 215.822961 113.864634 
L 215.943769 113.536448 
L 216.306193 109.162433 
L 216.427001 109.184852 
L 216.910234 113.142727 
L 217.15185 110.961423 
L 217.393466 109.450422 
L 217.514274 110.000669 
L 217.876698 112.627823 
L 217.997506 112.27081 
L 218.35993 109.768184 
L 218.480738 109.920267 
L 218.843162 112.085929 
L 218.96397 112.052218 
L 219.447202 109.956262 
L 219.688818 111.022052 
L 219.930434 111.73811 
L 220.17205 110.850805 
L 220.413666 110.039379 
L 220.534474 110.198855 
L 220.896898 111.389734 
L 221.017706 111.290409 
L 221.38013 110.120196 
L 221.500938 110.112864 
L 221.98417 111.07705 
L 222.467402 110.059816 
L 222.709018 110.464373 
L 222.950634 110.826746 
L 223.071442 110.716542 
L 223.433866 110.016152 
L 223.554674 110.041151 
L 223.917098 110.563864 
L 224.037906 110.53764 
L 224.521138 109.919686 
L 225.00437 110.32857 
L 225.60841 109.834867 
L 225.970835 110.105008 
L 226.212451 109.935696 
L 226.574875 109.675101 
L 227.058107 109.8661 
L 227.662147 109.541001 
L 228.024571 109.659775 
L 228.870227 109.430194 
L 229.111843 109.420782 
L 229.715883 109.190001 
L 230.078307 109.220029 
L 230.803155 109.006526 
L 231.165579 108.981749 
L 231.769619 108.802162 
L 232.252851 108.74035 
L 232.856891 108.598014 
L 233.340123 108.500819 
L 233.944163 108.383375 
L 235.152244 108.137578 
L 237.81002 107.556921 
L 240.22618 107.061273 
L 245.300117 106.035036 
L 250.857285 105.033034 
L 257.139302 104.137401 
L 262.454855 103.622546 
L 267.166367 103.374173 
L 272.240304 103.330101 
L 277.676664 103.518215 
L 287.220497 104.394995 
L 294.106554 105.314893 
L 315.731189 108.339231 
L 322.134013 108.924988 
L 327.932798 109.24232 
L 333.610775 109.343536 
L 333.852391 109.259262 
L 333.973199 108.024041 
L 334.456431 99.655836 
L 334.577239 100.558927 
L 335.060471 108.088071 
L 335.181279 107.050351 
L 335.543703 100.968052 
L 335.664511 101.107167 
L 336.147743 107.18898 
L 336.389359 104.24655 
L 336.630975 101.745488 
L 336.751783 102.401936 
L 337.114207 106.565139 
L 337.235015 106.235239 
L 337.597439 102.518912 
L 337.718247 102.615057 
L 338.201479 106.079419 
L 338.684711 102.992035 
L 338.926327 104.524923 
L 339.167943 105.822134 
L 339.288751 105.497859 
L 339.651175 103.434003 
L 339.771983 103.620776 
L 340.134407 105.546549 
L 340.255215 105.508334 
L 340.738447 103.829954 
L 341.221679 105.445653 
L 341.463295 104.702497 
L 341.704911 104.094583 
L 341.825719 104.277 
L 342.188143 105.357901 
L 342.308951 105.278068 
L 342.671376 104.363478 
L 342.792184 104.403348 
L 343.275416 105.322902 
L 343.758648 104.573813 
L 344.000264 104.99443 
L 344.24188 105.343851 
L 344.483496 105.065989 
L 344.725112 104.764413 
L 344.966728 105.013577 
L 345.208344 105.360405 
L 345.329152 105.357641 
L 345.812384 104.961228 
L 346.295616 105.430486 
L 346.899656 105.174696 
L 347.26208 105.496939 
L 347.503696 105.407813 
L 347.745312 105.270742 
L 347.986928 105.379771 
L 348.349352 105.584539 
L 348.953392 105.480538 
L 349.315816 105.679034 
L 350.040664 105.658188 
L 350.403088 105.78249 
L 351.007128 105.764648 
L 351.490361 105.886825 
L 351.973593 105.880491 
L 352.577633 105.998316 
L 353.060865 106.037613 
L 353.544097 106.125937 
L 354.148137 106.189062 
L 354.752177 106.24862 
L 356.201873 106.449302 
L 357.651569 106.62918 
L 359.342881 106.842474 
L 365.624898 107.573329 
L 375.772771 108.485761 
L 382.779636 108.834208 
L 389.424077 108.922005 
L 396.189325 108.781636 
L 400.538414 108.577632 
L 409.115783 107.973102 
L 424.820825 106.587601 
L 434.24385 105.874886 
L 442.579603 105.464371 
L 450.311316 105.314981 
L 454.539596 105.330944 
L 454.660404 105.508029 
L 454.90202 109.78248 
L 455.143636 114.604277 
L 455.264444 114.942806 
L 455.385252 113.81616 
L 455.747676 106.915964 
L 455.868484 106.73575 
L 456.1101 110.439195 
L 456.351716 113.746884 
L 456.472524 113.310976 
L 456.955756 107.696609 
L 457.438988 112.836162 
L 457.680604 110.237381 
L 457.92222 108.153409 
L 458.043028 108.745225 
L 458.405452 112.193707 
L 458.52626 111.851819 
L 458.888684 108.655555 
L 459.009492 108.761218 
L 459.492725 111.592039 
L 459.975957 108.912428 
L 460.217573 110.206069 
L 460.459189 111.228642 
L 460.579997 110.911512 
L 460.942421 109.115088 
L 461.063229 109.274139 
L 461.425653 110.83498 
L 461.546461 110.763532 
L 462.029693 109.268567 
L 462.512925 110.539124 
L 462.754541 109.85246 
L 462.996157 109.303429 
L 463.116965 109.445779 
L 463.479389 110.290518 
L 463.600197 110.188611 
L 463.962621 109.33558 
L 464.083429 109.353319 
L 464.566661 110.032124 
L 465.049893 109.291793 
L 465.291509 109.606662 
L 465.533125 109.845104 
L 465.774741 109.546676 
L 466.016357 109.240629 
L 466.257973 109.406973 
L 466.499589 109.645047 
L 466.741205 109.475616 
L 466.982821 109.185735 
L 467.224437 109.238237 
L 467.586861 109.451013 
L 468.190902 109.091385 
L 468.553326 109.278174 
L 468.91575 109.03375 
L 469.157366 108.957682 
L 469.640598 109.08501 
L 470.244638 108.846915 
L 470.607062 108.923586 
L 471.452718 108.749051 
L 471.815142 108.681011 
L 472.298374 108.561538 
L 472.781606 108.537372 
L 473.264838 108.405781 
L 473.868878 108.344455 
L 474.35211 108.250393 
L 474.95615 108.156335 
L 475.680998 108.066323 
L 478.217967 107.617364 
L 482.083823 106.990072 
L 487.399376 106.152384 
L 496.459977 104.961354 
L 502.862801 104.395721 
L 508.41997 104.128513 
L 514.097947 104.081446 
L 520.017539 104.258558 
L 523.64178 104.473347 
L 532.943997 105.314301 
L 544.90399 106.698681 
L 555.293479 107.817218 
L 563.387616 108.444365 
L 570.394481 108.742733 
L 575.347609 108.803771 
L 575.468417 108.467909 
L 575.710033 103.780273 
L 575.95165 99.368179 
L 576.072458 99.293635 
L 576.314074 103.351488 
L 576.55569 107.418986 
L 576.676498 107.341079 
L 576.918114 103.26644 
L 577.15973 100.304425 
L 577.280538 100.962081 
L 577.642962 106.517181 
L 577.76377 106.439145 
L 578.247002 101.315095 
L 578.488618 104.115529 
L 578.730234 106.047608 
L 578.851042 105.330622 
L 579.213466 101.919713 
L 579.334274 102.375269 
L 579.696698 105.581694 
L 579.817506 105.378062 
L 580.17993 102.555648 
L 580.300738 102.592401 
L 580.78397 105.26873 
L 581.025586 103.87129 
L 581.267202 102.930654 
L 581.508818 104.065209 
L 581.750434 105.091612 
L 581.871242 104.872976 
L 582.233666 103.311314 
L 582.354474 103.43373 
L 582.716898 104.908508 
L 582.837706 104.905203 
L 583.320938 103.638467 
L 583.80417 104.886826 
L 584.045786 104.350845 
L 584.287402 103.875219 
L 584.40821 104.007625 
L 584.770634 104.861929 
L 584.891443 104.817094 
L 585.253867 104.124648 
L 585.374675 104.149729 
L 585.857907 104.886471 
L 586.341139 104.325777 
L 586.582755 104.65064 
L 586.824371 104.940236 
L 587.065987 104.746449 
L 587.307603 104.517244 
L 587.549219 104.710133 
L 587.790835 104.99329 
L 588.032451 104.916872 
L 588.274067 104.711176 
L 588.515683 104.805288 
L 588.878107 105.099801 
L 589.482147 104.92682 
L 589.965379 105.193428 
L 590.448611 105.066046 
L 591.052651 105.292408 
L 591.415075 105.216062 
L 592.139923 105.406295 
L 592.502347 105.398415 
L 593.106387 105.557521 
L 593.589619 105.581984 
L 594.072852 105.702934 
L 594.676892 105.760991 
L 595.160124 105.843573 
L 595.764164 105.933367 
L 596.489012 106.010361 
L 598.301132 106.295231 
L 599.992444 106.558438 
L 615.818294 108.552238 
L 621.617079 109.002118 
L 627.536671 109.25017 
L 633.577072 109.274782 
L 640.100705 109.066426 
L 647.71161 108.539123 
L 656.288978 107.717922 
L 674.772605 105.873112 
L 682.625125 105.345289 
L 689.511182 105.095438 
L 696.155623 105.058265 
L 696.276431 105.532177 
L 696.518047 110.520612 
L 696.759663 114.602329 
L 696.880471 114.474095 
L 697.122087 110.131252 
L 697.363703 106.393323 
L 697.484511 106.676024 
L 697.967743 113.52448 
L 698.088551 112.657878 
L 698.450975 107.304883 
L 698.571783 107.633084 
L 698.934207 112.446901 
L 699.055015 112.441511 
L 699.538247 107.911087 
L 699.779863 110.260589 
L 700.021479 111.941622 
L 700.142287 111.33406 
L 700.504711 108.302092 
L 700.625519 108.653178 
L 700.987943 111.375671 
L 701.108751 111.203622 
L 701.471175 108.702228 
L 701.591984 108.696011 
L 702.075216 110.932298 
L 702.316832 109.704675 
L 702.558448 108.826279 
L 702.679256 109.123472 
L 703.04168 110.598913 
L 703.162488 110.402603 
L 703.524912 108.979041 
L 703.64572 109.051189 
L 704.008144 110.252337 
L 704.128952 110.234884 
L 704.612184 109.044476 
L 704.8538 109.627182 
L 705.095416 110.026868 
L 705.337032 109.521383 
L 705.578648 109.050505 
L 705.699456 109.13304 
L 706.06188 109.796909 
L 706.182688 109.737362 
L 706.66592 109.046884 
L 707.149152 109.578595 
L 707.753192 109.049118 
L 708.115616 109.399296 
L 708.357232 109.178425 
L 708.598848 108.919312 
L 708.840464 109.023976 
L 709.08208 109.212421 
L 709.323696 109.091006 
L 709.68612 108.822627 
L 710.29016 108.97593 
L 710.652585 108.72143 
L 711.377433 108.766328 
L 711.739857 108.604014 
L 712.343897 108.642959 
L 712.827129 108.48561 
L 713.310361 108.506576 
L 713.793593 108.344941 
L 714.397633 108.319405 
L 714.880865 108.206787 
L 715.364097 108.179271 
L 715.968137 108.061018 
L 716.572177 107.961521 
L 717.780257 107.769763 
L 720.196418 107.424114 
L 737.471964 105.076575 
L 743.391556 104.580891 
L 749.190341 104.309381 
L 755.109933 104.26127 
L 761.39195 104.441455 
L 772.264671 105.253319 
L 782.412545 106.326263 
L 795.822234 107.716254 
L 803.312331 108.279731 
L 810.560812 108.598141 
L 816.963636 108.67371 
L 816.963636 108.67371 
" clip-path="url(#pd9329f6a03)" style="fill: none; stroke: #1f77b4; stroke-width: 1.5; stroke-linecap: square"/>
   </g>
   <g id="LineCollection_1">
    <path d="M 92.236364 106.82423 
L 816.963636 106.82423 
" clip-path="url(#pd9329f6a03)" style="fill: none; stroke: #ff0000; stroke-width: 1.5"/>
   </g>
   <g id="patch_3">
    <path d="M 56 186.612768 
L 56 26.88 
" style="fill: none; stroke: #000000; stroke-width: 0.8; stroke-linejoin: miter; stroke-linecap: square"/>
   </g>
   <g id="patch_4">
    <path d="M 853.2 186.612768 
L 853.2 26.88 
" style="fill: none; stroke: #000000; stroke-width: 0.8; stroke-linejoin: miter; stroke-linecap: square"/>
   </g>
   <g id="patch_5">
    <path d="M 56 186.612768 
L 853.2 186.612768 
" style="fill: none; stroke: #000000; stroke-width: 0.8; stroke-linejoin: miter; stroke-linecap: square"/>
   </g>
   <g id="patch_6">
    <path d="M 56 26.88 
L 853.2 26.88 
" style="fill: none; stroke: #000000; stroke-width: 0.8; stroke-linejoin: miter; stroke-linecap: square"/>
   </g>
   <g id="text_15">
    <!-- Inverted Pendulum on a Cart : System States -->
    <g transform="translate(319.057188 20.88) scale(0.12 -0.12)">
     <defs>
      <path id="DejaVuSans-49" d="M 628 4666 
L 1259 4666 
L 1259 0 
L 628 0 
L 628 4666 
z
" transform="scale(0.015625)"/>
      <path id="DejaVuSans-76" d="M 191 3500 
L 800 3500 
L 1894 563 
L 2988 3500 
L 3597 3500 
L 2284 0 
L 1503 0 
L 191 3500 
z
" transform="scale(0.015625)"/>
      <path id="DejaVuSans-74" d="M 1172 4494 
L 1172 3500 
L 2356 3500 
L 2356 3053 
L 1172 3053 
L 1172 1153 
Q 1172 725 1289 603 
Q 1406 481 1766 481 
L 2356 481 
L 2356 0 
L 1766 0 
Q 1100 0 847 248 
Q 594 497 594 1153 
L 594 3053 
L 172 3053 
L 172 3500 
L 594 3500 
L 594 4494 
L 1172 4494 
z
" transform="scale(0.015625)"/>
      <path id="DejaVuSans-50" d="M 1259 4147 
L 1259 2394 
L 2053 2394 
Q 2494 2394 2734 2622 
Q 2975 2850 2975 3272 
Q 2975 3691 2734 3919 
Q 2494 4147 2053 4147 
L 1259 4147 
z
M 628 4666 
L 2053 4666 
Q 2838 4666 3239 4311 
Q 3641 3956 3641 3272 
Q 3641 2581 3239 2228 
Q 2838 1875 2053 1875 
L 1259 1875 
L 1259 0 
L 628 0 
L 628 4666 
z
" transform="scale(0.015625)"/>
      <path id="DejaVuSans-75" d="M 544 1381 
L 544 3500 
L 1119 3500 
L 1119 1403 
Q 1119 906 1312 657 
Q 1506 409 1894 409 
Q 2359 409 2629 706 
Q 2900 1003 2900 1516 
L 2900 3500 
L 3475 3500 
L 3475 0 
L 2900 0 
L 2900 538 
Q 2691 219 2414 64 
Q 2138 -91 1772 -91 
Q 1169 -91 856 284 
Q 544 659 544 1381 
z
M 1991 3584 
L 1991 3584 
z
" transform="scale(0.015625)"/>
      <path id="DejaVuSans-6f" d="M 1959 3097 
Q 1497 3097 1228 2736 
Q 959 2375 959 1747 
Q 959 1119 1226 758 
Q 1494 397 1959 397 
Q 2419 397 2687 759 
Q 2956 1122 2956 1747 
Q 2956 2369 2687 2733 
Q 2419 3097 1959 3097 
z
M 1959 3584 
Q 2709 3584 3137 3096 
Q 3566 2609 3566 1747 
Q 3566 888 3137 398 
Q 2709 -91 1959 -91 
Q 1206 -91 779 398 
Q 353 888 353 1747 
Q 353 2609 779 3096 
Q 1206 3584 1959 3584 
z
" transform="scale(0.015625)"/>
      <path id="DejaVuSans-43" d="M 4122 4306 
L 4122 3641 
Q 3803 3938 3442 4084 
Q 3081 4231 2675 4231 
Q 1875 4231 1450 3742 
Q 1025 3253 1025 2328 
Q 1025 1406 1450 917 
Q 1875 428 2675 428 
Q 3081 428 3442 575 
Q 3803 722 4122 1019 
L 4122 359 
Q 3791 134 3420 21 
Q 3050 -91 2638 -91 
Q 1578 -91 968 557 
Q 359 1206 359 2328 
Q 359 3453 968 4101 
Q 1578 4750 2638 4750 
Q 3056 4750 3426 4639 
Q 3797 4528 4122 4306 
z
" transform="scale(0.015625)"/>
      <path id="DejaVuSans-3a" d="M 750 794 
L 1409 794 
L 1409 0 
L 750 0 
L 750 794 
z
M 750 3309 
L 1409 3309 
L 1409 2516 
L 750 2516 
L 750 3309 
z
" transform="scale(0.015625)"/>
      <path id="DejaVuSans-53" d="M 3425 4513 
L 3425 3897 
Q 3066 4069 2747 4153 
Q 2428 4238 2131 4238 
Q 1616 4238 1336 4038 
Q 1056 3838 1056 3469 
Q 1056 3159 1242 3001 
Q 1428 2844 1947 2747 
L 2328 2669 
Q 3034 2534 3370 2195 
Q 3706 1856 3706 1288 
Q 3706 609 3251 259 
Q 2797 -91 1919 -91 
Q 1588 -91 1214 -16 
Q 841 59 441 206 
L 441 856 
Q 825 641 1194 531 
Q 1563 422 1919 422 
Q 2459 422 2753 634 
Q 3047 847 3047 1241 
Q 3047 1584 2836 1778 
Q 2625 1972 2144 2069 
L 1759 2144 
Q 1053 2284 737 2584 
Q 422 2884 422 3419 
Q 422 4038 858 4394 
Q 1294 4750 2059 4750 
Q 2388 4750 2728 4690 
Q 3069 4631 3425 4513 
z
" transform="scale(0.015625)"/>
      <path id="DejaVuSans-79" d="M 2059 -325 
Q 1816 -950 1584 -1140 
Q 1353 -1331 966 -1331 
L 506 -1331 
L 506 -850 
L 844 -850 
Q 1081 -850 1212 -737 
Q 1344 -625 1503 -206 
L 1606 56 
L 191 3500 
L 800 3500 
L 1894 763 
L 2988 3500 
L 3597 3500 
L 2059 -325 
z
" transform="scale(0.015625)"/>
     </defs>
     <use xlink:href="#DejaVuSans-49"/>
     <use xlink:href="#DejaVuSans-6e" transform="translate(29.492188 0)"/>
     <use xlink:href="#DejaVuSans-76" transform="translate(92.871094 0)"/>
     <use xlink:href="#DejaVuSans-65" transform="translate(152.050781 0)"/>
     <use xlink:href="#DejaVuSans-72" transform="translate(213.574219 0)"/>
     <use xlink:href="#DejaVuSans-74" transform="translate(254.6875 0)"/>
     <use xlink:href="#DejaVuSans-65" transform="translate(293.896484 0)"/>
     <use xlink:href="#DejaVuSans-64" transform="translate(355.419922 0)"/>
     <use xlink:href="#DejaVuSans-20" transform="translate(418.896484 0)"/>
     <use xlink:href="#DejaVuSans-50" transform="translate(450.683594 0)"/>
     <use xlink:href="#DejaVuSans-65" transform="translate(507.361328 0)"/>
     <use xlink:href="#DejaVuSans-6e" transform="translate(568.884766 0)"/>
     <use xlink:href="#DejaVuSans-64" transform="translate(632.263672 0)"/>
     <use xlink:href="#DejaVuSans-75" transform="translate(695.740234 0)"/>
     <use xlink:href="#DejaVuSans-6c" transform="translate(759.119141 0)"/>
     <use xlink:href="#DejaVuSans-75" transform="translate(786.902344 0)"/>
     <use xlink:href="#DejaVuSans-6d" transform="translate(850.28125 0)"/>
     <use xlink:href="#DejaVuSans-20" transform="translate(947.693359 0)"/>
     <use xlink:href="#DejaVuSans-6f" transform="translate(979.480469 0)"/>
     <use xlink:href="#DejaVuSans-6e" transform="translate(1040.662109 0)"/>
     <use xlink:href="#DejaVuSans-20" transform="translate(1104.041016 0)"/>
     <use xlink:href="#DejaVuSans-61" transform="translate(1135.828125 0)"/>
     <use xlink:href="#DejaVuSans-20" transform="translate(1197.107422 0)"/>
     <use xlink:href="#DejaVuSans-43" transform="translate(1228.894531 0)"/>
     <use xlink:href="#DejaVuSans-61" transform="translate(1298.71875 0)"/>
     <use xlink:href="#DejaVuSans-72" transform="translate(1359.998047 0)"/>
     <use xlink:href="#DejaVuSans-74" transform="translate(1401.111328 0)"/>
     <use xlink:href="#DejaVuSans-20" transform="translate(1440.320312 0)"/>
     <use xlink:href="#DejaVuSans-3a" transform="translate(1472.107422 0)"/>
     <use xlink:href="#DejaVuSans-20" transform="translate(1505.798828 0)"/>
     <use xlink:href="#DejaVuSans-53" transform="translate(1537.585938 0)"/>
     <use xlink:href="#DejaVuSans-79" transform="translate(1601.0625 0)"/>
     <use xlink:href="#DejaVuSans-73" transform="translate(1660.242188 0)"/>
     <use xlink:href="#DejaVuSans-74" transform="translate(1712.341797 0)"/>
     <use xlink:href="#DejaVuSans-65" transform="translate(1751.550781 0)"/>
     <use xlink:href="#DejaVuSans-6d" transform="translate(1813.074219 0)"/>
     <use xlink:href="#DejaVuSans-20" transform="translate(1910.486328 0)"/>
     <use xlink:href="#DejaVuSans-53" transform="translate(1942.273438 0)"/>
     <use xlink:href="#DejaVuSans-74" transform="translate(2005.75 0)"/>
     <use xlink:href="#DejaVuSans-61" transform="translate(2044.958984 0)"/>
     <use xlink:href="#DejaVuSans-74" transform="translate(2106.238281 0)"/>
     <use xlink:href="#DejaVuSans-65" transform="translate(2145.447266 0)"/>
     <use xlink:href="#DejaVuSans-73" transform="translate(2206.970703 0)"/>
    </g>
   </g>
   <g id="legend_1">
    <g id="patch_7">
     <path d="M 679.209375 64.314375 
L 846.2 64.314375 
Q 848.2 64.314375 848.2 62.314375 
L 848.2 33.88 
Q 848.2 31.88 846.2 31.88 
L 679.209375 31.88 
Q 677.209375 31.88 677.209375 33.88 
L 677.209375 62.314375 
Q 677.209375 64.314375 679.209375 64.314375 
z
" style="fill: #ffffff; opacity: 0.8; stroke: #cccccc; stroke-linejoin: miter"/>
    </g>
    <g id="line2d_14">
     <path d="M 681.209375 40.056562 
L 691.209375 40.056562 
L 701.209375 40.056562 
" style="fill: none; stroke: #1f77b4; stroke-width: 1.5; stroke-linecap: square"/>
    </g>
    <g id="text_16">
     <!-- Inverted Pendulum angle θ -->
     <g transform="translate(709.209375 43.556562) scale(0.1 -0.1)">
      <defs>
       <path id="DejaVuSans-3b8" d="M 2953 2219 
L 963 2219 
Q 1009 1284 1225 888 
Q 1494 400 1959 400 
Q 2428 400 2688 891 
Q 2916 1322 2953 2219 
z
M 2944 2750 
Q 2856 3638 2688 3950 
Q 2419 4444 1959 4444 
Q 1481 4444 1228 3956 
Q 1028 3563 969 2750 
L 2944 2750 
z
M 1959 4913 
Q 2709 4913 3138 4250 
Q 3566 3591 3566 2422 
Q 3566 1256 3138 594 
Q 2709 -72 1959 -72 
Q 1206 -72 781 594 
Q 353 1256 353 2422 
Q 353 3591 781 4250 
Q 1206 4913 1959 4913 
z
" transform="scale(0.015625)"/>
      </defs>
      <use xlink:href="#DejaVuSans-49"/>
      <use xlink:href="#DejaVuSans-6e" transform="translate(29.492188 0)"/>
      <use xlink:href="#DejaVuSans-76" transform="translate(92.871094 0)"/>
      <use xlink:href="#DejaVuSans-65" transform="translate(152.050781 0)"/>
      <use xlink:href="#DejaVuSans-72" transform="translate(213.574219 0)"/>
      <use xlink:href="#DejaVuSans-74" transform="translate(254.6875 0)"/>
      <use xlink:href="#DejaVuSans-65" transform="translate(293.896484 0)"/>
      <use xlink:href="#DejaVuSans-64" transform="translate(355.419922 0)"/>
      <use xlink:href="#DejaVuSans-20" transform="translate(418.896484 0)"/>
      <use xlink:href="#DejaVuSans-50" transform="translate(450.683594 0)"/>
      <use xlink:href="#DejaVuSans-65" transform="translate(507.361328 0)"/>
      <use xlink:href="#DejaVuSans-6e" transform="translate(568.884766 0)"/>
      <use xlink:href="#DejaVuSans-64" transform="translate(632.263672 0)"/>
      <use xlink:href="#DejaVuSans-75" transform="translate(695.740234 0)"/>
      <use xlink:href="#DejaVuSans-6c" transform="translate(759.119141 0)"/>
      <use xlink:href="#DejaVuSans-75" transform="translate(786.902344 0)"/>
      <use xlink:href="#DejaVuSans-6d" transform="translate(850.28125 0)"/>
      <use xlink:href="#DejaVuSans-20" transform="translate(947.693359 0)"/>
      <use xlink:href="#DejaVuSans-61" transform="translate(979.480469 0)"/>
      <use xlink:href="#DejaVuSans-6e" transform="translate(1040.759766 0)"/>
      <use xlink:href="#DejaVuSans-67" transform="translate(1104.138672 0)"/>
      <use xlink:href="#DejaVuSans-6c" transform="translate(1167.615234 0)"/>
      <use xlink:href="#DejaVuSans-65" transform="translate(1195.398438 0)"/>
      <use xlink:href="#DejaVuSans-20" transform="translate(1256.921875 0)"/>
      <use xlink:href="#DejaVuSans-3b8" transform="translate(1288.708984 0)"/>
     </g>
    </g>
    <g id="line2d_15">
     <path d="M 681.209375 54.734688 
L 701.209375 54.734688 
" style="fill: none; stroke: #ff0000; stroke-width: 1.5"/>
    </g>
    <g id="text_17">
     <!-- Target angle -->
     <g transform="translate(709.209375 58.234688) scale(0.1 -0.1)">
      <use xlink:href="#DejaVuSans-54"/>
      <use xlink:href="#DejaVuSans-61" transform="translate(44.583984 0)"/>
      <use xlink:href="#DejaVuSans-72" transform="translate(105.863281 0)"/>
      <use xlink:href="#DejaVuSans-67" transform="translate(145.226562 0)"/>
      <use xlink:href="#DejaVuSans-65" transform="translate(208.703125 0)"/>
      <use xlink:href="#DejaVuSans-74" transform="translate(270.226562 0)"/>
      <use xlink:href="#DejaVuSans-20" transform="translate(309.435547 0)"/>
      <use xlink:href="#DejaVuSans-61" transform="translate(341.222656 0)"/>
      <use xlink:href="#DejaVuSans-6e" transform="translate(402.501953 0)"/>
      <use xlink:href="#DejaVuSans-67" transform="translate(465.880859 0)"/>
      <use xlink:href="#DejaVuSans-6c" transform="translate(529.357422 0)"/>
      <use xlink:href="#DejaVuSans-65" transform="translate(557.140625 0)"/>
     </g>
    </g>
   </g>
  </g>
  <g id="axes_2">
   <g id="patch_8">
    <path d="M 56 390.04 
L 853.2 390.04 
L 853.2 230.307232 
L 56 230.307232 
z
" style="fill: #ffffff"/>
   </g>
   <g id="matplotlib.axis_3">
    <g id="xtick_8">
     <g id="line2d_16">
      <g>
       <use xlink:href="#mbfb592fa8c" x="92.236364" y="390.04" style="stroke: #000000; stroke-width: 0.8"/>
      </g>
     </g>
     <g id="text_18">
      <!-- 0 -->
      <g transform="translate(89.055114 404.638437) scale(0.1 -0.1)">
       <use xlink:href="#DejaVuSans-30"/>
      </g>
     </g>
    </g>
    <g id="xtick_9">
     <g id="line2d_17">
      <g>
       <use xlink:href="#mbfb592fa8c" x="213.024242" y="390.04" style="stroke: #000000; stroke-width: 0.8"/>
      </g>
     </g>
     <g id="text_19">
      <!-- 10 -->
      <g transform="translate(206.661742 404.638437) scale(0.1 -0.1)">
       <use xlink:href="#DejaVuSans-31"/>
       <use xlink:href="#DejaVuSans-30" transform="translate(63.623047 0)"/>
      </g>
     </g>
    </g>
    <g id="xtick_10">
     <g id="line2d_18">
      <g>
       <use xlink:href="#mbfb592fa8c" x="333.812121" y="390.04" style="stroke: #000000; stroke-width: 0.8"/>
      </g>
     </g>
     <g id="text_20">
      <!-- 20 -->
      <g transform="translate(327.449621 404.638437) scale(0.1 -0.1)">
       <use xlink:href="#DejaVuSans-32"/>
       <use xlink:href="#DejaVuSans-30" transform="translate(63.623047 0)"/>
      </g>
     </g>
    </g>
    <g id="xtick_11">
     <g id="line2d_19">
      <g>
       <use xlink:href="#mbfb592fa8c" x="454.6" y="390.04" style="stroke: #000000; stroke-width: 0.8"/>
      </g>
     </g>
     <g id="text_21">
      <!-- 30 -->
      <g transform="translate(448.2375 404.638437) scale(0.1 -0.1)">
       <use xlink:href="#DejaVuSans-33"/>
       <use xlink:href="#DejaVuSans-30" transform="translate(63.623047 0)"/>
      </g>
     </g>
    </g>
    <g id="xtick_12">
     <g id="line2d_20">
      <g>
       <use xlink:href="#mbfb592fa8c" x="575.387879" y="390.04" style="stroke: #000000; stroke-width: 0.8"/>
      </g>
     </g>
     <g id="text_22">
      <!-- 40 -->
      <g transform="translate(569.025379 404.638437) scale(0.1 -0.1)">
       <use xlink:href="#DejaVuSans-34"/>
       <use xlink:href="#DejaVuSans-30" transform="translate(63.623047 0)"/>
      </g>
     </g>
    </g>
    <g id="xtick_13">
     <g id="line2d_21">
      <g>
       <use xlink:href="#mbfb592fa8c" x="696.175758" y="390.04" style="stroke: #000000; stroke-width: 0.8"/>
      </g>
     </g>
     <g id="text_23">
      <!-- 50 -->
      <g transform="translate(689.813258 404.638437) scale(0.1 -0.1)">
       <use xlink:href="#DejaVuSans-35"/>
       <use xlink:href="#DejaVuSans-30" transform="translate(63.623047 0)"/>
      </g>
     </g>
    </g>
    <g id="xtick_14">
     <g id="line2d_22">
      <g>
       <use xlink:href="#mbfb592fa8c" x="816.963636" y="390.04" style="stroke: #000000; stroke-width: 0.8"/>
      </g>
     </g>
     <g id="text_24">
      <!-- 60 -->
      <g transform="translate(810.601136 404.638437) scale(0.1 -0.1)">
       <use xlink:href="#DejaVuSans-36"/>
       <use xlink:href="#DejaVuSans-30" transform="translate(63.623047 0)"/>
      </g>
     </g>
    </g>
    <g id="text_25">
     <!-- Time (s) -->
     <g transform="translate(434.271094 418.316562) scale(0.1 -0.1)">
      <use xlink:href="#DejaVuSans-54"/>
      <use xlink:href="#DejaVuSans-69" transform="translate(57.958984 0)"/>
      <use xlink:href="#DejaVuSans-6d" transform="translate(85.742188 0)"/>
      <use xlink:href="#DejaVuSans-65" transform="translate(183.154297 0)"/>
      <use xlink:href="#DejaVuSans-20" transform="translate(244.677734 0)"/>
      <use xlink:href="#DejaVuSans-28" transform="translate(276.464844 0)"/>
      <use xlink:href="#DejaVuSans-73" transform="translate(315.478516 0)"/>
      <use xlink:href="#DejaVuSans-29" transform="translate(367.578125 0)"/>
     </g>
    </g>
   </g>
   <g id="matplotlib.axis_4">
    <g id="ytick_6">
     <g id="line2d_23">
      <g>
       <use xlink:href="#m34e29ce7db" x="56" y="382.173159" style="stroke: #000000; stroke-width: 0.8"/>
      </g>
     </g>
     <g id="text_26">
      <!-- −10 -->
      <g transform="translate(27.895312 385.972378) scale(0.1 -0.1)">
       <use xlink:href="#DejaVuSans-2212"/>
       <use xlink:href="#DejaVuSans-31" transform="translate(83.789062 0)"/>
       <use xlink:href="#DejaVuSans-30" transform="translate(147.412109 0)"/>
      </g>
     </g>
    </g>
    <g id="ytick_7">
     <g id="line2d_24">
      <g>
       <use xlink:href="#m34e29ce7db" x="56" y="344.79446" style="stroke: #000000; stroke-width: 0.8"/>
      </g>
     </g>
     <g id="text_27">
      <!-- −5 -->
      <g transform="translate(34.257812 348.593679) scale(0.1 -0.1)">
       <use xlink:href="#DejaVuSans-2212"/>
       <use xlink:href="#DejaVuSans-35" transform="translate(83.789062 0)"/>
      </g>
     </g>
    </g>
    <g id="ytick_8">
     <g id="line2d_25">
      <g>
       <use xlink:href="#m34e29ce7db" x="56" y="307.415761" style="stroke: #000000; stroke-width: 0.8"/>
      </g>
     </g>
     <g id="text_28">
      <!-- 0 -->
      <g transform="translate(42.6375 311.21498) scale(0.1 -0.1)">
       <use xlink:href="#DejaVuSans-30"/>
      </g>
     </g>
    </g>
    <g id="ytick_9">
     <g id="line2d_26">
      <g>
       <use xlink:href="#m34e29ce7db" x="56" y="270.037062" style="stroke: #000000; stroke-width: 0.8"/>
      </g>
     </g>
     <g id="text_29">
      <!-- 5 -->
      <g transform="translate(42.6375 273.836281) scale(0.1 -0.1)">
       <use xlink:href="#DejaVuSans-35"/>
      </g>
     </g>
    </g>
    <g id="ytick_10">
     <g id="line2d_27">
      <g>
       <use xlink:href="#m34e29ce7db" x="56" y="232.658363" style="stroke: #000000; stroke-width: 0.8"/>
      </g>
     </g>
     <g id="text_30">
      <!-- 10 -->
      <g transform="translate(36.275 236.457582) scale(0.1 -0.1)">
       <use xlink:href="#DejaVuSans-31"/>
       <use xlink:href="#DejaVuSans-30" transform="translate(63.623047 0)"/>
      </g>
     </g>
    </g>
    <g id="text_31">
     <!-- Angular velocity (rad/s) -->
     <g transform="translate(21.815625 368.818929) rotate(-90) scale(0.1 -0.1)">
      <defs>
       <path id="DejaVuSans-63" d="M 3122 3366 
L 3122 2828 
Q 2878 2963 2633 3030 
Q 2388 3097 2138 3097 
Q 1578 3097 1268 2742 
Q 959 2388 959 1747 
Q 959 1106 1268 751 
Q 1578 397 2138 397 
Q 2388 397 2633 464 
Q 2878 531 3122 666 
L 3122 134 
Q 2881 22 2623 -34 
Q 2366 -91 2075 -91 
Q 1284 -91 818 406 
Q 353 903 353 1747 
Q 353 2603 823 3093 
Q 1294 3584 2113 3584 
Q 2378 3584 2631 3529 
Q 2884 3475 3122 3366 
z
" transform="scale(0.015625)"/>
       <path id="DejaVuSans-2f" d="M 1625 4666 
L 2156 4666 
L 531 -594 
L 0 -594 
L 1625 4666 
z
" transform="scale(0.015625)"/>
      </defs>
      <use xlink:href="#DejaVuSans-41"/>
      <use xlink:href="#DejaVuSans-6e" transform="translate(68.408203 0)"/>
      <use xlink:href="#DejaVuSans-67" transform="translate(131.787109 0)"/>
      <use xlink:href="#DejaVuSans-75" transform="translate(195.263672 0)"/>
      <use xlink:href="#DejaVuSans-6c" transform="translate(258.642578 0)"/>
      <use xlink:href="#DejaVuSans-61" transform="translate(286.425781 0)"/>
      <use xlink:href="#DejaVuSans-72" transform="translate(347.705078 0)"/>
      <use xlink:href="#DejaVuSans-20" transform="translate(388.818359 0)"/>
      <use xlink:href="#DejaVuSans-76" transform="translate(420.605469 0)"/>
      <use xlink:href="#DejaVuSans-65" transform="translate(479.785156 0)"/>
      <use xlink:href="#DejaVuSans-6c" transform="translate(541.308594 0)"/>
      <use xlink:href="#DejaVuSans-6f" transform="translate(569.091797 0)"/>
      <use xlink:href="#DejaVuSans-63" transform="translate(630.273438 0)"/>
      <use xlink:href="#DejaVuSans-69" transform="translate(685.253906 0)"/>
      <use xlink:href="#DejaVuSans-74" transform="translate(713.037109 0)"/>
      <use xlink:href="#DejaVuSans-79" transform="translate(752.246094 0)"/>
      <use xlink:href="#DejaVuSans-20" transform="translate(811.425781 0)"/>
      <use xlink:href="#DejaVuSans-28" transform="translate(843.212891 0)"/>
      <use xlink:href="#DejaVuSans-72" transform="translate(882.226562 0)"/>
      <use xlink:href="#DejaVuSans-61" transform="translate(923.339844 0)"/>
      <use xlink:href="#DejaVuSans-64" transform="translate(984.619141 0)"/>
      <use xlink:href="#DejaVuSans-2f" transform="translate(1048.095703 0)"/>
      <use xlink:href="#DejaVuSans-73" transform="translate(1081.787109 0)"/>
      <use xlink:href="#DejaVuSans-29" transform="translate(1133.886719 0)"/>
     </g>
    </g>
   </g>
   <g id="line2d_28">
    <path d="M 92.236364 307.415761 
L 93.444444 374.69112 
L 93.565252 382.77942 
L 94.89414 305.643579 
L 96.10222 237.567813 
L 96.223028 238.142449 
L 96.827068 277.306895 
L 98.51838 375.428871 
L 98.759996 362.065834 
L 99.968076 290.642133 
L 100.813733 243.280353 
L 101.538581 290.017263 
L 102.867469 367.01378 
L 104.317165 278.054615 
L 104.800397 249.701329 
L 106.129285 332.449465 
L 106.612517 362.296512 
L 106.733325 358.237657 
L 108.303829 259.840574 
L 108.424637 254.00656 
L 109.391102 314.155429 
L 110.11595 358.393958 
L 110.236758 354.316307 
L 111.686454 262.498465 
L 111.807262 258.179703 
L 112.169686 279.738567 
L 113.377766 356.009348 
L 113.498574 352.732186 
L 114.94827 262.111252 
L 115.069078 263.82555 
L 116.518774 353.665403 
L 117.36443 300.272827 
L 117.968471 263.63664 
L 118.814127 317.062631 
L 119.297359 348.25031 
L 119.418167 344.444497 
L 120.626247 268.183658 
L 121.834327 344.205928 
L 122.196751 322.608899 
L 123.042407 272.862101 
L 124.129679 340.649436 
L 124.975335 286.698836 
L 125.216951 277.310296 
L 126.183415 336.469093 
L 127.029072 281.86519 
L 127.14988 282.547655 
L 127.995536 331.894585 
L 128.720384 285.124817 
L 128.841192 286.266837 
L 129.56604 328.146471 
L 130.290888 288.959493 
L 130.894928 325.337405 
L 131.015736 321.263591 
L 131.498968 291.345586 
L 131.619776 293.650456 
L 132.103008 322.086049 
L 132.223816 319.024293 
L 132.707048 294.623157 
L 133.19028 319.064244 
L 133.311088 316.145734 
L 133.673512 297.400323 
L 133.79432 298.920043 
L 134.156744 315.891281 
L 134.277552 315.509233 
L 134.760784 299.975654 
L 135.244016 314.158868 
L 135.485632 307.284278 
L 135.727248 301.505764 
L 135.848056 303.029589 
L 136.210481 312.538818 
L 136.331289 311.73941 
L 136.693713 303.137003 
L 136.814521 303.355841 
L 137.297753 311.188956 
L 137.780985 304.053575 
L 138.022601 307.534025 
L 138.264217 310.393987 
L 138.385025 309.616582 
L 138.747449 304.886919 
L 138.868257 305.306028 
L 139.230681 309.556751 
L 139.351489 309.431538 
L 139.834721 305.596851 
L 140.317953 309.068908 
L 140.559569 307.36504 
L 140.801185 305.996922 
L 140.921993 306.390001 
L 141.284417 308.642469 
L 141.405225 308.433724 
L 141.767649 306.413057 
L 141.888457 306.492861 
L 142.371689 308.282808 
L 142.854921 306.670878 
L 143.096537 307.45946 
L 143.338153 308.075974 
L 143.458961 307.897954 
L 143.821385 306.856834 
L 143.942193 306.974207 
L 144.304617 307.889144 
L 144.425425 307.854263 
L 144.908658 307.021613 
L 145.39189 307.788651 
L 145.633506 307.400136 
L 145.875122 307.096126 
L 146.116738 307.396318 
L 146.358354 307.705817 
L 146.59997 307.483246 
L 146.841586 307.178723 
L 146.962394 307.198448 
L 147.445626 307.628348 
L 147.928858 307.230114 
L 148.532898 307.539386 
L 148.895322 307.270941 
L 149.136938 307.387723 
L 149.378554 307.54445 
L 149.62017 307.462574 
L 149.982594 307.309924 
L 150.586634 307.476374 
L 150.949058 307.328554 
L 151.673906 307.43085 
L 152.03633 307.355939 
L 152.64037 307.442115 
L 153.123602 307.383664 
L 153.606834 307.445293 
L 154.210875 307.405531 
L 154.694107 307.4237 
L 155.177339 307.397988 
L 155.781379 307.408525 
L 177.768437 307.396716 
L 212.923569 307.41439 
L 213.044377 308.738955 
L 213.285993 323.939414 
L 213.406801 323.329691 
L 214.010841 292.366566 
L 214.494073 321.285693 
L 214.614881 319.769371 
L 215.098113 294.731797 
L 215.339729 307.101844 
L 215.581345 318.472491 
L 215.702153 316.198704 
L 216.064577 297.862097 
L 216.185385 298.819349 
L 216.668617 315.337573 
L 217.15185 300.042289 
L 217.393466 308.032109 
L 217.635082 313.858505 
L 217.75589 311.860419 
L 218.118314 301.657189 
L 218.239122 302.831303 
L 218.601546 312.182078 
L 218.722354 311.667841 
L 219.205586 303.277249 
L 219.688818 311.023248 
L 219.930434 306.982191 
L 220.17205 304.035598 
L 220.292858 305.040774 
L 220.655282 310.19739 
L 220.77609 309.593662 
L 221.138514 304.87471 
L 221.259322 305.127725 
L 221.742554 309.383575 
L 222.225786 305.424202 
L 222.467402 307.500915 
L 222.709018 309.012737 
L 222.829826 308.489268 
L 223.19225 305.823691 
L 223.313058 306.135908 
L 223.675482 308.587202 
L 223.79629 308.448143 
L 224.279522 306.236534 
L 224.762754 308.289411 
L 225.00437 307.201775 
L 225.245986 306.420378 
L 225.366794 306.696695 
L 225.729219 308.076869 
L 225.850027 307.909305 
L 226.212451 306.634395 
L 226.333259 306.709721 
L 226.816491 307.853285 
L 227.299723 306.785101 
L 227.541339 307.353525 
L 227.782955 307.753186 
L 228.024571 307.305601 
L 228.266187 306.888917 
L 228.386995 306.978352 
L 228.749419 307.638429 
L 228.870227 307.595792 
L 229.353459 307.001798 
L 229.836691 307.553258 
L 230.440731 307.126242 
L 230.803155 307.496083 
L 231.044771 307.317955 
L 231.286387 307.103764 
L 231.528003 307.230655 
L 231.769619 307.436376 
L 232.011235 307.352003 
L 232.373659 307.145239 
L 232.977699 307.364278 
L 233.340123 307.17198 
L 234.185779 307.241798 
L 234.427395 307.202992 
L 235.031436 307.319034 
L 235.39386 307.214836 
L 236.118708 307.285765 
L 236.481132 307.237174 
L 237.085172 307.295686 
L 237.568404 307.259513 
L 238.051636 307.300104 
L 238.655676 307.27699 
L 239.259716 307.267389 
L 240.467796 307.263011 
L 242.400724 307.272794 
L 297.36837 307.511207 
L 333.731583 307.414707 
L 333.852391 304.735625 
L 334.094007 290.403687 
L 334.214815 292.567844 
L 334.698047 322.753976 
L 334.818855 321.353185 
L 335.302087 293.345849 
L 335.422895 296.434896 
L 335.785319 318.918598 
L 335.906127 319.450958 
L 336.389359 296.433588 
L 336.510167 300.070743 
L 336.872591 317.153731 
L 336.993399 314.909314 
L 337.355823 299.146251 
L 337.476631 300.237436 
L 337.839055 314.440642 
L 337.959863 314.287318 
L 338.443095 301.206844 
L 338.684711 308.30305 
L 338.926327 313.08835 
L 339.047135 311.217595 
L 339.409559 302.549366 
L 339.530367 303.708225 
L 339.892791 311.689417 
L 340.013599 311.119639 
L 340.376023 303.942901 
L 340.496831 304.051748 
L 340.980063 310.621553 
L 341.221679 307.034096 
L 341.463295 304.665023 
L 341.704911 307.478302 
L 341.946527 309.941304 
L 342.067335 309.350382 
L 342.42976 305.355858 
L 342.550568 305.658076 
L 342.912992 309.272918 
L 343.0338 309.213616 
L 343.517032 305.883694 
L 344.000264 308.930794 
L 344.24188 307.475307 
L 344.483496 306.208684 
L 344.604304 306.522819 
L 344.966728 308.591429 
L 345.087536 308.430788 
L 345.44996 306.554852 
L 345.570768 306.592327 
L 346.054 308.318917 
L 346.537232 306.73986 
L 346.778848 307.502622 
L 347.020464 308.154954 
L 347.141272 307.988029 
L 347.503696 306.916896 
L 347.624504 307.004833 
L 347.986928 307.979224 
L 348.107736 307.956167 
L 348.590968 307.063681 
L 349.0742 307.883386 
L 349.315816 307.484015 
L 349.557432 307.149454 
L 349.799048 307.45603 
L 350.040664 307.794605 
L 350.161472 307.746448 
L 350.523896 307.241882 
L 350.644704 307.256194 
L 351.127936 307.718788 
L 351.611169 307.294456 
L 352.215209 307.628302 
L 352.577633 307.341233 
L 352.819249 307.459629 
L 353.060865 307.629805 
L 353.302481 307.548718 
L 353.664905 307.382282 
L 354.268945 307.563278 
L 354.631369 307.404383 
L 355.356217 307.51591 
L 355.718641 307.43375 
L 356.322681 307.528033 
L 356.805913 307.464045 
L 357.289145 307.531666 
L 357.893185 307.488269 
L 358.376417 307.509083 
L 358.859649 307.481115 
L 359.463689 307.492763 
L 360.067729 307.510413 
L 361.517426 307.48865 
L 362.967122 307.490313 
L 364.537626 307.486872 
L 367.31621 307.487355 
L 374.081459 307.465485 
L 387.007916 307.420933 
L 454.539596 307.423555 
L 454.660404 311.334761 
L 454.90202 324.603001 
L 455.022828 321.127232 
L 455.50606 291.898186 
L 455.626868 294.596076 
L 456.1101 321.272441 
L 456.351716 309.019287 
L 456.593332 295.563161 
L 456.71414 296.322825 
L 457.197372 317.714984 
L 457.680604 298.023183 
L 457.92222 307.54196 
L 458.163836 315.609824 
L 458.284644 313.517589 
L 458.647068 300.251322 
L 458.767876 301.338566 
L 459.130301 313.353359 
L 459.251109 313.065283 
L 459.734341 302.083993 
L 460.217573 312.101577 
L 460.459189 307.257373 
L 460.700805 303.174392 
L 460.821613 304.235809 
L 461.184037 310.948355 
L 461.304845 310.379431 
L 461.667269 304.329681 
L 461.788077 304.474725 
L 462.271309 309.984489 
L 462.754541 304.967691 
L 462.996157 307.401831 
L 463.237773 309.4476 
L 463.358581 308.904117 
L 463.721005 305.513983 
L 463.841813 305.801868 
L 464.204237 308.885137 
L 464.325045 308.802697 
L 464.808277 305.974047 
L 465.291509 308.5682 
L 465.533125 307.293387 
L 465.774741 306.236624 
L 465.895549 306.524105 
L 466.257973 308.280991 
L 466.378781 308.124866 
L 466.741205 306.521737 
L 466.862013 306.569017 
L 467.345245 308.032487 
L 467.828477 306.684166 
L 468.070094 307.350565 
L 468.31171 307.893243 
L 468.432518 307.739851 
L 468.794942 306.827088 
L 468.91575 306.911272 
L 469.278174 307.741831 
L 469.398982 307.713473 
L 469.882214 306.95375 
L 470.365446 307.651148 
L 470.607062 307.30104 
L 470.848678 307.020918 
L 471.090294 307.290531 
L 471.33191 307.574015 
L 471.573526 307.37463 
L 471.815142 307.09578 
L 472.056758 307.232297 
L 472.298374 307.496624 
L 472.53999 307.411888 
L 472.902414 307.14038 
L 473.506454 307.42254 
L 473.868878 307.177495 
L 474.110494 307.28248 
L 474.472918 307.415959 
L 474.95615 307.212291 
L 475.56019 307.364278 
L 475.922614 307.229223 
L 476.647462 307.322714 
L 477.009886 307.254577 
L 477.613927 307.333311 
L 478.097159 307.280994 
L 478.580391 307.336968 
L 479.184431 307.302268 
L 479.667663 307.318016 
L 480.271703 307.316265 
L 480.875743 307.29081 
L 483.291903 307.313943 
L 484.862407 307.308051 
L 488.36584 307.321908 
L 494.768664 307.339575 
L 503.225225 307.372655 
L 516.876531 307.424944 
L 517.359763 307.442339 
L 517.963803 307.42274 
L 519.413499 307.451274 
L 520.863195 307.452164 
L 522.4337 307.458947 
L 525.212284 307.462344 
L 532.098341 307.482564 
L 575.347609 307.415292 
L 575.710033 290.193707 
L 575.95165 303.057439 
L 576.314074 323.193234 
L 576.55569 310.98769 
L 576.918114 293.598508 
L 577.401346 319.79591 
L 577.522154 318.107625 
L 577.884578 297.264001 
L 578.005386 297.169426 
L 578.488618 316.886114 
L 578.730234 306.576454 
L 578.97185 299.063347 
L 579.092658 301.644733 
L 579.455082 314.81401 
L 579.57589 313.29104 
L 579.938314 301.212083 
L 580.059122 301.876138 
L 580.421546 312.686075 
L 580.542354 312.721209 
L 581.025586 302.697075 
L 581.267202 307.951633 
L 581.508818 311.740797 
L 581.629626 310.421823 
L 581.99205 303.773489 
L 582.112858 304.566259 
L 582.475282 310.638754 
L 582.59609 310.296659 
L 582.958514 304.855434 
L 583.079322 304.862834 
L 583.562554 309.881873 
L 583.80417 307.238401 
L 584.045786 305.341183 
L 584.166594 306.013486 
L 584.529018 309.376608 
L 584.649826 308.972838 
L 585.012251 305.873701 
L 585.133059 306.057419 
L 585.495483 308.851144 
L 585.616291 308.846946 
L 586.099523 306.253052 
L 586.341139 307.635545 
L 586.582755 308.613168 
L 586.703563 308.258158 
L 587.065987 306.517534 
L 587.186795 306.733867 
L 587.549219 308.342569 
L 587.670027 308.242455 
L 588.032451 306.792604 
L 588.153259 306.800571 
L 588.636491 308.146483 
L 588.878107 307.424404 
L 589.119723 306.923549 
L 589.361339 307.492187 
L 589.602955 308.014323 
L 589.723763 307.898884 
L 590.086187 307.065912 
L 590.206995 307.121554 
L 590.569419 307.875455 
L 590.690227 307.868582 
L 591.173459 307.172896 
L 591.656691 307.808785 
L 591.898307 307.510786 
L 592.139923 307.243024 
L 592.381539 307.469354 
L 592.623155 307.737913 
L 592.864771 307.575693 
L 593.106387 307.316798 
L 593.348003 307.424521 
L 593.710427 307.683446 
L 594.314468 307.407466 
L 594.676892 307.649159 
L 595.039316 307.439691 
L 595.280932 307.409256 
L 595.764164 307.60875 
L 596.247396 307.422118 
L 596.851436 307.564872 
L 597.334668 307.458468 
L 597.8179 307.564786 
L 598.42194 307.490613 
L 598.905172 307.536837 
L 599.388404 307.485014 
L 599.992444 307.514974 
L 600.475676 307.503645 
L 600.958908 307.521118 
L 601.562948 307.515663 
L 602.287796 307.489595 
L 604.945573 307.512824 
L 606.757693 307.508586 
L 633.09384 307.408328 
L 661.483723 307.344925 
L 696.155623 307.422074 
L 696.518047 324.575144 
L 696.880471 302.779462 
L 697.122087 291.769026 
L 697.363703 304.951446 
L 697.605319 320.043093 
L 697.726127 320.765254 
L 698.209359 294.967636 
L 698.330167 297.671599 
L 698.692591 317.888616 
L 698.813399 316.97032 
L 699.296631 298.396598 
L 699.779863 315.531523 
L 700.021479 306.778217 
L 700.263095 300.097919 
L 700.383903 302.211073 
L 700.746327 313.678474 
L 700.867135 312.455094 
L 701.229559 301.992465 
L 701.350367 302.470003 
L 701.8336 311.904515 
L 702.316832 303.217773 
L 702.558448 307.679499 
L 702.800064 311.022639 
L 702.920872 309.927187 
L 703.283296 304.162015 
L 703.404104 304.78473 
L 703.766528 310.056577 
L 703.887336 309.790532 
L 704.370568 305.073644 
L 704.8538 309.422514 
L 705.095416 307.165971 
L 705.337032 305.481936 
L 705.45784 306.039932 
L 705.820264 308.968142 
L 705.941072 308.638758 
L 706.303496 305.94591 
L 706.424304 306.084534 
L 706.907536 308.514276 
L 707.390768 306.255868 
L 707.632384 307.435667 
L 707.874 308.30036 
L 707.994808 308.003968 
L 708.357232 306.485282 
L 708.47804 306.66112 
L 708.840464 308.057093 
L 708.961272 307.979244 
L 709.444504 306.719228 
L 709.927736 307.887606 
L 710.169352 307.269365 
L 710.410968 306.824696 
L 710.652585 307.308039 
L 710.894201 307.76637 
L 711.015009 307.67147 
L 711.377433 306.945941 
L 711.498241 306.989139 
L 711.981473 307.639021 
L 712.464705 307.032015 
L 713.068745 307.498691 
L 713.431169 307.091164 
L 713.672785 307.282363 
L 713.914401 307.517038 
L 714.156017 307.380235 
L 714.397633 307.153465 
L 714.639249 307.242331 
L 715.001673 307.468854 
L 715.605713 307.226676 
L 715.968137 307.436659 
L 716.692985 307.286512 
L 717.055409 307.400858 
L 717.659449 307.272234 
L 718.021873 307.386271 
L 718.746721 307.307314 
L 719.109145 307.361422 
L 719.713186 307.296296 
L 720.196418 307.33731 
L 720.67965 307.291954 
L 721.28369 307.318888 
L 721.766922 307.309078 
L 722.370962 307.307912 
L 723.458234 307.303624 
L 725.995202 307.327788 
L 734.089339 307.34122 
L 816.963636 307.413625 
L 816.963636 307.413625 
" clip-path="url(#p3cc311e529)" style="fill: none; stroke: #1f77b4; stroke-width: 1.5; stroke-linecap: square"/>
   </g>
   <g id="LineCollection_2">
    <path d="M 92.236364 307.415761 
L 816.963636 307.415761 
" clip-path="url(#p3cc311e529)" style="fill: none; stroke: #ff0000; stroke-width: 1.5"/>
   </g>
   <g id="patch_9">
    <path d="M 56 390.04 
L 56 230.307232 
" style="fill: none; stroke: #000000; stroke-width: 0.8; stroke-linejoin: miter; stroke-linecap: square"/>
   </g>
   <g id="patch_10">
    <path d="M 853.2 390.04 
L 853.2 230.307232 
" style="fill: none; stroke: #000000; stroke-width: 0.8; stroke-linejoin: miter; stroke-linecap: square"/>
   </g>
   <g id="patch_11">
    <path d="M 56 390.04 
L 853.2 390.04 
" style="fill: none; stroke: #000000; stroke-width: 0.8; stroke-linejoin: miter; stroke-linecap: square"/>
   </g>
   <g id="patch_12">
    <path d="M 56 230.307232 
L 853.2 230.307232 
" style="fill: none; stroke: #000000; stroke-width: 0.8; stroke-linejoin: miter; stroke-linecap: square"/>
   </g>
   <g id="legend_2">
    <g id="patch_13">
     <path d="M 605.135938 268.019732 
L 846.2 268.019732 
Q 848.2 268.019732 848.2 266.019732 
L 848.2 237.307232 
Q 848.2 235.307232 846.2 235.307232 
L 605.135938 235.307232 
Q 603.135938 235.307232 603.135938 237.307232 
L 603.135938 266.019732 
Q 603.135938 268.019732 605.135938 268.019732 
z
" style="fill: #ffffff; opacity: 0.8; stroke: #cccccc; stroke-linejoin: miter"/>
    </g>
    <g id="line2d_29">
     <path d="M 607.135938 243.483795 
L 617.135938 243.483795 
L 627.135938 243.483795 
" style="fill: none; stroke: #1f77b4; stroke-width: 1.5; stroke-linecap: square"/>
    </g>
    <g id="text_32">
     <!-- Inverted Pendulum angular velocity θ_dot -->
     <g transform="translate(635.135938 246.983795) scale(0.1 -0.1)">
      <defs>
       <path id="DejaVuSans-5f" d="M 3263 -1063 
L 3263 -1509 
L -63 -1509 
L -63 -1063 
L 3263 -1063 
z
" transform="scale(0.015625)"/>
      </defs>
      <use xlink:href="#DejaVuSans-49"/>
      <use xlink:href="#DejaVuSans-6e" transform="translate(29.492188 0)"/>
      <use xlink:href="#DejaVuSans-76" transform="translate(92.871094 0)"/>
      <use xlink:href="#DejaVuSans-65" transform="translate(152.050781 0)"/>
      <use xlink:href="#DejaVuSans-72" transform="translate(213.574219 0)"/>
      <use xlink:href="#DejaVuSans-74" transform="translate(254.6875 0)"/>
      <use xlink:href="#DejaVuSans-65" transform="translate(293.896484 0)"/>
      <use xlink:href="#DejaVuSans-64" transform="translate(355.419922 0)"/>
      <use xlink:href="#DejaVuSans-20" transform="translate(418.896484 0)"/>
      <use xlink:href="#DejaVuSans-50" transform="translate(450.683594 0)"/>
      <use xlink:href="#DejaVuSans-65" transform="translate(507.361328 0)"/>
      <use xlink:href="#DejaVuSans-6e" transform="translate(568.884766 0)"/>
      <use xlink:href="#DejaVuSans-64" transform="translate(632.263672 0)"/>
      <use xlink:href="#DejaVuSans-75" transform="translate(695.740234 0)"/>
      <use xlink:href="#DejaVuSans-6c" transform="translate(759.119141 0)"/>
      <use xlink:href="#DejaVuSans-75" transform="translate(786.902344 0)"/>
      <use xlink:href="#DejaVuSans-6d" transform="translate(850.28125 0)"/>
      <use xlink:href="#DejaVuSans-20" transform="translate(947.693359 0)"/>
      <use xlink:href="#DejaVuSans-61" transform="translate(979.480469 0)"/>
      <use xlink:href="#DejaVuSans-6e" transform="translate(1040.759766 0)"/>
      <use xlink:href="#DejaVuSans-67" transform="translate(1104.138672 0)"/>
      <use xlink:href="#DejaVuSans-75" transform="translate(1167.615234 0)"/>
      <use xlink:href="#DejaVuSans-6c" transform="translate(1230.994141 0)"/>
      <use xlink:href="#DejaVuSans-61" transform="translate(1258.777344 0)"/>
      <use xlink:href="#DejaVuSans-72" transform="translate(1320.056641 0)"/>
      <use xlink:href="#DejaVuSans-20" transform="translate(1361.169922 0)"/>
      <use xlink:href="#DejaVuSans-76" transform="translate(1392.957031 0)"/>
      <use xlink:href="#DejaVuSans-65" transform="translate(1452.136719 0)"/>
      <use xlink:href="#DejaVuSans-6c" transform="translate(1513.660156 0)"/>
      <use xlink:href="#DejaVuSans-6f" transform="translate(1541.443359 0)"/>
      <use xlink:href="#DejaVuSans-63" transform="translate(1602.625 0)"/>
      <use xlink:href="#DejaVuSans-69" transform="translate(1657.605469 0)"/>
      <use xlink:href="#DejaVuSans-74" transform="translate(1685.388672 0)"/>
      <use xlink:href="#DejaVuSans-79" transform="translate(1724.597656 0)"/>
      <use xlink:href="#DejaVuSans-20" transform="translate(1783.777344 0)"/>
      <use xlink:href="#DejaVuSans-3b8" transform="translate(1815.564453 0)"/>
      <use xlink:href="#DejaVuSans-5f" transform="translate(1876.746094 0)"/>
      <use xlink:href="#DejaVuSans-64" transform="translate(1926.746094 0)"/>
      <use xlink:href="#DejaVuSans-6f" transform="translate(1990.222656 0)"/>
      <use xlink:href="#DejaVuSans-74" transform="translate(2051.404297 0)"/>
     </g>
    </g>
    <g id="line2d_30">
     <path d="M 607.135938 258.440045 
L 627.135938 258.440045 
" style="fill: none; stroke: #ff0000; stroke-width: 1.5"/>
    </g>
    <g id="text_33">
     <!-- target angular velocity -->
     <g transform="translate(635.135938 261.940045) scale(0.1 -0.1)">
      <use xlink:href="#DejaVuSans-74"/>
      <use xlink:href="#DejaVuSans-61" transform="translate(39.208984 0)"/>
      <use xlink:href="#DejaVuSans-72" transform="translate(100.488281 0)"/>
      <use xlink:href="#DejaVuSans-67" transform="translate(139.851562 0)"/>
      <use xlink:href="#DejaVuSans-65" transform="translate(203.328125 0)"/>
      <use xlink:href="#DejaVuSans-74" transform="translate(264.851562 0)"/>
      <use xlink:href="#DejaVuSans-20" transform="translate(304.060547 0)"/>
      <use xlink:href="#DejaVuSans-61" transform="translate(335.847656 0)"/>
      <use xlink:href="#DejaVuSans-6e" transform="translate(397.126953 0)"/>
      <use xlink:href="#DejaVuSans-67" transform="translate(460.505859 0)"/>
      <use xlink:href="#DejaVuSans-75" transform="translate(523.982422 0)"/>
      <use xlink:href="#DejaVuSans-6c" transform="translate(587.361328 0)"/>
      <use xlink:href="#DejaVuSans-61" transform="translate(615.144531 0)"/>
      <use xlink:href="#DejaVuSans-72" transform="translate(676.423828 0)"/>
      <use xlink:href="#DejaVuSans-20" transform="translate(717.537109 0)"/>
      <use xlink:href="#DejaVuSans-76" transform="translate(749.324219 0)"/>
      <use xlink:href="#DejaVuSans-65" transform="translate(808.503906 0)"/>
      <use xlink:href="#DejaVuSans-6c" transform="translate(870.027344 0)"/>
      <use xlink:href="#DejaVuSans-6f" transform="translate(897.810547 0)"/>
      <use xlink:href="#DejaVuSans-63" transform="translate(958.992188 0)"/>
      <use xlink:href="#DejaVuSans-69" transform="translate(1013.972656 0)"/>
      <use xlink:href="#DejaVuSans-74" transform="translate(1041.755859 0)"/>
      <use xlink:href="#DejaVuSans-79" transform="translate(1080.964844 0)"/>
     </g>
    </g>
   </g>
  </g>
 </g>
 <defs>
  <clipPath id="pd9329f6a03">
   <rect x="56" y="26.88" width="797.2" height="159.732768"/>
  </clipPath>
  <clipPath id="p3cc311e529">
   <rect x="56" y="230.307232" width="797.2" height="159.732768"/>
  </clipPath>
 </defs>
</svg>
