<?xml version="1.0" encoding="utf-8" standalone="no"?>
<!DOCTYPE svg PUBLIC "-//W3C//DTD SVG 1.1//EN"
  "http://www.w3.org/Graphics/SVG/1.1/DTD/svg11.dtd">
<svg xmlns:xlink="http://www.w3.org/1999/xlink" width="864pt" height="432pt" viewBox="0 0 864 432" xmlns="http://www.w3.org/2000/svg" version="1.1">
 <metadata>
  <rdf:RDF xmlns:dc="http://purl.org/dc/elements/1.1/" xmlns:cc="http://creativecommons.org/ns#" xmlns:rdf="http://www.w3.org/1999/02/22-rdf-syntax-ns#">
   <cc:Work>
    <dc:type rdf:resource="http://purl.org/dc/dcmitype/StillImage"/>
    <dc:date>2025-04-29T12:31:20.360033</dc:date>
    <dc:format>image/svg+xml</dc:format>
    <dc:creator>
     <cc:Agent>
      <dc:title>Matplotlib v3.10.1, https://matplotlib.org/</dc:title>
     </cc:Agent>
    </dc:creator>
   </cc:Work>
  </rdf:RDF>
 </metadata>
 <defs>
  <style type="text/css">*{stroke-linejoin: round; stroke-linecap: butt}</style>
 </defs>
 <g id="figure_1">
  <g id="patch_1">
   <path d="M 0 432 
L 864 432 
L 864 0 
L 0 0 
z
" style="fill: #ffffff"/>
  </g>
  <g id="axes_1">
   <g id="patch_2">
    <path d="M 56 187.48 
L 853.2 187.48 
L 853.2 26.88 
L 56 26.88 
z
" style="fill: #ffffff"/>
   </g>
   <g id="matplotlib.axis_1">
    <g id="xtick_1">
     <g id="line2d_1">
      <defs>
       <path id="mabe6d61f4c" d="M 0 0 
L 0 3.5 
" style="stroke: #000000; stroke-width: 0.8"/>
      </defs>
      <g>
       <use xlink:href="#mabe6d61f4c" x="92.236364" y="187.48" style="stroke: #000000; stroke-width: 0.8"/>
      </g>
     </g>
     <g id="text_1">
      <!-- 0 -->
      <g transform="translate(89.055114 202.078437) scale(0.1 -0.1)">
       <defs>
        <path id="DejaVuSans-30" d="M 2034 4250 
Q 1547 4250 1301 3770 
Q 1056 3291 1056 2328 
Q 1056 1369 1301 889 
Q 1547 409 2034 409 
Q 2525 409 2770 889 
Q 3016 1369 3016 2328 
Q 3016 3291 2770 3770 
Q 2525 4250 2034 4250 
z
M 2034 4750 
Q 2819 4750 3233 4129 
Q 3647 3509 3647 2328 
Q 3647 1150 3233 529 
Q 2819 -91 2034 -91 
Q 1250 -91 836 529 
Q 422 1150 422 2328 
Q 422 3509 836 4129 
Q 1250 4750 2034 4750 
z
" transform="scale(0.015625)"/>
       </defs>
       <use xlink:href="#DejaVuSans-30"/>
      </g>
     </g>
    </g>
    <g id="xtick_2">
     <g id="line2d_2">
      <g>
       <use xlink:href="#mabe6d61f4c" x="213.024242" y="187.48" style="stroke: #000000; stroke-width: 0.8"/>
      </g>
     </g>
     <g id="text_2">
      <!-- 10 -->
      <g transform="translate(206.661742 202.078437) scale(0.1 -0.1)">
       <defs>
        <path id="DejaVuSans-31" d="M 794 531 
L 1825 531 
L 1825 4091 
L 703 3866 
L 703 4441 
L 1819 4666 
L 2450 4666 
L 2450 531 
L 3481 531 
L 3481 0 
L 794 0 
L 794 531 
z
" transform="scale(0.015625)"/>
       </defs>
       <use xlink:href="#DejaVuSans-31"/>
       <use xlink:href="#DejaVuSans-30" transform="translate(63.623047 0)"/>
      </g>
     </g>
    </g>
    <g id="xtick_3">
     <g id="line2d_3">
      <g>
       <use xlink:href="#mabe6d61f4c" x="333.812121" y="187.48" style="stroke: #000000; stroke-width: 0.8"/>
      </g>
     </g>
     <g id="text_3">
      <!-- 20 -->
      <g transform="translate(327.449621 202.078437) scale(0.1 -0.1)">
       <defs>
        <path id="DejaVuSans-32" d="M 1228 531 
L 3431 531 
L 3431 0 
L 469 0 
L 469 531 
Q 828 903 1448 1529 
Q 2069 2156 2228 2338 
Q 2531 2678 2651 2914 
Q 2772 3150 2772 3378 
Q 2772 3750 2511 3984 
Q 2250 4219 1831 4219 
Q 1534 4219 1204 4116 
Q 875 4013 500 3803 
L 500 4441 
Q 881 4594 1212 4672 
Q 1544 4750 1819 4750 
Q 2544 4750 2975 4387 
Q 3406 4025 3406 3419 
Q 3406 3131 3298 2873 
Q 3191 2616 2906 2266 
Q 2828 2175 2409 1742 
Q 1991 1309 1228 531 
z
" transform="scale(0.015625)"/>
       </defs>
       <use xlink:href="#DejaVuSans-32"/>
       <use xlink:href="#DejaVuSans-30" transform="translate(63.623047 0)"/>
      </g>
     </g>
    </g>
    <g id="xtick_4">
     <g id="line2d_4">
      <g>
       <use xlink:href="#mabe6d61f4c" x="454.6" y="187.48" style="stroke: #000000; stroke-width: 0.8"/>
      </g>
     </g>
     <g id="text_4">
      <!-- 30 -->
      <g transform="translate(448.2375 202.078437) scale(0.1 -0.1)">
       <defs>
        <path id="DejaVuSans-33" d="M 2597 2516 
Q 3050 2419 3304 2112 
Q 3559 1806 3559 1356 
Q 3559 666 3084 287 
Q 2609 -91 1734 -91 
Q 1441 -91 1130 -33 
Q 819 25 488 141 
L 488 750 
Q 750 597 1062 519 
Q 1375 441 1716 441 
Q 2309 441 2620 675 
Q 2931 909 2931 1356 
Q 2931 1769 2642 2001 
Q 2353 2234 1838 2234 
L 1294 2234 
L 1294 2753 
L 1863 2753 
Q 2328 2753 2575 2939 
Q 2822 3125 2822 3475 
Q 2822 3834 2567 4026 
Q 2313 4219 1838 4219 
Q 1578 4219 1281 4162 
Q 984 4106 628 3988 
L 628 4550 
Q 988 4650 1302 4700 
Q 1616 4750 1894 4750 
Q 2613 4750 3031 4423 
Q 3450 4097 3450 3541 
Q 3450 3153 3228 2886 
Q 3006 2619 2597 2516 
z
" transform="scale(0.015625)"/>
       </defs>
       <use xlink:href="#DejaVuSans-33"/>
       <use xlink:href="#DejaVuSans-30" transform="translate(63.623047 0)"/>
      </g>
     </g>
    </g>
    <g id="xtick_5">
     <g id="line2d_5">
      <g>
       <use xlink:href="#mabe6d61f4c" x="575.387879" y="187.48" style="stroke: #000000; stroke-width: 0.8"/>
      </g>
     </g>
     <g id="text_5">
      <!-- 40 -->
      <g transform="translate(569.025379 202.078437) scale(0.1 -0.1)">
       <defs>
        <path id="DejaVuSans-34" d="M 2419 4116 
L 825 1625 
L 2419 1625 
L 2419 4116 
z
M 2253 4666 
L 3047 4666 
L 3047 1625 
L 3713 1625 
L 3713 1100 
L 3047 1100 
L 3047 0 
L 2419 0 
L 2419 1100 
L 313 1100 
L 313 1709 
L 2253 4666 
z
" transform="scale(0.015625)"/>
       </defs>
       <use xlink:href="#DejaVuSans-34"/>
       <use xlink:href="#DejaVuSans-30" transform="translate(63.623047 0)"/>
      </g>
     </g>
    </g>
    <g id="xtick_6">
     <g id="line2d_6">
      <g>
       <use xlink:href="#mabe6d61f4c" x="696.175758" y="187.48" style="stroke: #000000; stroke-width: 0.8"/>
      </g>
     </g>
     <g id="text_6">
      <!-- 50 -->
      <g transform="translate(689.813258 202.078437) scale(0.1 -0.1)">
       <defs>
        <path id="DejaVuSans-35" d="M 691 4666 
L 3169 4666 
L 3169 4134 
L 1269 4134 
L 1269 2991 
Q 1406 3038 1543 3061 
Q 1681 3084 1819 3084 
Q 2600 3084 3056 2656 
Q 3513 2228 3513 1497 
Q 3513 744 3044 326 
Q 2575 -91 1722 -91 
Q 1428 -91 1123 -41 
Q 819 9 494 109 
L 494 744 
Q 775 591 1075 516 
Q 1375 441 1709 441 
Q 2250 441 2565 725 
Q 2881 1009 2881 1497 
Q 2881 1984 2565 2268 
Q 2250 2553 1709 2553 
Q 1456 2553 1204 2497 
Q 953 2441 691 2322 
L 691 4666 
z
" transform="scale(0.015625)"/>
       </defs>
       <use xlink:href="#DejaVuSans-35"/>
       <use xlink:href="#DejaVuSans-30" transform="translate(63.623047 0)"/>
      </g>
     </g>
    </g>
    <g id="xtick_7">
     <g id="line2d_7">
      <g>
       <use xlink:href="#mabe6d61f4c" x="816.963636" y="187.48" style="stroke: #000000; stroke-width: 0.8"/>
      </g>
     </g>
     <g id="text_7">
      <!-- 60 -->
      <g transform="translate(810.601136 202.078437) scale(0.1 -0.1)">
       <defs>
        <path id="DejaVuSans-36" d="M 2113 2584 
Q 1688 2584 1439 2293 
Q 1191 2003 1191 1497 
Q 1191 994 1439 701 
Q 1688 409 2113 409 
Q 2538 409 2786 701 
Q 3034 994 3034 1497 
Q 3034 2003 2786 2293 
Q 2538 2584 2113 2584 
z
M 3366 4563 
L 3366 3988 
Q 3128 4100 2886 4159 
Q 2644 4219 2406 4219 
Q 1781 4219 1451 3797 
Q 1122 3375 1075 2522 
Q 1259 2794 1537 2939 
Q 1816 3084 2150 3084 
Q 2853 3084 3261 2657 
Q 3669 2231 3669 1497 
Q 3669 778 3244 343 
Q 2819 -91 2113 -91 
Q 1303 -91 875 529 
Q 447 1150 447 2328 
Q 447 3434 972 4092 
Q 1497 4750 2381 4750 
Q 2619 4750 2861 4703 
Q 3103 4656 3366 4563 
z
" transform="scale(0.015625)"/>
       </defs>
       <use xlink:href="#DejaVuSans-36"/>
       <use xlink:href="#DejaVuSans-30" transform="translate(63.623047 0)"/>
      </g>
     </g>
    </g>
    <g id="text_8">
     <!-- Time (s) -->
     <g transform="translate(434.271094 215.756562) scale(0.1 -0.1)">
      <defs>
       <path id="DejaVuSans-54" d="M -19 4666 
L 3928 4666 
L 3928 4134 
L 2272 4134 
L 2272 0 
L 1638 0 
L 1638 4134 
L -19 4134 
L -19 4666 
z
" transform="scale(0.015625)"/>
       <path id="DejaVuSans-69" d="M 603 3500 
L 1178 3500 
L 1178 0 
L 603 0 
L 603 3500 
z
M 603 4863 
L 1178 4863 
L 1178 4134 
L 603 4134 
L 603 4863 
z
" transform="scale(0.015625)"/>
       <path id="DejaVuSans-6d" d="M 3328 2828 
Q 3544 3216 3844 3400 
Q 4144 3584 4550 3584 
Q 5097 3584 5394 3201 
Q 5691 2819 5691 2113 
L 5691 0 
L 5113 0 
L 5113 2094 
Q 5113 2597 4934 2840 
Q 4756 3084 4391 3084 
Q 3944 3084 3684 2787 
Q 3425 2491 3425 1978 
L 3425 0 
L 2847 0 
L 2847 2094 
Q 2847 2600 2669 2842 
Q 2491 3084 2119 3084 
Q 1678 3084 1418 2786 
Q 1159 2488 1159 1978 
L 1159 0 
L 581 0 
L 581 3500 
L 1159 3500 
L 1159 2956 
Q 1356 3278 1631 3431 
Q 1906 3584 2284 3584 
Q 2666 3584 2933 3390 
Q 3200 3197 3328 2828 
z
" transform="scale(0.015625)"/>
       <path id="DejaVuSans-65" d="M 3597 1894 
L 3597 1613 
L 953 1613 
Q 991 1019 1311 708 
Q 1631 397 2203 397 
Q 2534 397 2845 478 
Q 3156 559 3463 722 
L 3463 178 
Q 3153 47 2828 -22 
Q 2503 -91 2169 -91 
Q 1331 -91 842 396 
Q 353 884 353 1716 
Q 353 2575 817 3079 
Q 1281 3584 2069 3584 
Q 2775 3584 3186 3129 
Q 3597 2675 3597 1894 
z
M 3022 2063 
Q 3016 2534 2758 2815 
Q 2500 3097 2075 3097 
Q 1594 3097 1305 2825 
Q 1016 2553 972 2059 
L 3022 2063 
z
" transform="scale(0.015625)"/>
       <path id="DejaVuSans-20" transform="scale(0.015625)"/>
       <path id="DejaVuSans-28" d="M 1984 4856 
Q 1566 4138 1362 3434 
Q 1159 2731 1159 2009 
Q 1159 1288 1364 580 
Q 1569 -128 1984 -844 
L 1484 -844 
Q 1016 -109 783 600 
Q 550 1309 550 2009 
Q 550 2706 781 3412 
Q 1013 4119 1484 4856 
L 1984 4856 
z
" transform="scale(0.015625)"/>
       <path id="DejaVuSans-73" d="M 2834 3397 
L 2834 2853 
Q 2591 2978 2328 3040 
Q 2066 3103 1784 3103 
Q 1356 3103 1142 2972 
Q 928 2841 928 2578 
Q 928 2378 1081 2264 
Q 1234 2150 1697 2047 
L 1894 2003 
Q 2506 1872 2764 1633 
Q 3022 1394 3022 966 
Q 3022 478 2636 193 
Q 2250 -91 1575 -91 
Q 1294 -91 989 -36 
Q 684 19 347 128 
L 347 722 
Q 666 556 975 473 
Q 1284 391 1588 391 
Q 1994 391 2212 530 
Q 2431 669 2431 922 
Q 2431 1156 2273 1281 
Q 2116 1406 1581 1522 
L 1381 1569 
Q 847 1681 609 1914 
Q 372 2147 372 2553 
Q 372 3047 722 3315 
Q 1072 3584 1716 3584 
Q 2034 3584 2315 3537 
Q 2597 3491 2834 3397 
z
" transform="scale(0.015625)"/>
       <path id="DejaVuSans-29" d="M 513 4856 
L 1013 4856 
Q 1481 4119 1714 3412 
Q 1947 2706 1947 2009 
Q 1947 1309 1714 600 
Q 1481 -109 1013 -844 
L 513 -844 
Q 928 -128 1133 580 
Q 1338 1288 1338 2009 
Q 1338 2731 1133 3434 
Q 928 4138 513 4856 
z
" transform="scale(0.015625)"/>
      </defs>
      <use xlink:href="#DejaVuSans-54"/>
      <use xlink:href="#DejaVuSans-69" transform="translate(57.958984 0)"/>
      <use xlink:href="#DejaVuSans-6d" transform="translate(85.742188 0)"/>
      <use xlink:href="#DejaVuSans-65" transform="translate(183.154297 0)"/>
      <use xlink:href="#DejaVuSans-20" transform="translate(244.677734 0)"/>
      <use xlink:href="#DejaVuSans-28" transform="translate(276.464844 0)"/>
      <use xlink:href="#DejaVuSans-73" transform="translate(315.478516 0)"/>
      <use xlink:href="#DejaVuSans-29" transform="translate(367.578125 0)"/>
     </g>
    </g>
   </g>
   <g id="matplotlib.axis_2">
    <g id="ytick_1">
     <g id="line2d_8">
      <defs>
       <path id="m44760fe1b6" d="M 0 0 
L -3.5 0 
" style="stroke: #000000; stroke-width: 0.8"/>
      </defs>
      <g>
       <use xlink:href="#m44760fe1b6" x="56" y="176.072434" style="stroke: #000000; stroke-width: 0.8"/>
      </g>
     </g>
     <g id="text_9">
      <!-- −0.4 -->
      <g transform="translate(24.717187 179.871653) scale(0.1 -0.1)">
       <defs>
        <path id="DejaVuSans-2212" d="M 678 2272 
L 4684 2272 
L 4684 1741 
L 678 1741 
L 678 2272 
z
" transform="scale(0.015625)"/>
        <path id="DejaVuSans-2e" d="M 684 794 
L 1344 794 
L 1344 0 
L 684 0 
L 684 794 
z
" transform="scale(0.015625)"/>
       </defs>
       <use xlink:href="#DejaVuSans-2212"/>
       <use xlink:href="#DejaVuSans-30" transform="translate(83.789062 0)"/>
       <use xlink:href="#DejaVuSans-2e" transform="translate(147.412109 0)"/>
       <use xlink:href="#DejaVuSans-34" transform="translate(179.199219 0)"/>
      </g>
     </g>
    </g>
    <g id="ytick_2">
     <g id="line2d_9">
      <g>
       <use xlink:href="#m44760fe1b6" x="56" y="145.346444" style="stroke: #000000; stroke-width: 0.8"/>
      </g>
     </g>
     <g id="text_10">
      <!-- −0.2 -->
      <g transform="translate(24.717187 149.145663) scale(0.1 -0.1)">
       <use xlink:href="#DejaVuSans-2212"/>
       <use xlink:href="#DejaVuSans-30" transform="translate(83.789062 0)"/>
       <use xlink:href="#DejaVuSans-2e" transform="translate(147.412109 0)"/>
       <use xlink:href="#DejaVuSans-32" transform="translate(179.199219 0)"/>
      </g>
     </g>
    </g>
    <g id="ytick_3">
     <g id="line2d_10">
      <g>
       <use xlink:href="#m44760fe1b6" x="56" y="114.620454" style="stroke: #000000; stroke-width: 0.8"/>
      </g>
     </g>
     <g id="text_11">
      <!-- 0.0 -->
      <g transform="translate(33.096875 118.419673) scale(0.1 -0.1)">
       <use xlink:href="#DejaVuSans-30"/>
       <use xlink:href="#DejaVuSans-2e" transform="translate(63.623047 0)"/>
       <use xlink:href="#DejaVuSans-30" transform="translate(95.410156 0)"/>
      </g>
     </g>
    </g>
    <g id="ytick_4">
     <g id="line2d_11">
      <g>
       <use xlink:href="#m44760fe1b6" x="56" y="83.894464" style="stroke: #000000; stroke-width: 0.8"/>
      </g>
     </g>
     <g id="text_12">
      <!-- 0.2 -->
      <g transform="translate(33.096875 87.693683) scale(0.1 -0.1)">
       <use xlink:href="#DejaVuSans-30"/>
       <use xlink:href="#DejaVuSans-2e" transform="translate(63.623047 0)"/>
       <use xlink:href="#DejaVuSans-32" transform="translate(95.410156 0)"/>
      </g>
     </g>
    </g>
    <g id="ytick_5">
     <g id="line2d_12">
      <g>
       <use xlink:href="#m44760fe1b6" x="56" y="53.168474" style="stroke: #000000; stroke-width: 0.8"/>
      </g>
     </g>
     <g id="text_13">
      <!-- 0.4 -->
      <g transform="translate(33.096875 56.967693) scale(0.1 -0.1)">
       <use xlink:href="#DejaVuSans-30"/>
       <use xlink:href="#DejaVuSans-2e" transform="translate(63.623047 0)"/>
       <use xlink:href="#DejaVuSans-34" transform="translate(95.410156 0)"/>
      </g>
     </g>
    </g>
    <g id="text_14">
     <!-- Angle (rad) -->
     <g transform="translate(18.6375 135.193281) rotate(-90) scale(0.1 -0.1)">
      <defs>
       <path id="DejaVuSans-41" d="M 2188 4044 
L 1331 1722 
L 3047 1722 
L 2188 4044 
z
M 1831 4666 
L 2547 4666 
L 4325 0 
L 3669 0 
L 3244 1197 
L 1141 1197 
L 716 0 
L 50 0 
L 1831 4666 
z
" transform="scale(0.015625)"/>
       <path id="DejaVuSans-6e" d="M 3513 2113 
L 3513 0 
L 2938 0 
L 2938 2094 
Q 2938 2591 2744 2837 
Q 2550 3084 2163 3084 
Q 1697 3084 1428 2787 
Q 1159 2491 1159 1978 
L 1159 0 
L 581 0 
L 581 3500 
L 1159 3500 
L 1159 2956 
Q 1366 3272 1645 3428 
Q 1925 3584 2291 3584 
Q 2894 3584 3203 3211 
Q 3513 2838 3513 2113 
z
" transform="scale(0.015625)"/>
       <path id="DejaVuSans-67" d="M 2906 1791 
Q 2906 2416 2648 2759 
Q 2391 3103 1925 3103 
Q 1463 3103 1205 2759 
Q 947 2416 947 1791 
Q 947 1169 1205 825 
Q 1463 481 1925 481 
Q 2391 481 2648 825 
Q 2906 1169 2906 1791 
z
M 3481 434 
Q 3481 -459 3084 -895 
Q 2688 -1331 1869 -1331 
Q 1566 -1331 1297 -1286 
Q 1028 -1241 775 -1147 
L 775 -588 
Q 1028 -725 1275 -790 
Q 1522 -856 1778 -856 
Q 2344 -856 2625 -561 
Q 2906 -266 2906 331 
L 2906 616 
Q 2728 306 2450 153 
Q 2172 0 1784 0 
Q 1141 0 747 490 
Q 353 981 353 1791 
Q 353 2603 747 3093 
Q 1141 3584 1784 3584 
Q 2172 3584 2450 3431 
Q 2728 3278 2906 2969 
L 2906 3500 
L 3481 3500 
L 3481 434 
z
" transform="scale(0.015625)"/>
       <path id="DejaVuSans-6c" d="M 603 4863 
L 1178 4863 
L 1178 0 
L 603 0 
L 603 4863 
z
" transform="scale(0.015625)"/>
       <path id="DejaVuSans-72" d="M 2631 2963 
Q 2534 3019 2420 3045 
Q 2306 3072 2169 3072 
Q 1681 3072 1420 2755 
Q 1159 2438 1159 1844 
L 1159 0 
L 581 0 
L 581 3500 
L 1159 3500 
L 1159 2956 
Q 1341 3275 1631 3429 
Q 1922 3584 2338 3584 
Q 2397 3584 2469 3576 
Q 2541 3569 2628 3553 
L 2631 2963 
z
" transform="scale(0.015625)"/>
       <path id="DejaVuSans-61" d="M 2194 1759 
Q 1497 1759 1228 1600 
Q 959 1441 959 1056 
Q 959 750 1161 570 
Q 1363 391 1709 391 
Q 2188 391 2477 730 
Q 2766 1069 2766 1631 
L 2766 1759 
L 2194 1759 
z
M 3341 1997 
L 3341 0 
L 2766 0 
L 2766 531 
Q 2569 213 2275 61 
Q 1981 -91 1556 -91 
Q 1019 -91 701 211 
Q 384 513 384 1019 
Q 384 1609 779 1909 
Q 1175 2209 1959 2209 
L 2766 2209 
L 2766 2266 
Q 2766 2663 2505 2880 
Q 2244 3097 1772 3097 
Q 1472 3097 1187 3025 
Q 903 2953 641 2809 
L 641 3341 
Q 956 3463 1253 3523 
Q 1550 3584 1831 3584 
Q 2591 3584 2966 3190 
Q 3341 2797 3341 1997 
z
" transform="scale(0.015625)"/>
       <path id="DejaVuSans-64" d="M 2906 2969 
L 2906 4863 
L 3481 4863 
L 3481 0 
L 2906 0 
L 2906 525 
Q 2725 213 2448 61 
Q 2172 -91 1784 -91 
Q 1150 -91 751 415 
Q 353 922 353 1747 
Q 353 2572 751 3078 
Q 1150 3584 1784 3584 
Q 2172 3584 2448 3432 
Q 2725 3281 2906 2969 
z
M 947 1747 
Q 947 1113 1208 752 
Q 1469 391 1925 391 
Q 2381 391 2643 752 
Q 2906 1113 2906 1747 
Q 2906 2381 2643 2742 
Q 2381 3103 1925 3103 
Q 1469 3103 1208 2742 
Q 947 2381 947 1747 
z
" transform="scale(0.015625)"/>
      </defs>
      <use xlink:href="#DejaVuSans-41"/>
      <use xlink:href="#DejaVuSans-6e" transform="translate(68.408203 0)"/>
      <use xlink:href="#DejaVuSans-67" transform="translate(131.787109 0)"/>
      <use xlink:href="#DejaVuSans-6c" transform="translate(195.263672 0)"/>
      <use xlink:href="#DejaVuSans-65" transform="translate(223.046875 0)"/>
      <use xlink:href="#DejaVuSans-20" transform="translate(284.570312 0)"/>
      <use xlink:href="#DejaVuSans-28" transform="translate(316.357422 0)"/>
      <use xlink:href="#DejaVuSans-72" transform="translate(355.371094 0)"/>
      <use xlink:href="#DejaVuSans-61" transform="translate(396.484375 0)"/>
      <use xlink:href="#DejaVuSans-64" transform="translate(457.763672 0)"/>
      <use xlink:href="#DejaVuSans-29" transform="translate(521.240234 0)"/>
     </g>
    </g>
   </g>
   <g id="line2d_13">
    <path d="M 92.236364 34.18 
L 92.357172 34.301142 
L 92.598788 35.266826 
L 92.961212 38.431351 
L 93.444444 45.577635 
L 94.048484 58.567056 
L 94.89414 82.345454 
L 97.3103 154.10169 
L 98.035148 168.196094 
L 98.639188 175.820851 
L 99.12242 179.174151 
L 99.484844 180.140244 
L 99.605652 180.18 
L 99.847268 179.858982 
L 100.088885 179.027719 
L 100.451309 176.732031 
L 100.934541 171.79655 
L 101.538581 163.109972 
L 102.505045 145.219875 
L 104.558781 105.577383 
L 105.283629 95.446218 
L 105.887669 89.524797 
L 106.370901 86.537514 
L 106.733325 85.30384 
L 106.974941 84.940631 
L 107.216557 84.92469 
L 107.458173 85.230417 
L 107.820597 86.237376 
L 108.183021 87.882021 
L 108.666253 91.134901 
L 109.391102 97.735731 
L 112.169686 125.177892 
L 112.773726 128.655608 
L 113.256958 130.396009 
L 113.619382 131.083376 
L 113.860998 131.251948 
L 114.102614 131.184999 
L 114.34423 130.897253 
L 114.706654 130.084304 
L 115.189886 128.367215 
L 115.914734 124.720638 
L 117.122814 117.101859 
L 118.451703 109.004628 
L 119.297359 105.146382 
L 119.901399 103.275622 
L 120.384631 102.351078 
L 120.747055 101.988195 
L 121.109479 101.895117 
L 121.471903 102.048181 
L 121.955135 102.58758 
L 122.438367 103.471688 
L 123.042407 105.068552 
L 124.008871 108.386119 
L 125.820991 114.68205 
L 126.545839 116.495098 
L 127.14988 117.523321 
L 127.633112 118.007486 
L 128.116344 118.204056 
L 128.599576 118.172321 
L 129.082808 117.936873 
L 129.686848 117.40183 
L 130.532504 116.326436 
L 133.311088 112.460506 
L 134.156744 111.785557 
L 134.881592 111.501914 
L 135.60644 111.481555 
L 136.331289 111.681728 
L 137.539369 112.302716 
L 140.559569 113.966356 
L 141.767649 114.338706 
L 143.096537 114.499411 
L 144.787849 114.451299 
L 148.41209 114.298684 
L 150.707442 114.48584 
L 156.385419 115.072266 
L 160.009659 115.068812 
L 172.090461 115.036394 
L 175.231469 114.979217 
L 178.976517 114.651066 
L 182.842374 114.386377 
L 187.433078 114.352372 
L 195.648023 114.218048 
L 198.305799 114.200735 
L 201.567616 114.436326 
L 206.037512 114.733385 
L 211.715489 114.78678 
L 213.165185 114.875237 
L 213.406801 115.307068 
L 213.769225 116.612829 
L 214.252457 119.379921 
L 214.977305 125.064176 
L 217.031042 142.24026 
L 217.635082 145.458865 
L 217.997506 146.637503 
L 218.35993 147.10669 
L 218.601546 147.021192 
L 218.843162 146.627918 
L 219.205586 145.495354 
L 219.688818 143.059315 
L 220.292858 138.752207 
L 221.259322 129.822306 
L 223.675482 106.380965 
L 224.521138 100.721185 
L 225.125178 97.961713 
L 225.60841 96.544487 
L 226.091643 95.800407 
L 226.454067 95.65099 
L 226.816491 95.812381 
L 227.178915 96.241704 
L 227.662147 97.1688 
L 228.386995 99.13642 
L 229.715883 103.63331 
L 231.044771 107.907211 
L 231.890427 109.918825 
L 232.494467 110.879285 
L 233.098507 111.41988 
L 233.581739 111.564289 
L 234.064971 111.48092 
L 234.669012 111.110882 
L 235.39386 110.376877 
L 238.41406 106.94355 
L 239.138908 106.613026 
L 239.742948 106.565351 
L 240.467796 106.762306 
L 241.192644 107.207579 
L 241.917492 107.893669 
L 243.004764 109.263979 
L 245.541733 112.596838 
L 246.508197 113.494139 
L 247.474661 114.084896 
L 248.441125 114.388781 
L 249.528397 114.468532 
L 251.340517 114.317718 
L 253.273446 114.236438 
L 254.84395 114.414771 
L 256.776878 114.897201 
L 260.038694 115.736269 
L 261.730007 115.920243 
L 263.783743 115.901185 
L 268.616063 115.538592 
L 273.206768 115.317836 
L 277.797472 115.289179 
L 280.576057 114.975379 
L 285.287569 114.416236 
L 288.549386 114.312251 
L 307.516244 114.270412 
L 311.98614 114.653116 
L 315.610381 114.84242 
L 322.979669 114.879046 
L 333.852391 114.880039 
L 334.094007 114.573768 
L 334.456431 113.433792 
L 334.939663 110.836951 
L 335.664511 105.289121 
L 337.959863 86.257932 
L 338.563903 83.347895 
L 338.926327 82.413416 
L 339.167943 82.187116 
L 339.409559 82.276274 
L 339.651175 82.671348 
L 340.013599 83.803623 
L 340.496831 86.233619 
L 341.100871 90.525033 
L 342.067335 99.416065 
L 344.483496 122.740025 
L 345.329152 128.370447 
L 345.933192 131.115857 
L 346.416424 132.526389 
L 346.899656 133.26767 
L 347.26208 133.417382 
L 347.624504 133.257953 
L 347.986928 132.831599 
L 348.47016 131.910216 
L 349.195008 129.954657 
L 350.523896 125.488352 
L 351.852785 121.252488 
L 352.698441 119.265465 
L 353.302481 118.320544 
L 353.906521 117.792665 
L 354.389753 117.65615 
L 354.872985 117.745148 
L 355.477025 118.119499 
L 356.201873 118.85562 
L 359.222073 122.279744 
L 359.946921 122.607862 
L 360.550962 122.654418 
L 361.27581 122.456742 
L 362.000658 122.011456 
L 362.725506 121.323267 
L 363.69197 120.074821 
L 366.591362 116.123575 
L 367.557826 115.27809 
L 368.403482 114.82147 
L 369.249138 114.607219 
L 370.215603 114.592238 
L 371.786107 114.836819 
L 373.719035 115.103011 
L 375.047923 115.062961 
L 376.497619 114.798608 
L 379.155396 114.015185 
L 381.088324 113.561097 
L 382.779636 113.395835 
L 384.833372 113.442817 
L 394.618821 113.972606 
L 398.122254 113.936226 
L 400.659222 114.172956 
L 406.578815 114.840333 
L 410.203055 114.907166 
L 429.411529 114.8846 
L 437.384858 114.397965 
L 454.056364 114.35633 
L 454.660404 114.413814 
L 454.90202 114.739768 
L 455.264444 115.908461 
L 455.747676 118.536569 
L 456.472524 124.112231 
L 458.647068 142.354786 
L 459.251109 145.508679 
L 459.613533 146.650175 
L 459.855149 147.024005 
L 460.096765 147.082636 
L 460.338381 146.832366 
L 460.700805 145.909596 
L 461.184037 143.738557 
L 461.788077 139.722754 
L 462.633733 132.305873 
L 465.533125 104.899136 
L 466.257973 100.436136 
L 466.862013 97.89348 
L 467.345245 96.633899 
L 467.707669 96.120524 
L 468.070094 95.94995 
L 468.432518 96.086623 
L 468.794942 96.486918 
L 469.278174 97.369942 
L 470.003022 99.26396 
L 471.33191 103.614787 
L 472.660798 107.745505 
L 473.506454 109.684582 
L 474.110494 110.610386 
L 474.714534 111.133133 
L 475.197766 111.2751 
L 475.680998 111.198657 
L 476.285038 110.848234 
L 477.009886 110.149594 
L 480.030087 106.892338 
L 480.754935 106.589338 
L 481.358975 106.557472 
L 481.963015 106.728024 
L 482.687863 107.177413 
L 483.412711 107.879613 
L 484.499983 109.293391 
L 486.916144 112.566064 
L 487.882608 113.495033 
L 488.728264 114.040074 
L 489.57392 114.344234 
L 490.540384 114.450334 
L 491.869272 114.340859 
L 494.527048 114.075089 
L 495.976745 114.19751 
L 497.668057 114.592508 
L 501.896337 115.723846 
L 503.587649 115.870647 
L 505.762194 115.810936 
L 515.426835 115.295623 
L 519.292691 115.330024 
L 521.708851 115.087526 
L 527.628444 114.379941 
L 531.131877 114.309714 
L 550.219543 114.341708 
L 557.709639 114.849902 
L 573.897913 114.968879 
L 575.468417 114.853042 
L 575.710033 114.507167 
L 576.072458 113.310183 
L 576.55569 110.649607 
L 577.280538 105.039091 
L 579.455082 86.794182 
L 580.059122 83.669791 
L 580.421546 82.594966 
L 580.663162 82.286847 
L 580.904778 82.306395 
L 581.146394 82.637228 
L 581.508818 83.680319 
L 581.99205 86.00827 
L 582.59609 90.203593 
L 583.441746 97.816363 
L 586.220331 124.302793 
L 586.945179 128.848292 
L 587.549219 131.445543 
L 588.032451 132.735878 
L 588.394875 133.264277 
L 588.757299 133.442558 
L 589.119723 133.305487 
L 589.482147 132.895198 
L 589.965379 131.986239 
L 590.690227 130.031489 
L 591.898307 125.941942 
L 593.348003 121.180821 
L 594.19366 119.120056 
L 594.7977 118.127772 
L 595.40174 117.562249 
L 595.884972 117.404253 
L 596.368204 117.479895 
L 596.972244 117.847789 
L 597.697092 118.59173 
L 600.8381 122.244197 
L 601.562948 122.562758 
L 602.166988 122.596456 
L 602.891837 122.380325 
L 603.616685 121.914148 
L 604.462341 121.071904 
L 605.791229 119.349002 
L 607.724157 116.873568 
L 608.811429 115.855887 
L 609.777893 115.263563 
L 610.744357 114.948194 
L 611.83163 114.847653 
L 613.64375 114.960509 
L 615.576678 115.009885 
L 617.147182 114.816027 
L 619.08011 114.327775 
L 622.221119 113.518708 
L 623.912431 113.32366 
L 625.966167 113.330155 
L 630.315256 113.644499 
L 634.90596 113.87838 
L 639.496665 113.84846 
L 641.912825 114.14929 
L 646.865953 114.830103 
L 649.765346 114.938537 
L 663.658267 114.960184 
L 666.799276 114.973902 
L 670.423516 114.910927 
L 675.980685 114.503998 
L 679.846541 114.389315 
L 696.155623 114.408212 
L 696.397239 114.593024 
L 696.638855 115.159277 
L 697.001279 116.644226 
L 697.484511 119.606137 
L 698.330167 126.558986 
L 700.021479 140.999265 
L 700.746327 145.15692 
L 701.229559 146.703046 
L 701.471175 147.000925 
L 701.712792 146.977926 
L 701.954408 146.650404 
L 702.316832 145.623652 
L 702.800064 143.334497 
L 703.404104 139.207629 
L 704.24976 131.708689 
L 707.028344 105.447401 
L 707.753192 100.879845 
L 708.357232 98.238708 
L 708.840464 96.898596 
L 709.323696 96.213483 
L 709.68612 96.09545 
L 710.048544 96.275892 
L 710.410968 96.713014 
L 710.894201 97.634468 
L 711.619049 99.562443 
L 713.068745 104.311101 
L 714.276825 107.9674 
L 715.122481 109.839048 
L 715.726521 110.714129 
L 716.330561 111.188976 
L 716.813793 111.296906 
L 717.297025 111.191863 
L 717.901065 110.813494 
L 718.746721 109.955301 
L 721.28369 107.12032 
L 722.008538 106.703547 
L 722.612578 106.571677 
L 723.216618 106.639597 
L 723.941466 106.968759 
L 724.666314 107.54321 
L 725.51197 108.534461 
L 726.961666 110.676028 
L 728.532171 112.856898 
L 729.498635 113.831587 
L 730.344291 114.385424 
L 731.189947 114.668086 
L 732.035603 114.724808 
L 733.243683 114.555195 
L 736.263883 114.011624 
L 737.592772 114.076994 
L 739.042468 114.381993 
L 744.237212 115.730184 
L 745.928524 115.791141 
L 748.586301 115.621472 
L 753.660237 115.281784 
L 758.130134 115.223216 
L 761.512758 115.223099 
L 764.291342 114.969023 
L 769.727703 114.411246 
L 773.472752 114.340852 
L 792.197994 114.374707 
L 798.721626 114.819142 
L 806.574147 114.857801 
L 816.963636 114.880135 
L 816.963636 114.880135 
" clip-path="url(#p0a18d06404)" style="fill: none; stroke: #1f77b4; stroke-width: 1.5; stroke-linecap: square"/>
   </g>
   <g id="LineCollection_1">
    <path d="M 92.236364 114.620454 
L 816.963636 114.620454 
" clip-path="url(#p0a18d06404)" style="fill: none; stroke: #ff0000; stroke-width: 1.5"/>
   </g>
   <g id="patch_3">
    <path d="M 56 187.48 
L 56 26.88 
" style="fill: none; stroke: #000000; stroke-width: 0.8; stroke-linejoin: miter; stroke-linecap: square"/>
   </g>
   <g id="patch_4">
    <path d="M 853.2 187.48 
L 853.2 26.88 
" style="fill: none; stroke: #000000; stroke-width: 0.8; stroke-linejoin: miter; stroke-linecap: square"/>
   </g>
   <g id="patch_5">
    <path d="M 56 187.48 
L 853.2 187.48 
" style="fill: none; stroke: #000000; stroke-width: 0.8; stroke-linejoin: miter; stroke-linecap: square"/>
   </g>
   <g id="patch_6">
    <path d="M 56 26.88 
L 853.2 26.88 
" style="fill: none; stroke: #000000; stroke-width: 0.8; stroke-linejoin: miter; stroke-linecap: square"/>
   </g>
   <g id="text_15">
    <!-- Inverted Pendulum on a Cart : System States -->
    <g transform="translate(319.057188 20.88) scale(0.12 -0.12)">
     <defs>
      <path id="DejaVuSans-49" d="M 628 4666 
L 1259 4666 
L 1259 0 
L 628 0 
L 628 4666 
z
" transform="scale(0.015625)"/>
      <path id="DejaVuSans-76" d="M 191 3500 
L 800 3500 
L 1894 563 
L 2988 3500 
L 3597 3500 
L 2284 0 
L 1503 0 
L 191 3500 
z
" transform="scale(0.015625)"/>
      <path id="DejaVuSans-74" d="M 1172 4494 
L 1172 3500 
L 2356 3500 
L 2356 3053 
L 1172 3053 
L 1172 1153 
Q 1172 725 1289 603 
Q 1406 481 1766 481 
L 2356 481 
L 2356 0 
L 1766 0 
Q 1100 0 847 248 
Q 594 497 594 1153 
L 594 3053 
L 172 3053 
L 172 3500 
L 594 3500 
L 594 4494 
L 1172 4494 
z
" transform="scale(0.015625)"/>
      <path id="DejaVuSans-50" d="M 1259 4147 
L 1259 2394 
L 2053 2394 
Q 2494 2394 2734 2622 
Q 2975 2850 2975 3272 
Q 2975 3691 2734 3919 
Q 2494 4147 2053 4147 
L 1259 4147 
z
M 628 4666 
L 2053 4666 
Q 2838 4666 3239 4311 
Q 3641 3956 3641 3272 
Q 3641 2581 3239 2228 
Q 2838 1875 2053 1875 
L 1259 1875 
L 1259 0 
L 628 0 
L 628 4666 
z
" transform="scale(0.015625)"/>
      <path id="DejaVuSans-75" d="M 544 1381 
L 544 3500 
L 1119 3500 
L 1119 1403 
Q 1119 906 1312 657 
Q 1506 409 1894 409 
Q 2359 409 2629 706 
Q 2900 1003 2900 1516 
L 2900 3500 
L 3475 3500 
L 3475 0 
L 2900 0 
L 2900 538 
Q 2691 219 2414 64 
Q 2138 -91 1772 -91 
Q 1169 -91 856 284 
Q 544 659 544 1381 
z
M 1991 3584 
L 1991 3584 
z
" transform="scale(0.015625)"/>
      <path id="DejaVuSans-6f" d="M 1959 3097 
Q 1497 3097 1228 2736 
Q 959 2375 959 1747 
Q 959 1119 1226 758 
Q 1494 397 1959 397 
Q 2419 397 2687 759 
Q 2956 1122 2956 1747 
Q 2956 2369 2687 2733 
Q 2419 3097 1959 3097 
z
M 1959 3584 
Q 2709 3584 3137 3096 
Q 3566 2609 3566 1747 
Q 3566 888 3137 398 
Q 2709 -91 1959 -91 
Q 1206 -91 779 398 
Q 353 888 353 1747 
Q 353 2609 779 3096 
Q 1206 3584 1959 3584 
z
" transform="scale(0.015625)"/>
      <path id="DejaVuSans-43" d="M 4122 4306 
L 4122 3641 
Q 3803 3938 3442 4084 
Q 3081 4231 2675 4231 
Q 1875 4231 1450 3742 
Q 1025 3253 1025 2328 
Q 1025 1406 1450 917 
Q 1875 428 2675 428 
Q 3081 428 3442 575 
Q 3803 722 4122 1019 
L 4122 359 
Q 3791 134 3420 21 
Q 3050 -91 2638 -91 
Q 1578 -91 968 557 
Q 359 1206 359 2328 
Q 359 3453 968 4101 
Q 1578 4750 2638 4750 
Q 3056 4750 3426 4639 
Q 3797 4528 4122 4306 
z
" transform="scale(0.015625)"/>
      <path id="DejaVuSans-3a" d="M 750 794 
L 1409 794 
L 1409 0 
L 750 0 
L 750 794 
z
M 750 3309 
L 1409 3309 
L 1409 2516 
L 750 2516 
L 750 3309 
z
" transform="scale(0.015625)"/>
      <path id="DejaVuSans-53" d="M 3425 4513 
L 3425 3897 
Q 3066 4069 2747 4153 
Q 2428 4238 2131 4238 
Q 1616 4238 1336 4038 
Q 1056 3838 1056 3469 
Q 1056 3159 1242 3001 
Q 1428 2844 1947 2747 
L 2328 2669 
Q 3034 2534 3370 2195 
Q 3706 1856 3706 1288 
Q 3706 609 3251 259 
Q 2797 -91 1919 -91 
Q 1588 -91 1214 -16 
Q 841 59 441 206 
L 441 856 
Q 825 641 1194 531 
Q 1563 422 1919 422 
Q 2459 422 2753 634 
Q 3047 847 3047 1241 
Q 3047 1584 2836 1778 
Q 2625 1972 2144 2069 
L 1759 2144 
Q 1053 2284 737 2584 
Q 422 2884 422 3419 
Q 422 4038 858 4394 
Q 1294 4750 2059 4750 
Q 2388 4750 2728 4690 
Q 3069 4631 3425 4513 
z
" transform="scale(0.015625)"/>
      <path id="DejaVuSans-79" d="M 2059 -325 
Q 1816 -950 1584 -1140 
Q 1353 -1331 966 -1331 
L 506 -1331 
L 506 -850 
L 844 -850 
Q 1081 -850 1212 -737 
Q 1344 -625 1503 -206 
L 1606 56 
L 191 3500 
L 800 3500 
L 1894 763 
L 2988 3500 
L 3597 3500 
L 2059 -325 
z
" transform="scale(0.015625)"/>
     </defs>
     <use xlink:href="#DejaVuSans-49"/>
     <use xlink:href="#DejaVuSans-6e" transform="translate(29.492188 0)"/>
     <use xlink:href="#DejaVuSans-76" transform="translate(92.871094 0)"/>
     <use xlink:href="#DejaVuSans-65" transform="translate(152.050781 0)"/>
     <use xlink:href="#DejaVuSans-72" transform="translate(213.574219 0)"/>
     <use xlink:href="#DejaVuSans-74" transform="translate(254.6875 0)"/>
     <use xlink:href="#DejaVuSans-65" transform="translate(293.896484 0)"/>
     <use xlink:href="#DejaVuSans-64" transform="translate(355.419922 0)"/>
     <use xlink:href="#DejaVuSans-20" transform="translate(418.896484 0)"/>
     <use xlink:href="#DejaVuSans-50" transform="translate(450.683594 0)"/>
     <use xlink:href="#DejaVuSans-65" transform="translate(507.361328 0)"/>
     <use xlink:href="#DejaVuSans-6e" transform="translate(568.884766 0)"/>
     <use xlink:href="#DejaVuSans-64" transform="translate(632.263672 0)"/>
     <use xlink:href="#DejaVuSans-75" transform="translate(695.740234 0)"/>
     <use xlink:href="#DejaVuSans-6c" transform="translate(759.119141 0)"/>
     <use xlink:href="#DejaVuSans-75" transform="translate(786.902344 0)"/>
     <use xlink:href="#DejaVuSans-6d" transform="translate(850.28125 0)"/>
     <use xlink:href="#DejaVuSans-20" transform="translate(947.693359 0)"/>
     <use xlink:href="#DejaVuSans-6f" transform="translate(979.480469 0)"/>
     <use xlink:href="#DejaVuSans-6e" transform="translate(1040.662109 0)"/>
     <use xlink:href="#DejaVuSans-20" transform="translate(1104.041016 0)"/>
     <use xlink:href="#DejaVuSans-61" transform="translate(1135.828125 0)"/>
     <use xlink:href="#DejaVuSans-20" transform="translate(1197.107422 0)"/>
     <use xlink:href="#DejaVuSans-43" transform="translate(1228.894531 0)"/>
     <use xlink:href="#DejaVuSans-61" transform="translate(1298.71875 0)"/>
     <use xlink:href="#DejaVuSans-72" transform="translate(1359.998047 0)"/>
     <use xlink:href="#DejaVuSans-74" transform="translate(1401.111328 0)"/>
     <use xlink:href="#DejaVuSans-20" transform="translate(1440.320312 0)"/>
     <use xlink:href="#DejaVuSans-3a" transform="translate(1472.107422 0)"/>
     <use xlink:href="#DejaVuSans-20" transform="translate(1505.798828 0)"/>
     <use xlink:href="#DejaVuSans-53" transform="translate(1537.585938 0)"/>
     <use xlink:href="#DejaVuSans-79" transform="translate(1601.0625 0)"/>
     <use xlink:href="#DejaVuSans-73" transform="translate(1660.242188 0)"/>
     <use xlink:href="#DejaVuSans-74" transform="translate(1712.341797 0)"/>
     <use xlink:href="#DejaVuSans-65" transform="translate(1751.550781 0)"/>
     <use xlink:href="#DejaVuSans-6d" transform="translate(1813.074219 0)"/>
     <use xlink:href="#DejaVuSans-20" transform="translate(1910.486328 0)"/>
     <use xlink:href="#DejaVuSans-53" transform="translate(1942.273438 0)"/>
     <use xlink:href="#DejaVuSans-74" transform="translate(2005.75 0)"/>
     <use xlink:href="#DejaVuSans-61" transform="translate(2044.958984 0)"/>
     <use xlink:href="#DejaVuSans-74" transform="translate(2106.238281 0)"/>
     <use xlink:href="#DejaVuSans-65" transform="translate(2145.447266 0)"/>
     <use xlink:href="#DejaVuSans-73" transform="translate(2206.970703 0)"/>
    </g>
   </g>
   <g id="legend_1">
    <g id="patch_7">
     <path d="M 679.209375 64.314375 
L 846.2 64.314375 
Q 848.2 64.314375 848.2 62.314375 
L 848.2 33.88 
Q 848.2 31.88 846.2 31.88 
L 679.209375 31.88 
Q 677.209375 31.88 677.209375 33.88 
L 677.209375 62.314375 
Q 677.209375 64.314375 679.209375 64.314375 
z
" style="fill: #ffffff; opacity: 0.8; stroke: #cccccc; stroke-linejoin: miter"/>
    </g>
    <g id="line2d_14">
     <path d="M 681.209375 40.056562 
L 691.209375 40.056562 
L 701.209375 40.056562 
" style="fill: none; stroke: #1f77b4; stroke-width: 1.5; stroke-linecap: square"/>
    </g>
    <g id="text_16">
     <!-- Inverted Pendulum angle θ -->
     <g transform="translate(709.209375 43.556562) scale(0.1 -0.1)">
      <defs>
       <path id="DejaVuSans-3b8" d="M 2953 2219 
L 963 2219 
Q 1009 1284 1225 888 
Q 1494 400 1959 400 
Q 2428 400 2688 891 
Q 2916 1322 2953 2219 
z
M 2944 2750 
Q 2856 3638 2688 3950 
Q 2419 4444 1959 4444 
Q 1481 4444 1228 3956 
Q 1028 3563 969 2750 
L 2944 2750 
z
M 1959 4913 
Q 2709 4913 3138 4250 
Q 3566 3591 3566 2422 
Q 3566 1256 3138 594 
Q 2709 -72 1959 -72 
Q 1206 -72 781 594 
Q 353 1256 353 2422 
Q 353 3591 781 4250 
Q 1206 4913 1959 4913 
z
" transform="scale(0.015625)"/>
      </defs>
      <use xlink:href="#DejaVuSans-49"/>
      <use xlink:href="#DejaVuSans-6e" transform="translate(29.492188 0)"/>
      <use xlink:href="#DejaVuSans-76" transform="translate(92.871094 0)"/>
      <use xlink:href="#DejaVuSans-65" transform="translate(152.050781 0)"/>
      <use xlink:href="#DejaVuSans-72" transform="translate(213.574219 0)"/>
      <use xlink:href="#DejaVuSans-74" transform="translate(254.6875 0)"/>
      <use xlink:href="#DejaVuSans-65" transform="translate(293.896484 0)"/>
      <use xlink:href="#DejaVuSans-64" transform="translate(355.419922 0)"/>
      <use xlink:href="#DejaVuSans-20" transform="translate(418.896484 0)"/>
      <use xlink:href="#DejaVuSans-50" transform="translate(450.683594 0)"/>
      <use xlink:href="#DejaVuSans-65" transform="translate(507.361328 0)"/>
      <use xlink:href="#DejaVuSans-6e" transform="translate(568.884766 0)"/>
      <use xlink:href="#DejaVuSans-64" transform="translate(632.263672 0)"/>
      <use xlink:href="#DejaVuSans-75" transform="translate(695.740234 0)"/>
      <use xlink:href="#DejaVuSans-6c" transform="translate(759.119141 0)"/>
      <use xlink:href="#DejaVuSans-75" transform="translate(786.902344 0)"/>
      <use xlink:href="#DejaVuSans-6d" transform="translate(850.28125 0)"/>
      <use xlink:href="#DejaVuSans-20" transform="translate(947.693359 0)"/>
      <use xlink:href="#DejaVuSans-61" transform="translate(979.480469 0)"/>
      <use xlink:href="#DejaVuSans-6e" transform="translate(1040.759766 0)"/>
      <use xlink:href="#DejaVuSans-67" transform="translate(1104.138672 0)"/>
      <use xlink:href="#DejaVuSans-6c" transform="translate(1167.615234 0)"/>
      <use xlink:href="#DejaVuSans-65" transform="translate(1195.398438 0)"/>
      <use xlink:href="#DejaVuSans-20" transform="translate(1256.921875 0)"/>
      <use xlink:href="#DejaVuSans-3b8" transform="translate(1288.708984 0)"/>
     </g>
    </g>
    <g id="line2d_15">
     <path d="M 681.209375 54.734688 
L 701.209375 54.734688 
" style="fill: none; stroke: #ff0000; stroke-width: 1.5"/>
    </g>
    <g id="text_17">
     <!-- Target angle -->
     <g transform="translate(709.209375 58.234688) scale(0.1 -0.1)">
      <use xlink:href="#DejaVuSans-54"/>
      <use xlink:href="#DejaVuSans-61" transform="translate(44.583984 0)"/>
      <use xlink:href="#DejaVuSans-72" transform="translate(105.863281 0)"/>
      <use xlink:href="#DejaVuSans-67" transform="translate(145.226562 0)"/>
      <use xlink:href="#DejaVuSans-65" transform="translate(208.703125 0)"/>
      <use xlink:href="#DejaVuSans-74" transform="translate(270.226562 0)"/>
      <use xlink:href="#DejaVuSans-20" transform="translate(309.435547 0)"/>
      <use xlink:href="#DejaVuSans-61" transform="translate(341.222656 0)"/>
      <use xlink:href="#DejaVuSans-6e" transform="translate(402.501953 0)"/>
      <use xlink:href="#DejaVuSans-67" transform="translate(465.880859 0)"/>
      <use xlink:href="#DejaVuSans-6c" transform="translate(529.357422 0)"/>
      <use xlink:href="#DejaVuSans-65" transform="translate(557.140625 0)"/>
     </g>
    </g>
   </g>
  </g>
  <g id="axes_2">
   <g id="patch_8">
    <path d="M 56 390.04 
L 853.2 390.04 
L 853.2 229.44 
L 56 229.44 
z
" style="fill: #ffffff"/>
   </g>
   <g id="matplotlib.axis_3">
    <g id="xtick_8">
     <g id="line2d_16">
      <g>
       <use xlink:href="#mabe6d61f4c" x="92.236364" y="390.04" style="stroke: #000000; stroke-width: 0.8"/>
      </g>
     </g>
     <g id="text_18">
      <!-- 0 -->
      <g transform="translate(89.055114 404.638437) scale(0.1 -0.1)">
       <use xlink:href="#DejaVuSans-30"/>
      </g>
     </g>
    </g>
    <g id="xtick_9">
     <g id="line2d_17">
      <g>
       <use xlink:href="#mabe6d61f4c" x="213.024242" y="390.04" style="stroke: #000000; stroke-width: 0.8"/>
      </g>
     </g>
     <g id="text_19">
      <!-- 10 -->
      <g transform="translate(206.661742 404.638437) scale(0.1 -0.1)">
       <use xlink:href="#DejaVuSans-31"/>
       <use xlink:href="#DejaVuSans-30" transform="translate(63.623047 0)"/>
      </g>
     </g>
    </g>
    <g id="xtick_10">
     <g id="line2d_18">
      <g>
       <use xlink:href="#mabe6d61f4c" x="333.812121" y="390.04" style="stroke: #000000; stroke-width: 0.8"/>
      </g>
     </g>
     <g id="text_20">
      <!-- 20 -->
      <g transform="translate(327.449621 404.638437) scale(0.1 -0.1)">
       <use xlink:href="#DejaVuSans-32"/>
       <use xlink:href="#DejaVuSans-30" transform="translate(63.623047 0)"/>
      </g>
     </g>
    </g>
    <g id="xtick_11">
     <g id="line2d_19">
      <g>
       <use xlink:href="#mabe6d61f4c" x="454.6" y="390.04" style="stroke: #000000; stroke-width: 0.8"/>
      </g>
     </g>
     <g id="text_21">
      <!-- 30 -->
      <g transform="translate(448.2375 404.638437) scale(0.1 -0.1)">
       <use xlink:href="#DejaVuSans-33"/>
       <use xlink:href="#DejaVuSans-30" transform="translate(63.623047 0)"/>
      </g>
     </g>
    </g>
    <g id="xtick_12">
     <g id="line2d_20">
      <g>
       <use xlink:href="#mabe6d61f4c" x="575.387879" y="390.04" style="stroke: #000000; stroke-width: 0.8"/>
      </g>
     </g>
     <g id="text_22">
      <!-- 40 -->
      <g transform="translate(569.025379 404.638437) scale(0.1 -0.1)">
       <use xlink:href="#DejaVuSans-34"/>
       <use xlink:href="#DejaVuSans-30" transform="translate(63.623047 0)"/>
      </g>
     </g>
    </g>
    <g id="xtick_13">
     <g id="line2d_21">
      <g>
       <use xlink:href="#mabe6d61f4c" x="696.175758" y="390.04" style="stroke: #000000; stroke-width: 0.8"/>
      </g>
     </g>
     <g id="text_23">
      <!-- 50 -->
      <g transform="translate(689.813258 404.638437) scale(0.1 -0.1)">
       <use xlink:href="#DejaVuSans-35"/>
       <use xlink:href="#DejaVuSans-30" transform="translate(63.623047 0)"/>
      </g>
     </g>
    </g>
    <g id="xtick_14">
     <g id="line2d_22">
      <g>
       <use xlink:href="#mabe6d61f4c" x="816.963636" y="390.04" style="stroke: #000000; stroke-width: 0.8"/>
      </g>
     </g>
     <g id="text_24">
      <!-- 60 -->
      <g transform="translate(810.601136 404.638437) scale(0.1 -0.1)">
       <use xlink:href="#DejaVuSans-36"/>
       <use xlink:href="#DejaVuSans-30" transform="translate(63.623047 0)"/>
      </g>
     </g>
    </g>
    <g id="text_25">
     <!-- Time (s) -->
     <g transform="translate(434.271094 418.316562) scale(0.1 -0.1)">
      <use xlink:href="#DejaVuSans-54"/>
      <use xlink:href="#DejaVuSans-69" transform="translate(57.958984 0)"/>
      <use xlink:href="#DejaVuSans-6d" transform="translate(85.742188 0)"/>
      <use xlink:href="#DejaVuSans-65" transform="translate(183.154297 0)"/>
      <use xlink:href="#DejaVuSans-20" transform="translate(244.677734 0)"/>
      <use xlink:href="#DejaVuSans-28" transform="translate(276.464844 0)"/>
      <use xlink:href="#DejaVuSans-73" transform="translate(315.478516 0)"/>
      <use xlink:href="#DejaVuSans-29" transform="translate(367.578125 0)"/>
     </g>
    </g>
   </g>
   <g id="matplotlib.axis_4">
    <g id="ytick_6">
     <g id="line2d_23">
      <g>
       <use xlink:href="#m44760fe1b6" x="56" y="364.31244" style="stroke: #000000; stroke-width: 0.8"/>
      </g>
     </g>
     <g id="text_26">
      <!-- −2 -->
      <g transform="translate(34.257812 368.111659) scale(0.1 -0.1)">
       <use xlink:href="#DejaVuSans-2212"/>
       <use xlink:href="#DejaVuSans-32" transform="translate(83.789062 0)"/>
      </g>
     </g>
    </g>
    <g id="ytick_7">
     <g id="line2d_24">
      <g>
       <use xlink:href="#m44760fe1b6" x="56" y="329.060516" style="stroke: #000000; stroke-width: 0.8"/>
      </g>
     </g>
     <g id="text_27">
      <!-- −1 -->
      <g transform="translate(34.257812 332.859735) scale(0.1 -0.1)">
       <use xlink:href="#DejaVuSans-2212"/>
       <use xlink:href="#DejaVuSans-31" transform="translate(83.789062 0)"/>
      </g>
     </g>
    </g>
    <g id="ytick_8">
     <g id="line2d_25">
      <g>
       <use xlink:href="#m44760fe1b6" x="56" y="293.808592" style="stroke: #000000; stroke-width: 0.8"/>
      </g>
     </g>
     <g id="text_28">
      <!-- 0 -->
      <g transform="translate(42.6375 297.607811) scale(0.1 -0.1)">
       <use xlink:href="#DejaVuSans-30"/>
      </g>
     </g>
    </g>
    <g id="ytick_9">
     <g id="line2d_26">
      <g>
       <use xlink:href="#m44760fe1b6" x="56" y="258.556668" style="stroke: #000000; stroke-width: 0.8"/>
      </g>
     </g>
     <g id="text_29">
      <!-- 1 -->
      <g transform="translate(42.6375 262.355887) scale(0.1 -0.1)">
       <use xlink:href="#DejaVuSans-31"/>
      </g>
     </g>
    </g>
    <g id="text_30">
     <!-- Angular velocity (rad/s) -->
     <g transform="translate(28.178125 368.385312) rotate(-90) scale(0.1 -0.1)">
      <defs>
       <path id="DejaVuSans-63" d="M 3122 3366 
L 3122 2828 
Q 2878 2963 2633 3030 
Q 2388 3097 2138 3097 
Q 1578 3097 1268 2742 
Q 959 2388 959 1747 
Q 959 1106 1268 751 
Q 1578 397 2138 397 
Q 2388 397 2633 464 
Q 2878 531 3122 666 
L 3122 134 
Q 2881 22 2623 -34 
Q 2366 -91 2075 -91 
Q 1284 -91 818 406 
Q 353 903 353 1747 
Q 353 2603 823 3093 
Q 1294 3584 2113 3584 
Q 2378 3584 2631 3529 
Q 2884 3475 3122 3366 
z
" transform="scale(0.015625)"/>
       <path id="DejaVuSans-2f" d="M 1625 4666 
L 2156 4666 
L 531 -594 
L 0 -594 
L 1625 4666 
z
" transform="scale(0.015625)"/>
      </defs>
      <use xlink:href="#DejaVuSans-41"/>
      <use xlink:href="#DejaVuSans-6e" transform="translate(68.408203 0)"/>
      <use xlink:href="#DejaVuSans-67" transform="translate(131.787109 0)"/>
      <use xlink:href="#DejaVuSans-75" transform="translate(195.263672 0)"/>
      <use xlink:href="#DejaVuSans-6c" transform="translate(258.642578 0)"/>
      <use xlink:href="#DejaVuSans-61" transform="translate(286.425781 0)"/>
      <use xlink:href="#DejaVuSans-72" transform="translate(347.705078 0)"/>
      <use xlink:href="#DejaVuSans-20" transform="translate(388.818359 0)"/>
      <use xlink:href="#DejaVuSans-76" transform="translate(420.605469 0)"/>
      <use xlink:href="#DejaVuSans-65" transform="translate(479.785156 0)"/>
      <use xlink:href="#DejaVuSans-6c" transform="translate(541.308594 0)"/>
      <use xlink:href="#DejaVuSans-6f" transform="translate(569.091797 0)"/>
      <use xlink:href="#DejaVuSans-63" transform="translate(630.273438 0)"/>
      <use xlink:href="#DejaVuSans-69" transform="translate(685.253906 0)"/>
      <use xlink:href="#DejaVuSans-74" transform="translate(713.037109 0)"/>
      <use xlink:href="#DejaVuSans-79" transform="translate(752.246094 0)"/>
      <use xlink:href="#DejaVuSans-20" transform="translate(811.425781 0)"/>
      <use xlink:href="#DejaVuSans-28" transform="translate(843.212891 0)"/>
      <use xlink:href="#DejaVuSans-72" transform="translate(882.226562 0)"/>
      <use xlink:href="#DejaVuSans-61" transform="translate(923.339844 0)"/>
      <use xlink:href="#DejaVuSans-64" transform="translate(984.619141 0)"/>
      <use xlink:href="#DejaVuSans-2f" transform="translate(1048.095703 0)"/>
      <use xlink:href="#DejaVuSans-73" transform="translate(1081.787109 0)"/>
      <use xlink:href="#DejaVuSans-29" transform="translate(1133.886719 0)"/>
     </g>
    </g>
   </g>
   <g id="line2d_27">
    <path d="M 92.236364 293.808592 
L 93.323636 339.534342 
L 94.2901 368.510618 
L 94.652524 375.304737 
L 95.256564 382.504779 
L 95.377372 382.653467 
L 95.49818 382.600247 
L 95.739796 382.74 
L 95.860604 382.419545 
L 96.10222 380.338232 
L 96.827068 368.918358 
L 98.035148 337.630172 
L 99.364036 299.526737 
L 101.055349 257.302993 
L 101.780197 245.056422 
L 102.263429 239.659803 
L 102.625853 237.876688 
L 102.988277 236.74 
L 103.109085 236.75534 
L 103.350701 237.586939 
L 103.954741 241.807348 
L 104.317165 246.053984 
L 105.525245 265.389953 
L 107.216557 295.515581 
L 108.545445 314.117897 
L 109.270294 321.177376 
L 109.632718 323.005446 
L 110.11595 324.268892 
L 110.357566 324.26026 
L 110.599182 323.780993 
L 110.961606 322.305066 
L 111.444838 319.220198 
L 112.169686 312.884973 
L 113.377766 299.722522 
L 114.827462 284.873356 
L 115.55231 279.743562 
L 116.277158 276.63981 
L 116.881198 275.585546 
L 117.122814 275.720841 
L 117.606046 276.195033 
L 118.210087 278.013323 
L 118.934935 281.389765 
L 121.471903 295.830856 
L 122.679983 300.929716 
L 123.284023 302.886465 
L 123.646447 303.637731 
L 124.008871 303.990274 
L 124.250487 304.142755 
L 124.492103 304.060904 
L 125.096143 303.454534 
L 125.579375 302.458061 
L 126.425031 299.96187 
L 128.720384 292.734974 
L 129.56604 291.020908 
L 130.411696 289.97052 
L 130.894928 289.630667 
L 131.619776 289.578689 
L 132.344624 289.970255 
L 133.431896 291.169202 
L 136.452097 295.024925 
L 137.297753 295.370811 
L 138.264217 295.506866 
L 139.109873 295.398236 
L 140.559569 294.925631 
L 142.734113 294.029761 
L 143.942193 293.714255 
L 145.271082 293.592791 
L 146.720778 293.673224 
L 152.761178 294.173674 
L 156.627035 293.87491 
L 159.405619 293.775716 
L 170.640764 293.867877 
L 172.452885 293.838509 
L 179.097325 293.54197 
L 189.366006 293.795701 
L 193.835903 293.705431 
L 195.285599 293.657854 
L 197.580951 293.848178 
L 201.084384 294.057499 
L 205.433472 293.920214 
L 209.420137 293.817376 
L 212.923569 293.846973 
L 213.044377 294.251639 
L 213.769225 306.541846 
L 214.373265 313.743255 
L 214.856497 317.339718 
L 215.218921 318.659186 
L 215.460537 318.912848 
L 215.702153 318.842331 
L 215.943769 318.422983 
L 216.185385 317.440695 
L 216.789426 313.484074 
L 217.272658 309.22267 
L 217.75589 303.732184 
L 219.56801 278.414014 
L 220.413666 270.267368 
L 221.017706 266.700799 
L 221.621746 265.067303 
L 221.863362 265.08809 
L 221.98417 264.953185 
L 222.104978 265.000406 
L 222.709018 266.587384 
L 223.79629 272.859277 
L 225.970835 290.463863 
L 226.816491 296.110952 
L 227.541339 299.660645 
L 228.145379 301.765348 
L 228.749419 303.0261 
L 229.353459 303.513366 
L 229.595075 303.543546 
L 229.957499 303.319283 
L 230.440731 302.698181 
L 231.044771 301.55707 
L 231.769619 299.533194 
L 232.736083 296.460391 
L 234.185779 292.473915 
L 234.910628 291.145259 
L 235.39386 290.554396 
L 235.877092 290.223847 
L 236.481132 290.178026 
L 237.326788 290.644936 
L 238.534868 292.163375 
L 240.588604 295.203745 
L 242.279916 297.207998 
L 243.125572 297.6548 
L 243.850421 297.697749 
L 244.454461 297.488209 
L 245.420925 296.877975 
L 246.387389 296.068026 
L 247.957893 294.669484 
L 249.045165 293.965898 
L 250.011629 293.617953 
L 251.098901 293.514576 
L 252.186173 293.651093 
L 254.602334 294.268115 
L 256.414454 294.586116 
L 257.380918 294.630048 
L 259.193038 294.441543 
L 261.246774 294.033759 
L 263.421319 293.698406 
L 266.320711 293.579712 
L 272.361112 293.762206 
L 273.931616 293.8792 
L 275.864544 293.790035 
L 281.663329 293.414543 
L 284.079489 293.532081 
L 287.462113 293.753317 
L 290.482314 293.78785 
L 298.214027 293.811056 
L 306.308163 293.892517 
L 310.898868 294.067538 
L 321.409165 293.82306 
L 331.557038 293.739647 
L 333.731583 293.602 
L 333.852391 292.515082 
L 334.577239 280.487321 
L 335.181279 273.435195 
L 335.664511 269.932252 
L 336.026935 268.658223 
L 336.268551 268.461507 
L 336.510167 268.6813 
L 336.751783 269.155771 
L 336.993399 270.090673 
L 337.597439 274.149706 
L 338.322287 280.959127 
L 338.926327 289.365462 
L 340.134407 306.363187 
L 340.859255 314.050305 
L 341.463295 318.661781 
L 341.825719 320.741234 
L 342.067335 321.508104 
L 342.308951 322.301551 
L 342.912992 322.447739 
L 343.63784 320.184722 
L 344.24188 316.901905 
L 344.604304 314.610751 
L 346.537232 298.950798 
L 347.745312 290.847369 
L 348.590968 287.074728 
L 349.315816 285.111887 
L 349.67824 284.524411 
L 350.403088 284.145657 
L 350.765512 284.378727 
L 351.369553 285.18415 
L 351.973593 286.437354 
L 353.181673 290.033961 
L 354.510561 294.023369 
L 355.356217 295.892679 
L 356.201873 297.059236 
L 356.926721 297.446833 
L 357.289145 297.413766 
L 357.530761 297.371017 
L 358.497225 296.576934 
L 360.067729 294.305043 
L 361.27581 292.563697 
L 363.450354 290.029122 
L 363.933586 289.763603 
L 364.537626 289.68702 
L 365.141666 289.846275 
L 366.10813 290.45852 
L 369.732371 293.779034 
L 370.578027 294.160483 
L 371.423683 294.326445 
L 372.269339 294.302539 
L 373.477419 294.019575 
L 377.222467 293.006909 
L 378.188931 292.943829 
L 380.001052 293.128575 
L 385.679028 294.031207 
L 388.215997 294.030595 
L 393.893973 293.754344 
L 395.464477 293.69963 
L 398.243062 293.954074 
L 401.142454 294.186895 
L 402.954574 294.185261 
L 411.290327 293.830475 
L 417.572344 293.809216 
L 423.371129 293.855538 
L 425.062441 293.866315 
L 433.156578 293.601884 
L 447.411923 293.760233 
L 449.948891 293.715456 
L 454.539596 294.00853 
L 454.781212 297.568498 
L 455.50606 309.012766 
L 456.1101 315.351174 
L 456.593332 318.139422 
L 456.955756 319.037138 
L 457.197372 319.172017 
L 457.438988 318.821026 
L 457.801412 317.288819 
L 458.284644 314.259181 
L 458.888684 308.899333 
L 459.371917 303.435968 
L 461.184037 278.515914 
L 462.150501 269.728521 
L 462.996157 265.828146 
L 463.237773 265.356439 
L 463.479389 265.377766 
L 463.600197 265.240775 
L 463.721005 265.283 
L 464.325045 266.834179 
L 465.412317 272.990698 
L 467.586861 290.328547 
L 468.432518 295.91664 
L 469.278174 299.878707 
L 470.12383 302.318157 
L 470.607062 302.962662 
L 470.848678 303.183026 
L 471.211102 303.151415 
L 471.694334 302.929147 
L 472.056758 302.462853 
L 472.781606 300.982596 
L 473.506454 298.986927 
L 475.801806 292.546506 
L 476.647462 291.106841 
L 477.493119 290.395426 
L 478.217967 290.391971 
L 478.459583 290.475113 
L 479.426047 291.331128 
L 480.392511 292.646426 
L 483.412711 296.953594 
L 484.137559 297.575015 
L 484.741599 297.781879 
L 485.345639 297.780284 
L 486.070488 297.51252 
L 486.674528 297.104489 
L 490.419576 293.884215 
L 491.265232 293.540465 
L 492.231696 293.399165 
L 493.318968 293.504571 
L 495.372705 294.080391 
L 497.788865 294.624458 
L 498.755329 294.682325 
L 500.688257 294.480139 
L 502.379569 294.124302 
L 504.79573 293.709454 
L 506.849466 293.591257 
L 513.735523 293.669143 
L 516.876531 293.896586 
L 519.655115 293.612533 
L 523.03774 293.394602 
L 524.84986 293.451831 
L 530.89026 293.798046 
L 544.179142 293.74849 
L 545.991262 293.762759 
L 553.360551 294.049469 
L 564.837312 293.825906 
L 569.307209 293.910549 
L 570.756905 293.917738 
L 575.347609 293.610471 
L 575.589225 289.816656 
L 576.314074 278.421474 
L 576.918114 272.14991 
L 577.401346 269.408826 
L 577.76377 268.503254 
L 578.005386 268.392585 
L 578.247002 268.790722 
L 578.609426 270.3583 
L 578.97185 272.437564 
L 579.817506 280.003623 
L 580.300738 286.479002 
L 581.629626 305.663726 
L 582.475282 314.836723 
L 583.441746 321.177385 
L 584.045786 322.597708 
L 584.40821 322.410363 
L 584.529018 322.3993 
L 584.770634 321.696377 
L 585.374675 319.284973 
L 585.978715 315.620422 
L 586.341139 313.109882 
L 588.153259 298.286078 
L 589.119723 291.659175 
L 589.965379 287.596601 
L 590.448611 285.972129 
L 590.931843 284.834392 
L 591.535883 284.080527 
L 591.898307 284.073386 
L 592.381539 284.307963 
L 592.864771 284.91587 
L 593.348003 285.899756 
L 594.19366 288.265728 
L 596.247396 294.558073 
L 597.093052 296.315598 
L 597.697092 297.109479 
L 598.42194 297.565354 
L 598.905172 297.551472 
L 599.509212 297.212208 
L 600.596484 295.947846 
L 601.44214 294.644619 
L 602.771029 292.647568 
L 604.583149 290.507629 
L 605.187189 290.141243 
L 605.791229 289.994955 
L 606.395269 290.056341 
L 607.120117 290.382389 
L 607.724157 290.78033 
L 611.227589 293.533598 
L 612.194054 293.912353 
L 613.160518 294.042031 
L 614.126982 293.979807 
L 615.697486 293.635644 
L 618.717686 293.028097 
L 619.804958 292.999561 
L 621.979503 293.26968 
L 626.811823 293.987059 
L 629.107175 294.029139 
L 634.060304 293.87193 
L 635.389192 293.68904 
L 636.838888 293.714527 
L 643.604137 294.255333 
L 645.537065 294.135424 
L 649.644538 293.840018 
L 653.14797 293.851176 
L 658.705139 293.805407 
L 664.262307 293.774664 
L 666.316044 293.856871 
L 670.423516 293.664947 
L 673.322908 293.578873 
L 676.705533 293.67773 
L 683.833206 293.803292 
L 689.02795 293.719393 
L 691.081686 293.692948 
L 696.155623 294.028936 
L 697.484511 313.397263 
L 697.967743 317.127463 
L 698.330167 318.752288 
L 698.571783 319.233548 
L 698.692591 319.275544 
L 698.934207 318.94987 
L 699.417439 317.223977 
L 699.779863 314.876756 
L 700.263095 310.940427 
L 700.867135 304.453704 
L 702.800064 277.984571 
L 703.524912 271.072315 
L 704.128952 267.339739 
L 704.732992 265.517194 
L 704.974608 265.566393 
L 705.216224 265.360062 
L 705.45784 265.924696 
L 705.941072 267.269755 
L 707.149152 274.589282 
L 707.874 280.133294 
L 709.08208 289.874679 
L 709.927736 295.532033 
L 710.652585 299.115051 
L 711.256625 301.26025 
L 711.981473 302.683061 
L 712.464705 303.148856 
L 712.827129 303.076681 
L 713.310361 302.802913 
L 713.672785 302.303933 
L 714.518441 300.480625 
L 715.968137 296.158667 
L 717.297025 292.667689 
L 717.901065 291.545459 
L 718.625913 290.654628 
L 719.350761 290.352387 
L 719.592378 290.34404 
L 720.438034 290.767204 
L 721.525306 292.0473 
L 722.370962 293.29335 
L 723.941466 295.541264 
L 725.874394 297.803581 
L 726.357626 298.005451 
L 726.961666 298.025699 
L 727.565706 297.82635 
L 728.411362 297.20813 
L 729.257019 296.364565 
L 731.189947 294.334777 
L 732.035603 293.697688 
L 733.002067 293.279279 
L 733.726915 293.159172 
L 734.572571 293.204324 
L 735.539035 293.440962 
L 739.042468 294.566547 
L 740.12974 294.706703 
L 742.062668 294.565899 
L 743.391556 294.291276 
L 745.445292 293.831664 
L 747.257413 293.616118 
L 750.156805 293.583162 
L 760.063062 293.798767 
L 765.499423 293.453953 
L 769.002855 293.626284 
L 774.439216 293.791681 
L 781.808504 293.811945 
L 790.023449 293.912118 
L 792.922842 294.06123 
L 796.788698 293.957686 
L 800.533747 293.813879 
L 810.07758 293.813376 
L 814.185052 293.812576 
L 816.963636 293.64628 
L 816.963636 293.64628 
" clip-path="url(#pa4f6c4d1d0)" style="fill: none; stroke: #1f77b4; stroke-width: 1.5; stroke-linecap: square"/>
   </g>
   <g id="LineCollection_2">
    <path d="M 92.236364 293.808592 
L 816.963636 293.808592 
" clip-path="url(#pa4f6c4d1d0)" style="fill: none; stroke: #ff0000; stroke-width: 1.5"/>
   </g>
   <g id="patch_9">
    <path d="M 56 390.04 
L 56 229.44 
" style="fill: none; stroke: #000000; stroke-width: 0.8; stroke-linejoin: miter; stroke-linecap: square"/>
   </g>
   <g id="patch_10">
    <path d="M 853.2 390.04 
L 853.2 229.44 
" style="fill: none; stroke: #000000; stroke-width: 0.8; stroke-linejoin: miter; stroke-linecap: square"/>
   </g>
   <g id="patch_11">
    <path d="M 56 390.04 
L 853.2 390.04 
" style="fill: none; stroke: #000000; stroke-width: 0.8; stroke-linejoin: miter; stroke-linecap: square"/>
   </g>
   <g id="patch_12">
    <path d="M 56 229.44 
L 853.2 229.44 
" style="fill: none; stroke: #000000; stroke-width: 0.8; stroke-linejoin: miter; stroke-linecap: square"/>
   </g>
   <g id="legend_2">
    <g id="patch_13">
     <path d="M 605.135938 385.04 
L 846.2 385.04 
Q 848.2 385.04 848.2 383.04 
L 848.2 354.3275 
Q 848.2 352.3275 846.2 352.3275 
L 605.135938 352.3275 
Q 603.135938 352.3275 603.135938 354.3275 
L 603.135938 383.04 
Q 603.135938 385.04 605.135938 385.04 
z
" style="fill: #ffffff; opacity: 0.8; stroke: #cccccc; stroke-linejoin: miter"/>
    </g>
    <g id="line2d_28">
     <path d="M 607.135938 360.504062 
L 617.135938 360.504062 
L 627.135938 360.504062 
" style="fill: none; stroke: #1f77b4; stroke-width: 1.5; stroke-linecap: square"/>
    </g>
    <g id="text_31">
     <!-- Inverted Pendulum angular velocity θ_dot -->
     <g transform="translate(635.135938 364.004062) scale(0.1 -0.1)">
      <defs>
       <path id="DejaVuSans-5f" d="M 3263 -1063 
L 3263 -1509 
L -63 -1509 
L -63 -1063 
L 3263 -1063 
z
" transform="scale(0.015625)"/>
      </defs>
      <use xlink:href="#DejaVuSans-49"/>
      <use xlink:href="#DejaVuSans-6e" transform="translate(29.492188 0)"/>
      <use xlink:href="#DejaVuSans-76" transform="translate(92.871094 0)"/>
      <use xlink:href="#DejaVuSans-65" transform="translate(152.050781 0)"/>
      <use xlink:href="#DejaVuSans-72" transform="translate(213.574219 0)"/>
      <use xlink:href="#DejaVuSans-74" transform="translate(254.6875 0)"/>
      <use xlink:href="#DejaVuSans-65" transform="translate(293.896484 0)"/>
      <use xlink:href="#DejaVuSans-64" transform="translate(355.419922 0)"/>
      <use xlink:href="#DejaVuSans-20" transform="translate(418.896484 0)"/>
      <use xlink:href="#DejaVuSans-50" transform="translate(450.683594 0)"/>
      <use xlink:href="#DejaVuSans-65" transform="translate(507.361328 0)"/>
      <use xlink:href="#DejaVuSans-6e" transform="translate(568.884766 0)"/>
      <use xlink:href="#DejaVuSans-64" transform="translate(632.263672 0)"/>
      <use xlink:href="#DejaVuSans-75" transform="translate(695.740234 0)"/>
      <use xlink:href="#DejaVuSans-6c" transform="translate(759.119141 0)"/>
      <use xlink:href="#DejaVuSans-75" transform="translate(786.902344 0)"/>
      <use xlink:href="#DejaVuSans-6d" transform="translate(850.28125 0)"/>
      <use xlink:href="#DejaVuSans-20" transform="translate(947.693359 0)"/>
      <use xlink:href="#DejaVuSans-61" transform="translate(979.480469 0)"/>
      <use xlink:href="#DejaVuSans-6e" transform="translate(1040.759766 0)"/>
      <use xlink:href="#DejaVuSans-67" transform="translate(1104.138672 0)"/>
      <use xlink:href="#DejaVuSans-75" transform="translate(1167.615234 0)"/>
      <use xlink:href="#DejaVuSans-6c" transform="translate(1230.994141 0)"/>
      <use xlink:href="#DejaVuSans-61" transform="translate(1258.777344 0)"/>
      <use xlink:href="#DejaVuSans-72" transform="translate(1320.056641 0)"/>
      <use xlink:href="#DejaVuSans-20" transform="translate(1361.169922 0)"/>
      <use xlink:href="#DejaVuSans-76" transform="translate(1392.957031 0)"/>
      <use xlink:href="#DejaVuSans-65" transform="translate(1452.136719 0)"/>
      <use xlink:href="#DejaVuSans-6c" transform="translate(1513.660156 0)"/>
      <use xlink:href="#DejaVuSans-6f" transform="translate(1541.443359 0)"/>
      <use xlink:href="#DejaVuSans-63" transform="translate(1602.625 0)"/>
      <use xlink:href="#DejaVuSans-69" transform="translate(1657.605469 0)"/>
      <use xlink:href="#DejaVuSans-74" transform="translate(1685.388672 0)"/>
      <use xlink:href="#DejaVuSans-79" transform="translate(1724.597656 0)"/>
      <use xlink:href="#DejaVuSans-20" transform="translate(1783.777344 0)"/>
      <use xlink:href="#DejaVuSans-3b8" transform="translate(1815.564453 0)"/>
      <use xlink:href="#DejaVuSans-5f" transform="translate(1876.746094 0)"/>
      <use xlink:href="#DejaVuSans-64" transform="translate(1926.746094 0)"/>
      <use xlink:href="#DejaVuSans-6f" transform="translate(1990.222656 0)"/>
      <use xlink:href="#DejaVuSans-74" transform="translate(2051.404297 0)"/>
     </g>
    </g>
    <g id="line2d_29">
     <path d="M 607.135938 375.460312 
L 627.135938 375.460312 
" style="fill: none; stroke: #ff0000; stroke-width: 1.5"/>
    </g>
    <g id="text_32">
     <!-- target angular velocity -->
     <g transform="translate(635.135938 378.960312) scale(0.1 -0.1)">
      <use xlink:href="#DejaVuSans-74"/>
      <use xlink:href="#DejaVuSans-61" transform="translate(39.208984 0)"/>
      <use xlink:href="#DejaVuSans-72" transform="translate(100.488281 0)"/>
      <use xlink:href="#DejaVuSans-67" transform="translate(139.851562 0)"/>
      <use xlink:href="#DejaVuSans-65" transform="translate(203.328125 0)"/>
      <use xlink:href="#DejaVuSans-74" transform="translate(264.851562 0)"/>
      <use xlink:href="#DejaVuSans-20" transform="translate(304.060547 0)"/>
      <use xlink:href="#DejaVuSans-61" transform="translate(335.847656 0)"/>
      <use xlink:href="#DejaVuSans-6e" transform="translate(397.126953 0)"/>
      <use xlink:href="#DejaVuSans-67" transform="translate(460.505859 0)"/>
      <use xlink:href="#DejaVuSans-75" transform="translate(523.982422 0)"/>
      <use xlink:href="#DejaVuSans-6c" transform="translate(587.361328 0)"/>
      <use xlink:href="#DejaVuSans-61" transform="translate(615.144531 0)"/>
      <use xlink:href="#DejaVuSans-72" transform="translate(676.423828 0)"/>
      <use xlink:href="#DejaVuSans-20" transform="translate(717.537109 0)"/>
      <use xlink:href="#DejaVuSans-76" transform="translate(749.324219 0)"/>
      <use xlink:href="#DejaVuSans-65" transform="translate(808.503906 0)"/>
      <use xlink:href="#DejaVuSans-6c" transform="translate(870.027344 0)"/>
      <use xlink:href="#DejaVuSans-6f" transform="translate(897.810547 0)"/>
      <use xlink:href="#DejaVuSans-63" transform="translate(958.992188 0)"/>
      <use xlink:href="#DejaVuSans-69" transform="translate(1013.972656 0)"/>
      <use xlink:href="#DejaVuSans-74" transform="translate(1041.755859 0)"/>
      <use xlink:href="#DejaVuSans-79" transform="translate(1080.964844 0)"/>
     </g>
    </g>
   </g>
  </g>
 </g>
 <defs>
  <clipPath id="p0a18d06404">
   <rect x="56" y="26.88" width="797.2" height="160.6"/>
  </clipPath>
  <clipPath id="pa4f6c4d1d0">
   <rect x="56" y="229.44" width="797.2" height="160.6"/>
  </clipPath>
 </defs>
</svg>
