<?xml version="1.0" encoding="utf-8" standalone="no"?>
<!DOCTYPE svg PUBLIC "-//W3C//DTD SVG 1.1//EN"
  "http://www.w3.org/Graphics/SVG/1.1/DTD/svg11.dtd">
<svg xmlns:xlink="http://www.w3.org/1999/xlink" width="864pt" height="432pt" viewBox="0 0 864 432" xmlns="http://www.w3.org/2000/svg" version="1.1">
 <metadata>
  <rdf:RDF xmlns:dc="http://purl.org/dc/elements/1.1/" xmlns:cc="http://creativecommons.org/ns#" xmlns:rdf="http://www.w3.org/1999/02/22-rdf-syntax-ns#">
   <cc:Work>
    <dc:type rdf:resource="http://purl.org/dc/dcmitype/StillImage"/>
    <dc:date>2025-04-29T12:31:20.632390</dc:date>
    <dc:format>image/svg+xml</dc:format>
    <dc:creator>
     <cc:Agent>
      <dc:title>Matplotlib v3.10.1, https://matplotlib.org/</dc:title>
     </cc:Agent>
    </dc:creator>
   </cc:Work>
  </rdf:RDF>
 </metadata>
 <defs>
  <style type="text/css">*{stroke-linejoin: round; stroke-linecap: butt}</style>
 </defs>
 <g id="figure_1">
  <g id="patch_1">
   <path d="M 0 432 
L 864 432 
L 864 0 
L 0 0 
z
" style="fill: #ffffff"/>
  </g>
  <g id="axes_1">
   <g id="patch_2">
    <path d="M 56 187.48 
L 853.2 187.48 
L 853.2 26.88 
L 56 26.88 
z
" style="fill: #ffffff"/>
   </g>
   <g id="matplotlib.axis_1">
    <g id="xtick_1">
     <g id="line2d_1">
      <defs>
       <path id="mdd2e212f5d" d="M 0 0 
L 0 3.5 
" style="stroke: #000000; stroke-width: 0.8"/>
      </defs>
      <g>
       <use xlink:href="#mdd2e212f5d" x="92.236364" y="187.48" style="stroke: #000000; stroke-width: 0.8"/>
      </g>
     </g>
     <g id="text_1">
      <!-- 0 -->
      <g transform="translate(89.055114 202.078437) scale(0.1 -0.1)">
       <defs>
        <path id="DejaVuSans-30" d="M 2034 4250 
Q 1547 4250 1301 3770 
Q 1056 3291 1056 2328 
Q 1056 1369 1301 889 
Q 1547 409 2034 409 
Q 2525 409 2770 889 
Q 3016 1369 3016 2328 
Q 3016 3291 2770 3770 
Q 2525 4250 2034 4250 
z
M 2034 4750 
Q 2819 4750 3233 4129 
Q 3647 3509 3647 2328 
Q 3647 1150 3233 529 
Q 2819 -91 2034 -91 
Q 1250 -91 836 529 
Q 422 1150 422 2328 
Q 422 3509 836 4129 
Q 1250 4750 2034 4750 
z
" transform="scale(0.015625)"/>
       </defs>
       <use xlink:href="#DejaVuSans-30"/>
      </g>
     </g>
    </g>
    <g id="xtick_2">
     <g id="line2d_2">
      <g>
       <use xlink:href="#mdd2e212f5d" x="213.024242" y="187.48" style="stroke: #000000; stroke-width: 0.8"/>
      </g>
     </g>
     <g id="text_2">
      <!-- 10 -->
      <g transform="translate(206.661742 202.078437) scale(0.1 -0.1)">
       <defs>
        <path id="DejaVuSans-31" d="M 794 531 
L 1825 531 
L 1825 4091 
L 703 3866 
L 703 4441 
L 1819 4666 
L 2450 4666 
L 2450 531 
L 3481 531 
L 3481 0 
L 794 0 
L 794 531 
z
" transform="scale(0.015625)"/>
       </defs>
       <use xlink:href="#DejaVuSans-31"/>
       <use xlink:href="#DejaVuSans-30" transform="translate(63.623047 0)"/>
      </g>
     </g>
    </g>
    <g id="xtick_3">
     <g id="line2d_3">
      <g>
       <use xlink:href="#mdd2e212f5d" x="333.812121" y="187.48" style="stroke: #000000; stroke-width: 0.8"/>
      </g>
     </g>
     <g id="text_3">
      <!-- 20 -->
      <g transform="translate(327.449621 202.078437) scale(0.1 -0.1)">
       <defs>
        <path id="DejaVuSans-32" d="M 1228 531 
L 3431 531 
L 3431 0 
L 469 0 
L 469 531 
Q 828 903 1448 1529 
Q 2069 2156 2228 2338 
Q 2531 2678 2651 2914 
Q 2772 3150 2772 3378 
Q 2772 3750 2511 3984 
Q 2250 4219 1831 4219 
Q 1534 4219 1204 4116 
Q 875 4013 500 3803 
L 500 4441 
Q 881 4594 1212 4672 
Q 1544 4750 1819 4750 
Q 2544 4750 2975 4387 
Q 3406 4025 3406 3419 
Q 3406 3131 3298 2873 
Q 3191 2616 2906 2266 
Q 2828 2175 2409 1742 
Q 1991 1309 1228 531 
z
" transform="scale(0.015625)"/>
       </defs>
       <use xlink:href="#DejaVuSans-32"/>
       <use xlink:href="#DejaVuSans-30" transform="translate(63.623047 0)"/>
      </g>
     </g>
    </g>
    <g id="xtick_4">
     <g id="line2d_4">
      <g>
       <use xlink:href="#mdd2e212f5d" x="454.6" y="187.48" style="stroke: #000000; stroke-width: 0.8"/>
      </g>
     </g>
     <g id="text_4">
      <!-- 30 -->
      <g transform="translate(448.2375 202.078437) scale(0.1 -0.1)">
       <defs>
        <path id="DejaVuSans-33" d="M 2597 2516 
Q 3050 2419 3304 2112 
Q 3559 1806 3559 1356 
Q 3559 666 3084 287 
Q 2609 -91 1734 -91 
Q 1441 -91 1130 -33 
Q 819 25 488 141 
L 488 750 
Q 750 597 1062 519 
Q 1375 441 1716 441 
Q 2309 441 2620 675 
Q 2931 909 2931 1356 
Q 2931 1769 2642 2001 
Q 2353 2234 1838 2234 
L 1294 2234 
L 1294 2753 
L 1863 2753 
Q 2328 2753 2575 2939 
Q 2822 3125 2822 3475 
Q 2822 3834 2567 4026 
Q 2313 4219 1838 4219 
Q 1578 4219 1281 4162 
Q 984 4106 628 3988 
L 628 4550 
Q 988 4650 1302 4700 
Q 1616 4750 1894 4750 
Q 2613 4750 3031 4423 
Q 3450 4097 3450 3541 
Q 3450 3153 3228 2886 
Q 3006 2619 2597 2516 
z
" transform="scale(0.015625)"/>
       </defs>
       <use xlink:href="#DejaVuSans-33"/>
       <use xlink:href="#DejaVuSans-30" transform="translate(63.623047 0)"/>
      </g>
     </g>
    </g>
    <g id="xtick_5">
     <g id="line2d_5">
      <g>
       <use xlink:href="#mdd2e212f5d" x="575.387879" y="187.48" style="stroke: #000000; stroke-width: 0.8"/>
      </g>
     </g>
     <g id="text_5">
      <!-- 40 -->
      <g transform="translate(569.025379 202.078437) scale(0.1 -0.1)">
       <defs>
        <path id="DejaVuSans-34" d="M 2419 4116 
L 825 1625 
L 2419 1625 
L 2419 4116 
z
M 2253 4666 
L 3047 4666 
L 3047 1625 
L 3713 1625 
L 3713 1100 
L 3047 1100 
L 3047 0 
L 2419 0 
L 2419 1100 
L 313 1100 
L 313 1709 
L 2253 4666 
z
" transform="scale(0.015625)"/>
       </defs>
       <use xlink:href="#DejaVuSans-34"/>
       <use xlink:href="#DejaVuSans-30" transform="translate(63.623047 0)"/>
      </g>
     </g>
    </g>
    <g id="xtick_6">
     <g id="line2d_6">
      <g>
       <use xlink:href="#mdd2e212f5d" x="696.175758" y="187.48" style="stroke: #000000; stroke-width: 0.8"/>
      </g>
     </g>
     <g id="text_6">
      <!-- 50 -->
      <g transform="translate(689.813258 202.078437) scale(0.1 -0.1)">
       <defs>
        <path id="DejaVuSans-35" d="M 691 4666 
L 3169 4666 
L 3169 4134 
L 1269 4134 
L 1269 2991 
Q 1406 3038 1543 3061 
Q 1681 3084 1819 3084 
Q 2600 3084 3056 2656 
Q 3513 2228 3513 1497 
Q 3513 744 3044 326 
Q 2575 -91 1722 -91 
Q 1428 -91 1123 -41 
Q 819 9 494 109 
L 494 744 
Q 775 591 1075 516 
Q 1375 441 1709 441 
Q 2250 441 2565 725 
Q 2881 1009 2881 1497 
Q 2881 1984 2565 2268 
Q 2250 2553 1709 2553 
Q 1456 2553 1204 2497 
Q 953 2441 691 2322 
L 691 4666 
z
" transform="scale(0.015625)"/>
       </defs>
       <use xlink:href="#DejaVuSans-35"/>
       <use xlink:href="#DejaVuSans-30" transform="translate(63.623047 0)"/>
      </g>
     </g>
    </g>
    <g id="xtick_7">
     <g id="line2d_7">
      <g>
       <use xlink:href="#mdd2e212f5d" x="816.963636" y="187.48" style="stroke: #000000; stroke-width: 0.8"/>
      </g>
     </g>
     <g id="text_7">
      <!-- 60 -->
      <g transform="translate(810.601136 202.078437) scale(0.1 -0.1)">
       <defs>
        <path id="DejaVuSans-36" d="M 2113 2584 
Q 1688 2584 1439 2293 
Q 1191 2003 1191 1497 
Q 1191 994 1439 701 
Q 1688 409 2113 409 
Q 2538 409 2786 701 
Q 3034 994 3034 1497 
Q 3034 2003 2786 2293 
Q 2538 2584 2113 2584 
z
M 3366 4563 
L 3366 3988 
Q 3128 4100 2886 4159 
Q 2644 4219 2406 4219 
Q 1781 4219 1451 3797 
Q 1122 3375 1075 2522 
Q 1259 2794 1537 2939 
Q 1816 3084 2150 3084 
Q 2853 3084 3261 2657 
Q 3669 2231 3669 1497 
Q 3669 778 3244 343 
Q 2819 -91 2113 -91 
Q 1303 -91 875 529 
Q 447 1150 447 2328 
Q 447 3434 972 4092 
Q 1497 4750 2381 4750 
Q 2619 4750 2861 4703 
Q 3103 4656 3366 4563 
z
" transform="scale(0.015625)"/>
       </defs>
       <use xlink:href="#DejaVuSans-36"/>
       <use xlink:href="#DejaVuSans-30" transform="translate(63.623047 0)"/>
      </g>
     </g>
    </g>
    <g id="text_8">
     <!-- Time (s) -->
     <g transform="translate(434.271094 215.756562) scale(0.1 -0.1)">
      <defs>
       <path id="DejaVuSans-54" d="M -19 4666 
L 3928 4666 
L 3928 4134 
L 2272 4134 
L 2272 0 
L 1638 0 
L 1638 4134 
L -19 4134 
L -19 4666 
z
" transform="scale(0.015625)"/>
       <path id="DejaVuSans-69" d="M 603 3500 
L 1178 3500 
L 1178 0 
L 603 0 
L 603 3500 
z
M 603 4863 
L 1178 4863 
L 1178 4134 
L 603 4134 
L 603 4863 
z
" transform="scale(0.015625)"/>
       <path id="DejaVuSans-6d" d="M 3328 2828 
Q 3544 3216 3844 3400 
Q 4144 3584 4550 3584 
Q 5097 3584 5394 3201 
Q 5691 2819 5691 2113 
L 5691 0 
L 5113 0 
L 5113 2094 
Q 5113 2597 4934 2840 
Q 4756 3084 4391 3084 
Q 3944 3084 3684 2787 
Q 3425 2491 3425 1978 
L 3425 0 
L 2847 0 
L 2847 2094 
Q 2847 2600 2669 2842 
Q 2491 3084 2119 3084 
Q 1678 3084 1418 2786 
Q 1159 2488 1159 1978 
L 1159 0 
L 581 0 
L 581 3500 
L 1159 3500 
L 1159 2956 
Q 1356 3278 1631 3431 
Q 1906 3584 2284 3584 
Q 2666 3584 2933 3390 
Q 3200 3197 3328 2828 
z
" transform="scale(0.015625)"/>
       <path id="DejaVuSans-65" d="M 3597 1894 
L 3597 1613 
L 953 1613 
Q 991 1019 1311 708 
Q 1631 397 2203 397 
Q 2534 397 2845 478 
Q 3156 559 3463 722 
L 3463 178 
Q 3153 47 2828 -22 
Q 2503 -91 2169 -91 
Q 1331 -91 842 396 
Q 353 884 353 1716 
Q 353 2575 817 3079 
Q 1281 3584 2069 3584 
Q 2775 3584 3186 3129 
Q 3597 2675 3597 1894 
z
M 3022 2063 
Q 3016 2534 2758 2815 
Q 2500 3097 2075 3097 
Q 1594 3097 1305 2825 
Q 1016 2553 972 2059 
L 3022 2063 
z
" transform="scale(0.015625)"/>
       <path id="DejaVuSans-20" transform="scale(0.015625)"/>
       <path id="DejaVuSans-28" d="M 1984 4856 
Q 1566 4138 1362 3434 
Q 1159 2731 1159 2009 
Q 1159 1288 1364 580 
Q 1569 -128 1984 -844 
L 1484 -844 
Q 1016 -109 783 600 
Q 550 1309 550 2009 
Q 550 2706 781 3412 
Q 1013 4119 1484 4856 
L 1984 4856 
z
" transform="scale(0.015625)"/>
       <path id="DejaVuSans-73" d="M 2834 3397 
L 2834 2853 
Q 2591 2978 2328 3040 
Q 2066 3103 1784 3103 
Q 1356 3103 1142 2972 
Q 928 2841 928 2578 
Q 928 2378 1081 2264 
Q 1234 2150 1697 2047 
L 1894 2003 
Q 2506 1872 2764 1633 
Q 3022 1394 3022 966 
Q 3022 478 2636 193 
Q 2250 -91 1575 -91 
Q 1294 -91 989 -36 
Q 684 19 347 128 
L 347 722 
Q 666 556 975 473 
Q 1284 391 1588 391 
Q 1994 391 2212 530 
Q 2431 669 2431 922 
Q 2431 1156 2273 1281 
Q 2116 1406 1581 1522 
L 1381 1569 
Q 847 1681 609 1914 
Q 372 2147 372 2553 
Q 372 3047 722 3315 
Q 1072 3584 1716 3584 
Q 2034 3584 2315 3537 
Q 2597 3491 2834 3397 
z
" transform="scale(0.015625)"/>
       <path id="DejaVuSans-29" d="M 513 4856 
L 1013 4856 
Q 1481 4119 1714 3412 
Q 1947 2706 1947 2009 
Q 1947 1309 1714 600 
Q 1481 -109 1013 -844 
L 513 -844 
Q 928 -128 1133 580 
Q 1338 1288 1338 2009 
Q 1338 2731 1133 3434 
Q 928 4138 513 4856 
z
" transform="scale(0.015625)"/>
      </defs>
      <use xlink:href="#DejaVuSans-54"/>
      <use xlink:href="#DejaVuSans-69" transform="translate(57.958984 0)"/>
      <use xlink:href="#DejaVuSans-6d" transform="translate(85.742188 0)"/>
      <use xlink:href="#DejaVuSans-65" transform="translate(183.154297 0)"/>
      <use xlink:href="#DejaVuSans-20" transform="translate(244.677734 0)"/>
      <use xlink:href="#DejaVuSans-28" transform="translate(276.464844 0)"/>
      <use xlink:href="#DejaVuSans-73" transform="translate(315.478516 0)"/>
      <use xlink:href="#DejaVuSans-29" transform="translate(367.578125 0)"/>
     </g>
    </g>
   </g>
   <g id="matplotlib.axis_2">
    <g id="ytick_1">
     <g id="line2d_8">
      <defs>
       <path id="m82a6e1413f" d="M 0 0 
L -3.5 0 
" style="stroke: #000000; stroke-width: 0.8"/>
      </defs>
      <g>
       <use xlink:href="#m82a6e1413f" x="56" y="173.339965" style="stroke: #000000; stroke-width: 0.8"/>
      </g>
     </g>
     <g id="text_9">
      <!-- −0.50 -->
      <g transform="translate(18.354687 177.139184) scale(0.1 -0.1)">
       <defs>
        <path id="DejaVuSans-2212" d="M 678 2272 
L 4684 2272 
L 4684 1741 
L 678 1741 
L 678 2272 
z
" transform="scale(0.015625)"/>
        <path id="DejaVuSans-2e" d="M 684 794 
L 1344 794 
L 1344 0 
L 684 0 
L 684 794 
z
" transform="scale(0.015625)"/>
       </defs>
       <use xlink:href="#DejaVuSans-2212"/>
       <use xlink:href="#DejaVuSans-30" transform="translate(83.789062 0)"/>
       <use xlink:href="#DejaVuSans-2e" transform="translate(147.412109 0)"/>
       <use xlink:href="#DejaVuSans-35" transform="translate(179.199219 0)"/>
       <use xlink:href="#DejaVuSans-30" transform="translate(242.822266 0)"/>
      </g>
     </g>
    </g>
    <g id="ytick_2">
     <g id="line2d_9">
      <g>
       <use xlink:href="#m82a6e1413f" x="56" y="153.092547" style="stroke: #000000; stroke-width: 0.8"/>
      </g>
     </g>
     <g id="text_10">
      <!-- −0.25 -->
      <g transform="translate(18.354687 156.891765) scale(0.1 -0.1)">
       <use xlink:href="#DejaVuSans-2212"/>
       <use xlink:href="#DejaVuSans-30" transform="translate(83.789062 0)"/>
       <use xlink:href="#DejaVuSans-2e" transform="translate(147.412109 0)"/>
       <use xlink:href="#DejaVuSans-32" transform="translate(179.199219 0)"/>
       <use xlink:href="#DejaVuSans-35" transform="translate(242.822266 0)"/>
      </g>
     </g>
    </g>
    <g id="ytick_3">
     <g id="line2d_10">
      <g>
       <use xlink:href="#m82a6e1413f" x="56" y="132.845128" style="stroke: #000000; stroke-width: 0.8"/>
      </g>
     </g>
     <g id="text_11">
      <!-- 0.00 -->
      <g transform="translate(26.734375 136.644347) scale(0.1 -0.1)">
       <use xlink:href="#DejaVuSans-30"/>
       <use xlink:href="#DejaVuSans-2e" transform="translate(63.623047 0)"/>
       <use xlink:href="#DejaVuSans-30" transform="translate(95.410156 0)"/>
       <use xlink:href="#DejaVuSans-30" transform="translate(159.033203 0)"/>
      </g>
     </g>
    </g>
    <g id="ytick_4">
     <g id="line2d_11">
      <g>
       <use xlink:href="#m82a6e1413f" x="56" y="112.597709" style="stroke: #000000; stroke-width: 0.8"/>
      </g>
     </g>
     <g id="text_12">
      <!-- 0.25 -->
      <g transform="translate(26.734375 116.396928) scale(0.1 -0.1)">
       <use xlink:href="#DejaVuSans-30"/>
       <use xlink:href="#DejaVuSans-2e" transform="translate(63.623047 0)"/>
       <use xlink:href="#DejaVuSans-32" transform="translate(95.410156 0)"/>
       <use xlink:href="#DejaVuSans-35" transform="translate(159.033203 0)"/>
      </g>
     </g>
    </g>
    <g id="ytick_5">
     <g id="line2d_12">
      <g>
       <use xlink:href="#m82a6e1413f" x="56" y="92.35029" style="stroke: #000000; stroke-width: 0.8"/>
      </g>
     </g>
     <g id="text_13">
      <!-- 0.50 -->
      <g transform="translate(26.734375 96.149509) scale(0.1 -0.1)">
       <use xlink:href="#DejaVuSans-30"/>
       <use xlink:href="#DejaVuSans-2e" transform="translate(63.623047 0)"/>
       <use xlink:href="#DejaVuSans-35" transform="translate(95.410156 0)"/>
       <use xlink:href="#DejaVuSans-30" transform="translate(159.033203 0)"/>
      </g>
     </g>
    </g>
    <g id="ytick_6">
     <g id="line2d_13">
      <g>
       <use xlink:href="#m82a6e1413f" x="56" y="72.102871" style="stroke: #000000; stroke-width: 0.8"/>
      </g>
     </g>
     <g id="text_14">
      <!-- 0.75 -->
      <g transform="translate(26.734375 75.90209) scale(0.1 -0.1)">
       <defs>
        <path id="DejaVuSans-37" d="M 525 4666 
L 3525 4666 
L 3525 4397 
L 1831 0 
L 1172 0 
L 2766 4134 
L 525 4134 
L 525 4666 
z
" transform="scale(0.015625)"/>
       </defs>
       <use xlink:href="#DejaVuSans-30"/>
       <use xlink:href="#DejaVuSans-2e" transform="translate(63.623047 0)"/>
       <use xlink:href="#DejaVuSans-37" transform="translate(95.410156 0)"/>
       <use xlink:href="#DejaVuSans-35" transform="translate(159.033203 0)"/>
      </g>
     </g>
    </g>
    <g id="ytick_7">
     <g id="line2d_14">
      <g>
       <use xlink:href="#m82a6e1413f" x="56" y="51.855453" style="stroke: #000000; stroke-width: 0.8"/>
      </g>
     </g>
     <g id="text_15">
      <!-- 1.00 -->
      <g transform="translate(26.734375 55.654671) scale(0.1 -0.1)">
       <use xlink:href="#DejaVuSans-31"/>
       <use xlink:href="#DejaVuSans-2e" transform="translate(63.623047 0)"/>
       <use xlink:href="#DejaVuSans-30" transform="translate(95.410156 0)"/>
       <use xlink:href="#DejaVuSans-30" transform="translate(159.033203 0)"/>
      </g>
     </g>
    </g>
    <g id="ytick_8">
     <g id="line2d_15">
      <g>
       <use xlink:href="#m82a6e1413f" x="56" y="31.608034" style="stroke: #000000; stroke-width: 0.8"/>
      </g>
     </g>
     <g id="text_16">
      <!-- 1.25 -->
      <g transform="translate(26.734375 35.407253) scale(0.1 -0.1)">
       <use xlink:href="#DejaVuSans-31"/>
       <use xlink:href="#DejaVuSans-2e" transform="translate(63.623047 0)"/>
       <use xlink:href="#DejaVuSans-32" transform="translate(95.410156 0)"/>
       <use xlink:href="#DejaVuSans-35" transform="translate(159.033203 0)"/>
      </g>
     </g>
    </g>
    <g id="text_17">
     <!-- Position (m) -->
     <g transform="translate(12.275 137.005) rotate(-90) scale(0.1 -0.1)">
      <defs>
       <path id="DejaVuSans-50" d="M 1259 4147 
L 1259 2394 
L 2053 2394 
Q 2494 2394 2734 2622 
Q 2975 2850 2975 3272 
Q 2975 3691 2734 3919 
Q 2494 4147 2053 4147 
L 1259 4147 
z
M 628 4666 
L 2053 4666 
Q 2838 4666 3239 4311 
Q 3641 3956 3641 3272 
Q 3641 2581 3239 2228 
Q 2838 1875 2053 1875 
L 1259 1875 
L 1259 0 
L 628 0 
L 628 4666 
z
" transform="scale(0.015625)"/>
       <path id="DejaVuSans-6f" d="M 1959 3097 
Q 1497 3097 1228 2736 
Q 959 2375 959 1747 
Q 959 1119 1226 758 
Q 1494 397 1959 397 
Q 2419 397 2687 759 
Q 2956 1122 2956 1747 
Q 2956 2369 2687 2733 
Q 2419 3097 1959 3097 
z
M 1959 3584 
Q 2709 3584 3137 3096 
Q 3566 2609 3566 1747 
Q 3566 888 3137 398 
Q 2709 -91 1959 -91 
Q 1206 -91 779 398 
Q 353 888 353 1747 
Q 353 2609 779 3096 
Q 1206 3584 1959 3584 
z
" transform="scale(0.015625)"/>
       <path id="DejaVuSans-74" d="M 1172 4494 
L 1172 3500 
L 2356 3500 
L 2356 3053 
L 1172 3053 
L 1172 1153 
Q 1172 725 1289 603 
Q 1406 481 1766 481 
L 2356 481 
L 2356 0 
L 1766 0 
Q 1100 0 847 248 
Q 594 497 594 1153 
L 594 3053 
L 172 3053 
L 172 3500 
L 594 3500 
L 594 4494 
L 1172 4494 
z
" transform="scale(0.015625)"/>
       <path id="DejaVuSans-6e" d="M 3513 2113 
L 3513 0 
L 2938 0 
L 2938 2094 
Q 2938 2591 2744 2837 
Q 2550 3084 2163 3084 
Q 1697 3084 1428 2787 
Q 1159 2491 1159 1978 
L 1159 0 
L 581 0 
L 581 3500 
L 1159 3500 
L 1159 2956 
Q 1366 3272 1645 3428 
Q 1925 3584 2291 3584 
Q 2894 3584 3203 3211 
Q 3513 2838 3513 2113 
z
" transform="scale(0.015625)"/>
      </defs>
      <use xlink:href="#DejaVuSans-50"/>
      <use xlink:href="#DejaVuSans-6f" transform="translate(56.677734 0)"/>
      <use xlink:href="#DejaVuSans-73" transform="translate(117.859375 0)"/>
      <use xlink:href="#DejaVuSans-69" transform="translate(169.958984 0)"/>
      <use xlink:href="#DejaVuSans-74" transform="translate(197.742188 0)"/>
      <use xlink:href="#DejaVuSans-69" transform="translate(236.951172 0)"/>
      <use xlink:href="#DejaVuSans-6f" transform="translate(264.734375 0)"/>
      <use xlink:href="#DejaVuSans-6e" transform="translate(325.916016 0)"/>
      <use xlink:href="#DejaVuSans-20" transform="translate(389.294922 0)"/>
      <use xlink:href="#DejaVuSans-28" transform="translate(421.082031 0)"/>
      <use xlink:href="#DejaVuSans-6d" transform="translate(460.095703 0)"/>
      <use xlink:href="#DejaVuSans-29" transform="translate(557.507812 0)"/>
     </g>
    </g>
   </g>
   <g id="line2d_16">
    <path d="M 92.236364 132.845128 
L 92.357172 132.773008 
L 92.598788 132.19733 
L 92.961212 130.297626 
L 93.444444 125.978098 
L 94.048484 118.092821 
L 94.89414 103.590947 
L 97.793532 50.149445 
L 98.51838 41.62633 
L 99.12242 36.958282 
L 99.605652 34.86465 
L 99.968076 34.222975 
L 100.209693 34.227508 
L 100.451309 34.595265 
L 100.813733 35.79251 
L 101.296965 38.474696 
L 101.901005 43.284285 
L 102.867469 53.275213 
L 105.162821 78.130106 
L 106.008477 84.596713 
L 106.612517 87.816439 
L 107.216557 89.84193 
L 107.699789 90.658552 
L 108.062213 90.842066 
L 108.303829 90.754062 
L 108.666253 90.317934 
L 109.149486 89.260021 
L 109.874334 86.94669 
L 112.048878 79.3001 
L 112.652918 78.039102 
L 113.13615 77.503314 
L 113.498574 77.39942 
L 113.860998 77.553428 
L 114.223422 77.970215 
L 114.706654 78.907816 
L 115.310694 80.625284 
L 116.15635 83.825218 
L 117.847662 91.472155 
L 119.055743 96.483662 
L 119.901399 99.214242 
L 120.626247 100.908371 
L 121.230287 101.850407 
L 121.834327 102.396188 
L 122.317559 102.574804 
L 122.800791 102.531569 
L 123.404831 102.200843 
L 124.250487 101.391867 
L 126.425031 99.080707 
L 127.14988 98.65551 
L 127.75392 98.517446 
L 128.478768 98.601976 
L 129.203616 98.918282 
L 130.049272 99.528609 
L 131.37816 100.805908 
L 133.311088 102.651052 
L 134.39836 103.369116 
L 135.364824 103.72976 
L 136.331289 103.839403 
L 137.539369 103.716493 
L 139.230681 103.289886 
L 142.854921 102.332089 
L 151.311482 100.542295 
L 156.264611 99.203787 
L 159.405619 98.629978 
L 163.271476 98.155556 
L 167.137332 97.900211 
L 171.244804 97.870388 
L 174.506621 98.010634 
L 177.889245 98.395762 
L 184.412878 99.185276 
L 189.003582 99.450488 
L 193.835903 99.516309 
L 197.822567 99.405611 
L 200.963576 99.053084 
L 210.265793 97.849024 
L 213.285993 97.485497 
L 213.648417 97.086511 
L 214.131649 96.174982 
L 214.856497 94.260128 
L 216.306193 90.271382 
L 216.910234 89.270719 
L 217.272658 89.006091 
L 217.635082 89.037515 
L 217.997506 89.423027 
L 218.35993 90.211521 
L 218.843162 91.897666 
L 219.447202 94.971882 
L 220.17205 99.9145 
L 221.138514 108.134059 
L 225.125178 144.171603 
L 226.091643 150.125604 
L 226.937299 154.120639 
L 227.782955 157.140752 
L 228.628611 159.386301 
L 229.595075 161.29336 
L 230.923963 163.344734 
L 232.615275 166.005783 
L 233.944163 168.572302 
L 238.172444 177.234861 
L 239.138908 178.501786 
L 239.984564 179.244713 
L 240.709412 179.616406 
L 241.43426 179.756864 
L 242.159108 179.675561 
L 243.004764 179.351752 
L 244.212845 178.604075 
L 248.561933 175.628233 
L 250.978093 174.459614 
L 253.756678 173.059529 
L 256.293646 171.501384 
L 260.038694 169.199211 
L 261.971623 168.296588 
L 263.904551 167.643561 
L 266.079095 167.151841 
L 268.616063 166.821984 
L 271.394648 166.690753 
L 275.381312 166.771902 
L 277.797472 167.045413 
L 280.455249 167.580486 
L 288.791002 169.443762 
L 293.381706 170.108576 
L 297.247562 170.462159 
L 301.113419 170.592388 
L 305.824931 170.500285 
L 308.96594 170.193708 
L 318.388965 169.098626 
L 323.583709 168.844364 
L 328.899262 168.81587 
L 332.04027 168.961082 
L 333.973199 169.200114 
L 334.335623 169.543622 
L 334.818855 170.402973 
L 335.543703 172.294476 
L 337.235015 176.969655 
L 337.718247 177.733713 
L 338.080671 178.004298 
L 338.443095 177.977465 
L 338.805519 177.597969 
L 339.167943 176.817425 
L 339.651175 175.145073 
L 340.255215 172.092247 
L 340.980063 167.18075 
L 341.946527 159.009889 
L 345.933192 123.165898 
L 346.899656 117.237422 
L 347.745312 113.255873 
L 348.590968 110.242507 
L 349.436624 107.997507 
L 350.403088 106.084516 
L 351.731977 104.0159 
L 353.423289 101.325383 
L 354.752177 98.737304 
L 358.980457 90.025111 
L 359.946921 88.746917 
L 360.792578 87.993032 
L 361.517426 87.611331 
L 362.242274 87.459986 
L 362.967122 87.533528 
L 363.812778 87.85938 
L 364.90005 88.53166 
L 368.765906 91.154433 
L 370.457219 91.900934 
L 375.047923 93.756914 
L 377.464083 95.118541 
L 380.967516 97.103713 
L 382.900444 97.924559 
L 384.833372 98.502396 
L 387.128724 98.942294 
L 389.907309 99.229825 
L 393.048317 99.323419 
L 396.914174 99.219379 
L 399.330334 98.909812 
L 402.229726 98.297298 
L 408.149319 97.001813 
L 412.619215 96.316378 
L 416.968304 95.851885 
L 420.954968 95.658893 
L 425.666481 95.674228 
L 428.928297 95.893832 
L 434.24385 96.545085 
L 438.592938 96.949279 
L 443.908491 97.201509 
L 449.465659 97.233419 
L 452.606668 97.091338 
L 454.781212 96.832203 
L 455.143636 96.480145 
L 455.626868 95.611962 
L 456.351716 93.715496 
L 457.92222 89.319812 
L 458.52626 88.325586 
L 458.888684 88.070831 
L 459.251109 88.114566 
L 459.613533 88.511598 
L 459.975957 89.308156 
L 460.459189 90.998423 
L 461.063229 94.067534 
L 461.788077 98.992037 
L 462.754541 107.174966 
L 466.741205 143.15775 
L 467.707669 149.159 
L 468.553326 153.213915 
L 469.398982 156.308515 
L 470.244638 158.638477 
L 471.211102 160.647994 
L 472.53999 162.840018 
L 474.35211 165.869035 
L 475.801806 168.797393 
L 479.305239 176.174542 
L 480.271703 177.645677 
L 481.117359 178.58347 
L 481.842207 179.114071 
L 482.567055 179.398901 
L 483.291903 179.451294 
L 484.137559 179.249177 
L 485.104023 178.766944 
L 486.795336 177.613961 
L 488.96988 176.198014 
L 490.661192 175.373657 
L 495.976745 173.002622 
L 498.755329 171.30007 
L 501.654721 169.595006 
L 503.587649 168.723311 
L 505.520578 168.094613 
L 507.81593 167.59573 
L 510.473706 167.259096 
L 513.373099 167.117124 
L 517.480571 167.187748 
L 519.896731 167.465831 
L 522.554508 168.013356 
L 529.923796 169.674052 
L 534.514501 170.358134 
L 538.501165 170.748914 
L 542.367022 170.900191 
L 546.957726 170.839603 
L 550.098735 170.563293 
L 561.33388 169.302508 
L 566.407816 169.099529 
L 571.844177 169.125078 
L 574.985185 169.361204 
L 575.589225 169.476795 
L 575.95165 169.839297 
L 576.434882 170.719786 
L 577.15973 172.629435 
L 578.730234 177.027099 
L 579.334274 178.012631 
L 579.696698 178.26008 
L 580.059122 178.204504 
L 580.421546 177.7792 
L 580.78397 176.940869 
L 581.267202 175.187086 
L 581.871242 172.0422 
L 582.59609 167.041593 
L 583.683362 157.684495 
L 587.065987 126.801781 
L 588.032451 120.303545 
L 588.998915 115.314903 
L 589.844571 112.062806 
L 590.690227 109.652121 
L 591.535883 107.861616 
L 592.623155 106.108309 
L 595.160124 102.254601 
L 596.489012 99.646366 
L 600.475676 91.421421 
L 601.44214 90.112687 
L 602.287796 89.332766 
L 603.012645 88.931071 
L 603.737493 88.761393 
L 604.462341 88.812171 
L 605.307997 89.099161 
L 606.395269 89.715574 
L 611.590013 93.028732 
L 617.147182 95.849525 
L 623.429199 99.556366 
L 625.362127 100.296348 
L 627.415863 100.836288 
L 629.711216 101.206599 
L 632.368992 101.401811 
L 635.993232 101.403649 
L 638.409392 101.230143 
L 640.704745 100.829628 
L 643.724945 100.043385 
L 648.557266 98.791223 
L 652.54393 98.028665 
L 656.893019 97.405114 
L 660.517259 97.112794 
L 664.262307 97.035575 
L 668.97382 97.141413 
L 672.59806 97.477403 
L 680.088157 98.247127 
L 685.162094 98.468413 
L 690.960878 98.489853 
L 693.981079 98.33343 
L 696.397239 98.011413 
L 696.759663 97.630096 
L 697.242895 96.729913 
L 697.967743 94.803789 
L 699.538247 90.42477 
L 700.021479 89.601741 
L 700.383903 89.278064 
L 700.746327 89.246151 
L 700.987943 89.411708 
L 701.350367 89.988569 
L 701.8336 91.395804 
L 702.43764 94.131409 
L 703.162488 98.703585 
L 704.128952 106.536622 
L 705.820264 122.659314 
L 707.511576 138.008924 
L 708.598848 145.97045 
L 709.565312 151.476566 
L 710.410968 155.150419 
L 711.256625 157.935721 
L 712.102281 160.038287 
L 713.068745 161.8895 
L 717.055409 168.863131 
L 721.162882 177.381952 
L 722.129346 178.723667 
L 722.975002 179.540029 
L 723.69985 179.970583 
L 724.424698 180.16549 
L 725.149546 180.13198 
L 725.995202 179.837884 
L 727.082474 179.188576 
L 730.948331 176.635224 
L 732.518835 176.003061 
L 737.471964 174.225816 
L 739.646508 173.042203 
L 743.512364 170.893208 
L 745.445292 170.108103 
L 747.499029 169.52923 
L 749.915189 169.09486 
L 752.935389 168.789796 
L 756.197206 168.683027 
L 760.18387 168.789809 
L 762.720838 169.09644 
L 765.982655 169.737822 
L 771.298207 170.781586 
L 775.768104 171.388125 
L 780.238 171.78945 
L 784.345473 171.926053 
L 789.298601 171.845105 
L 792.43961 171.544694 
L 801.379403 170.541606 
L 806.936571 170.258795 
L 812.252124 170.216593 
L 815.755556 170.348213 
L 816.963636 170.449505 
L 816.963636 170.449505 
" clip-path="url(#p028de284c7)" style="fill: none; stroke: #1f77b4; stroke-width: 1.5; stroke-linecap: square"/>
   </g>
   <g id="line2d_17">
    <path d="M 92.236364 92.35029 
L 212.923569 92.35029 
L 213.044377 173.339965 
L 333.731583 173.339965 
L 333.852391 92.35029 
L 454.539596 92.35029 
L 454.660404 173.339965 
L 575.347609 173.339965 
L 575.468417 92.35029 
L 696.155623 92.35029 
L 696.276431 173.339965 
L 816.842828 173.339965 
L 816.963636 92.35029 
L 816.963636 92.35029 
" clip-path="url(#p028de284c7)" style="fill: none; stroke-dasharray: 5.55,2.4; stroke-dashoffset: 0; stroke: #ff7f0e; stroke-opacity: 0.6; stroke-width: 1.5"/>
   </g>
   <g id="patch_3">
    <path d="M 56 187.48 
L 56 26.88 
" style="fill: none; stroke: #000000; stroke-width: 0.8; stroke-linejoin: miter; stroke-linecap: square"/>
   </g>
   <g id="patch_4">
    <path d="M 853.2 187.48 
L 853.2 26.88 
" style="fill: none; stroke: #000000; stroke-width: 0.8; stroke-linejoin: miter; stroke-linecap: square"/>
   </g>
   <g id="patch_5">
    <path d="M 56 187.48 
L 853.2 187.48 
" style="fill: none; stroke: #000000; stroke-width: 0.8; stroke-linejoin: miter; stroke-linecap: square"/>
   </g>
   <g id="patch_6">
    <path d="M 56 26.88 
L 853.2 26.88 
" style="fill: none; stroke: #000000; stroke-width: 0.8; stroke-linejoin: miter; stroke-linecap: square"/>
   </g>
   <g id="text_18">
    <!-- Inverted Pendulum on a Cart : System States -->
    <g transform="translate(319.057188 20.88) scale(0.12 -0.12)">
     <defs>
      <path id="DejaVuSans-49" d="M 628 4666 
L 1259 4666 
L 1259 0 
L 628 0 
L 628 4666 
z
" transform="scale(0.015625)"/>
      <path id="DejaVuSans-76" d="M 191 3500 
L 800 3500 
L 1894 563 
L 2988 3500 
L 3597 3500 
L 2284 0 
L 1503 0 
L 191 3500 
z
" transform="scale(0.015625)"/>
      <path id="DejaVuSans-72" d="M 2631 2963 
Q 2534 3019 2420 3045 
Q 2306 3072 2169 3072 
Q 1681 3072 1420 2755 
Q 1159 2438 1159 1844 
L 1159 0 
L 581 0 
L 581 3500 
L 1159 3500 
L 1159 2956 
Q 1341 3275 1631 3429 
Q 1922 3584 2338 3584 
Q 2397 3584 2469 3576 
Q 2541 3569 2628 3553 
L 2631 2963 
z
" transform="scale(0.015625)"/>
      <path id="DejaVuSans-64" d="M 2906 2969 
L 2906 4863 
L 3481 4863 
L 3481 0 
L 2906 0 
L 2906 525 
Q 2725 213 2448 61 
Q 2172 -91 1784 -91 
Q 1150 -91 751 415 
Q 353 922 353 1747 
Q 353 2572 751 3078 
Q 1150 3584 1784 3584 
Q 2172 3584 2448 3432 
Q 2725 3281 2906 2969 
z
M 947 1747 
Q 947 1113 1208 752 
Q 1469 391 1925 391 
Q 2381 391 2643 752 
Q 2906 1113 2906 1747 
Q 2906 2381 2643 2742 
Q 2381 3103 1925 3103 
Q 1469 3103 1208 2742 
Q 947 2381 947 1747 
z
" transform="scale(0.015625)"/>
      <path id="DejaVuSans-75" d="M 544 1381 
L 544 3500 
L 1119 3500 
L 1119 1403 
Q 1119 906 1312 657 
Q 1506 409 1894 409 
Q 2359 409 2629 706 
Q 2900 1003 2900 1516 
L 2900 3500 
L 3475 3500 
L 3475 0 
L 2900 0 
L 2900 538 
Q 2691 219 2414 64 
Q 2138 -91 1772 -91 
Q 1169 -91 856 284 
Q 544 659 544 1381 
z
M 1991 3584 
L 1991 3584 
z
" transform="scale(0.015625)"/>
      <path id="DejaVuSans-6c" d="M 603 4863 
L 1178 4863 
L 1178 0 
L 603 0 
L 603 4863 
z
" transform="scale(0.015625)"/>
      <path id="DejaVuSans-61" d="M 2194 1759 
Q 1497 1759 1228 1600 
Q 959 1441 959 1056 
Q 959 750 1161 570 
Q 1363 391 1709 391 
Q 2188 391 2477 730 
Q 2766 1069 2766 1631 
L 2766 1759 
L 2194 1759 
z
M 3341 1997 
L 3341 0 
L 2766 0 
L 2766 531 
Q 2569 213 2275 61 
Q 1981 -91 1556 -91 
Q 1019 -91 701 211 
Q 384 513 384 1019 
Q 384 1609 779 1909 
Q 1175 2209 1959 2209 
L 2766 2209 
L 2766 2266 
Q 2766 2663 2505 2880 
Q 2244 3097 1772 3097 
Q 1472 3097 1187 3025 
Q 903 2953 641 2809 
L 641 3341 
Q 956 3463 1253 3523 
Q 1550 3584 1831 3584 
Q 2591 3584 2966 3190 
Q 3341 2797 3341 1997 
z
" transform="scale(0.015625)"/>
      <path id="DejaVuSans-43" d="M 4122 4306 
L 4122 3641 
Q 3803 3938 3442 4084 
Q 3081 4231 2675 4231 
Q 1875 4231 1450 3742 
Q 1025 3253 1025 2328 
Q 1025 1406 1450 917 
Q 1875 428 2675 428 
Q 3081 428 3442 575 
Q 3803 722 4122 1019 
L 4122 359 
Q 3791 134 3420 21 
Q 3050 -91 2638 -91 
Q 1578 -91 968 557 
Q 359 1206 359 2328 
Q 359 3453 968 4101 
Q 1578 4750 2638 4750 
Q 3056 4750 3426 4639 
Q 3797 4528 4122 4306 
z
" transform="scale(0.015625)"/>
      <path id="DejaVuSans-3a" d="M 750 794 
L 1409 794 
L 1409 0 
L 750 0 
L 750 794 
z
M 750 3309 
L 1409 3309 
L 1409 2516 
L 750 2516 
L 750 3309 
z
" transform="scale(0.015625)"/>
      <path id="DejaVuSans-53" d="M 3425 4513 
L 3425 3897 
Q 3066 4069 2747 4153 
Q 2428 4238 2131 4238 
Q 1616 4238 1336 4038 
Q 1056 3838 1056 3469 
Q 1056 3159 1242 3001 
Q 1428 2844 1947 2747 
L 2328 2669 
Q 3034 2534 3370 2195 
Q 3706 1856 3706 1288 
Q 3706 609 3251 259 
Q 2797 -91 1919 -91 
Q 1588 -91 1214 -16 
Q 841 59 441 206 
L 441 856 
Q 825 641 1194 531 
Q 1563 422 1919 422 
Q 2459 422 2753 634 
Q 3047 847 3047 1241 
Q 3047 1584 2836 1778 
Q 2625 1972 2144 2069 
L 1759 2144 
Q 1053 2284 737 2584 
Q 422 2884 422 3419 
Q 422 4038 858 4394 
Q 1294 4750 2059 4750 
Q 2388 4750 2728 4690 
Q 3069 4631 3425 4513 
z
" transform="scale(0.015625)"/>
      <path id="DejaVuSans-79" d="M 2059 -325 
Q 1816 -950 1584 -1140 
Q 1353 -1331 966 -1331 
L 506 -1331 
L 506 -850 
L 844 -850 
Q 1081 -850 1212 -737 
Q 1344 -625 1503 -206 
L 1606 56 
L 191 3500 
L 800 3500 
L 1894 763 
L 2988 3500 
L 3597 3500 
L 2059 -325 
z
" transform="scale(0.015625)"/>
     </defs>
     <use xlink:href="#DejaVuSans-49"/>
     <use xlink:href="#DejaVuSans-6e" transform="translate(29.492188 0)"/>
     <use xlink:href="#DejaVuSans-76" transform="translate(92.871094 0)"/>
     <use xlink:href="#DejaVuSans-65" transform="translate(152.050781 0)"/>
     <use xlink:href="#DejaVuSans-72" transform="translate(213.574219 0)"/>
     <use xlink:href="#DejaVuSans-74" transform="translate(254.6875 0)"/>
     <use xlink:href="#DejaVuSans-65" transform="translate(293.896484 0)"/>
     <use xlink:href="#DejaVuSans-64" transform="translate(355.419922 0)"/>
     <use xlink:href="#DejaVuSans-20" transform="translate(418.896484 0)"/>
     <use xlink:href="#DejaVuSans-50" transform="translate(450.683594 0)"/>
     <use xlink:href="#DejaVuSans-65" transform="translate(507.361328 0)"/>
     <use xlink:href="#DejaVuSans-6e" transform="translate(568.884766 0)"/>
     <use xlink:href="#DejaVuSans-64" transform="translate(632.263672 0)"/>
     <use xlink:href="#DejaVuSans-75" transform="translate(695.740234 0)"/>
     <use xlink:href="#DejaVuSans-6c" transform="translate(759.119141 0)"/>
     <use xlink:href="#DejaVuSans-75" transform="translate(786.902344 0)"/>
     <use xlink:href="#DejaVuSans-6d" transform="translate(850.28125 0)"/>
     <use xlink:href="#DejaVuSans-20" transform="translate(947.693359 0)"/>
     <use xlink:href="#DejaVuSans-6f" transform="translate(979.480469 0)"/>
     <use xlink:href="#DejaVuSans-6e" transform="translate(1040.662109 0)"/>
     <use xlink:href="#DejaVuSans-20" transform="translate(1104.041016 0)"/>
     <use xlink:href="#DejaVuSans-61" transform="translate(1135.828125 0)"/>
     <use xlink:href="#DejaVuSans-20" transform="translate(1197.107422 0)"/>
     <use xlink:href="#DejaVuSans-43" transform="translate(1228.894531 0)"/>
     <use xlink:href="#DejaVuSans-61" transform="translate(1298.71875 0)"/>
     <use xlink:href="#DejaVuSans-72" transform="translate(1359.998047 0)"/>
     <use xlink:href="#DejaVuSans-74" transform="translate(1401.111328 0)"/>
     <use xlink:href="#DejaVuSans-20" transform="translate(1440.320312 0)"/>
     <use xlink:href="#DejaVuSans-3a" transform="translate(1472.107422 0)"/>
     <use xlink:href="#DejaVuSans-20" transform="translate(1505.798828 0)"/>
     <use xlink:href="#DejaVuSans-53" transform="translate(1537.585938 0)"/>
     <use xlink:href="#DejaVuSans-79" transform="translate(1601.0625 0)"/>
     <use xlink:href="#DejaVuSans-73" transform="translate(1660.242188 0)"/>
     <use xlink:href="#DejaVuSans-74" transform="translate(1712.341797 0)"/>
     <use xlink:href="#DejaVuSans-65" transform="translate(1751.550781 0)"/>
     <use xlink:href="#DejaVuSans-6d" transform="translate(1813.074219 0)"/>
     <use xlink:href="#DejaVuSans-20" transform="translate(1910.486328 0)"/>
     <use xlink:href="#DejaVuSans-53" transform="translate(1942.273438 0)"/>
     <use xlink:href="#DejaVuSans-74" transform="translate(2005.75 0)"/>
     <use xlink:href="#DejaVuSans-61" transform="translate(2044.958984 0)"/>
     <use xlink:href="#DejaVuSans-74" transform="translate(2106.238281 0)"/>
     <use xlink:href="#DejaVuSans-65" transform="translate(2145.447266 0)"/>
     <use xlink:href="#DejaVuSans-73" transform="translate(2206.970703 0)"/>
    </g>
   </g>
   <g id="legend_1">
    <g id="patch_7">
     <path d="M 719.34375 64.514375 
L 846.2 64.514375 
Q 848.2 64.514375 848.2 62.514375 
L 848.2 33.88 
Q 848.2 31.88 846.2 31.88 
L 719.34375 31.88 
Q 717.34375 31.88 717.34375 33.88 
L 717.34375 62.514375 
Q 717.34375 64.514375 719.34375 64.514375 
z
" style="fill: #ffffff; opacity: 0.8; stroke: #cccccc; stroke-linejoin: miter"/>
    </g>
    <g id="line2d_18">
     <path d="M 721.34375 39.978437 
L 731.34375 39.978437 
L 741.34375 39.978437 
" style="fill: none; stroke: #1f77b4; stroke-width: 1.5; stroke-linecap: square"/>
    </g>
    <g id="text_19">
     <!-- Cart position x -->
     <g transform="translate(749.34375 43.478437) scale(0.1 -0.1)">
      <defs>
       <path id="DejaVuSans-70" d="M 1159 525 
L 1159 -1331 
L 581 -1331 
L 581 3500 
L 1159 3500 
L 1159 2969 
Q 1341 3281 1617 3432 
Q 1894 3584 2278 3584 
Q 2916 3584 3314 3078 
Q 3713 2572 3713 1747 
Q 3713 922 3314 415 
Q 2916 -91 2278 -91 
Q 1894 -91 1617 61 
Q 1341 213 1159 525 
z
M 3116 1747 
Q 3116 2381 2855 2742 
Q 2594 3103 2138 3103 
Q 1681 3103 1420 2742 
Q 1159 2381 1159 1747 
Q 1159 1113 1420 752 
Q 1681 391 2138 391 
Q 2594 391 2855 752 
Q 3116 1113 3116 1747 
z
" transform="scale(0.015625)"/>
       <path id="DejaVuSans-78" d="M 3513 3500 
L 2247 1797 
L 3578 0 
L 2900 0 
L 1881 1375 
L 863 0 
L 184 0 
L 1544 1831 
L 300 3500 
L 978 3500 
L 1906 2253 
L 2834 3500 
L 3513 3500 
z
" transform="scale(0.015625)"/>
      </defs>
      <use xlink:href="#DejaVuSans-43"/>
      <use xlink:href="#DejaVuSans-61" transform="translate(69.824219 0)"/>
      <use xlink:href="#DejaVuSans-72" transform="translate(131.103516 0)"/>
      <use xlink:href="#DejaVuSans-74" transform="translate(172.216797 0)"/>
      <use xlink:href="#DejaVuSans-20" transform="translate(211.425781 0)"/>
      <use xlink:href="#DejaVuSans-70" transform="translate(243.212891 0)"/>
      <use xlink:href="#DejaVuSans-6f" transform="translate(306.689453 0)"/>
      <use xlink:href="#DejaVuSans-73" transform="translate(367.871094 0)"/>
      <use xlink:href="#DejaVuSans-69" transform="translate(419.970703 0)"/>
      <use xlink:href="#DejaVuSans-74" transform="translate(447.753906 0)"/>
      <use xlink:href="#DejaVuSans-69" transform="translate(486.962891 0)"/>
      <use xlink:href="#DejaVuSans-6f" transform="translate(514.746094 0)"/>
      <use xlink:href="#DejaVuSans-6e" transform="translate(575.927734 0)"/>
      <use xlink:href="#DejaVuSans-20" transform="translate(639.306641 0)"/>
      <use xlink:href="#DejaVuSans-78" transform="translate(671.09375 0)"/>
     </g>
    </g>
    <g id="line2d_19">
     <path d="M 721.34375 54.656563 
L 731.34375 54.656563 
L 741.34375 54.656563 
" style="fill: none; stroke-dasharray: 5.55,2.4; stroke-dashoffset: 0; stroke: #ff7f0e; stroke-opacity: 0.6; stroke-width: 1.5"/>
    </g>
    <g id="text_20">
     <!-- Reference x_target -->
     <g transform="translate(749.34375 58.156563) scale(0.1 -0.1)">
      <defs>
       <path id="DejaVuSans-52" d="M 2841 2188 
Q 3044 2119 3236 1894 
Q 3428 1669 3622 1275 
L 4263 0 
L 3584 0 
L 2988 1197 
Q 2756 1666 2539 1819 
Q 2322 1972 1947 1972 
L 1259 1972 
L 1259 0 
L 628 0 
L 628 4666 
L 2053 4666 
Q 2853 4666 3247 4331 
Q 3641 3997 3641 3322 
Q 3641 2881 3436 2590 
Q 3231 2300 2841 2188 
z
M 1259 4147 
L 1259 2491 
L 2053 2491 
Q 2509 2491 2742 2702 
Q 2975 2913 2975 3322 
Q 2975 3731 2742 3939 
Q 2509 4147 2053 4147 
L 1259 4147 
z
" transform="scale(0.015625)"/>
       <path id="DejaVuSans-66" d="M 2375 4863 
L 2375 4384 
L 1825 4384 
Q 1516 4384 1395 4259 
Q 1275 4134 1275 3809 
L 1275 3500 
L 2222 3500 
L 2222 3053 
L 1275 3053 
L 1275 0 
L 697 0 
L 697 3053 
L 147 3053 
L 147 3500 
L 697 3500 
L 697 3744 
Q 697 4328 969 4595 
Q 1241 4863 1831 4863 
L 2375 4863 
z
" transform="scale(0.015625)"/>
       <path id="DejaVuSans-63" d="M 3122 3366 
L 3122 2828 
Q 2878 2963 2633 3030 
Q 2388 3097 2138 3097 
Q 1578 3097 1268 2742 
Q 959 2388 959 1747 
Q 959 1106 1268 751 
Q 1578 397 2138 397 
Q 2388 397 2633 464 
Q 2878 531 3122 666 
L 3122 134 
Q 2881 22 2623 -34 
Q 2366 -91 2075 -91 
Q 1284 -91 818 406 
Q 353 903 353 1747 
Q 353 2603 823 3093 
Q 1294 3584 2113 3584 
Q 2378 3584 2631 3529 
Q 2884 3475 3122 3366 
z
" transform="scale(0.015625)"/>
       <path id="DejaVuSans-5f" d="M 3263 -1063 
L 3263 -1509 
L -63 -1509 
L -63 -1063 
L 3263 -1063 
z
" transform="scale(0.015625)"/>
       <path id="DejaVuSans-67" d="M 2906 1791 
Q 2906 2416 2648 2759 
Q 2391 3103 1925 3103 
Q 1463 3103 1205 2759 
Q 947 2416 947 1791 
Q 947 1169 1205 825 
Q 1463 481 1925 481 
Q 2391 481 2648 825 
Q 2906 1169 2906 1791 
z
M 3481 434 
Q 3481 -459 3084 -895 
Q 2688 -1331 1869 -1331 
Q 1566 -1331 1297 -1286 
Q 1028 -1241 775 -1147 
L 775 -588 
Q 1028 -725 1275 -790 
Q 1522 -856 1778 -856 
Q 2344 -856 2625 -561 
Q 2906 -266 2906 331 
L 2906 616 
Q 2728 306 2450 153 
Q 2172 0 1784 0 
Q 1141 0 747 490 
Q 353 981 353 1791 
Q 353 2603 747 3093 
Q 1141 3584 1784 3584 
Q 2172 3584 2450 3431 
Q 2728 3278 2906 2969 
L 2906 3500 
L 3481 3500 
L 3481 434 
z
" transform="scale(0.015625)"/>
      </defs>
      <use xlink:href="#DejaVuSans-52"/>
      <use xlink:href="#DejaVuSans-65" transform="translate(64.982422 0)"/>
      <use xlink:href="#DejaVuSans-66" transform="translate(126.505859 0)"/>
      <use xlink:href="#DejaVuSans-65" transform="translate(161.710938 0)"/>
      <use xlink:href="#DejaVuSans-72" transform="translate(223.234375 0)"/>
      <use xlink:href="#DejaVuSans-65" transform="translate(262.097656 0)"/>
      <use xlink:href="#DejaVuSans-6e" transform="translate(323.621094 0)"/>
      <use xlink:href="#DejaVuSans-63" transform="translate(387 0)"/>
      <use xlink:href="#DejaVuSans-65" transform="translate(441.980469 0)"/>
      <use xlink:href="#DejaVuSans-20" transform="translate(503.503906 0)"/>
      <use xlink:href="#DejaVuSans-78" transform="translate(535.291016 0)"/>
      <use xlink:href="#DejaVuSans-5f" transform="translate(594.470703 0)"/>
      <use xlink:href="#DejaVuSans-74" transform="translate(644.470703 0)"/>
      <use xlink:href="#DejaVuSans-61" transform="translate(683.679688 0)"/>
      <use xlink:href="#DejaVuSans-72" transform="translate(744.958984 0)"/>
      <use xlink:href="#DejaVuSans-67" transform="translate(784.322266 0)"/>
      <use xlink:href="#DejaVuSans-65" transform="translate(847.798828 0)"/>
      <use xlink:href="#DejaVuSans-74" transform="translate(909.322266 0)"/>
     </g>
    </g>
   </g>
  </g>
  <g id="axes_2">
   <g id="patch_8">
    <path d="M 56 390.04 
L 853.2 390.04 
L 853.2 229.44 
L 56 229.44 
z
" style="fill: #ffffff"/>
   </g>
   <g id="matplotlib.axis_3">
    <g id="xtick_8">
     <g id="line2d_20">
      <g>
       <use xlink:href="#mdd2e212f5d" x="92.236364" y="390.04" style="stroke: #000000; stroke-width: 0.8"/>
      </g>
     </g>
     <g id="text_21">
      <!-- 0 -->
      <g transform="translate(89.055114 404.638437) scale(0.1 -0.1)">
       <use xlink:href="#DejaVuSans-30"/>
      </g>
     </g>
    </g>
    <g id="xtick_9">
     <g id="line2d_21">
      <g>
       <use xlink:href="#mdd2e212f5d" x="213.024242" y="390.04" style="stroke: #000000; stroke-width: 0.8"/>
      </g>
     </g>
     <g id="text_22">
      <!-- 10 -->
      <g transform="translate(206.661742 404.638437) scale(0.1 -0.1)">
       <use xlink:href="#DejaVuSans-31"/>
       <use xlink:href="#DejaVuSans-30" transform="translate(63.623047 0)"/>
      </g>
     </g>
    </g>
    <g id="xtick_10">
     <g id="line2d_22">
      <g>
       <use xlink:href="#mdd2e212f5d" x="333.812121" y="390.04" style="stroke: #000000; stroke-width: 0.8"/>
      </g>
     </g>
     <g id="text_23">
      <!-- 20 -->
      <g transform="translate(327.449621 404.638437) scale(0.1 -0.1)">
       <use xlink:href="#DejaVuSans-32"/>
       <use xlink:href="#DejaVuSans-30" transform="translate(63.623047 0)"/>
      </g>
     </g>
    </g>
    <g id="xtick_11">
     <g id="line2d_23">
      <g>
       <use xlink:href="#mdd2e212f5d" x="454.6" y="390.04" style="stroke: #000000; stroke-width: 0.8"/>
      </g>
     </g>
     <g id="text_24">
      <!-- 30 -->
      <g transform="translate(448.2375 404.638437) scale(0.1 -0.1)">
       <use xlink:href="#DejaVuSans-33"/>
       <use xlink:href="#DejaVuSans-30" transform="translate(63.623047 0)"/>
      </g>
     </g>
    </g>
    <g id="xtick_12">
     <g id="line2d_24">
      <g>
       <use xlink:href="#mdd2e212f5d" x="575.387879" y="390.04" style="stroke: #000000; stroke-width: 0.8"/>
      </g>
     </g>
     <g id="text_25">
      <!-- 40 -->
      <g transform="translate(569.025379 404.638437) scale(0.1 -0.1)">
       <use xlink:href="#DejaVuSans-34"/>
       <use xlink:href="#DejaVuSans-30" transform="translate(63.623047 0)"/>
      </g>
     </g>
    </g>
    <g id="xtick_13">
     <g id="line2d_25">
      <g>
       <use xlink:href="#mdd2e212f5d" x="696.175758" y="390.04" style="stroke: #000000; stroke-width: 0.8"/>
      </g>
     </g>
     <g id="text_26">
      <!-- 50 -->
      <g transform="translate(689.813258 404.638437) scale(0.1 -0.1)">
       <use xlink:href="#DejaVuSans-35"/>
       <use xlink:href="#DejaVuSans-30" transform="translate(63.623047 0)"/>
      </g>
     </g>
    </g>
    <g id="xtick_14">
     <g id="line2d_26">
      <g>
       <use xlink:href="#mdd2e212f5d" x="816.963636" y="390.04" style="stroke: #000000; stroke-width: 0.8"/>
      </g>
     </g>
     <g id="text_27">
      <!-- 60 -->
      <g transform="translate(810.601136 404.638437) scale(0.1 -0.1)">
       <use xlink:href="#DejaVuSans-36"/>
       <use xlink:href="#DejaVuSans-30" transform="translate(63.623047 0)"/>
      </g>
     </g>
    </g>
    <g id="text_28">
     <!-- Time (s) -->
     <g transform="translate(434.271094 418.316562) scale(0.1 -0.1)">
      <use xlink:href="#DejaVuSans-54"/>
      <use xlink:href="#DejaVuSans-69" transform="translate(57.958984 0)"/>
      <use xlink:href="#DejaVuSans-6d" transform="translate(85.742188 0)"/>
      <use xlink:href="#DejaVuSans-65" transform="translate(183.154297 0)"/>
      <use xlink:href="#DejaVuSans-20" transform="translate(244.677734 0)"/>
      <use xlink:href="#DejaVuSans-28" transform="translate(276.464844 0)"/>
      <use xlink:href="#DejaVuSans-73" transform="translate(315.478516 0)"/>
      <use xlink:href="#DejaVuSans-29" transform="translate(367.578125 0)"/>
     </g>
    </g>
   </g>
   <g id="matplotlib.axis_4">
    <g id="ytick_9">
     <g id="line2d_27">
      <g>
       <use xlink:href="#m82a6e1413f" x="56" y="360.345419" style="stroke: #000000; stroke-width: 0.8"/>
      </g>
     </g>
     <g id="text_29">
      <!-- −1 -->
      <g transform="translate(34.257812 364.144638) scale(0.1 -0.1)">
       <use xlink:href="#DejaVuSans-2212"/>
       <use xlink:href="#DejaVuSans-31" transform="translate(83.789062 0)"/>
      </g>
     </g>
    </g>
    <g id="ytick_10">
     <g id="line2d_28">
      <g>
       <use xlink:href="#m82a6e1413f" x="56" y="329.469482" style="stroke: #000000; stroke-width: 0.8"/>
      </g>
     </g>
     <g id="text_30">
      <!-- 0 -->
      <g transform="translate(42.6375 333.268701) scale(0.1 -0.1)">
       <use xlink:href="#DejaVuSans-30"/>
      </g>
     </g>
    </g>
    <g id="ytick_11">
     <g id="line2d_29">
      <g>
       <use xlink:href="#m82a6e1413f" x="56" y="298.593545" style="stroke: #000000; stroke-width: 0.8"/>
      </g>
     </g>
     <g id="text_31">
      <!-- 1 -->
      <g transform="translate(42.6375 302.392763) scale(0.1 -0.1)">
       <use xlink:href="#DejaVuSans-31"/>
      </g>
     </g>
    </g>
    <g id="ytick_12">
     <g id="line2d_30">
      <g>
       <use xlink:href="#m82a6e1413f" x="56" y="267.717607" style="stroke: #000000; stroke-width: 0.8"/>
      </g>
     </g>
     <g id="text_32">
      <!-- 2 -->
      <g transform="translate(42.6375 271.516826) scale(0.1 -0.1)">
       <use xlink:href="#DejaVuSans-32"/>
      </g>
     </g>
    </g>
    <g id="ytick_13">
     <g id="line2d_31">
      <g>
       <use xlink:href="#m82a6e1413f" x="56" y="236.84167" style="stroke: #000000; stroke-width: 0.8"/>
      </g>
     </g>
     <g id="text_33">
      <!-- 3 -->
      <g transform="translate(42.6375 240.640888) scale(0.1 -0.1)">
       <use xlink:href="#DejaVuSans-33"/>
      </g>
     </g>
    </g>
    <g id="text_34">
     <!-- Velocity (m/s) -->
     <g transform="translate(28.178125 344.005625) rotate(-90) scale(0.1 -0.1)">
      <defs>
       <path id="DejaVuSans-56" d="M 1831 0 
L 50 4666 
L 709 4666 
L 2188 738 
L 3669 4666 
L 4325 4666 
L 2547 0 
L 1831 0 
z
" transform="scale(0.015625)"/>
       <path id="DejaVuSans-2f" d="M 1625 4666 
L 2156 4666 
L 531 -594 
L 0 -594 
L 1625 4666 
z
" transform="scale(0.015625)"/>
      </defs>
      <use xlink:href="#DejaVuSans-56"/>
      <use xlink:href="#DejaVuSans-65" transform="translate(60.658203 0)"/>
      <use xlink:href="#DejaVuSans-6c" transform="translate(122.181641 0)"/>
      <use xlink:href="#DejaVuSans-6f" transform="translate(149.964844 0)"/>
      <use xlink:href="#DejaVuSans-63" transform="translate(211.146484 0)"/>
      <use xlink:href="#DejaVuSans-69" transform="translate(266.126953 0)"/>
      <use xlink:href="#DejaVuSans-74" transform="translate(293.910156 0)"/>
      <use xlink:href="#DejaVuSans-79" transform="translate(333.119141 0)"/>
      <use xlink:href="#DejaVuSans-20" transform="translate(392.298828 0)"/>
      <use xlink:href="#DejaVuSans-28" transform="translate(424.085938 0)"/>
      <use xlink:href="#DejaVuSans-6d" transform="translate(463.099609 0)"/>
      <use xlink:href="#DejaVuSans-2f" transform="translate(560.511719 0)"/>
      <use xlink:href="#DejaVuSans-73" transform="translate(594.203125 0)"/>
      <use xlink:href="#DejaVuSans-29" transform="translate(646.302734 0)"/>
     </g>
    </g>
   </g>
   <g id="line2d_32">
    <path d="M 92.236364 329.469482 
L 93.444444 279.353826 
L 94.2901 253.976704 
L 94.773332 244.711944 
L 95.135756 239.548459 
L 95.49818 237.535384 
L 95.739796 236.775447 
L 95.860604 236.74 
L 95.981412 237.066878 
L 96.223028 238.738454 
L 96.827068 245.620663 
L 97.551916 260.028468 
L 98.880804 295.594004 
L 100.813733 349.399423 
L 101.538581 365.032638 
L 102.142621 374.802368 
L 102.625853 379.493775 
L 103.109085 382.404535 
L 103.350701 382.74 
L 103.592317 382.413348 
L 103.954741 381.47331 
L 104.317165 379.148883 
L 105.042013 371.948485 
L 106.370901 353.065034 
L 108.183021 327.781978 
L 108.907869 319.314594 
L 109.51191 314.643101 
L 109.995142 312.489573 
L 110.357566 311.727204 
L 110.599182 311.697214 
L 110.840798 312.013761 
L 111.203222 313.059047 
L 111.686454 315.350622 
L 112.290494 319.364179 
L 113.256958 327.605291 
L 115.069078 342.999137 
L 115.793926 347.234091 
L 116.277158 349.230818 
L 116.881198 350.595922 
L 117.122814 350.709566 
L 117.485238 350.728891 
L 117.726854 350.448701 
L 118.330895 349.11553 
L 119.176551 345.781367 
L 119.901399 342.205806 
L 121.834327 332.236014 
L 123.284023 326.349012 
L 123.767255 325.110532 
L 124.371295 324.246367 
L 124.854527 324.077325 
L 125.216951 324.174091 
L 125.579375 324.516241 
L 126.183415 325.477469 
L 127.029072 327.335454 
L 128.720384 331.252651 
L 129.56604 332.726566 
L 130.411696 333.715009 
L 131.015736 334.104916 
L 131.740584 334.186523 
L 132.465432 333.884644 
L 133.431896 333.023435 
L 134.519168 331.669042 
L 136.089673 329.713653 
L 136.814521 329.069424 
L 137.901793 328.44733 
L 138.868257 328.162615 
L 139.955529 328.095775 
L 141.646841 328.3214 
L 143.821385 328.675248 
L 145.633506 328.712211 
L 147.928858 328.465532 
L 151.069866 328.136868 
L 152.881986 328.13468 
L 154.935723 328.302005 
L 162.184203 328.961173 
L 175.110661 329.90326 
L 178.130861 330.109656 
L 180.426213 330.087789 
L 198.547415 329.033709 
L 201.567616 328.797299 
L 203.983776 328.795833 
L 212.923569 329.068465 
L 213.044377 328.835642 
L 213.769225 321.683466 
L 214.373265 317.693407 
L 214.735689 316.303701 
L 214.977305 315.84399 
L 215.218921 315.775218 
L 215.460537 316.078337 
L 215.822961 317.048869 
L 216.185385 318.8245 
L 216.910234 324.342064 
L 217.75589 333.515256 
L 219.930434 362.29568 
L 220.77609 369.65395 
L 221.259322 372.417312 
L 221.621746 373.924839 
L 222.225786 374.866141 
L 222.467402 374.747386 
L 222.58821 374.711654 
L 222.829826 374.194604 
L 223.433866 372.111028 
L 224.037906 368.947969 
L 224.641946 365.048257 
L 227.662147 344.205525 
L 228.628611 339.976905 
L 229.232651 338.184836 
L 229.715883 337.14563 
L 230.199115 336.544896 
L 230.682347 336.24528 
L 231.044771 336.206577 
L 231.407195 336.359606 
L 232.252851 337.140467 
L 233.098507 338.168394 
L 234.185779 339.290619 
L 234.78982 339.632545 
L 235.273052 339.726415 
L 235.635476 339.669391 
L 236.118708 339.428743 
L 236.60194 339.002078 
L 237.085172 338.400243 
L 237.689212 337.445445 
L 238.897292 334.991387 
L 241.313452 329.884977 
L 242.279916 328.124411 
L 243.24638 326.901604 
L 243.971229 326.329683 
L 244.696077 326.055416 
L 245.300117 325.989822 
L 246.387389 326.174047 
L 249.890821 327.296932 
L 251.098901 327.337195 
L 252.548597 327.133728 
L 256.172838 326.485892 
L 257.86415 326.538159 
L 259.917886 326.983441 
L 266.079095 328.655548 
L 270.065759 329.261959 
L 272.844344 329.493232 
L 275.018888 329.7279 
L 281.300905 330.607438 
L 283.354641 330.613573 
L 295.677058 329.866104 
L 302.804731 329.449419 
L 305.462507 329.217694 
L 310.17402 328.828189 
L 313.677452 328.893999 
L 323.100477 329.327358 
L 331.557038 329.805173 
L 333.731583 330.012469 
L 333.852391 330.653303 
L 334.577239 337.700689 
L 335.181279 341.627972 
L 335.543703 342.983189 
L 335.785319 343.426752 
L 336.026935 343.481219 
L 336.268551 343.146635 
L 336.630975 342.063039 
L 336.993399 340.309463 
L 337.597439 335.751723 
L 338.322287 328.499978 
L 339.047135 318.689639 
L 340.376023 300.963402 
L 341.221679 292.243401 
L 341.946527 287.367003 
L 342.42976 285.307403 
L 342.912992 284.333841 
L 343.396224 284.460619 
L 343.758648 285.329486 
L 344.000264 285.962836 
L 344.725112 289.500446 
L 345.44996 294.055033 
L 348.107736 312.771368 
L 349.0742 317.550552 
L 349.919856 320.393435 
L 350.523896 321.74591 
L 351.007128 322.331966 
L 351.490361 322.63135 
L 351.852785 322.660057 
L 352.215209 322.489301 
L 352.940057 321.853369 
L 355.356217 319.344565 
L 356.081065 319.141401 
L 356.685105 319.302702 
L 357.409953 319.869812 
L 358.013993 320.649677 
L 359.222073 322.854564 
L 362.967122 330.6036 
L 363.812778 331.817827 
L 364.537626 332.493341 
L 365.141666 332.807369 
L 365.987322 332.934914 
L 366.832978 332.757187 
L 370.940451 331.153054 
L 371.906915 331.122471 
L 373.235803 331.332959 
L 377.705699 332.23898 
L 379.034588 332.160091 
L 380.846708 331.756358 
L 383.625292 330.908238 
L 385.920644 330.357385 
L 388.336805 329.964417 
L 392.323469 329.514625 
L 393.893973 329.456531 
L 395.826901 329.272625 
L 402.59215 328.368727 
L 405.370735 328.447731 
L 412.377599 328.849518 
L 417.693152 329.167346 
L 433.156578 330.051964 
L 436.66001 329.8828 
L 444.270915 329.574474 
L 452.244244 329.136129 
L 454.539596 328.950234 
L 454.781212 326.858452 
L 455.50606 320.183935 
L 455.989292 317.261744 
L 456.351716 316.002237 
L 456.593332 315.62629 
L 456.834948 315.596508 
L 457.076564 315.857633 
L 457.31818 316.456795 
L 457.680604 318.11818 
L 458.284644 322.344721 
L 459.009492 329.352485 
L 459.613533 337.026399 
L 461.304845 359.437573 
L 462.029693 366.764666 
L 462.754541 371.666463 
L 463.358581 373.963756 
L 463.721005 374.703275 
L 464.083429 374.599831 
L 464.204237 374.572424 
L 464.445853 374.072786 
L 465.049893 372.055242 
L 465.533125 369.675182 
L 466.499589 363.37828 
L 469.157366 345.269614 
L 470.12383 340.886263 
L 470.848678 338.644522 
L 471.452718 337.47788 
L 471.93595 336.889759 
L 472.298374 336.722889 
L 472.902414 336.727024 
L 473.506454 337.124004 
L 474.231302 337.870738 
L 475.439382 339.14432 
L 476.16423 339.631798 
L 476.76827 339.766596 
L 477.251503 339.687626 
L 477.613927 339.512239 
L 478.217967 338.987449 
L 478.822007 338.210952 
L 479.788471 336.494782 
L 484.016751 327.895843 
L 484.741599 327.032087 
L 485.466447 326.481597 
L 486.191296 326.209773 
L 486.795336 326.193467 
L 487.640992 326.361675 
L 488.486648 326.676641 
L 490.057152 327.325341 
L 491.144424 327.599666 
L 492.231696 327.664459 
L 493.439776 327.511424 
L 496.097553 326.845712 
L 497.788865 326.573374 
L 498.876137 326.560475 
L 500.446641 326.777914 
L 503.346033 327.621675 
L 506.00381 328.335231 
L 509.144818 328.891524 
L 514.339563 329.469924 
L 516.272491 329.592363 
L 519.051075 330.066102 
L 521.950468 330.515641 
L 523.762588 330.624261 
L 526.178748 330.554296 
L 532.943997 330.122445 
L 538.742781 329.761581 
L 554.085399 328.831719 
L 573.052257 329.782688 
L 575.347609 329.988079 
L 575.589225 332.218051 
L 576.314074 338.864638 
L 576.797306 341.753301 
L 577.15973 342.983899 
L 577.401346 343.345521 
L 577.642962 343.374874 
L 577.884578 343.106379 
L 578.126194 342.481058 
L 578.488618 340.774502 
L 579.092658 336.513595 
L 579.696698 330.763568 
L 580.300738 323.229589 
L 581.99205 300.294064 
L 582.958514 290.891085 
L 583.683362 286.656966 
L 584.045786 285.239819 
L 584.529018 284.509925 
L 584.649826 284.503766 
L 585.253867 285.360667 
L 586.099523 288.793187 
L 586.703563 292.391537 
L 589.965379 314.864717 
L 590.690227 318.259894 
L 591.415075 320.699272 
L 592.019115 321.992921 
L 592.502347 322.668728 
L 592.985579 322.984638 
L 593.348003 322.996173 
L 593.831236 322.732954 
L 594.314468 322.319498 
L 596.489012 319.717625 
L 597.21386 319.259162 
L 597.938708 319.197846 
L 598.42194 319.397477 
L 599.02598 319.923373 
L 599.992444 321.325 
L 601.200524 323.746201 
L 603.495877 328.625848 
L 604.703957 330.793961 
L 605.549613 331.83972 
L 606.274461 332.416837 
L 606.999309 332.705188 
L 607.724157 332.789631 
L 608.811429 332.612994 
L 611.83163 331.673787 
L 613.03971 331.58182 
L 614.489406 331.730328 
L 618.838494 332.434629 
L 620.408998 332.322807 
L 621.858695 332.008746 
L 624.154047 331.303995 
L 626.932631 330.544905 
L 630.436064 329.893489 
L 633.939496 329.465105 
L 635.51 329.403344 
L 637.442928 329.098601 
L 642.033633 328.268951 
L 643.845753 328.170775 
L 646.382721 328.276468 
L 673.926948 330.030461 
L 676.705533 329.951917 
L 693.377039 329.129059 
L 696.155623 328.90116 
L 697.363703 318.385823 
L 697.846935 316.25789 
L 698.209359 315.533721 
L 698.450975 315.489384 
L 698.692591 315.830558 
L 699.055015 317.096201 
L 699.538247 319.744087 
L 700.263095 325.917113 
L 700.987943 334.249947 
L 703.04168 361.300242 
L 703.766528 367.87024 
L 704.370568 371.659333 
L 704.8538 373.578978 
L 705.337032 374.445891 
L 705.820264 374.242766 
L 706.303496 373.063337 
L 706.786728 371.067428 
L 707.26996 368.437514 
L 707.874 364.547956 
L 710.169352 348.32689 
L 711.015009 343.710767 
L 711.739857 340.626138 
L 712.464705 338.477572 
L 713.068745 337.38046 
L 713.551977 336.842727 
L 713.914401 336.710281 
L 714.518441 336.758744 
L 715.122481 337.181552 
L 716.209753 338.353478 
L 717.176217 339.292313 
L 717.901065 339.690717 
L 718.505105 339.763593 
L 718.988337 339.61935 
L 719.592378 339.173508 
L 720.558842 337.907102 
L 721.646114 335.876383 
L 725.51197 327.936654 
L 726.478434 326.741559 
L 727.203282 326.239334 
L 727.807322 326.072423 
L 728.652979 326.133341 
L 729.861059 326.639822 
L 731.914795 327.710754 
L 733.002067 328.014397 
L 733.968531 328.081994 
L 735.176611 327.911503 
L 737.955196 327.091261 
L 739.284084 326.814292 
L 740.854588 326.76269 
L 742.183476 326.952277 
L 744.599636 327.637066 
L 747.378221 328.391981 
L 749.673573 328.79783 
L 752.935389 329.159521 
L 762.116798 330.128069 
L 764.532959 330.405694 
L 766.586695 330.468562 
L 770.090127 330.293645 
L 784.949513 329.472973 
L 788.573753 329.269433 
L 793.164458 328.864035 
L 796.184658 328.885852 
L 808.990307 329.426762 
L 816.601212 329.875457 
L 816.963636 329.902407 
L 816.963636 329.902407 
" clip-path="url(#p1c09d7eda8)" style="fill: none; stroke: #1f77b4; stroke-width: 1.5; stroke-linecap: square"/>
   </g>
   <g id="patch_9">
    <path d="M 56 390.04 
L 56 229.44 
" style="fill: none; stroke: #000000; stroke-width: 0.8; stroke-linejoin: miter; stroke-linecap: square"/>
   </g>
   <g id="patch_10">
    <path d="M 853.2 390.04 
L 853.2 229.44 
" style="fill: none; stroke: #000000; stroke-width: 0.8; stroke-linejoin: miter; stroke-linecap: square"/>
   </g>
   <g id="patch_11">
    <path d="M 56 390.04 
L 853.2 390.04 
" style="fill: none; stroke: #000000; stroke-width: 0.8; stroke-linejoin: miter; stroke-linecap: square"/>
   </g>
   <g id="patch_12">
    <path d="M 56 229.44 
L 853.2 229.44 
" style="fill: none; stroke: #000000; stroke-width: 0.8; stroke-linejoin: miter; stroke-linecap: square"/>
   </g>
   <g id="legend_2">
    <g id="patch_13">
     <path d="M 720.310938 252.39625 
L 846.2 252.39625 
Q 848.2 252.39625 848.2 250.39625 
L 848.2 236.44 
Q 848.2 234.44 846.2 234.44 
L 720.310938 234.44 
Q 718.310938 234.44 718.310938 236.44 
L 718.310938 250.39625 
Q 718.310938 252.39625 720.310938 252.39625 
z
" style="fill: #ffffff; opacity: 0.8; stroke: #cccccc; stroke-linejoin: miter"/>
    </g>
    <g id="line2d_33">
     <path d="M 722.310938 242.538437 
L 732.310938 242.538437 
L 742.310938 242.538437 
" style="fill: none; stroke: #1f77b4; stroke-width: 1.5; stroke-linecap: square"/>
    </g>
    <g id="text_35">
     <!-- Cart velocity x_dot -->
     <g transform="translate(750.310938 246.038437) scale(0.1 -0.1)">
      <use xlink:href="#DejaVuSans-43"/>
      <use xlink:href="#DejaVuSans-61" transform="translate(69.824219 0)"/>
      <use xlink:href="#DejaVuSans-72" transform="translate(131.103516 0)"/>
      <use xlink:href="#DejaVuSans-74" transform="translate(172.216797 0)"/>
      <use xlink:href="#DejaVuSans-20" transform="translate(211.425781 0)"/>
      <use xlink:href="#DejaVuSans-76" transform="translate(243.212891 0)"/>
      <use xlink:href="#DejaVuSans-65" transform="translate(302.392578 0)"/>
      <use xlink:href="#DejaVuSans-6c" transform="translate(363.916016 0)"/>
      <use xlink:href="#DejaVuSans-6f" transform="translate(391.699219 0)"/>
      <use xlink:href="#DejaVuSans-63" transform="translate(452.880859 0)"/>
      <use xlink:href="#DejaVuSans-69" transform="translate(507.861328 0)"/>
      <use xlink:href="#DejaVuSans-74" transform="translate(535.644531 0)"/>
      <use xlink:href="#DejaVuSans-79" transform="translate(574.853516 0)"/>
      <use xlink:href="#DejaVuSans-20" transform="translate(634.033203 0)"/>
      <use xlink:href="#DejaVuSans-78" transform="translate(665.820312 0)"/>
      <use xlink:href="#DejaVuSans-5f" transform="translate(725 0)"/>
      <use xlink:href="#DejaVuSans-64" transform="translate(775 0)"/>
      <use xlink:href="#DejaVuSans-6f" transform="translate(838.476562 0)"/>
      <use xlink:href="#DejaVuSans-74" transform="translate(899.658203 0)"/>
     </g>
    </g>
   </g>
  </g>
 </g>
 <defs>
  <clipPath id="p028de284c7">
   <rect x="56" y="26.88" width="797.2" height="160.6"/>
  </clipPath>
  <clipPath id="p1c09d7eda8">
   <rect x="56" y="229.44" width="797.2" height="160.6"/>
  </clipPath>
 </defs>
</svg>
